<?xml version="1.0" encoding="utf-8" standalone="no"?>
<!DOCTYPE svg PUBLIC "-//W3C//DTD SVG 1.1//EN"
  "http://www.w3.org/Graphics/SVG/1.1/DTD/svg11.dtd">
<!-- Created with matplotlib (http://matplotlib.org/) -->
<svg height="432pt" version="1.1" viewBox="0 0 569 432" width="569pt" xmlns="http://www.w3.org/2000/svg" xmlns:xlink="http://www.w3.org/1999/xlink">
 <defs>
  <style type="text/css">
*{stroke-linecap:butt;stroke-linejoin:round;stroke-miterlimit:100000;}
  </style>
 </defs>
 <g id="figure_1">
  <g id="patch_1">
   <path d="M 0 432 
L 569 432 
L 569 0 
L 0 0 
z
" style="fill:#ffffff;"/>
  </g>
  <g id="axes_1">
   <g id="patch_2">
    <path d="M 48.84375 386.8125 
L 548.405 386.8125 
L 548.405 18.766875 
L 48.84375 18.766875 
z
" style="fill:#ffffff;"/>
   </g>
   <g id="PathCollection_1">
    <defs>
     <path d="M 0 2.236068 
C 0.593012 2.236068 1.161816 2.000462 1.581139 1.581139 
C 2.000462 1.161816 2.236068 0.593012 2.236068 0 
C 2.236068 -0.593012 2.000462 -1.161816 1.581139 -1.581139 
C 1.161816 -2.000462 0.593012 -2.236068 0 -2.236068 
C -0.593012 -2.236068 -1.161816 -2.000462 -1.581139 -1.581139 
C -2.000462 -1.161816 -2.236068 -0.593012 -2.236068 0 
C -2.236068 0.593012 -2.000462 1.161816 -1.581139 1.581139 
C -1.161816 2.000462 -0.593012 2.236068 0 2.236068 
z
" id="m7aabfecfe5" style="stroke:#000000;"/>
    </defs>
    <g clip-path="url(#pf4316e3445)">
     <use style="fill:#0000ff;stroke:#000000;" x="166.02654607142858" xlink:href="#m7aabfecfe5" y="311.1002571428571"/>
     <use style="fill:#0000ff;stroke:#000000;" x="268.6506999999999" xlink:href="#m7aabfecfe5" y="224.87242499999996"/>
     <use style="fill:#0000ff;stroke:#000000;" x="174.733185" xlink:href="#m7aabfecfe5" y="294.06500249999993"/>
     <use style="fill:#0000ff;stroke:#000000;" x="148.4705364285714" xlink:href="#m7aabfecfe5" y="313.4136867857142"/>
     <use style="fill:#0000ff;stroke:#000000;" x="242.1025878571428" xlink:href="#m7aabfecfe5" y="244.43142107142853"/>
     <use style="fill:#0000ff;stroke:#000000;" x="237.24970714285718" xlink:href="#m7aabfecfe5" y="217.51151249999992"/>
     <use style="fill:#0000ff;stroke:#000000;" x="248.66824999999994" xlink:href="#m7aabfecfe5" y="217.9321360714285"/>
     <use style="fill:#0000ff;stroke:#000000;" x="254.662985" xlink:href="#m7aabfecfe5" y="235.17770249999995"/>
     <use style="fill:#0000ff;stroke:#000000;" x="249.38190892857136" xlink:href="#m7aabfecfe5" y="77.65417500000001"/>
     <use style="fill:#0000ff;stroke:#000000;" x="254.37752142857136" xlink:href="#m7aabfecfe5" y="165.35418964285708"/>
     <use style="fill:#0000ff;stroke:#000000;" x="179.72879749999998" xlink:href="#m7aabfecfe5" y="268.7224323214285"/>
     <use style="fill:#0000ff;stroke:#000000;" x="265.51060071428566" xlink:href="#m7aabfecfe5" y="227.18585464285712"/>
     <use style="fill:#0000ff;stroke:#000000;" x="195.85748928571428" xlink:href="#m7aabfecfe5" y="278.5019303571428"/>
     <use style="fill:#0000ff;stroke:#000000;" x="127.3462321428571" xlink:href="#m7aabfecfe5" y="367.67412749999994"/>
     <use style="fill:#0000ff;stroke:#000000;" x="221.83467428571424" xlink:href="#m7aabfecfe5" y="259.36355785714284"/>
     <use style="fill:#0000ff;stroke:#000000;" x="280.06924285714285" xlink:href="#m7aabfecfe5" y="216.4599535714285"/>
     <use style="fill:#0000ff;stroke:#000000;" x="334.3073214285714" xlink:href="#m7aabfecfe5" y="108.25453982142852"/>
     <use style="fill:#0000ff;stroke:#000000;" x="141.61941071428566" xlink:href="#m7aabfecfe5" y="318.4611696428571"/>
     <use style="fill:#0000ff;stroke:#000000;" x="205.84871428571427" xlink:href="#m7aabfecfe5" y="271.1410178571428"/>
     <use style="fill:#0000ff;stroke:#000000;" x="174.4477214285714" xlink:href="#m7aabfecfe5" y="294.2753142857142"/>
     <use style="fill:#0000ff;stroke:#000000;" x="234.39507142857138" xlink:href="#m7aabfecfe5" y="250.10983928571426"/>
     <use style="fill:#0000ff;stroke:#000000;" x="264.3687464285714" xlink:href="#m7aabfecfe5" y="228.02710178571425"/>
     <use style="fill:#0000ff;stroke:#000000;" x="242.95897857142853" xlink:href="#m7aabfecfe5" y="243.80048571428568"/>
     <use style="fill:#0000ff;stroke:#000000;" x="220.12189285714283" xlink:href="#m7aabfecfe5" y="260.8357403571428"/>
     <use style="fill:#0000ff;stroke:#000000;" x="180.15699285714282" xlink:href="#m7aabfecfe5" y="290.0690785714285"/>
     <use style="fill:#0000ff;stroke:#000000;" x="274.3599714285713" xlink:href="#m7aabfecfe5" y="174.81822"/>
     <use style="fill:#0000ff;stroke:#000000;" x="180.15699285714282" xlink:href="#m7aabfecfe5" y="290.0690785714285"/>
     <use style="fill:#0000ff;stroke:#000000;" x="212.98530357142852" xlink:href="#m7aabfecfe5" y="265.8832232142857"/>
     <use style="fill:#0000ff;stroke:#000000;" x="262.94142857142856" xlink:href="#m7aabfecfe5" y="229.07866071428566"/>
     <use style="fill:#0000ff;stroke:#000000;" x="173.7340625" xlink:href="#m7aabfecfe5" y="294.80109374999995"/>
     <use style="fill:#0000ff;stroke:#000000;" x="320.0341428571428" xlink:href="#m7aabfecfe5" y="93.00693535714288"/>
     <use style="fill:#0000ff;stroke:#000000;" x="245.8136142857142" xlink:href="#m7aabfecfe5" y="241.69736785714286"/>
     <use style="fill:#0000ff;stroke:#000000;" x="191.5755357142857" xlink:href="#m7aabfecfe5" y="281.65660714285707"/>
     <use style="fill:#0000ff;stroke:#000000;" x="204.42139642857137" xlink:href="#m7aabfecfe5" y="272.19257678571427"/>
     <use style="fill:#0000ff;stroke:#000000;" x="220.12189285714283" xlink:href="#m7aabfecfe5" y="260.62542857142853"/>
     <use style="fill:#0000ff;stroke:#000000;" x="220.12189285714283" xlink:href="#m7aabfecfe5" y="260.62542857142853"/>
     <use style="fill:#0000ff;stroke:#000000;" x="220.12189285714283" xlink:href="#m7aabfecfe5" y="260.62542857142853"/>
     <use style="fill:#0000ff;stroke:#000000;" x="221.54921071428572" xlink:href="#m7aabfecfe5" y="259.57386964285706"/>
     <use style="fill:#0000ff;stroke:#000000;" x="214.4126214285714" xlink:href="#m7aabfecfe5" y="264.8316642857142"/>
     <use style="fill:#0000ff;stroke:#000000;" x="230.11311785714287" xlink:href="#m7aabfecfe5" y="253.2645160714285"/>
     <use style="fill:#0000ff;stroke:#000000;" x="194.5729032142857" xlink:href="#m7aabfecfe5" y="236.5447291071428"/>
     <use style="fill:#0000ff;stroke:#000000;" x="208.13242285714284" xlink:href="#m7aabfecfe5" y="269.45852357142854"/>
     <use style="fill:#0000ff;stroke:#000000;" x="278.641925" xlink:href="#m7aabfecfe5" y="217.51151249999992"/>
     <use style="fill:#0000ff;stroke:#000000;" x="222.97652857142856" xlink:href="#m7aabfecfe5" y="398.3796482142857"/>
     <use style="fill:#0000ff;stroke:#000000;" x="312.8975535714285" xlink:href="#m7aabfecfe5" y="164.8284101785714"/>
     <use style="fill:#0000ff;stroke:#000000;" x="262.22776964285714" xlink:href="#m7aabfecfe5" y="182.91522374999994"/>
     <use style="fill:#0000ff;stroke:#000000;" x="297.33978892857135" xlink:href="#m7aabfecfe5" y="63.878753035714226"/>
     <use style="fill:#0000ff;stroke:#000000;" x="190.1482178571428" xlink:href="#m7aabfecfe5" y="282.70816607142854"/>
     <use style="fill:#0000ff;stroke:#000000;" x="190.1482178571428" xlink:href="#m7aabfecfe5" y="282.70816607142854"/>
     <use style="fill:#0000ff;stroke:#000000;" x="232.96775357142855" xlink:href="#m7aabfecfe5" y="251.16139821428567"/>
     <use style="fill:#0000ff;stroke:#000000;" x="234.39507142857138" xlink:href="#m7aabfecfe5" y="250.10983928571426"/>
     <use style="fill:#0000ff;stroke:#000000;" x="173.02040357142852" xlink:href="#m7aabfecfe5" y="295.3268732142857"/>
     <use style="fill:#0000ff;stroke:#000000;" x="188.72089999999997" xlink:href="#m7aabfecfe5" y="283.75972499999995"/>
     <use style="fill:#0000ff;stroke:#000000;" x="194.43017142857138" xlink:href="#m7aabfecfe5" y="279.55348928571425"/>
     <use style="fill:#0000ff;stroke:#000000;" x="279.21285214285706" xlink:href="#m7aabfecfe5" y="143.90238749999997"/>
     <use style="fill:#0000ff;stroke:#000000;" x="187.29358214285708" xlink:href="#m7aabfecfe5" y="284.8112839285714"/>
     <use style="fill:#0000ff;stroke:#000000;" x="135.9101392857143" xlink:href="#m7aabfecfe5" y="322.6674053571428"/>
     <use style="fill:#0000ff;stroke:#000000;" x="285.35031892857137" xlink:href="#m7aabfecfe5" y="130.23212142857142"/>
     <use style="fill:#0000ff;stroke:#000000;" x="248.2400546428571" xlink:href="#m7aabfecfe5" y="121.50418232142857"/>
     <use style="fill:#0000ff;stroke:#000000;" x="198.71212499999996" xlink:href="#m7aabfecfe5" y="276.39881249999996"/>
     <use style="fill:#0000ff;stroke:#000000;" x="128.77355" xlink:href="#m7aabfecfe5" y="327.92519999999996"/>
     <use style="fill:#0000ff;stroke:#000000;" x="200.13944285714285" xlink:href="#m7aabfecfe5" y="275.3472535714285"/>
     <use style="fill:#0000ff;stroke:#000000;" x="174.4477214285714" xlink:href="#m7aabfecfe5" y="294.2753142857142"/>
     <use style="fill:#0000ff;stroke:#000000;" x="218.26637964285715" xlink:href="#m7aabfecfe5" y="240.22518535714283"/>
     <use style="fill:#0000ff;stroke:#000000;" x="311.0420403571428" xlink:href="#m7aabfecfe5" y="138.5394369642857"/>
     <use style="fill:#0000ff;stroke:#000000;" x="163.02917857142853" xlink:href="#m7aabfecfe5" y="302.68778571428567"/>
     <use style="fill:#0000ff;stroke:#000000;" x="285.7785142857143" xlink:href="#m7aabfecfe5" y="178.60383214285713"/>
     <use style="fill:#0000ff;stroke:#000000;" x="246.8127367857142" xlink:href="#m7aabfecfe5" y="219.08885089285707"/>
     <use style="fill:#0000ff;stroke:#000000;" x="211.55798571428568" xlink:href="#m7aabfecfe5" y="204.89280535714283"/>
     <use style="fill:#0000ff;stroke:#000000;" x="158.17629785714286" xlink:href="#m7aabfecfe5" y="306.2630860714285"/>
     <use style="fill:#0000ff;stroke:#000000;" x="155.89258928571428" xlink:href="#m7aabfecfe5" y="307.94558035714283"/>
     <use style="fill:#0000ff;stroke:#000000;" x="131.62818571428568" xlink:href="#m7aabfecfe5" y="325.6117703571428"/>
     <use style="fill:#0000ff;stroke:#000000;" x="184.4389464285714" xlink:href="#m7aabfecfe5" y="276.1885007142857"/>
     <use style="fill:#0000ff;stroke:#000000;" x="220.12189285714283" xlink:href="#m7aabfecfe5" y="260.62542857142853"/>
     <use style="fill:#0000ff;stroke:#000000;" x="207.56149571428568" xlink:href="#m7aabfecfe5" y="269.8791471428571"/>
     <use style="fill:#0000ff;stroke:#000000;" x="177.3023571428571" xlink:href="#m7aabfecfe5" y="292.1721964285714"/>
     <use style="fill:#0000ff;stroke:#000000;" x="247.2409321428571" xlink:href="#m7aabfecfe5" y="240.6458089285714"/>
     <use style="fill:#0000ff;stroke:#000000;" x="261.51411071428566" xlink:href="#m7aabfecfe5" y="230.13021964285713"/>
     <use style="fill:#0000ff;stroke:#000000;" x="277.21460714285706" xlink:href="#m7aabfecfe5" y="205.94436428571424"/>
     <use style="fill:#0000ff;stroke:#000000;" x="374.98588035714283" xlink:href="#m7aabfecfe5" y="73.55309517857143"/>
     <use style="fill:#0000ff;stroke:#000000;" x="126.48984142857142" xlink:href="#m7aabfecfe5" y="351.5852758928571"/>
     <use style="fill:#0000ff;stroke:#000000;" x="191.5755357142857" xlink:href="#m7aabfecfe5" y="281.65660714285707"/>
     <use style="fill:#0000ff;stroke:#000000;" x="128.77355" xlink:href="#m7aabfecfe5" y="327.92519999999996"/>
     <use style="fill:#0000ff;stroke:#000000;" x="208.70334999999994" xlink:href="#m7aabfecfe5" y="269.0379"/>
     <use style="fill:#0000ff;stroke:#000000;" x="310.0429178571428" xlink:href="#m7aabfecfe5" y="83.22743732142862"/>
     <use style="fill:#0000ff;stroke:#000000;" x="220.12189285714283" xlink:href="#m7aabfecfe5" y="260.62542857142853"/>
     <use style="fill:#0000ff;stroke:#000000;" x="187.15085035714287" xlink:href="#m7aabfecfe5" y="137.9085016071428"/>
     <use style="fill:#0000ff;stroke:#000000;" x="251.52288571428574" xlink:href="#m7aabfecfe5" y="201.73812857142855"/>
     <use style="fill:#0000ff;stroke:#000000;" x="282.92387857142853" xlink:href="#m7aabfecfe5" y="192.2740982142857"/>
     <use style="fill:#0000ff;stroke:#000000;" x="215.83993928571425" xlink:href="#m7aabfecfe5" y="263.7801053571428"/>
     <use style="fill:#0000ff;stroke:#000000;" x="137.3374571428571" xlink:href="#m7aabfecfe5" y="299.84857660714283"/>
     <use style="fill:#0000ff;stroke:#000000;" x="127.3462321428571" xlink:href="#m7aabfecfe5" y="328.97675892857137"/>
     <use style="fill:#0000ff;stroke:#000000;" x="118.78232499999996" xlink:href="#m7aabfecfe5" y="335.28611249999994"/>
     <use style="fill:#0000ff;stroke:#000000;" x="134.4828214285714" xlink:href="#m7aabfecfe5" y="323.71896428571426"/>
     <use style="fill:#0000ff;stroke:#000000;" x="131.62818571428568" xlink:href="#m7aabfecfe5" y="325.8220821428571"/>
     <use style="fill:#0000ff;stroke:#000000;" x="134.4828214285714" xlink:href="#m7aabfecfe5" y="323.71896428571426"/>
     <use style="fill:#0000ff;stroke:#000000;" x="105.08007357142856" xlink:href="#m7aabfecfe5" y="323.6138083928571"/>
     <use style="fill:#0000ff;stroke:#000000;" x="218.69457499999993" xlink:href="#m7aabfecfe5" y="261.6769875"/>
     <use style="fill:#0000ff;stroke:#000000;" x="234.39507142857138" xlink:href="#m7aabfecfe5" y="114.5638933928571"/>
     <use style="fill:#0000ff;stroke:#000000;" x="187.29358214285708" xlink:href="#m7aabfecfe5" y="284.8112839285714"/>
     <use style="fill:#0000ff;stroke:#000000;" x="231.54043571428565" xlink:href="#m7aabfecfe5" y="252.21295714285714"/>
     <use style="fill:#0000ff;stroke:#000000;" x="207.2760321428571" xlink:href="#m7aabfecfe5" y="270.0894589285714"/>
     <use style="fill:#0000ff;stroke:#000000;" x="235.82238928571428" xlink:href="#m7aabfecfe5" y="249.0582803571428"/>
     <use style="fill:#0000ff;stroke:#000000;" x="175.87503928571425" xlink:href="#m7aabfecfe5" y="163.1459158928571"/>
     <use style="fill:#0000ff;stroke:#000000;" x="290.06046785714284" xlink:href="#m7aabfecfe5" y="103.2070569642857"/>
     <use style="fill:#0000ff;stroke:#000000;" x="258.659475" xlink:href="#m7aabfecfe5" y="232.23333749999995"/>
     <use style="fill:#0000ff;stroke:#000000;" x="278.641925" xlink:href="#m7aabfecfe5" y="217.51151249999992"/>
     <use style="fill:#0000ff;stroke:#000000;" x="198.71212499999996" xlink:href="#m7aabfecfe5" y="276.39881249999996"/>
     <use style="fill:#0000ff;stroke:#000000;" x="195.85748928571428" xlink:href="#m7aabfecfe5" y="278.5019303571428"/>
     <use style="fill:#0000ff;stroke:#000000;" x="200.13944285714285" xlink:href="#m7aabfecfe5" y="275.3472535714285"/>
     <use style="fill:#0000ff;stroke:#000000;" x="229.3994589285714" xlink:href="#m7aabfecfe5" y="253.79029553571428"/>
     <use style="fill:#0000ff;stroke:#000000;" x="140.33482464285714" xlink:href="#m7aabfecfe5" y="319.4075726785714"/>
     <use style="fill:#0000ff;stroke:#000000;" x="173.02040357142852" xlink:href="#m7aabfecfe5" y="161.14795392857138"/>
     <use style="fill:#0000ff;stroke:#000000;" x="193.71651249999996" xlink:href="#m7aabfecfe5" y="280.07926875"/>
     <use style="fill:#0000ff;stroke:#000000;" x="220.12189285714283" xlink:href="#m7aabfecfe5" y="260.62542857142853"/>
     <use style="fill:#0000ff;stroke:#000000;" x="173.02040357142852" xlink:href="#m7aabfecfe5" y="310.5744776785714"/>
     <use style="fill:#0000ff;stroke:#000000;" x="227.25848214285713" xlink:href="#m7aabfecfe5" y="255.36763392857137"/>
     <use style="fill:#0000ff;stroke:#000000;" x="147.32868214285708" xlink:href="#m7aabfecfe5" y="334.4448653571428"/>
     <use style="fill:#0000ff;stroke:#000000;" x="144.4740464285714" xlink:href="#m7aabfecfe5" y="316.3580517857142"/>
     <use style="fill:#0000ff;stroke:#000000;" x="236.53604821428564" xlink:href="#m7aabfecfe5" y="248.53250089285712"/>
     <use style="fill:#0000ff;stroke:#000000;" x="217.26725714285715" xlink:href="#m7aabfecfe5" y="262.7285464285714"/>
     <use style="fill:#0000ff;stroke:#000000;" x="268.6506999999999" xlink:href="#m7aabfecfe5" y="224.87242499999996"/>
     <use style="fill:#0000ff;stroke:#000000;" x="235.82238928571428" xlink:href="#m7aabfecfe5" y="249.0582803571428"/>
     <use style="fill:#0000ff;stroke:#000000;" x="195.5720257142857" xlink:href="#m7aabfecfe5" y="278.71224214285706"/>
     <use style="fill:#0000ff;stroke:#000000;" x="202.99407857142853" xlink:href="#m7aabfecfe5" y="273.2441357142857"/>
     <use style="fill:#0000ff;stroke:#000000;" x="225.83116428571424" xlink:href="#m7aabfecfe5" y="256.41919285714283"/>
     <use style="fill:#0000ff;stroke:#000000;" x="231.54043571428565" xlink:href="#m7aabfecfe5" y="252.21295714285714"/>
     <use style="fill:#0000ff;stroke:#000000;" x="332.3090764285714" xlink:href="#m7aabfecfe5" y="78.17995446428563"/>
     <use style="fill:#0000ff;stroke:#000000;" x="254.52025321428562" xlink:href="#m7aabfecfe5" y="235.28285839285712"/>
     <use style="fill:#0000ff;stroke:#000000;" x="134.4828214285714" xlink:href="#m7aabfecfe5" y="323.71896428571426"/>
     <use style="fill:#0000ff;stroke:#000000;" x="249.38190892857136" xlink:href="#m7aabfecfe5" y="102.99674517857136"/>
     <use style="fill:#0000ff;stroke:#000000;" x="125.91891428571427" xlink:href="#m7aabfecfe5" y="330.02831785714284"/>
     <use style="fill:#0000ff;stroke:#000000;" x="202.99407857142853" xlink:href="#m7aabfecfe5" y="273.2441357142857"/>
     <use style="fill:#0000ff;stroke:#000000;" x="197.28480714285712" xlink:href="#m7aabfecfe5" y="277.4503714285714"/>
     <use style="fill:#0000ff;stroke:#000000;" x="304.61911" xlink:href="#m7aabfecfe5" y="54.30956678571431"/>
     <use style="fill:#0000ff;stroke:#000000;" x="224.40384642857134" xlink:href="#m7aabfecfe5" y="257.4707517857143"/>
     <use style="fill:#0000ff;stroke:#000000;" x="131.62818571428568" xlink:href="#m7aabfecfe5" y="359.4719678571428"/>
     <use style="fill:#0000ff;stroke:#000000;" x="232.96775357142855" xlink:href="#m7aabfecfe5" y="251.16139821428567"/>
     <use style="fill:#0000ff;stroke:#000000;" x="212.98530357142852" xlink:href="#m7aabfecfe5" y="265.8832232142857"/>
     <use style="fill:#0000ff;stroke:#000000;" x="270.0780178571428" xlink:href="#m7aabfecfe5" y="223.82086607142855"/>
     <use style="fill:#0000ff;stroke:#000000;" x="272.9326535714286" xlink:href="#m7aabfecfe5" y="221.71774821428562"/>
     <use style="fill:#0000ff;stroke:#000000;" x="204.42139642857137" xlink:href="#m7aabfecfe5" y="272.19257678571427"/>
     <use style="fill:#0000ff;stroke:#000000;" x="275.7872892857142" xlink:href="#m7aabfecfe5" y="175.1336876785714"/>
     <use style="fill:#0000ff;stroke:#000000;" x="271.5053357142857" xlink:href="#m7aabfecfe5" y="222.7693071428571"/>
     <use style="fill:#0000ff;stroke:#000000;" x="197.71300249999996" xlink:href="#m7aabfecfe5" y="258.31199892857137"/>
     <use style="fill:#0000ff;stroke:#000000;" x="202.99407857142853" xlink:href="#m7aabfecfe5" y="273.2441357142857"/>
     <use style="fill:#0000ff;stroke:#000000;" x="234.39507142857138" xlink:href="#m7aabfecfe5" y="250.10983928571426"/>
     <use style="fill:#0000ff;stroke:#000000;" x="272.9326535714286" xlink:href="#m7aabfecfe5" y="221.71774821428562"/>
     <use style="fill:#0000ff;stroke:#000000;" x="185.4380689285714" xlink:href="#m7aabfecfe5" y="264.9368201785714"/>
     <use style="fill:#0000ff;stroke:#000000;" x="217.26725714285715" xlink:href="#m7aabfecfe5" y="323.71896428571426"/>
     <use style="fill:#0000ff;stroke:#000000;" x="163.17191035714285" xlink:href="#m7aabfecfe5" y="302.5826298214285"/>
     <use style="fill:#0000ff;stroke:#000000;" x="134.3400896428571" xlink:href="#m7aabfecfe5" y="323.8241201785714"/>
     <use style="fill:#0000ff;stroke:#000000;" x="125.91891428571427" xlink:href="#m7aabfecfe5" y="330.02831785714284"/>
     <use style="fill:#0000ff;stroke:#000000;" x="205.84871428571427" xlink:href="#m7aabfecfe5" y="271.1410178571428"/>
     <use style="fill:#0000ff;stroke:#000000;" x="221.54921071428572" xlink:href="#m7aabfecfe5" y="259.57386964285706"/>
     <use style="fill:#0000ff;stroke:#000000;" x="123.06427857142853" xlink:href="#m7aabfecfe5" y="332.13143571428566"/>
     <use style="fill:#0000ff;stroke:#000000;" x="270.0780178571428" xlink:href="#m7aabfecfe5" y="223.82086607142855"/>
     <use style="fill:#0000ff;stroke:#000000;" x="291.4877857142857" xlink:href="#m7aabfecfe5" y="128.02384767857143"/>
     <use style="fill:#0000ff;stroke:#000000;" x="121.63696071428569" xlink:href="#m7aabfecfe5" y="333.18299464285707"/>
     <use style="fill:#0000ff;stroke:#000000;" x="178.729675" xlink:href="#m7aabfecfe5" y="239.59425"/>
     <use style="fill:#0000ff;stroke:#000000;" x="282.92387857142853" xlink:href="#m7aabfecfe5" y="201.73812857142855"/>
     <use style="fill:#0000ff;stroke:#000000;" x="285.7785142857143" xlink:href="#m7aabfecfe5" y="212.25371785714282"/>
     <use style="fill:#0000ff;stroke:#000000;" x="121.63696071428569" xlink:href="#m7aabfecfe5" y="333.18299464285707"/>
     <use style="fill:#0000ff;stroke:#000000;" x="183.0116285714285" xlink:href="#m7aabfecfe5" y="287.9659607142857"/>
     <use style="fill:#0000ff;stroke:#000000;" x="241.5316607142857" xlink:href="#m7aabfecfe5" y="244.8520446428571"/>
     <use style="fill:#0000ff;stroke:#000000;" x="184.4389464285714" xlink:href="#m7aabfecfe5" y="234.7570789285714"/>
     <use style="fill:#0000ff;stroke:#000000;" x="228.68579999999997" xlink:href="#m7aabfecfe5" y="254.31607499999996"/>
     <use style="fill:#0000ff;stroke:#000000;" x="211.55798571428568" xlink:href="#m7aabfecfe5" y="266.9347821428571"/>
     <use style="fill:#0000ff;stroke:#000000;" x="232.96775357142855" xlink:href="#m7aabfecfe5" y="251.16139821428567"/>
     <use style="fill:#0000ff;stroke:#000000;" x="224.40384642857134" xlink:href="#m7aabfecfe5" y="257.4707517857143"/>
     <use style="fill:#0000ff;stroke:#000000;" x="222.40560142857134" xlink:href="#m7aabfecfe5" y="61.35501160714284"/>
     <use style="fill:#0000ff;stroke:#000000;" x="305.7609642857143" xlink:href="#m7aabfecfe5" y="78.81088982142853"/>
     <use style="fill:#0000ff;stroke:#000000;" x="207.2760321428571" xlink:href="#m7aabfecfe5" y="270.0894589285714"/>
     <use style="fill:#0000ff;stroke:#000000;" x="167.3111321428571" xlink:href="#m7aabfecfe5" y="299.5331089285714"/>
     <use style="fill:#0000ff;stroke:#000000;" x="109.36202714285707" xlink:href="#m7aabfecfe5" y="320.5642874999999"/>
     <use style="fill:#0000ff;stroke:#000000;" x="222.97652857142856" xlink:href="#m7aabfecfe5" y="258.52231071428565"/>
     <use style="fill:#0000ff;stroke:#000000;" x="197.28480714285712" xlink:href="#m7aabfecfe5" y="277.4503714285714"/>
     <use style="fill:#0000ff;stroke:#000000;" x="176.58869821428567" xlink:href="#m7aabfecfe5" y="292.69797589285713"/>
     <use style="fill:#0000ff;stroke:#000000;" x="210.13066785714284" xlink:href="#m7aabfecfe5" y="267.9863410714285"/>
     <use style="fill:#0000ff;stroke:#000000;" x="165.88381428571427" xlink:href="#m7aabfecfe5" y="300.5846678571428"/>
     <use style="fill:#0000ff;stroke:#000000;" x="232.96775357142855" xlink:href="#m7aabfecfe5" y="189.1194214285714"/>
     <use style="fill:#0000ff;stroke:#000000;" x="174.4477214285714" xlink:href="#m7aabfecfe5" y="294.2753142857142"/>
     <use style="fill:#0000ff;stroke:#000000;" x="262.94142857142856" xlink:href="#m7aabfecfe5" y="229.07866071428566"/>
     <use style="fill:#0000ff;stroke:#000000;" x="105.93646428571424" xlink:href="#m7aabfecfe5" y="339.28203642857136"/>
     <use style="fill:#0000ff;stroke:#000000;" x="124.49159642857143" xlink:href="#m7aabfecfe5" y="331.07987678571425"/>
     <use style="fill:#0000ff;stroke:#000000;" x="285.7785142857143" xlink:href="#m7aabfecfe5" y="212.25371785714282"/>
     <use style="fill:#0000ff;stroke:#000000;" x="201.5667607142857" xlink:href="#m7aabfecfe5" y="274.2956946428571"/>
     <use style="fill:#0000ff;stroke:#000000;" x="315.0385303571428" xlink:href="#m7aabfecfe5" y="112.04015196428566"/>
     <use style="fill:#0000ff;stroke:#000000;" x="325.88614607142847" xlink:href="#m7aabfecfe5" y="86.48726999999997"/>
     <use style="fill:#0000ff;stroke:#000000;" x="232.96775357142855" xlink:href="#m7aabfecfe5" y="251.16139821428567"/>
     <use style="fill:#0000ff;stroke:#000000;" x="147.75687749999997" xlink:href="#m7aabfecfe5" y="292.27735232142857"/>
     <use style="fill:#0000ff;stroke:#000000;" x="110.21841785714287" xlink:href="#m7aabfecfe5" y="341.5954660714285"/>
     <use style="fill:#0000ff;stroke:#000000;" x="222.97652857142856" xlink:href="#m7aabfecfe5" y="258.52231071428565"/>
     <use style="fill:#0000ff;stroke:#000000;" x="221.54921071428572" xlink:href="#m7aabfecfe5" y="259.57386964285706"/>
     <use style="fill:#0000ff;stroke:#000000;" x="259.3731339285714" xlink:href="#m7aabfecfe5" y="231.70755803571427"/>
     <use style="fill:#0000ff;stroke:#000000;" x="220.12189285714283" xlink:href="#m7aabfecfe5" y="260.62542857142853"/>
     <use style="fill:#0000ff;stroke:#000000;" x="240.1043428571428" xlink:href="#m7aabfecfe5" y="245.90360357142856"/>
     <use style="fill:#0000ff;stroke:#000000;" x="97.22982535714283" xlink:href="#m7aabfecfe5" y="351.16465232142855"/>
     <use style="fill:#0000ff;stroke:#000000;" x="228.68579999999997" xlink:href="#m7aabfecfe5" y="254.31607499999996"/>
     <use style="fill:#0000ff;stroke:#000000;" x="244.38629642857143" xlink:href="#m7aabfecfe5" y="242.74892678571422"/>
     <use style="fill:#0000ff;stroke:#000000;" x="144.04585107142856" xlink:href="#m7aabfecfe5" y="316.6735194642857"/>
    </g>
   </g>
   <g id="patch_3">
    <path d="M 48.84375 386.8125 
L 48.84375 18.766875 
" style="fill:none;stroke:#000000;stroke-linecap:square;stroke-linejoin:miter;"/>
   </g>
   <g id="patch_4">
    <path d="M 548.405 386.8125 
L 548.405 18.766875 
" style="fill:none;stroke:#000000;stroke-linecap:square;stroke-linejoin:miter;"/>
   </g>
   <g id="patch_5">
    <path d="M 48.84375 18.766875 
L 548.405 18.766875 
" style="fill:none;stroke:#000000;stroke-linecap:square;stroke-linejoin:miter;"/>
   </g>
   <g id="patch_6">
    <path d="M 48.84375 386.8125 
L 548.405 386.8125 
" style="fill:none;stroke:#000000;stroke-linecap:square;stroke-linejoin:miter;"/>
   </g>
   <g id="matplotlib.axis_1">
    <g id="xtick_1">
     <g id="line2d_1">
      <defs>
       <path d="M 0 0 
L 0 -4 
" id="mc55a60ebd1" style="stroke:#000000;stroke-width:0.5;"/>
      </defs>
      <g>
       <use style="stroke:#000000;stroke-width:0.5;" x="48.84375" xlink:href="#mc55a60ebd1" y="386.8125"/>
      </g>
     </g>
     <g id="line2d_2">
      <defs>
       <path d="M 0 0 
L 0 4 
" id="m74c31737b0" style="stroke:#000000;stroke-width:0.5;"/>
      </defs>
      <g>
       <use style="stroke:#000000;stroke-width:0.5;" x="48.84375" xlink:href="#m74c31737b0" y="18.766875000000027"/>
      </g>
     </g>
     <g id="text_1">
      <!-- 20 -->
      <defs>
       <path d="M 19.1875 8.296875 
L 53.609375 8.296875 
L 53.609375 0 
L 7.328125 0 
L 7.328125 8.296875 
Q 12.9375 14.109375 22.625 23.890625 
Q 32.328125 33.6875 34.8125 36.53125 
Q 39.546875 41.84375 41.421875 45.53125 
Q 43.3125 49.21875 43.3125 52.78125 
Q 43.3125 58.59375 39.234375 62.25 
Q 35.15625 65.921875 28.609375 65.921875 
Q 23.96875 65.921875 18.8125 64.3125 
Q 13.671875 62.703125 7.8125 59.421875 
L 7.8125 69.390625 
Q 13.765625 71.78125 18.9375 73 
Q 24.125 74.21875 28.421875 74.21875 
Q 39.75 74.21875 46.484375 68.546875 
Q 53.21875 62.890625 53.21875 53.421875 
Q 53.21875 48.921875 51.53125 44.890625 
Q 49.859375 40.875 45.40625 35.40625 
Q 44.1875 33.984375 37.640625 27.21875 
Q 31.109375 20.453125 19.1875 8.296875 
" id="BitstreamVeraSans-Roman-32"/>
       <path d="M 31.78125 66.40625 
Q 24.171875 66.40625 20.328125 58.90625 
Q 16.5 51.421875 16.5 36.375 
Q 16.5 21.390625 20.328125 13.890625 
Q 24.171875 6.390625 31.78125 6.390625 
Q 39.453125 6.390625 43.28125 13.890625 
Q 47.125 21.390625 47.125 36.375 
Q 47.125 51.421875 43.28125 58.90625 
Q 39.453125 66.40625 31.78125 66.40625 
M 31.78125 74.21875 
Q 44.046875 74.21875 50.515625 64.515625 
Q 56.984375 54.828125 56.984375 36.375 
Q 56.984375 17.96875 50.515625 8.265625 
Q 44.046875 -1.421875 31.78125 -1.421875 
Q 19.53125 -1.421875 13.0625 8.265625 
Q 6.59375 17.96875 6.59375 36.375 
Q 6.59375 54.828125 13.0625 64.515625 
Q 19.53125 74.21875 31.78125 74.21875 
" id="BitstreamVeraSans-Roman-30"/>
      </defs>
      <g transform="translate(41.20875 399.930625)scale(0.12 -0.12)">
       <use xlink:href="#BitstreamVeraSans-Roman-32"/>
       <use x="63.623046875" xlink:href="#BitstreamVeraSans-Roman-30"/>
      </g>
     </g>
    </g>
    <g id="xtick_2">
     <g id="line2d_3">
      <g>
       <use style="stroke:#000000;stroke-width:0.5;" x="120.20964285714285" xlink:href="#mc55a60ebd1" y="386.8125"/>
      </g>
     </g>
     <g id="line2d_4">
      <g>
       <use style="stroke:#000000;stroke-width:0.5;" x="120.20964285714285" xlink:href="#m74c31737b0" y="18.766875000000027"/>
      </g>
     </g>
     <g id="text_2">
      <!-- 25 -->
      <defs>
       <path d="M 10.796875 72.90625 
L 49.515625 72.90625 
L 49.515625 64.59375 
L 19.828125 64.59375 
L 19.828125 46.734375 
Q 21.96875 47.46875 24.109375 47.828125 
Q 26.265625 48.1875 28.421875 48.1875 
Q 40.625 48.1875 47.75 41.5 
Q 54.890625 34.8125 54.890625 23.390625 
Q 54.890625 11.625 47.5625 5.09375 
Q 40.234375 -1.421875 26.90625 -1.421875 
Q 22.3125 -1.421875 17.546875 -0.640625 
Q 12.796875 0.140625 7.71875 1.703125 
L 7.71875 11.625 
Q 12.109375 9.234375 16.796875 8.0625 
Q 21.484375 6.890625 26.703125 6.890625 
Q 35.15625 6.890625 40.078125 11.328125 
Q 45.015625 15.765625 45.015625 23.390625 
Q 45.015625 31 40.078125 35.4375 
Q 35.15625 39.890625 26.703125 39.890625 
Q 22.75 39.890625 18.8125 39.015625 
Q 14.890625 38.140625 10.796875 36.28125 
z
" id="BitstreamVeraSans-Roman-35"/>
      </defs>
      <g transform="translate(112.57464285714285 399.930625)scale(0.12 -0.12)">
       <use xlink:href="#BitstreamVeraSans-Roman-32"/>
       <use x="63.623046875" xlink:href="#BitstreamVeraSans-Roman-35"/>
      </g>
     </g>
    </g>
    <g id="xtick_3">
     <g id="line2d_5">
      <g>
       <use style="stroke:#000000;stroke-width:0.5;" x="191.5755357142857" xlink:href="#mc55a60ebd1" y="386.8125"/>
      </g>
     </g>
     <g id="line2d_6">
      <g>
       <use style="stroke:#000000;stroke-width:0.5;" x="191.5755357142857" xlink:href="#m74c31737b0" y="18.766875000000027"/>
      </g>
     </g>
     <g id="text_3">
      <!-- 30 -->
      <defs>
       <path d="M 40.578125 39.3125 
Q 47.65625 37.796875 51.625 33 
Q 55.609375 28.21875 55.609375 21.1875 
Q 55.609375 10.40625 48.1875 4.484375 
Q 40.765625 -1.421875 27.09375 -1.421875 
Q 22.515625 -1.421875 17.65625 -0.515625 
Q 12.796875 0.390625 7.625 2.203125 
L 7.625 11.71875 
Q 11.71875 9.328125 16.59375 8.109375 
Q 21.484375 6.890625 26.8125 6.890625 
Q 36.078125 6.890625 40.9375 10.546875 
Q 45.796875 14.203125 45.796875 21.1875 
Q 45.796875 27.640625 41.28125 31.265625 
Q 36.765625 34.90625 28.71875 34.90625 
L 20.21875 34.90625 
L 20.21875 43.015625 
L 29.109375 43.015625 
Q 36.375 43.015625 40.234375 45.921875 
Q 44.09375 48.828125 44.09375 54.296875 
Q 44.09375 59.90625 40.109375 62.90625 
Q 36.140625 65.921875 28.71875 65.921875 
Q 24.65625 65.921875 20.015625 65.03125 
Q 15.375 64.15625 9.8125 62.3125 
L 9.8125 71.09375 
Q 15.4375 72.65625 20.34375 73.4375 
Q 25.25 74.21875 29.59375 74.21875 
Q 40.828125 74.21875 47.359375 69.109375 
Q 53.90625 64.015625 53.90625 55.328125 
Q 53.90625 49.265625 50.4375 45.09375 
Q 46.96875 40.921875 40.578125 39.3125 
" id="BitstreamVeraSans-Roman-33"/>
      </defs>
      <g transform="translate(183.94053571428572 399.930625)scale(0.12 -0.12)">
       <use xlink:href="#BitstreamVeraSans-Roman-33"/>
       <use x="63.623046875" xlink:href="#BitstreamVeraSans-Roman-30"/>
      </g>
     </g>
    </g>
    <g id="xtick_4">
     <g id="line2d_7">
      <g>
       <use style="stroke:#000000;stroke-width:0.5;" x="262.94142857142856" xlink:href="#mc55a60ebd1" y="386.8125"/>
      </g>
     </g>
     <g id="line2d_8">
      <g>
       <use style="stroke:#000000;stroke-width:0.5;" x="262.94142857142856" xlink:href="#m74c31737b0" y="18.766875000000027"/>
      </g>
     </g>
     <g id="text_4">
      <!-- 35 -->
      <g transform="translate(255.30642857142857 399.930625)scale(0.12 -0.12)">
       <use xlink:href="#BitstreamVeraSans-Roman-33"/>
       <use x="63.623046875" xlink:href="#BitstreamVeraSans-Roman-35"/>
      </g>
     </g>
    </g>
    <g id="xtick_5">
     <g id="line2d_9">
      <g>
       <use style="stroke:#000000;stroke-width:0.5;" x="334.3073214285714" xlink:href="#mc55a60ebd1" y="386.8125"/>
      </g>
     </g>
     <g id="line2d_10">
      <g>
       <use style="stroke:#000000;stroke-width:0.5;" x="334.3073214285714" xlink:href="#m74c31737b0" y="18.766875000000027"/>
      </g>
     </g>
     <g id="text_5">
      <!-- 40 -->
      <defs>
       <path d="M 37.796875 64.3125 
L 12.890625 25.390625 
L 37.796875 25.390625 
z
M 35.203125 72.90625 
L 47.609375 72.90625 
L 47.609375 25.390625 
L 58.015625 25.390625 
L 58.015625 17.1875 
L 47.609375 17.1875 
L 47.609375 0 
L 37.796875 0 
L 37.796875 17.1875 
L 4.890625 17.1875 
L 4.890625 26.703125 
z
" id="BitstreamVeraSans-Roman-34"/>
      </defs>
      <g transform="translate(326.6723214285714 399.930625)scale(0.12 -0.12)">
       <use xlink:href="#BitstreamVeraSans-Roman-34"/>
       <use x="63.623046875" xlink:href="#BitstreamVeraSans-Roman-30"/>
      </g>
     </g>
    </g>
    <g id="xtick_6">
     <g id="line2d_11">
      <g>
       <use style="stroke:#000000;stroke-width:0.5;" x="405.67321428571427" xlink:href="#mc55a60ebd1" y="386.8125"/>
      </g>
     </g>
     <g id="line2d_12">
      <g>
       <use style="stroke:#000000;stroke-width:0.5;" x="405.67321428571427" xlink:href="#m74c31737b0" y="18.766875000000027"/>
      </g>
     </g>
     <g id="text_6">
      <!-- 45 -->
      <g transform="translate(398.0382142857143 399.930625)scale(0.12 -0.12)">
       <use xlink:href="#BitstreamVeraSans-Roman-34"/>
       <use x="63.623046875" xlink:href="#BitstreamVeraSans-Roman-35"/>
      </g>
     </g>
    </g>
    <g id="xtick_7">
     <g id="line2d_13">
      <g>
       <use style="stroke:#000000;stroke-width:0.5;" x="477.0391071428571" xlink:href="#mc55a60ebd1" y="386.8125"/>
      </g>
     </g>
     <g id="line2d_14">
      <g>
       <use style="stroke:#000000;stroke-width:0.5;" x="477.0391071428571" xlink:href="#m74c31737b0" y="18.766875000000027"/>
      </g>
     </g>
     <g id="text_7">
      <!-- 50 -->
      <g transform="translate(469.40410714285713 399.930625)scale(0.12 -0.12)">
       <use xlink:href="#BitstreamVeraSans-Roman-35"/>
       <use x="63.623046875" xlink:href="#BitstreamVeraSans-Roman-30"/>
      </g>
     </g>
    </g>
    <g id="xtick_8">
     <g id="line2d_15">
      <g>
       <use style="stroke:#000000;stroke-width:0.5;" x="548.405" xlink:href="#mc55a60ebd1" y="386.8125"/>
      </g>
     </g>
     <g id="line2d_16">
      <g>
       <use style="stroke:#000000;stroke-width:0.5;" x="548.405" xlink:href="#m74c31737b0" y="18.766875000000027"/>
      </g>
     </g>
     <g id="text_8">
      <!-- 55 -->
      <g transform="translate(540.77 399.930625)scale(0.12 -0.12)">
       <use xlink:href="#BitstreamVeraSans-Roman-35"/>
       <use x="63.623046875" xlink:href="#BitstreamVeraSans-Roman-35"/>
      </g>
     </g>
    </g>
    <g id="text_9">
     <!-- Life Expectancy by Country in 1800 -->
     <defs>
      <path d="M 54.890625 33.015625 
L 54.890625 0 
L 45.90625 0 
L 45.90625 32.71875 
Q 45.90625 40.484375 42.875 44.328125 
Q 39.84375 48.1875 33.796875 48.1875 
Q 26.515625 48.1875 22.3125 43.546875 
Q 18.109375 38.921875 18.109375 30.90625 
L 18.109375 0 
L 9.078125 0 
L 9.078125 54.6875 
L 18.109375 54.6875 
L 18.109375 46.1875 
Q 21.34375 51.125 25.703125 53.5625 
Q 30.078125 56 35.796875 56 
Q 45.21875 56 50.046875 50.171875 
Q 54.890625 44.34375 54.890625 33.015625 
" id="BitstreamVeraSans-Roman-6e"/>
      <path d="M 56.203125 29.59375 
L 56.203125 25.203125 
L 14.890625 25.203125 
Q 15.484375 15.921875 20.484375 11.0625 
Q 25.484375 6.203125 34.421875 6.203125 
Q 39.59375 6.203125 44.453125 7.46875 
Q 49.3125 8.734375 54.109375 11.28125 
L 54.109375 2.78125 
Q 49.265625 0.734375 44.1875 -0.34375 
Q 39.109375 -1.421875 33.890625 -1.421875 
Q 20.796875 -1.421875 13.15625 6.1875 
Q 5.515625 13.8125 5.515625 26.8125 
Q 5.515625 40.234375 12.765625 48.109375 
Q 20.015625 56 32.328125 56 
Q 43.359375 56 49.78125 48.890625 
Q 56.203125 41.796875 56.203125 29.59375 
M 47.21875 32.234375 
Q 47.125 39.59375 43.09375 43.984375 
Q 39.0625 48.390625 32.421875 48.390625 
Q 24.90625 48.390625 20.390625 44.140625 
Q 15.875 39.890625 15.1875 32.171875 
z
" id="BitstreamVeraSans-Roman-65"/>
      <path d="M 12.40625 8.296875 
L 28.515625 8.296875 
L 28.515625 63.921875 
L 10.984375 60.40625 
L 10.984375 69.390625 
L 28.421875 72.90625 
L 38.28125 72.90625 
L 38.28125 8.296875 
L 54.390625 8.296875 
L 54.390625 0 
L 12.40625 0 
z
" id="BitstreamVeraSans-Roman-31"/>
      <path id="BitstreamVeraSans-Roman-20"/>
      <path d="M 8.5 21.578125 
L 8.5 54.6875 
L 17.484375 54.6875 
L 17.484375 21.921875 
Q 17.484375 14.15625 20.5 10.265625 
Q 23.53125 6.390625 29.59375 6.390625 
Q 36.859375 6.390625 41.078125 11.03125 
Q 45.3125 15.671875 45.3125 23.6875 
L 45.3125 54.6875 
L 54.296875 54.6875 
L 54.296875 0 
L 45.3125 0 
L 45.3125 8.40625 
Q 42.046875 3.421875 37.71875 1 
Q 33.40625 -1.421875 27.6875 -1.421875 
Q 18.265625 -1.421875 13.375 4.4375 
Q 8.5 10.296875 8.5 21.578125 
" id="BitstreamVeraSans-Roman-75"/>
      <path d="M 30.609375 48.390625 
Q 23.390625 48.390625 19.1875 42.75 
Q 14.984375 37.109375 14.984375 27.296875 
Q 14.984375 17.484375 19.15625 11.84375 
Q 23.34375 6.203125 30.609375 6.203125 
Q 37.796875 6.203125 41.984375 11.859375 
Q 46.1875 17.53125 46.1875 27.296875 
Q 46.1875 37.015625 41.984375 42.703125 
Q 37.796875 48.390625 30.609375 48.390625 
M 30.609375 56 
Q 42.328125 56 49.015625 48.375 
Q 55.71875 40.765625 55.71875 27.296875 
Q 55.71875 13.875 49.015625 6.21875 
Q 42.328125 -1.421875 30.609375 -1.421875 
Q 18.84375 -1.421875 12.171875 6.21875 
Q 5.515625 13.875 5.515625 27.296875 
Q 5.515625 40.765625 12.171875 48.375 
Q 18.84375 56 30.609375 56 
" id="BitstreamVeraSans-Roman-6f"/>
      <path d="M 9.8125 72.90625 
L 19.671875 72.90625 
L 19.671875 8.296875 
L 55.171875 8.296875 
L 55.171875 0 
L 9.8125 0 
z
" id="BitstreamVeraSans-Roman-4c"/>
      <path d="M 48.78125 52.59375 
L 48.78125 44.1875 
Q 44.96875 46.296875 41.140625 47.34375 
Q 37.3125 48.390625 33.40625 48.390625 
Q 24.65625 48.390625 19.8125 42.84375 
Q 14.984375 37.3125 14.984375 27.296875 
Q 14.984375 17.28125 19.8125 11.734375 
Q 24.65625 6.203125 33.40625 6.203125 
Q 37.3125 6.203125 41.140625 7.25 
Q 44.96875 8.296875 48.78125 10.40625 
L 48.78125 2.09375 
Q 45.015625 0.34375 40.984375 -0.53125 
Q 36.96875 -1.421875 32.421875 -1.421875 
Q 20.0625 -1.421875 12.78125 6.34375 
Q 5.515625 14.109375 5.515625 27.296875 
Q 5.515625 40.671875 12.859375 48.328125 
Q 20.21875 56 33.015625 56 
Q 37.15625 56 41.109375 55.140625 
Q 45.0625 54.296875 48.78125 52.59375 
" id="BitstreamVeraSans-Roman-63"/>
      <path d="M 18.3125 70.21875 
L 18.3125 54.6875 
L 36.8125 54.6875 
L 36.8125 47.703125 
L 18.3125 47.703125 
L 18.3125 18.015625 
Q 18.3125 11.328125 20.140625 9.421875 
Q 21.96875 7.515625 27.59375 7.515625 
L 36.8125 7.515625 
L 36.8125 0 
L 27.59375 0 
Q 17.1875 0 13.234375 3.875 
Q 9.28125 7.765625 9.28125 18.015625 
L 9.28125 47.703125 
L 2.6875 47.703125 
L 2.6875 54.6875 
L 9.28125 54.6875 
L 9.28125 70.21875 
z
" id="BitstreamVeraSans-Roman-74"/>
      <path d="M 34.28125 27.484375 
Q 23.390625 27.484375 19.1875 25 
Q 14.984375 22.515625 14.984375 16.5 
Q 14.984375 11.71875 18.140625 8.90625 
Q 21.296875 6.109375 26.703125 6.109375 
Q 34.1875 6.109375 38.703125 11.40625 
Q 43.21875 16.703125 43.21875 25.484375 
L 43.21875 27.484375 
z
M 52.203125 31.203125 
L 52.203125 0 
L 43.21875 0 
L 43.21875 8.296875 
Q 40.140625 3.328125 35.546875 0.953125 
Q 30.953125 -1.421875 24.3125 -1.421875 
Q 15.921875 -1.421875 10.953125 3.296875 
Q 6 8.015625 6 15.921875 
Q 6 25.140625 12.171875 29.828125 
Q 18.359375 34.515625 30.609375 34.515625 
L 43.21875 34.515625 
L 43.21875 35.40625 
Q 43.21875 41.609375 39.140625 45 
Q 35.0625 48.390625 27.6875 48.390625 
Q 23 48.390625 18.546875 47.265625 
Q 14.109375 46.140625 10.015625 43.890625 
L 10.015625 52.203125 
Q 14.9375 54.109375 19.578125 55.046875 
Q 24.21875 56 28.609375 56 
Q 40.484375 56 46.34375 49.84375 
Q 52.203125 43.703125 52.203125 31.203125 
" id="BitstreamVeraSans-Roman-61"/>
      <path d="M 31.78125 34.625 
Q 24.75 34.625 20.71875 30.859375 
Q 16.703125 27.09375 16.703125 20.515625 
Q 16.703125 13.921875 20.71875 10.15625 
Q 24.75 6.390625 31.78125 6.390625 
Q 38.8125 6.390625 42.859375 10.171875 
Q 46.921875 13.96875 46.921875 20.515625 
Q 46.921875 27.09375 42.890625 30.859375 
Q 38.875 34.625 31.78125 34.625 
M 21.921875 38.8125 
Q 15.578125 40.375 12.03125 44.71875 
Q 8.5 49.078125 8.5 55.328125 
Q 8.5 64.0625 14.71875 69.140625 
Q 20.953125 74.21875 31.78125 74.21875 
Q 42.671875 74.21875 48.875 69.140625 
Q 55.078125 64.0625 55.078125 55.328125 
Q 55.078125 49.078125 51.53125 44.71875 
Q 48 40.375 41.703125 38.8125 
Q 48.828125 37.15625 52.796875 32.3125 
Q 56.78125 27.484375 56.78125 20.515625 
Q 56.78125 9.90625 50.3125 4.234375 
Q 43.84375 -1.421875 31.78125 -1.421875 
Q 19.734375 -1.421875 13.25 4.234375 
Q 6.78125 9.90625 6.78125 20.515625 
Q 6.78125 27.484375 10.78125 32.3125 
Q 14.796875 37.15625 21.921875 38.8125 
M 18.3125 54.390625 
Q 18.3125 48.734375 21.84375 45.5625 
Q 25.390625 42.390625 31.78125 42.390625 
Q 38.140625 42.390625 41.71875 45.5625 
Q 45.3125 48.734375 45.3125 54.390625 
Q 45.3125 60.0625 41.71875 63.234375 
Q 38.140625 66.40625 31.78125 66.40625 
Q 25.390625 66.40625 21.84375 63.234375 
Q 18.3125 60.0625 18.3125 54.390625 
" id="BitstreamVeraSans-Roman-38"/>
      <path d="M 18.109375 8.203125 
L 18.109375 -20.796875 
L 9.078125 -20.796875 
L 9.078125 54.6875 
L 18.109375 54.6875 
L 18.109375 46.390625 
Q 20.953125 51.265625 25.265625 53.625 
Q 29.59375 56 35.59375 56 
Q 45.5625 56 51.78125 48.09375 
Q 58.015625 40.1875 58.015625 27.296875 
Q 58.015625 14.40625 51.78125 6.484375 
Q 45.5625 -1.421875 35.59375 -1.421875 
Q 29.59375 -1.421875 25.265625 0.953125 
Q 20.953125 3.328125 18.109375 8.203125 
M 48.6875 27.296875 
Q 48.6875 37.203125 44.609375 42.84375 
Q 40.53125 48.484375 33.40625 48.484375 
Q 26.265625 48.484375 22.1875 42.84375 
Q 18.109375 37.203125 18.109375 27.296875 
Q 18.109375 17.390625 22.1875 11.75 
Q 26.265625 6.109375 33.40625 6.109375 
Q 40.53125 6.109375 44.609375 11.75 
Q 48.6875 17.390625 48.6875 27.296875 
" id="BitstreamVeraSans-Roman-70"/>
      <path d="M 41.109375 46.296875 
Q 39.59375 47.171875 37.8125 47.578125 
Q 36.03125 48 33.890625 48 
Q 26.265625 48 22.1875 43.046875 
Q 18.109375 38.09375 18.109375 28.8125 
L 18.109375 0 
L 9.078125 0 
L 9.078125 54.6875 
L 18.109375 54.6875 
L 18.109375 46.1875 
Q 20.953125 51.171875 25.484375 53.578125 
Q 30.03125 56 36.53125 56 
Q 37.453125 56 38.578125 55.875 
Q 39.703125 55.765625 41.0625 55.515625 
z
" id="BitstreamVeraSans-Roman-72"/>
      <path d="M 9.8125 72.90625 
L 55.90625 72.90625 
L 55.90625 64.59375 
L 19.671875 64.59375 
L 19.671875 43.015625 
L 54.390625 43.015625 
L 54.390625 34.71875 
L 19.671875 34.71875 
L 19.671875 8.296875 
L 56.78125 8.296875 
L 56.78125 0 
L 9.8125 0 
z
" id="BitstreamVeraSans-Roman-45"/>
      <path d="M 54.890625 54.6875 
L 35.109375 28.078125 
L 55.90625 0 
L 45.3125 0 
L 29.390625 21.484375 
L 13.484375 0 
L 2.875 0 
L 24.125 28.609375 
L 4.6875 54.6875 
L 15.28125 54.6875 
L 29.78125 35.203125 
L 44.28125 54.6875 
z
" id="BitstreamVeraSans-Roman-78"/>
      <path d="M 9.421875 54.6875 
L 18.40625 54.6875 
L 18.40625 0 
L 9.421875 0 
z
M 9.421875 75.984375 
L 18.40625 75.984375 
L 18.40625 64.59375 
L 9.421875 64.59375 
z
" id="BitstreamVeraSans-Roman-69"/>
      <path d="M 64.40625 67.28125 
L 64.40625 56.890625 
Q 59.421875 61.53125 53.78125 63.8125 
Q 48.140625 66.109375 41.796875 66.109375 
Q 29.296875 66.109375 22.65625 58.46875 
Q 16.015625 50.828125 16.015625 36.375 
Q 16.015625 21.96875 22.65625 14.328125 
Q 29.296875 6.6875 41.796875 6.6875 
Q 48.140625 6.6875 53.78125 8.984375 
Q 59.421875 11.28125 64.40625 15.921875 
L 64.40625 5.609375 
Q 59.234375 2.09375 53.4375 0.328125 
Q 47.65625 -1.421875 41.21875 -1.421875 
Q 24.65625 -1.421875 15.125 8.703125 
Q 5.609375 18.84375 5.609375 36.375 
Q 5.609375 53.953125 15.125 64.078125 
Q 24.65625 74.21875 41.21875 74.21875 
Q 47.75 74.21875 53.53125 72.484375 
Q 59.328125 70.75 64.40625 67.28125 
" id="BitstreamVeraSans-Roman-43"/>
      <path d="M 32.171875 -5.078125 
Q 28.375 -14.84375 24.75 -17.8125 
Q 21.140625 -20.796875 15.09375 -20.796875 
L 7.90625 -20.796875 
L 7.90625 -13.28125 
L 13.1875 -13.28125 
Q 16.890625 -13.28125 18.9375 -11.515625 
Q 21 -9.765625 23.484375 -3.21875 
L 25.09375 0.875 
L 2.984375 54.6875 
L 12.5 54.6875 
L 29.59375 11.921875 
L 46.6875 54.6875 
L 56.203125 54.6875 
z
" id="BitstreamVeraSans-Roman-79"/>
      <path d="M 48.6875 27.296875 
Q 48.6875 37.203125 44.609375 42.84375 
Q 40.53125 48.484375 33.40625 48.484375 
Q 26.265625 48.484375 22.1875 42.84375 
Q 18.109375 37.203125 18.109375 27.296875 
Q 18.109375 17.390625 22.1875 11.75 
Q 26.265625 6.109375 33.40625 6.109375 
Q 40.53125 6.109375 44.609375 11.75 
Q 48.6875 17.390625 48.6875 27.296875 
M 18.109375 46.390625 
Q 20.953125 51.265625 25.265625 53.625 
Q 29.59375 56 35.59375 56 
Q 45.5625 56 51.78125 48.09375 
Q 58.015625 40.1875 58.015625 27.296875 
Q 58.015625 14.40625 51.78125 6.484375 
Q 45.5625 -1.421875 35.59375 -1.421875 
Q 29.59375 -1.421875 25.265625 0.953125 
Q 20.953125 3.328125 18.109375 8.203125 
L 18.109375 0 
L 9.078125 0 
L 9.078125 75.984375 
L 18.109375 75.984375 
z
" id="BitstreamVeraSans-Roman-62"/>
      <path d="M 37.109375 75.984375 
L 37.109375 68.5 
L 28.515625 68.5 
Q 23.6875 68.5 21.796875 66.546875 
Q 19.921875 64.59375 19.921875 59.515625 
L 19.921875 54.6875 
L 34.71875 54.6875 
L 34.71875 47.703125 
L 19.921875 47.703125 
L 19.921875 0 
L 10.890625 0 
L 10.890625 47.703125 
L 2.296875 47.703125 
L 2.296875 54.6875 
L 10.890625 54.6875 
L 10.890625 58.5 
Q 10.890625 67.625 15.140625 71.796875 
Q 19.390625 75.984375 28.609375 75.984375 
z
" id="BitstreamVeraSans-Roman-66"/>
     </defs>
     <g transform="translate(191.5159375 416.544375)scale(0.12 -0.12)">
      <use xlink:href="#BitstreamVeraSans-Roman-4c"/>
      <use x="55.712890625" xlink:href="#BitstreamVeraSans-Roman-69"/>
      <use x="83.49609375" xlink:href="#BitstreamVeraSans-Roman-66"/>
      <use x="118.701171875" xlink:href="#BitstreamVeraSans-Roman-65"/>
      <use x="180.224609375" xlink:href="#BitstreamVeraSans-Roman-20"/>
      <use x="212.01171875" xlink:href="#BitstreamVeraSans-Roman-45"/>
      <use x="275.1953125" xlink:href="#BitstreamVeraSans-Roman-78"/>
      <use x="334.375" xlink:href="#BitstreamVeraSans-Roman-70"/>
      <use x="397.8515625" xlink:href="#BitstreamVeraSans-Roman-65"/>
      <use x="459.375" xlink:href="#BitstreamVeraSans-Roman-63"/>
      <use x="514.35546875" xlink:href="#BitstreamVeraSans-Roman-74"/>
      <use x="553.564453125" xlink:href="#BitstreamVeraSans-Roman-61"/>
      <use x="614.84375" xlink:href="#BitstreamVeraSans-Roman-6e"/>
      <use x="678.22265625" xlink:href="#BitstreamVeraSans-Roman-63"/>
      <use x="733.203125" xlink:href="#BitstreamVeraSans-Roman-79"/>
      <use x="792.3828125" xlink:href="#BitstreamVeraSans-Roman-20"/>
      <use x="824.169921875" xlink:href="#BitstreamVeraSans-Roman-62"/>
      <use x="887.646484375" xlink:href="#BitstreamVeraSans-Roman-79"/>
      <use x="946.826171875" xlink:href="#BitstreamVeraSans-Roman-20"/>
      <use x="978.61328125" xlink:href="#BitstreamVeraSans-Roman-43"/>
      <use x="1048.4375" xlink:href="#BitstreamVeraSans-Roman-6f"/>
      <use x="1109.619140625" xlink:href="#BitstreamVeraSans-Roman-75"/>
      <use x="1172.998046875" xlink:href="#BitstreamVeraSans-Roman-6e"/>
      <use x="1236.376953125" xlink:href="#BitstreamVeraSans-Roman-74"/>
      <use x="1275.5859375" xlink:href="#BitstreamVeraSans-Roman-72"/>
      <use x="1316.69921875" xlink:href="#BitstreamVeraSans-Roman-79"/>
      <use x="1375.87890625" xlink:href="#BitstreamVeraSans-Roman-20"/>
      <use x="1407.666015625" xlink:href="#BitstreamVeraSans-Roman-69"/>
      <use x="1435.44921875" xlink:href="#BitstreamVeraSans-Roman-6e"/>
      <use x="1498.828125" xlink:href="#BitstreamVeraSans-Roman-20"/>
      <use x="1530.615234375" xlink:href="#BitstreamVeraSans-Roman-31"/>
      <use x="1594.23828125" xlink:href="#BitstreamVeraSans-Roman-38"/>
      <use x="1657.861328125" xlink:href="#BitstreamVeraSans-Roman-30"/>
      <use x="1721.484375" xlink:href="#BitstreamVeraSans-Roman-30"/>
     </g>
    </g>
   </g>
   <g id="matplotlib.axis_2">
    <g id="ytick_1">
     <g id="line2d_17">
      <defs>
       <path d="M 0 0 
L 4 0 
" id="me71eacdaa0" style="stroke:#000000;stroke-width:0.5;"/>
      </defs>
      <g>
       <use style="stroke:#000000;stroke-width:0.5;" x="48.843750000000014" xlink:href="#me71eacdaa0" y="386.81249999999994"/>
      </g>
     </g>
     <g id="line2d_18">
      <defs>
       <path d="M 0 0 
L -4 0 
" id="m2d0747e5a5" style="stroke:#000000;stroke-width:0.5;"/>
      </defs>
      <g>
       <use style="stroke:#000000;stroke-width:0.5;" x="548.405" xlink:href="#m2d0747e5a5" y="386.81249999999994"/>
      </g>
     </g>
     <g id="text_10">
      <!-- 20 -->
      <g transform="translate(29.573750000000015 390.12375)scale(0.12 -0.12)">
       <use xlink:href="#BitstreamVeraSans-Roman-32"/>
       <use x="63.623046875" xlink:href="#BitstreamVeraSans-Roman-30"/>
      </g>
     </g>
    </g>
    <g id="ytick_2">
     <g id="line2d_19">
      <g>
       <use style="stroke:#000000;stroke-width:0.5;" x="48.843750000000014" xlink:href="#me71eacdaa0" y="334.23455357142853"/>
      </g>
     </g>
     <g id="line2d_20">
      <g>
       <use style="stroke:#000000;stroke-width:0.5;" x="548.405" xlink:href="#m2d0747e5a5" y="334.23455357142853"/>
      </g>
     </g>
     <g id="text_11">
      <!-- 25 -->
      <g transform="translate(29.573750000000015 337.54580357142856)scale(0.12 -0.12)">
       <use xlink:href="#BitstreamVeraSans-Roman-32"/>
       <use x="63.623046875" xlink:href="#BitstreamVeraSans-Roman-35"/>
      </g>
     </g>
    </g>
    <g id="ytick_3">
     <g id="line2d_21">
      <g>
       <use style="stroke:#000000;stroke-width:0.5;" x="48.843750000000014" xlink:href="#me71eacdaa0" y="281.65660714285707"/>
      </g>
     </g>
     <g id="line2d_22">
      <g>
       <use style="stroke:#000000;stroke-width:0.5;" x="548.405" xlink:href="#m2d0747e5a5" y="281.65660714285707"/>
      </g>
     </g>
     <g id="text_12">
      <!-- 30 -->
      <g transform="translate(29.573750000000015 284.96785714285716)scale(0.12 -0.12)">
       <use xlink:href="#BitstreamVeraSans-Roman-33"/>
       <use x="63.623046875" xlink:href="#BitstreamVeraSans-Roman-30"/>
      </g>
     </g>
    </g>
    <g id="ytick_4">
     <g id="line2d_23">
      <g>
       <use style="stroke:#000000;stroke-width:0.5;" x="48.843750000000014" xlink:href="#me71eacdaa0" y="229.07866071428566"/>
      </g>
     </g>
     <g id="line2d_24">
      <g>
       <use style="stroke:#000000;stroke-width:0.5;" x="548.405" xlink:href="#m2d0747e5a5" y="229.07866071428566"/>
      </g>
     </g>
     <g id="text_13">
      <!-- 35 -->
      <g transform="translate(29.573750000000015 232.38991071428572)scale(0.12 -0.12)">
       <use xlink:href="#BitstreamVeraSans-Roman-33"/>
       <use x="63.623046875" xlink:href="#BitstreamVeraSans-Roman-35"/>
      </g>
     </g>
    </g>
    <g id="ytick_5">
     <g id="line2d_25">
      <g>
       <use style="stroke:#000000;stroke-width:0.5;" x="48.843750000000014" xlink:href="#me71eacdaa0" y="176.50071428571425"/>
      </g>
     </g>
     <g id="line2d_26">
      <g>
       <use style="stroke:#000000;stroke-width:0.5;" x="548.405" xlink:href="#m2d0747e5a5" y="176.50071428571425"/>
      </g>
     </g>
     <g id="text_14">
      <!-- 40 -->
      <g transform="translate(29.573750000000015 179.8119642857143)scale(0.12 -0.12)">
       <use xlink:href="#BitstreamVeraSans-Roman-34"/>
       <use x="63.623046875" xlink:href="#BitstreamVeraSans-Roman-30"/>
      </g>
     </g>
    </g>
    <g id="ytick_6">
     <g id="line2d_27">
      <g>
       <use style="stroke:#000000;stroke-width:0.5;" x="48.843750000000014" xlink:href="#me71eacdaa0" y="123.92276785714284"/>
      </g>
     </g>
     <g id="line2d_28">
      <g>
       <use style="stroke:#000000;stroke-width:0.5;" x="548.405" xlink:href="#m2d0747e5a5" y="123.92276785714284"/>
      </g>
     </g>
     <g id="text_15">
      <!-- 45 -->
      <g transform="translate(29.573750000000015 127.23401785714287)scale(0.12 -0.12)">
       <use xlink:href="#BitstreamVeraSans-Roman-34"/>
       <use x="63.623046875" xlink:href="#BitstreamVeraSans-Roman-35"/>
      </g>
     </g>
    </g>
    <g id="ytick_7">
     <g id="line2d_29">
      <g>
       <use style="stroke:#000000;stroke-width:0.5;" x="48.843750000000014" xlink:href="#me71eacdaa0" y="71.34482142857144"/>
      </g>
     </g>
     <g id="line2d_30">
      <g>
       <use style="stroke:#000000;stroke-width:0.5;" x="548.405" xlink:href="#m2d0747e5a5" y="71.34482142857144"/>
      </g>
     </g>
     <g id="text_16">
      <!-- 50 -->
      <g transform="translate(29.573750000000015 74.65607142857147)scale(0.12 -0.12)">
       <use xlink:href="#BitstreamVeraSans-Roman-35"/>
       <use x="63.623046875" xlink:href="#BitstreamVeraSans-Roman-30"/>
      </g>
     </g>
    </g>
    <g id="ytick_8">
     <g id="line2d_31">
      <g>
       <use style="stroke:#000000;stroke-width:0.5;" x="48.843750000000014" xlink:href="#me71eacdaa0" y="18.766875000000027"/>
      </g>
     </g>
     <g id="line2d_32">
      <g>
       <use style="stroke:#000000;stroke-width:0.5;" x="548.405" xlink:href="#m2d0747e5a5" y="18.766875000000027"/>
      </g>
     </g>
     <g id="text_17">
      <!-- 55 -->
      <g transform="translate(29.573750000000015 22.078125000000057)scale(0.12 -0.12)">
       <use xlink:href="#BitstreamVeraSans-Roman-35"/>
       <use x="63.623046875" xlink:href="#BitstreamVeraSans-Roman-35"/>
      </g>
     </g>
    </g>
    <g id="text_18">
     <!-- Life Expectancy by Country in 1899 -->
     <defs>
      <path d="M 10.984375 1.515625 
L 10.984375 10.5 
Q 14.703125 8.734375 18.5 7.8125 
Q 22.3125 6.890625 25.984375 6.890625 
Q 35.75 6.890625 40.890625 13.453125 
Q 46.046875 20.015625 46.78125 33.40625 
Q 43.953125 29.203125 39.59375 26.953125 
Q 35.25 24.703125 29.984375 24.703125 
Q 19.046875 24.703125 12.671875 31.3125 
Q 6.296875 37.9375 6.296875 49.421875 
Q 6.296875 60.640625 12.9375 67.421875 
Q 19.578125 74.21875 30.609375 74.21875 
Q 43.265625 74.21875 49.921875 64.515625 
Q 56.59375 54.828125 56.59375 36.375 
Q 56.59375 19.140625 48.40625 8.859375 
Q 40.234375 -1.421875 26.421875 -1.421875 
Q 22.703125 -1.421875 18.890625 -0.6875 
Q 15.09375 0.046875 10.984375 1.515625 
M 30.609375 32.421875 
Q 37.25 32.421875 41.125 36.953125 
Q 45.015625 41.5 45.015625 49.421875 
Q 45.015625 57.28125 41.125 61.84375 
Q 37.25 66.40625 30.609375 66.40625 
Q 23.96875 66.40625 20.09375 61.84375 
Q 16.21875 57.28125 16.21875 49.421875 
Q 16.21875 41.5 20.09375 36.953125 
Q 23.96875 32.421875 30.609375 32.421875 
" id="BitstreamVeraSans-Roman-39"/>
     </defs>
     <g transform="translate(22.078125000000007 309.898125)rotate(-90.0)scale(0.12 -0.12)">
      <use xlink:href="#BitstreamVeraSans-Roman-4c"/>
      <use x="55.712890625" xlink:href="#BitstreamVeraSans-Roman-69"/>
      <use x="83.49609375" xlink:href="#BitstreamVeraSans-Roman-66"/>
      <use x="118.701171875" xlink:href="#BitstreamVeraSans-Roman-65"/>
      <use x="180.224609375" xlink:href="#BitstreamVeraSans-Roman-20"/>
      <use x="212.01171875" xlink:href="#BitstreamVeraSans-Roman-45"/>
      <use x="275.1953125" xlink:href="#BitstreamVeraSans-Roman-78"/>
      <use x="334.375" xlink:href="#BitstreamVeraSans-Roman-70"/>
      <use x="397.8515625" xlink:href="#BitstreamVeraSans-Roman-65"/>
      <use x="459.375" xlink:href="#BitstreamVeraSans-Roman-63"/>
      <use x="514.35546875" xlink:href="#BitstreamVeraSans-Roman-74"/>
      <use x="553.564453125" xlink:href="#BitstreamVeraSans-Roman-61"/>
      <use x="614.84375" xlink:href="#BitstreamVeraSans-Roman-6e"/>
      <use x="678.22265625" xlink:href="#BitstreamVeraSans-Roman-63"/>
      <use x="733.203125" xlink:href="#BitstreamVeraSans-Roman-79"/>
      <use x="792.3828125" xlink:href="#BitstreamVeraSans-Roman-20"/>
      <use x="824.169921875" xlink:href="#BitstreamVeraSans-Roman-62"/>
      <use x="887.646484375" xlink:href="#BitstreamVeraSans-Roman-79"/>
      <use x="946.826171875" xlink:href="#BitstreamVeraSans-Roman-20"/>
      <use x="978.61328125" xlink:href="#BitstreamVeraSans-Roman-43"/>
      <use x="1048.4375" xlink:href="#BitstreamVeraSans-Roman-6f"/>
      <use x="1109.619140625" xlink:href="#BitstreamVeraSans-Roman-75"/>
      <use x="1172.998046875" xlink:href="#BitstreamVeraSans-Roman-6e"/>
      <use x="1236.376953125" xlink:href="#BitstreamVeraSans-Roman-74"/>
      <use x="1275.5859375" xlink:href="#BitstreamVeraSans-Roman-72"/>
      <use x="1316.69921875" xlink:href="#BitstreamVeraSans-Roman-79"/>
      <use x="1375.87890625" xlink:href="#BitstreamVeraSans-Roman-20"/>
      <use x="1407.666015625" xlink:href="#BitstreamVeraSans-Roman-69"/>
      <use x="1435.44921875" xlink:href="#BitstreamVeraSans-Roman-6e"/>
      <use x="1498.828125" xlink:href="#BitstreamVeraSans-Roman-20"/>
      <use x="1530.615234375" xlink:href="#BitstreamVeraSans-Roman-31"/>
      <use x="1594.23828125" xlink:href="#BitstreamVeraSans-Roman-38"/>
      <use x="1657.861328125" xlink:href="#BitstreamVeraSans-Roman-39"/>
      <use x="1721.484375" xlink:href="#BitstreamVeraSans-Roman-39"/>
     </g>
    </g>
   </g>
  </g>
 </g>
 <defs>
  <clipPath id="pf4316e3445">
   <rect height="368.045625" width="499.56125" x="48.843750000000014" y="18.766875000000027"/>
  </clipPath>
 </defs>
</svg>
