<?xml version="1.0" encoding="utf-8" standalone="no"?>
<!DOCTYPE svg PUBLIC "-//W3C//DTD SVG 1.1//EN"
  "http://www.w3.org/Graphics/SVG/1.1/DTD/svg11.dtd">
<!-- Created with matplotlib (https://matplotlib.org/) -->
<svg height="400pt" version="1.1" viewBox="0 0 550 400" width="550pt" xmlns="http://www.w3.org/2000/svg" xmlns:xlink="http://www.w3.org/1999/xlink">
 <defs>
  <style type="text/css">
*{stroke-linecap:butt;stroke-linejoin:round;}
  </style>
 </defs>
 <g id="figure_1">
  <g id="patch_1">
   <path d="M 0 400 
L 550 400 
L 550 0 
L 0 0 
z
" style="fill:#ffffff;"/>
  </g>
  <g id="axes_1">
   <g id="patch_2">
    <path d="M 47.919844 356.571875 
L 535.512115 356.571875 
L 535.512115 12.96 
L 47.919844 12.96 
z
" style="fill:#eaeaf2;"/>
   </g>
   <g id="matplotlib.axis_1">
    <g id="xtick_1">
     <g id="line2d_1">
      <path clip-path="url(#p8d2775a493)" d="M 99.91832 356.571875 
L 99.91832 12.96 
" style="fill:none;stroke:#ffffff;stroke-linecap:round;"/>
     </g>
     <g id="line2d_2"/>
     <g id="text_1">
      <!-- 8.0 -->
      <defs>
       <path d="M 17.671875 38.8125 
Q 12.203125 40.828125 9.5625 44.53125 
Q 6.9375 48.25 6.9375 53.421875 
Q 6.9375 61.234375 12.546875 66.546875 
Q 18.171875 71.875 27.484375 71.875 
Q 36.859375 71.875 42.578125 66.421875 
Q 48.296875 60.984375 48.296875 53.171875 
Q 48.296875 48.1875 45.671875 44.5 
Q 43.0625 40.828125 37.75 38.8125 
Q 44.34375 36.671875 47.78125 31.875 
Q 51.21875 27.09375 51.21875 20.453125 
Q 51.21875 11.28125 44.71875 5.03125 
Q 38.234375 -1.21875 27.640625 -1.21875 
Q 17.046875 -1.21875 10.546875 5.046875 
Q 4.046875 11.328125 4.046875 20.703125 
Q 4.046875 27.6875 7.59375 32.390625 
Q 11.140625 37.109375 17.671875 38.8125 
z
M 15.921875 53.71875 
Q 15.921875 48.640625 19.1875 45.40625 
Q 22.46875 42.1875 27.6875 42.1875 
Q 32.765625 42.1875 36.015625 45.375 
Q 39.265625 48.578125 39.265625 53.21875 
Q 39.265625 58.0625 35.90625 61.359375 
Q 32.5625 64.65625 27.59375 64.65625 
Q 22.5625 64.65625 19.234375 61.421875 
Q 15.921875 58.203125 15.921875 53.71875 
z
M 13.09375 20.65625 
Q 13.09375 16.890625 14.875 13.375 
Q 16.65625 9.859375 20.171875 7.921875 
Q 23.6875 6 27.734375 6 
Q 34.03125 6 38.125 10.046875 
Q 42.234375 14.109375 42.234375 20.359375 
Q 42.234375 26.703125 38.015625 30.859375 
Q 33.796875 35.015625 27.4375 35.015625 
Q 21.234375 35.015625 17.15625 30.90625 
Q 13.09375 26.8125 13.09375 20.65625 
z
" id="ArialMT-56"/>
       <path d="M 9.078125 0 
L 9.078125 10.015625 
L 19.09375 10.015625 
L 19.09375 0 
z
" id="ArialMT-46"/>
       <path d="M 4.15625 35.296875 
Q 4.15625 48 6.765625 55.734375 
Q 9.375 63.484375 14.515625 67.671875 
Q 19.671875 71.875 27.484375 71.875 
Q 33.25 71.875 37.59375 69.546875 
Q 41.9375 67.234375 44.765625 62.859375 
Q 47.609375 58.5 49.21875 52.21875 
Q 50.828125 45.953125 50.828125 35.296875 
Q 50.828125 22.703125 48.234375 14.96875 
Q 45.65625 7.234375 40.5 3 
Q 35.359375 -1.21875 27.484375 -1.21875 
Q 17.140625 -1.21875 11.234375 6.203125 
Q 4.15625 15.140625 4.15625 35.296875 
z
M 13.1875 35.296875 
Q 13.1875 17.671875 17.3125 11.828125 
Q 21.4375 6 27.484375 6 
Q 33.546875 6 37.671875 11.859375 
Q 41.796875 17.71875 41.796875 35.296875 
Q 41.796875 52.984375 37.671875 58.78125 
Q 33.546875 64.59375 27.390625 64.59375 
Q 21.34375 64.59375 17.71875 59.46875 
Q 13.1875 52.9375 13.1875 35.296875 
z
" id="ArialMT-48"/>
      </defs>
      <g style="fill:#262626;" transform="translate(92.96832 370.729687)scale(0.1 -0.1)">
       <use xlink:href="#ArialMT-56"/>
       <use x="55.615234" xlink:href="#ArialMT-46"/>
       <use x="83.398438" xlink:href="#ArialMT-48"/>
      </g>
     </g>
    </g>
    <g id="xtick_2">
     <g id="line2d_3">
      <path clip-path="url(#p8d2775a493)" d="M 170.95449 356.571875 
L 170.95449 12.96 
" style="fill:none;stroke:#ffffff;stroke-linecap:round;"/>
     </g>
     <g id="line2d_4"/>
     <g id="text_2">
      <!-- 8.5 -->
      <defs>
       <path d="M 4.15625 18.75 
L 13.375 19.53125 
Q 14.40625 12.796875 18.140625 9.390625 
Q 21.875 6 27.15625 6 
Q 33.5 6 37.890625 10.78125 
Q 42.28125 15.578125 42.28125 23.484375 
Q 42.28125 31 38.0625 35.34375 
Q 33.84375 39.703125 27 39.703125 
Q 22.75 39.703125 19.328125 37.765625 
Q 15.921875 35.84375 13.96875 32.765625 
L 5.71875 33.84375 
L 12.640625 70.609375 
L 48.25 70.609375 
L 48.25 62.203125 
L 19.671875 62.203125 
L 15.828125 42.96875 
Q 22.265625 47.46875 29.34375 47.46875 
Q 38.71875 47.46875 45.15625 40.96875 
Q 51.609375 34.46875 51.609375 24.265625 
Q 51.609375 14.546875 45.953125 7.46875 
Q 39.0625 -1.21875 27.15625 -1.21875 
Q 17.390625 -1.21875 11.203125 4.25 
Q 5.03125 9.71875 4.15625 18.75 
z
" id="ArialMT-53"/>
      </defs>
      <g style="fill:#262626;" transform="translate(164.00449 370.729687)scale(0.1 -0.1)">
       <use xlink:href="#ArialMT-56"/>
       <use x="55.615234" xlink:href="#ArialMT-46"/>
       <use x="83.398438" xlink:href="#ArialMT-53"/>
      </g>
     </g>
    </g>
    <g id="xtick_3">
     <g id="line2d_5">
      <path clip-path="url(#p8d2775a493)" d="M 241.99066 356.571875 
L 241.99066 12.96 
" style="fill:none;stroke:#ffffff;stroke-linecap:round;"/>
     </g>
     <g id="line2d_6"/>
     <g id="text_3">
      <!-- 9.0 -->
      <defs>
       <path d="M 5.46875 16.546875 
L 13.921875 17.328125 
Q 14.984375 11.375 18.015625 8.6875 
Q 21.046875 6 25.78125 6 
Q 29.828125 6 32.875 7.859375 
Q 35.9375 9.71875 37.890625 12.8125 
Q 39.84375 15.921875 41.15625 21.1875 
Q 42.484375 26.46875 42.484375 31.9375 
Q 42.484375 32.515625 42.4375 33.6875 
Q 39.796875 29.5 35.234375 26.875 
Q 30.671875 24.265625 25.34375 24.265625 
Q 16.453125 24.265625 10.296875 30.703125 
Q 4.15625 37.15625 4.15625 47.703125 
Q 4.15625 58.59375 10.578125 65.234375 
Q 17 71.875 26.65625 71.875 
Q 33.640625 71.875 39.421875 68.109375 
Q 45.21875 64.359375 48.21875 57.390625 
Q 51.21875 50.4375 51.21875 37.25 
Q 51.21875 23.53125 48.234375 15.40625 
Q 45.265625 7.28125 39.375 3.03125 
Q 33.5 -1.21875 25.59375 -1.21875 
Q 17.1875 -1.21875 11.859375 3.4375 
Q 6.546875 8.109375 5.46875 16.546875 
z
M 41.453125 48.140625 
Q 41.453125 55.71875 37.421875 60.15625 
Q 33.40625 64.59375 27.734375 64.59375 
Q 21.875 64.59375 17.53125 59.8125 
Q 13.1875 55.03125 13.1875 47.40625 
Q 13.1875 40.578125 17.3125 36.296875 
Q 21.4375 32.03125 27.484375 32.03125 
Q 33.59375 32.03125 37.515625 36.296875 
Q 41.453125 40.578125 41.453125 48.140625 
z
" id="ArialMT-57"/>
      </defs>
      <g style="fill:#262626;" transform="translate(235.04066 370.729687)scale(0.1 -0.1)">
       <use xlink:href="#ArialMT-57"/>
       <use x="55.615234" xlink:href="#ArialMT-46"/>
       <use x="83.398438" xlink:href="#ArialMT-48"/>
      </g>
     </g>
    </g>
    <g id="xtick_4">
     <g id="line2d_7">
      <path clip-path="url(#p8d2775a493)" d="M 313.026831 356.571875 
L 313.026831 12.96 
" style="fill:none;stroke:#ffffff;stroke-linecap:round;"/>
     </g>
     <g id="line2d_8"/>
     <g id="text_4">
      <!-- 9.5 -->
      <g style="fill:#262626;" transform="translate(306.076831 370.729687)scale(0.1 -0.1)">
       <use xlink:href="#ArialMT-57"/>
       <use x="55.615234" xlink:href="#ArialMT-46"/>
       <use x="83.398438" xlink:href="#ArialMT-53"/>
      </g>
     </g>
    </g>
    <g id="xtick_5">
     <g id="line2d_9">
      <path clip-path="url(#p8d2775a493)" d="M 384.063001 356.571875 
L 384.063001 12.96 
" style="fill:none;stroke:#ffffff;stroke-linecap:round;"/>
     </g>
     <g id="line2d_10"/>
     <g id="text_5">
      <!-- 10.0 -->
      <defs>
       <path d="M 37.25 0 
L 28.46875 0 
L 28.46875 56 
Q 25.296875 52.984375 20.140625 49.953125 
Q 14.984375 46.921875 10.890625 45.40625 
L 10.890625 53.90625 
Q 18.265625 57.375 23.78125 62.296875 
Q 29.296875 67.234375 31.59375 71.875 
L 37.25 71.875 
z
" id="ArialMT-49"/>
      </defs>
      <g style="fill:#262626;" transform="translate(374.332532 370.729687)scale(0.1 -0.1)">
       <use xlink:href="#ArialMT-49"/>
       <use x="55.615234" xlink:href="#ArialMT-48"/>
       <use x="111.230469" xlink:href="#ArialMT-46"/>
       <use x="139.013672" xlink:href="#ArialMT-48"/>
      </g>
     </g>
    </g>
    <g id="xtick_6">
     <g id="line2d_11">
      <path clip-path="url(#p8d2775a493)" d="M 455.099171 356.571875 
L 455.099171 12.96 
" style="fill:none;stroke:#ffffff;stroke-linecap:round;"/>
     </g>
     <g id="line2d_12"/>
     <g id="text_6">
      <!-- 10.5 -->
      <g style="fill:#262626;" transform="translate(445.368702 370.729687)scale(0.1 -0.1)">
       <use xlink:href="#ArialMT-49"/>
       <use x="55.615234" xlink:href="#ArialMT-48"/>
       <use x="111.230469" xlink:href="#ArialMT-46"/>
       <use x="139.013672" xlink:href="#ArialMT-53"/>
      </g>
     </g>
    </g>
    <g id="xtick_7">
     <g id="line2d_13">
      <path clip-path="url(#p8d2775a493)" d="M 526.135341 356.571875 
L 526.135341 12.96 
" style="fill:none;stroke:#ffffff;stroke-linecap:round;"/>
     </g>
     <g id="line2d_14"/>
     <g id="text_7">
      <!-- 11.0 -->
      <g style="fill:#262626;" transform="translate(516.410341 370.729687)scale(0.1 -0.1)">
       <use xlink:href="#ArialMT-49"/>
       <use x="55.505859" xlink:href="#ArialMT-49"/>
       <use x="111.121094" xlink:href="#ArialMT-46"/>
       <use x="138.904297" xlink:href="#ArialMT-48"/>
      </g>
     </g>
    </g>
    <g id="text_8">
     <!-- beak depth (mm) -->
     <defs>
      <path d="M 14.703125 0 
L 6.546875 0 
L 6.546875 71.578125 
L 15.328125 71.578125 
L 15.328125 46.046875 
Q 20.90625 53.03125 29.546875 53.03125 
Q 34.328125 53.03125 38.59375 51.09375 
Q 42.875 49.171875 45.625 45.671875 
Q 48.390625 42.1875 49.953125 37.25 
Q 51.515625 32.328125 51.515625 26.703125 
Q 51.515625 13.375 44.921875 6.09375 
Q 38.328125 -1.171875 29.109375 -1.171875 
Q 19.921875 -1.171875 14.703125 6.5 
z
M 14.59375 26.3125 
Q 14.59375 17 17.140625 12.84375 
Q 21.296875 6.0625 28.375 6.0625 
Q 34.125 6.0625 38.328125 11.0625 
Q 42.53125 16.0625 42.53125 25.984375 
Q 42.53125 36.140625 38.5 40.96875 
Q 34.46875 45.796875 28.765625 45.796875 
Q 23 45.796875 18.796875 40.796875 
Q 14.59375 35.796875 14.59375 26.3125 
z
" id="ArialMT-98"/>
      <path d="M 42.09375 16.703125 
L 51.171875 15.578125 
Q 49.03125 7.625 43.21875 3.21875 
Q 37.40625 -1.171875 28.375 -1.171875 
Q 17 -1.171875 10.328125 5.828125 
Q 3.65625 12.84375 3.65625 25.484375 
Q 3.65625 38.578125 10.390625 45.796875 
Q 17.140625 53.03125 27.875 53.03125 
Q 38.28125 53.03125 44.875 45.953125 
Q 51.46875 38.875 51.46875 26.03125 
Q 51.46875 25.25 51.421875 23.6875 
L 12.75 23.6875 
Q 13.234375 15.140625 17.578125 10.59375 
Q 21.921875 6.0625 28.421875 6.0625 
Q 33.25 6.0625 36.671875 8.59375 
Q 40.09375 11.140625 42.09375 16.703125 
z
M 13.234375 30.90625 
L 42.1875 30.90625 
Q 41.609375 37.453125 38.875 40.71875 
Q 34.671875 45.796875 27.984375 45.796875 
Q 21.921875 45.796875 17.796875 41.75 
Q 13.671875 37.703125 13.234375 30.90625 
z
" id="ArialMT-101"/>
      <path d="M 40.4375 6.390625 
Q 35.546875 2.25 31.03125 0.53125 
Q 26.515625 -1.171875 21.34375 -1.171875 
Q 12.796875 -1.171875 8.203125 3 
Q 3.609375 7.171875 3.609375 13.671875 
Q 3.609375 17.484375 5.34375 20.625 
Q 7.078125 23.78125 9.890625 25.6875 
Q 12.703125 27.59375 16.21875 28.5625 
Q 18.796875 29.25 24.03125 29.890625 
Q 34.671875 31.15625 39.703125 32.90625 
Q 39.75 34.71875 39.75 35.203125 
Q 39.75 40.578125 37.25 42.78125 
Q 33.890625 45.75 27.25 45.75 
Q 21.046875 45.75 18.09375 43.578125 
Q 15.140625 41.40625 13.71875 35.890625 
L 5.125 37.0625 
Q 6.296875 42.578125 8.984375 45.96875 
Q 11.671875 49.359375 16.75 51.1875 
Q 21.828125 53.03125 28.515625 53.03125 
Q 35.15625 53.03125 39.296875 51.46875 
Q 43.453125 49.90625 45.40625 47.53125 
Q 47.359375 45.171875 48.140625 41.546875 
Q 48.578125 39.3125 48.578125 33.453125 
L 48.578125 21.734375 
Q 48.578125 9.46875 49.140625 6.21875 
Q 49.703125 2.984375 51.375 0 
L 42.1875 0 
Q 40.828125 2.734375 40.4375 6.390625 
z
M 39.703125 26.03125 
Q 34.90625 24.078125 25.34375 22.703125 
Q 19.921875 21.921875 17.671875 20.9375 
Q 15.4375 19.96875 14.203125 18.09375 
Q 12.984375 16.21875 12.984375 13.921875 
Q 12.984375 10.40625 15.640625 8.0625 
Q 18.3125 5.71875 23.4375 5.71875 
Q 28.515625 5.71875 32.46875 7.9375 
Q 36.421875 10.15625 38.28125 14.015625 
Q 39.703125 17 39.703125 22.796875 
z
" id="ArialMT-97"/>
      <path d="M 6.640625 0 
L 6.640625 71.578125 
L 15.4375 71.578125 
L 15.4375 30.765625 
L 36.234375 51.859375 
L 47.609375 51.859375 
L 27.78125 32.625 
L 49.609375 0 
L 38.765625 0 
L 21.625 26.515625 
L 15.4375 20.5625 
L 15.4375 0 
z
" id="ArialMT-107"/>
      <path id="ArialMT-32"/>
      <path d="M 40.234375 0 
L 40.234375 6.546875 
Q 35.296875 -1.171875 25.734375 -1.171875 
Q 19.53125 -1.171875 14.328125 2.25 
Q 9.125 5.671875 6.265625 11.796875 
Q 3.421875 17.921875 3.421875 25.875 
Q 3.421875 33.640625 6 39.96875 
Q 8.59375 46.296875 13.765625 49.65625 
Q 18.953125 53.03125 25.34375 53.03125 
Q 30.03125 53.03125 33.6875 51.046875 
Q 37.359375 49.078125 39.65625 45.90625 
L 39.65625 71.578125 
L 48.390625 71.578125 
L 48.390625 0 
z
M 12.453125 25.875 
Q 12.453125 15.921875 16.640625 10.984375 
Q 20.84375 6.0625 26.5625 6.0625 
Q 32.328125 6.0625 36.34375 10.765625 
Q 40.375 15.484375 40.375 25.140625 
Q 40.375 35.796875 36.265625 40.765625 
Q 32.171875 45.75 26.171875 45.75 
Q 20.3125 45.75 16.375 40.96875 
Q 12.453125 36.1875 12.453125 25.875 
z
" id="ArialMT-100"/>
      <path d="M 6.59375 -19.875 
L 6.59375 51.859375 
L 14.59375 51.859375 
L 14.59375 45.125 
Q 17.4375 49.078125 21 51.046875 
Q 24.5625 53.03125 29.640625 53.03125 
Q 36.28125 53.03125 41.359375 49.609375 
Q 46.4375 46.1875 49.015625 39.953125 
Q 51.609375 33.734375 51.609375 26.3125 
Q 51.609375 18.359375 48.75 11.984375 
Q 45.90625 5.609375 40.453125 2.21875 
Q 35.015625 -1.171875 29 -1.171875 
Q 24.609375 -1.171875 21.109375 0.6875 
Q 17.625 2.546875 15.375 5.375 
L 15.375 -19.875 
z
M 14.546875 25.640625 
Q 14.546875 15.625 18.59375 10.84375 
Q 22.65625 6.0625 28.421875 6.0625 
Q 34.28125 6.0625 38.453125 11.015625 
Q 42.625 15.96875 42.625 26.375 
Q 42.625 36.28125 38.546875 41.203125 
Q 34.46875 46.140625 28.8125 46.140625 
Q 23.1875 46.140625 18.859375 40.890625 
Q 14.546875 35.640625 14.546875 25.640625 
z
" id="ArialMT-112"/>
      <path d="M 25.78125 7.859375 
L 27.046875 0.09375 
Q 23.34375 -0.6875 20.40625 -0.6875 
Q 15.625 -0.6875 12.984375 0.828125 
Q 10.359375 2.34375 9.28125 4.8125 
Q 8.203125 7.28125 8.203125 15.1875 
L 8.203125 45.015625 
L 1.765625 45.015625 
L 1.765625 51.859375 
L 8.203125 51.859375 
L 8.203125 64.703125 
L 16.9375 69.96875 
L 16.9375 51.859375 
L 25.78125 51.859375 
L 25.78125 45.015625 
L 16.9375 45.015625 
L 16.9375 14.703125 
Q 16.9375 10.9375 17.40625 9.859375 
Q 17.875 8.796875 18.921875 8.15625 
Q 19.96875 7.515625 21.921875 7.515625 
Q 23.390625 7.515625 25.78125 7.859375 
z
" id="ArialMT-116"/>
      <path d="M 6.59375 0 
L 6.59375 71.578125 
L 15.375 71.578125 
L 15.375 45.90625 
Q 21.53125 53.03125 30.90625 53.03125 
Q 36.671875 53.03125 40.921875 50.75 
Q 45.171875 48.484375 47 44.484375 
Q 48.828125 40.484375 48.828125 32.859375 
L 48.828125 0 
L 40.046875 0 
L 40.046875 32.859375 
Q 40.046875 39.453125 37.1875 42.453125 
Q 34.328125 45.453125 29.109375 45.453125 
Q 25.203125 45.453125 21.75 43.421875 
Q 18.3125 41.40625 16.84375 37.9375 
Q 15.375 34.46875 15.375 28.375 
L 15.375 0 
z
" id="ArialMT-104"/>
      <path d="M 23.390625 -21.046875 
Q 16.109375 -11.859375 11.078125 0.4375 
Q 6.0625 12.75 6.0625 25.921875 
Q 6.0625 37.546875 9.8125 48.1875 
Q 14.203125 60.546875 23.390625 72.796875 
L 29.6875 72.796875 
Q 23.78125 62.640625 21.875 58.296875 
Q 18.890625 51.5625 17.1875 44.234375 
Q 15.09375 35.109375 15.09375 25.875 
Q 15.09375 2.390625 29.6875 -21.046875 
z
" id="ArialMT-40"/>
      <path d="M 6.59375 0 
L 6.59375 51.859375 
L 14.453125 51.859375 
L 14.453125 44.578125 
Q 16.890625 48.390625 20.9375 50.703125 
Q 25 53.03125 30.171875 53.03125 
Q 35.9375 53.03125 39.625 50.640625 
Q 43.3125 48.25 44.828125 43.953125 
Q 50.984375 53.03125 60.84375 53.03125 
Q 68.5625 53.03125 72.703125 48.75 
Q 76.859375 44.484375 76.859375 35.59375 
L 76.859375 0 
L 68.109375 0 
L 68.109375 32.671875 
Q 68.109375 37.9375 67.25 40.25 
Q 66.40625 42.578125 64.15625 43.984375 
Q 61.921875 45.40625 58.890625 45.40625 
Q 53.421875 45.40625 49.796875 41.765625 
Q 46.1875 38.140625 46.1875 30.125 
L 46.1875 0 
L 37.40625 0 
L 37.40625 33.6875 
Q 37.40625 39.546875 35.25 42.46875 
Q 33.109375 45.40625 28.21875 45.40625 
Q 24.515625 45.40625 21.359375 43.453125 
Q 18.21875 41.5 16.796875 37.734375 
Q 15.375 33.984375 15.375 26.90625 
L 15.375 0 
z
" id="ArialMT-109"/>
      <path d="M 12.359375 -21.046875 
L 6.0625 -21.046875 
Q 20.65625 2.390625 20.65625 25.875 
Q 20.65625 35.0625 18.5625 44.09375 
Q 16.890625 51.421875 13.921875 58.15625 
Q 12.015625 62.546875 6.0625 72.796875 
L 12.359375 72.796875 
Q 21.53125 60.546875 25.921875 48.1875 
Q 29.6875 37.546875 29.6875 25.921875 
Q 29.6875 12.75 24.625 0.4375 
Q 19.578125 -11.859375 12.359375 -21.046875 
z
" id="ArialMT-41"/>
     </defs>
     <g style="fill:#262626;" transform="translate(250.147151 384.724844)scale(0.11 -0.11)">
      <use xlink:href="#ArialMT-98"/>
      <use x="55.615234" xlink:href="#ArialMT-101"/>
      <use x="111.230469" xlink:href="#ArialMT-97"/>
      <use x="166.845703" xlink:href="#ArialMT-107"/>
      <use x="216.845703" xlink:href="#ArialMT-32"/>
      <use x="244.628906" xlink:href="#ArialMT-100"/>
      <use x="300.244141" xlink:href="#ArialMT-101"/>
      <use x="355.859375" xlink:href="#ArialMT-112"/>
      <use x="411.474609" xlink:href="#ArialMT-116"/>
      <use x="439.257812" xlink:href="#ArialMT-104"/>
      <use x="494.873047" xlink:href="#ArialMT-32"/>
      <use x="522.65625" xlink:href="#ArialMT-40"/>
      <use x="555.957031" xlink:href="#ArialMT-109"/>
      <use x="639.257812" xlink:href="#ArialMT-109"/>
      <use x="722.558594" xlink:href="#ArialMT-41"/>
     </g>
    </g>
   </g>
   <g id="matplotlib.axis_2">
    <g id="ytick_1">
     <g id="line2d_15">
      <path clip-path="url(#p8d2775a493)" d="M 47.919844 352.586145 
L 535.512115 352.586145 
" style="fill:none;stroke:#ffffff;stroke-linecap:round;"/>
     </g>
     <g id="line2d_16"/>
     <g id="text_9">
      <!-- 0.0 -->
      <g style="fill:#262626;" transform="translate(27.019844 356.165051)scale(0.1 -0.1)">
       <use xlink:href="#ArialMT-48"/>
       <use x="55.615234" xlink:href="#ArialMT-46"/>
       <use x="83.398438" xlink:href="#ArialMT-48"/>
      </g>
     </g>
    </g>
    <g id="ytick_2">
     <g id="line2d_17">
      <path clip-path="url(#p8d2775a493)" d="M 47.919844 285.9825 
L 535.512115 285.9825 
" style="fill:none;stroke:#ffffff;stroke-linecap:round;"/>
     </g>
     <g id="line2d_18"/>
     <g id="text_10">
      <!-- 0.2 -->
      <defs>
       <path d="M 50.34375 8.453125 
L 50.34375 0 
L 3.03125 0 
Q 2.9375 3.171875 4.046875 6.109375 
Q 5.859375 10.9375 9.828125 15.625 
Q 13.8125 20.3125 21.34375 26.46875 
Q 33.015625 36.03125 37.109375 41.625 
Q 41.21875 47.21875 41.21875 52.203125 
Q 41.21875 57.421875 37.46875 61 
Q 33.734375 64.59375 27.734375 64.59375 
Q 21.390625 64.59375 17.578125 60.78125 
Q 13.765625 56.984375 13.71875 50.25 
L 4.6875 51.171875 
Q 5.609375 61.28125 11.65625 66.578125 
Q 17.71875 71.875 27.9375 71.875 
Q 38.234375 71.875 44.234375 66.15625 
Q 50.25 60.453125 50.25 52 
Q 50.25 47.703125 48.484375 43.546875 
Q 46.734375 39.40625 42.65625 34.8125 
Q 38.578125 30.21875 29.109375 22.21875 
Q 21.1875 15.578125 18.9375 13.203125 
Q 16.703125 10.84375 15.234375 8.453125 
z
" id="ArialMT-50"/>
      </defs>
      <g style="fill:#262626;" transform="translate(27.019844 289.561406)scale(0.1 -0.1)">
       <use xlink:href="#ArialMT-48"/>
       <use x="55.615234" xlink:href="#ArialMT-46"/>
       <use x="83.398438" xlink:href="#ArialMT-50"/>
      </g>
     </g>
    </g>
    <g id="ytick_3">
     <g id="line2d_19">
      <path clip-path="url(#p8d2775a493)" d="M 47.919844 219.378855 
L 535.512115 219.378855 
" style="fill:none;stroke:#ffffff;stroke-linecap:round;"/>
     </g>
     <g id="line2d_20"/>
     <g id="text_11">
      <!-- 0.4 -->
      <defs>
       <path d="M 32.328125 0 
L 32.328125 17.140625 
L 1.265625 17.140625 
L 1.265625 25.203125 
L 33.9375 71.578125 
L 41.109375 71.578125 
L 41.109375 25.203125 
L 50.78125 25.203125 
L 50.78125 17.140625 
L 41.109375 17.140625 
L 41.109375 0 
z
M 32.328125 25.203125 
L 32.328125 57.46875 
L 9.90625 25.203125 
z
" id="ArialMT-52"/>
      </defs>
      <g style="fill:#262626;" transform="translate(27.019844 222.957762)scale(0.1 -0.1)">
       <use xlink:href="#ArialMT-48"/>
       <use x="55.615234" xlink:href="#ArialMT-46"/>
       <use x="83.398438" xlink:href="#ArialMT-52"/>
      </g>
     </g>
    </g>
    <g id="ytick_4">
     <g id="line2d_21">
      <path clip-path="url(#p8d2775a493)" d="M 47.919844 152.77521 
L 535.512115 152.77521 
" style="fill:none;stroke:#ffffff;stroke-linecap:round;"/>
     </g>
     <g id="line2d_22"/>
     <g id="text_12">
      <!-- 0.6 -->
      <defs>
       <path d="M 49.75 54.046875 
L 41.015625 53.375 
Q 39.84375 58.546875 37.703125 60.890625 
Q 34.125 64.65625 28.90625 64.65625 
Q 24.703125 64.65625 21.53125 62.3125 
Q 17.390625 59.28125 14.984375 53.46875 
Q 12.59375 47.65625 12.5 36.921875 
Q 15.671875 41.75 20.265625 44.09375 
Q 24.859375 46.4375 29.890625 46.4375 
Q 38.671875 46.4375 44.84375 39.96875 
Q 51.03125 33.5 51.03125 23.25 
Q 51.03125 16.5 48.125 10.71875 
Q 45.21875 4.9375 40.140625 1.859375 
Q 35.0625 -1.21875 28.609375 -1.21875 
Q 17.625 -1.21875 10.6875 6.859375 
Q 3.765625 14.9375 3.765625 33.5 
Q 3.765625 54.25 11.421875 63.671875 
Q 18.109375 71.875 29.4375 71.875 
Q 37.890625 71.875 43.28125 67.140625 
Q 48.6875 62.40625 49.75 54.046875 
z
M 13.875 23.1875 
Q 13.875 18.65625 15.796875 14.5 
Q 17.71875 10.359375 21.1875 8.171875 
Q 24.65625 6 28.46875 6 
Q 34.03125 6 38.03125 10.484375 
Q 42.046875 14.984375 42.046875 22.703125 
Q 42.046875 30.125 38.078125 34.390625 
Q 34.125 38.671875 28.125 38.671875 
Q 22.171875 38.671875 18.015625 34.390625 
Q 13.875 30.125 13.875 23.1875 
z
" id="ArialMT-54"/>
      </defs>
      <g style="fill:#262626;" transform="translate(27.019844 156.354117)scale(0.1 -0.1)">
       <use xlink:href="#ArialMT-48"/>
       <use x="55.615234" xlink:href="#ArialMT-46"/>
       <use x="83.398438" xlink:href="#ArialMT-54"/>
      </g>
     </g>
    </g>
    <g id="ytick_5">
     <g id="line2d_23">
      <path clip-path="url(#p8d2775a493)" d="M 47.919844 86.171566 
L 535.512115 86.171566 
" style="fill:none;stroke:#ffffff;stroke-linecap:round;"/>
     </g>
     <g id="line2d_24"/>
     <g id="text_13">
      <!-- 0.8 -->
      <g style="fill:#262626;" transform="translate(27.019844 89.750472)scale(0.1 -0.1)">
       <use xlink:href="#ArialMT-48"/>
       <use x="55.615234" xlink:href="#ArialMT-46"/>
       <use x="83.398438" xlink:href="#ArialMT-56"/>
      </g>
     </g>
    </g>
    <g id="ytick_6">
     <g id="line2d_25">
      <path clip-path="url(#p8d2775a493)" d="M 47.919844 19.567921 
L 535.512115 19.567921 
" style="fill:none;stroke:#ffffff;stroke-linecap:round;"/>
     </g>
     <g id="line2d_26"/>
     <g id="text_14">
      <!-- 1.0 -->
      <g style="fill:#262626;" transform="translate(27.019844 23.146827)scale(0.1 -0.1)">
       <use xlink:href="#ArialMT-49"/>
       <use x="55.615234" xlink:href="#ArialMT-46"/>
       <use x="83.398438" xlink:href="#ArialMT-48"/>
      </g>
     </g>
    </g>
    <g id="text_15">
     <!-- ECDF -->
     <defs>
      <path d="M 7.90625 0 
L 7.90625 71.578125 
L 59.671875 71.578125 
L 59.671875 63.140625 
L 17.390625 63.140625 
L 17.390625 41.21875 
L 56.984375 41.21875 
L 56.984375 32.8125 
L 17.390625 32.8125 
L 17.390625 8.453125 
L 61.328125 8.453125 
L 61.328125 0 
z
" id="ArialMT-69"/>
      <path d="M 58.796875 25.09375 
L 68.265625 22.703125 
Q 65.28125 11.03125 57.546875 4.90625 
Q 49.8125 -1.21875 38.625 -1.21875 
Q 27.046875 -1.21875 19.796875 3.484375 
Q 12.546875 8.203125 8.765625 17.140625 
Q 4.984375 26.078125 4.984375 36.328125 
Q 4.984375 47.515625 9.25 55.828125 
Q 13.53125 64.15625 21.40625 68.46875 
Q 29.296875 72.796875 38.765625 72.796875 
Q 49.515625 72.796875 56.828125 67.328125 
Q 64.15625 61.859375 67.046875 51.953125 
L 57.71875 49.75 
Q 55.21875 57.5625 50.484375 61.125 
Q 45.75 64.703125 38.578125 64.703125 
Q 30.328125 64.703125 24.78125 60.734375 
Q 19.234375 56.78125 16.984375 50.109375 
Q 14.75 43.453125 14.75 36.375 
Q 14.75 27.25 17.40625 20.4375 
Q 20.0625 13.625 25.671875 10.25 
Q 31.296875 6.890625 37.84375 6.890625 
Q 45.796875 6.890625 51.3125 11.46875 
Q 56.84375 16.0625 58.796875 25.09375 
z
" id="ArialMT-67"/>
      <path d="M 7.71875 0 
L 7.71875 71.578125 
L 32.375 71.578125 
Q 40.71875 71.578125 45.125 70.5625 
Q 51.265625 69.140625 55.609375 65.4375 
Q 61.28125 60.640625 64.078125 53.1875 
Q 66.890625 45.75 66.890625 36.1875 
Q 66.890625 28.03125 64.984375 21.734375 
Q 63.09375 15.4375 60.109375 11.296875 
Q 57.125 7.171875 53.578125 4.796875 
Q 50.046875 2.4375 45.046875 1.21875 
Q 40.046875 0 33.546875 0 
z
M 17.1875 8.453125 
L 32.46875 8.453125 
Q 39.546875 8.453125 43.578125 9.765625 
Q 47.609375 11.078125 50 13.484375 
Q 53.375 16.84375 55.25 22.53125 
Q 57.125 28.21875 57.125 36.328125 
Q 57.125 47.5625 53.4375 53.59375 
Q 49.75 59.625 44.484375 61.671875 
Q 40.671875 63.140625 32.234375 63.140625 
L 17.1875 63.140625 
z
" id="ArialMT-68"/>
      <path d="M 8.203125 0 
L 8.203125 71.578125 
L 56.5 71.578125 
L 56.5 63.140625 
L 17.671875 63.140625 
L 17.671875 40.96875 
L 51.265625 40.96875 
L 51.265625 32.515625 
L 17.671875 32.515625 
L 17.671875 0 
z
" id="ArialMT-70"/>
     </defs>
     <g style="fill:#262626;" transform="translate(20.833594 199.737969)rotate(-90)scale(0.11 -0.11)">
      <use xlink:href="#ArialMT-69"/>
      <use x="66.699219" xlink:href="#ArialMT-67"/>
      <use x="138.916016" xlink:href="#ArialMT-68"/>
      <use x="211.132812" xlink:href="#ArialMT-70"/>
     </g>
    </g>
   </g>
   <g id="line2d_27">
    <defs>
     <path d="M 0 1.75 
C 0.464105 1.75 0.909265 1.565609 1.237437 1.237437 
C 1.565609 0.909265 1.75 0.464105 1.75 0 
C 1.75 -0.464105 1.565609 -0.909265 1.237437 -1.237437 
C 0.909265 -1.565609 0.464105 -1.75 0 -1.75 
C -0.464105 -1.75 -0.909265 -1.565609 -1.237437 -1.237437 
C -1.565609 -0.909265 -1.75 -0.464105 -1.75 0 
C -1.75 0.464105 -1.565609 0.909265 -1.237437 1.237437 
C -0.909265 1.565609 -0.464105 1.75 0 1.75 
z
" id="mc47d4af382"/>
    </defs>
    <g clip-path="url(#p8d2775a493)">
     <use style="fill:#4c72b0;" x="85.711086" xlink:href="#mc47d4af382" y="348.758349"/>
     <use style="fill:#4c72b0;" x="99.91832" xlink:href="#mc47d4af382" y="344.930554"/>
     <use style="fill:#4c72b0;" x="99.91832" xlink:href="#mc47d4af382" y="341.102758"/>
     <use style="fill:#4c72b0;" x="99.91832" xlink:href="#mc47d4af382" y="337.274962"/>
     <use style="fill:#4c72b0;" x="114.125554" xlink:href="#mc47d4af382" y="333.447167"/>
     <use style="fill:#4c72b0;" x="128.332788" xlink:href="#mc47d4af382" y="329.619371"/>
     <use style="fill:#4c72b0;" x="128.332788" xlink:href="#mc47d4af382" y="325.791575"/>
     <use style="fill:#4c72b0;" x="128.332788" xlink:href="#mc47d4af382" y="321.96378"/>
     <use style="fill:#4c72b0;" x="142.540022" xlink:href="#mc47d4af382" y="318.135984"/>
     <use style="fill:#4c72b0;" x="142.540022" xlink:href="#mc47d4af382" y="314.308188"/>
     <use style="fill:#4c72b0;" x="142.540022" xlink:href="#mc47d4af382" y="310.480393"/>
     <use style="fill:#4c72b0;" x="142.540022" xlink:href="#mc47d4af382" y="306.652597"/>
     <use style="fill:#4c72b0;" x="149.643639" xlink:href="#mc47d4af382" y="302.824801"/>
     <use style="fill:#4c72b0;" x="156.747256" xlink:href="#mc47d4af382" y="298.997006"/>
     <use style="fill:#4c72b0;" x="156.747256" xlink:href="#mc47d4af382" y="295.16921"/>
     <use style="fill:#4c72b0;" x="156.747256" xlink:href="#mc47d4af382" y="291.341414"/>
     <use style="fill:#4c72b0;" x="156.747256" xlink:href="#mc47d4af382" y="287.513618"/>
     <use style="fill:#4c72b0;" x="170.95449" xlink:href="#mc47d4af382" y="283.685823"/>
     <use style="fill:#4c72b0;" x="170.95449" xlink:href="#mc47d4af382" y="279.858027"/>
     <use style="fill:#4c72b0;" x="170.95449" xlink:href="#mc47d4af382" y="276.030231"/>
     <use style="fill:#4c72b0;" x="170.95449" xlink:href="#mc47d4af382" y="272.202436"/>
     <use style="fill:#4c72b0;" x="170.95449" xlink:href="#mc47d4af382" y="268.37464"/>
     <use style="fill:#4c72b0;" x="185.161724" xlink:href="#mc47d4af382" y="264.546844"/>
     <use style="fill:#4c72b0;" x="185.161724" xlink:href="#mc47d4af382" y="260.719049"/>
     <use style="fill:#4c72b0;" x="185.161724" xlink:href="#mc47d4af382" y="256.891253"/>
     <use style="fill:#4c72b0;" x="185.161724" xlink:href="#mc47d4af382" y="253.063457"/>
     <use style="fill:#4c72b0;" x="185.161724" xlink:href="#mc47d4af382" y="249.235662"/>
     <use style="fill:#4c72b0;" x="185.161724" xlink:href="#mc47d4af382" y="245.407866"/>
     <use style="fill:#4c72b0;" x="192.265341" xlink:href="#mc47d4af382" y="241.58007"/>
     <use style="fill:#4c72b0;" x="199.368958" xlink:href="#mc47d4af382" y="237.752275"/>
     <use style="fill:#4c72b0;" x="199.368958" xlink:href="#mc47d4af382" y="233.924479"/>
     <use style="fill:#4c72b0;" x="199.368958" xlink:href="#mc47d4af382" y="230.096683"/>
     <use style="fill:#4c72b0;" x="206.472575" xlink:href="#mc47d4af382" y="226.268888"/>
     <use style="fill:#4c72b0;" x="213.576192" xlink:href="#mc47d4af382" y="222.441092"/>
     <use style="fill:#4c72b0;" x="213.576192" xlink:href="#mc47d4af382" y="218.613296"/>
     <use style="fill:#4c72b0;" x="213.576192" xlink:href="#mc47d4af382" y="214.7855"/>
     <use style="fill:#4c72b0;" x="213.576192" xlink:href="#mc47d4af382" y="210.957705"/>
     <use style="fill:#4c72b0;" x="213.576192" xlink:href="#mc47d4af382" y="207.129909"/>
     <use style="fill:#4c72b0;" x="227.783426" xlink:href="#mc47d4af382" y="203.302113"/>
     <use style="fill:#4c72b0;" x="227.783426" xlink:href="#mc47d4af382" y="199.474318"/>
     <use style="fill:#4c72b0;" x="227.783426" xlink:href="#mc47d4af382" y="195.646522"/>
     <use style="fill:#4c72b0;" x="227.783426" xlink:href="#mc47d4af382" y="191.818726"/>
     <use style="fill:#4c72b0;" x="227.783426" xlink:href="#mc47d4af382" y="187.990931"/>
     <use style="fill:#4c72b0;" x="241.99066" xlink:href="#mc47d4af382" y="184.163135"/>
     <use style="fill:#4c72b0;" x="241.99066" xlink:href="#mc47d4af382" y="180.335339"/>
     <use style="fill:#4c72b0;" x="241.99066" xlink:href="#mc47d4af382" y="176.507544"/>
     <use style="fill:#4c72b0;" x="241.99066" xlink:href="#mc47d4af382" y="172.679748"/>
     <use style="fill:#4c72b0;" x="241.99066" xlink:href="#mc47d4af382" y="168.851952"/>
     <use style="fill:#4c72b0;" x="241.99066" xlink:href="#mc47d4af382" y="165.024157"/>
     <use style="fill:#4c72b0;" x="247.673554" xlink:href="#mc47d4af382" y="161.196361"/>
     <use style="fill:#4c72b0;" x="249.094278" xlink:href="#mc47d4af382" y="157.368565"/>
     <use style="fill:#4c72b0;" x="249.094278" xlink:href="#mc47d4af382" y="153.54077"/>
     <use style="fill:#4c72b0;" x="256.197895" xlink:href="#mc47d4af382" y="149.712974"/>
     <use style="fill:#4c72b0;" x="256.197895" xlink:href="#mc47d4af382" y="145.885178"/>
     <use style="fill:#4c72b0;" x="256.197895" xlink:href="#mc47d4af382" y="142.057383"/>
     <use style="fill:#4c72b0;" x="256.197895" xlink:href="#mc47d4af382" y="138.229587"/>
     <use style="fill:#4c72b0;" x="256.197895" xlink:href="#mc47d4af382" y="134.401791"/>
     <use style="fill:#4c72b0;" x="256.197895" xlink:href="#mc47d4af382" y="130.573995"/>
     <use style="fill:#4c72b0;" x="256.197895" xlink:href="#mc47d4af382" y="126.7462"/>
     <use style="fill:#4c72b0;" x="256.197895" xlink:href="#mc47d4af382" y="122.918404"/>
     <use style="fill:#4c72b0;" x="256.197895" xlink:href="#mc47d4af382" y="119.090608"/>
     <use style="fill:#4c72b0;" x="270.405129" xlink:href="#mc47d4af382" y="115.262813"/>
     <use style="fill:#4c72b0;" x="270.405129" xlink:href="#mc47d4af382" y="111.435017"/>
     <use style="fill:#4c72b0;" x="270.405129" xlink:href="#mc47d4af382" y="107.607221"/>
     <use style="fill:#4c72b0;" x="270.405129" xlink:href="#mc47d4af382" y="103.779426"/>
     <use style="fill:#4c72b0;" x="284.612363" xlink:href="#mc47d4af382" y="99.95163"/>
     <use style="fill:#4c72b0;" x="284.612363" xlink:href="#mc47d4af382" y="96.123834"/>
     <use style="fill:#4c72b0;" x="284.612363" xlink:href="#mc47d4af382" y="92.296039"/>
     <use style="fill:#4c72b0;" x="304.50249" xlink:href="#mc47d4af382" y="88.468243"/>
     <use style="fill:#4c72b0;" x="305.923214" xlink:href="#mc47d4af382" y="84.640447"/>
     <use style="fill:#4c72b0;" x="305.923214" xlink:href="#mc47d4af382" y="80.812652"/>
     <use style="fill:#4c72b0;" x="305.923214" xlink:href="#mc47d4af382" y="76.984856"/>
     <use style="fill:#4c72b0;" x="305.923214" xlink:href="#mc47d4af382" y="73.15706"/>
     <use style="fill:#4c72b0;" x="327.234065" xlink:href="#mc47d4af382" y="69.329265"/>
     <use style="fill:#4c72b0;" x="327.234065" xlink:href="#mc47d4af382" y="65.501469"/>
     <use style="fill:#4c72b0;" x="334.337682" xlink:href="#mc47d4af382" y="61.673673"/>
     <use style="fill:#4c72b0;" x="341.441299" xlink:href="#mc47d4af382" y="57.845878"/>
     <use style="fill:#4c72b0;" x="341.441299" xlink:href="#mc47d4af382" y="54.018082"/>
     <use style="fill:#4c72b0;" x="347.124192" xlink:href="#mc47d4af382" y="50.190286"/>
     <use style="fill:#4c72b0;" x="355.648533" xlink:href="#mc47d4af382" y="46.36249"/>
     <use style="fill:#4c72b0;" x="355.648533" xlink:href="#mc47d4af382" y="42.534695"/>
     <use style="fill:#4c72b0;" x="369.855767" xlink:href="#mc47d4af382" y="38.706899"/>
     <use style="fill:#4c72b0;" x="398.270235" xlink:href="#mc47d4af382" y="34.879103"/>
     <use style="fill:#4c72b0;" x="398.270235" xlink:href="#mc47d4af382" y="31.051308"/>
     <use style="fill:#4c72b0;" x="412.477469" xlink:href="#mc47d4af382" y="27.223512"/>
     <use style="fill:#4c72b0;" x="440.891937" xlink:href="#mc47d4af382" y="23.395716"/>
     <use style="fill:#4c72b0;" x="440.891937" xlink:href="#mc47d4af382" y="19.567921"/>
    </g>
   </g>
   <g id="line2d_28">
    <defs>
     <path d="M 0 1.75 
C 0.464105 1.75 0.909265 1.565609 1.237437 1.237437 
C 1.565609 0.909265 1.75 0.464105 1.75 0 
C 1.75 -0.464105 1.565609 -0.909265 1.237437 -1.237437 
C 0.909265 -1.565609 0.464105 -1.75 0 -1.75 
C -0.464105 -1.75 -0.909265 -1.565609 -1.237437 -1.237437 
C -1.565609 -0.909265 -1.75 -0.464105 -1.75 0 
C -1.75 0.464105 -1.565609 0.909265 -1.237437 1.237437 
C -0.909265 1.565609 -0.464105 1.75 0 1.75 
z
" id="m74282a9e5d"/>
    </defs>
    <g clip-path="url(#p8d2775a493)">
     <use style="fill:#55a868;" x="57.296618" xlink:href="#m74282a9e5d" y="349.963954"/>
     <use style="fill:#55a868;" x="57.296618" xlink:href="#m74282a9e5d" y="347.341764"/>
     <use style="fill:#55a868;" x="71.503852" xlink:href="#m74282a9e5d" y="344.719573"/>
     <use style="fill:#55a868;" x="85.711086" xlink:href="#m74282a9e5d" y="342.097382"/>
     <use style="fill:#55a868;" x="99.91832" xlink:href="#m74282a9e5d" y="339.475191"/>
     <use style="fill:#55a868;" x="99.91832" xlink:href="#m74282a9e5d" y="336.853001"/>
     <use style="fill:#55a868;" x="99.91832" xlink:href="#m74282a9e5d" y="334.23081"/>
     <use style="fill:#55a868;" x="114.125554" xlink:href="#m74282a9e5d" y="331.608619"/>
     <use style="fill:#55a868;" x="114.125554" xlink:href="#m74282a9e5d" y="328.986428"/>
     <use style="fill:#55a868;" x="128.332788" xlink:href="#m74282a9e5d" y="326.364238"/>
     <use style="fill:#55a868;" x="128.332788" xlink:href="#m74282a9e5d" y="323.742047"/>
     <use style="fill:#55a868;" x="142.540022" xlink:href="#m74282a9e5d" y="321.119856"/>
     <use style="fill:#55a868;" x="142.540022" xlink:href="#m74282a9e5d" y="318.497665"/>
     <use style="fill:#55a868;" x="156.747256" xlink:href="#m74282a9e5d" y="315.875475"/>
     <use style="fill:#55a868;" x="156.747256" xlink:href="#m74282a9e5d" y="313.253284"/>
     <use style="fill:#55a868;" x="156.747256" xlink:href="#m74282a9e5d" y="310.631093"/>
     <use style="fill:#55a868;" x="156.747256" xlink:href="#m74282a9e5d" y="308.008902"/>
     <use style="fill:#55a868;" x="156.747256" xlink:href="#m74282a9e5d" y="305.386712"/>
     <use style="fill:#55a868;" x="156.747256" xlink:href="#m74282a9e5d" y="302.764521"/>
     <use style="fill:#55a868;" x="170.95449" xlink:href="#m74282a9e5d" y="300.14233"/>
     <use style="fill:#55a868;" x="170.95449" xlink:href="#m74282a9e5d" y="297.520139"/>
     <use style="fill:#55a868;" x="170.95449" xlink:href="#m74282a9e5d" y="294.897949"/>
     <use style="fill:#55a868;" x="170.95449" xlink:href="#m74282a9e5d" y="292.275758"/>
     <use style="fill:#55a868;" x="185.161724" xlink:href="#m74282a9e5d" y="289.653567"/>
     <use style="fill:#55a868;" x="185.161724" xlink:href="#m74282a9e5d" y="287.031376"/>
     <use style="fill:#55a868;" x="199.368958" xlink:href="#m74282a9e5d" y="284.409186"/>
     <use style="fill:#55a868;" x="199.368958" xlink:href="#m74282a9e5d" y="281.786995"/>
     <use style="fill:#55a868;" x="199.368958" xlink:href="#m74282a9e5d" y="279.164804"/>
     <use style="fill:#55a868;" x="199.368958" xlink:href="#m74282a9e5d" y="276.542614"/>
     <use style="fill:#55a868;" x="199.368958" xlink:href="#m74282a9e5d" y="273.920423"/>
     <use style="fill:#55a868;" x="213.576192" xlink:href="#m74282a9e5d" y="271.298232"/>
     <use style="fill:#55a868;" x="213.576192" xlink:href="#m74282a9e5d" y="268.676041"/>
     <use style="fill:#55a868;" x="213.576192" xlink:href="#m74282a9e5d" y="266.053851"/>
     <use style="fill:#55a868;" x="213.576192" xlink:href="#m74282a9e5d" y="263.43166"/>
     <use style="fill:#55a868;" x="213.576192" xlink:href="#m74282a9e5d" y="260.809469"/>
     <use style="fill:#55a868;" x="220.679809" xlink:href="#m74282a9e5d" y="258.187278"/>
     <use style="fill:#55a868;" x="227.783426" xlink:href="#m74282a9e5d" y="255.565088"/>
     <use style="fill:#55a868;" x="227.783426" xlink:href="#m74282a9e5d" y="252.942897"/>
     <use style="fill:#55a868;" x="227.783426" xlink:href="#m74282a9e5d" y="250.320706"/>
     <use style="fill:#55a868;" x="227.783426" xlink:href="#m74282a9e5d" y="247.698515"/>
     <use style="fill:#55a868;" x="227.783426" xlink:href="#m74282a9e5d" y="245.076325"/>
     <use style="fill:#55a868;" x="227.783426" xlink:href="#m74282a9e5d" y="242.454134"/>
     <use style="fill:#55a868;" x="227.783426" xlink:href="#m74282a9e5d" y="239.831943"/>
     <use style="fill:#55a868;" x="227.783426" xlink:href="#m74282a9e5d" y="237.209752"/>
     <use style="fill:#55a868;" x="227.783426" xlink:href="#m74282a9e5d" y="234.587562"/>
     <use style="fill:#55a868;" x="227.783426" xlink:href="#m74282a9e5d" y="231.965371"/>
     <use style="fill:#55a868;" x="227.783426" xlink:href="#m74282a9e5d" y="229.34318"/>
     <use style="fill:#55a868;" x="234.887043" xlink:href="#m74282a9e5d" y="226.720989"/>
     <use style="fill:#55a868;" x="241.99066" xlink:href="#m74282a9e5d" y="224.098799"/>
     <use style="fill:#55a868;" x="241.99066" xlink:href="#m74282a9e5d" y="221.476608"/>
     <use style="fill:#55a868;" x="241.99066" xlink:href="#m74282a9e5d" y="218.854417"/>
     <use style="fill:#55a868;" x="241.99066" xlink:href="#m74282a9e5d" y="216.232226"/>
     <use style="fill:#55a868;" x="241.99066" xlink:href="#m74282a9e5d" y="213.610036"/>
     <use style="fill:#55a868;" x="241.99066" xlink:href="#m74282a9e5d" y="210.987845"/>
     <use style="fill:#55a868;" x="241.99066" xlink:href="#m74282a9e5d" y="208.365654"/>
     <use style="fill:#55a868;" x="256.197895" xlink:href="#m74282a9e5d" y="205.743463"/>
     <use style="fill:#55a868;" x="256.197895" xlink:href="#m74282a9e5d" y="203.121273"/>
     <use style="fill:#55a868;" x="256.197895" xlink:href="#m74282a9e5d" y="200.499082"/>
     <use style="fill:#55a868;" x="256.197895" xlink:href="#m74282a9e5d" y="197.876891"/>
     <use style="fill:#55a868;" x="256.197895" xlink:href="#m74282a9e5d" y="195.2547"/>
     <use style="fill:#55a868;" x="256.197895" xlink:href="#m74282a9e5d" y="192.63251"/>
     <use style="fill:#55a868;" x="263.301512" xlink:href="#m74282a9e5d" y="190.010319"/>
     <use style="fill:#55a868;" x="270.405129" xlink:href="#m74282a9e5d" y="187.388128"/>
     <use style="fill:#55a868;" x="270.405129" xlink:href="#m74282a9e5d" y="184.765937"/>
     <use style="fill:#55a868;" x="270.405129" xlink:href="#m74282a9e5d" y="182.143747"/>
     <use style="fill:#55a868;" x="270.405129" xlink:href="#m74282a9e5d" y="179.521556"/>
     <use style="fill:#55a868;" x="284.612363" xlink:href="#m74282a9e5d" y="176.899365"/>
     <use style="fill:#55a868;" x="284.612363" xlink:href="#m74282a9e5d" y="174.277175"/>
     <use style="fill:#55a868;" x="284.612363" xlink:href="#m74282a9e5d" y="171.654984"/>
     <use style="fill:#55a868;" x="284.612363" xlink:href="#m74282a9e5d" y="169.032793"/>
     <use style="fill:#55a868;" x="284.612363" xlink:href="#m74282a9e5d" y="166.410602"/>
     <use style="fill:#55a868;" x="284.612363" xlink:href="#m74282a9e5d" y="163.788412"/>
     <use style="fill:#55a868;" x="284.612363" xlink:href="#m74282a9e5d" y="161.166221"/>
     <use style="fill:#55a868;" x="284.612363" xlink:href="#m74282a9e5d" y="158.54403"/>
     <use style="fill:#55a868;" x="284.612363" xlink:href="#m74282a9e5d" y="155.921839"/>
     <use style="fill:#55a868;" x="298.819597" xlink:href="#m74282a9e5d" y="153.299649"/>
     <use style="fill:#55a868;" x="298.819597" xlink:href="#m74282a9e5d" y="150.677458"/>
     <use style="fill:#55a868;" x="298.819597" xlink:href="#m74282a9e5d" y="148.055267"/>
     <use style="fill:#55a868;" x="298.819597" xlink:href="#m74282a9e5d" y="145.433076"/>
     <use style="fill:#55a868;" x="298.819597" xlink:href="#m74282a9e5d" y="142.810886"/>
     <use style="fill:#55a868;" x="298.819597" xlink:href="#m74282a9e5d" y="140.188695"/>
     <use style="fill:#55a868;" x="298.819597" xlink:href="#m74282a9e5d" y="137.566504"/>
     <use style="fill:#55a868;" x="298.819597" xlink:href="#m74282a9e5d" y="134.944313"/>
     <use style="fill:#55a868;" x="313.026831" xlink:href="#m74282a9e5d" y="132.322123"/>
     <use style="fill:#55a868;" x="313.026831" xlink:href="#m74282a9e5d" y="129.699932"/>
     <use style="fill:#55a868;" x="313.026831" xlink:href="#m74282a9e5d" y="127.077741"/>
     <use style="fill:#55a868;" x="313.026831" xlink:href="#m74282a9e5d" y="124.45555"/>
     <use style="fill:#55a868;" x="313.026831" xlink:href="#m74282a9e5d" y="121.83336"/>
     <use style="fill:#55a868;" x="313.026831" xlink:href="#m74282a9e5d" y="119.211169"/>
     <use style="fill:#55a868;" x="313.026831" xlink:href="#m74282a9e5d" y="116.588978"/>
     <use style="fill:#55a868;" x="313.026831" xlink:href="#m74282a9e5d" y="113.966787"/>
     <use style="fill:#55a868;" x="313.026831" xlink:href="#m74282a9e5d" y="111.344597"/>
     <use style="fill:#55a868;" x="313.026831" xlink:href="#m74282a9e5d" y="108.722406"/>
     <use style="fill:#55a868;" x="313.026831" xlink:href="#m74282a9e5d" y="106.100215"/>
     <use style="fill:#55a868;" x="327.234065" xlink:href="#m74282a9e5d" y="103.478024"/>
     <use style="fill:#55a868;" x="327.234065" xlink:href="#m74282a9e5d" y="100.855834"/>
     <use style="fill:#55a868;" x="327.234065" xlink:href="#m74282a9e5d" y="98.233643"/>
     <use style="fill:#55a868;" x="327.234065" xlink:href="#m74282a9e5d" y="95.611452"/>
     <use style="fill:#55a868;" x="327.234065" xlink:href="#m74282a9e5d" y="92.989261"/>
     <use style="fill:#55a868;" x="341.441299" xlink:href="#m74282a9e5d" y="90.367071"/>
     <use style="fill:#55a868;" x="341.441299" xlink:href="#m74282a9e5d" y="87.74488"/>
     <use style="fill:#55a868;" x="355.648533" xlink:href="#m74282a9e5d" y="85.122689"/>
     <use style="fill:#55a868;" x="355.648533" xlink:href="#m74282a9e5d" y="82.500499"/>
     <use style="fill:#55a868;" x="355.648533" xlink:href="#m74282a9e5d" y="79.878308"/>
     <use style="fill:#55a868;" x="355.648533" xlink:href="#m74282a9e5d" y="77.256117"/>
     <use style="fill:#55a868;" x="355.648533" xlink:href="#m74282a9e5d" y="74.633926"/>
     <use style="fill:#55a868;" x="355.648533" xlink:href="#m74282a9e5d" y="72.011736"/>
     <use style="fill:#55a868;" x="355.648533" xlink:href="#m74282a9e5d" y="69.389545"/>
     <use style="fill:#55a868;" x="355.648533" xlink:href="#m74282a9e5d" y="66.767354"/>
     <use style="fill:#55a868;" x="369.855767" xlink:href="#m74282a9e5d" y="64.145163"/>
     <use style="fill:#55a868;" x="369.855767" xlink:href="#m74282a9e5d" y="61.522973"/>
     <use style="fill:#55a868;" x="384.063001" xlink:href="#m74282a9e5d" y="58.900782"/>
     <use style="fill:#55a868;" x="384.063001" xlink:href="#m74282a9e5d" y="56.278591"/>
     <use style="fill:#55a868;" x="384.063001" xlink:href="#m74282a9e5d" y="53.6564"/>
     <use style="fill:#55a868;" x="384.063001" xlink:href="#m74282a9e5d" y="51.03421"/>
     <use style="fill:#55a868;" x="384.063001" xlink:href="#m74282a9e5d" y="48.412019"/>
     <use style="fill:#55a868;" x="412.477469" xlink:href="#m74282a9e5d" y="45.789828"/>
     <use style="fill:#55a868;" x="412.477469" xlink:href="#m74282a9e5d" y="43.167637"/>
     <use style="fill:#55a868;" x="412.477469" xlink:href="#m74282a9e5d" y="40.545447"/>
     <use style="fill:#55a868;" x="412.477469" xlink:href="#m74282a9e5d" y="37.923256"/>
     <use style="fill:#55a868;" x="412.477469" xlink:href="#m74282a9e5d" y="35.301065"/>
     <use style="fill:#55a868;" x="455.099171" xlink:href="#m74282a9e5d" y="32.678874"/>
     <use style="fill:#55a868;" x="455.099171" xlink:href="#m74282a9e5d" y="30.056684"/>
     <use style="fill:#55a868;" x="469.306405" xlink:href="#m74282a9e5d" y="27.434493"/>
     <use style="fill:#55a868;" x="469.306405" xlink:href="#m74282a9e5d" y="24.812302"/>
     <use style="fill:#55a868;" x="497.720873" xlink:href="#m74282a9e5d" y="22.190111"/>
     <use style="fill:#55a868;" x="526.135341" xlink:href="#m74282a9e5d" y="19.567921"/>
    </g>
   </g>
   <g id="patch_3">
    <path d="M 47.919844 356.571875 
L 47.919844 12.96 
" style="fill:none;"/>
   </g>
   <g id="patch_4">
    <path d="M 535.512115 356.571875 
L 535.512115 12.96 
" style="fill:none;"/>
   </g>
   <g id="patch_5">
    <path d="M 47.919844 356.571875 
L 535.512115 356.571875 
" style="fill:none;"/>
   </g>
   <g id="patch_6">
    <path d="M 47.919844 12.96 
L 535.512115 12.96 
" style="fill:none;"/>
   </g>
   <g id="legend_1">
    <g id="line2d_29"/>
    <g id="line2d_30">
     <g>
      <use style="fill:#4c72b0;" x="486.268365" xlink:href="#mc47d4af382" y="327.939062"/>
     </g>
    </g>
    <g id="text_16">
     <!-- 1975 -->
     <defs>
      <path d="M 4.734375 62.203125 
L 4.734375 70.65625 
L 51.078125 70.65625 
L 51.078125 63.8125 
Q 44.234375 56.546875 37.515625 44.484375 
Q 30.8125 32.421875 27.15625 19.671875 
Q 24.515625 10.6875 23.78125 0 
L 14.75 0 
Q 14.890625 8.453125 18.0625 20.40625 
Q 21.234375 32.375 27.171875 43.484375 
Q 33.109375 54.59375 39.796875 62.203125 
z
" id="ArialMT-55"/>
     </defs>
     <g style="fill:#262626;" transform="translate(504.268365 331.439062)scale(0.1 -0.1)">
      <use xlink:href="#ArialMT-49"/>
      <use x="55.615234" xlink:href="#ArialMT-57"/>
      <use x="111.230469" xlink:href="#ArialMT-55"/>
      <use x="166.845703" xlink:href="#ArialMT-53"/>
     </g>
    </g>
    <g id="line2d_31"/>
    <g id="line2d_32">
     <g>
      <use style="fill:#55a868;" x="486.268365" xlink:href="#m74282a9e5d" y="342.084375"/>
     </g>
    </g>
    <g id="text_17">
     <!-- 2012 -->
     <g style="fill:#262626;" transform="translate(504.268365 345.584375)scale(0.1 -0.1)">
      <use xlink:href="#ArialMT-50"/>
      <use x="55.615234" xlink:href="#ArialMT-48"/>
      <use x="111.230469" xlink:href="#ArialMT-49"/>
      <use x="166.845703" xlink:href="#ArialMT-50"/>
     </g>
    </g>
   </g>
  </g>
 </g>
 <defs>
  <clipPath id="p8d2775a493">
   <rect height="343.611875" width="487.592272" x="47.919844" y="12.96"/>
  </clipPath>
 </defs>
</svg>
