<?xml version="1.0" encoding="utf-8" standalone="no"?>
<!DOCTYPE svg PUBLIC "-//W3C//DTD SVG 1.1//EN"
  "http://www.w3.org/Graphics/SVG/1.1/DTD/svg11.dtd">
<!-- Created with matplotlib (http://matplotlib.org/) -->
<svg height="494pt" version="1.1" viewBox="0 0 629 494" width="629pt" xmlns="http://www.w3.org/2000/svg" xmlns:xlink="http://www.w3.org/1999/xlink">
 <defs>
  <style type="text/css">
*{stroke-linecap:butt;stroke-linejoin:round;stroke-miterlimit:100000;}
  </style>
 </defs>
 <g id="figure_1">
  <g id="patch_1">
   <path d="M 0 494.962 
L 629 494.962 
L 629 0 
L 0 0 
z
" style="fill:#ffffff;"/>
  </g>
  <g id="axes_1">
   <g id="patch_2">
    <path d="M 46.335938 450.426063 
L 518.929323 450.426063 
L 518.929323 88.03101 
L 46.335938 88.03101 
z
" style="fill:#eaeaf2;"/>
   </g>
   <g id="matplotlib.axis_1">
    <g id="xtick_1">
     <g id="line2d_1">
      <path clip-path="url(#pe689531e6c)" d="M 56.609707 450.426063 
L 56.609707 88.03101 
" style="fill:none;stroke:#ffffff;stroke-linecap:round;"/>
     </g>
     <g id="line2d_2">
      <defs>
       <path d="M 0 0 
L 0 0 
" id="m15ee24f119" style="stroke:#262626;"/>
      </defs>
      <g>
       <use style="fill:#262626;stroke:#262626;" x="56.60970720023427" xlink:href="#m15ee24f119" y="450.4260625"/>
      </g>
     </g>
     <g id="text_1">
      <!-- 50 -->
      <defs>
       <path d="M 51.421875 22.40625 
Q 51.421875 17.234375 49.859375 12.9375 
Q 48.296875 8.640625 45.21875 5.53125 
Q 42.140625 2.4375 37.578125 0.71875 
Q 33.015625 -0.984375 27 -0.984375 
Q 21.578125 -0.984375 17.546875 0.28125 
Q 13.53125 1.5625 10.734375 3.78125 
Q 7.953125 6 6.3125 8.984375 
Q 4.6875 11.96875 4 15.375 
L 12.890625 16.40625 
Q 13.421875 14.453125 14.390625 12.625 
Q 15.375 10.796875 17.0625 9.34375 
Q 18.75 7.90625 21.21875 7.046875 
Q 23.6875 6.203125 27.203125 6.203125 
Q 30.609375 6.203125 33.390625 7.25 
Q 36.1875 8.296875 38.15625 10.34375 
Q 40.140625 12.40625 41.203125 15.375 
Q 42.28125 18.359375 42.28125 22.21875 
Q 42.28125 25.390625 41.25 28.046875 
Q 40.234375 30.71875 38.328125 32.640625 
Q 36.421875 34.578125 33.65625 35.640625 
Q 30.90625 36.71875 27.390625 36.71875 
Q 25.203125 36.71875 23.34375 36.328125 
Q 21.484375 35.9375 19.890625 35.25 
Q 18.3125 34.578125 17.015625 33.671875 
Q 15.71875 32.765625 14.59375 31.78125 
L 6 31.78125 
L 8.296875 68.796875 
L 47.40625 68.796875 
L 47.40625 61.328125 
L 16.3125 61.328125 
L 14.984375 39.5 
Q 17.328125 41.3125 20.84375 42.59375 
Q 24.359375 43.890625 29.203125 43.890625 
Q 34.328125 43.890625 38.421875 42.328125 
Q 42.53125 40.765625 45.40625 37.90625 
Q 48.296875 35.0625 49.859375 31.109375 
Q 51.421875 27.15625 51.421875 22.40625 
" id="LiberationSans-35"/>
       <path d="M 51.703125 34.421875 
Q 51.703125 24.515625 49.828125 17.75 
Q 47.953125 10.984375 44.703125 6.8125 
Q 41.453125 2.640625 37.0625 0.828125 
Q 32.671875 -0.984375 27.6875 -0.984375 
Q 22.65625 -0.984375 18.3125 0.828125 
Q 13.96875 2.640625 10.765625 6.78125 
Q 7.5625 10.9375 5.734375 17.703125 
Q 3.90625 24.46875 3.90625 34.421875 
Q 3.90625 44.828125 5.734375 51.640625 
Q 7.5625 58.453125 10.78125 62.5 
Q 14.015625 66.546875 18.40625 68.1875 
Q 22.796875 69.828125 27.984375 69.828125 
Q 32.90625 69.828125 37.21875 68.1875 
Q 41.546875 66.546875 44.765625 62.5 
Q 48 58.453125 49.84375 51.640625 
Q 51.703125 44.828125 51.703125 34.421875 
M 42.78125 34.421875 
Q 42.78125 42.625 41.796875 48.0625 
Q 40.828125 53.515625 38.921875 56.765625 
Q 37.015625 60.015625 34.25 61.359375 
Q 31.5 62.703125 27.984375 62.703125 
Q 24.265625 62.703125 21.4375 61.328125 
Q 18.609375 59.96875 16.671875 56.71875 
Q 14.75 53.46875 13.765625 48.015625 
Q 12.796875 42.578125 12.796875 34.421875 
Q 12.796875 26.515625 13.796875 21.09375 
Q 14.796875 15.671875 16.71875 12.375 
Q 18.65625 9.078125 21.4375 7.640625 
Q 24.21875 6.203125 27.78125 6.203125 
Q 31.25 6.203125 34.03125 7.640625 
Q 36.8125 9.078125 38.734375 12.375 
Q 40.671875 15.671875 41.71875 21.09375 
Q 42.78125 26.515625 42.78125 34.421875 
" id="LiberationSans-30"/>
      </defs>
      <g style="fill:#262626;" transform="translate(51.04876970023427 464.6729375)scale(0.1 -0.1)">
       <use xlink:href="#LiberationSans-35"/>
       <use x="55.615234375" xlink:href="#LiberationSans-30"/>
      </g>
     </g>
    </g>
    <g id="xtick_2">
     <g id="line2d_3">
      <path clip-path="url(#pe689531e6c)" d="M 185.031823 450.426063 
L 185.031823 88.03101 
" style="fill:none;stroke:#ffffff;stroke-linecap:round;"/>
     </g>
     <g id="line2d_4">
      <g>
       <use style="fill:#262626;stroke:#262626;" x="185.03182254574517" xlink:href="#m15ee24f119" y="450.4260625"/>
      </g>
     </g>
     <g id="text_2">
      <!-- 100 -->
      <defs>
       <path d="M 7.625 0 
L 7.625 7.46875 
L 25.140625 7.46875 
L 25.140625 60.40625 
L 9.625 49.3125 
L 9.625 57.625 
L 25.875 68.796875 
L 33.984375 68.796875 
L 33.984375 7.46875 
L 50.734375 7.46875 
L 50.734375 0 
z
" id="LiberationSans-31"/>
      </defs>
      <g style="fill:#262626;" transform="translate(176.69041629574517 464.6729375)scale(0.1 -0.1)">
       <use xlink:href="#LiberationSans-31"/>
       <use x="55.615234375" xlink:href="#LiberationSans-30"/>
       <use x="111.23046875" xlink:href="#LiberationSans-30"/>
      </g>
     </g>
    </g>
    <g id="xtick_3">
     <g id="line2d_5">
      <path clip-path="url(#pe689531e6c)" d="M 313.453938 450.426063 
L 313.453938 88.03101 
" style="fill:none;stroke:#ffffff;stroke-linecap:round;"/>
     </g>
     <g id="line2d_6">
      <g>
       <use style="fill:#262626;stroke:#262626;" x="313.4539378912561" xlink:href="#m15ee24f119" y="450.4260625"/>
      </g>
     </g>
     <g id="text_3">
      <!-- 150 -->
      <g style="fill:#262626;" transform="translate(305.1125316412561 464.6729375)scale(0.1 -0.1)">
       <use xlink:href="#LiberationSans-31"/>
       <use x="55.615234375" xlink:href="#LiberationSans-35"/>
       <use x="111.23046875" xlink:href="#LiberationSans-30"/>
      </g>
     </g>
    </g>
    <g id="xtick_4">
     <g id="line2d_7">
      <path clip-path="url(#pe689531e6c)" d="M 441.876053 450.426063 
L 441.876053 88.03101 
" style="fill:none;stroke:#ffffff;stroke-linecap:round;"/>
     </g>
     <g id="line2d_8">
      <g>
       <use style="fill:#262626;stroke:#262626;" x="441.876053236767" xlink:href="#m15ee24f119" y="450.4260625"/>
      </g>
     </g>
     <g id="text_4">
      <!-- 200 -->
      <defs>
       <path d="M 5.03125 0 
L 5.03125 6.203125 
Q 7.515625 11.921875 11.109375 16.28125 
Q 14.703125 20.65625 18.65625 24.1875 
Q 22.609375 27.734375 26.484375 30.765625 
Q 30.375 33.796875 33.5 36.8125 
Q 36.625 39.84375 38.546875 43.15625 
Q 40.484375 46.484375 40.484375 50.6875 
Q 40.484375 53.609375 39.59375 55.828125 
Q 38.71875 58.0625 37.0625 59.5625 
Q 35.40625 61.078125 33.078125 61.828125 
Q 30.765625 62.59375 27.9375 62.59375 
Q 25.296875 62.59375 22.96875 61.859375 
Q 20.65625 61.140625 18.84375 59.671875 
Q 17.046875 58.203125 15.890625 56.03125 
Q 14.75 53.859375 14.40625 50.984375 
L 5.421875 51.8125 
Q 5.859375 55.515625 7.46875 58.78125 
Q 9.078125 62.0625 11.90625 64.53125 
Q 14.75 67 18.71875 68.40625 
Q 22.703125 69.828125 27.9375 69.828125 
Q 33.0625 69.828125 37.0625 68.609375 
Q 41.0625 67.390625 43.8125 64.984375 
Q 46.578125 62.59375 48.046875 59.078125 
Q 49.515625 55.5625 49.515625 50.984375 
Q 49.515625 47.515625 48.265625 44.390625 
Q 47.015625 41.265625 44.9375 38.421875 
Q 42.875 35.59375 40.140625 32.953125 
Q 37.40625 30.328125 34.421875 27.8125 
Q 31.453125 25.296875 28.421875 22.828125 
Q 25.390625 20.359375 22.71875 17.859375 
Q 20.0625 15.375 17.96875 12.8125 
Q 15.875 10.25 14.703125 7.46875 
L 50.59375 7.46875 
L 50.59375 0 
z
" id="LiberationSans-32"/>
      </defs>
      <g style="fill:#262626;" transform="translate(433.53464698676703 464.6729375)scale(0.1 -0.1)">
       <use xlink:href="#LiberationSans-32"/>
       <use x="55.615234375" xlink:href="#LiberationSans-30"/>
       <use x="111.23046875" xlink:href="#LiberationSans-30"/>
      </g>
     </g>
    </g>
    <g id="text_5">
     <!-- hp -->
     <defs>
      <path d="M 51.421875 26.65625 
Q 51.421875 20.65625 50.4375 15.578125 
Q 49.46875 10.5 47.1875 6.828125 
Q 44.921875 3.171875 41.1875 1.09375 
Q 37.453125 -0.984375 31.984375 -0.984375 
Q 26.3125 -0.984375 22.0625 1.171875 
Q 17.828125 3.328125 15.578125 8.203125 
L 15.328125 8.203125 
Q 15.375 8.109375 15.40625 7.328125 
Q 15.4375 6.546875 15.453125 5.375 
Q 15.484375 4.203125 15.5 2.75 
Q 15.53125 1.3125 15.53125 -0.09375 
L 15.53125 -20.75 
L 6.734375 -20.75 
L 6.734375 42.046875 
Q 6.734375 43.953125 6.703125 45.703125 
Q 6.6875 47.46875 6.640625 48.90625 
Q 6.59375 50.34375 6.546875 51.359375 
Q 6.5 52.390625 6.453125 52.828125 
L 14.9375 52.828125 
Q 14.984375 52.6875 15.0625 51.796875 
Q 15.140625 50.921875 15.203125 49.671875 
Q 15.28125 48.4375 15.359375 47.015625 
Q 15.4375 45.609375 15.4375 44.34375 
L 15.625 44.34375 
Q 16.84375 46.875 18.40625 48.65625 
Q 19.96875 50.4375 21.96875 51.578125 
Q 23.96875 52.734375 26.4375 53.25 
Q 28.90625 53.765625 31.984375 53.765625 
Q 37.453125 53.765625 41.1875 51.8125 
Q 44.921875 49.859375 47.1875 46.3125 
Q 49.46875 42.78125 50.4375 37.765625 
Q 51.421875 32.765625 51.421875 26.65625 
M 42.1875 26.46875 
Q 42.1875 31.34375 41.59375 35.15625 
Q 41.015625 38.96875 39.578125 41.59375 
Q 38.140625 44.234375 35.734375 45.59375 
Q 33.34375 46.96875 29.734375 46.96875 
Q 26.8125 46.96875 24.21875 46.140625 
Q 21.625 45.3125 19.703125 42.96875 
Q 17.78125 40.625 16.65625 36.5 
Q 15.53125 32.375 15.53125 25.78125 
Q 15.53125 20.171875 16.453125 16.28125 
Q 17.390625 12.40625 19.171875 10.015625 
Q 20.953125 7.625 23.578125 6.5625 
Q 26.21875 5.515625 29.640625 5.515625 
Q 33.296875 5.515625 35.71875 6.921875 
Q 38.140625 8.34375 39.578125 11.03125 
Q 41.015625 13.71875 41.59375 17.59375 
Q 42.1875 21.484375 42.1875 26.46875 
" id="LiberationSans-70"/>
      <path d="M 15.484375 43.796875 
Q 16.9375 46.484375 18.640625 48.359375 
Q 20.359375 50.25 22.40625 51.46875 
Q 24.46875 52.6875 26.90625 53.25 
Q 29.34375 53.8125 32.375 53.8125 
Q 37.453125 53.8125 40.703125 52.4375 
Q 43.953125 51.078125 45.828125 48.609375 
Q 47.703125 46.140625 48.40625 42.71875 
Q 49.125 39.3125 49.125 35.203125 
L 49.125 0 
L 40.28125 0 
L 40.28125 33.5 
Q 40.28125 36.859375 39.859375 39.390625 
Q 39.453125 41.9375 38.28125 43.625 
Q 37.109375 45.3125 34.953125 46.15625 
Q 32.8125 47.015625 29.390625 47.015625 
Q 26.265625 47.015625 23.75 45.890625 
Q 21.234375 44.78125 19.453125 42.71875 
Q 17.671875 40.671875 16.6875 37.734375 
Q 15.71875 34.8125 15.71875 31.15625 
L 15.71875 0 
L 6.9375 0 
L 6.9375 72.46875 
L 15.71875 72.46875 
L 15.71875 53.609375 
Q 15.71875 52 15.671875 50.390625 
Q 15.625 48.78125 15.546875 47.40625 
Q 15.484375 46.046875 15.421875 45.09375 
Q 15.375 44.140625 15.328125 43.796875 
z
" id="LiberationSans-68"/>
     </defs>
     <g style="fill:#262626;" transform="translate(276.5155989583334 479.7195)scale(0.11 -0.11)">
      <use xlink:href="#LiberationSans-68"/>
      <use x="55.615234375" xlink:href="#LiberationSans-70"/>
     </g>
    </g>
   </g>
   <g id="matplotlib.axis_2">
    <g id="ytick_1">
     <g id="line2d_9">
      <path clip-path="url(#pe689531e6c)" d="M 46.335938 440.787896 
L 518.929323 440.787896 
" style="fill:none;stroke:#ffffff;stroke-linecap:round;"/>
     </g>
     <g id="line2d_10">
      <g>
       <use style="fill:#262626;stroke:#262626;" x="46.3359375" xlink:href="#m15ee24f119" y="440.7878962211879"/>
      </g>
     </g>
     <g id="text_6">
      <!-- 10 -->
      <g style="fill:#262626;" transform="translate(28.214062499999997 443.37383372118796)scale(0.1 -0.1)">
       <use xlink:href="#LiberationSans-31"/>
       <use x="55.615234375" xlink:href="#LiberationSans-30"/>
      </g>
     </g>
    </g>
    <g id="ytick_2">
     <g id="line2d_11">
      <path clip-path="url(#pe689531e6c)" d="M 46.335938 392.597065 
L 518.929323 392.597065 
" style="fill:none;stroke:#ffffff;stroke-linecap:round;"/>
     </g>
     <g id="line2d_12">
      <g>
       <use style="fill:#262626;stroke:#262626;" x="46.3359375" xlink:href="#m15ee24f119" y="392.59706482712767"/>
      </g>
     </g>
     <g id="text_7">
      <!-- 15 -->
      <g style="fill:#262626;" transform="translate(28.214062499999997 395.18300232712767)scale(0.1 -0.1)">
       <use xlink:href="#LiberationSans-31"/>
       <use x="55.615234375" xlink:href="#LiberationSans-35"/>
      </g>
     </g>
    </g>
    <g id="ytick_3">
     <g id="line2d_13">
      <path clip-path="url(#pe689531e6c)" d="M 46.335938 344.406233 
L 518.929323 344.406233 
" style="fill:none;stroke:#ffffff;stroke-linecap:round;"/>
     </g>
     <g id="line2d_14">
      <g>
       <use style="fill:#262626;stroke:#262626;" x="46.3359375" xlink:href="#m15ee24f119" y="344.40623343306737"/>
      </g>
     </g>
     <g id="text_8">
      <!-- 20 -->
      <g style="fill:#262626;" transform="translate(28.214062499999997 346.99217093306737)scale(0.1 -0.1)">
       <use xlink:href="#LiberationSans-32"/>
       <use x="55.615234375" xlink:href="#LiberationSans-30"/>
      </g>
     </g>
    </g>
    <g id="ytick_4">
     <g id="line2d_15">
      <path clip-path="url(#pe689531e6c)" d="M 46.335938 296.215402 
L 518.929323 296.215402 
" style="fill:none;stroke:#ffffff;stroke-linecap:round;"/>
     </g>
     <g id="line2d_16">
      <g>
       <use style="fill:#262626;stroke:#262626;" x="46.3359375" xlink:href="#m15ee24f119" y="296.21540203900713"/>
      </g>
     </g>
     <g id="text_9">
      <!-- 25 -->
      <g style="fill:#262626;" transform="translate(28.214062499999997 298.80133953900713)scale(0.1 -0.1)">
       <use xlink:href="#LiberationSans-32"/>
       <use x="55.615234375" xlink:href="#LiberationSans-35"/>
      </g>
     </g>
    </g>
    <g id="ytick_5">
     <g id="line2d_17">
      <path clip-path="url(#pe689531e6c)" d="M 46.335938 248.024571 
L 518.929323 248.024571 
" style="fill:none;stroke:#ffffff;stroke-linecap:round;"/>
     </g>
     <g id="line2d_18">
      <g>
       <use style="fill:#262626;stroke:#262626;" x="46.3359375" xlink:href="#m15ee24f119" y="248.02457064494683"/>
      </g>
     </g>
     <g id="text_10">
      <!-- 30 -->
      <defs>
       <path d="M 51.21875 19 
Q 51.21875 14.265625 49.671875 10.546875 
Q 48.140625 6.84375 45.1875 4.265625 
Q 42.234375 1.703125 37.859375 0.359375 
Q 33.5 -0.984375 27.875 -0.984375 
Q 21.484375 -0.984375 17.109375 0.609375 
Q 12.75 2.203125 9.90625 4.8125 
Q 7.078125 7.421875 5.65625 10.765625 
Q 4.25 14.109375 3.8125 17.671875 
L 12.890625 18.5 
Q 13.28125 15.765625 14.328125 13.515625 
Q 15.375 11.28125 17.1875 9.671875 
Q 19 8.0625 21.625 7.171875 
Q 24.265625 6.296875 27.875 6.296875 
Q 34.515625 6.296875 38.296875 9.5625 
Q 42.09375 12.84375 42.09375 19.28125 
Q 42.09375 23.09375 40.40625 25.40625 
Q 38.71875 27.734375 36.203125 29.03125 
Q 33.6875 30.328125 30.734375 30.765625 
Q 27.78125 31.203125 25.296875 31.203125 
L 20.3125 31.203125 
L 20.3125 38.8125 
L 25.09375 38.8125 
Q 27.59375 38.8125 30.265625 39.328125 
Q 32.953125 39.84375 35.171875 41.1875 
Q 37.40625 42.53125 38.84375 44.828125 
Q 40.28125 47.125 40.28125 50.6875 
Q 40.28125 56.203125 37.03125 59.390625 
Q 33.796875 62.59375 27.390625 62.59375 
Q 21.578125 62.59375 17.984375 59.609375 
Q 14.40625 56.640625 13.8125 51.21875 
L 4.984375 51.90625 
Q 5.515625 56.453125 7.46875 59.8125 
Q 9.421875 63.1875 12.421875 65.40625 
Q 15.4375 67.625 19.28125 68.71875 
Q 23.140625 69.828125 27.484375 69.828125 
Q 33.25 69.828125 37.390625 68.375 
Q 41.546875 66.9375 44.1875 64.46875 
Q 46.828125 62.015625 48.0625 58.6875 
Q 49.3125 55.375 49.3125 51.609375 
Q 49.3125 48.578125 48.484375 45.9375 
Q 47.65625 43.3125 45.890625 41.203125 
Q 44.140625 39.109375 41.421875 37.59375 
Q 38.71875 36.078125 34.90625 35.296875 
L 34.90625 35.109375 
Q 39.0625 34.671875 42.140625 33.21875 
Q 45.21875 31.78125 47.21875 29.625 
Q 49.21875 27.484375 50.21875 24.75 
Q 51.21875 22.015625 51.21875 19 
" id="LiberationSans-33"/>
      </defs>
      <g style="fill:#262626;" transform="translate(28.214062499999997 250.61050814494683)scale(0.1 -0.1)">
       <use xlink:href="#LiberationSans-33"/>
       <use x="55.615234375" xlink:href="#LiberationSans-30"/>
      </g>
     </g>
    </g>
    <g id="ytick_6">
     <g id="line2d_19">
      <path clip-path="url(#pe689531e6c)" d="M 46.335938 199.833739 
L 518.929323 199.833739 
" style="fill:none;stroke:#ffffff;stroke-linecap:round;"/>
     </g>
     <g id="line2d_20">
      <g>
       <use style="fill:#262626;stroke:#262626;" x="46.3359375" xlink:href="#m15ee24f119" y="199.83373925088654"/>
      </g>
     </g>
     <g id="text_11">
      <!-- 35 -->
      <g style="fill:#262626;" transform="translate(28.214062499999997 202.41967675088654)scale(0.1 -0.1)">
       <use xlink:href="#LiberationSans-33"/>
       <use x="55.615234375" xlink:href="#LiberationSans-35"/>
      </g>
     </g>
    </g>
    <g id="ytick_7">
     <g id="line2d_21">
      <path clip-path="url(#pe689531e6c)" d="M 46.335938 151.642908 
L 518.929323 151.642908 
" style="fill:none;stroke:#ffffff;stroke-linecap:round;"/>
     </g>
     <g id="line2d_22">
      <g>
       <use style="fill:#262626;stroke:#262626;" x="46.3359375" xlink:href="#m15ee24f119" y="151.64290785682624"/>
      </g>
     </g>
     <g id="text_12">
      <!-- 40 -->
      <defs>
       <path d="M 43.015625 15.578125 
L 43.015625 0 
L 34.71875 0 
L 34.71875 15.578125 
L 2.296875 15.578125 
L 2.296875 22.40625 
L 33.796875 68.796875 
L 43.015625 68.796875 
L 43.015625 22.515625 
L 52.6875 22.515625 
L 52.6875 15.578125 
z
M 34.71875 58.890625 
Q 34.625 58.640625 34.234375 57.9375 
Q 33.84375 57.234375 33.34375 56.34375 
Q 32.859375 55.46875 32.34375 54.5625 
Q 31.84375 53.65625 31.453125 53.078125 
L 13.8125 27.09375 
Q 13.578125 26.703125 13.109375 26.0625 
Q 12.640625 25.4375 12.15625 24.78125 
Q 11.671875 24.125 11.171875 23.484375 
Q 10.6875 22.859375 10.40625 22.515625 
L 34.71875 22.515625 
z
" id="LiberationSans-34"/>
      </defs>
      <g style="fill:#262626;" transform="translate(28.214062499999997 154.22884535682624)scale(0.1 -0.1)">
       <use xlink:href="#LiberationSans-34"/>
       <use x="55.615234375" xlink:href="#LiberationSans-30"/>
      </g>
     </g>
    </g>
    <g id="ytick_8">
     <g id="line2d_23">
      <path clip-path="url(#pe689531e6c)" d="M 46.335938 103.452076 
L 518.929323 103.452076 
" style="fill:none;stroke:#ffffff;stroke-linecap:round;"/>
     </g>
     <g id="line2d_24">
      <g>
       <use style="fill:#262626;stroke:#262626;" x="46.3359375" xlink:href="#m15ee24f119" y="103.452076462766"/>
      </g>
     </g>
     <g id="text_13">
      <!-- 45 -->
      <g style="fill:#262626;" transform="translate(28.214062499999997 106.038013962766)scale(0.1 -0.1)">
       <use xlink:href="#LiberationSans-34"/>
       <use x="55.615234375" xlink:href="#LiberationSans-35"/>
      </g>
     </g>
    </g>
    <g id="text_14">
     <!-- mpg -->
     <defs>
      <path d="M 37.5 0 
L 37.5 33.5 
Q 37.5 37.359375 37.015625 39.9375 
Q 36.53125 42.53125 35.375 44.109375 
Q 34.234375 45.703125 32.375 46.359375 
Q 30.515625 47.015625 27.828125 47.015625 
Q 25.046875 47.015625 22.796875 45.921875 
Q 20.5625 44.828125 18.96875 42.75 
Q 17.390625 40.671875 16.53125 37.625 
Q 15.671875 34.578125 15.671875 30.609375 
L 15.671875 0 
L 6.9375 0 
L 6.9375 41.546875 
Q 6.9375 43.21875 6.90625 45.046875 
Q 6.890625 46.875 6.828125 48.5 
Q 6.78125 50.140625 6.734375 51.3125 
Q 6.6875 52.484375 6.640625 52.828125 
L 14.9375 52.828125 
Q 14.984375 52.59375 15.03125 51.515625 
Q 15.09375 50.4375 15.15625 49.046875 
Q 15.234375 47.65625 15.28125 46.21875 
Q 15.328125 44.78125 15.328125 43.796875 
L 15.484375 43.796875 
Q 16.65625 46.09375 18.015625 47.953125 
Q 19.390625 49.8125 21.21875 51.09375 
Q 23.046875 52.390625 25.40625 53.09375 
Q 27.78125 53.8125 30.90625 53.8125 
Q 36.921875 53.8125 40.40625 51.421875 
Q 43.890625 49.03125 45.265625 43.796875 
L 45.40625 43.796875 
Q 46.578125 46.09375 48.046875 47.953125 
Q 49.515625 49.8125 51.46875 51.09375 
Q 53.421875 52.390625 55.859375 53.09375 
Q 58.296875 53.8125 61.421875 53.8125 
Q 65.4375 53.8125 68.328125 52.734375 
Q 71.234375 51.65625 73.09375 49.40625 
Q 74.953125 47.171875 75.828125 43.625 
Q 76.703125 40.09375 76.703125 35.203125 
L 76.703125 0 
L 68.015625 0 
L 68.015625 33.5 
Q 68.015625 37.359375 67.53125 39.9375 
Q 67.046875 42.53125 65.890625 44.109375 
Q 64.75 45.703125 62.890625 46.359375 
Q 61.03125 47.015625 58.34375 47.015625 
Q 55.5625 47.015625 53.3125 45.96875 
Q 51.078125 44.921875 49.484375 42.875 
Q 47.90625 40.828125 47.046875 37.75 
Q 46.1875 34.671875 46.1875 30.609375 
L 46.1875 0 
z
" id="LiberationSans-6d"/>
      <path d="M 26.765625 -20.75 
Q 22.21875 -20.75 18.703125 -19.8125 
Q 15.1875 -18.890625 12.6875 -17.15625 
Q 10.203125 -15.4375 8.640625 -13.03125 
Q 7.078125 -10.640625 6.390625 -7.71875 
L 15.234375 -6.453125 
Q 16.109375 -10.109375 19.109375 -12.078125 
Q 22.125 -14.0625 27 -14.0625 
Q 29.984375 -14.0625 32.421875 -13.234375 
Q 34.859375 -12.40625 36.5625 -10.5625 
Q 38.28125 -8.734375 39.203125 -5.796875 
Q 40.140625 -2.875 40.140625 1.3125 
L 40.140625 9.8125 
L 40.046875 9.8125 
Q 39.0625 7.8125 37.625 5.984375 
Q 36.1875 4.15625 34.109375 2.734375 
Q 32.03125 1.3125 29.296875 0.453125 
Q 26.5625 -0.390625 23.046875 -0.390625 
Q 18.015625 -0.390625 14.421875 1.296875 
Q 10.84375 2.984375 8.5625 6.34375 
Q 6.296875 9.71875 5.25 14.71875 
Q 4.203125 19.734375 4.203125 26.3125 
Q 4.203125 32.671875 5.25 37.75 
Q 6.296875 42.828125 8.65625 46.359375 
Q 11.03125 49.90625 14.8125 51.78125 
Q 18.609375 53.65625 24.03125 53.65625 
Q 29.640625 53.65625 33.765625 51.09375 
Q 37.890625 48.53125 40.140625 43.796875 
L 40.234375 43.796875 
Q 40.234375 45.015625 40.296875 46.53125 
Q 40.375 48.046875 40.453125 49.390625 
Q 40.53125 50.734375 40.625 51.703125 
Q 40.71875 52.6875 40.828125 52.828125 
L 49.171875 52.828125 
Q 49.125 52.390625 49.078125 51.34375 
Q 49.03125 50.296875 48.96875 48.828125 
Q 48.921875 47.359375 48.890625 45.578125 
Q 48.875 43.796875 48.875 41.890625 
L 48.875 1.515625 
Q 48.875 -9.578125 43.421875 -15.15625 
Q 37.984375 -20.75 26.765625 -20.75 
M 40.140625 26.421875 
Q 40.140625 31.9375 38.9375 35.859375 
Q 37.75 39.796875 35.796875 42.28125 
Q 33.84375 44.78125 31.328125 45.953125 
Q 28.8125 47.125 26.171875 47.125 
Q 22.796875 47.125 20.375 45.953125 
Q 17.96875 44.78125 16.375 42.265625 
Q 14.796875 39.75 14.03125 35.8125 
Q 13.28125 31.890625 13.28125 26.421875 
Q 13.28125 20.703125 14.03125 16.8125 
Q 14.796875 12.9375 16.359375 10.546875 
Q 17.921875 8.15625 20.3125 7.125 
Q 22.703125 6.109375 26.03125 6.109375 
Q 28.65625 6.109375 31.171875 7.21875 
Q 33.6875 8.34375 35.6875 10.78125 
Q 37.703125 13.234375 38.921875 17.09375 
Q 40.140625 20.953125 40.140625 26.421875 
" id="LiberationSans-67"/>
     </defs>
     <g style="fill:#262626;" transform="translate(20.9315625 279.92689583333333)rotate(-90.0)scale(0.11 -0.11)">
      <use xlink:href="#LiberationSans-6d"/>
      <use x="83.30078125" xlink:href="#LiberationSans-70"/>
      <use x="138.916015625" xlink:href="#LiberationSans-67"/>
     </g>
    </g>
   </g>
   <g id="PolyCollection_1">
    <defs>
     <path d="M -53.635739 50.836013 
L -53.635739 33.579105 
L -71.812408 24.950652 
L -89.989077 33.579105 
L -89.989077 50.836013 
L -71.812408 59.464466 
z
" id="C0_0_743770128f"/>
    </defs>
    <g clip-path="url(#pe689531e6c)">
     <use style="fill:#ffffff;stroke:#ffffff;stroke-width:0.3;" x="118.14834564527665" xlink:href="#C0_0_743770128f" y="408.2185034906915"/>
    </g>
    <g clip-path="url(#pe689531e6c)">
     <use style="fill:#ffffff;stroke:#ffffff;stroke-width:0.3;" x="118.14834564527665" xlink:href="#C0_0_743770128f" y="356.447781764501"/>
    </g>
    <g clip-path="url(#pe689531e6c)">
     <use style="fill:#ffffff;stroke:#ffffff;stroke-width:0.3;" x="118.14834564527665" xlink:href="#C0_0_743770128f" y="304.6770600383106"/>
    </g>
    <g clip-path="url(#pe689531e6c)">
     <use style="fill:#dde5f1;stroke:#dde5f1;stroke-width:0.3;" x="118.14834564527665" xlink:href="#C0_0_743770128f" y="252.90633831212006"/>
    </g>
    <g clip-path="url(#pe689531e6c)">
     <use style="fill:#eef2f8;stroke:#eef2f8;stroke-width:0.3;" x="118.14834564527665" xlink:href="#C0_0_743770128f" y="201.1356165859296"/>
    </g>
    <g clip-path="url(#pe689531e6c)">
     <use style="fill:#ffffff;stroke:#ffffff;stroke-width:0.3;" x="118.14834564527665" xlink:href="#C0_0_743770128f" y="149.36489485973908"/>
    </g>
    <g clip-path="url(#pe689531e6c)">
     <use style="fill:#ffffff;stroke:#ffffff;stroke-width:0.3;" x="118.14834564527665" xlink:href="#C0_0_743770128f" y="97.59417313354868"/>
    </g>
    <g clip-path="url(#pe689531e6c)">
     <use style="fill:#ffffff;stroke:#ffffff;stroke-width:0.3;" x="118.14834564527665" xlink:href="#C0_0_743770128f" y="45.823451407358164"/>
    </g>
    <g clip-path="url(#pe689531e6c)">
     <use style="fill:#ffffff;stroke:#ffffff;stroke-width:0.3;" x="154.50168298502024" xlink:href="#C0_0_743770128f" y="408.2185034906915"/>
    </g>
    <g clip-path="url(#pe689531e6c)">
     <use style="fill:#ffffff;stroke:#ffffff;stroke-width:0.3;" x="154.50168298502024" xlink:href="#C0_0_743770128f" y="356.447781764501"/>
    </g>
    <g clip-path="url(#pe689531e6c)">
     <use style="fill:#ffffff;stroke:#ffffff;stroke-width:0.3;" x="154.50168298502024" xlink:href="#C0_0_743770128f" y="304.6770600383106"/>
    </g>
    <g clip-path="url(#pe689531e6c)">
     <use style="fill:#dde5f1;stroke:#dde5f1;stroke-width:0.3;" x="154.50168298502024" xlink:href="#C0_0_743770128f" y="252.90633831212006"/>
    </g>
    <g clip-path="url(#pe689531e6c)">
     <use style="fill:#6788bd;stroke:#6788bd;stroke-width:0.3;" x="154.50168298502024" xlink:href="#C0_0_743770128f" y="201.1356165859296"/>
    </g>
    <g clip-path="url(#pe689531e6c)">
     <use style="fill:#88a2cc;stroke:#88a2cc;stroke-width:0.3;" x="154.50168298502024" xlink:href="#C0_0_743770128f" y="149.36489485973908"/>
    </g>
    <g clip-path="url(#pe689531e6c)">
     <use style="fill:#eef2f8;stroke:#eef2f8;stroke-width:0.3;" x="154.50168298502024" xlink:href="#C0_0_743770128f" y="97.59417313354868"/>
    </g>
    <g clip-path="url(#pe689531e6c)">
     <use style="fill:#eef2f8;stroke:#eef2f8;stroke-width:0.3;" x="154.50168298502024" xlink:href="#C0_0_743770128f" y="45.823451407358164"/>
    </g>
    <g clip-path="url(#pe689531e6c)">
     <use style="fill:#ffffff;stroke:#ffffff;stroke-width:0.3;" x="190.85502032476384" xlink:href="#C0_0_743770128f" y="408.2185034906915"/>
    </g>
    <g clip-path="url(#pe689531e6c)">
     <use style="fill:#dde5f1;stroke:#dde5f1;stroke-width:0.3;" x="190.85502032476384" xlink:href="#C0_0_743770128f" y="356.447781764501"/>
    </g>
    <g clip-path="url(#pe689531e6c)">
     <use style="fill:#eef2f8;stroke:#eef2f8;stroke-width:0.3;" x="190.85502032476384" xlink:href="#C0_0_743770128f" y="304.6770600383106"/>
    </g>
    <g clip-path="url(#pe689531e6c)">
     <use style="fill:#2c4266;stroke:#2c4266;stroke-width:0.3;" x="190.85502032476384" xlink:href="#C0_0_743770128f" y="252.90633831212006"/>
    </g>
    <g clip-path="url(#pe689531e6c)">
     <use style="fill:#334d77;stroke:#334d77;stroke-width:0.3;" x="190.85502032476384" xlink:href="#C0_0_743770128f" y="201.1356165859296"/>
    </g>
    <g clip-path="url(#pe689531e6c)">
     <use style="fill:#abbddb;stroke:#abbddb;stroke-width:0.3;" x="190.85502032476384" xlink:href="#C0_0_743770128f" y="149.36489485973908"/>
    </g>
    <g clip-path="url(#pe689531e6c)">
     <use style="fill:#eef2f8;stroke:#eef2f8;stroke-width:0.3;" x="190.85502032476384" xlink:href="#C0_0_743770128f" y="97.59417313354868"/>
    </g>
    <g clip-path="url(#pe689531e6c)">
     <use style="fill:#ffffff;stroke:#ffffff;stroke-width:0.3;" x="190.85502032476384" xlink:href="#C0_0_743770128f" y="45.823451407358164"/>
    </g>
    <g clip-path="url(#pe689531e6c)">
     <use style="fill:#ffffff;stroke:#ffffff;stroke-width:0.3;" x="227.2083576645075" xlink:href="#C0_0_743770128f" y="408.2185034906915"/>
    </g>
    <g clip-path="url(#pe689531e6c)">
     <use style="fill:#ffffff;stroke:#ffffff;stroke-width:0.3;" x="227.2083576645075" xlink:href="#C0_0_743770128f" y="356.447781764501"/>
    </g>
    <g clip-path="url(#pe689531e6c)">
     <use style="stroke:#000000;stroke-width:0.3;" x="227.2083576645075" xlink:href="#C0_0_743770128f" y="304.6770600383106"/>
    </g>
    <g clip-path="url(#pe689531e6c)">
     <use style="fill:#1d2b43;stroke:#1d2b43;stroke-width:0.3;" x="227.2083576645075" xlink:href="#C0_0_743770128f" y="252.90633831212006"/>
    </g>
    <g clip-path="url(#pe689531e6c)">
     <use style="fill:#bccae2;stroke:#bccae2;stroke-width:0.3;" x="227.2083576645075" xlink:href="#C0_0_743770128f" y="201.1356165859296"/>
    </g>
    <g clip-path="url(#pe689531e6c)">
     <use style="fill:#bccae2;stroke:#bccae2;stroke-width:0.3;" x="227.2083576645075" xlink:href="#C0_0_743770128f" y="149.36489485973908"/>
    </g>
    <g clip-path="url(#pe689531e6c)">
     <use style="fill:#ffffff;stroke:#ffffff;stroke-width:0.3;" x="227.2083576645075" xlink:href="#C0_0_743770128f" y="97.59417313354868"/>
    </g>
    <g clip-path="url(#pe689531e6c)">
     <use style="fill:#ffffff;stroke:#ffffff;stroke-width:0.3;" x="227.2083576645075" xlink:href="#C0_0_743770128f" y="45.823451407358164"/>
    </g>
    <g clip-path="url(#pe689531e6c)">
     <use style="fill:#ffffff;stroke:#ffffff;stroke-width:0.3;" x="263.5616950042511" xlink:href="#C0_0_743770128f" y="408.2185034906915"/>
    </g>
    <g clip-path="url(#pe689531e6c)">
     <use style="fill:#eef2f8;stroke:#eef2f8;stroke-width:0.3;" x="263.5616950042511" xlink:href="#C0_0_743770128f" y="356.447781764501"/>
    </g>
    <g clip-path="url(#pe689531e6c)">
     <use style="fill:#334d77;stroke:#334d77;stroke-width:0.3;" x="263.5616950042511" xlink:href="#C0_0_743770128f" y="304.6770600383106"/>
    </g>
    <g clip-path="url(#pe689531e6c)">
     <use style="fill:#cdd8e9;stroke:#cdd8e9;stroke-width:0.3;" x="263.5616950042511" xlink:href="#C0_0_743770128f" y="252.90633831212006"/>
    </g>
    <g clip-path="url(#pe689531e6c)">
     <use style="fill:#ffffff;stroke:#ffffff;stroke-width:0.3;" x="263.5616950042511" xlink:href="#C0_0_743770128f" y="201.1356165859296"/>
    </g>
    <g clip-path="url(#pe689531e6c)">
     <use style="fill:#ffffff;stroke:#ffffff;stroke-width:0.3;" x="263.5616950042511" xlink:href="#C0_0_743770128f" y="149.36489485973908"/>
    </g>
    <g clip-path="url(#pe689531e6c)">
     <use style="fill:#ffffff;stroke:#ffffff;stroke-width:0.3;" x="263.5616950042511" xlink:href="#C0_0_743770128f" y="97.59417313354868"/>
    </g>
    <g clip-path="url(#pe689531e6c)">
     <use style="fill:#ffffff;stroke:#ffffff;stroke-width:0.3;" x="263.5616950042511" xlink:href="#C0_0_743770128f" y="45.823451407358164"/>
    </g>
    <g clip-path="url(#pe689531e6c)">
     <use style="fill:#ffffff;stroke:#ffffff;stroke-width:0.3;" x="299.9150323439947" xlink:href="#C0_0_743770128f" y="408.2185034906915"/>
    </g>
    <g clip-path="url(#pe689531e6c)">
     <use style="fill:#dde5f1;stroke:#dde5f1;stroke-width:0.3;" x="299.9150323439947" xlink:href="#C0_0_743770128f" y="356.447781764501"/>
    </g>
    <g clip-path="url(#pe689531e6c)">
     <use style="fill:#abbddb;stroke:#abbddb;stroke-width:0.3;" x="299.9150323439947" xlink:href="#C0_0_743770128f" y="304.6770600383106"/>
    </g>
    <g clip-path="url(#pe689531e6c)">
     <use style="fill:#abbddb;stroke:#abbddb;stroke-width:0.3;" x="299.9150323439947" xlink:href="#C0_0_743770128f" y="252.90633831212006"/>
    </g>
    <g clip-path="url(#pe689531e6c)">
     <use style="fill:#ffffff;stroke:#ffffff;stroke-width:0.3;" x="299.9150323439947" xlink:href="#C0_0_743770128f" y="201.1356165859296"/>
    </g>
    <g clip-path="url(#pe689531e6c)">
     <use style="fill:#ffffff;stroke:#ffffff;stroke-width:0.3;" x="299.9150323439947" xlink:href="#C0_0_743770128f" y="149.36489485973908"/>
    </g>
    <g clip-path="url(#pe689531e6c)">
     <use style="fill:#ffffff;stroke:#ffffff;stroke-width:0.3;" x="299.9150323439947" xlink:href="#C0_0_743770128f" y="97.59417313354868"/>
    </g>
    <g clip-path="url(#pe689531e6c)">
     <use style="fill:#ffffff;stroke:#ffffff;stroke-width:0.3;" x="299.9150323439947" xlink:href="#C0_0_743770128f" y="45.823451407358164"/>
    </g>
    <g clip-path="url(#pe689531e6c)">
     <use style="fill:#ffffff;stroke:#ffffff;stroke-width:0.3;" x="336.2683696837383" xlink:href="#C0_0_743770128f" y="408.2185034906915"/>
    </g>
    <g clip-path="url(#pe689531e6c)">
     <use style="fill:#abbddb;stroke:#abbddb;stroke-width:0.3;" x="336.2683696837383" xlink:href="#C0_0_743770128f" y="356.447781764501"/>
    </g>
    <g clip-path="url(#pe689531e6c)">
     <use style="fill:#eef2f8;stroke:#eef2f8;stroke-width:0.3;" x="336.2683696837383" xlink:href="#C0_0_743770128f" y="304.6770600383106"/>
    </g>
    <g clip-path="url(#pe689531e6c)">
     <use style="fill:#ffffff;stroke:#ffffff;stroke-width:0.3;" x="336.2683696837383" xlink:href="#C0_0_743770128f" y="252.90633831212006"/>
    </g>
    <g clip-path="url(#pe689531e6c)">
     <use style="fill:#ffffff;stroke:#ffffff;stroke-width:0.3;" x="336.2683696837383" xlink:href="#C0_0_743770128f" y="201.1356165859296"/>
    </g>
    <g clip-path="url(#pe689531e6c)">
     <use style="fill:#ffffff;stroke:#ffffff;stroke-width:0.3;" x="336.2683696837383" xlink:href="#C0_0_743770128f" y="149.36489485973908"/>
    </g>
    <g clip-path="url(#pe689531e6c)">
     <use style="fill:#ffffff;stroke:#ffffff;stroke-width:0.3;" x="336.2683696837383" xlink:href="#C0_0_743770128f" y="97.59417313354868"/>
    </g>
    <g clip-path="url(#pe689531e6c)">
     <use style="fill:#ffffff;stroke:#ffffff;stroke-width:0.3;" x="336.2683696837383" xlink:href="#C0_0_743770128f" y="45.823451407358164"/>
    </g>
    <g clip-path="url(#pe689531e6c)">
     <use style="fill:#ffffff;stroke:#ffffff;stroke-width:0.3;" x="372.62170702348186" xlink:href="#C0_0_743770128f" y="408.2185034906915"/>
    </g>
    <g clip-path="url(#pe689531e6c)">
     <use style="fill:#070b11;stroke:#070b11;stroke-width:0.3;" x="372.62170702348186" xlink:href="#C0_0_743770128f" y="356.447781764501"/>
    </g>
    <g clip-path="url(#pe689531e6c)">
     <use style="fill:#cdd8e9;stroke:#cdd8e9;stroke-width:0.3;" x="372.62170702348186" xlink:href="#C0_0_743770128f" y="304.6770600383106"/>
    </g>
    <g clip-path="url(#pe689531e6c)">
     <use style="fill:#ffffff;stroke:#ffffff;stroke-width:0.3;" x="372.62170702348186" xlink:href="#C0_0_743770128f" y="252.90633831212006"/>
    </g>
    <g clip-path="url(#pe689531e6c)">
     <use style="fill:#ffffff;stroke:#ffffff;stroke-width:0.3;" x="372.62170702348186" xlink:href="#C0_0_743770128f" y="201.1356165859296"/>
    </g>
    <g clip-path="url(#pe689531e6c)">
     <use style="fill:#ffffff;stroke:#ffffff;stroke-width:0.3;" x="372.62170702348186" xlink:href="#C0_0_743770128f" y="149.36489485973908"/>
    </g>
    <g clip-path="url(#pe689531e6c)">
     <use style="fill:#ffffff;stroke:#ffffff;stroke-width:0.3;" x="372.62170702348186" xlink:href="#C0_0_743770128f" y="97.59417313354868"/>
    </g>
    <g clip-path="url(#pe689531e6c)">
     <use style="fill:#ffffff;stroke:#ffffff;stroke-width:0.3;" x="372.62170702348186" xlink:href="#C0_0_743770128f" y="45.823451407358164"/>
    </g>
    <g clip-path="url(#pe689531e6c)">
     <use style="fill:#ffffff;stroke:#ffffff;stroke-width:0.3;" x="408.9750443632255" xlink:href="#C0_0_743770128f" y="408.2185034906915"/>
    </g>
    <g clip-path="url(#pe689531e6c)">
     <use style="fill:#99afd3;stroke:#99afd3;stroke-width:0.3;" x="408.9750443632255" xlink:href="#C0_0_743770128f" y="356.447781764501"/>
    </g>
    <g clip-path="url(#pe689531e6c)">
     <use style="fill:#ffffff;stroke:#ffffff;stroke-width:0.3;" x="408.9750443632255" xlink:href="#C0_0_743770128f" y="304.6770600383106"/>
    </g>
    <g clip-path="url(#pe689531e6c)">
     <use style="fill:#ffffff;stroke:#ffffff;stroke-width:0.3;" x="408.9750443632255" xlink:href="#C0_0_743770128f" y="252.90633831212006"/>
    </g>
    <g clip-path="url(#pe689531e6c)">
     <use style="fill:#ffffff;stroke:#ffffff;stroke-width:0.3;" x="408.9750443632255" xlink:href="#C0_0_743770128f" y="201.1356165859296"/>
    </g>
    <g clip-path="url(#pe689531e6c)">
     <use style="fill:#ffffff;stroke:#ffffff;stroke-width:0.3;" x="408.9750443632255" xlink:href="#C0_0_743770128f" y="149.36489485973908"/>
    </g>
    <g clip-path="url(#pe689531e6c)">
     <use style="fill:#ffffff;stroke:#ffffff;stroke-width:0.3;" x="408.9750443632255" xlink:href="#C0_0_743770128f" y="97.59417313354868"/>
    </g>
    <g clip-path="url(#pe689531e6c)">
     <use style="fill:#ffffff;stroke:#ffffff;stroke-width:0.3;" x="408.9750443632255" xlink:href="#C0_0_743770128f" y="45.823451407358164"/>
    </g>
    <g clip-path="url(#pe689531e6c)">
     <use style="fill:#ffffff;stroke:#ffffff;stroke-width:0.3;" x="445.32838170296907" xlink:href="#C0_0_743770128f" y="408.2185034906915"/>
    </g>
    <g clip-path="url(#pe689531e6c)">
     <use style="fill:#88a2cc;stroke:#88a2cc;stroke-width:0.3;" x="445.32838170296907" xlink:href="#C0_0_743770128f" y="356.447781764501"/>
    </g>
    <g clip-path="url(#pe689531e6c)">
     <use style="fill:#ffffff;stroke:#ffffff;stroke-width:0.3;" x="445.32838170296907" xlink:href="#C0_0_743770128f" y="304.6770600383106"/>
    </g>
    <g clip-path="url(#pe689531e6c)">
     <use style="fill:#ffffff;stroke:#ffffff;stroke-width:0.3;" x="445.32838170296907" xlink:href="#C0_0_743770128f" y="252.90633831212006"/>
    </g>
    <g clip-path="url(#pe689531e6c)">
     <use style="fill:#ffffff;stroke:#ffffff;stroke-width:0.3;" x="445.32838170296907" xlink:href="#C0_0_743770128f" y="201.1356165859296"/>
    </g>
    <g clip-path="url(#pe689531e6c)">
     <use style="fill:#ffffff;stroke:#ffffff;stroke-width:0.3;" x="445.32838170296907" xlink:href="#C0_0_743770128f" y="149.36489485973908"/>
    </g>
    <g clip-path="url(#pe689531e6c)">
     <use style="fill:#ffffff;stroke:#ffffff;stroke-width:0.3;" x="445.32838170296907" xlink:href="#C0_0_743770128f" y="97.59417313354868"/>
    </g>
    <g clip-path="url(#pe689531e6c)">
     <use style="fill:#ffffff;stroke:#ffffff;stroke-width:0.3;" x="445.32838170296907" xlink:href="#C0_0_743770128f" y="45.823451407358164"/>
    </g>
    <g clip-path="url(#pe689531e6c)">
     <use style="fill:#eef2f8;stroke:#eef2f8;stroke-width:0.3;" x="481.6817190427127" xlink:href="#C0_0_743770128f" y="408.2185034906915"/>
    </g>
    <g clip-path="url(#pe689531e6c)">
     <use style="fill:#cdd8e9;stroke:#cdd8e9;stroke-width:0.3;" x="481.6817190427127" xlink:href="#C0_0_743770128f" y="356.447781764501"/>
    </g>
    <g clip-path="url(#pe689531e6c)">
     <use style="fill:#ffffff;stroke:#ffffff;stroke-width:0.3;" x="481.6817190427127" xlink:href="#C0_0_743770128f" y="304.6770600383106"/>
    </g>
    <g clip-path="url(#pe689531e6c)">
     <use style="fill:#ffffff;stroke:#ffffff;stroke-width:0.3;" x="481.6817190427127" xlink:href="#C0_0_743770128f" y="252.90633831212006"/>
    </g>
    <g clip-path="url(#pe689531e6c)">
     <use style="fill:#ffffff;stroke:#ffffff;stroke-width:0.3;" x="481.6817190427127" xlink:href="#C0_0_743770128f" y="201.1356165859296"/>
    </g>
    <g clip-path="url(#pe689531e6c)">
     <use style="fill:#ffffff;stroke:#ffffff;stroke-width:0.3;" x="481.6817190427127" xlink:href="#C0_0_743770128f" y="149.36489485973908"/>
    </g>
    <g clip-path="url(#pe689531e6c)">
     <use style="fill:#ffffff;stroke:#ffffff;stroke-width:0.3;" x="481.6817190427127" xlink:href="#C0_0_743770128f" y="97.59417313354868"/>
    </g>
    <g clip-path="url(#pe689531e6c)">
     <use style="fill:#ffffff;stroke:#ffffff;stroke-width:0.3;" x="481.6817190427127" xlink:href="#C0_0_743770128f" y="45.823451407358164"/>
    </g>
    <g clip-path="url(#pe689531e6c)">
     <use style="fill:#eef2f8;stroke:#eef2f8;stroke-width:0.3;" x="518.0350563824563" xlink:href="#C0_0_743770128f" y="408.2185034906915"/>
    </g>
    <g clip-path="url(#pe689531e6c)">
     <use style="fill:#eef2f8;stroke:#eef2f8;stroke-width:0.3;" x="518.0350563824563" xlink:href="#C0_0_743770128f" y="356.447781764501"/>
    </g>
    <g clip-path="url(#pe689531e6c)">
     <use style="fill:#ffffff;stroke:#ffffff;stroke-width:0.3;" x="518.0350563824563" xlink:href="#C0_0_743770128f" y="304.6770600383106"/>
    </g>
    <g clip-path="url(#pe689531e6c)">
     <use style="fill:#ffffff;stroke:#ffffff;stroke-width:0.3;" x="518.0350563824563" xlink:href="#C0_0_743770128f" y="252.90633831212006"/>
    </g>
    <g clip-path="url(#pe689531e6c)">
     <use style="fill:#ffffff;stroke:#ffffff;stroke-width:0.3;" x="518.0350563824563" xlink:href="#C0_0_743770128f" y="201.1356165859296"/>
    </g>
    <g clip-path="url(#pe689531e6c)">
     <use style="fill:#ffffff;stroke:#ffffff;stroke-width:0.3;" x="518.0350563824563" xlink:href="#C0_0_743770128f" y="149.36489485973908"/>
    </g>
    <g clip-path="url(#pe689531e6c)">
     <use style="fill:#ffffff;stroke:#ffffff;stroke-width:0.3;" x="518.0350563824563" xlink:href="#C0_0_743770128f" y="97.59417313354868"/>
    </g>
    <g clip-path="url(#pe689531e6c)">
     <use style="fill:#ffffff;stroke:#ffffff;stroke-width:0.3;" x="518.0350563824563" xlink:href="#C0_0_743770128f" y="45.823451407358164"/>
    </g>
    <g clip-path="url(#pe689531e6c)">
     <use style="fill:#eef2f8;stroke:#eef2f8;stroke-width:0.3;" x="554.3883937221999" xlink:href="#C0_0_743770128f" y="408.2185034906915"/>
    </g>
    <g clip-path="url(#pe689531e6c)">
     <use style="fill:#cdd8e9;stroke:#cdd8e9;stroke-width:0.3;" x="554.3883937221999" xlink:href="#C0_0_743770128f" y="356.447781764501"/>
    </g>
    <g clip-path="url(#pe689531e6c)">
     <use style="fill:#ffffff;stroke:#ffffff;stroke-width:0.3;" x="554.3883937221999" xlink:href="#C0_0_743770128f" y="304.6770600383106"/>
    </g>
    <g clip-path="url(#pe689531e6c)">
     <use style="fill:#ffffff;stroke:#ffffff;stroke-width:0.3;" x="554.3883937221999" xlink:href="#C0_0_743770128f" y="252.90633831212006"/>
    </g>
    <g clip-path="url(#pe689531e6c)">
     <use style="fill:#ffffff;stroke:#ffffff;stroke-width:0.3;" x="554.3883937221999" xlink:href="#C0_0_743770128f" y="201.1356165859296"/>
    </g>
    <g clip-path="url(#pe689531e6c)">
     <use style="fill:#ffffff;stroke:#ffffff;stroke-width:0.3;" x="554.3883937221999" xlink:href="#C0_0_743770128f" y="149.36489485973908"/>
    </g>
    <g clip-path="url(#pe689531e6c)">
     <use style="fill:#ffffff;stroke:#ffffff;stroke-width:0.3;" x="554.3883937221999" xlink:href="#C0_0_743770128f" y="97.59417313354868"/>
    </g>
    <g clip-path="url(#pe689531e6c)">
     <use style="fill:#ffffff;stroke:#ffffff;stroke-width:0.3;" x="554.3883937221999" xlink:href="#C0_0_743770128f" y="45.823451407358164"/>
    </g>
    <g clip-path="url(#pe689531e6c)">
     <use style="fill:#ffffff;stroke:#ffffff;stroke-width:0.3;" x="590.7417310619436" xlink:href="#C0_0_743770128f" y="408.2185034906915"/>
    </g>
    <g clip-path="url(#pe689531e6c)">
     <use style="fill:#cdd8e9;stroke:#cdd8e9;stroke-width:0.3;" x="590.7417310619436" xlink:href="#C0_0_743770128f" y="356.447781764501"/>
    </g>
    <g clip-path="url(#pe689531e6c)">
     <use style="fill:#ffffff;stroke:#ffffff;stroke-width:0.3;" x="590.7417310619436" xlink:href="#C0_0_743770128f" y="304.6770600383106"/>
    </g>
    <g clip-path="url(#pe689531e6c)">
     <use style="fill:#ffffff;stroke:#ffffff;stroke-width:0.3;" x="590.7417310619436" xlink:href="#C0_0_743770128f" y="252.90633831212006"/>
    </g>
    <g clip-path="url(#pe689531e6c)">
     <use style="fill:#ffffff;stroke:#ffffff;stroke-width:0.3;" x="590.7417310619436" xlink:href="#C0_0_743770128f" y="201.1356165859296"/>
    </g>
    <g clip-path="url(#pe689531e6c)">
     <use style="fill:#ffffff;stroke:#ffffff;stroke-width:0.3;" x="590.7417310619436" xlink:href="#C0_0_743770128f" y="149.36489485973908"/>
    </g>
    <g clip-path="url(#pe689531e6c)">
     <use style="fill:#ffffff;stroke:#ffffff;stroke-width:0.3;" x="590.7417310619436" xlink:href="#C0_0_743770128f" y="97.59417313354868"/>
    </g>
    <g clip-path="url(#pe689531e6c)">
     <use style="fill:#ffffff;stroke:#ffffff;stroke-width:0.3;" x="590.7417310619436" xlink:href="#C0_0_743770128f" y="45.823451407358164"/>
    </g>
    <g clip-path="url(#pe689531e6c)">
     <use style="fill:#ffffff;stroke:#ffffff;stroke-width:0.3;" x="136.32501431514845" xlink:href="#C0_0_743770128f" y="382.3331426275962"/>
    </g>
    <g clip-path="url(#pe689531e6c)">
     <use style="fill:#ffffff;stroke:#ffffff;stroke-width:0.3;" x="136.32501431514845" xlink:href="#C0_0_743770128f" y="330.56242090140574"/>
    </g>
    <g clip-path="url(#pe689531e6c)">
     <use style="fill:#eef2f8;stroke:#eef2f8;stroke-width:0.3;" x="136.32501431514845" xlink:href="#C0_0_743770128f" y="278.7916991752153"/>
    </g>
    <g clip-path="url(#pe689531e6c)">
     <use style="fill:#cdd8e9;stroke:#cdd8e9;stroke-width:0.3;" x="136.32501431514845" xlink:href="#C0_0_743770128f" y="227.02097744902483"/>
    </g>
    <g clip-path="url(#pe689531e6c)">
     <use style="fill:#cdd8e9;stroke:#cdd8e9;stroke-width:0.3;" x="136.32501431514845" xlink:href="#C0_0_743770128f" y="175.2502557228343"/>
    </g>
    <g clip-path="url(#pe689531e6c)">
     <use style="fill:#dde5f1;stroke:#dde5f1;stroke-width:0.3;" x="136.32501431514845" xlink:href="#C0_0_743770128f" y="123.47953399664385"/>
    </g>
    <g clip-path="url(#pe689531e6c)">
     <use style="fill:#bccae2;stroke:#bccae2;stroke-width:0.3;" x="136.32501431514845" xlink:href="#C0_0_743770128f" y="71.7088122704534"/>
    </g>
    <g clip-path="url(#pe689531e6c)">
     <use style="fill:#ffffff;stroke:#ffffff;stroke-width:0.3;" x="172.67835165489205" xlink:href="#C0_0_743770128f" y="382.3331426275962"/>
    </g>
    <g clip-path="url(#pe689531e6c)">
     <use style="fill:#ffffff;stroke:#ffffff;stroke-width:0.3;" x="172.67835165489205" xlink:href="#C0_0_743770128f" y="330.56242090140574"/>
    </g>
    <g clip-path="url(#pe689531e6c)">
     <use style="fill:#eef2f8;stroke:#eef2f8;stroke-width:0.3;" x="172.67835165489205" xlink:href="#C0_0_743770128f" y="278.7916991752153"/>
    </g>
    <g clip-path="url(#pe689531e6c)">
     <use style="fill:#cdd8e9;stroke:#cdd8e9;stroke-width:0.3;" x="172.67835165489205" xlink:href="#C0_0_743770128f" y="227.02097744902483"/>
    </g>
    <g clip-path="url(#pe689531e6c)">
     <use style="fill:#162132;stroke:#162132;stroke-width:0.3;" x="172.67835165489205" xlink:href="#C0_0_743770128f" y="175.2502557228343"/>
    </g>
    <g clip-path="url(#pe689531e6c)">
     <use style="fill:#6788bd;stroke:#6788bd;stroke-width:0.3;" x="172.67835165489205" xlink:href="#C0_0_743770128f" y="123.47953399664385"/>
    </g>
    <g clip-path="url(#pe689531e6c)">
     <use style="fill:#eef2f8;stroke:#eef2f8;stroke-width:0.3;" x="172.67835165489205" xlink:href="#C0_0_743770128f" y="71.7088122704534"/>
    </g>
    <g clip-path="url(#pe689531e6c)">
     <use style="fill:#ffffff;stroke:#ffffff;stroke-width:0.3;" x="209.03168899463566" xlink:href="#C0_0_743770128f" y="382.3331426275962"/>
    </g>
    <g clip-path="url(#pe689531e6c)">
     <use style="fill:#bccae2;stroke:#bccae2;stroke-width:0.3;" x="209.03168899463566" xlink:href="#C0_0_743770128f" y="330.56242090140574"/>
    </g>
    <g clip-path="url(#pe689531e6c)">
     <use style="fill:#7895c4;stroke:#7895c4;stroke-width:0.3;" x="209.03168899463566" xlink:href="#C0_0_743770128f" y="278.7916991752153"/>
    </g>
    <g clip-path="url(#pe689531e6c)">
     <use style="fill:#0e1622;stroke:#0e1622;stroke-width:0.3;" x="209.03168899463566" xlink:href="#C0_0_743770128f" y="227.02097744902483"/>
    </g>
    <g clip-path="url(#pe689531e6c)">
     <use style="fill:#88a2cc;stroke:#88a2cc;stroke-width:0.3;" x="209.03168899463566" xlink:href="#C0_0_743770128f" y="175.2502557228343"/>
    </g>
    <g clip-path="url(#pe689531e6c)">
     <use style="fill:#eef2f8;stroke:#eef2f8;stroke-width:0.3;" x="209.03168899463566" xlink:href="#C0_0_743770128f" y="123.47953399664385"/>
    </g>
    <g clip-path="url(#pe689531e6c)">
     <use style="fill:#ffffff;stroke:#ffffff;stroke-width:0.3;" x="209.03168899463566" xlink:href="#C0_0_743770128f" y="71.7088122704534"/>
    </g>
    <g clip-path="url(#pe689531e6c)">
     <use style="fill:#ffffff;stroke:#ffffff;stroke-width:0.3;" x="245.3850263343793" xlink:href="#C0_0_743770128f" y="382.3331426275962"/>
    </g>
    <g clip-path="url(#pe689531e6c)">
     <use style="fill:#426398;stroke:#426398;stroke-width:0.3;" x="245.3850263343793" xlink:href="#C0_0_743770128f" y="330.56242090140574"/>
    </g>
    <g clip-path="url(#pe689531e6c)">
     <use style="fill:#243654;stroke:#243654;stroke-width:0.3;" x="245.3850263343793" xlink:href="#C0_0_743770128f" y="278.7916991752153"/>
    </g>
    <g clip-path="url(#pe689531e6c)">
     <use style="fill:#6788bd;stroke:#6788bd;stroke-width:0.3;" x="245.3850263343793" xlink:href="#C0_0_743770128f" y="227.02097744902483"/>
    </g>
    <g clip-path="url(#pe689531e6c)">
     <use style="fill:#cdd8e9;stroke:#cdd8e9;stroke-width:0.3;" x="245.3850263343793" xlink:href="#C0_0_743770128f" y="175.2502557228343"/>
    </g>
    <g clip-path="url(#pe689531e6c)">
     <use style="fill:#ffffff;stroke:#ffffff;stroke-width:0.3;" x="245.3850263343793" xlink:href="#C0_0_743770128f" y="123.47953399664385"/>
    </g>
    <g clip-path="url(#pe689531e6c)">
     <use style="fill:#ffffff;stroke:#ffffff;stroke-width:0.3;" x="245.3850263343793" xlink:href="#C0_0_743770128f" y="71.7088122704534"/>
    </g>
    <g clip-path="url(#pe689531e6c)">
     <use style="fill:#ffffff;stroke:#ffffff;stroke-width:0.3;" x="281.73836367412287" xlink:href="#C0_0_743770128f" y="382.3331426275962"/>
    </g>
    <g clip-path="url(#pe689531e6c)">
     <use style="fill:#3b5887;stroke:#3b5887;stroke-width:0.3;" x="281.73836367412287" xlink:href="#C0_0_743770128f" y="330.56242090140574"/>
    </g>
    <g clip-path="url(#pe689531e6c)">
     <use style="fill:#426398;stroke:#426398;stroke-width:0.3;" x="281.73836367412287" xlink:href="#C0_0_743770128f" y="278.7916991752153"/>
    </g>
    <g clip-path="url(#pe689531e6c)">
     <use style="fill:#cdd8e9;stroke:#cdd8e9;stroke-width:0.3;" x="281.73836367412287" xlink:href="#C0_0_743770128f" y="227.02097744902483"/>
    </g>
    <g clip-path="url(#pe689531e6c)">
     <use style="fill:#ffffff;stroke:#ffffff;stroke-width:0.3;" x="281.73836367412287" xlink:href="#C0_0_743770128f" y="175.2502557228343"/>
    </g>
    <g clip-path="url(#pe689531e6c)">
     <use style="fill:#ffffff;stroke:#ffffff;stroke-width:0.3;" x="281.73836367412287" xlink:href="#C0_0_743770128f" y="123.47953399664385"/>
    </g>
    <g clip-path="url(#pe689531e6c)">
     <use style="fill:#ffffff;stroke:#ffffff;stroke-width:0.3;" x="281.73836367412287" xlink:href="#C0_0_743770128f" y="71.7088122704534"/>
    </g>
    <g clip-path="url(#pe689531e6c)">
     <use style="fill:#ffffff;stroke:#ffffff;stroke-width:0.3;" x="318.0917010138665" xlink:href="#C0_0_743770128f" y="382.3331426275962"/>
    </g>
    <g clip-path="url(#pe689531e6c)">
     <use style="fill:#99afd3;stroke:#99afd3;stroke-width:0.3;" x="318.0917010138665" xlink:href="#C0_0_743770128f" y="330.56242090140574"/>
    </g>
    <g clip-path="url(#pe689531e6c)">
     <use style="fill:#eef2f8;stroke:#eef2f8;stroke-width:0.3;" x="318.0917010138665" xlink:href="#C0_0_743770128f" y="278.7916991752153"/>
    </g>
    <g clip-path="url(#pe689531e6c)">
     <use style="fill:#ffffff;stroke:#ffffff;stroke-width:0.3;" x="318.0917010138665" xlink:href="#C0_0_743770128f" y="227.02097744902483"/>
    </g>
    <g clip-path="url(#pe689531e6c)">
     <use style="fill:#ffffff;stroke:#ffffff;stroke-width:0.3;" x="318.0917010138665" xlink:href="#C0_0_743770128f" y="175.2502557228343"/>
    </g>
    <g clip-path="url(#pe689531e6c)">
     <use style="fill:#ffffff;stroke:#ffffff;stroke-width:0.3;" x="318.0917010138665" xlink:href="#C0_0_743770128f" y="123.47953399664385"/>
    </g>
    <g clip-path="url(#pe689531e6c)">
     <use style="fill:#ffffff;stroke:#ffffff;stroke-width:0.3;" x="318.0917010138665" xlink:href="#C0_0_743770128f" y="71.7088122704534"/>
    </g>
    <g clip-path="url(#pe689531e6c)">
     <use style="fill:#eef2f8;stroke:#eef2f8;stroke-width:0.3;" x="354.44503835361013" xlink:href="#C0_0_743770128f" y="382.3331426275962"/>
    </g>
    <g clip-path="url(#pe689531e6c)">
     <use style="fill:#6788bd;stroke:#6788bd;stroke-width:0.3;" x="354.44503835361013" xlink:href="#C0_0_743770128f" y="330.56242090140574"/>
    </g>
    <g clip-path="url(#pe689531e6c)">
     <use style="fill:#ffffff;stroke:#ffffff;stroke-width:0.3;" x="354.44503835361013" xlink:href="#C0_0_743770128f" y="278.7916991752153"/>
    </g>
    <g clip-path="url(#pe689531e6c)">
     <use style="fill:#ffffff;stroke:#ffffff;stroke-width:0.3;" x="354.44503835361013" xlink:href="#C0_0_743770128f" y="227.02097744902483"/>
    </g>
    <g clip-path="url(#pe689531e6c)">
     <use style="fill:#eef2f8;stroke:#eef2f8;stroke-width:0.3;" x="354.44503835361013" xlink:href="#C0_0_743770128f" y="175.2502557228343"/>
    </g>
    <g clip-path="url(#pe689531e6c)">
     <use style="fill:#ffffff;stroke:#ffffff;stroke-width:0.3;" x="354.44503835361013" xlink:href="#C0_0_743770128f" y="123.47953399664385"/>
    </g>
    <g clip-path="url(#pe689531e6c)">
     <use style="fill:#ffffff;stroke:#ffffff;stroke-width:0.3;" x="354.44503835361013" xlink:href="#C0_0_743770128f" y="71.7088122704534"/>
    </g>
    <g clip-path="url(#pe689531e6c)">
     <use style="fill:#99afd3;stroke:#99afd3;stroke-width:0.3;" x="390.79837569335365" xlink:href="#C0_0_743770128f" y="382.3331426275962"/>
    </g>
    <g clip-path="url(#pe689531e6c)">
     <use style="fill:#7895c4;stroke:#7895c4;stroke-width:0.3;" x="390.79837569335365" xlink:href="#C0_0_743770128f" y="330.56242090140574"/>
    </g>
    <g clip-path="url(#pe689531e6c)">
     <use style="fill:#ffffff;stroke:#ffffff;stroke-width:0.3;" x="390.79837569335365" xlink:href="#C0_0_743770128f" y="278.7916991752153"/>
    </g>
    <g clip-path="url(#pe689531e6c)">
     <use style="fill:#ffffff;stroke:#ffffff;stroke-width:0.3;" x="390.79837569335365" xlink:href="#C0_0_743770128f" y="227.02097744902483"/>
    </g>
    <g clip-path="url(#pe689531e6c)">
     <use style="fill:#ffffff;stroke:#ffffff;stroke-width:0.3;" x="390.79837569335365" xlink:href="#C0_0_743770128f" y="175.2502557228343"/>
    </g>
    <g clip-path="url(#pe689531e6c)">
     <use style="fill:#ffffff;stroke:#ffffff;stroke-width:0.3;" x="390.79837569335365" xlink:href="#C0_0_743770128f" y="123.47953399664385"/>
    </g>
    <g clip-path="url(#pe689531e6c)">
     <use style="fill:#ffffff;stroke:#ffffff;stroke-width:0.3;" x="390.79837569335365" xlink:href="#C0_0_743770128f" y="71.7088122704534"/>
    </g>
    <g clip-path="url(#pe689531e6c)">
     <use style="fill:#abbddb;stroke:#abbddb;stroke-width:0.3;" x="427.15171303309734" xlink:href="#C0_0_743770128f" y="382.3331426275962"/>
    </g>
    <g clip-path="url(#pe689531e6c)">
     <use style="fill:#dde5f1;stroke:#dde5f1;stroke-width:0.3;" x="427.15171303309734" xlink:href="#C0_0_743770128f" y="330.56242090140574"/>
    </g>
    <g clip-path="url(#pe689531e6c)">
     <use style="fill:#ffffff;stroke:#ffffff;stroke-width:0.3;" x="427.15171303309734" xlink:href="#C0_0_743770128f" y="278.7916991752153"/>
    </g>
    <g clip-path="url(#pe689531e6c)">
     <use style="fill:#ffffff;stroke:#ffffff;stroke-width:0.3;" x="427.15171303309734" xlink:href="#C0_0_743770128f" y="227.02097744902483"/>
    </g>
    <g clip-path="url(#pe689531e6c)">
     <use style="fill:#ffffff;stroke:#ffffff;stroke-width:0.3;" x="427.15171303309734" xlink:href="#C0_0_743770128f" y="175.2502557228343"/>
    </g>
    <g clip-path="url(#pe689531e6c)">
     <use style="fill:#ffffff;stroke:#ffffff;stroke-width:0.3;" x="427.15171303309734" xlink:href="#C0_0_743770128f" y="123.47953399664385"/>
    </g>
    <g clip-path="url(#pe689531e6c)">
     <use style="fill:#ffffff;stroke:#ffffff;stroke-width:0.3;" x="427.15171303309734" xlink:href="#C0_0_743770128f" y="71.7088122704534"/>
    </g>
    <g clip-path="url(#pe689531e6c)">
     <use style="fill:#cdd8e9;stroke:#cdd8e9;stroke-width:0.3;" x="463.50505037284086" xlink:href="#C0_0_743770128f" y="382.3331426275962"/>
    </g>
    <g clip-path="url(#pe689531e6c)">
     <use style="fill:#dde5f1;stroke:#dde5f1;stroke-width:0.3;" x="463.50505037284086" xlink:href="#C0_0_743770128f" y="330.56242090140574"/>
    </g>
    <g clip-path="url(#pe689531e6c)">
     <use style="fill:#ffffff;stroke:#ffffff;stroke-width:0.3;" x="463.50505037284086" xlink:href="#C0_0_743770128f" y="278.7916991752153"/>
    </g>
    <g clip-path="url(#pe689531e6c)">
     <use style="fill:#ffffff;stroke:#ffffff;stroke-width:0.3;" x="463.50505037284086" xlink:href="#C0_0_743770128f" y="227.02097744902483"/>
    </g>
    <g clip-path="url(#pe689531e6c)">
     <use style="fill:#ffffff;stroke:#ffffff;stroke-width:0.3;" x="463.50505037284086" xlink:href="#C0_0_743770128f" y="175.2502557228343"/>
    </g>
    <g clip-path="url(#pe689531e6c)">
     <use style="fill:#ffffff;stroke:#ffffff;stroke-width:0.3;" x="463.50505037284086" xlink:href="#C0_0_743770128f" y="123.47953399664385"/>
    </g>
    <g clip-path="url(#pe689531e6c)">
     <use style="fill:#ffffff;stroke:#ffffff;stroke-width:0.3;" x="463.50505037284086" xlink:href="#C0_0_743770128f" y="71.7088122704534"/>
    </g>
    <g clip-path="url(#pe689531e6c)">
     <use style="fill:#eef2f8;stroke:#eef2f8;stroke-width:0.3;" x="499.8583877125845" xlink:href="#C0_0_743770128f" y="382.3331426275962"/>
    </g>
    <g clip-path="url(#pe689531e6c)">
     <use style="fill:#ffffff;stroke:#ffffff;stroke-width:0.3;" x="499.8583877125845" xlink:href="#C0_0_743770128f" y="330.56242090140574"/>
    </g>
    <g clip-path="url(#pe689531e6c)">
     <use style="fill:#ffffff;stroke:#ffffff;stroke-width:0.3;" x="499.8583877125845" xlink:href="#C0_0_743770128f" y="278.7916991752153"/>
    </g>
    <g clip-path="url(#pe689531e6c)">
     <use style="fill:#ffffff;stroke:#ffffff;stroke-width:0.3;" x="499.8583877125845" xlink:href="#C0_0_743770128f" y="227.02097744902483"/>
    </g>
    <g clip-path="url(#pe689531e6c)">
     <use style="fill:#ffffff;stroke:#ffffff;stroke-width:0.3;" x="499.8583877125845" xlink:href="#C0_0_743770128f" y="175.2502557228343"/>
    </g>
    <g clip-path="url(#pe689531e6c)">
     <use style="fill:#ffffff;stroke:#ffffff;stroke-width:0.3;" x="499.8583877125845" xlink:href="#C0_0_743770128f" y="123.47953399664385"/>
    </g>
    <g clip-path="url(#pe689531e6c)">
     <use style="fill:#ffffff;stroke:#ffffff;stroke-width:0.3;" x="499.8583877125845" xlink:href="#C0_0_743770128f" y="71.7088122704534"/>
    </g>
    <g clip-path="url(#pe689531e6c)">
     <use style="fill:#dde5f1;stroke:#dde5f1;stroke-width:0.3;" x="536.211725052328" xlink:href="#C0_0_743770128f" y="382.3331426275962"/>
    </g>
    <g clip-path="url(#pe689531e6c)">
     <use style="fill:#ffffff;stroke:#ffffff;stroke-width:0.3;" x="536.211725052328" xlink:href="#C0_0_743770128f" y="330.56242090140574"/>
    </g>
    <g clip-path="url(#pe689531e6c)">
     <use style="fill:#ffffff;stroke:#ffffff;stroke-width:0.3;" x="536.211725052328" xlink:href="#C0_0_743770128f" y="278.7916991752153"/>
    </g>
    <g clip-path="url(#pe689531e6c)">
     <use style="fill:#ffffff;stroke:#ffffff;stroke-width:0.3;" x="536.211725052328" xlink:href="#C0_0_743770128f" y="227.02097744902483"/>
    </g>
    <g clip-path="url(#pe689531e6c)">
     <use style="fill:#ffffff;stroke:#ffffff;stroke-width:0.3;" x="536.211725052328" xlink:href="#C0_0_743770128f" y="175.2502557228343"/>
    </g>
    <g clip-path="url(#pe689531e6c)">
     <use style="fill:#ffffff;stroke:#ffffff;stroke-width:0.3;" x="536.211725052328" xlink:href="#C0_0_743770128f" y="123.47953399664385"/>
    </g>
    <g clip-path="url(#pe689531e6c)">
     <use style="fill:#ffffff;stroke:#ffffff;stroke-width:0.3;" x="536.211725052328" xlink:href="#C0_0_743770128f" y="71.7088122704534"/>
    </g>
    <g clip-path="url(#pe689531e6c)">
     <use style="fill:#eef2f8;stroke:#eef2f8;stroke-width:0.3;" x="572.5650623920717" xlink:href="#C0_0_743770128f" y="382.3331426275962"/>
    </g>
    <g clip-path="url(#pe689531e6c)">
     <use style="fill:#ffffff;stroke:#ffffff;stroke-width:0.3;" x="572.5650623920717" xlink:href="#C0_0_743770128f" y="330.56242090140574"/>
    </g>
    <g clip-path="url(#pe689531e6c)">
     <use style="fill:#ffffff;stroke:#ffffff;stroke-width:0.3;" x="572.5650623920717" xlink:href="#C0_0_743770128f" y="278.7916991752153"/>
    </g>
    <g clip-path="url(#pe689531e6c)">
     <use style="fill:#ffffff;stroke:#ffffff;stroke-width:0.3;" x="572.5650623920717" xlink:href="#C0_0_743770128f" y="227.02097744902483"/>
    </g>
    <g clip-path="url(#pe689531e6c)">
     <use style="fill:#ffffff;stroke:#ffffff;stroke-width:0.3;" x="572.5650623920717" xlink:href="#C0_0_743770128f" y="175.2502557228343"/>
    </g>
    <g clip-path="url(#pe689531e6c)">
     <use style="fill:#ffffff;stroke:#ffffff;stroke-width:0.3;" x="572.5650623920717" xlink:href="#C0_0_743770128f" y="123.47953399664385"/>
    </g>
    <g clip-path="url(#pe689531e6c)">
     <use style="fill:#ffffff;stroke:#ffffff;stroke-width:0.3;" x="572.5650623920717" xlink:href="#C0_0_743770128f" y="71.7088122704534"/>
    </g>
   </g>
   <g id="patch_3">
    <path d="M 46.335938 450.426063 
L 46.335938 88.03101 
" style="fill:none;"/>
   </g>
   <g id="patch_4">
    <path d="M 46.335938 450.426063 
L 518.929323 450.426063 
" style="fill:none;"/>
   </g>
   <g id="legend_1">
    <g id="line2d_25"/>
    <g id="line2d_26"/>
    <g id="text_15">
     <!-- pearsonr = -0.78; p = 7e-81 -->
     <defs>
      <path id="LiberationSans-20"/>
      <path d="M 51.265625 19.1875 
Q 51.265625 14.796875 49.875 11.109375 
Q 48.484375 7.421875 45.625 4.734375 
Q 42.78125 2.046875 38.328125 0.53125 
Q 33.890625 -0.984375 27.828125 -0.984375 
Q 21.78125 -0.984375 17.359375 0.53125 
Q 12.9375 2.046875 10.03125 4.703125 
Q 7.125 7.375 5.734375 11.0625 
Q 4.34375 14.75 4.34375 19.09375 
Q 4.34375 22.859375 5.484375 25.78125 
Q 6.640625 28.71875 8.5625 30.828125 
Q 10.5 32.953125 12.96875 34.25 
Q 15.4375 35.546875 18.0625 35.984375 
L 18.0625 36.1875 
Q 15.1875 36.859375 12.90625 38.375 
Q 10.640625 39.890625 9.09375 42.015625 
Q 7.5625 44.140625 6.75 46.71875 
Q 5.953125 49.3125 5.953125 52.203125 
Q 5.953125 55.8125 7.34375 59 
Q 8.734375 62.203125 11.46875 64.625 
Q 14.203125 67.046875 18.25 68.4375 
Q 22.3125 69.828125 27.640625 69.828125 
Q 33.25 69.828125 37.375 68.40625 
Q 41.5 67 44.203125 64.578125 
Q 46.921875 62.15625 48.234375 58.9375 
Q 49.5625 55.71875 49.5625 52.09375 
Q 49.5625 49.265625 48.75 46.671875 
Q 47.953125 44.09375 46.40625 41.96875 
Q 44.875 39.84375 42.59375 38.34375 
Q 40.328125 36.859375 37.359375 36.28125 
L 37.359375 36.078125 
Q 40.328125 35.59375 42.859375 34.296875 
Q 45.40625 33.015625 47.265625 30.890625 
Q 49.125 28.765625 50.1875 25.828125 
Q 51.265625 22.90625 51.265625 19.1875 
M 40.4375 51.609375 
Q 40.4375 54.203125 39.765625 56.34375 
Q 39.109375 58.5 37.59375 60.03125 
Q 36.078125 61.578125 33.640625 62.421875 
Q 31.203125 63.28125 27.640625 63.28125 
Q 24.171875 63.28125 21.78125 62.421875 
Q 19.390625 61.578125 17.84375 60.03125 
Q 16.3125 58.5 15.625 56.34375 
Q 14.9375 54.203125 14.9375 51.609375 
Q 14.9375 49.5625 15.46875 47.40625 
Q 16.015625 45.265625 17.421875 43.5 
Q 18.84375 41.75 21.328125 40.625 
Q 23.828125 39.5 27.734375 39.5 
Q 31.890625 39.5 34.40625 40.625 
Q 36.921875 41.75 38.25 43.5 
Q 39.59375 45.265625 40.015625 47.40625 
Q 40.4375 49.5625 40.4375 51.609375 
M 42.140625 20.015625 
Q 42.140625 22.515625 41.453125 24.828125 
Q 40.765625 27.15625 39.109375 28.9375 
Q 37.453125 30.71875 34.640625 31.8125 
Q 31.84375 32.90625 27.640625 32.90625 
Q 23.78125 32.90625 21.0625 31.8125 
Q 18.359375 30.71875 16.671875 28.90625 
Q 14.984375 27.09375 14.203125 24.71875 
Q 13.421875 22.359375 13.421875 19.828125 
Q 13.421875 16.65625 14.203125 14.03125 
Q 14.984375 11.421875 16.6875 9.546875 
Q 18.40625 7.671875 21.1875 6.640625 
Q 23.96875 5.609375 27.9375 5.609375 
Q 31.9375 5.609375 34.671875 6.640625 
Q 37.40625 7.671875 39.0625 9.546875 
Q 40.71875 11.421875 41.421875 14.078125 
Q 42.140625 16.75 42.140625 20.015625 
" id="LiberationSans-38"/>
      <path d="M 4.4375 22.65625 
L 4.4375 30.46875 
L 28.859375 30.46875 
L 28.859375 22.65625 
z
" id="LiberationSans-2d"/>
      <path d="M 18.796875 10.109375 
L 18.796875 2.484375 
Q 18.796875 -0.09375 18.578125 -2.21875 
Q 18.359375 -4.34375 17.875 -6.171875 
Q 17.390625 -8.015625 16.671875 -9.625 
Q 15.96875 -11.234375 14.984375 -12.796875 
L 8.984375 -12.796875 
Q 11.1875 -9.625 12.375 -6.390625 
Q 13.578125 -3.171875 13.578125 0 
L 9.28125 0 
L 9.28125 10.109375 
z
M 9.28125 42.71875 
L 9.28125 52.828125 
L 18.796875 52.828125 
L 18.796875 42.71875 
z
" id="LiberationSans-3b"/>
      <path d="M 6.9375 0 
L 6.9375 40.53125 
Q 6.9375 42.1875 6.90625 43.921875 
Q 6.890625 45.65625 6.828125 47.265625 
Q 6.78125 48.875 6.734375 50.28125 
Q 6.6875 51.703125 6.640625 52.828125 
L 14.9375 52.828125 
Q 14.984375 51.703125 15.0625 50.265625 
Q 15.140625 48.828125 15.203125 47.3125 
Q 15.28125 45.796875 15.296875 44.40625 
Q 15.328125 43.015625 15.328125 42.046875 
L 15.53125 42.046875 
Q 16.453125 45.0625 17.5 47.28125 
Q 18.5625 49.515625 19.96875 50.953125 
Q 21.390625 52.390625 23.34375 53.09375 
Q 25.296875 53.8125 28.078125 53.8125 
Q 29.15625 53.8125 30.125 53.640625 
Q 31.109375 53.46875 31.640625 53.328125 
L 31.640625 45.265625 
Q 30.765625 45.515625 29.59375 45.625 
Q 28.421875 45.75 26.953125 45.75 
Q 23.921875 45.75 21.796875 44.375 
Q 19.671875 43.015625 18.328125 40.59375 
Q 17 38.1875 16.359375 34.84375 
Q 15.71875 31.5 15.71875 27.546875 
L 15.71875 0 
z
" id="LiberationSans-72"/>
      <path d="M 20.21875 -0.984375 
Q 12.25 -0.984375 8.25 3.21875 
Q 4.25 7.421875 4.25 14.75 
Q 4.25 19.96875 6.21875 23.3125 
Q 8.203125 26.65625 11.390625 28.5625 
Q 14.59375 30.46875 18.6875 31.203125 
Q 22.796875 31.9375 27.046875 32.03125 
L 38.921875 32.234375 
L 38.921875 35.109375 
Q 38.921875 38.375 38.234375 40.671875 
Q 37.546875 42.96875 36.125 44.375 
Q 34.71875 45.796875 32.59375 46.453125 
Q 30.46875 47.125 27.59375 47.125 
Q 25.046875 47.125 23 46.75 
Q 20.953125 46.390625 19.4375 45.4375 
Q 17.921875 44.484375 16.984375 42.84375 
Q 16.0625 41.21875 15.765625 38.71875 
L 6.59375 39.546875 
Q 7.078125 42.671875 8.4375 45.28125 
Q 9.8125 47.90625 12.328125 49.796875 
Q 14.84375 51.703125 18.625 52.75 
Q 22.40625 53.8125 27.78125 53.8125 
Q 37.75 53.8125 42.765625 49.234375 
Q 47.796875 44.671875 47.796875 36.03125 
L 47.796875 13.28125 
Q 47.796875 9.375 48.828125 7.390625 
Q 49.859375 5.421875 52.734375 5.421875 
Q 53.46875 5.421875 54.203125 5.515625 
Q 54.9375 5.609375 55.609375 5.765625 
L 55.609375 0.296875 
Q 53.953125 -0.09375 52.3125 -0.28125 
Q 50.6875 -0.484375 48.828125 -0.484375 
Q 46.34375 -0.484375 44.5625 0.171875 
Q 42.78125 0.828125 41.65625 2.171875 
Q 40.53125 3.515625 39.9375 5.484375 
Q 39.359375 7.46875 39.203125 10.109375 
L 38.921875 10.109375 
Q 37.5 7.5625 35.8125 5.515625 
Q 34.125 3.46875 31.875 2.03125 
Q 29.640625 0.59375 26.78125 -0.1875 
Q 23.921875 -0.984375 20.21875 -0.984375 
M 22.21875 5.609375 
Q 26.421875 5.609375 29.5625 7.140625 
Q 32.71875 8.6875 34.78125 11.078125 
Q 36.859375 13.484375 37.890625 16.3125 
Q 38.921875 19.140625 38.921875 21.734375 
L 38.921875 26.078125 
L 29.296875 25.875 
Q 26.078125 25.828125 23.171875 25.40625 
Q 20.265625 25 18.0625 23.78125 
Q 15.875 22.5625 14.578125 20.359375 
Q 13.28125 18.171875 13.28125 14.59375 
Q 13.28125 10.296875 15.59375 7.953125 
Q 17.921875 5.609375 22.21875 5.609375 
" id="LiberationSans-61"/>
      <path d="M 51.421875 26.46875 
Q 51.421875 12.59375 45.3125 5.796875 
Q 39.203125 -0.984375 27.59375 -0.984375 
Q 22.078125 -0.984375 17.71875 0.671875 
Q 13.375 2.34375 10.375 5.765625 
Q 7.375 9.1875 5.78125 14.328125 
Q 4.203125 19.484375 4.203125 26.46875 
Q 4.203125 53.8125 27.875 53.8125 
Q 34.03125 53.8125 38.5 52.09375 
Q 42.96875 50.390625 45.828125 46.96875 
Q 48.6875 43.5625 50.046875 38.421875 
Q 51.421875 33.296875 51.421875 26.46875 
M 42.1875 26.46875 
Q 42.1875 32.625 41.234375 36.625 
Q 40.28125 40.625 38.453125 43.015625 
Q 36.625 45.40625 33.984375 46.359375 
Q 31.34375 47.3125 28.03125 47.3125 
Q 24.65625 47.3125 21.9375 46.3125 
Q 19.234375 45.3125 17.328125 42.890625 
Q 15.4375 40.484375 14.421875 36.46875 
Q 13.421875 32.46875 13.421875 26.46875 
Q 13.421875 20.3125 14.5 16.28125 
Q 15.578125 12.25 17.453125 9.859375 
Q 19.34375 7.46875 21.90625 6.484375 
Q 24.46875 5.515625 27.484375 5.515625 
Q 30.859375 5.515625 33.59375 6.46875 
Q 36.328125 7.421875 38.234375 9.8125 
Q 40.140625 12.203125 41.15625 16.25 
Q 42.1875 20.3125 42.1875 26.46875 
" id="LiberationSans-6f"/>
      <path d="M 9.125 0 
L 9.125 10.6875 
L 18.65625 10.6875 
L 18.65625 0 
z
" id="LiberationSans-2e"/>
      <path d="M 4.890625 41.796875 
L 4.890625 49.03125 
L 53.46875 49.03125 
L 53.46875 41.796875 
z
M 4.890625 16.796875 
L 4.890625 24.03125 
L 53.46875 24.03125 
L 53.46875 16.796875 
z
" id="LiberationSans-3d"/>
      <path d="M 40.28125 0 
L 40.28125 33.5 
Q 40.28125 37.359375 39.71875 39.9375 
Q 39.15625 42.53125 37.890625 44.109375 
Q 36.625 45.703125 34.546875 46.359375 
Q 32.46875 47.015625 29.390625 47.015625 
Q 26.265625 47.015625 23.75 45.921875 
Q 21.234375 44.828125 19.453125 42.75 
Q 17.671875 40.671875 16.6875 37.625 
Q 15.71875 34.578125 15.71875 30.609375 
L 15.71875 0 
L 6.9375 0 
L 6.9375 41.546875 
Q 6.9375 43.21875 6.90625 45.046875 
Q 6.890625 46.875 6.828125 48.5 
Q 6.78125 50.140625 6.734375 51.3125 
Q 6.6875 52.484375 6.640625 52.828125 
L 14.9375 52.828125 
Q 14.984375 52.59375 15.03125 51.515625 
Q 15.09375 50.4375 15.15625 49.046875 
Q 15.234375 47.65625 15.28125 46.21875 
Q 15.328125 44.78125 15.328125 43.796875 
L 15.484375 43.796875 
Q 16.75 46.09375 18.265625 47.953125 
Q 19.78125 49.8125 21.78125 51.09375 
Q 23.78125 52.390625 26.359375 53.09375 
Q 28.953125 53.8125 32.375 53.8125 
Q 36.765625 53.8125 39.9375 52.734375 
Q 43.109375 51.65625 45.15625 49.40625 
Q 47.21875 47.171875 48.171875 43.625 
Q 49.125 40.09375 49.125 35.203125 
L 49.125 0 
z
" id="LiberationSans-6e"/>
      <path d="M 13.484375 24.5625 
Q 13.484375 20.40625 14.328125 16.90625 
Q 15.1875 13.421875 16.96875 10.90625 
Q 18.75 8.40625 21.53125 7 
Q 24.3125 5.609375 28.21875 5.609375 
Q 33.9375 5.609375 37.375 7.90625 
Q 40.828125 10.203125 42.046875 13.71875 
L 49.75 11.53125 
Q 48.921875 9.328125 47.4375 7.109375 
Q 45.953125 4.890625 43.453125 3.09375 
Q 40.96875 1.3125 37.234375 0.15625 
Q 33.5 -0.984375 28.21875 -0.984375 
Q 16.5 -0.984375 10.375 6 
Q 4.25 12.984375 4.25 26.765625 
Q 4.25 34.1875 6.09375 39.328125 
Q 7.953125 44.484375 11.171875 47.703125 
Q 14.40625 50.921875 18.703125 52.359375 
Q 23 53.8125 27.875 53.8125 
Q 34.515625 53.8125 38.984375 51.65625 
Q 43.453125 49.515625 46.15625 45.71875 
Q 48.875 41.9375 50.015625 36.8125 
Q 51.171875 31.6875 51.171875 25.734375 
L 51.171875 24.5625 
z
M 42.09375 31.296875 
Q 41.359375 39.65625 37.84375 43.484375 
Q 34.328125 47.3125 27.734375 47.3125 
Q 25.53125 47.3125 23.109375 46.609375 
Q 20.703125 45.90625 18.65625 44.09375 
Q 16.609375 42.28125 15.1875 39.171875 
Q 13.765625 36.078125 13.578125 31.296875 
z
" id="LiberationSans-65"/>
      <path d="M 50.59375 61.671875 
Q 45.40625 53.765625 41.0625 46.453125 
Q 36.71875 39.15625 33.59375 31.75 
Q 30.46875 24.359375 28.734375 16.578125 
Q 27 8.796875 27 0 
L 17.828125 0 
Q 17.828125 8.25 19.78125 16.1875 
Q 21.734375 24.125 25.046875 31.765625 
Q 28.375 39.40625 32.765625 46.78125 
Q 37.15625 54.15625 42.09375 61.328125 
L 5.125 61.328125 
L 5.125 68.796875 
L 50.59375 68.796875 
z
" id="LiberationSans-37"/>
      <path d="M 46.390625 14.59375 
Q 46.390625 10.890625 44.9375 7.984375 
Q 43.5 5.078125 40.765625 3.09375 
Q 38.03125 1.125 34.046875 0.0625 
Q 30.078125 -0.984375 24.953125 -0.984375 
Q 20.359375 -0.984375 16.671875 -0.265625 
Q 12.984375 0.4375 10.203125 2 
Q 7.421875 3.5625 5.53125 6.125 
Q 3.65625 8.6875 2.78125 12.40625 
L 10.546875 13.921875 
Q 11.671875 9.671875 15.1875 7.6875 
Q 18.703125 5.71875 24.953125 5.71875 
Q 27.78125 5.71875 30.140625 6.109375 
Q 32.515625 6.5 34.21875 7.453125 
Q 35.9375 8.40625 36.890625 9.984375 
Q 37.84375 11.578125 37.84375 13.921875 
Q 37.84375 16.3125 36.71875 17.84375 
Q 35.59375 19.390625 33.59375 20.40625 
Q 31.59375 21.4375 28.734375 22.1875 
Q 25.875 22.953125 22.46875 23.875 
Q 19.28125 24.703125 16.15625 25.734375 
Q 13.03125 26.765625 10.515625 28.4375 
Q 8.015625 30.125 6.453125 32.609375 
Q 4.890625 35.109375 4.890625 38.875 
Q 4.890625 46.09375 10.03125 49.875 
Q 15.1875 53.65625 25.046875 53.65625 
Q 33.796875 53.65625 38.9375 50.578125 
Q 44.09375 47.515625 45.453125 40.71875 
L 37.546875 39.75 
Q 37.109375 41.796875 35.9375 43.1875 
Q 34.765625 44.578125 33.109375 45.4375 
Q 31.453125 46.296875 29.375 46.65625 
Q 27.296875 47.015625 25.046875 47.015625 
Q 19.09375 47.015625 16.25 45.203125 
Q 13.421875 43.40625 13.421875 39.75 
Q 13.421875 37.59375 14.46875 36.203125 
Q 15.53125 34.8125 17.40625 33.859375 
Q 19.28125 32.90625 21.921875 32.203125 
Q 24.5625 31.5 27.734375 30.71875 
Q 29.828125 30.171875 32.03125 29.5625 
Q 34.234375 28.953125 36.296875 28.09375 
Q 38.375 27.25 40.203125 26.09375 
Q 42.046875 24.953125 43.40625 23.34375 
Q 44.78125 21.734375 45.578125 19.578125 
Q 46.390625 17.4375 46.390625 14.59375 
" id="LiberationSans-73"/>
     </defs>
     <g style="fill:#262626;" transform="translate(388.19026041666683 104.27788541666666)scale(0.1 -0.1)">
      <use xlink:href="#LiberationSans-70"/>
      <use x="55.615234375" xlink:href="#LiberationSans-65"/>
      <use x="111.23046875" xlink:href="#LiberationSans-61"/>
      <use x="166.845703125" xlink:href="#LiberationSans-72"/>
      <use x="200.146484375" xlink:href="#LiberationSans-73"/>
      <use x="250.146484375" xlink:href="#LiberationSans-6f"/>
      <use x="305.76171875" xlink:href="#LiberationSans-6e"/>
      <use x="361.376953125" xlink:href="#LiberationSans-72"/>
      <use x="394.677734375" xlink:href="#LiberationSans-20"/>
      <use x="422.4609375" xlink:href="#LiberationSans-3d"/>
      <use x="480.859375" xlink:href="#LiberationSans-20"/>
      <use x="508.642578125" xlink:href="#LiberationSans-2d"/>
      <use x="541.943359375" xlink:href="#LiberationSans-30"/>
      <use x="597.55859375" xlink:href="#LiberationSans-2e"/>
      <use x="625.341796875" xlink:href="#LiberationSans-37"/>
      <use x="680.95703125" xlink:href="#LiberationSans-38"/>
      <use x="736.572265625" xlink:href="#LiberationSans-3b"/>
      <use x="764.35546875" xlink:href="#LiberationSans-20"/>
      <use x="792.138671875" xlink:href="#LiberationSans-70"/>
      <use x="847.75390625" xlink:href="#LiberationSans-20"/>
      <use x="875.537109375" xlink:href="#LiberationSans-3d"/>
      <use x="933.935546875" xlink:href="#LiberationSans-20"/>
      <use x="961.71875" xlink:href="#LiberationSans-37"/>
      <use x="1017.333984375" xlink:href="#LiberationSans-65"/>
      <use x="1072.94921875" xlink:href="#LiberationSans-2d"/>
      <use x="1106.25" xlink:href="#LiberationSans-38"/>
      <use x="1161.865234375" xlink:href="#LiberationSans-31"/>
     </g>
    </g>
   </g>
  </g>
  <g id="axes_2">
   <g id="patch_5">
    <path d="M 46.335938 75.07101 
L 518.929323 75.07101 
L 518.929323 12.96 
L 46.335938 12.96 
z
" style="fill:#eaeaf2;"/>
   </g>
   <g id="matplotlib.axis_3">
    <g id="xtick_5">
     <g id="line2d_27">
      <path clip-path="url(#p17884bc634)" d="M 56.609707 75.07101 
L 56.609707 12.96 
" style="fill:none;stroke:#ffffff;stroke-linecap:round;"/>
     </g>
     <g id="line2d_28">
      <g>
       <use style="fill:#262626;stroke:#262626;" x="56.60970720023427" xlink:href="#m15ee24f119" y="75.07101041666664"/>
      </g>
     </g>
    </g>
    <g id="xtick_6">
     <g id="line2d_29">
      <path clip-path="url(#p17884bc634)" d="M 185.031823 75.07101 
L 185.031823 12.96 
" style="fill:none;stroke:#ffffff;stroke-linecap:round;"/>
     </g>
     <g id="line2d_30">
      <g>
       <use style="fill:#262626;stroke:#262626;" x="185.03182254574517" xlink:href="#m15ee24f119" y="75.07101041666664"/>
      </g>
     </g>
    </g>
    <g id="xtick_7">
     <g id="line2d_31">
      <path clip-path="url(#p17884bc634)" d="M 313.453938 75.07101 
L 313.453938 12.96 
" style="fill:none;stroke:#ffffff;stroke-linecap:round;"/>
     </g>
     <g id="line2d_32">
      <g>
       <use style="fill:#262626;stroke:#262626;" x="313.4539378912561" xlink:href="#m15ee24f119" y="75.07101041666664"/>
      </g>
     </g>
    </g>
    <g id="xtick_8">
     <g id="line2d_33">
      <path clip-path="url(#p17884bc634)" d="M 441.876053 75.07101 
L 441.876053 12.96 
" style="fill:none;stroke:#ffffff;stroke-linecap:round;"/>
     </g>
     <g id="line2d_34">
      <g>
       <use style="fill:#262626;stroke:#262626;" x="441.876053236767" xlink:href="#m15ee24f119" y="75.07101041666664"/>
      </g>
     </g>
    </g>
   </g>
   <g id="matplotlib.axis_4">
    <g id="ytick_9"/>
    <g id="ytick_10"/>
    <g id="ytick_11"/>
    <g id="ytick_12"/>
    <g id="ytick_13"/>
    <g id="ytick_14"/>
    <g id="ytick_15"/>
    <g id="ytick_16"/>
    <g id="ytick_17"/>
    <g id="ytick_18"/>
   </g>
   <g id="patch_6">
    <path clip-path="url(#p17884bc634)" d="M 46.335938 75.07101 
L 80.092608 75.07101 
L 80.092608 64.719175 
L 46.335938 64.719175 
z
" style="fill:#4c72b0;opacity:0.4;stroke:#000000;stroke-linejoin:miter;stroke-width:0.3;"/>
   </g>
   <g id="patch_7">
    <path clip-path="url(#p17884bc634)" d="M 80.092608 75.07101 
L 113.849279 75.07101 
L 113.849279 28.832814 
L 80.092608 28.832814 
z
" style="fill:#4c72b0;opacity:0.4;stroke:#000000;stroke-linejoin:miter;stroke-width:0.3;"/>
   </g>
   <g id="patch_8">
    <path clip-path="url(#p17884bc634)" d="M 113.849279 75.07101 
L 147.605949 75.07101 
L 147.605949 34.353792 
L 113.849279 34.353792 
z
" style="fill:#4c72b0;opacity:0.4;stroke:#000000;stroke-linejoin:miter;stroke-width:0.3;"/>
   </g>
   <g id="patch_9">
    <path clip-path="url(#p17884bc634)" d="M 147.605949 75.07101 
L 181.362619 75.07101 
L 181.362619 17.100734 
L 147.605949 17.100734 
z
" style="fill:#4c72b0;opacity:0.4;stroke:#000000;stroke-linejoin:miter;stroke-width:0.3;"/>
   </g>
   <g id="patch_10">
    <path clip-path="url(#p17884bc634)" d="M 181.362619 75.07101 
L 215.11929 75.07101 
L 215.11929 39.874771 
L 181.362619 39.874771 
z
" style="fill:#4c72b0;opacity:0.4;stroke:#000000;stroke-linejoin:miter;stroke-width:0.3;"/>
   </g>
   <g id="patch_11">
    <path clip-path="url(#p17884bc634)" d="M 215.11929 75.07101 
L 248.87596 75.07101 
L 248.87596 64.719175 
L 215.11929 64.719175 
z
" style="fill:#4c72b0;opacity:0.4;stroke:#000000;stroke-linejoin:miter;stroke-width:0.3;"/>
   </g>
   <g id="patch_12">
    <path clip-path="url(#p17884bc634)" d="M 248.87596 75.07101 
L 282.63263 75.07101 
L 282.63263 65.409298 
L 248.87596 65.409298 
z
" style="fill:#4c72b0;opacity:0.4;stroke:#000000;stroke-linejoin:miter;stroke-width:0.3;"/>
   </g>
   <g id="patch_13">
    <path clip-path="url(#p17884bc634)" d="M 282.63263 75.07101 
L 316.389301 75.07101 
L 316.389301 46.085872 
L 282.63263 46.085872 
z
" style="fill:#4c72b0;opacity:0.4;stroke:#000000;stroke-linejoin:miter;stroke-width:0.3;"/>
   </g>
   <g id="patch_14">
    <path clip-path="url(#p17884bc634)" d="M 316.389301 75.07101 
L 350.145971 75.07101 
L 350.145971 69.550032 
L 316.389301 69.550032 
z
" style="fill:#4c72b0;opacity:0.4;stroke:#000000;stroke-linejoin:miter;stroke-width:0.3;"/>
   </g>
   <g id="patch_15">
    <path clip-path="url(#p17884bc634)" d="M 350.145971 75.07101 
L 383.902641 75.07101 
L 383.902641 64.719175 
L 350.145971 64.719175 
z
" style="fill:#4c72b0;opacity:0.4;stroke:#000000;stroke-linejoin:miter;stroke-width:0.3;"/>
   </g>
   <g id="patch_16">
    <path clip-path="url(#p17884bc634)" d="M 383.902641 75.07101 
L 417.659311 75.07101 
L 417.659311 69.550032 
L 383.902641 69.550032 
z
" style="fill:#4c72b0;opacity:0.4;stroke:#000000;stroke-linejoin:miter;stroke-width:0.3;"/>
   </g>
   <g id="patch_17">
    <path clip-path="url(#p17884bc634)" d="M 417.659311 75.07101 
L 451.415982 75.07101 
L 451.415982 72.310521 
L 417.659311 72.310521 
z
" style="fill:#4c72b0;opacity:0.4;stroke:#000000;stroke-linejoin:miter;stroke-width:0.3;"/>
   </g>
   <g id="patch_18">
    <path clip-path="url(#p17884bc634)" d="M 451.415982 75.07101 
L 485.172652 75.07101 
L 485.172652 71.620399 
L 451.415982 71.620399 
z
" style="fill:#4c72b0;opacity:0.4;stroke:#000000;stroke-linejoin:miter;stroke-width:0.3;"/>
   </g>
   <g id="patch_19">
    <path clip-path="url(#p17884bc634)" d="M 485.172652 75.07101 
L 518.929322 75.07101 
L 518.929322 71.620399 
L 485.172652 71.620399 
z
" style="fill:#4c72b0;opacity:0.4;stroke:#000000;stroke-linejoin:miter;stroke-width:0.3;"/>
   </g>
   <g id="patch_20">
    <path d="M 46.335938 75.07101 
L 518.929323 75.07101 
" style="fill:none;"/>
   </g>
  </g>
  <g id="axes_3">
   <g id="patch_21">
    <path d="M 531.889323 450.426063 
L 616.04 450.426063 
L 616.04 88.03101 
L 531.889323 88.03101 
z
" style="fill:#eaeaf2;"/>
   </g>
   <g id="matplotlib.axis_5">
    <g id="xtick_9"/>
    <g id="xtick_10"/>
    <g id="xtick_11"/>
    <g id="xtick_12"/>
    <g id="xtick_13"/>
    <g id="xtick_14"/>
    <g id="xtick_15"/>
   </g>
   <g id="matplotlib.axis_6">
    <g id="ytick_19">
     <g id="line2d_35">
      <path clip-path="url(#p7e49115735)" d="M 531.889323 440.787896 
L 616.04 440.787896 
" style="fill:none;stroke:#ffffff;stroke-linecap:round;"/>
     </g>
     <g id="line2d_36">
      <g>
       <use style="fill:#262626;stroke:#262626;" x="531.8893229166669" xlink:href="#m15ee24f119" y="440.7878962211879"/>
      </g>
     </g>
    </g>
    <g id="ytick_20">
     <g id="line2d_37">
      <path clip-path="url(#p7e49115735)" d="M 531.889323 392.597065 
L 616.04 392.597065 
" style="fill:none;stroke:#ffffff;stroke-linecap:round;"/>
     </g>
     <g id="line2d_38">
      <g>
       <use style="fill:#262626;stroke:#262626;" x="531.8893229166669" xlink:href="#m15ee24f119" y="392.59706482712767"/>
      </g>
     </g>
    </g>
    <g id="ytick_21">
     <g id="line2d_39">
      <path clip-path="url(#p7e49115735)" d="M 531.889323 344.406233 
L 616.04 344.406233 
" style="fill:none;stroke:#ffffff;stroke-linecap:round;"/>
     </g>
     <g id="line2d_40">
      <g>
       <use style="fill:#262626;stroke:#262626;" x="531.8893229166669" xlink:href="#m15ee24f119" y="344.40623343306737"/>
      </g>
     </g>
    </g>
    <g id="ytick_22">
     <g id="line2d_41">
      <path clip-path="url(#p7e49115735)" d="M 531.889323 296.215402 
L 616.04 296.215402 
" style="fill:none;stroke:#ffffff;stroke-linecap:round;"/>
     </g>
     <g id="line2d_42">
      <g>
       <use style="fill:#262626;stroke:#262626;" x="531.8893229166669" xlink:href="#m15ee24f119" y="296.21540203900713"/>
      </g>
     </g>
    </g>
    <g id="ytick_23">
     <g id="line2d_43">
      <path clip-path="url(#p7e49115735)" d="M 531.889323 248.024571 
L 616.04 248.024571 
" style="fill:none;stroke:#ffffff;stroke-linecap:round;"/>
     </g>
     <g id="line2d_44">
      <g>
       <use style="fill:#262626;stroke:#262626;" x="531.8893229166669" xlink:href="#m15ee24f119" y="248.02457064494683"/>
      </g>
     </g>
    </g>
    <g id="ytick_24">
     <g id="line2d_45">
      <path clip-path="url(#p7e49115735)" d="M 531.889323 199.833739 
L 616.04 199.833739 
" style="fill:none;stroke:#ffffff;stroke-linecap:round;"/>
     </g>
     <g id="line2d_46">
      <g>
       <use style="fill:#262626;stroke:#262626;" x="531.8893229166669" xlink:href="#m15ee24f119" y="199.83373925088654"/>
      </g>
     </g>
    </g>
    <g id="ytick_25">
     <g id="line2d_47">
      <path clip-path="url(#p7e49115735)" d="M 531.889323 151.642908 
L 616.04 151.642908 
" style="fill:none;stroke:#ffffff;stroke-linecap:round;"/>
     </g>
     <g id="line2d_48">
      <g>
       <use style="fill:#262626;stroke:#262626;" x="531.8893229166669" xlink:href="#m15ee24f119" y="151.64290785682624"/>
      </g>
     </g>
    </g>
    <g id="ytick_26">
     <g id="line2d_49">
      <path clip-path="url(#p7e49115735)" d="M 531.889323 103.452076 
L 616.04 103.452076 
" style="fill:none;stroke:#ffffff;stroke-linecap:round;"/>
     </g>
     <g id="line2d_50">
      <g>
       <use style="fill:#262626;stroke:#262626;" x="531.8893229166669" xlink:href="#m15ee24f119" y="103.452076462766"/>
      </g>
     </g>
    </g>
   </g>
   <g id="patch_22">
    <path clip-path="url(#p7e49115735)" d="M 531.889323 450.426063 
L 550.12197 450.426063 
L 550.12197 420.226475 
L 531.889323 420.226475 
z
" style="fill:#4c72b0;opacity:0.4;stroke:#000000;stroke-linejoin:miter;stroke-width:0.3;"/>
   </g>
   <g id="patch_23">
    <path clip-path="url(#p7e49115735)" d="M 531.889323 420.226475 
L 610.429955 420.226475 
L 610.429955 390.026887 
L 531.889323 390.026887 
z
" style="fill:#4c72b0;opacity:0.4;stroke:#000000;stroke-linejoin:miter;stroke-width:0.3;"/>
   </g>
   <g id="patch_24">
    <path clip-path="url(#p7e49115735)" d="M 531.889323 390.026887 
L 613.234977 390.026887 
L 613.234977 359.827299 
L 531.889323 359.827299 
z
" style="fill:#4c72b0;opacity:0.4;stroke:#000000;stroke-linejoin:miter;stroke-width:0.3;"/>
   </g>
   <g id="patch_25">
    <path clip-path="url(#p7e49115735)" d="M 531.889323 359.827299 
L 609.027444 359.827299 
L 609.027444 329.627712 
L 531.889323 329.627712 
z
" style="fill:#4c72b0;opacity:0.4;stroke:#000000;stroke-linejoin:miter;stroke-width:0.3;"/>
   </g>
   <g id="patch_26">
    <path clip-path="url(#p7e49115735)" d="M 531.889323 329.627712 
L 593.599819 329.627712 
L 593.599819 299.428124 
L 531.889323 299.428124 
z
" style="fill:#4c72b0;opacity:0.4;stroke:#000000;stroke-linejoin:miter;stroke-width:0.3;"/>
   </g>
   <g id="patch_27">
    <path clip-path="url(#p7e49115735)" d="M 531.889323 299.428124 
L 600.612376 299.428124 
L 600.612376 269.228536 
L 531.889323 269.228536 
z
" style="fill:#4c72b0;opacity:0.4;stroke:#000000;stroke-linejoin:miter;stroke-width:0.3;"/>
   </g>
   <g id="patch_28">
    <path clip-path="url(#p7e49115735)" d="M 531.889323 269.228536 
L 585.184752 269.228536 
L 585.184752 239.028949 
L 531.889323 239.028949 
z
" style="fill:#4c72b0;opacity:0.4;stroke:#000000;stroke-linejoin:miter;stroke-width:0.3;"/>
   </g>
   <g id="patch_29">
    <path clip-path="url(#p7e49115735)" d="M 531.889323 239.028949 
L 583.78224 239.028949 
L 583.78224 208.829361 
L 531.889323 208.829361 
z
" style="fill:#4c72b0;opacity:0.4;stroke:#000000;stroke-linejoin:miter;stroke-width:0.3;"/>
   </g>
   <g id="patch_30">
    <path clip-path="url(#p7e49115735)" d="M 531.889323 208.829361 
L 564.147082 208.829361 
L 564.147082 178.629773 
L 531.889323 178.629773 
z
" style="fill:#4c72b0;opacity:0.4;stroke:#000000;stroke-linejoin:miter;stroke-width:0.3;"/>
   </g>
   <g id="patch_31">
    <path clip-path="url(#p7e49115735)" d="M 531.889323 178.629773 
L 547.316947 178.629773 
L 547.316947 148.430186 
L 531.889323 148.430186 
z
" style="fill:#4c72b0;opacity:0.4;stroke:#000000;stroke-linejoin:miter;stroke-width:0.3;"/>
   </g>
   <g id="patch_32">
    <path clip-path="url(#p7e49115735)" d="M 531.889323 148.430186 
L 537.499368 148.430186 
L 537.499368 118.230598 
L 531.889323 118.230598 
z
" style="fill:#4c72b0;opacity:0.4;stroke:#000000;stroke-linejoin:miter;stroke-width:0.3;"/>
   </g>
   <g id="patch_33">
    <path clip-path="url(#p7e49115735)" d="M 531.889323 118.230598 
L 537.499368 118.230598 
L 537.499368 88.03101 
L 531.889323 88.03101 
z
" style="fill:#4c72b0;opacity:0.4;stroke:#000000;stroke-linejoin:miter;stroke-width:0.3;"/>
   </g>
   <g id="patch_34">
    <path d="M 531.889323 450.426063 
L 531.889323 88.03101 
" style="fill:none;"/>
   </g>
  </g>
 </g>
 <defs>
  <clipPath id="p7e49115735">
   <rect height="362.3950520833333" width="84.15067708333322" x="531.8893229166669" y="88.03101041666667"/>
  </clipPath>
  <clipPath id="pe689531e6c">
   <rect height="362.3950520833333" width="472.5933854166668" x="46.3359375" y="88.03101041666667"/>
  </clipPath>
  <clipPath id="p17884bc634">
   <rect height="62.11101041666666" width="472.5933854166668" x="46.3359375" y="12.95999999999998"/>
  </clipPath>
 </defs>
</svg>
