<?xml version="1.0" encoding="utf-8" standalone="no"?>
<!DOCTYPE svg PUBLIC "-//W3C//DTD SVG 1.1//EN"
  "http://www.w3.org/Graphics/SVG/1.1/DTD/svg11.dtd">
<!-- Created with matplotlib (http://matplotlib.org/) -->
<svg height="462pt" version="1.1" viewBox="0 0 628 462" width="628pt" xmlns="http://www.w3.org/2000/svg" xmlns:xlink="http://www.w3.org/1999/xlink">
 <defs>
  <style type="text/css">
*{stroke-linecap:butt;stroke-linejoin:round;stroke-miterlimit:100000;}
  </style>
 </defs>
 <g id="figure_1">
  <g id="patch_1">
   <path d="M 0 462.6875 
L 628.96875 462.6875 
L 628.96875 0 
L 0 0 
z
" style="fill:#ffffff;"/>
  </g>
  <g id="axes_1">
   <g id="patch_2">
    <path d="M 36.04375 434.11375 
L 604.55625 434.11375 
L 604.55625 18.766875 
L 36.04375 18.766875 
z
" style="fill:#ffffff;"/>
   </g>
   <g id="patch_3">
    <path clip-path="url(#pa6b09d3784)" d="M 36.04375 434.11375 
L 37.938792 434.11375 
L 37.938792 434.11375 
L 36.04375 434.11375 
z
" style="fill:#0000ff;stroke:#000000;stroke-linejoin:miter;"/>
   </g>
   <g id="patch_4">
    <path clip-path="url(#pa6b09d3784)" d="M 37.938792 434.11375 
L 39.833833 434.11375 
L 39.833833 434.11375 
L 37.938792 434.11375 
z
" style="fill:#0000ff;stroke:#000000;stroke-linejoin:miter;"/>
   </g>
   <g id="patch_5">
    <path clip-path="url(#pa6b09d3784)" d="M 39.833833 434.11375 
L 41.728875 434.11375 
L 41.728875 434.11375 
L 39.833833 434.11375 
z
" style="fill:#0000ff;stroke:#000000;stroke-linejoin:miter;"/>
   </g>
   <g id="patch_6">
    <path clip-path="url(#pa6b09d3784)" d="M 41.728875 434.11375 
L 43.623917 434.11375 
L 43.623917 434.11375 
L 41.728875 434.11375 
z
" style="fill:#0000ff;stroke:#000000;stroke-linejoin:miter;"/>
   </g>
   <g id="patch_7">
    <path clip-path="url(#pa6b09d3784)" d="M 43.623917 434.11375 
L 45.518958 434.11375 
L 45.518958 434.11375 
L 43.623917 434.11375 
z
" style="fill:#0000ff;stroke:#000000;stroke-linejoin:miter;"/>
   </g>
   <g id="patch_8">
    <path clip-path="url(#pa6b09d3784)" d="M 45.518958 434.11375 
L 47.414 434.11375 
L 47.414 434.11375 
L 45.518958 434.11375 
z
" style="fill:#0000ff;stroke:#000000;stroke-linejoin:miter;"/>
   </g>
   <g id="patch_9">
    <path clip-path="url(#pa6b09d3784)" d="M 47.414 434.11375 
L 49.309042 434.11375 
L 49.309042 434.11375 
L 47.414 434.11375 
z
" style="fill:#0000ff;stroke:#000000;stroke-linejoin:miter;"/>
   </g>
   <g id="patch_10">
    <path clip-path="url(#pa6b09d3784)" d="M 49.309042 434.11375 
L 51.204083 434.11375 
L 51.204083 434.11375 
L 49.309042 434.11375 
z
" style="fill:#0000ff;stroke:#000000;stroke-linejoin:miter;"/>
   </g>
   <g id="patch_11">
    <path clip-path="url(#pa6b09d3784)" d="M 51.204083 434.11375 
L 53.099125 434.11375 
L 53.099125 434.11375 
L 51.204083 434.11375 
z
" style="fill:#0000ff;stroke:#000000;stroke-linejoin:miter;"/>
   </g>
   <g id="patch_12">
    <path clip-path="url(#pa6b09d3784)" d="M 53.099125 434.11375 
L 54.994167 434.11375 
L 54.994167 434.11375 
L 53.099125 434.11375 
z
" style="fill:#0000ff;stroke:#000000;stroke-linejoin:miter;"/>
   </g>
   <g id="patch_13">
    <path clip-path="url(#pa6b09d3784)" d="M 54.994167 434.11375 
L 56.889208 434.11375 
L 56.889208 434.11375 
L 54.994167 434.11375 
z
" style="fill:#0000ff;stroke:#000000;stroke-linejoin:miter;"/>
   </g>
   <g id="patch_14">
    <path clip-path="url(#pa6b09d3784)" d="M 56.889208 434.11375 
L 58.78425 434.11375 
L 58.78425 434.11375 
L 56.889208 434.11375 
z
" style="fill:#0000ff;stroke:#000000;stroke-linejoin:miter;"/>
   </g>
   <g id="patch_15">
    <path clip-path="url(#pa6b09d3784)" d="M 58.78425 434.11375 
L 60.679292 434.11375 
L 60.679292 434.11375 
L 58.78425 434.11375 
z
" style="fill:#0000ff;stroke:#000000;stroke-linejoin:miter;"/>
   </g>
   <g id="patch_16">
    <path clip-path="url(#pa6b09d3784)" d="M 60.679292 434.11375 
L 62.574333 434.11375 
L 62.574333 434.11375 
L 60.679292 434.11375 
z
" style="fill:#0000ff;stroke:#000000;stroke-linejoin:miter;"/>
   </g>
   <g id="patch_17">
    <path clip-path="url(#pa6b09d3784)" d="M 62.574333 434.11375 
L 64.469375 434.11375 
L 64.469375 434.11375 
L 62.574333 434.11375 
z
" style="fill:#0000ff;stroke:#000000;stroke-linejoin:miter;"/>
   </g>
   <g id="patch_18">
    <path clip-path="url(#pa6b09d3784)" d="M 64.469375 434.11375 
L 66.364417 434.11375 
L 66.364417 434.11375 
L 64.469375 434.11375 
z
" style="fill:#0000ff;stroke:#000000;stroke-linejoin:miter;"/>
   </g>
   <g id="patch_19">
    <path clip-path="url(#pa6b09d3784)" d="M 66.364417 434.11375 
L 68.259458 434.11375 
L 68.259458 434.11375 
L 66.364417 434.11375 
z
" style="fill:#0000ff;stroke:#000000;stroke-linejoin:miter;"/>
   </g>
   <g id="patch_20">
    <path clip-path="url(#pa6b09d3784)" d="M 68.259458 434.11375 
L 70.1545 434.11375 
L 70.1545 434.11375 
L 68.259458 434.11375 
z
" style="fill:#0000ff;stroke:#000000;stroke-linejoin:miter;"/>
   </g>
   <g id="patch_21">
    <path clip-path="url(#pa6b09d3784)" d="M 70.1545 434.11375 
L 72.049542 434.11375 
L 72.049542 434.11375 
L 70.1545 434.11375 
z
" style="fill:#0000ff;stroke:#000000;stroke-linejoin:miter;"/>
   </g>
   <g id="patch_22">
    <path clip-path="url(#pa6b09d3784)" d="M 72.049542 434.11375 
L 73.944583 434.11375 
L 73.944583 434.11375 
L 72.049542 434.11375 
z
" style="fill:#0000ff;stroke:#000000;stroke-linejoin:miter;"/>
   </g>
   <g id="patch_23">
    <path clip-path="url(#pa6b09d3784)" d="M 73.944583 434.11375 
L 75.839625 434.11375 
L 75.839625 434.11375 
L 73.944583 434.11375 
z
" style="fill:#0000ff;stroke:#000000;stroke-linejoin:miter;"/>
   </g>
   <g id="patch_24">
    <path clip-path="url(#pa6b09d3784)" d="M 75.839625 434.11375 
L 77.734667 434.11375 
L 77.734667 434.11375 
L 75.839625 434.11375 
z
" style="fill:#0000ff;stroke:#000000;stroke-linejoin:miter;"/>
   </g>
   <g id="patch_25">
    <path clip-path="url(#pa6b09d3784)" d="M 77.734667 434.11375 
L 79.629708 434.11375 
L 79.629708 434.11375 
L 77.734667 434.11375 
z
" style="fill:#0000ff;stroke:#000000;stroke-linejoin:miter;"/>
   </g>
   <g id="patch_26">
    <path clip-path="url(#pa6b09d3784)" d="M 79.629708 434.11375 
L 81.52475 434.11375 
L 81.52475 434.11375 
L 79.629708 434.11375 
z
" style="fill:#0000ff;stroke:#000000;stroke-linejoin:miter;"/>
   </g>
   <g id="patch_27">
    <path clip-path="url(#pa6b09d3784)" d="M 81.52475 434.11375 
L 83.419792 434.11375 
L 83.419792 434.11375 
L 81.52475 434.11375 
z
" style="fill:#0000ff;stroke:#000000;stroke-linejoin:miter;"/>
   </g>
   <g id="patch_28">
    <path clip-path="url(#pa6b09d3784)" d="M 83.419792 434.11375 
L 85.314833 434.11375 
L 85.314833 434.11375 
L 83.419792 434.11375 
z
" style="fill:#0000ff;stroke:#000000;stroke-linejoin:miter;"/>
   </g>
   <g id="patch_29">
    <path clip-path="url(#pa6b09d3784)" d="M 85.314833 434.11375 
L 87.209875 434.11375 
L 87.209875 434.11375 
L 85.314833 434.11375 
z
" style="fill:#0000ff;stroke:#000000;stroke-linejoin:miter;"/>
   </g>
   <g id="patch_30">
    <path clip-path="url(#pa6b09d3784)" d="M 87.209875 434.11375 
L 89.104917 434.11375 
L 89.104917 434.11375 
L 87.209875 434.11375 
z
" style="fill:#0000ff;stroke:#000000;stroke-linejoin:miter;"/>
   </g>
   <g id="patch_31">
    <path clip-path="url(#pa6b09d3784)" d="M 89.104917 434.11375 
L 90.999958 434.11375 
L 90.999958 434.11375 
L 89.104917 434.11375 
z
" style="fill:#0000ff;stroke:#000000;stroke-linejoin:miter;"/>
   </g>
   <g id="patch_32">
    <path clip-path="url(#pa6b09d3784)" d="M 90.999958 434.11375 
L 92.895 434.11375 
L 92.895 434.11375 
L 90.999958 434.11375 
z
" style="fill:#0000ff;stroke:#000000;stroke-linejoin:miter;"/>
   </g>
   <g id="patch_33">
    <path clip-path="url(#pa6b09d3784)" d="M 92.895 434.11375 
L 94.790042 434.11375 
L 94.790042 434.11375 
L 92.895 434.11375 
z
" style="fill:#0000ff;stroke:#000000;stroke-linejoin:miter;"/>
   </g>
   <g id="patch_34">
    <path clip-path="url(#pa6b09d3784)" d="M 94.790042 434.11375 
L 96.685083 434.11375 
L 96.685083 434.11375 
L 94.790042 434.11375 
z
" style="fill:#0000ff;stroke:#000000;stroke-linejoin:miter;"/>
   </g>
   <g id="patch_35">
    <path clip-path="url(#pa6b09d3784)" d="M 96.685083 434.11375 
L 98.580125 434.11375 
L 98.580125 434.11375 
L 96.685083 434.11375 
z
" style="fill:#0000ff;stroke:#000000;stroke-linejoin:miter;"/>
   </g>
   <g id="patch_36">
    <path clip-path="url(#pa6b09d3784)" d="M 98.580125 434.11375 
L 100.475167 434.11375 
L 100.475167 434.11375 
L 98.580125 434.11375 
z
" style="fill:#0000ff;stroke:#000000;stroke-linejoin:miter;"/>
   </g>
   <g id="patch_37">
    <path clip-path="url(#pa6b09d3784)" d="M 100.475167 434.11375 
L 102.370208 434.11375 
L 102.370208 434.11375 
L 100.475167 434.11375 
z
" style="fill:#0000ff;stroke:#000000;stroke-linejoin:miter;"/>
   </g>
   <g id="patch_38">
    <path clip-path="url(#pa6b09d3784)" d="M 102.370208 434.11375 
L 104.26525 434.11375 
L 104.26525 434.11375 
L 102.370208 434.11375 
z
" style="fill:#0000ff;stroke:#000000;stroke-linejoin:miter;"/>
   </g>
   <g id="patch_39">
    <path clip-path="url(#pa6b09d3784)" d="M 104.26525 434.11375 
L 106.160292 434.11375 
L 106.160292 434.11375 
L 104.26525 434.11375 
z
" style="fill:#0000ff;stroke:#000000;stroke-linejoin:miter;"/>
   </g>
   <g id="patch_40">
    <path clip-path="url(#pa6b09d3784)" d="M 106.160292 434.11375 
L 108.055333 434.11375 
L 108.055333 434.11375 
L 106.160292 434.11375 
z
" style="fill:#0000ff;stroke:#000000;stroke-linejoin:miter;"/>
   </g>
   <g id="patch_41">
    <path clip-path="url(#pa6b09d3784)" d="M 108.055333 434.11375 
L 109.950375 434.11375 
L 109.950375 434.11375 
L 108.055333 434.11375 
z
" style="fill:#0000ff;stroke:#000000;stroke-linejoin:miter;"/>
   </g>
   <g id="patch_42">
    <path clip-path="url(#pa6b09d3784)" d="M 109.950375 434.11375 
L 111.845417 434.11375 
L 111.845417 434.11375 
L 109.950375 434.11375 
z
" style="fill:#0000ff;stroke:#000000;stroke-linejoin:miter;"/>
   </g>
   <g id="patch_43">
    <path clip-path="url(#pa6b09d3784)" d="M 111.845417 434.11375 
L 113.740458 434.11375 
L 113.740458 434.11375 
L 111.845417 434.11375 
z
" style="fill:#0000ff;stroke:#000000;stroke-linejoin:miter;"/>
   </g>
   <g id="patch_44">
    <path clip-path="url(#pa6b09d3784)" d="M 113.740458 434.11375 
L 115.6355 434.11375 
L 115.6355 434.11375 
L 113.740458 434.11375 
z
" style="fill:#0000ff;stroke:#000000;stroke-linejoin:miter;"/>
   </g>
   <g id="patch_45">
    <path clip-path="url(#pa6b09d3784)" d="M 115.6355 434.11375 
L 117.530542 434.11375 
L 117.530542 434.11375 
L 115.6355 434.11375 
z
" style="fill:#0000ff;stroke:#000000;stroke-linejoin:miter;"/>
   </g>
   <g id="patch_46">
    <path clip-path="url(#pa6b09d3784)" d="M 117.530542 434.11375 
L 119.425583 434.11375 
L 119.425583 434.11375 
L 117.530542 434.11375 
z
" style="fill:#0000ff;stroke:#000000;stroke-linejoin:miter;"/>
   </g>
   <g id="patch_47">
    <path clip-path="url(#pa6b09d3784)" d="M 119.425583 434.11375 
L 121.320625 434.11375 
L 121.320625 434.11375 
L 119.425583 434.11375 
z
" style="fill:#0000ff;stroke:#000000;stroke-linejoin:miter;"/>
   </g>
   <g id="patch_48">
    <path clip-path="url(#pa6b09d3784)" d="M 121.320625 434.11375 
L 123.215667 434.11375 
L 123.215667 434.11375 
L 121.320625 434.11375 
z
" style="fill:#0000ff;stroke:#000000;stroke-linejoin:miter;"/>
   </g>
   <g id="patch_49">
    <path clip-path="url(#pa6b09d3784)" d="M 123.215667 434.11375 
L 125.110708 434.11375 
L 125.110708 434.11375 
L 123.215667 434.11375 
z
" style="fill:#0000ff;stroke:#000000;stroke-linejoin:miter;"/>
   </g>
   <g id="patch_50">
    <path clip-path="url(#pa6b09d3784)" d="M 125.110708 434.11375 
L 127.00575 434.11375 
L 127.00575 434.11375 
L 125.110708 434.11375 
z
" style="fill:#0000ff;stroke:#000000;stroke-linejoin:miter;"/>
   </g>
   <g id="patch_51">
    <path clip-path="url(#pa6b09d3784)" d="M 127.00575 434.11375 
L 128.900792 434.11375 
L 128.900792 434.11375 
L 127.00575 434.11375 
z
" style="fill:#0000ff;stroke:#000000;stroke-linejoin:miter;"/>
   </g>
   <g id="patch_52">
    <path clip-path="url(#pa6b09d3784)" d="M 128.900792 434.11375 
L 130.795833 434.11375 
L 130.795833 434.11375 
L 128.900792 434.11375 
z
" style="fill:#0000ff;stroke:#000000;stroke-linejoin:miter;"/>
   </g>
   <g id="patch_53">
    <path clip-path="url(#pa6b09d3784)" d="M 130.795833 434.11375 
L 132.690875 434.11375 
L 132.690875 434.11375 
L 130.795833 434.11375 
z
" style="fill:#0000ff;stroke:#000000;stroke-linejoin:miter;"/>
   </g>
   <g id="patch_54">
    <path clip-path="url(#pa6b09d3784)" d="M 132.690875 434.11375 
L 134.585917 434.11375 
L 134.585917 434.11375 
L 132.690875 434.11375 
z
" style="fill:#0000ff;stroke:#000000;stroke-linejoin:miter;"/>
   </g>
   <g id="patch_55">
    <path clip-path="url(#pa6b09d3784)" d="M 134.585917 434.11375 
L 136.480958 434.11375 
L 136.480958 434.11375 
L 134.585917 434.11375 
z
" style="fill:#0000ff;stroke:#000000;stroke-linejoin:miter;"/>
   </g>
   <g id="patch_56">
    <path clip-path="url(#pa6b09d3784)" d="M 136.480958 434.11375 
L 138.376 434.11375 
L 138.376 434.11375 
L 136.480958 434.11375 
z
" style="fill:#0000ff;stroke:#000000;stroke-linejoin:miter;"/>
   </g>
   <g id="patch_57">
    <path clip-path="url(#pa6b09d3784)" d="M 138.376 434.11375 
L 140.271042 434.11375 
L 140.271042 434.11375 
L 138.376 434.11375 
z
" style="fill:#0000ff;stroke:#000000;stroke-linejoin:miter;"/>
   </g>
   <g id="patch_58">
    <path clip-path="url(#pa6b09d3784)" d="M 140.271042 434.11375 
L 142.166083 434.11375 
L 142.166083 434.11375 
L 140.271042 434.11375 
z
" style="fill:#0000ff;stroke:#000000;stroke-linejoin:miter;"/>
   </g>
   <g id="patch_59">
    <path clip-path="url(#pa6b09d3784)" d="M 142.166083 434.11375 
L 144.061125 434.11375 
L 144.061125 434.11375 
L 142.166083 434.11375 
z
" style="fill:#0000ff;stroke:#000000;stroke-linejoin:miter;"/>
   </g>
   <g id="patch_60">
    <path clip-path="url(#pa6b09d3784)" d="M 144.061125 434.11375 
L 145.956167 434.11375 
L 145.956167 434.11375 
L 144.061125 434.11375 
z
" style="fill:#0000ff;stroke:#000000;stroke-linejoin:miter;"/>
   </g>
   <g id="patch_61">
    <path clip-path="url(#pa6b09d3784)" d="M 145.956167 434.11375 
L 147.851208 434.11375 
L 147.851208 434.11375 
L 145.956167 434.11375 
z
" style="fill:#0000ff;stroke:#000000;stroke-linejoin:miter;"/>
   </g>
   <g id="patch_62">
    <path clip-path="url(#pa6b09d3784)" d="M 147.851208 434.11375 
L 149.74625 434.11375 
L 149.74625 434.11375 
L 147.851208 434.11375 
z
" style="fill:#0000ff;stroke:#000000;stroke-linejoin:miter;"/>
   </g>
   <g id="patch_63">
    <path clip-path="url(#pa6b09d3784)" d="M 149.74625 434.11375 
L 151.641292 434.11375 
L 151.641292 434.11375 
L 149.74625 434.11375 
z
" style="fill:#0000ff;stroke:#000000;stroke-linejoin:miter;"/>
   </g>
   <g id="patch_64">
    <path clip-path="url(#pa6b09d3784)" d="M 151.641292 434.11375 
L 153.536333 434.11375 
L 153.536333 434.11375 
L 151.641292 434.11375 
z
" style="fill:#0000ff;stroke:#000000;stroke-linejoin:miter;"/>
   </g>
   <g id="patch_65">
    <path clip-path="url(#pa6b09d3784)" d="M 153.536333 434.11375 
L 155.431375 434.11375 
L 155.431375 434.11375 
L 153.536333 434.11375 
z
" style="fill:#0000ff;stroke:#000000;stroke-linejoin:miter;"/>
   </g>
   <g id="patch_66">
    <path clip-path="url(#pa6b09d3784)" d="M 155.431375 434.11375 
L 157.326417 434.11375 
L 157.326417 434.11375 
L 155.431375 434.11375 
z
" style="fill:#0000ff;stroke:#000000;stroke-linejoin:miter;"/>
   </g>
   <g id="patch_67">
    <path clip-path="url(#pa6b09d3784)" d="M 157.326417 434.11375 
L 159.221458 434.11375 
L 159.221458 434.11375 
L 157.326417 434.11375 
z
" style="fill:#0000ff;stroke:#000000;stroke-linejoin:miter;"/>
   </g>
   <g id="patch_68">
    <path clip-path="url(#pa6b09d3784)" d="M 159.221458 434.11375 
L 161.1165 434.11375 
L 161.1165 434.11375 
L 159.221458 434.11375 
z
" style="fill:#0000ff;stroke:#000000;stroke-linejoin:miter;"/>
   </g>
   <g id="patch_69">
    <path clip-path="url(#pa6b09d3784)" d="M 161.1165 434.11375 
L 163.011542 434.11375 
L 163.011542 434.11375 
L 161.1165 434.11375 
z
" style="fill:#0000ff;stroke:#000000;stroke-linejoin:miter;"/>
   </g>
   <g id="patch_70">
    <path clip-path="url(#pa6b09d3784)" d="M 163.011542 434.11375 
L 164.906583 434.11375 
L 164.906583 434.11375 
L 163.011542 434.11375 
z
" style="fill:#0000ff;stroke:#000000;stroke-linejoin:miter;"/>
   </g>
   <g id="patch_71">
    <path clip-path="url(#pa6b09d3784)" d="M 164.906583 434.11375 
L 166.801625 434.11375 
L 166.801625 434.11375 
L 164.906583 434.11375 
z
" style="fill:#0000ff;stroke:#000000;stroke-linejoin:miter;"/>
   </g>
   <g id="patch_72">
    <path clip-path="url(#pa6b09d3784)" d="M 166.801625 434.11375 
L 168.696667 434.11375 
L 168.696667 434.11375 
L 166.801625 434.11375 
z
" style="fill:#0000ff;stroke:#000000;stroke-linejoin:miter;"/>
   </g>
   <g id="patch_73">
    <path clip-path="url(#pa6b09d3784)" d="M 168.696667 434.11375 
L 170.591708 434.11375 
L 170.591708 434.11375 
L 168.696667 434.11375 
z
" style="fill:#0000ff;stroke:#000000;stroke-linejoin:miter;"/>
   </g>
   <g id="patch_74">
    <path clip-path="url(#pa6b09d3784)" d="M 170.591708 434.11375 
L 172.48675 434.11375 
L 172.48675 434.11375 
L 170.591708 434.11375 
z
" style="fill:#0000ff;stroke:#000000;stroke-linejoin:miter;"/>
   </g>
   <g id="patch_75">
    <path clip-path="url(#pa6b09d3784)" d="M 172.48675 434.11375 
L 174.381792 434.11375 
L 174.381792 434.11375 
L 172.48675 434.11375 
z
" style="fill:#0000ff;stroke:#000000;stroke-linejoin:miter;"/>
   </g>
   <g id="patch_76">
    <path clip-path="url(#pa6b09d3784)" d="M 174.381792 434.11375 
L 176.276833 434.11375 
L 176.276833 434.11375 
L 174.381792 434.11375 
z
" style="fill:#0000ff;stroke:#000000;stroke-linejoin:miter;"/>
   </g>
   <g id="patch_77">
    <path clip-path="url(#pa6b09d3784)" d="M 176.276833 434.11375 
L 178.171875 434.11375 
L 178.171875 434.11375 
L 176.276833 434.11375 
z
" style="fill:#0000ff;stroke:#000000;stroke-linejoin:miter;"/>
   </g>
   <g id="patch_78">
    <path clip-path="url(#pa6b09d3784)" d="M 178.171875 434.11375 
L 180.066917 434.11375 
L 180.066917 434.11375 
L 178.171875 434.11375 
z
" style="fill:#0000ff;stroke:#000000;stroke-linejoin:miter;"/>
   </g>
   <g id="patch_79">
    <path clip-path="url(#pa6b09d3784)" d="M 180.066917 434.11375 
L 181.961958 434.11375 
L 181.961958 434.11375 
L 180.066917 434.11375 
z
" style="fill:#0000ff;stroke:#000000;stroke-linejoin:miter;"/>
   </g>
   <g id="patch_80">
    <path clip-path="url(#pa6b09d3784)" d="M 181.961958 434.11375 
L 183.857 434.11375 
L 183.857 434.11375 
L 181.961958 434.11375 
z
" style="fill:#0000ff;stroke:#000000;stroke-linejoin:miter;"/>
   </g>
   <g id="patch_81">
    <path clip-path="url(#pa6b09d3784)" d="M 183.857 434.11375 
L 185.752042 434.11375 
L 185.752042 434.11375 
L 183.857 434.11375 
z
" style="fill:#0000ff;stroke:#000000;stroke-linejoin:miter;"/>
   </g>
   <g id="patch_82">
    <path clip-path="url(#pa6b09d3784)" d="M 185.752042 434.11375 
L 187.647083 434.11375 
L 187.647083 434.11375 
L 185.752042 434.11375 
z
" style="fill:#0000ff;stroke:#000000;stroke-linejoin:miter;"/>
   </g>
   <g id="patch_83">
    <path clip-path="url(#pa6b09d3784)" d="M 187.647083 434.11375 
L 189.542125 434.11375 
L 189.542125 434.11375 
L 187.647083 434.11375 
z
" style="fill:#0000ff;stroke:#000000;stroke-linejoin:miter;"/>
   </g>
   <g id="patch_84">
    <path clip-path="url(#pa6b09d3784)" d="M 189.542125 434.11375 
L 191.437167 434.11375 
L 191.437167 434.11375 
L 189.542125 434.11375 
z
" style="fill:#0000ff;stroke:#000000;stroke-linejoin:miter;"/>
   </g>
   <g id="patch_85">
    <path clip-path="url(#pa6b09d3784)" d="M 191.437167 434.11375 
L 193.332208 434.11375 
L 193.332208 434.11375 
L 191.437167 434.11375 
z
" style="fill:#0000ff;stroke:#000000;stroke-linejoin:miter;"/>
   </g>
   <g id="patch_86">
    <path clip-path="url(#pa6b09d3784)" d="M 193.332208 434.11375 
L 195.22725 434.11375 
L 195.22725 434.11375 
L 193.332208 434.11375 
z
" style="fill:#0000ff;stroke:#000000;stroke-linejoin:miter;"/>
   </g>
   <g id="patch_87">
    <path clip-path="url(#pa6b09d3784)" d="M 195.22725 434.11375 
L 197.122292 434.11375 
L 197.122292 434.11375 
L 195.22725 434.11375 
z
" style="fill:#0000ff;stroke:#000000;stroke-linejoin:miter;"/>
   </g>
   <g id="patch_88">
    <path clip-path="url(#pa6b09d3784)" d="M 197.122292 434.11375 
L 199.017333 434.11375 
L 199.017333 434.11375 
L 197.122292 434.11375 
z
" style="fill:#0000ff;stroke:#000000;stroke-linejoin:miter;"/>
   </g>
   <g id="patch_89">
    <path clip-path="url(#pa6b09d3784)" d="M 199.017333 434.11375 
L 200.912375 434.11375 
L 200.912375 434.11375 
L 199.017333 434.11375 
z
" style="fill:#0000ff;stroke:#000000;stroke-linejoin:miter;"/>
   </g>
   <g id="patch_90">
    <path clip-path="url(#pa6b09d3784)" d="M 200.912375 434.11375 
L 202.807417 434.11375 
L 202.807417 434.11375 
L 200.912375 434.11375 
z
" style="fill:#0000ff;stroke:#000000;stroke-linejoin:miter;"/>
   </g>
   <g id="patch_91">
    <path clip-path="url(#pa6b09d3784)" d="M 202.807417 434.11375 
L 204.702458 434.11375 
L 204.702458 434.11375 
L 202.807417 434.11375 
z
" style="fill:#0000ff;stroke:#000000;stroke-linejoin:miter;"/>
   </g>
   <g id="patch_92">
    <path clip-path="url(#pa6b09d3784)" d="M 204.702458 434.11375 
L 206.5975 434.11375 
L 206.5975 434.11375 
L 204.702458 434.11375 
z
" style="fill:#0000ff;stroke:#000000;stroke-linejoin:miter;"/>
   </g>
   <g id="patch_93">
    <path clip-path="url(#pa6b09d3784)" d="M 206.5975 434.11375 
L 208.492542 434.11375 
L 208.492542 434.11375 
L 206.5975 434.11375 
z
" style="fill:#0000ff;stroke:#000000;stroke-linejoin:miter;"/>
   </g>
   <g id="patch_94">
    <path clip-path="url(#pa6b09d3784)" d="M 208.492542 434.11375 
L 210.387583 434.11375 
L 210.387583 434.11375 
L 208.492542 434.11375 
z
" style="fill:#0000ff;stroke:#000000;stroke-linejoin:miter;"/>
   </g>
   <g id="patch_95">
    <path clip-path="url(#pa6b09d3784)" d="M 210.387583 434.11375 
L 212.282625 434.11375 
L 212.282625 434.11375 
L 210.387583 434.11375 
z
" style="fill:#0000ff;stroke:#000000;stroke-linejoin:miter;"/>
   </g>
   <g id="patch_96">
    <path clip-path="url(#pa6b09d3784)" d="M 212.282625 434.11375 
L 214.177667 434.11375 
L 214.177667 434.11375 
L 212.282625 434.11375 
z
" style="fill:#0000ff;stroke:#000000;stroke-linejoin:miter;"/>
   </g>
   <g id="patch_97">
    <path clip-path="url(#pa6b09d3784)" d="M 214.177667 434.11375 
L 216.072708 434.11375 
L 216.072708 434.11375 
L 214.177667 434.11375 
z
" style="fill:#0000ff;stroke:#000000;stroke-linejoin:miter;"/>
   </g>
   <g id="patch_98">
    <path clip-path="url(#pa6b09d3784)" d="M 216.072708 434.11375 
L 217.96775 434.11375 
L 217.96775 434.11375 
L 216.072708 434.11375 
z
" style="fill:#0000ff;stroke:#000000;stroke-linejoin:miter;"/>
   </g>
   <g id="patch_99">
    <path clip-path="url(#pa6b09d3784)" d="M 217.96775 434.11375 
L 219.862792 434.11375 
L 219.862792 434.11375 
L 217.96775 434.11375 
z
" style="fill:#0000ff;stroke:#000000;stroke-linejoin:miter;"/>
   </g>
   <g id="patch_100">
    <path clip-path="url(#pa6b09d3784)" d="M 219.862792 434.11375 
L 221.757833 434.11375 
L 221.757833 434.11375 
L 219.862792 434.11375 
z
" style="fill:#0000ff;stroke:#000000;stroke-linejoin:miter;"/>
   </g>
   <g id="patch_101">
    <path clip-path="url(#pa6b09d3784)" d="M 221.757833 434.11375 
L 223.652875 434.11375 
L 223.652875 434.11375 
L 221.757833 434.11375 
z
" style="fill:#0000ff;stroke:#000000;stroke-linejoin:miter;"/>
   </g>
   <g id="patch_102">
    <path clip-path="url(#pa6b09d3784)" d="M 223.652875 434.11375 
L 225.547917 434.11375 
L 225.547917 434.11375 
L 223.652875 434.11375 
z
" style="fill:#0000ff;stroke:#000000;stroke-linejoin:miter;"/>
   </g>
   <g id="patch_103">
    <path clip-path="url(#pa6b09d3784)" d="M 225.547917 434.11375 
L 227.442958 434.11375 
L 227.442958 434.11375 
L 225.547917 434.11375 
z
" style="fill:#0000ff;stroke:#000000;stroke-linejoin:miter;"/>
   </g>
   <g id="patch_104">
    <path clip-path="url(#pa6b09d3784)" d="M 227.442958 434.11375 
L 229.338 434.11375 
L 229.338 434.11375 
L 227.442958 434.11375 
z
" style="fill:#0000ff;stroke:#000000;stroke-linejoin:miter;"/>
   </g>
   <g id="patch_105">
    <path clip-path="url(#pa6b09d3784)" d="M 229.338 434.11375 
L 231.233042 434.11375 
L 231.233042 434.11375 
L 229.338 434.11375 
z
" style="fill:#0000ff;stroke:#000000;stroke-linejoin:miter;"/>
   </g>
   <g id="patch_106">
    <path clip-path="url(#pa6b09d3784)" d="M 231.233042 434.11375 
L 233.128083 434.11375 
L 233.128083 434.11375 
L 231.233042 434.11375 
z
" style="fill:#0000ff;stroke:#000000;stroke-linejoin:miter;"/>
   </g>
   <g id="patch_107">
    <path clip-path="url(#pa6b09d3784)" d="M 233.128083 434.11375 
L 235.023125 434.11375 
L 235.023125 434.11223 
L 233.128083 434.11223 
z
" style="fill:#0000ff;stroke:#000000;stroke-linejoin:miter;"/>
   </g>
   <g id="patch_108">
    <path clip-path="url(#pa6b09d3784)" d="M 235.023125 434.11375 
L 236.918167 434.11375 
L 236.918167 434.11223 
L 235.023125 434.11223 
z
" style="fill:#0000ff;stroke:#000000;stroke-linejoin:miter;"/>
   </g>
   <g id="patch_109">
    <path clip-path="url(#pa6b09d3784)" d="M 236.918167 434.11375 
L 238.813208 434.11375 
L 238.813208 434.10919 
L 236.918167 434.10919 
z
" style="fill:#0000ff;stroke:#000000;stroke-linejoin:miter;"/>
   </g>
   <g id="patch_110">
    <path clip-path="url(#pa6b09d3784)" d="M 238.813208 434.11375 
L 240.70825 434.11375 
L 240.70825 434.103111 
L 238.813208 434.103111 
z
" style="fill:#0000ff;stroke:#000000;stroke-linejoin:miter;"/>
   </g>
   <g id="patch_111">
    <path clip-path="url(#pa6b09d3784)" d="M 240.70825 434.11375 
L 242.603292 434.11375 
L 242.603292 434.098551 
L 240.70825 434.098551 
z
" style="fill:#0000ff;stroke:#000000;stroke-linejoin:miter;"/>
   </g>
   <g id="patch_112">
    <path clip-path="url(#pa6b09d3784)" d="M 242.603292 434.11375 
L 244.498333 434.11375 
L 244.498333 434.095512 
L 242.603292 434.095512 
z
" style="fill:#0000ff;stroke:#000000;stroke-linejoin:miter;"/>
   </g>
   <g id="patch_113">
    <path clip-path="url(#pa6b09d3784)" d="M 244.498333 434.11375 
L 246.393375 434.11375 
L 246.393375 434.086393 
L 244.498333 434.086393 
z
" style="fill:#0000ff;stroke:#000000;stroke-linejoin:miter;"/>
   </g>
   <g id="patch_114">
    <path clip-path="url(#pa6b09d3784)" d="M 246.393375 434.11375 
L 248.288417 434.11375 
L 248.288417 434.068154 
L 246.393375 434.068154 
z
" style="fill:#0000ff;stroke:#000000;stroke-linejoin:miter;"/>
   </g>
   <g id="patch_115">
    <path clip-path="url(#pa6b09d3784)" d="M 248.288417 434.11375 
L 250.183458 434.11375 
L 250.183458 434.031678 
L 248.288417 434.031678 
z
" style="fill:#0000ff;stroke:#000000;stroke-linejoin:miter;"/>
   </g>
   <g id="patch_116">
    <path clip-path="url(#pa6b09d3784)" d="M 250.183458 434.11375 
L 252.0785 434.11375 
L 252.0785 433.995201 
L 250.183458 433.995201 
z
" style="fill:#0000ff;stroke:#000000;stroke-linejoin:miter;"/>
   </g>
   <g id="patch_117">
    <path clip-path="url(#pa6b09d3784)" d="M 252.0785 434.11375 
L 253.973542 434.11375 
L 253.973542 433.946566 
L 252.0785 433.946566 
z
" style="fill:#0000ff;stroke:#000000;stroke-linejoin:miter;"/>
   </g>
   <g id="patch_118">
    <path clip-path="url(#pa6b09d3784)" d="M 253.973542 434.11375 
L 255.868583 434.11375 
L 255.868583 433.876652 
L 253.973542 433.876652 
z
" style="fill:#0000ff;stroke:#000000;stroke-linejoin:miter;"/>
   </g>
   <g id="patch_119">
    <path clip-path="url(#pa6b09d3784)" d="M 255.868583 434.11375 
L 257.763625 434.11375 
L 257.763625 433.776341 
L 255.868583 433.776341 
z
" style="fill:#0000ff;stroke:#000000;stroke-linejoin:miter;"/>
   </g>
   <g id="patch_120">
    <path clip-path="url(#pa6b09d3784)" d="M 257.763625 434.11375 
L 259.658667 434.11375 
L 259.658667 433.627395 
L 257.763625 433.627395 
z
" style="fill:#0000ff;stroke:#000000;stroke-linejoin:miter;"/>
   </g>
   <g id="patch_121">
    <path clip-path="url(#pa6b09d3784)" d="M 259.658667 434.11375 
L 261.553708 434.11375 
L 261.553708 433.435893 
L 259.658667 433.435893 
z
" style="fill:#0000ff;stroke:#000000;stroke-linejoin:miter;"/>
   </g>
   <g id="patch_122">
    <path clip-path="url(#pa6b09d3784)" d="M 261.553708 434.11375 
L 263.44875 434.11375 
L 263.44875 433.165358 
L 261.553708 433.165358 
z
" style="fill:#0000ff;stroke:#000000;stroke-linejoin:miter;"/>
   </g>
   <g id="patch_123">
    <path clip-path="url(#pa6b09d3784)" d="M 263.44875 434.11375 
L 265.343792 434.11375 
L 265.343792 432.707881 
L 263.44875 432.707881 
z
" style="fill:#0000ff;stroke:#000000;stroke-linejoin:miter;"/>
   </g>
   <g id="patch_124">
    <path clip-path="url(#pa6b09d3784)" d="M 265.343792 434.11375 
L 267.238833 434.11375 
L 267.238833 432.087779 
L 265.343792 432.087779 
z
" style="fill:#0000ff;stroke:#000000;stroke-linejoin:miter;"/>
   </g>
   <g id="patch_125">
    <path clip-path="url(#pa6b09d3784)" d="M 267.238833 434.11375 
L 269.133875 434.11375 
L 269.133875 431.226019 
L 267.238833 431.226019 
z
" style="fill:#0000ff;stroke:#000000;stroke-linejoin:miter;"/>
   </g>
   <g id="patch_126">
    <path clip-path="url(#pa6b09d3784)" d="M 269.133875 434.11375 
L 271.028917 434.11375 
L 271.028917 430.095245 
L 269.133875 430.095245 
z
" style="fill:#0000ff;stroke:#000000;stroke-linejoin:miter;"/>
   </g>
   <g id="patch_127">
    <path clip-path="url(#pa6b09d3784)" d="M 271.028917 434.11375 
L 272.923958 434.11375 
L 272.923958 428.569307 
L 271.028917 428.569307 
z
" style="fill:#0000ff;stroke:#000000;stroke-linejoin:miter;"/>
   </g>
   <g id="patch_128">
    <path clip-path="url(#pa6b09d3784)" d="M 272.923958 434.11375 
L 274.819 434.11375 
L 274.819 426.829069 
L 272.923958 426.829069 
z
" style="fill:#0000ff;stroke:#000000;stroke-linejoin:miter;"/>
   </g>
   <g id="patch_129">
    <path clip-path="url(#pa6b09d3784)" d="M 274.819 434.11375 
L 276.714042 434.11375 
L 276.714042 424.632874 
L 274.819 424.632874 
z
" style="fill:#0000ff;stroke:#000000;stroke-linejoin:miter;"/>
   </g>
   <g id="patch_130">
    <path clip-path="url(#pa6b09d3784)" d="M 276.714042 434.11375 
L 278.609083 434.11375 
L 278.609083 422.079512 
L 276.714042 422.079512 
z
" style="fill:#0000ff;stroke:#000000;stroke-linejoin:miter;"/>
   </g>
   <g id="patch_131">
    <path clip-path="url(#pa6b09d3784)" d="M 278.609083 434.11375 
L 280.504125 434.11375 
L 280.504125 418.98964 
L 278.609083 418.98964 
z
" style="fill:#0000ff;stroke:#000000;stroke-linejoin:miter;"/>
   </g>
   <g id="patch_132">
    <path clip-path="url(#pa6b09d3784)" d="M 280.504125 434.11375 
L 282.399167 434.11375 
L 282.399167 414.828268 
L 280.504125 414.828268 
z
" style="fill:#0000ff;stroke:#000000;stroke-linejoin:miter;"/>
   </g>
   <g id="patch_133">
    <path clip-path="url(#pa6b09d3784)" d="M 282.399167 434.11375 
L 284.294208 434.11375 
L 284.294208 409.706346 
L 282.399167 409.706346 
z
" style="fill:#0000ff;stroke:#000000;stroke-linejoin:miter;"/>
   </g>
   <g id="patch_134">
    <path clip-path="url(#pa6b09d3784)" d="M 284.294208 434.11375 
L 286.18925 434.11375 
L 286.18925 403.429331 
L 284.294208 403.429331 
z
" style="fill:#0000ff;stroke:#000000;stroke-linejoin:miter;"/>
   </g>
   <g id="patch_135">
    <path clip-path="url(#pa6b09d3784)" d="M 286.18925 434.11375 
L 288.084292 434.11375 
L 288.084292 395.409039 
L 286.18925 395.409039 
z
" style="fill:#0000ff;stroke:#000000;stroke-linejoin:miter;"/>
   </g>
   <g id="patch_136">
    <path clip-path="url(#pa6b09d3784)" d="M 288.084292 434.11375 
L 289.979333 434.11375 
L 289.979333 385.774657 
L 288.084292 385.774657 
z
" style="fill:#0000ff;stroke:#000000;stroke-linejoin:miter;"/>
   </g>
   <g id="patch_137">
    <path clip-path="url(#pa6b09d3784)" d="M 289.979333 434.11375 
L 291.874375 434.11375 
L 291.874375 374.510987 
L 289.979333 374.510987 
z
" style="fill:#0000ff;stroke:#000000;stroke-linejoin:miter;"/>
   </g>
   <g id="patch_138">
    <path clip-path="url(#pa6b09d3784)" d="M 291.874375 434.11375 
L 293.769417 434.11375 
L 293.769417 361.60739 
L 291.874375 361.60739 
z
" style="fill:#0000ff;stroke:#000000;stroke-linejoin:miter;"/>
   </g>
   <g id="patch_139">
    <path clip-path="url(#pa6b09d3784)" d="M 293.769417 434.11375 
L 295.664458 434.11375 
L 295.664458 347.115541 
L 293.769417 347.115541 
z
" style="fill:#0000ff;stroke:#000000;stroke-linejoin:miter;"/>
   </g>
   <g id="patch_140">
    <path clip-path="url(#pa6b09d3784)" d="M 295.664458 434.11375 
L 297.5595 434.11375 
L 297.5595 330.732989 
L 295.664458 330.732989 
z
" style="fill:#0000ff;stroke:#000000;stroke-linejoin:miter;"/>
   </g>
   <g id="patch_141">
    <path clip-path="url(#pa6b09d3784)" d="M 297.5595 434.11375 
L 299.454542 434.11375 
L 299.454542 314.383873 
L 297.5595 314.383873 
z
" style="fill:#0000ff;stroke:#000000;stroke-linejoin:miter;"/>
   </g>
   <g id="patch_142">
    <path clip-path="url(#pa6b09d3784)" d="M 299.454542 434.11375 
L 301.349583 434.11375 
L 301.349583 299.027225 
L 299.454542 299.027225 
z
" style="fill:#0000ff;stroke:#000000;stroke-linejoin:miter;"/>
   </g>
   <g id="patch_143">
    <path clip-path="url(#pa6b09d3784)" d="M 301.349583 434.11375 
L 303.244625 434.11375 
L 303.244625 284.869745 
L 301.349583 284.869745 
z
" style="fill:#0000ff;stroke:#000000;stroke-linejoin:miter;"/>
   </g>
   <g id="patch_144">
    <path clip-path="url(#pa6b09d3784)" d="M 303.244625 434.11375 
L 305.139667 434.11375 
L 305.139667 271.256374 
L 303.244625 271.256374 
z
" style="fill:#0000ff;stroke:#000000;stroke-linejoin:miter;"/>
   </g>
   <g id="patch_145">
    <path clip-path="url(#pa6b09d3784)" d="M 305.139667 434.11375 
L 307.034708 434.11375 
L 307.034708 258.266145 
L 305.139667 258.266145 
z
" style="fill:#0000ff;stroke:#000000;stroke-linejoin:miter;"/>
   </g>
   <g id="patch_146">
    <path clip-path="url(#pa6b09d3784)" d="M 307.034708 434.11375 
L 308.92975 434.11375 
L 308.92975 245.821545 
L 307.034708 245.821545 
z
" style="fill:#0000ff;stroke:#000000;stroke-linejoin:miter;"/>
   </g>
   <g id="patch_147">
    <path clip-path="url(#pa6b09d3784)" d="M 308.92975 434.11375 
L 310.824792 434.11375 
L 310.824792 233.986409 
L 308.92975 233.986409 
z
" style="fill:#0000ff;stroke:#000000;stroke-linejoin:miter;"/>
   </g>
   <g id="patch_148">
    <path clip-path="url(#pa6b09d3784)" d="M 310.824792 434.11375 
L 312.719833 434.11375 
L 312.719833 222.351894 
L 310.824792 222.351894 
z
" style="fill:#0000ff;stroke:#000000;stroke-linejoin:miter;"/>
   </g>
   <g id="patch_149">
    <path clip-path="url(#pa6b09d3784)" d="M 312.719833 434.11375 
L 314.614875 434.11375 
L 314.614875 211.217412 
L 312.719833 211.217412 
z
" style="fill:#0000ff;stroke:#000000;stroke-linejoin:miter;"/>
   </g>
   <g id="patch_150">
    <path clip-path="url(#pa6b09d3784)" d="M 314.614875 434.11375 
L 316.509917 434.11375 
L 316.509917 199.9735 
L 314.614875 199.9735 
z
" style="fill:#0000ff;stroke:#000000;stroke-linejoin:miter;"/>
   </g>
   <g id="patch_151">
    <path clip-path="url(#pa6b09d3784)" d="M 316.509917 434.11375 
L 318.404958 434.11375 
L 318.404958 189.042679 
L 316.509917 189.042679 
z
" style="fill:#0000ff;stroke:#000000;stroke-linejoin:miter;"/>
   </g>
   <g id="patch_152">
    <path clip-path="url(#pa6b09d3784)" d="M 318.404958 434.11375 
L 320.3 434.11375 
L 320.3 178.487263 
L 318.404958 178.487263 
z
" style="fill:#0000ff;stroke:#000000;stroke-linejoin:miter;"/>
   </g>
   <g id="patch_153">
    <path clip-path="url(#pa6b09d3784)" d="M 320.3 434.11375 
L 322.195042 434.11375 
L 322.195042 168.027599 
L 320.3 168.027599 
z
" style="fill:#0000ff;stroke:#000000;stroke-linejoin:miter;"/>
   </g>
   <g id="patch_154">
    <path clip-path="url(#pa6b09d3784)" d="M 322.195042 434.11375 
L 324.090083 434.11375 
L 324.090083 157.686483 
L 322.195042 157.686483 
z
" style="fill:#0000ff;stroke:#000000;stroke-linejoin:miter;"/>
   </g>
   <g id="patch_155">
    <path clip-path="url(#pa6b09d3784)" d="M 324.090083 434.11375 
L 325.985125 434.11375 
L 325.985125 147.549028 
L 324.090083 147.549028 
z
" style="fill:#0000ff;stroke:#000000;stroke-linejoin:miter;"/>
   </g>
   <g id="patch_156">
    <path clip-path="url(#pa6b09d3784)" d="M 325.985125 434.11375 
L 327.880167 434.11375 
L 327.880167 137.484526 
L 325.985125 137.484526 
z
" style="fill:#0000ff;stroke:#000000;stroke-linejoin:miter;"/>
   </g>
   <g id="patch_157">
    <path clip-path="url(#pa6b09d3784)" d="M 327.880167 434.11375 
L 329.775208 434.11375 
L 329.775208 127.965654 
L 327.880167 127.965654 
z
" style="fill:#0000ff;stroke:#000000;stroke-linejoin:miter;"/>
   </g>
   <g id="patch_158">
    <path clip-path="url(#pa6b09d3784)" d="M 329.775208 434.11375 
L 331.67025 434.11375 
L 331.67025 119.389093 
L 329.775208 119.389093 
z
" style="fill:#0000ff;stroke:#000000;stroke-linejoin:miter;"/>
   </g>
   <g id="patch_159">
    <path clip-path="url(#pa6b09d3784)" d="M 331.67025 434.11375 
L 333.565292 434.11375 
L 333.565292 111.844517 
L 331.67025 111.844517 
z
" style="fill:#0000ff;stroke:#000000;stroke-linejoin:miter;"/>
   </g>
   <g id="patch_160">
    <path clip-path="url(#pa6b09d3784)" d="M 333.565292 434.11375 
L 335.460333 434.11375 
L 335.460333 104.661667 
L 333.565292 104.661667 
z
" style="fill:#0000ff;stroke:#000000;stroke-linejoin:miter;"/>
   </g>
   <g id="patch_161">
    <path clip-path="url(#pa6b09d3784)" d="M 335.460333 434.11375 
L 337.355375 434.11375 
L 337.355375 98.218987 
L 335.460333 98.218987 
z
" style="fill:#0000ff;stroke:#000000;stroke-linejoin:miter;"/>
   </g>
   <g id="patch_162">
    <path clip-path="url(#pa6b09d3784)" d="M 337.355375 434.11375 
L 339.250417 434.11375 
L 339.250417 92.253543 
L 337.355375 92.253543 
z
" style="fill:#0000ff;stroke:#000000;stroke-linejoin:miter;"/>
   </g>
   <g id="patch_163">
    <path clip-path="url(#pa6b09d3784)" d="M 339.250417 434.11375 
L 341.145458 434.11375 
L 341.145458 86.81853 
L 339.250417 86.81853 
z
" style="fill:#0000ff;stroke:#000000;stroke-linejoin:miter;"/>
   </g>
   <g id="patch_164">
    <path clip-path="url(#pa6b09d3784)" d="M 341.145458 434.11375 
L 343.0405 434.11375 
L 343.0405 81.742203 
L 341.145458 81.742203 
z
" style="fill:#0000ff;stroke:#000000;stroke-linejoin:miter;"/>
   </g>
   <g id="patch_165">
    <path clip-path="url(#pa6b09d3784)" d="M 343.0405 434.11375 
L 344.935542 434.11375 
L 344.935542 76.922733 
L 343.0405 76.922733 
z
" style="fill:#0000ff;stroke:#000000;stroke-linejoin:miter;"/>
   </g>
   <g id="patch_166">
    <path clip-path="url(#pa6b09d3784)" d="M 344.935542 434.11375 
L 346.830583 434.11375 
L 346.830583 72.388996 
L 344.935542 72.388996 
z
" style="fill:#0000ff;stroke:#000000;stroke-linejoin:miter;"/>
   </g>
   <g id="patch_167">
    <path clip-path="url(#pa6b09d3784)" d="M 346.830583 434.11375 
L 348.725625 434.11375 
L 348.725625 68.271699 
L 346.830583 68.271699 
z
" style="fill:#0000ff;stroke:#000000;stroke-linejoin:miter;"/>
   </g>
   <g id="patch_168">
    <path clip-path="url(#pa6b09d3784)" d="M 348.725625 434.11375 
L 350.620667 434.11375 
L 350.620667 64.72891 
L 348.725625 64.72891 
z
" style="fill:#0000ff;stroke:#000000;stroke-linejoin:miter;"/>
   </g>
   <g id="patch_169">
    <path clip-path="url(#pa6b09d3784)" d="M 350.620667 434.11375 
L 352.515708 434.11375 
L 352.515708 61.529608 
L 350.620667 61.529608 
z
" style="fill:#0000ff;stroke:#000000;stroke-linejoin:miter;"/>
   </g>
   <g id="patch_170">
    <path clip-path="url(#pa6b09d3784)" d="M 352.515708 434.11375 
L 354.41075 434.11375 
L 354.41075 58.532447 
L 352.515708 58.532447 
z
" style="fill:#0000ff;stroke:#000000;stroke-linejoin:miter;"/>
   </g>
   <g id="patch_171">
    <path clip-path="url(#pa6b09d3784)" d="M 354.41075 434.11375 
L 356.305792 434.11375 
L 356.305792 55.787583 
L 354.41075 55.787583 
z
" style="fill:#0000ff;stroke:#000000;stroke-linejoin:miter;"/>
   </g>
   <g id="patch_172">
    <path clip-path="url(#pa6b09d3784)" d="M 356.305792 434.11375 
L 358.200833 434.11375 
L 358.200833 53.348211 
L 356.305792 53.348211 
z
" style="fill:#0000ff;stroke:#000000;stroke-linejoin:miter;"/>
   </g>
   <g id="patch_173">
    <path clip-path="url(#pa6b09d3784)" d="M 358.200833 434.11375 
L 360.095875 434.11375 
L 360.095875 51.136817 
L 358.200833 51.136817 
z
" style="fill:#0000ff;stroke:#000000;stroke-linejoin:miter;"/>
   </g>
   <g id="patch_174">
    <path clip-path="url(#pa6b09d3784)" d="M 360.095875 434.11375 
L 361.990917 434.11375 
L 361.990917 49.088048 
L 360.095875 49.088048 
z
" style="fill:#0000ff;stroke:#000000;stroke-linejoin:miter;"/>
   </g>
   <g id="patch_175">
    <path clip-path="url(#pa6b09d3784)" d="M 361.990917 434.11375 
L 363.885958 434.11375 
L 363.885958 47.192785 
L 361.990917 47.192785 
z
" style="fill:#0000ff;stroke:#000000;stroke-linejoin:miter;"/>
   </g>
   <g id="patch_176">
    <path clip-path="url(#pa6b09d3784)" d="M 363.885958 434.11375 
L 365.781 434.11375 
L 365.781 45.472305 
L 363.885958 45.472305 
z
" style="fill:#0000ff;stroke:#000000;stroke-linejoin:miter;"/>
   </g>
   <g id="patch_177">
    <path clip-path="url(#pa6b09d3784)" d="M 365.781 434.11375 
L 367.676042 434.11375 
L 367.676042 43.739667 
L 365.781 43.739667 
z
" style="fill:#0000ff;stroke:#000000;stroke-linejoin:miter;"/>
   </g>
   <g id="patch_178">
    <path clip-path="url(#pa6b09d3784)" d="M 367.676042 434.11375 
L 369.571083 434.11375 
L 369.571083 42.289722 
L 367.676042 42.289722 
z
" style="fill:#0000ff;stroke:#000000;stroke-linejoin:miter;"/>
   </g>
   <g id="patch_179">
    <path clip-path="url(#pa6b09d3784)" d="M 369.571083 434.11375 
L 371.466125 434.11375 
L 371.466125 40.959846 
L 369.571083 40.959846 
z
" style="fill:#0000ff;stroke:#000000;stroke-linejoin:miter;"/>
   </g>
   <g id="patch_180">
    <path clip-path="url(#pa6b09d3784)" d="M 371.466125 434.11375 
L 373.361167 434.11375 
L 373.361167 39.822992 
L 371.466125 39.822992 
z
" style="fill:#0000ff;stroke:#000000;stroke-linejoin:miter;"/>
   </g>
   <g id="patch_181">
    <path clip-path="url(#pa6b09d3784)" d="M 373.361167 434.11375 
L 375.256208 434.11375 
L 375.256208 38.733253 
L 373.361167 38.733253 
z
" style="fill:#0000ff;stroke:#000000;stroke-linejoin:miter;"/>
   </g>
   <g id="patch_182">
    <path clip-path="url(#pa6b09d3784)" d="M 375.256208 434.11375 
L 377.15125 434.11375 
L 377.15125 37.722548 
L 375.256208 37.722548 
z
" style="fill:#0000ff;stroke:#000000;stroke-linejoin:miter;"/>
   </g>
   <g id="patch_183">
    <path clip-path="url(#pa6b09d3784)" d="M 377.15125 434.11375 
L 379.046292 434.11375 
L 379.046292 36.812153 
L 377.15125 36.812153 
z
" style="fill:#0000ff;stroke:#000000;stroke-linejoin:miter;"/>
   </g>
   <g id="patch_184">
    <path clip-path="url(#pa6b09d3784)" d="M 379.046292 434.11375 
L 380.941333 434.11375 
L 380.941333 36.026386 
L 379.046292 36.026386 
z
" style="fill:#0000ff;stroke:#000000;stroke-linejoin:miter;"/>
   </g>
   <g id="patch_185">
    <path clip-path="url(#pa6b09d3784)" d="M 380.941333 434.11375 
L 382.836375 434.11375 
L 382.836375 35.260377 
L 380.941333 35.260377 
z
" style="fill:#0000ff;stroke:#000000;stroke-linejoin:miter;"/>
   </g>
   <g id="patch_186">
    <path clip-path="url(#pa6b09d3784)" d="M 382.836375 434.11375 
L 384.731417 434.11375 
L 384.731417 34.448773 
L 382.836375 34.448773 
z
" style="fill:#0000ff;stroke:#000000;stroke-linejoin:miter;"/>
   </g>
   <g id="patch_187">
    <path clip-path="url(#pa6b09d3784)" d="M 384.731417 434.11375 
L 386.626458 434.11375 
L 386.626458 33.603732 
L 384.731417 33.603732 
z
" style="fill:#0000ff;stroke:#000000;stroke-linejoin:miter;"/>
   </g>
   <g id="patch_188">
    <path clip-path="url(#pa6b09d3784)" d="M 386.626458 434.11375 
L 388.5215 434.11375 
L 388.5215 32.772369 
L 386.626458 32.772369 
z
" style="fill:#0000ff;stroke:#000000;stroke-linejoin:miter;"/>
   </g>
   <g id="patch_189">
    <path clip-path="url(#pa6b09d3784)" d="M 388.5215 434.11375 
L 390.416542 434.11375 
L 390.416542 31.934927 
L 388.5215 31.934927 
z
" style="fill:#0000ff;stroke:#000000;stroke-linejoin:miter;"/>
   </g>
   <g id="patch_190">
    <path clip-path="url(#pa6b09d3784)" d="M 390.416542 434.11375 
L 392.311583 434.11375 
L 392.311583 30.988056 
L 390.416542 30.988056 
z
" style="fill:#0000ff;stroke:#000000;stroke-linejoin:miter;"/>
   </g>
   <g id="patch_191">
    <path clip-path="url(#pa6b09d3784)" d="M 392.311583 434.11375 
L 394.206625 434.11375 
L 394.206625 29.951512 
L 392.311583 29.951512 
z
" style="fill:#0000ff;stroke:#000000;stroke-linejoin:miter;"/>
   </g>
   <g id="patch_192">
    <path clip-path="url(#pa6b09d3784)" d="M 394.206625 434.11375 
L 396.101667 434.11375 
L 396.101667 28.986402 
L 394.206625 28.986402 
z
" style="fill:#0000ff;stroke:#000000;stroke-linejoin:miter;"/>
   </g>
   <g id="patch_193">
    <path clip-path="url(#pa6b09d3784)" d="M 396.101667 434.11375 
L 397.996708 434.11375 
L 397.996708 28.127682 
L 396.101667 28.127682 
z
" style="fill:#0000ff;stroke:#000000;stroke-linejoin:miter;"/>
   </g>
   <g id="patch_194">
    <path clip-path="url(#pa6b09d3784)" d="M 397.996708 434.11375 
L 399.89175 434.11375 
L 399.89175 27.202089 
L 397.996708 27.202089 
z
" style="fill:#0000ff;stroke:#000000;stroke-linejoin:miter;"/>
   </g>
   <g id="patch_195">
    <path clip-path="url(#pa6b09d3784)" d="M 399.89175 434.11375 
L 401.786792 434.11375 
L 401.786792 26.340329 
L 399.89175 26.340329 
z
" style="fill:#0000ff;stroke:#000000;stroke-linejoin:miter;"/>
   </g>
   <g id="patch_196">
    <path clip-path="url(#pa6b09d3784)" d="M 401.786792 434.11375 
L 403.681833 434.11375 
L 403.681833 25.448172 
L 401.786792 25.448172 
z
" style="fill:#0000ff;stroke:#000000;stroke-linejoin:miter;"/>
   </g>
   <g id="patch_197">
    <path clip-path="url(#pa6b09d3784)" d="M 403.681833 434.11375 
L 405.576875 434.11375 
L 405.576875 24.569694 
L 403.681833 24.569694 
z
" style="fill:#0000ff;stroke:#000000;stroke-linejoin:miter;"/>
   </g>
   <g id="patch_198">
    <path clip-path="url(#pa6b09d3784)" d="M 405.576875 434.11375 
L 407.471917 434.11375 
L 407.471917 23.615223 
L 405.576875 23.615223 
z
" style="fill:#0000ff;stroke:#000000;stroke-linejoin:miter;"/>
   </g>
   <g id="patch_199">
    <path clip-path="url(#pa6b09d3784)" d="M 407.471917 434.11375 
L 409.366958 434.11375 
L 409.366958 22.435813 
L 407.471917 22.435813 
z
" style="fill:#0000ff;stroke:#000000;stroke-linejoin:miter;"/>
   </g>
   <g id="patch_200">
    <path clip-path="url(#pa6b09d3784)" d="M 409.366958 434.11375 
L 411.262 434.11375 
L 411.262 21.093778 
L 409.366958 21.093778 
z
" style="fill:#0000ff;stroke:#000000;stroke-linejoin:miter;"/>
   </g>
   <g id="patch_201">
    <path clip-path="url(#pa6b09d3784)" d="M 411.262 434.11375 
L 413.157042 434.11375 
L 413.157042 20.295852 
L 411.262 20.295852 
z
" style="fill:#0000ff;stroke:#000000;stroke-linejoin:miter;"/>
   </g>
   <g id="patch_202">
    <path clip-path="url(#pa6b09d3784)" d="M 413.157042 434.11375 
L 415.052083 434.11375 
L 415.052083 19.818617 
L 413.157042 19.818617 
z
" style="fill:#0000ff;stroke:#000000;stroke-linejoin:miter;"/>
   </g>
   <g id="patch_203">
    <path clip-path="url(#pa6b09d3784)" d="M 415.052083 434.11375 
L 416.947125 434.11375 
L 416.947125 19.478169 
L 415.052083 19.478169 
z
" style="fill:#0000ff;stroke:#000000;stroke-linejoin:miter;"/>
   </g>
   <g id="patch_204">
    <path clip-path="url(#pa6b09d3784)" d="M 416.947125 434.11375 
L 418.842167 434.11375 
L 418.842167 19.314024 
L 416.947125 19.314024 
z
" style="fill:#0000ff;stroke:#000000;stroke-linejoin:miter;"/>
   </g>
   <g id="patch_205">
    <path clip-path="url(#pa6b09d3784)" d="M 418.842167 434.11375 
L 420.737208 434.11375 
L 420.737208 19.168118 
L 418.842167 19.168118 
z
" style="fill:#0000ff;stroke:#000000;stroke-linejoin:miter;"/>
   </g>
   <g id="patch_206">
    <path clip-path="url(#pa6b09d3784)" d="M 420.737208 434.11375 
L 422.63225 434.11375 
L 422.63225 19.087565 
L 420.737208 19.087565 
z
" style="fill:#0000ff;stroke:#000000;stroke-linejoin:miter;"/>
   </g>
   <g id="patch_207">
    <path clip-path="url(#pa6b09d3784)" d="M 422.63225 434.11375 
L 424.527292 434.11375 
L 424.527292 19.03437 
L 422.63225 19.03437 
z
" style="fill:#0000ff;stroke:#000000;stroke-linejoin:miter;"/>
   </g>
   <g id="patch_208">
    <path clip-path="url(#pa6b09d3784)" d="M 424.527292 434.11375 
L 426.422333 434.11375 
L 426.422333 18.969016 
L 424.527292 18.969016 
z
" style="fill:#0000ff;stroke:#000000;stroke-linejoin:miter;"/>
   </g>
   <g id="patch_209">
    <path clip-path="url(#pa6b09d3784)" d="M 426.422333 434.11375 
L 428.317375 434.11375 
L 428.317375 18.92494 
L 426.422333 18.92494 
z
" style="fill:#0000ff;stroke:#000000;stroke-linejoin:miter;"/>
   </g>
   <g id="patch_210">
    <path clip-path="url(#pa6b09d3784)" d="M 428.317375 434.11375 
L 430.212417 434.11375 
L 430.212417 18.893023 
L 428.317375 18.893023 
z
" style="fill:#0000ff;stroke:#000000;stroke-linejoin:miter;"/>
   </g>
   <g id="patch_211">
    <path clip-path="url(#pa6b09d3784)" d="M 430.212417 434.11375 
L 432.107458 434.11375 
L 432.107458 18.865666 
L 430.212417 18.865666 
z
" style="fill:#0000ff;stroke:#000000;stroke-linejoin:miter;"/>
   </g>
   <g id="patch_212">
    <path clip-path="url(#pa6b09d3784)" d="M 432.107458 434.11375 
L 434.0025 434.11375 
L 434.0025 18.842868 
L 432.107458 18.842868 
z
" style="fill:#0000ff;stroke:#000000;stroke-linejoin:miter;"/>
   </g>
   <g id="patch_213">
    <path clip-path="url(#pa6b09d3784)" d="M 434.0025 434.11375 
L 435.897542 434.11375 
L 435.897542 18.838308 
L 434.0025 18.838308 
z
" style="fill:#0000ff;stroke:#000000;stroke-linejoin:miter;"/>
   </g>
   <g id="patch_214">
    <path clip-path="url(#pa6b09d3784)" d="M 435.897542 434.11375 
L 437.792583 434.11375 
L 437.792583 18.82311 
L 435.897542 18.82311 
z
" style="fill:#0000ff;stroke:#000000;stroke-linejoin:miter;"/>
   </g>
   <g id="patch_215">
    <path clip-path="url(#pa6b09d3784)" d="M 437.792583 434.11375 
L 439.687625 434.11375 
L 439.687625 18.82007 
L 437.792583 18.82007 
z
" style="fill:#0000ff;stroke:#000000;stroke-linejoin:miter;"/>
   </g>
   <g id="patch_216">
    <path clip-path="url(#pa6b09d3784)" d="M 439.687625 434.11375 
L 441.582667 434.11375 
L 441.582667 18.810951 
L 439.687625 18.810951 
z
" style="fill:#0000ff;stroke:#000000;stroke-linejoin:miter;"/>
   </g>
   <g id="patch_217">
    <path clip-path="url(#pa6b09d3784)" d="M 441.582667 434.11375 
L 443.477708 434.11375 
L 443.477708 18.800312 
L 441.582667 18.800312 
z
" style="fill:#0000ff;stroke:#000000;stroke-linejoin:miter;"/>
   </g>
   <g id="patch_218">
    <path clip-path="url(#pa6b09d3784)" d="M 443.477708 434.11375 
L 445.37275 434.11375 
L 445.37275 18.794232 
L 443.477708 18.794232 
z
" style="fill:#0000ff;stroke:#000000;stroke-linejoin:miter;"/>
   </g>
   <g id="patch_219">
    <path clip-path="url(#pa6b09d3784)" d="M 445.37275 434.11375 
L 447.267792 434.11375 
L 447.267792 18.791193 
L 445.37275 18.791193 
z
" style="fill:#0000ff;stroke:#000000;stroke-linejoin:miter;"/>
   </g>
   <g id="patch_220">
    <path clip-path="url(#pa6b09d3784)" d="M 447.267792 434.11375 
L 449.162833 434.11375 
L 449.162833 18.786633 
L 447.267792 18.786633 
z
" style="fill:#0000ff;stroke:#000000;stroke-linejoin:miter;"/>
   </g>
   <g id="patch_221">
    <path clip-path="url(#pa6b09d3784)" d="M 449.162833 434.11375 
L 451.057875 434.11375 
L 451.057875 18.785113 
L 449.162833 18.785113 
z
" style="fill:#0000ff;stroke:#000000;stroke-linejoin:miter;"/>
   </g>
   <g id="patch_222">
    <path clip-path="url(#pa6b09d3784)" d="M 451.057875 434.11375 
L 452.952917 434.11375 
L 452.952917 18.783593 
L 451.057875 18.783593 
z
" style="fill:#0000ff;stroke:#000000;stroke-linejoin:miter;"/>
   </g>
   <g id="patch_223">
    <path clip-path="url(#pa6b09d3784)" d="M 452.952917 434.11375 
L 454.847958 434.11375 
L 454.847958 18.780554 
L 452.952917 18.780554 
z
" style="fill:#0000ff;stroke:#000000;stroke-linejoin:miter;"/>
   </g>
   <g id="patch_224">
    <path clip-path="url(#pa6b09d3784)" d="M 454.847958 434.11375 
L 456.743 434.11375 
L 456.743 18.779034 
L 454.847958 18.779034 
z
" style="fill:#0000ff;stroke:#000000;stroke-linejoin:miter;"/>
   </g>
   <g id="patch_225">
    <path clip-path="url(#pa6b09d3784)" d="M 456.743 434.11375 
L 458.638042 434.11375 
L 458.638042 18.777514 
L 456.743 18.777514 
z
" style="fill:#0000ff;stroke:#000000;stroke-linejoin:miter;"/>
   </g>
   <g id="patch_226">
    <path clip-path="url(#pa6b09d3784)" d="M 458.638042 434.11375 
L 460.533083 434.11375 
L 460.533083 18.774474 
L 458.638042 18.774474 
z
" style="fill:#0000ff;stroke:#000000;stroke-linejoin:miter;"/>
   </g>
   <g id="patch_227">
    <path clip-path="url(#pa6b09d3784)" d="M 460.533083 434.11375 
L 462.428125 434.11375 
L 462.428125 18.774474 
L 460.533083 18.774474 
z
" style="fill:#0000ff;stroke:#000000;stroke-linejoin:miter;"/>
   </g>
   <g id="patch_228">
    <path clip-path="url(#pa6b09d3784)" d="M 462.428125 434.11375 
L 464.323167 434.11375 
L 464.323167 18.772954 
L 462.428125 18.772954 
z
" style="fill:#0000ff;stroke:#000000;stroke-linejoin:miter;"/>
   </g>
   <g id="patch_229">
    <path clip-path="url(#pa6b09d3784)" d="M 464.323167 434.11375 
L 466.218208 434.11375 
L 466.218208 18.771435 
L 464.323167 18.771435 
z
" style="fill:#0000ff;stroke:#000000;stroke-linejoin:miter;"/>
   </g>
   <g id="patch_230">
    <path clip-path="url(#pa6b09d3784)" d="M 466.218208 434.11375 
L 468.11325 434.11375 
L 468.11325 18.771435 
L 466.218208 18.771435 
z
" style="fill:#0000ff;stroke:#000000;stroke-linejoin:miter;"/>
   </g>
   <g id="patch_231">
    <path clip-path="url(#pa6b09d3784)" d="M 468.11325 434.11375 
L 470.008292 434.11375 
L 470.008292 18.769915 
L 468.11325 18.769915 
z
" style="fill:#0000ff;stroke:#000000;stroke-linejoin:miter;"/>
   </g>
   <g id="patch_232">
    <path clip-path="url(#pa6b09d3784)" d="M 470.008292 434.11375 
L 471.903333 434.11375 
L 471.903333 18.768395 
L 470.008292 18.768395 
z
" style="fill:#0000ff;stroke:#000000;stroke-linejoin:miter;"/>
   </g>
   <g id="patch_233">
    <path clip-path="url(#pa6b09d3784)" d="M 471.903333 434.11375 
L 473.798375 434.11375 
L 473.798375 18.766875 
L 471.903333 18.766875 
z
" style="fill:#0000ff;stroke:#000000;stroke-linejoin:miter;"/>
   </g>
   <g id="patch_234">
    <path clip-path="url(#pa6b09d3784)" d="M 473.798375 434.11375 
L 475.693417 434.11375 
L 475.693417 18.766875 
L 473.798375 18.766875 
z
" style="fill:#0000ff;stroke:#000000;stroke-linejoin:miter;"/>
   </g>
   <g id="patch_235">
    <path clip-path="url(#pa6b09d3784)" d="M 475.693417 434.11375 
L 477.588458 434.11375 
L 477.588458 18.766875 
L 475.693417 18.766875 
z
" style="fill:#0000ff;stroke:#000000;stroke-linejoin:miter;"/>
   </g>
   <g id="patch_236">
    <path clip-path="url(#pa6b09d3784)" d="M 477.588458 434.11375 
L 479.4835 434.11375 
L 479.4835 18.766875 
L 477.588458 18.766875 
z
" style="fill:#0000ff;stroke:#000000;stroke-linejoin:miter;"/>
   </g>
   <g id="patch_237">
    <path clip-path="url(#pa6b09d3784)" d="M 479.4835 434.11375 
L 481.378542 434.11375 
L 481.378542 18.766875 
L 479.4835 18.766875 
z
" style="fill:#0000ff;stroke:#000000;stroke-linejoin:miter;"/>
   </g>
   <g id="patch_238">
    <path clip-path="url(#pa6b09d3784)" d="M 481.378542 434.11375 
L 483.273583 434.11375 
L 483.273583 18.766875 
L 481.378542 18.766875 
z
" style="fill:#0000ff;stroke:#000000;stroke-linejoin:miter;"/>
   </g>
   <g id="patch_239">
    <path clip-path="url(#pa6b09d3784)" d="M 483.273583 434.11375 
L 485.168625 434.11375 
L 485.168625 18.766875 
L 483.273583 18.766875 
z
" style="fill:#0000ff;stroke:#000000;stroke-linejoin:miter;"/>
   </g>
   <g id="patch_240">
    <path clip-path="url(#pa6b09d3784)" d="M 485.168625 434.11375 
L 487.063667 434.11375 
L 487.063667 18.766875 
L 485.168625 18.766875 
z
" style="fill:#0000ff;stroke:#000000;stroke-linejoin:miter;"/>
   </g>
   <g id="patch_241">
    <path clip-path="url(#pa6b09d3784)" d="M 487.063667 434.11375 
L 488.958708 434.11375 
L 488.958708 18.766875 
L 487.063667 18.766875 
z
" style="fill:#0000ff;stroke:#000000;stroke-linejoin:miter;"/>
   </g>
   <g id="patch_242">
    <path clip-path="url(#pa6b09d3784)" d="M 488.958708 434.11375 
L 490.85375 434.11375 
L 490.85375 18.766875 
L 488.958708 18.766875 
z
" style="fill:#0000ff;stroke:#000000;stroke-linejoin:miter;"/>
   </g>
   <g id="patch_243">
    <path clip-path="url(#pa6b09d3784)" d="M 490.85375 434.11375 
L 492.748792 434.11375 
L 492.748792 18.766875 
L 490.85375 18.766875 
z
" style="fill:#0000ff;stroke:#000000;stroke-linejoin:miter;"/>
   </g>
   <g id="patch_244">
    <path clip-path="url(#pa6b09d3784)" d="M 492.748792 434.11375 
L 494.643833 434.11375 
L 494.643833 18.766875 
L 492.748792 18.766875 
z
" style="fill:#0000ff;stroke:#000000;stroke-linejoin:miter;"/>
   </g>
   <g id="patch_245">
    <path clip-path="url(#pa6b09d3784)" d="M 494.643833 434.11375 
L 496.538875 434.11375 
L 496.538875 18.766875 
L 494.643833 18.766875 
z
" style="fill:#0000ff;stroke:#000000;stroke-linejoin:miter;"/>
   </g>
   <g id="patch_246">
    <path clip-path="url(#pa6b09d3784)" d="M 496.538875 434.11375 
L 498.433917 434.11375 
L 498.433917 18.766875 
L 496.538875 18.766875 
z
" style="fill:#0000ff;stroke:#000000;stroke-linejoin:miter;"/>
   </g>
   <g id="patch_247">
    <path clip-path="url(#pa6b09d3784)" d="M 498.433917 434.11375 
L 500.328958 434.11375 
L 500.328958 18.766875 
L 498.433917 18.766875 
z
" style="fill:#0000ff;stroke:#000000;stroke-linejoin:miter;"/>
   </g>
   <g id="patch_248">
    <path clip-path="url(#pa6b09d3784)" d="M 500.328958 434.11375 
L 502.224 434.11375 
L 502.224 18.766875 
L 500.328958 18.766875 
z
" style="fill:#0000ff;stroke:#000000;stroke-linejoin:miter;"/>
   </g>
   <g id="patch_249">
    <path clip-path="url(#pa6b09d3784)" d="M 502.224 434.11375 
L 504.119042 434.11375 
L 504.119042 18.766875 
L 502.224 18.766875 
z
" style="fill:#0000ff;stroke:#000000;stroke-linejoin:miter;"/>
   </g>
   <g id="patch_250">
    <path clip-path="url(#pa6b09d3784)" d="M 504.119042 434.11375 
L 506.014083 434.11375 
L 506.014083 18.766875 
L 504.119042 18.766875 
z
" style="fill:#0000ff;stroke:#000000;stroke-linejoin:miter;"/>
   </g>
   <g id="patch_251">
    <path clip-path="url(#pa6b09d3784)" d="M 506.014083 434.11375 
L 507.909125 434.11375 
L 507.909125 18.766875 
L 506.014083 18.766875 
z
" style="fill:#0000ff;stroke:#000000;stroke-linejoin:miter;"/>
   </g>
   <g id="patch_252">
    <path clip-path="url(#pa6b09d3784)" d="M 507.909125 434.11375 
L 509.804167 434.11375 
L 509.804167 18.766875 
L 507.909125 18.766875 
z
" style="fill:#0000ff;stroke:#000000;stroke-linejoin:miter;"/>
   </g>
   <g id="patch_253">
    <path clip-path="url(#pa6b09d3784)" d="M 509.804167 434.11375 
L 511.699208 434.11375 
L 511.699208 18.766875 
L 509.804167 18.766875 
z
" style="fill:#0000ff;stroke:#000000;stroke-linejoin:miter;"/>
   </g>
   <g id="patch_254">
    <path clip-path="url(#pa6b09d3784)" d="M 511.699208 434.11375 
L 513.59425 434.11375 
L 513.59425 18.766875 
L 511.699208 18.766875 
z
" style="fill:#0000ff;stroke:#000000;stroke-linejoin:miter;"/>
   </g>
   <g id="patch_255">
    <path clip-path="url(#pa6b09d3784)" d="M 513.59425 434.11375 
L 515.489292 434.11375 
L 515.489292 18.766875 
L 513.59425 18.766875 
z
" style="fill:#0000ff;stroke:#000000;stroke-linejoin:miter;"/>
   </g>
   <g id="patch_256">
    <path clip-path="url(#pa6b09d3784)" d="M 515.489292 434.11375 
L 517.384333 434.11375 
L 517.384333 18.766875 
L 515.489292 18.766875 
z
" style="fill:#0000ff;stroke:#000000;stroke-linejoin:miter;"/>
   </g>
   <g id="patch_257">
    <path clip-path="url(#pa6b09d3784)" d="M 517.384333 434.11375 
L 519.279375 434.11375 
L 519.279375 18.766875 
L 517.384333 18.766875 
z
" style="fill:#0000ff;stroke:#000000;stroke-linejoin:miter;"/>
   </g>
   <g id="patch_258">
    <path clip-path="url(#pa6b09d3784)" d="M 519.279375 434.11375 
L 521.174417 434.11375 
L 521.174417 18.766875 
L 519.279375 18.766875 
z
" style="fill:#0000ff;stroke:#000000;stroke-linejoin:miter;"/>
   </g>
   <g id="patch_259">
    <path d="M 36.04375 434.11375 
L 36.04375 18.766875 
" style="fill:none;stroke:#000000;stroke-linecap:square;stroke-linejoin:miter;"/>
   </g>
   <g id="patch_260">
    <path d="M 36.04375 18.766875 
L 604.55625 18.766875 
" style="fill:none;stroke:#000000;stroke-linecap:square;stroke-linejoin:miter;"/>
   </g>
   <g id="patch_261">
    <path d="M 36.04375 434.11375 
L 604.55625 434.11375 
" style="fill:none;stroke:#000000;stroke-linecap:square;stroke-linejoin:miter;"/>
   </g>
   <g id="patch_262">
    <path d="M 604.55625 434.11375 
L 604.55625 18.766875 
" style="fill:none;stroke:#000000;stroke-linecap:square;stroke-linejoin:miter;"/>
   </g>
   <g id="matplotlib.axis_1">
    <g id="xtick_1">
     <g id="line2d_1">
      <defs>
       <path d="M 0 0 
L 0 -4 
" id="m3019b31209" style="stroke:#000000;stroke-width:0.5;"/>
      </defs>
      <g>
       <use style="stroke:#000000;stroke-width:0.5;" x="36.04375" xlink:href="#m3019b31209" y="434.11375000000004"/>
      </g>
     </g>
     <g id="line2d_2">
      <defs>
       <path d="M 0 0 
L 0 4 
" id="m47afa6fd54" style="stroke:#000000;stroke-width:0.5;"/>
      </defs>
      <g>
       <use style="stroke:#000000;stroke-width:0.5;" x="36.04375" xlink:href="#m47afa6fd54" y="18.766875000000027"/>
      </g>
     </g>
     <g id="text_1">
      <!-- 0 -->
      <defs>
       <path d="M 31.78125 66.40625 
Q 24.171875 66.40625 20.328125 58.90625 
Q 16.5 51.421875 16.5 36.375 
Q 16.5 21.390625 20.328125 13.890625 
Q 24.171875 6.390625 31.78125 6.390625 
Q 39.453125 6.390625 43.28125 13.890625 
Q 47.125 21.390625 47.125 36.375 
Q 47.125 51.421875 43.28125 58.90625 
Q 39.453125 66.40625 31.78125 66.40625 
M 31.78125 74.21875 
Q 44.046875 74.21875 50.515625 64.515625 
Q 56.984375 54.828125 56.984375 36.375 
Q 56.984375 17.96875 50.515625 8.265625 
Q 44.046875 -1.421875 31.78125 -1.421875 
Q 19.53125 -1.421875 13.0625 8.265625 
Q 6.59375 17.96875 6.59375 36.375 
Q 6.59375 54.828125 13.0625 64.515625 
Q 19.53125 74.21875 31.78125 74.21875 
" id="BitstreamVeraSans-Roman-30"/>
      </defs>
      <g transform="translate(32.22625 447.231875)scale(0.12 -0.12)">
       <use xlink:href="#BitstreamVeraSans-Roman-30"/>
      </g>
     </g>
    </g>
    <g id="xtick_2">
     <g id="line2d_3">
      <g>
       <use style="stroke:#000000;stroke-width:0.5;" x="130.79583333333335" xlink:href="#m3019b31209" y="434.11375000000004"/>
      </g>
     </g>
     <g id="line2d_4">
      <g>
       <use style="stroke:#000000;stroke-width:0.5;" x="130.79583333333335" xlink:href="#m47afa6fd54" y="18.766875000000027"/>
      </g>
     </g>
     <g id="text_2">
      <!-- 50 -->
      <defs>
       <path d="M 10.796875 72.90625 
L 49.515625 72.90625 
L 49.515625 64.59375 
L 19.828125 64.59375 
L 19.828125 46.734375 
Q 21.96875 47.46875 24.109375 47.828125 
Q 26.265625 48.1875 28.421875 48.1875 
Q 40.625 48.1875 47.75 41.5 
Q 54.890625 34.8125 54.890625 23.390625 
Q 54.890625 11.625 47.5625 5.09375 
Q 40.234375 -1.421875 26.90625 -1.421875 
Q 22.3125 -1.421875 17.546875 -0.640625 
Q 12.796875 0.140625 7.71875 1.703125 
L 7.71875 11.625 
Q 12.109375 9.234375 16.796875 8.0625 
Q 21.484375 6.890625 26.703125 6.890625 
Q 35.15625 6.890625 40.078125 11.328125 
Q 45.015625 15.765625 45.015625 23.390625 
Q 45.015625 31 40.078125 35.4375 
Q 35.15625 39.890625 26.703125 39.890625 
Q 22.75 39.890625 18.8125 39.015625 
Q 14.890625 38.140625 10.796875 36.28125 
z
" id="BitstreamVeraSans-Roman-35"/>
      </defs>
      <g transform="translate(123.16083333333334 447.231875)scale(0.12 -0.12)">
       <use xlink:href="#BitstreamVeraSans-Roman-35"/>
       <use x="63.623046875" xlink:href="#BitstreamVeraSans-Roman-30"/>
      </g>
     </g>
    </g>
    <g id="xtick_3">
     <g id="line2d_5">
      <g>
       <use style="stroke:#000000;stroke-width:0.5;" x="225.54791666666665" xlink:href="#m3019b31209" y="434.11375000000004"/>
      </g>
     </g>
     <g id="line2d_6">
      <g>
       <use style="stroke:#000000;stroke-width:0.5;" x="225.54791666666665" xlink:href="#m47afa6fd54" y="18.766875000000027"/>
      </g>
     </g>
     <g id="text_3">
      <!-- 100 -->
      <defs>
       <path d="M 12.40625 8.296875 
L 28.515625 8.296875 
L 28.515625 63.921875 
L 10.984375 60.40625 
L 10.984375 69.390625 
L 28.421875 72.90625 
L 38.28125 72.90625 
L 38.28125 8.296875 
L 54.390625 8.296875 
L 54.390625 0 
L 12.40625 0 
z
" id="BitstreamVeraSans-Roman-31"/>
      </defs>
      <g transform="translate(214.09541666666667 447.231875)scale(0.12 -0.12)">
       <use xlink:href="#BitstreamVeraSans-Roman-31"/>
       <use x="63.623046875" xlink:href="#BitstreamVeraSans-Roman-30"/>
       <use x="127.24609375" xlink:href="#BitstreamVeraSans-Roman-30"/>
      </g>
     </g>
    </g>
    <g id="xtick_4">
     <g id="line2d_7">
      <g>
       <use style="stroke:#000000;stroke-width:0.5;" x="320.29999999999995" xlink:href="#m3019b31209" y="434.11375000000004"/>
      </g>
     </g>
     <g id="line2d_8">
      <g>
       <use style="stroke:#000000;stroke-width:0.5;" x="320.29999999999995" xlink:href="#m47afa6fd54" y="18.766875000000027"/>
      </g>
     </g>
     <g id="text_4">
      <!-- 150 -->
      <g transform="translate(308.84749999999997 447.231875)scale(0.12 -0.12)">
       <use xlink:href="#BitstreamVeraSans-Roman-31"/>
       <use x="63.623046875" xlink:href="#BitstreamVeraSans-Roman-35"/>
       <use x="127.24609375" xlink:href="#BitstreamVeraSans-Roman-30"/>
      </g>
     </g>
    </g>
    <g id="xtick_5">
     <g id="line2d_9">
      <g>
       <use style="stroke:#000000;stroke-width:0.5;" x="415.0520833333333" xlink:href="#m3019b31209" y="434.11375000000004"/>
      </g>
     </g>
     <g id="line2d_10">
      <g>
       <use style="stroke:#000000;stroke-width:0.5;" x="415.0520833333333" xlink:href="#m47afa6fd54" y="18.766875000000027"/>
      </g>
     </g>
     <g id="text_5">
      <!-- 200 -->
      <defs>
       <path d="M 19.1875 8.296875 
L 53.609375 8.296875 
L 53.609375 0 
L 7.328125 0 
L 7.328125 8.296875 
Q 12.9375 14.109375 22.625 23.890625 
Q 32.328125 33.6875 34.8125 36.53125 
Q 39.546875 41.84375 41.421875 45.53125 
Q 43.3125 49.21875 43.3125 52.78125 
Q 43.3125 58.59375 39.234375 62.25 
Q 35.15625 65.921875 28.609375 65.921875 
Q 23.96875 65.921875 18.8125 64.3125 
Q 13.671875 62.703125 7.8125 59.421875 
L 7.8125 69.390625 
Q 13.765625 71.78125 18.9375 73 
Q 24.125 74.21875 28.421875 74.21875 
Q 39.75 74.21875 46.484375 68.546875 
Q 53.21875 62.890625 53.21875 53.421875 
Q 53.21875 48.921875 51.53125 44.890625 
Q 49.859375 40.875 45.40625 35.40625 
Q 44.1875 33.984375 37.640625 27.21875 
Q 31.109375 20.453125 19.1875 8.296875 
" id="BitstreamVeraSans-Roman-32"/>
      </defs>
      <g transform="translate(403.5995833333333 447.231875)scale(0.12 -0.12)">
       <use xlink:href="#BitstreamVeraSans-Roman-32"/>
       <use x="63.623046875" xlink:href="#BitstreamVeraSans-Roman-30"/>
       <use x="127.24609375" xlink:href="#BitstreamVeraSans-Roman-30"/>
      </g>
     </g>
    </g>
    <g id="xtick_6">
     <g id="line2d_11">
      <g>
       <use style="stroke:#000000;stroke-width:0.5;" x="509.8041666666666" xlink:href="#m3019b31209" y="434.11375000000004"/>
      </g>
     </g>
     <g id="line2d_12">
      <g>
       <use style="stroke:#000000;stroke-width:0.5;" x="509.8041666666666" xlink:href="#m47afa6fd54" y="18.766875000000027"/>
      </g>
     </g>
     <g id="text_6">
      <!-- 250 -->
      <g transform="translate(498.35166666666663 447.231875)scale(0.12 -0.12)">
       <use xlink:href="#BitstreamVeraSans-Roman-32"/>
       <use x="63.623046875" xlink:href="#BitstreamVeraSans-Roman-35"/>
       <use x="127.24609375" xlink:href="#BitstreamVeraSans-Roman-30"/>
      </g>
     </g>
    </g>
    <g id="xtick_7">
     <g id="line2d_13">
      <g>
       <use style="stroke:#000000;stroke-width:0.5;" x="604.55625" xlink:href="#m3019b31209" y="434.11375000000004"/>
      </g>
     </g>
     <g id="line2d_14">
      <g>
       <use style="stroke:#000000;stroke-width:0.5;" x="604.55625" xlink:href="#m47afa6fd54" y="18.766875000000027"/>
      </g>
     </g>
     <g id="text_7">
      <!-- 300 -->
      <defs>
       <path d="M 40.578125 39.3125 
Q 47.65625 37.796875 51.625 33 
Q 55.609375 28.21875 55.609375 21.1875 
Q 55.609375 10.40625 48.1875 4.484375 
Q 40.765625 -1.421875 27.09375 -1.421875 
Q 22.515625 -1.421875 17.65625 -0.515625 
Q 12.796875 0.390625 7.625 2.203125 
L 7.625 11.71875 
Q 11.71875 9.328125 16.59375 8.109375 
Q 21.484375 6.890625 26.8125 6.890625 
Q 36.078125 6.890625 40.9375 10.546875 
Q 45.796875 14.203125 45.796875 21.1875 
Q 45.796875 27.640625 41.28125 31.265625 
Q 36.765625 34.90625 28.71875 34.90625 
L 20.21875 34.90625 
L 20.21875 43.015625 
L 29.109375 43.015625 
Q 36.375 43.015625 40.234375 45.921875 
Q 44.09375 48.828125 44.09375 54.296875 
Q 44.09375 59.90625 40.109375 62.90625 
Q 36.140625 65.921875 28.71875 65.921875 
Q 24.65625 65.921875 20.015625 65.03125 
Q 15.375 64.15625 9.8125 62.3125 
L 9.8125 71.09375 
Q 15.4375 72.65625 20.34375 73.4375 
Q 25.25 74.21875 29.59375 74.21875 
Q 40.828125 74.21875 47.359375 69.109375 
Q 53.90625 64.015625 53.90625 55.328125 
Q 53.90625 49.265625 50.4375 45.09375 
Q 46.96875 40.921875 40.578125 39.3125 
" id="BitstreamVeraSans-Roman-33"/>
      </defs>
      <g transform="translate(593.10375 447.231875)scale(0.12 -0.12)">
       <use xlink:href="#BitstreamVeraSans-Roman-33"/>
       <use x="63.623046875" xlink:href="#BitstreamVeraSans-Roman-30"/>
       <use x="127.24609375" xlink:href="#BitstreamVeraSans-Roman-30"/>
      </g>
     </g>
    </g>
   </g>
   <g id="matplotlib.axis_2">
    <g id="ytick_1">
     <g id="line2d_15">
      <defs>
       <path d="M 0 0 
L 4 0 
" id="mb38ff0b36e" style="stroke:#000000;stroke-width:0.5;"/>
      </defs>
      <g>
       <use style="stroke:#000000;stroke-width:0.5;" x="36.04375" xlink:href="#mb38ff0b36e" y="434.11375000000004"/>
      </g>
     </g>
     <g id="line2d_16">
      <defs>
       <path d="M 0 0 
L -4 0 
" id="mcdc4ee008e" style="stroke:#000000;stroke-width:0.5;"/>
      </defs>
      <g>
       <use style="stroke:#000000;stroke-width:0.5;" x="604.55625" xlink:href="#mcdc4ee008e" y="434.11375000000004"/>
      </g>
     </g>
     <g id="text_8">
      <!-- 0.0 -->
      <defs>
       <path d="M 10.6875 12.40625 
L 21 12.40625 
L 21 0 
L 10.6875 0 
z
" id="BitstreamVeraSans-Roman-2e"/>
      </defs>
      <g transform="translate(12.960000000000004 437.425)scale(0.12 -0.12)">
       <use xlink:href="#BitstreamVeraSans-Roman-30"/>
       <use x="63.623046875" xlink:href="#BitstreamVeraSans-Roman-2e"/>
       <use x="95.41015625" xlink:href="#BitstreamVeraSans-Roman-30"/>
      </g>
     </g>
    </g>
    <g id="ytick_2">
     <g id="line2d_17">
      <g>
       <use style="stroke:#000000;stroke-width:0.5;" x="36.04375" xlink:href="#mb38ff0b36e" y="351.04437500000006"/>
      </g>
     </g>
     <g id="line2d_18">
      <g>
       <use style="stroke:#000000;stroke-width:0.5;" x="604.55625" xlink:href="#mcdc4ee008e" y="351.04437500000006"/>
      </g>
     </g>
     <g id="text_9">
      <!-- 0.2 -->
      <g transform="translate(12.960000000000004 354.35562500000003)scale(0.12 -0.12)">
       <use xlink:href="#BitstreamVeraSans-Roman-30"/>
       <use x="63.623046875" xlink:href="#BitstreamVeraSans-Roman-2e"/>
       <use x="95.41015625" xlink:href="#BitstreamVeraSans-Roman-32"/>
      </g>
     </g>
    </g>
    <g id="ytick_3">
     <g id="line2d_19">
      <g>
       <use style="stroke:#000000;stroke-width:0.5;" x="36.04375" xlink:href="#mb38ff0b36e" y="267.975"/>
      </g>
     </g>
     <g id="line2d_20">
      <g>
       <use style="stroke:#000000;stroke-width:0.5;" x="604.55625" xlink:href="#mcdc4ee008e" y="267.975"/>
      </g>
     </g>
     <g id="text_10">
      <!-- 0.4 -->
      <defs>
       <path d="M 37.796875 64.3125 
L 12.890625 25.390625 
L 37.796875 25.390625 
z
M 35.203125 72.90625 
L 47.609375 72.90625 
L 47.609375 25.390625 
L 58.015625 25.390625 
L 58.015625 17.1875 
L 47.609375 17.1875 
L 47.609375 0 
L 37.796875 0 
L 37.796875 17.1875 
L 4.890625 17.1875 
L 4.890625 26.703125 
z
" id="BitstreamVeraSans-Roman-34"/>
      </defs>
      <g transform="translate(12.960000000000004 271.28625)scale(0.12 -0.12)">
       <use xlink:href="#BitstreamVeraSans-Roman-30"/>
       <use x="63.623046875" xlink:href="#BitstreamVeraSans-Roman-2e"/>
       <use x="95.41015625" xlink:href="#BitstreamVeraSans-Roman-34"/>
      </g>
     </g>
    </g>
    <g id="ytick_4">
     <g id="line2d_21">
      <g>
       <use style="stroke:#000000;stroke-width:0.5;" x="36.04375" xlink:href="#mb38ff0b36e" y="184.905625"/>
      </g>
     </g>
     <g id="line2d_22">
      <g>
       <use style="stroke:#000000;stroke-width:0.5;" x="604.55625" xlink:href="#mcdc4ee008e" y="184.905625"/>
      </g>
     </g>
     <g id="text_11">
      <!-- 0.6 -->
      <defs>
       <path d="M 33.015625 40.375 
Q 26.375 40.375 22.484375 35.828125 
Q 18.609375 31.296875 18.609375 23.390625 
Q 18.609375 15.53125 22.484375 10.953125 
Q 26.375 6.390625 33.015625 6.390625 
Q 39.65625 6.390625 43.53125 10.953125 
Q 47.40625 15.53125 47.40625 23.390625 
Q 47.40625 31.296875 43.53125 35.828125 
Q 39.65625 40.375 33.015625 40.375 
M 52.59375 71.296875 
L 52.59375 62.3125 
Q 48.875 64.0625 45.09375 64.984375 
Q 41.3125 65.921875 37.59375 65.921875 
Q 27.828125 65.921875 22.671875 59.328125 
Q 17.53125 52.734375 16.796875 39.40625 
Q 19.671875 43.65625 24.015625 45.921875 
Q 28.375 48.1875 33.59375 48.1875 
Q 44.578125 48.1875 50.953125 41.515625 
Q 57.328125 34.859375 57.328125 23.390625 
Q 57.328125 12.15625 50.6875 5.359375 
Q 44.046875 -1.421875 33.015625 -1.421875 
Q 20.359375 -1.421875 13.671875 8.265625 
Q 6.984375 17.96875 6.984375 36.375 
Q 6.984375 53.65625 15.1875 63.9375 
Q 23.390625 74.21875 37.203125 74.21875 
Q 40.921875 74.21875 44.703125 73.484375 
Q 48.484375 72.75 52.59375 71.296875 
" id="BitstreamVeraSans-Roman-36"/>
      </defs>
      <g transform="translate(12.960000000000004 188.21687499999996)scale(0.12 -0.12)">
       <use xlink:href="#BitstreamVeraSans-Roman-30"/>
       <use x="63.623046875" xlink:href="#BitstreamVeraSans-Roman-2e"/>
       <use x="95.41015625" xlink:href="#BitstreamVeraSans-Roman-36"/>
      </g>
     </g>
    </g>
    <g id="ytick_5">
     <g id="line2d_23">
      <g>
       <use style="stroke:#000000;stroke-width:0.5;" x="36.04375" xlink:href="#mb38ff0b36e" y="101.83625"/>
      </g>
     </g>
     <g id="line2d_24">
      <g>
       <use style="stroke:#000000;stroke-width:0.5;" x="604.55625" xlink:href="#mcdc4ee008e" y="101.83625"/>
      </g>
     </g>
     <g id="text_12">
      <!-- 0.8 -->
      <defs>
       <path d="M 31.78125 34.625 
Q 24.75 34.625 20.71875 30.859375 
Q 16.703125 27.09375 16.703125 20.515625 
Q 16.703125 13.921875 20.71875 10.15625 
Q 24.75 6.390625 31.78125 6.390625 
Q 38.8125 6.390625 42.859375 10.171875 
Q 46.921875 13.96875 46.921875 20.515625 
Q 46.921875 27.09375 42.890625 30.859375 
Q 38.875 34.625 31.78125 34.625 
M 21.921875 38.8125 
Q 15.578125 40.375 12.03125 44.71875 
Q 8.5 49.078125 8.5 55.328125 
Q 8.5 64.0625 14.71875 69.140625 
Q 20.953125 74.21875 31.78125 74.21875 
Q 42.671875 74.21875 48.875 69.140625 
Q 55.078125 64.0625 55.078125 55.328125 
Q 55.078125 49.078125 51.53125 44.71875 
Q 48 40.375 41.703125 38.8125 
Q 48.828125 37.15625 52.796875 32.3125 
Q 56.78125 27.484375 56.78125 20.515625 
Q 56.78125 9.90625 50.3125 4.234375 
Q 43.84375 -1.421875 31.78125 -1.421875 
Q 19.734375 -1.421875 13.25 4.234375 
Q 6.78125 9.90625 6.78125 20.515625 
Q 6.78125 27.484375 10.78125 32.3125 
Q 14.796875 37.15625 21.921875 38.8125 
M 18.3125 54.390625 
Q 18.3125 48.734375 21.84375 45.5625 
Q 25.390625 42.390625 31.78125 42.390625 
Q 38.140625 42.390625 41.71875 45.5625 
Q 45.3125 48.734375 45.3125 54.390625 
Q 45.3125 60.0625 41.71875 63.234375 
Q 38.140625 66.40625 31.78125 66.40625 
Q 25.390625 66.40625 21.84375 63.234375 
Q 18.3125 60.0625 18.3125 54.390625 
" id="BitstreamVeraSans-Roman-38"/>
      </defs>
      <g transform="translate(12.960000000000004 105.14749999999998)scale(0.12 -0.12)">
       <use xlink:href="#BitstreamVeraSans-Roman-30"/>
       <use x="63.623046875" xlink:href="#BitstreamVeraSans-Roman-2e"/>
       <use x="95.41015625" xlink:href="#BitstreamVeraSans-Roman-38"/>
      </g>
     </g>
    </g>
    <g id="ytick_6">
     <g id="line2d_25">
      <g>
       <use style="stroke:#000000;stroke-width:0.5;" x="36.04375" xlink:href="#mb38ff0b36e" y="18.766875000000027"/>
      </g>
     </g>
     <g id="line2d_26">
      <g>
       <use style="stroke:#000000;stroke-width:0.5;" x="604.55625" xlink:href="#mcdc4ee008e" y="18.766875000000027"/>
      </g>
     </g>
     <g id="text_13">
      <!-- 1.0 -->
      <g transform="translate(12.960000000000004 22.078125)scale(0.12 -0.12)">
       <use xlink:href="#BitstreamVeraSans-Roman-31"/>
       <use x="63.623046875" xlink:href="#BitstreamVeraSans-Roman-2e"/>
       <use x="95.41015625" xlink:href="#BitstreamVeraSans-Roman-30"/>
      </g>
     </g>
    </g>
   </g>
  </g>
 </g>
 <defs>
  <clipPath id="pa6b09d3784">
   <rect height="415.346875" width="568.5124999999999" x="36.04375" y="18.766875000000027"/>
  </clipPath>
 </defs>
</svg>
