<?xml version="1.0" encoding="utf-8" standalone="no"?>
<!DOCTYPE svg PUBLIC "-//W3C//DTD SVG 1.1//EN"
  "http://www.w3.org/Graphics/SVG/1.1/DTD/svg11.dtd">
<!-- Created with matplotlib (http://matplotlib.org/) -->
<svg height="462pt" version="1.1" viewBox="0 0 628 462" width="628pt" xmlns="http://www.w3.org/2000/svg" xmlns:xlink="http://www.w3.org/1999/xlink">
 <defs>
  <style type="text/css">
*{stroke-linecap:butt;stroke-linejoin:round;stroke-miterlimit:100000;}
  </style>
 </defs>
 <g id="figure_1">
  <g id="patch_1">
   <path d="M 0 462.6875 
L 628.96875 462.6875 
L 628.96875 0 
L 0 0 
z
" style="fill:#ffffff;"/>
  </g>
  <g id="axes_1">
   <g id="patch_2">
    <path d="M 36.04375 434.11375 
L 604.55625 434.11375 
L 604.55625 18.766875 
L 36.04375 18.766875 
z
" style="fill:#ffffff;"/>
   </g>
   <g id="patch_3">
    <path clip-path="url(#pda73c3477c)" d="M 36.04375 434.11375 
L 43.623917 434.11375 
L 43.623917 429.493381 
L 36.04375 429.493381 
z
" style="fill:#0000ff;opacity:0.4;stroke:#000000;stroke-linejoin:miter;"/>
   </g>
   <g id="patch_4">
    <path clip-path="url(#pda73c3477c)" d="M 43.623917 434.11375 
L 51.204083 434.11375 
L 51.204083 424.085218 
L 43.623917 424.085218 
z
" style="fill:#0000ff;opacity:0.4;stroke:#000000;stroke-linejoin:miter;"/>
   </g>
   <g id="patch_5">
    <path clip-path="url(#pda73c3477c)" d="M 51.204083 434.11375 
L 58.78425 434.11375 
L 58.78425 418.042515 
L 51.204083 418.042515 
z
" style="fill:#0000ff;opacity:0.4;stroke:#000000;stroke-linejoin:miter;"/>
   </g>
   <g id="patch_6">
    <path clip-path="url(#pda73c3477c)" d="M 58.78425 434.11375 
L 66.364417 434.11375 
L 66.364417 413.774246 
L 58.78425 413.774246 
z
" style="fill:#0000ff;opacity:0.4;stroke:#000000;stroke-linejoin:miter;"/>
   </g>
   <g id="patch_7">
    <path clip-path="url(#pda73c3477c)" d="M 66.364417 434.11375 
L 73.944583 434.11375 
L 73.944583 408.543401 
L 66.364417 408.543401 
z
" style="fill:#0000ff;opacity:0.4;stroke:#000000;stroke-linejoin:miter;"/>
   </g>
   <g id="patch_8">
    <path clip-path="url(#pda73c3477c)" d="M 73.944583 434.11375 
L 81.52475 434.11375 
L 81.52475 401.859824 
L 73.944583 401.859824 
z
" style="fill:#0000ff;opacity:0.4;stroke:#000000;stroke-linejoin:miter;"/>
   </g>
   <g id="patch_9">
    <path clip-path="url(#pda73c3477c)" d="M 81.52475 434.11375 
L 89.104917 434.11375 
L 89.104917 401.859824 
L 81.52475 401.859824 
z
" style="fill:#0000ff;opacity:0.4;stroke:#000000;stroke-linejoin:miter;"/>
   </g>
   <g id="patch_10">
    <path clip-path="url(#pda73c3477c)" d="M 89.104917 434.11375 
L 96.685083 434.11375 
L 96.685083 393.831172 
L 89.104917 393.831172 
z
" style="fill:#0000ff;opacity:0.4;stroke:#000000;stroke-linejoin:miter;"/>
   </g>
   <g id="patch_11">
    <path clip-path="url(#pda73c3477c)" d="M 96.685083 434.11375 
L 104.26525 434.11375 
L 104.26525 393.831172 
L 96.685083 393.831172 
z
" style="fill:#0000ff;opacity:0.4;stroke:#000000;stroke-linejoin:miter;"/>
   </g>
   <g id="patch_12">
    <path clip-path="url(#pda73c3477c)" d="M 104.26525 434.11375 
L 111.845417 434.11375 
L 111.845417 384.444781 
L 104.26525 384.444781 
z
" style="fill:#0000ff;opacity:0.4;stroke:#000000;stroke-linejoin:miter;"/>
   </g>
   <g id="patch_13">
    <path clip-path="url(#pda73c3477c)" d="M 111.845417 434.11375 
L 119.425583 434.11375 
L 119.425583 384.444781 
L 111.845417 384.444781 
z
" style="fill:#0000ff;opacity:0.4;stroke:#000000;stroke-linejoin:miter;"/>
   </g>
   <g id="patch_14">
    <path clip-path="url(#pda73c3477c)" d="M 119.425583 434.11375 
L 127.00575 434.11375 
L 127.00575 373.691783 
L 119.425583 373.691783 
z
" style="fill:#0000ff;opacity:0.4;stroke:#000000;stroke-linejoin:miter;"/>
   </g>
   <g id="patch_15">
    <path clip-path="url(#pda73c3477c)" d="M 127.00575 434.11375 
L 134.585917 434.11375 
L 134.585917 373.691783 
L 127.00575 373.691783 
z
" style="fill:#0000ff;opacity:0.4;stroke:#000000;stroke-linejoin:miter;"/>
   </g>
   <g id="patch_16">
    <path clip-path="url(#pda73c3477c)" d="M 134.585917 434.11375 
L 142.166083 434.11375 
L 142.166083 361.615243 
L 134.585917 361.615243 
z
" style="fill:#0000ff;opacity:0.4;stroke:#000000;stroke-linejoin:miter;"/>
   </g>
   <g id="patch_17">
    <path clip-path="url(#pda73c3477c)" d="M 142.166083 434.11375 
L 149.74625 434.11375 
L 149.74625 361.615243 
L 142.166083 361.615243 
z
" style="fill:#0000ff;opacity:0.4;stroke:#000000;stroke-linejoin:miter;"/>
   </g>
   <g id="patch_18">
    <path clip-path="url(#pda73c3477c)" d="M 149.74625 434.11375 
L 157.326417 434.11375 
L 157.326417 347.963116 
L 149.74625 347.963116 
z
" style="fill:#0000ff;opacity:0.4;stroke:#000000;stroke-linejoin:miter;"/>
   </g>
   <g id="patch_19">
    <path clip-path="url(#pda73c3477c)" d="M 157.326417 434.11375 
L 164.906583 434.11375 
L 164.906583 347.963116 
L 157.326417 347.963116 
z
" style="fill:#0000ff;opacity:0.4;stroke:#000000;stroke-linejoin:miter;"/>
   </g>
   <g id="patch_20">
    <path clip-path="url(#pda73c3477c)" d="M 164.906583 434.11375 
L 172.48675 434.11375 
L 172.48675 347.963116 
L 164.906583 347.963116 
z
" style="fill:#0000ff;opacity:0.4;stroke:#000000;stroke-linejoin:miter;"/>
   </g>
   <g id="patch_21">
    <path clip-path="url(#pda73c3477c)" d="M 172.48675 434.11375 
L 180.066917 434.11375 
L 180.066917 334.338853 
L 172.48675 334.338853 
z
" style="fill:#0000ff;opacity:0.4;stroke:#000000;stroke-linejoin:miter;"/>
   </g>
   <g id="patch_22">
    <path clip-path="url(#pda73c3477c)" d="M 180.066917 434.11375 
L 187.647083 434.11375 
L 187.647083 334.338853 
L 180.066917 334.338853 
z
" style="fill:#0000ff;opacity:0.4;stroke:#000000;stroke-linejoin:miter;"/>
   </g>
   <g id="patch_23">
    <path clip-path="url(#pda73c3477c)" d="M 187.647083 434.11375 
L 195.22725 434.11375 
L 195.22725 321.541646 
L 187.647083 321.541646 
z
" style="fill:#0000ff;opacity:0.4;stroke:#000000;stroke-linejoin:miter;"/>
   </g>
   <g id="patch_24">
    <path clip-path="url(#pda73c3477c)" d="M 195.22725 434.11375 
L 202.807417 434.11375 
L 202.807417 321.541646 
L 195.22725 321.541646 
z
" style="fill:#0000ff;opacity:0.4;stroke:#000000;stroke-linejoin:miter;"/>
   </g>
   <g id="patch_25">
    <path clip-path="url(#pda73c3477c)" d="M 202.807417 434.11375 
L 210.387583 434.11375 
L 210.387583 309.743746 
L 202.807417 309.743746 
z
" style="fill:#0000ff;opacity:0.4;stroke:#000000;stroke-linejoin:miter;"/>
   </g>
   <g id="patch_26">
    <path clip-path="url(#pda73c3477c)" d="M 210.387583 434.11375 
L 217.96775 434.11375 
L 217.96775 309.743746 
L 210.387583 309.743746 
z
" style="fill:#0000ff;opacity:0.4;stroke:#000000;stroke-linejoin:miter;"/>
   </g>
   <g id="patch_27">
    <path clip-path="url(#pda73c3477c)" d="M 217.96775 434.11375 
L 225.547917 434.11375 
L 225.547917 298.39927 
L 217.96775 298.39927 
z
" style="fill:#0000ff;opacity:0.4;stroke:#000000;stroke-linejoin:miter;"/>
   </g>
   <g id="patch_28">
    <path clip-path="url(#pda73c3477c)" d="M 225.547917 434.11375 
L 233.128083 434.11375 
L 233.128083 298.39927 
L 225.547917 298.39927 
z
" style="fill:#0000ff;opacity:0.4;stroke:#000000;stroke-linejoin:miter;"/>
   </g>
   <g id="patch_29">
    <path clip-path="url(#pda73c3477c)" d="M 233.128083 434.11375 
L 240.70825 434.11375 
L 240.70825 287.574079 
L 233.128083 287.574079 
z
" style="fill:#0000ff;opacity:0.4;stroke:#000000;stroke-linejoin:miter;"/>
   </g>
   <g id="patch_30">
    <path clip-path="url(#pda73c3477c)" d="M 240.70825 434.11375 
L 248.288417 434.11375 
L 248.288417 287.574079 
L 240.70825 287.574079 
z
" style="fill:#0000ff;opacity:0.4;stroke:#000000;stroke-linejoin:miter;"/>
   </g>
   <g id="patch_31">
    <path clip-path="url(#pda73c3477c)" d="M 248.288417 434.11375 
L 255.868583 434.11375 
L 255.868583 277.20358 
L 248.288417 277.20358 
z
" style="fill:#0000ff;opacity:0.4;stroke:#000000;stroke-linejoin:miter;"/>
   </g>
   <g id="patch_32">
    <path clip-path="url(#pda73c3477c)" d="M 255.868583 434.11375 
L 263.44875 434.11375 
L 263.44875 277.20358 
L 255.868583 277.20358 
z
" style="fill:#0000ff;opacity:0.4;stroke:#000000;stroke-linejoin:miter;"/>
   </g>
   <g id="patch_33">
    <path clip-path="url(#pda73c3477c)" d="M 263.44875 434.11375 
L 271.028917 434.11375 
L 271.028917 267.340966 
L 263.44875 267.340966 
z
" style="fill:#0000ff;opacity:0.4;stroke:#000000;stroke-linejoin:miter;"/>
   </g>
   <g id="patch_34">
    <path clip-path="url(#pda73c3477c)" d="M 271.028917 434.11375 
L 278.609083 434.11375 
L 278.609083 267.340966 
L 271.028917 267.340966 
z
" style="fill:#0000ff;opacity:0.4;stroke:#000000;stroke-linejoin:miter;"/>
   </g>
   <g id="patch_35">
    <path clip-path="url(#pda73c3477c)" d="M 278.609083 434.11375 
L 286.18925 434.11375 
L 286.18925 257.645536 
L 278.609083 257.645536 
z
" style="fill:#0000ff;opacity:0.4;stroke:#000000;stroke-linejoin:miter;"/>
   </g>
   <g id="patch_36">
    <path clip-path="url(#pda73c3477c)" d="M 286.18925 434.11375 
L 293.769417 434.11375 
L 293.769417 257.645536 
L 286.18925 257.645536 
z
" style="fill:#0000ff;opacity:0.4;stroke:#000000;stroke-linejoin:miter;"/>
   </g>
   <g id="patch_37">
    <path clip-path="url(#pda73c3477c)" d="M 293.769417 434.11375 
L 301.349583 434.11375 
L 301.349583 248.366802 
L 293.769417 248.366802 
z
" style="fill:#0000ff;opacity:0.4;stroke:#000000;stroke-linejoin:miter;"/>
   </g>
   <g id="patch_38">
    <path clip-path="url(#pda73c3477c)" d="M 301.349583 434.11375 
L 308.92975 434.11375 
L 308.92975 238.996875 
L 301.349583 238.996875 
z
" style="fill:#0000ff;opacity:0.4;stroke:#000000;stroke-linejoin:miter;"/>
   </g>
   <g id="patch_39">
    <path clip-path="url(#pda73c3477c)" d="M 308.92975 434.11375 
L 316.509917 434.11375 
L 316.509917 238.996875 
L 308.92975 238.996875 
z
" style="fill:#0000ff;opacity:0.4;stroke:#000000;stroke-linejoin:miter;"/>
   </g>
   <g id="patch_40">
    <path clip-path="url(#pda73c3477c)" d="M 316.509917 434.11375 
L 324.090083 434.11375 
L 324.090083 229.887858 
L 316.509917 229.887858 
z
" style="fill:#0000ff;opacity:0.4;stroke:#000000;stroke-linejoin:miter;"/>
   </g>
   <g id="patch_41">
    <path clip-path="url(#pda73c3477c)" d="M 324.090083 434.11375 
L 331.67025 434.11375 
L 331.67025 229.887858 
L 324.090083 229.887858 
z
" style="fill:#0000ff;opacity:0.4;stroke:#000000;stroke-linejoin:miter;"/>
   </g>
   <g id="patch_42">
    <path clip-path="url(#pda73c3477c)" d="M 331.67025 434.11375 
L 339.250417 434.11375 
L 339.250417 221.091678 
L 331.67025 221.091678 
z
" style="fill:#0000ff;opacity:0.4;stroke:#000000;stroke-linejoin:miter;"/>
   </g>
   <g id="patch_43">
    <path clip-path="url(#pda73c3477c)" d="M 339.250417 434.11375 
L 346.830583 434.11375 
L 346.830583 212.375291 
L 339.250417 212.375291 
z
" style="fill:#0000ff;opacity:0.4;stroke:#000000;stroke-linejoin:miter;"/>
   </g>
   <g id="patch_44">
    <path clip-path="url(#pda73c3477c)" d="M 346.830583 434.11375 
L 354.41075 434.11375 
L 354.41075 212.375291 
L 346.830583 212.375291 
z
" style="fill:#0000ff;opacity:0.4;stroke:#000000;stroke-linejoin:miter;"/>
   </g>
   <g id="patch_45">
    <path clip-path="url(#pda73c3477c)" d="M 354.41075 434.11375 
L 361.990917 434.11375 
L 361.990917 203.757694 
L 354.41075 203.757694 
z
" style="fill:#0000ff;opacity:0.4;stroke:#000000;stroke-linejoin:miter;"/>
   </g>
   <g id="patch_46">
    <path clip-path="url(#pda73c3477c)" d="M 361.990917 434.11375 
L 369.571083 434.11375 
L 369.571083 195.309815 
L 361.990917 195.309815 
z
" style="fill:#0000ff;opacity:0.4;stroke:#000000;stroke-linejoin:miter;"/>
   </g>
   <g id="patch_47">
    <path clip-path="url(#pda73c3477c)" d="M 369.571083 434.11375 
L 377.15125 434.11375 
L 377.15125 195.309815 
L 369.571083 195.309815 
z
" style="fill:#0000ff;opacity:0.4;stroke:#000000;stroke-linejoin:miter;"/>
   </g>
   <g id="patch_48">
    <path clip-path="url(#pda73c3477c)" d="M 377.15125 434.11375 
L 384.731417 434.11375 
L 384.731417 186.92273 
L 377.15125 186.92273 
z
" style="fill:#0000ff;opacity:0.4;stroke:#000000;stroke-linejoin:miter;"/>
   </g>
   <g id="patch_49">
    <path clip-path="url(#pda73c3477c)" d="M 384.731417 434.11375 
L 392.311583 434.11375 
L 392.311583 178.990337 
L 384.731417 178.990337 
z
" style="fill:#0000ff;opacity:0.4;stroke:#000000;stroke-linejoin:miter;"/>
   </g>
   <g id="patch_50">
    <path clip-path="url(#pda73c3477c)" d="M 392.311583 434.11375 
L 399.89175 434.11375 
L 399.89175 178.990337 
L 392.311583 178.990337 
z
" style="fill:#0000ff;opacity:0.4;stroke:#000000;stroke-linejoin:miter;"/>
   </g>
   <g id="patch_51">
    <path clip-path="url(#pda73c3477c)" d="M 399.89175 434.11375 
L 407.471917 434.11375 
L 407.471917 171.843203 
L 399.89175 171.843203 
z
" style="fill:#0000ff;opacity:0.4;stroke:#000000;stroke-linejoin:miter;"/>
   </g>
   <g id="patch_52">
    <path clip-path="url(#pda73c3477c)" d="M 407.471917 434.11375 
L 415.052083 434.11375 
L 415.052083 165.556056 
L 407.471917 165.556056 
z
" style="fill:#0000ff;opacity:0.4;stroke:#000000;stroke-linejoin:miter;"/>
   </g>
   <g id="patch_53">
    <path clip-path="url(#pda73c3477c)" d="M 415.052083 434.11375 
L 422.63225 434.11375 
L 422.63225 159.570347 
L 415.052083 159.570347 
z
" style="fill:#0000ff;opacity:0.4;stroke:#000000;stroke-linejoin:miter;"/>
   </g>
   <g id="patch_54">
    <path clip-path="url(#pda73c3477c)" d="M 422.63225 434.11375 
L 430.212417 434.11375 
L 430.212417 154.201448 
L 422.63225 154.201448 
z
" style="fill:#0000ff;opacity:0.4;stroke:#000000;stroke-linejoin:miter;"/>
   </g>
   <g id="patch_55">
    <path clip-path="url(#pda73c3477c)" d="M 430.212417 434.11375 
L 437.792583 434.11375 
L 437.792583 149.230245 
L 430.212417 149.230245 
z
" style="fill:#0000ff;opacity:0.4;stroke:#000000;stroke-linejoin:miter;"/>
   </g>
   <g id="patch_56">
    <path clip-path="url(#pda73c3477c)" d="M 437.792583 434.11375 
L 445.37275 434.11375 
L 445.37275 144.701067 
L 437.792583 144.701067 
z
" style="fill:#0000ff;opacity:0.4;stroke:#000000;stroke-linejoin:miter;"/>
   </g>
   <g id="patch_57">
    <path clip-path="url(#pda73c3477c)" d="M 445.37275 434.11375 
L 452.952917 434.11375 
L 452.952917 136.454569 
L 445.37275 136.454569 
z
" style="fill:#0000ff;opacity:0.4;stroke:#000000;stroke-linejoin:miter;"/>
   </g>
   <g id="patch_58">
    <path clip-path="url(#pda73c3477c)" d="M 452.952917 434.11375 
L 460.533083 434.11375 
L 460.533083 132.676455 
L 452.952917 132.676455 
z
" style="fill:#0000ff;opacity:0.4;stroke:#000000;stroke-linejoin:miter;"/>
   </g>
   <g id="patch_59">
    <path clip-path="url(#pda73c3477c)" d="M 460.533083 434.11375 
L 468.11325 434.11375 
L 468.11325 126.29305 
L 460.533083 126.29305 
z
" style="fill:#0000ff;opacity:0.4;stroke:#000000;stroke-linejoin:miter;"/>
   </g>
   <g id="patch_60">
    <path clip-path="url(#pda73c3477c)" d="M 468.11325 434.11375 
L 475.693417 434.11375 
L 475.693417 121.129331 
L 468.11325 121.129331 
z
" style="fill:#0000ff;opacity:0.4;stroke:#000000;stroke-linejoin:miter;"/>
   </g>
   <g id="patch_61">
    <path clip-path="url(#pda73c3477c)" d="M 475.693417 434.11375 
L 483.273583 434.11375 
L 483.273583 114.966306 
L 475.693417 114.966306 
z
" style="fill:#0000ff;opacity:0.4;stroke:#000000;stroke-linejoin:miter;"/>
   </g>
   <g id="patch_62">
    <path clip-path="url(#pda73c3477c)" d="M 483.273583 434.11375 
L 490.85375 434.11375 
L 490.85375 108.802014 
L 483.273583 108.802014 
z
" style="fill:#0000ff;opacity:0.4;stroke:#000000;stroke-linejoin:miter;"/>
   </g>
   <g id="patch_63">
    <path clip-path="url(#pda73c3477c)" d="M 490.85375 434.11375 
L 498.433917 434.11375 
L 498.433917 103.029085 
L 490.85375 103.029085 
z
" style="fill:#0000ff;opacity:0.4;stroke:#000000;stroke-linejoin:miter;"/>
   </g>
   <g id="patch_64">
    <path clip-path="url(#pda73c3477c)" d="M 498.433917 434.11375 
L 506.014083 434.11375 
L 506.014083 98.175671 
L 498.433917 98.175671 
z
" style="fill:#0000ff;opacity:0.4;stroke:#000000;stroke-linejoin:miter;"/>
   </g>
   <g id="patch_65">
    <path clip-path="url(#pda73c3477c)" d="M 506.014083 434.11375 
L 513.59425 434.11375 
L 513.59425 92.827037 
L 506.014083 92.827037 
z
" style="fill:#0000ff;opacity:0.4;stroke:#000000;stroke-linejoin:miter;"/>
   </g>
   <g id="patch_66">
    <path clip-path="url(#pda73c3477c)" d="M 513.59425 434.11375 
L 521.174417 434.11375 
L 521.174417 87.991354 
L 513.59425 87.991354 
z
" style="fill:#0000ff;opacity:0.4;stroke:#000000;stroke-linejoin:miter;"/>
   </g>
   <g id="patch_67">
    <path d="M 36.04375 434.11375 
L 36.04375 18.766875 
" style="fill:none;stroke:#000000;stroke-linecap:square;stroke-linejoin:miter;"/>
   </g>
   <g id="patch_68">
    <path d="M 36.04375 18.766875 
L 604.55625 18.766875 
" style="fill:none;stroke:#000000;stroke-linecap:square;stroke-linejoin:miter;"/>
   </g>
   <g id="patch_69">
    <path d="M 36.04375 434.11375 
L 604.55625 434.11375 
" style="fill:none;stroke:#000000;stroke-linecap:square;stroke-linejoin:miter;"/>
   </g>
   <g id="patch_70">
    <path d="M 604.55625 434.11375 
L 604.55625 18.766875 
" style="fill:none;stroke:#000000;stroke-linecap:square;stroke-linejoin:miter;"/>
   </g>
   <g id="matplotlib.axis_1">
    <g id="xtick_1">
     <g id="line2d_1">
      <defs>
       <path d="M 0 0 
L 0 -4 
" id="m755752fd80" style="stroke:#000000;stroke-width:0.5;"/>
      </defs>
      <g>
       <use style="stroke:#000000;stroke-width:0.5;" x="36.043749999999996" xlink:href="#m755752fd80" y="434.11375000000004"/>
      </g>
     </g>
     <g id="line2d_2">
      <defs>
       <path d="M 0 0 
L 0 4 
" id="mc7512bc4e7" style="stroke:#000000;stroke-width:0.5;"/>
      </defs>
      <g>
       <use style="stroke:#000000;stroke-width:0.5;" x="36.043749999999996" xlink:href="#mc7512bc4e7" y="18.766875000000027"/>
      </g>
     </g>
     <g id="text_1">
      <!-- 0 -->
      <defs>
       <path d="M 31.78125 66.40625 
Q 24.171875 66.40625 20.328125 58.90625 
Q 16.5 51.421875 16.5 36.375 
Q 16.5 21.390625 20.328125 13.890625 
Q 24.171875 6.390625 31.78125 6.390625 
Q 39.453125 6.390625 43.28125 13.890625 
Q 47.125 21.390625 47.125 36.375 
Q 47.125 51.421875 43.28125 58.90625 
Q 39.453125 66.40625 31.78125 66.40625 
M 31.78125 74.21875 
Q 44.046875 74.21875 50.515625 64.515625 
Q 56.984375 54.828125 56.984375 36.375 
Q 56.984375 17.96875 50.515625 8.265625 
Q 44.046875 -1.421875 31.78125 -1.421875 
Q 19.53125 -1.421875 13.0625 8.265625 
Q 6.59375 17.96875 6.59375 36.375 
Q 6.59375 54.828125 13.0625 64.515625 
Q 19.53125 74.21875 31.78125 74.21875 
" id="BitstreamVeraSans-Roman-30"/>
      </defs>
      <g transform="translate(32.22624999999999 447.231875)scale(0.12 -0.12)">
       <use xlink:href="#BitstreamVeraSans-Roman-30"/>
      </g>
     </g>
    </g>
    <g id="xtick_2">
     <g id="line2d_3">
      <g>
       <use style="stroke:#000000;stroke-width:0.5;" x="130.79583333333335" xlink:href="#m755752fd80" y="434.11375000000004"/>
      </g>
     </g>
     <g id="line2d_4">
      <g>
       <use style="stroke:#000000;stroke-width:0.5;" x="130.79583333333335" xlink:href="#mc7512bc4e7" y="18.766875000000027"/>
      </g>
     </g>
     <g id="text_2">
      <!-- 50 -->
      <defs>
       <path d="M 10.796875 72.90625 
L 49.515625 72.90625 
L 49.515625 64.59375 
L 19.828125 64.59375 
L 19.828125 46.734375 
Q 21.96875 47.46875 24.109375 47.828125 
Q 26.265625 48.1875 28.421875 48.1875 
Q 40.625 48.1875 47.75 41.5 
Q 54.890625 34.8125 54.890625 23.390625 
Q 54.890625 11.625 47.5625 5.09375 
Q 40.234375 -1.421875 26.90625 -1.421875 
Q 22.3125 -1.421875 17.546875 -0.640625 
Q 12.796875 0.140625 7.71875 1.703125 
L 7.71875 11.625 
Q 12.109375 9.234375 16.796875 8.0625 
Q 21.484375 6.890625 26.703125 6.890625 
Q 35.15625 6.890625 40.078125 11.328125 
Q 45.015625 15.765625 45.015625 23.390625 
Q 45.015625 31 40.078125 35.4375 
Q 35.15625 39.890625 26.703125 39.890625 
Q 22.75 39.890625 18.8125 39.015625 
Q 14.890625 38.140625 10.796875 36.28125 
z
" id="BitstreamVeraSans-Roman-35"/>
      </defs>
      <g transform="translate(123.16083333333334 447.231875)scale(0.12 -0.12)">
       <use xlink:href="#BitstreamVeraSans-Roman-35"/>
       <use x="63.623046875" xlink:href="#BitstreamVeraSans-Roman-30"/>
      </g>
     </g>
    </g>
    <g id="xtick_3">
     <g id="line2d_5">
      <g>
       <use style="stroke:#000000;stroke-width:0.5;" x="225.54791666666668" xlink:href="#m755752fd80" y="434.11375000000004"/>
      </g>
     </g>
     <g id="line2d_6">
      <g>
       <use style="stroke:#000000;stroke-width:0.5;" x="225.54791666666668" xlink:href="#mc7512bc4e7" y="18.766875000000027"/>
      </g>
     </g>
     <g id="text_3">
      <!-- 100 -->
      <defs>
       <path d="M 12.40625 8.296875 
L 28.515625 8.296875 
L 28.515625 63.921875 
L 10.984375 60.40625 
L 10.984375 69.390625 
L 28.421875 72.90625 
L 38.28125 72.90625 
L 38.28125 8.296875 
L 54.390625 8.296875 
L 54.390625 0 
L 12.40625 0 
z
" id="BitstreamVeraSans-Roman-31"/>
      </defs>
      <g transform="translate(214.0954166666667 447.231875)scale(0.12 -0.12)">
       <use xlink:href="#BitstreamVeraSans-Roman-31"/>
       <use x="63.623046875" xlink:href="#BitstreamVeraSans-Roman-30"/>
       <use x="127.24609375" xlink:href="#BitstreamVeraSans-Roman-30"/>
      </g>
     </g>
    </g>
    <g id="xtick_4">
     <g id="line2d_7">
      <g>
       <use style="stroke:#000000;stroke-width:0.5;" x="320.3" xlink:href="#m755752fd80" y="434.11375000000004"/>
      </g>
     </g>
     <g id="line2d_8">
      <g>
       <use style="stroke:#000000;stroke-width:0.5;" x="320.3" xlink:href="#mc7512bc4e7" y="18.766875000000027"/>
      </g>
     </g>
     <g id="text_4">
      <!-- 150 -->
      <g transform="translate(308.8475 447.231875)scale(0.12 -0.12)">
       <use xlink:href="#BitstreamVeraSans-Roman-31"/>
       <use x="63.623046875" xlink:href="#BitstreamVeraSans-Roman-35"/>
       <use x="127.24609375" xlink:href="#BitstreamVeraSans-Roman-30"/>
      </g>
     </g>
    </g>
    <g id="xtick_5">
     <g id="line2d_9">
      <g>
       <use style="stroke:#000000;stroke-width:0.5;" x="415.05208333333337" xlink:href="#m755752fd80" y="434.11375000000004"/>
      </g>
     </g>
     <g id="line2d_10">
      <g>
       <use style="stroke:#000000;stroke-width:0.5;" x="415.05208333333337" xlink:href="#mc7512bc4e7" y="18.766875000000027"/>
      </g>
     </g>
     <g id="text_5">
      <!-- 200 -->
      <defs>
       <path d="M 19.1875 8.296875 
L 53.609375 8.296875 
L 53.609375 0 
L 7.328125 0 
L 7.328125 8.296875 
Q 12.9375 14.109375 22.625 23.890625 
Q 32.328125 33.6875 34.8125 36.53125 
Q 39.546875 41.84375 41.421875 45.53125 
Q 43.3125 49.21875 43.3125 52.78125 
Q 43.3125 58.59375 39.234375 62.25 
Q 35.15625 65.921875 28.609375 65.921875 
Q 23.96875 65.921875 18.8125 64.3125 
Q 13.671875 62.703125 7.8125 59.421875 
L 7.8125 69.390625 
Q 13.765625 71.78125 18.9375 73 
Q 24.125 74.21875 28.421875 74.21875 
Q 39.75 74.21875 46.484375 68.546875 
Q 53.21875 62.890625 53.21875 53.421875 
Q 53.21875 48.921875 51.53125 44.890625 
Q 49.859375 40.875 45.40625 35.40625 
Q 44.1875 33.984375 37.640625 27.21875 
Q 31.109375 20.453125 19.1875 8.296875 
" id="BitstreamVeraSans-Roman-32"/>
      </defs>
      <g transform="translate(403.5995833333334 447.231875)scale(0.12 -0.12)">
       <use xlink:href="#BitstreamVeraSans-Roman-32"/>
       <use x="63.623046875" xlink:href="#BitstreamVeraSans-Roman-30"/>
       <use x="127.24609375" xlink:href="#BitstreamVeraSans-Roman-30"/>
      </g>
     </g>
    </g>
    <g id="xtick_6">
     <g id="line2d_11">
      <g>
       <use style="stroke:#000000;stroke-width:0.5;" x="509.80416666666673" xlink:href="#m755752fd80" y="434.11375000000004"/>
      </g>
     </g>
     <g id="line2d_12">
      <g>
       <use style="stroke:#000000;stroke-width:0.5;" x="509.80416666666673" xlink:href="#mc7512bc4e7" y="18.766875000000027"/>
      </g>
     </g>
     <g id="text_6">
      <!-- 250 -->
      <g transform="translate(498.35166666666674 447.231875)scale(0.12 -0.12)">
       <use xlink:href="#BitstreamVeraSans-Roman-32"/>
       <use x="63.623046875" xlink:href="#BitstreamVeraSans-Roman-35"/>
       <use x="127.24609375" xlink:href="#BitstreamVeraSans-Roman-30"/>
      </g>
     </g>
    </g>
    <g id="xtick_7">
     <g id="line2d_13">
      <g>
       <use style="stroke:#000000;stroke-width:0.5;" x="604.5562500000001" xlink:href="#m755752fd80" y="434.11375000000004"/>
      </g>
     </g>
     <g id="line2d_14">
      <g>
       <use style="stroke:#000000;stroke-width:0.5;" x="604.5562500000001" xlink:href="#mc7512bc4e7" y="18.766875000000027"/>
      </g>
     </g>
     <g id="text_7">
      <!-- 300 -->
      <defs>
       <path d="M 40.578125 39.3125 
Q 47.65625 37.796875 51.625 33 
Q 55.609375 28.21875 55.609375 21.1875 
Q 55.609375 10.40625 48.1875 4.484375 
Q 40.765625 -1.421875 27.09375 -1.421875 
Q 22.515625 -1.421875 17.65625 -0.515625 
Q 12.796875 0.390625 7.625 2.203125 
L 7.625 11.71875 
Q 11.71875 9.328125 16.59375 8.109375 
Q 21.484375 6.890625 26.8125 6.890625 
Q 36.078125 6.890625 40.9375 10.546875 
Q 45.796875 14.203125 45.796875 21.1875 
Q 45.796875 27.640625 41.28125 31.265625 
Q 36.765625 34.90625 28.71875 34.90625 
L 20.21875 34.90625 
L 20.21875 43.015625 
L 29.109375 43.015625 
Q 36.375 43.015625 40.234375 45.921875 
Q 44.09375 48.828125 44.09375 54.296875 
Q 44.09375 59.90625 40.109375 62.90625 
Q 36.140625 65.921875 28.71875 65.921875 
Q 24.65625 65.921875 20.015625 65.03125 
Q 15.375 64.15625 9.8125 62.3125 
L 9.8125 71.09375 
Q 15.4375 72.65625 20.34375 73.4375 
Q 25.25 74.21875 29.59375 74.21875 
Q 40.828125 74.21875 47.359375 69.109375 
Q 53.90625 64.015625 53.90625 55.328125 
Q 53.90625 49.265625 50.4375 45.09375 
Q 46.96875 40.921875 40.578125 39.3125 
" id="BitstreamVeraSans-Roman-33"/>
      </defs>
      <g transform="translate(593.1037500000001 447.231875)scale(0.12 -0.12)">
       <use xlink:href="#BitstreamVeraSans-Roman-33"/>
       <use x="63.623046875" xlink:href="#BitstreamVeraSans-Roman-30"/>
       <use x="127.24609375" xlink:href="#BitstreamVeraSans-Roman-30"/>
      </g>
     </g>
    </g>
   </g>
   <g id="matplotlib.axis_2">
    <g id="ytick_1">
     <g id="line2d_15">
      <defs>
       <path d="M 0 0 
L 4 0 
" id="m9f3633ca28" style="stroke:#000000;stroke-width:0.5;"/>
      </defs>
      <g>
       <use style="stroke:#000000;stroke-width:0.5;" x="36.043749999999996" xlink:href="#m9f3633ca28" y="434.11375000000004"/>
      </g>
     </g>
     <g id="line2d_16">
      <defs>
       <path d="M 0 0 
L -4 0 
" id="maf09748453" style="stroke:#000000;stroke-width:0.5;"/>
      </defs>
      <g>
       <use style="stroke:#000000;stroke-width:0.5;" x="604.5562500000001" xlink:href="#maf09748453" y="434.11375000000004"/>
      </g>
     </g>
     <g id="text_8">
      <!-- 0.0 -->
      <defs>
       <path d="M 10.6875 12.40625 
L 21 12.40625 
L 21 0 
L 10.6875 0 
z
" id="BitstreamVeraSans-Roman-2e"/>
      </defs>
      <g transform="translate(12.959999999999997 437.425)scale(0.12 -0.12)">
       <use xlink:href="#BitstreamVeraSans-Roman-30"/>
       <use x="63.623046875" xlink:href="#BitstreamVeraSans-Roman-2e"/>
       <use x="95.41015625" xlink:href="#BitstreamVeraSans-Roman-30"/>
      </g>
     </g>
    </g>
    <g id="ytick_2">
     <g id="line2d_17">
      <g>
       <use style="stroke:#000000;stroke-width:0.5;" x="36.043749999999996" xlink:href="#m9f3633ca28" y="364.8892708333334"/>
      </g>
     </g>
     <g id="line2d_18">
      <g>
       <use style="stroke:#000000;stroke-width:0.5;" x="604.5562500000001" xlink:href="#maf09748453" y="364.8892708333334"/>
      </g>
     </g>
     <g id="text_9">
      <!-- 0.2 -->
      <g transform="translate(12.959999999999997 368.20052083333337)scale(0.12 -0.12)">
       <use xlink:href="#BitstreamVeraSans-Roman-30"/>
       <use x="63.623046875" xlink:href="#BitstreamVeraSans-Roman-2e"/>
       <use x="95.41015625" xlink:href="#BitstreamVeraSans-Roman-32"/>
      </g>
     </g>
    </g>
    <g id="ytick_3">
     <g id="line2d_19">
      <g>
       <use style="stroke:#000000;stroke-width:0.5;" x="36.043749999999996" xlink:href="#m9f3633ca28" y="295.6647916666667"/>
      </g>
     </g>
     <g id="line2d_20">
      <g>
       <use style="stroke:#000000;stroke-width:0.5;" x="604.5562500000001" xlink:href="#maf09748453" y="295.6647916666667"/>
      </g>
     </g>
     <g id="text_10">
      <!-- 0.4 -->
      <defs>
       <path d="M 37.796875 64.3125 
L 12.890625 25.390625 
L 37.796875 25.390625 
z
M 35.203125 72.90625 
L 47.609375 72.90625 
L 47.609375 25.390625 
L 58.015625 25.390625 
L 58.015625 17.1875 
L 47.609375 17.1875 
L 47.609375 0 
L 37.796875 0 
L 37.796875 17.1875 
L 4.890625 17.1875 
L 4.890625 26.703125 
z
" id="BitstreamVeraSans-Roman-34"/>
      </defs>
      <g transform="translate(12.959999999999997 298.9760416666667)scale(0.12 -0.12)">
       <use xlink:href="#BitstreamVeraSans-Roman-30"/>
       <use x="63.623046875" xlink:href="#BitstreamVeraSans-Roman-2e"/>
       <use x="95.41015625" xlink:href="#BitstreamVeraSans-Roman-34"/>
      </g>
     </g>
    </g>
    <g id="ytick_4">
     <g id="line2d_21">
      <g>
       <use style="stroke:#000000;stroke-width:0.5;" x="36.043749999999996" xlink:href="#m9f3633ca28" y="226.44031250000003"/>
      </g>
     </g>
     <g id="line2d_22">
      <g>
       <use style="stroke:#000000;stroke-width:0.5;" x="604.5562500000001" xlink:href="#maf09748453" y="226.44031250000003"/>
      </g>
     </g>
     <g id="text_11">
      <!-- 0.6 -->
      <defs>
       <path d="M 33.015625 40.375 
Q 26.375 40.375 22.484375 35.828125 
Q 18.609375 31.296875 18.609375 23.390625 
Q 18.609375 15.53125 22.484375 10.953125 
Q 26.375 6.390625 33.015625 6.390625 
Q 39.65625 6.390625 43.53125 10.953125 
Q 47.40625 15.53125 47.40625 23.390625 
Q 47.40625 31.296875 43.53125 35.828125 
Q 39.65625 40.375 33.015625 40.375 
M 52.59375 71.296875 
L 52.59375 62.3125 
Q 48.875 64.0625 45.09375 64.984375 
Q 41.3125 65.921875 37.59375 65.921875 
Q 27.828125 65.921875 22.671875 59.328125 
Q 17.53125 52.734375 16.796875 39.40625 
Q 19.671875 43.65625 24.015625 45.921875 
Q 28.375 48.1875 33.59375 48.1875 
Q 44.578125 48.1875 50.953125 41.515625 
Q 57.328125 34.859375 57.328125 23.390625 
Q 57.328125 12.15625 50.6875 5.359375 
Q 44.046875 -1.421875 33.015625 -1.421875 
Q 20.359375 -1.421875 13.671875 8.265625 
Q 6.984375 17.96875 6.984375 36.375 
Q 6.984375 53.65625 15.1875 63.9375 
Q 23.390625 74.21875 37.203125 74.21875 
Q 40.921875 74.21875 44.703125 73.484375 
Q 48.484375 72.75 52.59375 71.296875 
" id="BitstreamVeraSans-Roman-36"/>
      </defs>
      <g transform="translate(12.959999999999997 229.7515625)scale(0.12 -0.12)">
       <use xlink:href="#BitstreamVeraSans-Roman-30"/>
       <use x="63.623046875" xlink:href="#BitstreamVeraSans-Roman-2e"/>
       <use x="95.41015625" xlink:href="#BitstreamVeraSans-Roman-36"/>
      </g>
     </g>
    </g>
    <g id="ytick_5">
     <g id="line2d_23">
      <g>
       <use style="stroke:#000000;stroke-width:0.5;" x="36.043749999999996" xlink:href="#m9f3633ca28" y="157.21583333333336"/>
      </g>
     </g>
     <g id="line2d_24">
      <g>
       <use style="stroke:#000000;stroke-width:0.5;" x="604.5562500000001" xlink:href="#maf09748453" y="157.21583333333336"/>
      </g>
     </g>
     <g id="text_12">
      <!-- 0.8 -->
      <defs>
       <path d="M 31.78125 34.625 
Q 24.75 34.625 20.71875 30.859375 
Q 16.703125 27.09375 16.703125 20.515625 
Q 16.703125 13.921875 20.71875 10.15625 
Q 24.75 6.390625 31.78125 6.390625 
Q 38.8125 6.390625 42.859375 10.171875 
Q 46.921875 13.96875 46.921875 20.515625 
Q 46.921875 27.09375 42.890625 30.859375 
Q 38.875 34.625 31.78125 34.625 
M 21.921875 38.8125 
Q 15.578125 40.375 12.03125 44.71875 
Q 8.5 49.078125 8.5 55.328125 
Q 8.5 64.0625 14.71875 69.140625 
Q 20.953125 74.21875 31.78125 74.21875 
Q 42.671875 74.21875 48.875 69.140625 
Q 55.078125 64.0625 55.078125 55.328125 
Q 55.078125 49.078125 51.53125 44.71875 
Q 48 40.375 41.703125 38.8125 
Q 48.828125 37.15625 52.796875 32.3125 
Q 56.78125 27.484375 56.78125 20.515625 
Q 56.78125 9.90625 50.3125 4.234375 
Q 43.84375 -1.421875 31.78125 -1.421875 
Q 19.734375 -1.421875 13.25 4.234375 
Q 6.78125 9.90625 6.78125 20.515625 
Q 6.78125 27.484375 10.78125 32.3125 
Q 14.796875 37.15625 21.921875 38.8125 
M 18.3125 54.390625 
Q 18.3125 48.734375 21.84375 45.5625 
Q 25.390625 42.390625 31.78125 42.390625 
Q 38.140625 42.390625 41.71875 45.5625 
Q 45.3125 48.734375 45.3125 54.390625 
Q 45.3125 60.0625 41.71875 63.234375 
Q 38.140625 66.40625 31.78125 66.40625 
Q 25.390625 66.40625 21.84375 63.234375 
Q 18.3125 60.0625 18.3125 54.390625 
" id="BitstreamVeraSans-Roman-38"/>
      </defs>
      <g transform="translate(12.959999999999997 160.52708333333334)scale(0.12 -0.12)">
       <use xlink:href="#BitstreamVeraSans-Roman-30"/>
       <use x="63.623046875" xlink:href="#BitstreamVeraSans-Roman-2e"/>
       <use x="95.41015625" xlink:href="#BitstreamVeraSans-Roman-38"/>
      </g>
     </g>
    </g>
    <g id="ytick_6">
     <g id="line2d_25">
      <g>
       <use style="stroke:#000000;stroke-width:0.5;" x="36.043749999999996" xlink:href="#m9f3633ca28" y="87.99135416666672"/>
      </g>
     </g>
     <g id="line2d_26">
      <g>
       <use style="stroke:#000000;stroke-width:0.5;" x="604.5562500000001" xlink:href="#maf09748453" y="87.99135416666672"/>
      </g>
     </g>
     <g id="text_13">
      <!-- 1.0 -->
      <g transform="translate(12.959999999999997 91.3026041666667)scale(0.12 -0.12)">
       <use xlink:href="#BitstreamVeraSans-Roman-31"/>
       <use x="63.623046875" xlink:href="#BitstreamVeraSans-Roman-2e"/>
       <use x="95.41015625" xlink:href="#BitstreamVeraSans-Roman-30"/>
      </g>
     </g>
    </g>
    <g id="ytick_7">
     <g id="line2d_27">
      <g>
       <use style="stroke:#000000;stroke-width:0.5;" x="36.043749999999996" xlink:href="#m9f3633ca28" y="18.766875000000027"/>
      </g>
     </g>
     <g id="line2d_28">
      <g>
       <use style="stroke:#000000;stroke-width:0.5;" x="604.5562500000001" xlink:href="#maf09748453" y="18.766875000000027"/>
      </g>
     </g>
     <g id="text_14">
      <!-- 1.2 -->
      <g transform="translate(12.959999999999997 22.078125)scale(0.12 -0.12)">
       <use xlink:href="#BitstreamVeraSans-Roman-31"/>
       <use x="63.623046875" xlink:href="#BitstreamVeraSans-Roman-2e"/>
       <use x="95.41015625" xlink:href="#BitstreamVeraSans-Roman-32"/>
      </g>
     </g>
    </g>
   </g>
  </g>
 </g>
 <defs>
  <clipPath id="pda73c3477c">
   <rect height="415.346875" width="568.5125" x="36.043749999999996" y="18.766875000000027"/>
  </clipPath>
 </defs>
</svg>
