<?xml version="1.0" encoding="utf-8" standalone="no"?>
<!DOCTYPE svg PUBLIC "-//W3C//DTD SVG 1.1//EN"
  "http://www.w3.org/Graphics/SVG/1.1/DTD/svg11.dtd">
<!-- Created with matplotlib (http://matplotlib.org/) -->
<svg height="462pt" version="1.1" viewBox="0 0 628 462" width="628pt" xmlns="http://www.w3.org/2000/svg" xmlns:xlink="http://www.w3.org/1999/xlink">
 <defs>
  <style type="text/css">
*{stroke-linecap:butt;stroke-linejoin:round;stroke-miterlimit:100000;}
  </style>
 </defs>
 <g id="figure_1">
  <g id="patch_1">
   <path d="M 0 462.6875 
L 628.96875 462.6875 
L 628.96875 0 
L 0 0 
z
" style="fill:#ffffff;"/>
  </g>
  <g id="axes_1">
   <g id="patch_2">
    <path d="M 46.335938 418.151562 
L 604.886875 418.151562 
L 604.886875 17.620937 
L 46.335938 17.620937 
z
" style="fill:#eaeaf2;"/>
   </g>
   <g id="matplotlib.axis_1">
    <g id="xtick_1">
     <g id="line2d_1">
      <path clip-path="url(#p65aad4f2ef)" d="M 46.335938 418.151562 
L 46.335938 17.620937 
" style="fill:none;stroke:#ffffff;stroke-linecap:round;"/>
     </g>
     <g id="line2d_2">
      <defs>
       <path d="M 0 0 
L 0 0 
" id="m23458152ef" style="stroke:#262626;"/>
      </defs>
      <g>
       <use style="fill:#262626;stroke:#262626;" x="46.3359375" xlink:href="#m23458152ef" y="418.15156249999995"/>
      </g>
     </g>
     <g id="line2d_3">
      <g>
       <use style="fill:#262626;stroke:#262626;" x="46.3359375" xlink:href="#m23458152ef" y="17.620937499999968"/>
      </g>
     </g>
     <g id="text_1">
      <!-- 1000 -->
      <defs>
       <path d="M 51.703125 34.421875 
Q 51.703125 24.515625 49.828125 17.75 
Q 47.953125 10.984375 44.703125 6.8125 
Q 41.453125 2.640625 37.0625 0.828125 
Q 32.671875 -0.984375 27.6875 -0.984375 
Q 22.65625 -0.984375 18.3125 0.828125 
Q 13.96875 2.640625 10.765625 6.78125 
Q 7.5625 10.9375 5.734375 17.703125 
Q 3.90625 24.46875 3.90625 34.421875 
Q 3.90625 44.828125 5.734375 51.640625 
Q 7.5625 58.453125 10.78125 62.5 
Q 14.015625 66.546875 18.40625 68.1875 
Q 22.796875 69.828125 27.984375 69.828125 
Q 32.90625 69.828125 37.21875 68.1875 
Q 41.546875 66.546875 44.765625 62.5 
Q 48 58.453125 49.84375 51.640625 
Q 51.703125 44.828125 51.703125 34.421875 
M 42.78125 34.421875 
Q 42.78125 42.625 41.796875 48.0625 
Q 40.828125 53.515625 38.921875 56.765625 
Q 37.015625 60.015625 34.25 61.359375 
Q 31.5 62.703125 27.984375 62.703125 
Q 24.265625 62.703125 21.4375 61.328125 
Q 18.609375 59.96875 16.671875 56.71875 
Q 14.75 53.46875 13.765625 48.015625 
Q 12.796875 42.578125 12.796875 34.421875 
Q 12.796875 26.515625 13.796875 21.09375 
Q 14.796875 15.671875 16.71875 12.375 
Q 18.65625 9.078125 21.4375 7.640625 
Q 24.21875 6.203125 27.78125 6.203125 
Q 31.25 6.203125 34.03125 7.640625 
Q 36.8125 9.078125 38.734375 12.375 
Q 40.671875 15.671875 41.71875 21.09375 
Q 42.78125 26.515625 42.78125 34.421875 
" id="LiberationSans-30"/>
       <path d="M 7.625 0 
L 7.625 7.46875 
L 25.140625 7.46875 
L 25.140625 60.40625 
L 9.625 49.3125 
L 9.625 57.625 
L 25.875 68.796875 
L 33.984375 68.796875 
L 33.984375 7.46875 
L 50.734375 7.46875 
L 50.734375 0 
z
" id="LiberationSans-31"/>
      </defs>
      <g style="fill:#262626;" transform="translate(35.2140625 432.3984375)scale(0.1 -0.1)">
       <use xlink:href="#LiberationSans-31"/>
       <use x="55.615234375" xlink:href="#LiberationSans-30"/>
       <use x="111.23046875" xlink:href="#LiberationSans-30"/>
       <use x="166.845703125" xlink:href="#LiberationSans-30"/>
      </g>
     </g>
    </g>
    <g id="xtick_2">
     <g id="line2d_4">
      <path clip-path="url(#p65aad4f2ef)" d="M 108.397153 418.151562 
L 108.397153 17.620937 
" style="fill:none;stroke:#ffffff;stroke-linecap:round;"/>
     </g>
     <g id="line2d_5">
      <g>
       <use style="fill:#262626;stroke:#262626;" x="108.39715277777778" xlink:href="#m23458152ef" y="418.15156249999995"/>
      </g>
     </g>
     <g id="line2d_6">
      <g>
       <use style="fill:#262626;stroke:#262626;" x="108.39715277777778" xlink:href="#m23458152ef" y="17.620937499999968"/>
      </g>
     </g>
     <g id="text_2">
      <!-- 1500 -->
      <defs>
       <path d="M 51.421875 22.40625 
Q 51.421875 17.234375 49.859375 12.9375 
Q 48.296875 8.640625 45.21875 5.53125 
Q 42.140625 2.4375 37.578125 0.71875 
Q 33.015625 -0.984375 27 -0.984375 
Q 21.578125 -0.984375 17.546875 0.28125 
Q 13.53125 1.5625 10.734375 3.78125 
Q 7.953125 6 6.3125 8.984375 
Q 4.6875 11.96875 4 15.375 
L 12.890625 16.40625 
Q 13.421875 14.453125 14.390625 12.625 
Q 15.375 10.796875 17.0625 9.34375 
Q 18.75 7.90625 21.21875 7.046875 
Q 23.6875 6.203125 27.203125 6.203125 
Q 30.609375 6.203125 33.390625 7.25 
Q 36.1875 8.296875 38.15625 10.34375 
Q 40.140625 12.40625 41.203125 15.375 
Q 42.28125 18.359375 42.28125 22.21875 
Q 42.28125 25.390625 41.25 28.046875 
Q 40.234375 30.71875 38.328125 32.640625 
Q 36.421875 34.578125 33.65625 35.640625 
Q 30.90625 36.71875 27.390625 36.71875 
Q 25.203125 36.71875 23.34375 36.328125 
Q 21.484375 35.9375 19.890625 35.25 
Q 18.3125 34.578125 17.015625 33.671875 
Q 15.71875 32.765625 14.59375 31.78125 
L 6 31.78125 
L 8.296875 68.796875 
L 47.40625 68.796875 
L 47.40625 61.328125 
L 16.3125 61.328125 
L 14.984375 39.5 
Q 17.328125 41.3125 20.84375 42.59375 
Q 24.359375 43.890625 29.203125 43.890625 
Q 34.328125 43.890625 38.421875 42.328125 
Q 42.53125 40.765625 45.40625 37.90625 
Q 48.296875 35.0625 49.859375 31.109375 
Q 51.421875 27.15625 51.421875 22.40625 
" id="LiberationSans-35"/>
      </defs>
      <g style="fill:#262626;" transform="translate(97.27527777777777 432.3984375)scale(0.1 -0.1)">
       <use xlink:href="#LiberationSans-31"/>
       <use x="55.615234375" xlink:href="#LiberationSans-35"/>
       <use x="111.23046875" xlink:href="#LiberationSans-30"/>
       <use x="166.845703125" xlink:href="#LiberationSans-30"/>
      </g>
     </g>
    </g>
    <g id="xtick_3">
     <g id="line2d_7">
      <path clip-path="url(#p65aad4f2ef)" d="M 170.458368 418.151562 
L 170.458368 17.620937 
" style="fill:none;stroke:#ffffff;stroke-linecap:round;"/>
     </g>
     <g id="line2d_8">
      <g>
       <use style="fill:#262626;stroke:#262626;" x="170.45836805555558" xlink:href="#m23458152ef" y="418.15156249999995"/>
      </g>
     </g>
     <g id="line2d_9">
      <g>
       <use style="fill:#262626;stroke:#262626;" x="170.45836805555558" xlink:href="#m23458152ef" y="17.620937499999968"/>
      </g>
     </g>
     <g id="text_3">
      <!-- 2000 -->
      <defs>
       <path d="M 5.03125 0 
L 5.03125 6.203125 
Q 7.515625 11.921875 11.109375 16.28125 
Q 14.703125 20.65625 18.65625 24.1875 
Q 22.609375 27.734375 26.484375 30.765625 
Q 30.375 33.796875 33.5 36.8125 
Q 36.625 39.84375 38.546875 43.15625 
Q 40.484375 46.484375 40.484375 50.6875 
Q 40.484375 53.609375 39.59375 55.828125 
Q 38.71875 58.0625 37.0625 59.5625 
Q 35.40625 61.078125 33.078125 61.828125 
Q 30.765625 62.59375 27.9375 62.59375 
Q 25.296875 62.59375 22.96875 61.859375 
Q 20.65625 61.140625 18.84375 59.671875 
Q 17.046875 58.203125 15.890625 56.03125 
Q 14.75 53.859375 14.40625 50.984375 
L 5.421875 51.8125 
Q 5.859375 55.515625 7.46875 58.78125 
Q 9.078125 62.0625 11.90625 64.53125 
Q 14.75 67 18.71875 68.40625 
Q 22.703125 69.828125 27.9375 69.828125 
Q 33.0625 69.828125 37.0625 68.609375 
Q 41.0625 67.390625 43.8125 64.984375 
Q 46.578125 62.59375 48.046875 59.078125 
Q 49.515625 55.5625 49.515625 50.984375 
Q 49.515625 47.515625 48.265625 44.390625 
Q 47.015625 41.265625 44.9375 38.421875 
Q 42.875 35.59375 40.140625 32.953125 
Q 37.40625 30.328125 34.421875 27.8125 
Q 31.453125 25.296875 28.421875 22.828125 
Q 25.390625 20.359375 22.71875 17.859375 
Q 20.0625 15.375 17.96875 12.8125 
Q 15.875 10.25 14.703125 7.46875 
L 50.59375 7.46875 
L 50.59375 0 
z
" id="LiberationSans-32"/>
      </defs>
      <g style="fill:#262626;" transform="translate(159.3364930555556 432.3984375)scale(0.1 -0.1)">
       <use xlink:href="#LiberationSans-32"/>
       <use x="55.615234375" xlink:href="#LiberationSans-30"/>
       <use x="111.23046875" xlink:href="#LiberationSans-30"/>
       <use x="166.845703125" xlink:href="#LiberationSans-30"/>
      </g>
     </g>
    </g>
    <g id="xtick_4">
     <g id="line2d_10">
      <path clip-path="url(#p65aad4f2ef)" d="M 232.519583 418.151562 
L 232.519583 17.620937 
" style="fill:none;stroke:#ffffff;stroke-linecap:round;"/>
     </g>
     <g id="line2d_11">
      <g>
       <use style="fill:#262626;stroke:#262626;" x="232.51958333333334" xlink:href="#m23458152ef" y="418.15156249999995"/>
      </g>
     </g>
     <g id="line2d_12">
      <g>
       <use style="fill:#262626;stroke:#262626;" x="232.51958333333334" xlink:href="#m23458152ef" y="17.620937499999968"/>
      </g>
     </g>
     <g id="text_4">
      <!-- 2500 -->
      <g style="fill:#262626;" transform="translate(221.39770833333336 432.3984375)scale(0.1 -0.1)">
       <use xlink:href="#LiberationSans-32"/>
       <use x="55.615234375" xlink:href="#LiberationSans-35"/>
       <use x="111.23046875" xlink:href="#LiberationSans-30"/>
       <use x="166.845703125" xlink:href="#LiberationSans-30"/>
      </g>
     </g>
    </g>
    <g id="xtick_5">
     <g id="line2d_13">
      <path clip-path="url(#p65aad4f2ef)" d="M 294.580799 418.151562 
L 294.580799 17.620937 
" style="fill:none;stroke:#ffffff;stroke-linecap:round;"/>
     </g>
     <g id="line2d_14">
      <g>
       <use style="fill:#262626;stroke:#262626;" x="294.5807986111111" xlink:href="#m23458152ef" y="418.15156249999995"/>
      </g>
     </g>
     <g id="line2d_15">
      <g>
       <use style="fill:#262626;stroke:#262626;" x="294.5807986111111" xlink:href="#m23458152ef" y="17.620937499999968"/>
      </g>
     </g>
     <g id="text_5">
      <!-- 3000 -->
      <defs>
       <path d="M 51.21875 19 
Q 51.21875 14.265625 49.671875 10.546875 
Q 48.140625 6.84375 45.1875 4.265625 
Q 42.234375 1.703125 37.859375 0.359375 
Q 33.5 -0.984375 27.875 -0.984375 
Q 21.484375 -0.984375 17.109375 0.609375 
Q 12.75 2.203125 9.90625 4.8125 
Q 7.078125 7.421875 5.65625 10.765625 
Q 4.25 14.109375 3.8125 17.671875 
L 12.890625 18.5 
Q 13.28125 15.765625 14.328125 13.515625 
Q 15.375 11.28125 17.1875 9.671875 
Q 19 8.0625 21.625 7.171875 
Q 24.265625 6.296875 27.875 6.296875 
Q 34.515625 6.296875 38.296875 9.5625 
Q 42.09375 12.84375 42.09375 19.28125 
Q 42.09375 23.09375 40.40625 25.40625 
Q 38.71875 27.734375 36.203125 29.03125 
Q 33.6875 30.328125 30.734375 30.765625 
Q 27.78125 31.203125 25.296875 31.203125 
L 20.3125 31.203125 
L 20.3125 38.8125 
L 25.09375 38.8125 
Q 27.59375 38.8125 30.265625 39.328125 
Q 32.953125 39.84375 35.171875 41.1875 
Q 37.40625 42.53125 38.84375 44.828125 
Q 40.28125 47.125 40.28125 50.6875 
Q 40.28125 56.203125 37.03125 59.390625 
Q 33.796875 62.59375 27.390625 62.59375 
Q 21.578125 62.59375 17.984375 59.609375 
Q 14.40625 56.640625 13.8125 51.21875 
L 4.984375 51.90625 
Q 5.515625 56.453125 7.46875 59.8125 
Q 9.421875 63.1875 12.421875 65.40625 
Q 15.4375 67.625 19.28125 68.71875 
Q 23.140625 69.828125 27.484375 69.828125 
Q 33.25 69.828125 37.390625 68.375 
Q 41.546875 66.9375 44.1875 64.46875 
Q 46.828125 62.015625 48.0625 58.6875 
Q 49.3125 55.375 49.3125 51.609375 
Q 49.3125 48.578125 48.484375 45.9375 
Q 47.65625 43.3125 45.890625 41.203125 
Q 44.140625 39.109375 41.421875 37.59375 
Q 38.71875 36.078125 34.90625 35.296875 
L 34.90625 35.109375 
Q 39.0625 34.671875 42.140625 33.21875 
Q 45.21875 31.78125 47.21875 29.625 
Q 49.21875 27.484375 50.21875 24.75 
Q 51.21875 22.015625 51.21875 19 
" id="LiberationSans-33"/>
      </defs>
      <g style="fill:#262626;" transform="translate(283.4589236111111 432.3984375)scale(0.1 -0.1)">
       <use xlink:href="#LiberationSans-33"/>
       <use x="55.615234375" xlink:href="#LiberationSans-30"/>
       <use x="111.23046875" xlink:href="#LiberationSans-30"/>
       <use x="166.845703125" xlink:href="#LiberationSans-30"/>
      </g>
     </g>
    </g>
    <g id="xtick_6">
     <g id="line2d_16">
      <path clip-path="url(#p65aad4f2ef)" d="M 356.642014 418.151562 
L 356.642014 17.620937 
" style="fill:none;stroke:#ffffff;stroke-linecap:round;"/>
     </g>
     <g id="line2d_17">
      <g>
       <use style="fill:#262626;stroke:#262626;" x="356.6420138888889" xlink:href="#m23458152ef" y="418.15156249999995"/>
      </g>
     </g>
     <g id="line2d_18">
      <g>
       <use style="fill:#262626;stroke:#262626;" x="356.6420138888889" xlink:href="#m23458152ef" y="17.620937499999968"/>
      </g>
     </g>
     <g id="text_6">
      <!-- 3500 -->
      <g style="fill:#262626;" transform="translate(345.52013888888894 432.3984375)scale(0.1 -0.1)">
       <use xlink:href="#LiberationSans-33"/>
       <use x="55.615234375" xlink:href="#LiberationSans-35"/>
       <use x="111.23046875" xlink:href="#LiberationSans-30"/>
       <use x="166.845703125" xlink:href="#LiberationSans-30"/>
      </g>
     </g>
    </g>
    <g id="xtick_7">
     <g id="line2d_19">
      <path clip-path="url(#p65aad4f2ef)" d="M 418.703229 418.151562 
L 418.703229 17.620937 
" style="fill:none;stroke:#ffffff;stroke-linecap:round;"/>
     </g>
     <g id="line2d_20">
      <g>
       <use style="fill:#262626;stroke:#262626;" x="418.7032291666667" xlink:href="#m23458152ef" y="418.15156249999995"/>
      </g>
     </g>
     <g id="line2d_21">
      <g>
       <use style="fill:#262626;stroke:#262626;" x="418.7032291666667" xlink:href="#m23458152ef" y="17.620937499999968"/>
      </g>
     </g>
     <g id="text_7">
      <!-- 4000 -->
      <defs>
       <path d="M 43.015625 15.578125 
L 43.015625 0 
L 34.71875 0 
L 34.71875 15.578125 
L 2.296875 15.578125 
L 2.296875 22.40625 
L 33.796875 68.796875 
L 43.015625 68.796875 
L 43.015625 22.515625 
L 52.6875 22.515625 
L 52.6875 15.578125 
z
M 34.71875 58.890625 
Q 34.625 58.640625 34.234375 57.9375 
Q 33.84375 57.234375 33.34375 56.34375 
Q 32.859375 55.46875 32.34375 54.5625 
Q 31.84375 53.65625 31.453125 53.078125 
L 13.8125 27.09375 
Q 13.578125 26.703125 13.109375 26.0625 
Q 12.640625 25.4375 12.15625 24.78125 
Q 11.671875 24.125 11.171875 23.484375 
Q 10.6875 22.859375 10.40625 22.515625 
L 34.71875 22.515625 
z
" id="LiberationSans-34"/>
      </defs>
      <g style="fill:#262626;" transform="translate(407.5813541666667 432.3984375)scale(0.1 -0.1)">
       <use xlink:href="#LiberationSans-34"/>
       <use x="55.615234375" xlink:href="#LiberationSans-30"/>
       <use x="111.23046875" xlink:href="#LiberationSans-30"/>
       <use x="166.845703125" xlink:href="#LiberationSans-30"/>
      </g>
     </g>
    </g>
    <g id="xtick_8">
     <g id="line2d_22">
      <path clip-path="url(#p65aad4f2ef)" d="M 480.764444 418.151562 
L 480.764444 17.620937 
" style="fill:none;stroke:#ffffff;stroke-linecap:round;"/>
     </g>
     <g id="line2d_23">
      <g>
       <use style="fill:#262626;stroke:#262626;" x="480.76444444444445" xlink:href="#m23458152ef" y="418.15156249999995"/>
      </g>
     </g>
     <g id="line2d_24">
      <g>
       <use style="fill:#262626;stroke:#262626;" x="480.76444444444445" xlink:href="#m23458152ef" y="17.620937499999968"/>
      </g>
     </g>
     <g id="text_8">
      <!-- 4500 -->
      <g style="fill:#262626;" transform="translate(469.64256944444446 432.3984375)scale(0.1 -0.1)">
       <use xlink:href="#LiberationSans-34"/>
       <use x="55.615234375" xlink:href="#LiberationSans-35"/>
       <use x="111.23046875" xlink:href="#LiberationSans-30"/>
       <use x="166.845703125" xlink:href="#LiberationSans-30"/>
      </g>
     </g>
    </g>
    <g id="xtick_9">
     <g id="line2d_25">
      <path clip-path="url(#p65aad4f2ef)" d="M 542.82566 418.151562 
L 542.82566 17.620937 
" style="fill:none;stroke:#ffffff;stroke-linecap:round;"/>
     </g>
     <g id="line2d_26">
      <g>
       <use style="fill:#262626;stroke:#262626;" x="542.8256597222223" xlink:href="#m23458152ef" y="418.15156249999995"/>
      </g>
     </g>
     <g id="line2d_27">
      <g>
       <use style="fill:#262626;stroke:#262626;" x="542.8256597222223" xlink:href="#m23458152ef" y="17.620937499999968"/>
      </g>
     </g>
     <g id="text_9">
      <!-- 5000 -->
      <g style="fill:#262626;" transform="translate(531.7037847222223 432.3984375)scale(0.1 -0.1)">
       <use xlink:href="#LiberationSans-35"/>
       <use x="55.615234375" xlink:href="#LiberationSans-30"/>
       <use x="111.23046875" xlink:href="#LiberationSans-30"/>
       <use x="166.845703125" xlink:href="#LiberationSans-30"/>
      </g>
     </g>
    </g>
    <g id="xtick_10">
     <g id="line2d_28">
      <path clip-path="url(#p65aad4f2ef)" d="M 604.886875 418.151562 
L 604.886875 17.620937 
" style="fill:none;stroke:#ffffff;stroke-linecap:round;"/>
     </g>
     <g id="line2d_29">
      <g>
       <use style="fill:#262626;stroke:#262626;" x="604.886875" xlink:href="#m23458152ef" y="418.15156249999995"/>
      </g>
     </g>
     <g id="line2d_30">
      <g>
       <use style="fill:#262626;stroke:#262626;" x="604.886875" xlink:href="#m23458152ef" y="17.620937499999968"/>
      </g>
     </g>
     <g id="text_10">
      <!-- 5500 -->
      <g style="fill:#262626;" transform="translate(593.765 432.3984375)scale(0.1 -0.1)">
       <use xlink:href="#LiberationSans-35"/>
       <use x="55.615234375" xlink:href="#LiberationSans-35"/>
       <use x="111.23046875" xlink:href="#LiberationSans-30"/>
       <use x="166.845703125" xlink:href="#LiberationSans-30"/>
      </g>
     </g>
    </g>
    <g id="text_11">
     <!-- weight -->
     <defs>
      <path d="M 15.484375 43.796875 
Q 16.9375 46.484375 18.640625 48.359375 
Q 20.359375 50.25 22.40625 51.46875 
Q 24.46875 52.6875 26.90625 53.25 
Q 29.34375 53.8125 32.375 53.8125 
Q 37.453125 53.8125 40.703125 52.4375 
Q 43.953125 51.078125 45.828125 48.609375 
Q 47.703125 46.140625 48.40625 42.71875 
Q 49.125 39.3125 49.125 35.203125 
L 49.125 0 
L 40.28125 0 
L 40.28125 33.5 
Q 40.28125 36.859375 39.859375 39.390625 
Q 39.453125 41.9375 38.28125 43.625 
Q 37.109375 45.3125 34.953125 46.15625 
Q 32.8125 47.015625 29.390625 47.015625 
Q 26.265625 47.015625 23.75 45.890625 
Q 21.234375 44.78125 19.453125 42.71875 
Q 17.671875 40.671875 16.6875 37.734375 
Q 15.71875 34.8125 15.71875 31.15625 
L 15.71875 0 
L 6.9375 0 
L 6.9375 72.46875 
L 15.71875 72.46875 
L 15.71875 53.609375 
Q 15.71875 52 15.671875 50.390625 
Q 15.625 48.78125 15.546875 47.40625 
Q 15.484375 46.046875 15.421875 45.09375 
Q 15.375 44.140625 15.328125 43.796875 
z
" id="LiberationSans-68"/>
      <path d="M 27.046875 0.390625 
Q 25.046875 -0.140625 22.96875 -0.453125 
Q 20.90625 -0.78125 18.171875 -0.78125 
Q 7.625 -0.78125 7.625 11.1875 
L 7.625 46.4375 
L 1.515625 46.4375 
L 1.515625 52.828125 
L 7.953125 52.828125 
L 10.546875 64.65625 
L 16.40625 64.65625 
L 16.40625 52.828125 
L 26.171875 52.828125 
L 26.171875 46.4375 
L 16.40625 46.4375 
L 16.40625 13.09375 
Q 16.40625 9.28125 17.640625 7.734375 
Q 18.890625 6.203125 21.96875 6.203125 
Q 23.25 6.203125 24.4375 6.390625 
Q 25.640625 6.59375 27.046875 6.890625 
z
" id="LiberationSans-74"/>
      <path d="M 26.765625 -20.75 
Q 22.21875 -20.75 18.703125 -19.8125 
Q 15.1875 -18.890625 12.6875 -17.15625 
Q 10.203125 -15.4375 8.640625 -13.03125 
Q 7.078125 -10.640625 6.390625 -7.71875 
L 15.234375 -6.453125 
Q 16.109375 -10.109375 19.109375 -12.078125 
Q 22.125 -14.0625 27 -14.0625 
Q 29.984375 -14.0625 32.421875 -13.234375 
Q 34.859375 -12.40625 36.5625 -10.5625 
Q 38.28125 -8.734375 39.203125 -5.796875 
Q 40.140625 -2.875 40.140625 1.3125 
L 40.140625 9.8125 
L 40.046875 9.8125 
Q 39.0625 7.8125 37.625 5.984375 
Q 36.1875 4.15625 34.109375 2.734375 
Q 32.03125 1.3125 29.296875 0.453125 
Q 26.5625 -0.390625 23.046875 -0.390625 
Q 18.015625 -0.390625 14.421875 1.296875 
Q 10.84375 2.984375 8.5625 6.34375 
Q 6.296875 9.71875 5.25 14.71875 
Q 4.203125 19.734375 4.203125 26.3125 
Q 4.203125 32.671875 5.25 37.75 
Q 6.296875 42.828125 8.65625 46.359375 
Q 11.03125 49.90625 14.8125 51.78125 
Q 18.609375 53.65625 24.03125 53.65625 
Q 29.640625 53.65625 33.765625 51.09375 
Q 37.890625 48.53125 40.140625 43.796875 
L 40.234375 43.796875 
Q 40.234375 45.015625 40.296875 46.53125 
Q 40.375 48.046875 40.453125 49.390625 
Q 40.53125 50.734375 40.625 51.703125 
Q 40.71875 52.6875 40.828125 52.828125 
L 49.171875 52.828125 
Q 49.125 52.390625 49.078125 51.34375 
Q 49.03125 50.296875 48.96875 48.828125 
Q 48.921875 47.359375 48.890625 45.578125 
Q 48.875 43.796875 48.875 41.890625 
L 48.875 1.515625 
Q 48.875 -9.578125 43.421875 -15.15625 
Q 37.984375 -20.75 26.765625 -20.75 
M 40.140625 26.421875 
Q 40.140625 31.9375 38.9375 35.859375 
Q 37.75 39.796875 35.796875 42.28125 
Q 33.84375 44.78125 31.328125 45.953125 
Q 28.8125 47.125 26.171875 47.125 
Q 22.796875 47.125 20.375 45.953125 
Q 17.96875 44.78125 16.375 42.265625 
Q 14.796875 39.75 14.03125 35.8125 
Q 13.28125 31.890625 13.28125 26.421875 
Q 13.28125 20.703125 14.03125 16.8125 
Q 14.796875 12.9375 16.359375 10.546875 
Q 17.921875 8.15625 20.3125 7.125 
Q 22.703125 6.109375 26.03125 6.109375 
Q 28.65625 6.109375 31.171875 7.21875 
Q 33.6875 8.34375 35.6875 10.78125 
Q 37.703125 13.234375 38.921875 17.09375 
Q 40.140625 20.953125 40.140625 26.421875 
" id="LiberationSans-67"/>
      <path d="M 13.484375 24.5625 
Q 13.484375 20.40625 14.328125 16.90625 
Q 15.1875 13.421875 16.96875 10.90625 
Q 18.75 8.40625 21.53125 7 
Q 24.3125 5.609375 28.21875 5.609375 
Q 33.9375 5.609375 37.375 7.90625 
Q 40.828125 10.203125 42.046875 13.71875 
L 49.75 11.53125 
Q 48.921875 9.328125 47.4375 7.109375 
Q 45.953125 4.890625 43.453125 3.09375 
Q 40.96875 1.3125 37.234375 0.15625 
Q 33.5 -0.984375 28.21875 -0.984375 
Q 16.5 -0.984375 10.375 6 
Q 4.25 12.984375 4.25 26.765625 
Q 4.25 34.1875 6.09375 39.328125 
Q 7.953125 44.484375 11.171875 47.703125 
Q 14.40625 50.921875 18.703125 52.359375 
Q 23 53.8125 27.875 53.8125 
Q 34.515625 53.8125 38.984375 51.65625 
Q 43.453125 49.515625 46.15625 45.71875 
Q 48.875 41.9375 50.015625 36.8125 
Q 51.171875 31.6875 51.171875 25.734375 
L 51.171875 24.5625 
z
M 42.09375 31.296875 
Q 41.359375 39.65625 37.84375 43.484375 
Q 34.328125 47.3125 27.734375 47.3125 
Q 25.53125 47.3125 23.109375 46.609375 
Q 20.703125 45.90625 18.65625 44.09375 
Q 16.609375 42.28125 15.1875 39.171875 
Q 13.765625 36.078125 13.578125 31.296875 
z
" id="LiberationSans-65"/>
      <path d="M 57.328125 0 
L 47.125 0 
L 38.671875 34.078125 
Q 38.28125 35.40625 37.859375 37.359375 
Q 37.453125 39.3125 37.0625 41.15625 
Q 36.578125 43.3125 36.140625 45.609375 
Q 35.6875 43.40625 35.203125 41.265625 
Q 34.8125 39.40625 34.34375 37.40625 
Q 33.890625 35.40625 33.5 33.890625 
L 24.8125 0 
L 14.65625 0 
L -0.140625 52.828125 
L 8.546875 52.828125 
L 17.484375 16.9375 
Q 17.828125 15.828125 18.15625 14.1875 
Q 18.5 12.546875 18.84375 10.984375 
Q 19.1875 9.1875 19.578125 7.28125 
Q 19.96875 9.125 20.40625 10.890625 
Q 20.796875 12.40625 21.1875 13.96875 
Q 21.578125 15.53125 21.875 16.546875 
L 31.453125 52.828125 
L 40.875 52.828125 
L 50.09375 16.546875 
Q 50.4375 15.28125 50.828125 13.671875 
Q 51.21875 12.0625 51.5625 10.640625 
Q 51.953125 8.984375 52.34375 7.28125 
Q 52.734375 9.125 53.125 10.890625 
Q 53.46875 12.40625 53.828125 14.03125 
Q 54.203125 15.671875 54.546875 16.9375 
L 63.875 52.828125 
L 72.46875 52.828125 
z
" id="LiberationSans-77"/>
      <path d="M 6.6875 64.0625 
L 6.6875 72.46875 
L 15.484375 72.46875 
L 15.484375 64.0625 
z
M 6.6875 0 
L 6.6875 52.828125 
L 15.484375 52.828125 
L 15.484375 0 
z
" id="LiberationSans-69"/>
     </defs>
     <g style="fill:#262626;" transform="translate(309.713828125 447.445)scale(0.11 -0.11)">
      <use xlink:href="#LiberationSans-77"/>
      <use x="72.216796875" xlink:href="#LiberationSans-65"/>
      <use x="127.83203125" xlink:href="#LiberationSans-69"/>
      <use x="150.048828125" xlink:href="#LiberationSans-67"/>
      <use x="205.6640625" xlink:href="#LiberationSans-68"/>
      <use x="261.279296875" xlink:href="#LiberationSans-74"/>
     </g>
    </g>
   </g>
   <g id="matplotlib.axis_2">
    <g id="ytick_1">
     <g id="line2d_31">
      <path clip-path="url(#p65aad4f2ef)" d="M 46.335938 418.151562 
L 604.886875 418.151562 
" style="fill:none;stroke:#ffffff;stroke-linecap:round;"/>
     </g>
     <g id="line2d_32">
      <g>
       <use style="fill:#262626;stroke:#262626;" x="46.3359375" xlink:href="#m23458152ef" y="418.15156249999995"/>
      </g>
     </g>
     <g id="line2d_33">
      <g>
       <use style="fill:#262626;stroke:#262626;" x="604.886875" xlink:href="#m23458152ef" y="418.15156249999995"/>
      </g>
     </g>
     <g id="text_12">
      <!-- 0 -->
      <g style="fill:#262626;" transform="translate(33.775 420.73749999999995)scale(0.1 -0.1)">
       <use xlink:href="#LiberationSans-30"/>
      </g>
     </g>
    </g>
    <g id="ytick_2">
     <g id="line2d_34">
      <path clip-path="url(#p65aad4f2ef)" d="M 46.335938 351.396458 
L 604.886875 351.396458 
" style="fill:none;stroke:#ffffff;stroke-linecap:round;"/>
     </g>
     <g id="line2d_35">
      <g>
       <use style="fill:#262626;stroke:#262626;" x="46.3359375" xlink:href="#m23458152ef" y="351.39645833333327"/>
      </g>
     </g>
     <g id="line2d_36">
      <g>
       <use style="fill:#262626;stroke:#262626;" x="604.886875" xlink:href="#m23458152ef" y="351.39645833333327"/>
      </g>
     </g>
     <g id="text_13">
      <!-- 10 -->
      <g style="fill:#262626;" transform="translate(28.214062499999997 353.9823958333333)scale(0.1 -0.1)">
       <use xlink:href="#LiberationSans-31"/>
       <use x="55.615234375" xlink:href="#LiberationSans-30"/>
      </g>
     </g>
    </g>
    <g id="ytick_3">
     <g id="line2d_37">
      <path clip-path="url(#p65aad4f2ef)" d="M 46.335938 284.641354 
L 604.886875 284.641354 
" style="fill:none;stroke:#ffffff;stroke-linecap:round;"/>
     </g>
     <g id="line2d_38">
      <g>
       <use style="fill:#262626;stroke:#262626;" x="46.3359375" xlink:href="#m23458152ef" y="284.6413541666666"/>
      </g>
     </g>
     <g id="line2d_39">
      <g>
       <use style="fill:#262626;stroke:#262626;" x="604.886875" xlink:href="#m23458152ef" y="284.6413541666666"/>
      </g>
     </g>
     <g id="text_14">
      <!-- 20 -->
      <g style="fill:#262626;" transform="translate(28.214062499999997 287.22729166666664)scale(0.1 -0.1)">
       <use xlink:href="#LiberationSans-32"/>
       <use x="55.615234375" xlink:href="#LiberationSans-30"/>
      </g>
     </g>
    </g>
    <g id="ytick_4">
     <g id="line2d_40">
      <path clip-path="url(#p65aad4f2ef)" d="M 46.335938 217.88625 
L 604.886875 217.88625 
" style="fill:none;stroke:#ffffff;stroke-linecap:round;"/>
     </g>
     <g id="line2d_41">
      <g>
       <use style="fill:#262626;stroke:#262626;" x="46.3359375" xlink:href="#m23458152ef" y="217.88624999999996"/>
      </g>
     </g>
     <g id="line2d_42">
      <g>
       <use style="fill:#262626;stroke:#262626;" x="604.886875" xlink:href="#m23458152ef" y="217.88624999999996"/>
      </g>
     </g>
     <g id="text_15">
      <!-- 30 -->
      <g style="fill:#262626;" transform="translate(28.214062499999997 220.4721875)scale(0.1 -0.1)">
       <use xlink:href="#LiberationSans-33"/>
       <use x="55.615234375" xlink:href="#LiberationSans-30"/>
      </g>
     </g>
    </g>
    <g id="ytick_5">
     <g id="line2d_43">
      <path clip-path="url(#p65aad4f2ef)" d="M 46.335938 151.131146 
L 604.886875 151.131146 
" style="fill:none;stroke:#ffffff;stroke-linecap:round;"/>
     </g>
     <g id="line2d_44">
      <g>
       <use style="fill:#262626;stroke:#262626;" x="46.3359375" xlink:href="#m23458152ef" y="151.13114583333328"/>
      </g>
     </g>
     <g id="line2d_45">
      <g>
       <use style="fill:#262626;stroke:#262626;" x="604.886875" xlink:href="#m23458152ef" y="151.13114583333328"/>
      </g>
     </g>
     <g id="text_16">
      <!-- 40 -->
      <g style="fill:#262626;" transform="translate(28.214062499999997 153.71708333333333)scale(0.1 -0.1)">
       <use xlink:href="#LiberationSans-34"/>
       <use x="55.615234375" xlink:href="#LiberationSans-30"/>
      </g>
     </g>
    </g>
    <g id="ytick_6">
     <g id="line2d_46">
      <path clip-path="url(#p65aad4f2ef)" d="M 46.335938 84.376042 
L 604.886875 84.376042 
" style="fill:none;stroke:#ffffff;stroke-linecap:round;"/>
     </g>
     <g id="line2d_47">
      <g>
       <use style="fill:#262626;stroke:#262626;" x="46.3359375" xlink:href="#m23458152ef" y="84.37604166666665"/>
      </g>
     </g>
     <g id="line2d_48">
      <g>
       <use style="fill:#262626;stroke:#262626;" x="604.886875" xlink:href="#m23458152ef" y="84.37604166666665"/>
      </g>
     </g>
     <g id="text_17">
      <!-- 50 -->
      <g style="fill:#262626;" transform="translate(28.214062499999997 86.96197916666665)scale(0.1 -0.1)">
       <use xlink:href="#LiberationSans-35"/>
       <use x="55.615234375" xlink:href="#LiberationSans-30"/>
      </g>
     </g>
    </g>
    <g id="ytick_7">
     <g id="line2d_49">
      <path clip-path="url(#p65aad4f2ef)" d="M 46.335938 17.620937 
L 604.886875 17.620937 
" style="fill:none;stroke:#ffffff;stroke-linecap:round;"/>
     </g>
     <g id="line2d_50">
      <g>
       <use style="fill:#262626;stroke:#262626;" x="46.3359375" xlink:href="#m23458152ef" y="17.620937499999968"/>
      </g>
     </g>
     <g id="line2d_51">
      <g>
       <use style="fill:#262626;stroke:#262626;" x="604.886875" xlink:href="#m23458152ef" y="17.620937499999968"/>
      </g>
     </g>
     <g id="text_18">
      <!-- 60 -->
      <defs>
       <path d="M 51.21875 22.515625 
Q 51.21875 17.328125 49.78125 13 
Q 48.34375 8.6875 45.53125 5.578125 
Q 42.71875 2.484375 38.5625 0.75 
Q 34.421875 -0.984375 29 -0.984375 
Q 23 -0.984375 18.5 1.3125 
Q 14.015625 3.609375 11.03125 7.921875 
Q 8.0625 12.25 6.5625 18.53125 
Q 5.078125 24.8125 5.078125 32.8125 
Q 5.078125 42 6.765625 48.921875 
Q 8.453125 55.859375 11.625 60.5 
Q 14.796875 65.140625 19.359375 67.484375 
Q 23.921875 69.828125 29.6875 69.828125 
Q 33.203125 69.828125 36.28125 69.09375 
Q 39.359375 68.359375 41.875 66.71875 
Q 44.390625 65.09375 46.28125 62.40625 
Q 48.1875 59.71875 49.3125 55.8125 
L 40.921875 54.296875 
Q 39.546875 58.734375 36.546875 60.71875 
Q 33.546875 62.703125 29.59375 62.703125 
Q 25.984375 62.703125 23.046875 60.984375 
Q 20.125 59.28125 18.0625 55.875 
Q 16.015625 52.484375 14.90625 47.359375 
Q 13.8125 42.234375 13.8125 35.40625 
Q 16.21875 39.84375 20.5625 42.15625 
Q 24.90625 44.484375 30.515625 44.484375 
Q 35.203125 44.484375 39.015625 42.96875 
Q 42.828125 41.453125 45.53125 38.59375 
Q 48.25 35.75 49.734375 31.671875 
Q 51.21875 27.59375 51.21875 22.515625 
M 42.28125 22.125 
Q 42.28125 25.6875 41.40625 28.5625 
Q 40.53125 31.453125 38.765625 33.46875 
Q 37.015625 35.5 34.421875 36.59375 
Q 31.84375 37.703125 28.421875 37.703125 
Q 26.03125 37.703125 23.578125 36.984375 
Q 21.140625 36.28125 19.15625 34.6875 
Q 17.1875 33.109375 15.9375 30.515625 
Q 14.703125 27.9375 14.703125 24.21875 
Q 14.703125 20.40625 15.671875 17.109375 
Q 16.65625 13.8125 18.484375 11.375 
Q 20.3125 8.9375 22.890625 7.515625 
Q 25.484375 6.109375 28.71875 6.109375 
Q 31.890625 6.109375 34.40625 7.203125 
Q 36.921875 8.296875 38.671875 10.375 
Q 40.4375 12.453125 41.359375 15.421875 
Q 42.28125 18.40625 42.28125 22.125 
" id="LiberationSans-36"/>
      </defs>
      <g style="fill:#262626;" transform="translate(28.214062499999997 20.206874999999968)scale(0.1 -0.1)">
       <use xlink:href="#LiberationSans-36"/>
       <use x="55.615234375" xlink:href="#LiberationSans-30"/>
      </g>
     </g>
    </g>
    <g id="text_19">
     <!-- mpg -->
     <defs>
      <path d="M 51.421875 26.65625 
Q 51.421875 20.65625 50.4375 15.578125 
Q 49.46875 10.5 47.1875 6.828125 
Q 44.921875 3.171875 41.1875 1.09375 
Q 37.453125 -0.984375 31.984375 -0.984375 
Q 26.3125 -0.984375 22.0625 1.171875 
Q 17.828125 3.328125 15.578125 8.203125 
L 15.328125 8.203125 
Q 15.375 8.109375 15.40625 7.328125 
Q 15.4375 6.546875 15.453125 5.375 
Q 15.484375 4.203125 15.5 2.75 
Q 15.53125 1.3125 15.53125 -0.09375 
L 15.53125 -20.75 
L 6.734375 -20.75 
L 6.734375 42.046875 
Q 6.734375 43.953125 6.703125 45.703125 
Q 6.6875 47.46875 6.640625 48.90625 
Q 6.59375 50.34375 6.546875 51.359375 
Q 6.5 52.390625 6.453125 52.828125 
L 14.9375 52.828125 
Q 14.984375 52.6875 15.0625 51.796875 
Q 15.140625 50.921875 15.203125 49.671875 
Q 15.28125 48.4375 15.359375 47.015625 
Q 15.4375 45.609375 15.4375 44.34375 
L 15.625 44.34375 
Q 16.84375 46.875 18.40625 48.65625 
Q 19.96875 50.4375 21.96875 51.578125 
Q 23.96875 52.734375 26.4375 53.25 
Q 28.90625 53.765625 31.984375 53.765625 
Q 37.453125 53.765625 41.1875 51.8125 
Q 44.921875 49.859375 47.1875 46.3125 
Q 49.46875 42.78125 50.4375 37.765625 
Q 51.421875 32.765625 51.421875 26.65625 
M 42.1875 26.46875 
Q 42.1875 31.34375 41.59375 35.15625 
Q 41.015625 38.96875 39.578125 41.59375 
Q 38.140625 44.234375 35.734375 45.59375 
Q 33.34375 46.96875 29.734375 46.96875 
Q 26.8125 46.96875 24.21875 46.140625 
Q 21.625 45.3125 19.703125 42.96875 
Q 17.78125 40.625 16.65625 36.5 
Q 15.53125 32.375 15.53125 25.78125 
Q 15.53125 20.171875 16.453125 16.28125 
Q 17.390625 12.40625 19.171875 10.015625 
Q 20.953125 7.625 23.578125 6.5625 
Q 26.21875 5.515625 29.640625 5.515625 
Q 33.296875 5.515625 35.71875 6.921875 
Q 38.140625 8.34375 39.578125 11.03125 
Q 41.015625 13.71875 41.59375 17.59375 
Q 42.1875 21.484375 42.1875 26.46875 
" id="LiberationSans-70"/>
      <path d="M 37.5 0 
L 37.5 33.5 
Q 37.5 37.359375 37.015625 39.9375 
Q 36.53125 42.53125 35.375 44.109375 
Q 34.234375 45.703125 32.375 46.359375 
Q 30.515625 47.015625 27.828125 47.015625 
Q 25.046875 47.015625 22.796875 45.921875 
Q 20.5625 44.828125 18.96875 42.75 
Q 17.390625 40.671875 16.53125 37.625 
Q 15.671875 34.578125 15.671875 30.609375 
L 15.671875 0 
L 6.9375 0 
L 6.9375 41.546875 
Q 6.9375 43.21875 6.90625 45.046875 
Q 6.890625 46.875 6.828125 48.5 
Q 6.78125 50.140625 6.734375 51.3125 
Q 6.6875 52.484375 6.640625 52.828125 
L 14.9375 52.828125 
Q 14.984375 52.59375 15.03125 51.515625 
Q 15.09375 50.4375 15.15625 49.046875 
Q 15.234375 47.65625 15.28125 46.21875 
Q 15.328125 44.78125 15.328125 43.796875 
L 15.484375 43.796875 
Q 16.65625 46.09375 18.015625 47.953125 
Q 19.390625 49.8125 21.21875 51.09375 
Q 23.046875 52.390625 25.40625 53.09375 
Q 27.78125 53.8125 30.90625 53.8125 
Q 36.921875 53.8125 40.40625 51.421875 
Q 43.890625 49.03125 45.265625 43.796875 
L 45.40625 43.796875 
Q 46.578125 46.09375 48.046875 47.953125 
Q 49.515625 49.8125 51.46875 51.09375 
Q 53.421875 52.390625 55.859375 53.09375 
Q 58.296875 53.8125 61.421875 53.8125 
Q 65.4375 53.8125 68.328125 52.734375 
Q 71.234375 51.65625 73.09375 49.40625 
Q 74.953125 47.171875 75.828125 43.625 
Q 76.703125 40.09375 76.703125 35.203125 
L 76.703125 0 
L 68.015625 0 
L 68.015625 33.5 
Q 68.015625 37.359375 67.53125 39.9375 
Q 67.046875 42.53125 65.890625 44.109375 
Q 64.75 45.703125 62.890625 46.359375 
Q 61.03125 47.015625 58.34375 47.015625 
Q 55.5625 47.015625 53.3125 45.96875 
Q 51.078125 44.921875 49.484375 42.875 
Q 47.90625 40.828125 47.046875 37.75 
Q 46.1875 34.671875 46.1875 30.609375 
L 46.1875 0 
z
" id="LiberationSans-6d"/>
     </defs>
     <g style="fill:#262626;" transform="translate(20.9315625 228.58460937499999)rotate(-90.0)scale(0.11 -0.11)">
      <use xlink:href="#LiberationSans-6d"/>
      <use x="83.30078125" xlink:href="#LiberationSans-70"/>
      <use x="138.916015625" xlink:href="#LiberationSans-67"/>
     </g>
    </g>
   </g>
   <g id="PathCollection_1">
    <defs>
     <path d="M 0 2.236068 
C 0.593012 2.236068 1.161816 2.000462 1.581139 1.581139 
C 2.000462 1.161816 2.236068 0.593012 2.236068 0 
C 2.236068 -0.593012 2.000462 -1.161816 1.581139 -1.581139 
C 1.161816 -2.000462 0.593012 -2.236068 0 -2.236068 
C -0.593012 -2.236068 -1.161816 -2.000462 -1.581139 -1.581139 
C -2.000462 -1.161816 -2.236068 -0.593012 -2.236068 0 
C -2.236068 0.593012 -2.000462 1.161816 -1.581139 1.581139 
C -1.161816 2.000462 -0.593012 2.236068 0 2.236068 
z
" id="m4a9546b47b" style="stroke:#ff0000;stroke-width:0.3;"/>
    </defs>
    <g clip-path="url(#p65aad4f2ef)">
     <use style="fill:#ff0000;stroke:#ff0000;stroke-width:0.3;" x="311.83381645833333" xlink:href="#m4a9546b47b" y="297.9923749999999"/>
     <use style="fill:#ff0000;stroke:#ff0000;stroke-width:0.3;" x="509.56084833333335" xlink:href="#m4a9546b47b" y="358.07196874999994"/>
     <use style="fill:#ff0000;stroke:#ff0000;stroke-width:0.3;" x="145.63388194444445" xlink:href="#m4a9546b47b" y="177.1656364583333"/>
     <use style="fill:#ff0000;stroke:#ff0000;stroke-width:0.3;" x="359.74507465277776" xlink:href="#m4a9546b47b" y="294.6546197916666"/>
     <use style="fill:#ff0000;stroke:#ff0000;stroke-width:0.3;" x="193.793385" xlink:href="#m4a9546b47b" y="189.18155520833332"/>
     <use style="fill:#ff0000;stroke:#ff0000;stroke-width:0.3;" x="246.7936628472222" xlink:href="#m4a9546b47b" y="198.52726979166664"/>
     <use style="fill:#ff0000;stroke:#ff0000;stroke-width:0.3;" x="203.3508121527778" xlink:href="#m4a9546b47b" y="203.20012708333329"/>
     <use style="fill:#ff0000;stroke:#ff0000;stroke-width:0.3;" x="233.88493006944447" xlink:href="#m4a9546b47b" y="271.29033333333325"/>
     <use style="fill:#ff0000;stroke:#ff0000;stroke-width:0.3;" x="455.31934618055556" xlink:href="#m4a9546b47b" y="318.01890625"/>
     <use style="fill:#ff0000;stroke:#ff0000;stroke-width:0.3;" x="350.31176993055556" xlink:href="#m4a9546b47b" y="304.66788541666665"/>
     <use style="fill:#ff0000;stroke:#ff0000;stroke-width:0.3;" x="186.59428402777775" xlink:href="#m4a9546b47b" y="124.4291041666666"/>
     <use style="fill:#ff0000;stroke:#ff0000;stroke-width:0.3;" x="262.30896666666666" xlink:href="#m4a9546b47b" y="254.60155729166664"/>
     <use style="fill:#ff0000;stroke:#ff0000;stroke-width:0.3;" x="207.07448506944445" xlink:href="#m4a9546b47b" y="204.53522916666662"/>
     <use style="fill:#ff0000;stroke:#ff0000;stroke-width:0.3;" x="500.25166604166674" xlink:href="#m4a9546b47b" y="324.6944166666666"/>
     <use style="fill:#ff0000;stroke:#ff0000;stroke-width:0.3;" x="389.0379682638889" xlink:href="#m4a9546b47b" y="318.01890625"/>
     <use style="fill:#ff0000;stroke:#ff0000;stroke-width:0.3;" x="430.86722736111113" xlink:href="#m4a9546b47b" y="331.3699270833333"/>
     <use style="fill:#ff0000;stroke:#ff0000;stroke-width:0.3;" x="148.73694270833334" xlink:href="#m4a9546b47b" y="177.83318749999995"/>
     <use style="fill:#ff0000;stroke:#ff0000;stroke-width:0.3;" x="259.82651805555554" xlink:href="#m4a9546b47b" y="211.2107395833333"/>
     <use style="fill:#ff0000;stroke:#ff0000;stroke-width:0.3;" x="150.10228944444447" xlink:href="#m4a9546b47b" y="204.53522916666662"/>
     <use style="fill:#ff0000;stroke:#ff0000;stroke-width:0.3;" x="259.82651805555554" xlink:href="#m4a9546b47b" y="274.6280885416666"/>
     <use style="fill:#ff0000;stroke:#ff0000;stroke-width:0.3;" x="327.3491202777778" xlink:href="#m4a9546b47b" y="291.3168645833333"/>
     <use style="fill:#ff0000;stroke:#ff0000;stroke-width:0.3;" x="407.159843125" xlink:href="#m4a9546b47b" y="304.66788541666665"/>
     <use style="fill:#ff0000;stroke:#ff0000;stroke-width:0.3;" x="436.204491875" xlink:href="#m4a9546b47b" y="311.34339583333326"/>
     <use style="fill:#ff0000;stroke:#ff0000;stroke-width:0.3;" x="364.4617270138889" xlink:href="#m4a9546b47b" y="318.01890625"/>
     <use style="fill:#ff0000;stroke:#ff0000;stroke-width:0.3;" x="243.93884694444444" xlink:href="#m4a9546b47b" y="264.61482291666664"/>
     <use style="fill:#ff0000;stroke:#ff0000;stroke-width:0.3;" x="203.3508121527778" xlink:href="#m4a9546b47b" y="244.58829166666663"/>
     <use style="fill:#ff0000;stroke:#ff0000;stroke-width:0.3;" x="252.999784375" xlink:href="#m4a9546b47b" y="204.53522916666662"/>
     <use style="fill:#ff0000;stroke:#ff0000;stroke-width:0.3;" x="216.63191222222224" xlink:href="#m4a9546b47b" y="257.93931249999997"/>
     <use style="fill:#ff0000;stroke:#ff0000;stroke-width:0.3;" x="299.42157340277777" xlink:href="#m4a9546b47b" y="277.96584375"/>
     <use style="fill:#ff0000;stroke:#ff0000;stroke-width:0.3;" x="237.73272541666665" xlink:href="#m4a9546b47b" y="209.2080864583333"/>
     <use style="fill:#ff0000;stroke:#ff0000;stroke-width:0.3;" x="283.40977986111113" xlink:href="#m4a9546b47b" y="199.86237187499995"/>
     <use style="fill:#ff0000;stroke:#ff0000;stroke-width:0.3;" x="405.2980066666667" xlink:href="#m4a9546b47b" y="318.01890625"/>
     <use style="fill:#ff0000;stroke:#ff0000;stroke-width:0.3;" x="249.77260118055557" xlink:href="#m4a9546b47b" y="264.61482291666664"/>
     <use style="fill:#ff0000;stroke:#ff0000;stroke-width:0.3;" x="352.29772881944444" xlink:href="#m4a9546b47b" y="300.6625791666666"/>
     <use style="fill:#ff0000;stroke:#ff0000;stroke-width:0.3;" x="228.05117583333333" xlink:href="#m4a9546b47b" y="231.2372708333333"/>
     <use style="fill:#ff0000;stroke:#ff0000;stroke-width:0.3;" x="190.06971208333334" xlink:href="#m4a9546b47b" y="257.93931249999997"/>
     <use style="fill:#ff0000;stroke:#ff0000;stroke-width:0.3;" x="497.8933398611111" xlink:href="#m4a9546b47b" y="324.6944166666666"/>
     <use style="fill:#ff0000;stroke:#ff0000;stroke-width:0.3;" x="320.025896875" xlink:href="#m4a9546b47b" y="297.3248239583333"/>
     <use style="fill:#ff0000;stroke:#ff0000;stroke-width:0.3;" x="185.97367187499998" xlink:href="#m4a9546b47b" y="177.83318749999995"/>
     <use style="fill:#ff0000;stroke:#ff0000;stroke-width:0.3;" x="174.802653125" xlink:href="#m4a9546b47b" y="224.56176041666663"/>
     <use style="fill:#ff0000;stroke:#ff0000;stroke-width:0.3;" x="140.6689847222222" xlink:href="#m4a9546b47b" y="183.84114687499994"/>
     <use style="fill:#ff0000;stroke:#ff0000;stroke-width:0.3;" x="216.38366736111112" xlink:href="#m4a9546b47b" y="177.83318749999995"/>
     <use style="fill:#ff0000;stroke:#ff0000;stroke-width:0.3;" x="413.1177197916667" xlink:href="#m4a9546b47b" y="308.00564062499996"/>
     <use style="fill:#ff0000;stroke:#ff0000;stroke-width:0.3;" x="446.01016388888894" xlink:href="#m4a9546b47b" y="311.34339583333326"/>
     <use style="fill:#ff0000;stroke:#ff0000;stroke-width:0.3;" x="217.62489166666666" xlink:href="#m4a9546b47b" y="218.55380104166665"/>
     <use style="fill:#ff0000;stroke:#ff0000;stroke-width:0.3;" x="164.2522465277778" xlink:href="#m4a9546b47b" y="211.2107395833333"/>
     <use style="fill:#ff0000;stroke:#ff0000;stroke-width:0.3;" x="207.69509722222222" xlink:href="#m4a9546b47b" y="236.57767916666663"/>
     <use style="fill:#ff0000;stroke:#ff0000;stroke-width:0.3;" x="475.4271799305556" xlink:href="#m4a9546b47b" y="324.6944166666666"/>
     <use style="fill:#ff0000;stroke:#ff0000;stroke-width:0.3;" x="185.3530597222222" xlink:href="#m4a9546b47b" y="203.86767812499994"/>
     <use style="fill:#ff0000;stroke:#ff0000;stroke-width:0.3;" x="336.2859352777778" xlink:href="#m4a9546b47b" y="318.01890625"/>
     <use style="fill:#ff0000;stroke:#ff0000;stroke-width:0.3;" x="537.2401503472223" xlink:href="#m4a9546b47b" y="338.04543749999993"/>
     <use style="fill:#ff0000;stroke:#ff0000;stroke-width:0.3;" x="384.5695607638889" xlink:href="#m4a9546b47b" y="300.6625791666666"/>
     <use style="fill:#ff0000;stroke:#ff0000;stroke-width:0.3;" x="198.7582822222222" xlink:href="#m4a9546b47b" y="251.2638020833333"/>
     <use style="fill:#ff0000;stroke:#ff0000;stroke-width:0.3;" x="253.62039652777776" xlink:href="#m4a9546b47b" y="228.56706666666665"/>
     <use style="fill:#ff0000;stroke:#ff0000;stroke-width:0.3;" x="197.64118034722225" xlink:href="#m4a9546b47b" y="224.56176041666663"/>
     <use style="fill:#ff0000;stroke:#ff0000;stroke-width:0.3;" x="199.0065270833333" xlink:href="#m4a9546b47b" y="211.87829062499998"/>
     <use style="fill:#ff0000;stroke:#ff0000;stroke-width:0.3;" x="283.9062695833333" xlink:href="#m4a9546b47b" y="284.6413541666666"/>
     <use style="fill:#ff0000;stroke:#ff0000;stroke-width:0.3;" x="303.26936875" xlink:href="#m4a9546b47b" y="279.3009458333333"/>
     <use style="fill:#ff0000;stroke:#ff0000;stroke-width:0.3;" x="274.10059756944446" xlink:href="#m4a9546b47b" y="271.29033333333325"/>
     <use style="fill:#ff0000;stroke:#ff0000;stroke-width:0.3;" x="166.1140829861111" xlink:href="#m4a9546b47b" y="164.48216666666661"/>
     <use style="fill:#ff0000;stroke:#ff0000;stroke-width:0.3;" x="142.28257631944444" xlink:href="#m4a9546b47b" y="211.2107395833333"/>
     <use style="fill:#ff0000;stroke:#ff0000;stroke-width:0.3;" x="332.0657726388889" xlink:href="#m4a9546b47b" y="291.3168645833333"/>
     <use style="fill:#ff0000;stroke:#ff0000;stroke-width:0.3;" x="391.520416875" xlink:href="#m4a9546b47b" y="311.34339583333326"/>
     <use style="fill:#ff0000;stroke:#ff0000;stroke-width:0.3;" x="237.73272541666665" xlink:href="#m4a9546b47b" y="251.2638020833333"/>
     <use style="fill:#ff0000;stroke:#ff0000;stroke-width:0.3;" x="323.50132493055554" xlink:href="#m4a9546b47b" y="271.29033333333325"/>
     <use style="fill:#ff0000;stroke:#ff0000;stroke-width:0.3;" x="164.87285868055557" xlink:href="#m4a9546b47b" y="244.58829166666663"/>
     <use style="fill:#ff0000;stroke:#ff0000;stroke-width:0.3;" x="425.52996284722224" xlink:href="#m4a9546b47b" y="331.3699270833333"/>
     <use style="fill:#ff0000;stroke:#ff0000;stroke-width:0.3;" x="339.8854857638889" xlink:href="#m4a9546b47b" y="285.3089052083333"/>
     <use style="fill:#ff0000;stroke:#ff0000;stroke-width:0.3;" x="466.1179976388889" xlink:href="#m4a9546b47b" y="344.7209479166666"/>
     <use style="fill:#ff0000;stroke:#ff0000;stroke-width:0.3;" x="190.81444666666664" xlink:href="#m4a9546b47b" y="231.2372708333333"/>
     <use style="fill:#ff0000;stroke:#ff0000;stroke-width:0.3;" x="436.08036944444444" xlink:href="#m4a9546b47b" y="314.6811510416666"/>
     <use style="fill:#ff0000;stroke:#ff0000;stroke-width:0.3;" x="193.91750743055553" xlink:href="#m4a9546b47b" y="244.58829166666663"/>
     <use style="fill:#ff0000;stroke:#ff0000;stroke-width:0.3;" x="448.1202452083333" xlink:href="#m4a9546b47b" y="324.6944166666666"/>
     <use style="fill:#ff0000;stroke:#ff0000;stroke-width:0.3;" x="536.8677830555556" xlink:href="#m4a9546b47b" y="338.04543749999993"/>
     <use style="fill:#ff0000;stroke:#ff0000;stroke-width:0.3;" x="285.8922284722222" xlink:href="#m4a9546b47b" y="256.60421041666666"/>
     <use style="fill:#ff0000;stroke:#ff0000;stroke-width:0.3;" x="241.4563983333333" xlink:href="#m4a9546b47b" y="251.2638020833333"/>
     <use style="fill:#ff0000;stroke:#ff0000;stroke-width:0.3;" x="305.1312052083333" xlink:href="#m4a9546b47b" y="267.95257812499995"/>
     <use style="fill:#ff0000;stroke:#ff0000;stroke-width:0.3;" x="257.3440694444445" xlink:href="#m4a9546b47b" y="239.24788333333328"/>
     <use style="fill:#ff0000;stroke:#ff0000;stroke-width:0.3;" x="282.6650452777778" xlink:href="#m4a9546b47b" y="264.61482291666664"/>
     <use style="fill:#ff0000;stroke:#ff0000;stroke-width:0.3;" x="200.9924859722222" xlink:href="#m4a9546b47b" y="244.58829166666663"/>
     <use style="fill:#ff0000;stroke:#ff0000;stroke-width:0.3;" x="314.4403875" xlink:href="#m4a9546b47b" y="213.2133927083333"/>
     <use style="fill:#ff0000;stroke:#ff0000;stroke-width:0.3;" x="170.45836805555558" xlink:href="#m4a9546b47b" y="211.2107395833333"/>
     <use style="fill:#ff0000;stroke:#ff0000;stroke-width:0.3;" x="318.1640604166667" xlink:href="#m4a9546b47b" y="236.57767916666663"/>
     <use style="fill:#ff0000;stroke:#ff0000;stroke-width:0.3;" x="324.99079409722225" xlink:href="#m4a9546b47b" y="274.6280885416666"/>
     <use style="fill:#ff0000;stroke:#ff0000;stroke-width:0.3;" x="235.62264409722223" xlink:href="#m4a9546b47b" y="224.56176041666663"/>
     <use style="fill:#ff0000;stroke:#ff0000;stroke-width:0.3;" x="242.6976226388889" xlink:href="#m4a9546b47b" y="284.6413541666666"/>
     <use style="fill:#ff0000;stroke:#ff0000;stroke-width:0.3;" x="505.46480812500005" xlink:href="#m4a9546b47b" y="331.3699270833333"/>
     <use style="fill:#ff0000;stroke:#ff0000;stroke-width:0.3;" x="457.42942750000003" xlink:href="#m4a9546b47b" y="324.6944166666666"/>
     <use style="fill:#ff0000;stroke:#ff0000;stroke-width:0.3;" x="169.83775590277776" xlink:href="#m4a9546b47b" y="164.48216666666661"/>
     <use style="fill:#ff0000;stroke:#ff0000;stroke-width:0.3;" x="560.2028000000001" xlink:href="#m4a9546b47b" y="331.3699270833333"/>
     <use style="fill:#ff0000;stroke:#ff0000;stroke-width:0.3;" x="190.81444666666664" xlink:href="#m4a9546b47b" y="254.60155729166664"/>
     <use style="fill:#ff0000;stroke:#ff0000;stroke-width:0.3;" x="431.11547222222225" xlink:href="#m4a9546b47b" y="331.3699270833333"/>
     <use style="fill:#ff0000;stroke:#ff0000;stroke-width:0.3;" x="287.75406493055556" xlink:href="#m4a9546b47b" y="251.2638020833333"/>
     <use style="fill:#ff0000;stroke:#ff0000;stroke-width:0.3;" x="204.96440374999997" xlink:href="#m4a9546b47b" y="257.93931249999997"/>
     <use style="fill:#ff0000;stroke:#ff0000;stroke-width:0.3;" x="168.59653159722222" xlink:href="#m4a9546b47b" y="190.5166572916666"/>
     <use style="fill:#ff0000;stroke:#ff0000;stroke-width:0.3;" x="476.29603694444444" xlink:href="#m4a9546b47b" y="331.3699270833333"/>
     <use style="fill:#ff0000;stroke:#ff0000;stroke-width:0.3;" x="151.84000347222224" xlink:href="#m4a9546b47b" y="120.42379791666662"/>
     <use style="fill:#ff0000;stroke:#ff0000;stroke-width:0.3;" x="313.8197753472222" xlink:href="#m4a9546b47b" y="281.3035989583333"/>
     <use style="fill:#ff0000;stroke:#ff0000;stroke-width:0.3;" x="289.86414625" xlink:href="#m4a9546b47b" y="297.9923749999999"/>
     <use style="fill:#ff0000;stroke:#ff0000;stroke-width:0.3;" x="262.92957881944443" xlink:href="#m4a9546b47b" y="263.2797208333333"/>
     <use style="fill:#ff0000;stroke:#ff0000;stroke-width:0.3;" x="313.19916319444445" xlink:href="#m4a9546b47b" y="284.6413541666666"/>
     <use style="fill:#ff0000;stroke:#ff0000;stroke-width:0.3;" x="252.37917222222222" xlink:href="#m4a9546b47b" y="257.93931249999997"/>
     <use style="fill:#ff0000;stroke:#ff0000;stroke-width:0.3;" x="264.170803125" xlink:href="#m4a9546b47b" y="247.92604687499997"/>
     <use style="fill:#ff0000;stroke:#ff0000;stroke-width:0.3;" x="145.63388194444445" xlink:href="#m4a9546b47b" y="177.1656364583333"/>
     <use style="fill:#ff0000;stroke:#ff0000;stroke-width:0.3;" x="289.2435340972222" xlink:href="#m4a9546b47b" y="264.61482291666664"/>
     <use style="fill:#ff0000;stroke:#ff0000;stroke-width:0.3;" x="183.86359055555556" xlink:href="#m4a9546b47b" y="257.93931249999997"/>
     <use style="fill:#ff0000;stroke:#ff0000;stroke-width:0.3;" x="365.82707375" xlink:href="#m4a9546b47b" y="297.9923749999999"/>
     <use style="fill:#ff0000;stroke:#ff0000;stroke-width:0.3;" x="384.5695607638889" xlink:href="#m4a9546b47b" y="240.58298541666662"/>
     <use style="fill:#ff0000;stroke:#ff0000;stroke-width:0.3;" x="169.21714375" xlink:href="#m4a9546b47b" y="204.53522916666662"/>
     <use style="fill:#ff0000;stroke:#ff0000;stroke-width:0.3;" x="273.4799854166667" xlink:href="#m4a9546b47b" y="282.63870104166665"/>
     <use style="fill:#ff0000;stroke:#ff0000;stroke-width:0.3;" x="149.85404458333335" xlink:href="#m4a9546b47b" y="237.91278124999997"/>
     <use style="fill:#ff0000;stroke:#ff0000;stroke-width:0.3;" x="377.99107194444446" xlink:href="#m4a9546b47b" y="304.66788541666665"/>
     <use style="fill:#ff0000;stroke:#ff0000;stroke-width:0.3;" x="220.2314627083333" xlink:href="#m4a9546b47b" y="277.96584375"/>
     <use style="fill:#ff0000;stroke:#ff0000;stroke-width:0.3;" x="511.2985623611111" xlink:href="#m4a9546b47b" y="331.3699270833333"/>
     <use style="fill:#ff0000;stroke:#ff0000;stroke-width:0.3;" x="223.83101319444444" xlink:href="#m4a9546b47b" y="257.93931249999997"/>
     <use style="fill:#ff0000;stroke:#ff0000;stroke-width:0.3;" x="426.150575" xlink:href="#m4a9546b47b" y="304.66788541666665"/>
     <use style="fill:#ff0000;stroke:#ff0000;stroke-width:0.3;" x="140.04837256944444" xlink:href="#m4a9546b47b" y="157.13910520833326"/>
     <use style="fill:#ff0000;stroke:#ff0000;stroke-width:0.3;" x="445.3895517361112" xlink:href="#m4a9546b47b" y="321.3566614583333"/>
     <use style="fill:#ff0000;stroke:#ff0000;stroke-width:0.3;" x="417.21376000000004" xlink:href="#m4a9546b47b" y="331.3699270833333"/>
     <use style="fill:#ff0000;stroke:#ff0000;stroke-width:0.3;" x="365.3305840277778" xlink:href="#m4a9546b47b" y="283.30625208333333"/>
     <use style="fill:#ff0000;stroke:#ff0000;stroke-width:0.3;" x="195.53109902777777" xlink:href="#m4a9546b47b" y="237.91278124999997"/>
     <use style="fill:#ff0000;stroke:#ff0000;stroke-width:0.3;" x="122.42298743055555" xlink:href="#m4a9546b47b" y="184.50869791666662"/>
     <use style="fill:#ff0000;stroke:#ff0000;stroke-width:0.3;" x="391.0239271527778" xlink:href="#m4a9546b47b" y="318.01890625"/>
     <use style="fill:#ff0000;stroke:#ff0000;stroke-width:0.3;" x="288.3746770833333" xlink:href="#m4a9546b47b" y="175.1629833333333"/>
     <use style="fill:#ff0000;stroke:#ff0000;stroke-width:0.3;" x="189.69734479166664" xlink:href="#m4a9546b47b" y="217.88624999999996"/>
     <use style="fill:#ff0000;stroke:#ff0000;stroke-width:0.3;" x="161.1491857638889" xlink:href="#m4a9546b47b" y="205.2027802083333"/>
     <use style="fill:#ff0000;stroke:#ff0000;stroke-width:0.3;" x="149.97816701388888" xlink:href="#m4a9546b47b" y="244.58829166666663"/>
     <use style="fill:#ff0000;stroke:#ff0000;stroke-width:0.3;" x="349.070545625" xlink:href="#m4a9546b47b" y="311.34339583333326"/>
     <use style="fill:#ff0000;stroke:#ff0000;stroke-width:0.3;" x="221.1003197222222" xlink:href="#m4a9546b47b" y="284.6413541666666"/>
     <use style="fill:#ff0000;stroke:#ff0000;stroke-width:0.3;" x="371.53670555555556" xlink:href="#m4a9546b47b" y="293.98706874999993"/>
     <use style="fill:#ff0000;stroke:#ff0000;stroke-width:0.3;" x="476.29603694444444" xlink:href="#m4a9546b47b" y="324.6944166666666"/>
     <use style="fill:#ff0000;stroke:#ff0000;stroke-width:0.3;" x="186.09779430555557" xlink:href="#m4a9546b47b" y="251.2638020833333"/>
     <use style="fill:#ff0000;stroke:#ff0000;stroke-width:0.3;" x="194.04162986111112" xlink:href="#m4a9546b47b" y="197.85971874999996"/>
     <use style="fill:#ff0000;stroke:#ff0000;stroke-width:0.3;" x="430.6189825" xlink:href="#m4a9546b47b" y="324.6944166666666"/>
     <use style="fill:#ff0000;stroke:#ff0000;stroke-width:0.3;" x="411.2558833333334" xlink:href="#m4a9546b47b" y="294.6546197916666"/>
     <use style="fill:#ff0000;stroke:#ff0000;stroke-width:0.3;" x="172.81669423611112" xlink:href="#m4a9546b47b" y="169.82257499999994"/>
     <use style="fill:#ff0000;stroke:#ff0000;stroke-width:0.3;" x="330.32805861111115" xlink:href="#m4a9546b47b" y="297.9923749999999"/>
     <use style="fill:#ff0000;stroke:#ff0000;stroke-width:0.3;" x="181.0087746527778" xlink:href="#m4a9546b47b" y="122.42645104166667"/>
     <use style="fill:#ff0000;stroke:#ff0000;stroke-width:0.3;" x="351.55299423611115" xlink:href="#m4a9546b47b" y="297.9923749999999"/>
     <use style="fill:#ff0000;stroke:#ff0000;stroke-width:0.3;" x="203.2266897222222" xlink:href="#m4a9546b47b" y="231.2372708333333"/>
     <use style="fill:#ff0000;stroke:#ff0000;stroke-width:0.3;" x="212.03938229166664" xlink:href="#m4a9546b47b" y="128.43441041666665"/>
     <use style="fill:#ff0000;stroke:#ff0000;stroke-width:0.3;" x="341.74732222222224" xlink:href="#m4a9546b47b" y="280.6360479166666"/>
     <use style="fill:#ff0000;stroke:#ff0000;stroke-width:0.3;" x="360.98629895833335" xlink:href="#m4a9546b47b" y="289.98176249999995"/>
     <use style="fill:#ff0000;stroke:#ff0000;stroke-width:0.3;" x="278.4448826388889" xlink:href="#m4a9546b47b" y="241.91808749999996"/>
     <use style="fill:#ff0000;stroke:#ff0000;stroke-width:0.3;" x="287.75406493055556" xlink:href="#m4a9546b47b" y="297.9923749999999"/>
     <use style="fill:#ff0000;stroke:#ff0000;stroke-width:0.3;" x="189.69734479166664" xlink:href="#m4a9546b47b" y="231.2372708333333"/>
     <use style="fill:#ff0000;stroke:#ff0000;stroke-width:0.3;" x="199.50301680555555" xlink:href="#m4a9546b47b" y="244.58829166666663"/>
     <use style="fill:#ff0000;stroke:#ff0000;stroke-width:0.3;" x="471.08289486111113" xlink:href="#m4a9546b47b" y="331.3699270833333"/>
     <use style="fill:#ff0000;stroke:#ff0000;stroke-width:0.3;" x="247.41427499999998" xlink:href="#m4a9546b47b" y="245.92339374999995"/>
     <use style="fill:#ff0000;stroke:#ff0000;stroke-width:0.3;" x="323.1289576388889" xlink:href="#m4a9546b47b" y="230.5697197916666"/>
     <use style="fill:#ff0000;stroke:#ff0000;stroke-width:0.3;" x="452.71277513888896" xlink:href="#m4a9546b47b" y="331.3699270833333"/>
     <use style="fill:#ff0000;stroke:#ff0000;stroke-width:0.3;" x="465.8697527777778" xlink:href="#m4a9546b47b" y="308.00564062499996"/>
     <use style="fill:#ff0000;stroke:#ff0000;stroke-width:0.3;" x="169.21714375" xlink:href="#m4a9546b47b" y="207.87298437499996"/>
     <use style="fill:#ff0000;stroke:#ff0000;stroke-width:0.3;" x="231.15423659722222" xlink:href="#m4a9546b47b" y="257.93931249999997"/>
     <use style="fill:#ff0000;stroke:#ff0000;stroke-width:0.3;" x="314.19214263888887" xlink:href="#m4a9546b47b" y="318.01890625"/>
     <use style="fill:#ff0000;stroke:#ff0000;stroke-width:0.3;" x="370.6678485416667" xlink:href="#m4a9546b47b" y="297.9923749999999"/>
     <use style="fill:#ff0000;stroke:#ff0000;stroke-width:0.3;" x="239.47043944444442" xlink:href="#m4a9546b47b" y="194.52196354166662"/>
     <use style="fill:#ff0000;stroke:#ff0000;stroke-width:0.3;" x="213.90121875" xlink:href="#m4a9546b47b" y="201.86502499999997"/>
     <use style="fill:#ff0000;stroke:#ff0000;stroke-width:0.3;" x="186.59428402777775" xlink:href="#m4a9546b47b" y="237.91278124999997"/>
     <use style="fill:#ff0000;stroke:#ff0000;stroke-width:0.3;" x="481.0126893055556" xlink:href="#m4a9546b47b" y="331.3699270833333"/>
     <use style="fill:#ff0000;stroke:#ff0000;stroke-width:0.3;" x="166.73469513888892" xlink:href="#m4a9546b47b" y="211.2107395833333"/>
     <use style="fill:#ff0000;stroke:#ff0000;stroke-width:0.3;" x="254.61337597222223" xlink:href="#m4a9546b47b" y="231.2372708333333"/>
     <use style="fill:#ff0000;stroke:#ff0000;stroke-width:0.3;" x="231.27835902777775" xlink:href="#m4a9546b47b" y="236.57767916666663"/>
     <use style="fill:#ff0000;stroke:#ff0000;stroke-width:0.3;" x="291.97422756944445" xlink:href="#m4a9546b47b" y="277.96584375"/>
     <use style="fill:#ff0000;stroke:#ff0000;stroke-width:0.3;" x="278.19663777777777" xlink:href="#m4a9546b47b" y="291.3168645833333"/>
     <use style="fill:#ff0000;stroke:#ff0000;stroke-width:0.3;" x="253.86864138888888" xlink:href="#m4a9546b47b" y="251.2638020833333"/>
     <use style="fill:#ff0000;stroke:#ff0000;stroke-width:0.3;" x="406.2909861111111" xlink:href="#m4a9546b47b" y="264.61482291666664"/>
     <use style="fill:#ff0000;stroke:#ff0000;stroke-width:0.3;" x="285.8922284722222" xlink:href="#m4a9546b47b" y="291.3168645833333"/>
     <use style="fill:#ff0000;stroke:#ff0000;stroke-width:0.3;" x="425.4058404166667" xlink:href="#m4a9546b47b" y="314.6811510416666"/>
     <use style="fill:#ff0000;stroke:#ff0000;stroke-width:0.3;" x="220.72795243055555" xlink:href="#m4a9546b47b" y="258.6068635416666"/>
     <use style="fill:#ff0000;stroke:#ff0000;stroke-width:0.3;" x="338.39601659722223" xlink:href="#m4a9546b47b" y="271.29033333333325"/>
     <use style="fill:#ff0000;stroke:#ff0000;stroke-width:0.3;" x="191.68330368055553" xlink:href="#m4a9546b47b" y="224.56176041666663"/>
     <use style="fill:#ff0000;stroke:#ff0000;stroke-width:0.3;" x="423.91637125" xlink:href="#m4a9546b47b" y="324.6944166666666"/>
     <use style="fill:#ff0000;stroke:#ff0000;stroke-width:0.3;" x="344.1056484027778" xlink:href="#m4a9546b47b" y="318.01890625"/>
     <use style="fill:#ff0000;stroke:#ff0000;stroke-width:0.3;" x="249.8967236111111" xlink:href="#m4a9546b47b" y="237.91278124999997"/>
     <use style="fill:#ff0000;stroke:#ff0000;stroke-width:0.3;" x="473.31709861111113" xlink:href="#m4a9546b47b" y="318.01890625"/>
     <use style="fill:#ff0000;stroke:#ff0000;stroke-width:0.3;" x="176.7886120138889" xlink:href="#m4a9546b47b" y="214.54849479166663"/>
     <use style="fill:#ff0000;stroke:#ff0000;stroke-width:0.3;" x="217.0042795138889" xlink:href="#m4a9546b47b" y="251.2638020833333"/>
     <use style="fill:#ff0000;stroke:#ff0000;stroke-width:0.3;" x="445.3895517361112" xlink:href="#m4a9546b47b" y="301.3301302083333"/>
     <use style="fill:#ff0000;stroke:#ff0000;stroke-width:0.3;" x="219.486728125" xlink:href="#m4a9546b47b" y="191.1842083333333"/>
     <use style="fill:#ff0000;stroke:#ff0000;stroke-width:0.3;" x="296.44263506944446" xlink:href="#m4a9546b47b" y="164.48216666666661"/>
     <use style="fill:#ff0000;stroke:#ff0000;stroke-width:0.3;" x="179.64342791666667" xlink:href="#m4a9546b47b" y="217.88624999999996"/>
     <use style="fill:#ff0000;stroke:#ff0000;stroke-width:0.3;" x="293.3395743055556" xlink:href="#m4a9546b47b" y="285.97645624999996"/>
     <use style="fill:#ff0000;stroke:#ff0000;stroke-width:0.3;" x="253.74451895833334" xlink:href="#m4a9546b47b" y="251.2638020833333"/>
     <use style="fill:#ff0000;stroke:#ff0000;stroke-width:0.3;" x="198.51003736111113" xlink:href="#m4a9546b47b" y="277.96584375"/>
     <use style="fill:#ff0000;stroke:#ff0000;stroke-width:0.3;" x="202.1095878472222" xlink:href="#m4a9546b47b" y="244.58829166666663"/>
     <use style="fill:#ff0000;stroke:#ff0000;stroke-width:0.3;" x="396.3611916666667" xlink:href="#m4a9546b47b" y="308.00564062499996"/>
     <use style="fill:#ff0000;stroke:#ff0000;stroke-width:0.3;" x="345.4709951388889" xlink:href="#m4a9546b47b" y="297.3248239583333"/>
     <use style="fill:#ff0000;stroke:#ff0000;stroke-width:0.3;" x="184.11183541666668" xlink:href="#m4a9546b47b" y="107.07277708333328"/>
     <use style="fill:#ff0000;stroke:#ff0000;stroke-width:0.3;" x="244.9318263888889" xlink:href="#m4a9546b47b" y="274.6280885416666"/>
     <use style="fill:#ff0000;stroke:#ff0000;stroke-width:0.3;" x="462.64256958333334" xlink:href="#m4a9546b47b" y="324.6944166666666"/>
     <use style="fill:#ff0000;stroke:#ff0000;stroke-width:0.3;" x="269.1357003472222" xlink:href="#m4a9546b47b" y="273.9605375"/>
     <use style="fill:#ff0000;stroke:#ff0000;stroke-width:0.3;" x="439.1834302083334" xlink:href="#m4a9546b47b" y="314.6811510416666"/>
     <use style="fill:#ff0000;stroke:#ff0000;stroke-width:0.3;" x="347.95344375" xlink:href="#m4a9546b47b" y="281.3035989583333"/>
     <use style="fill:#ff0000;stroke:#ff0000;stroke-width:0.3;" x="346.71221944444443" xlink:href="#m4a9546b47b" y="258.6068635416666"/>
     <use style="fill:#ff0000;stroke:#ff0000;stroke-width:0.3;" x="536.7436606250001" xlink:href="#m4a9546b47b" y="338.04543749999993"/>
     <use style="fill:#ff0000;stroke:#ff0000;stroke-width:0.3;" x="290.2365135416667" xlink:href="#m4a9546b47b" y="283.30625208333333"/>
     <use style="fill:#ff0000;stroke:#ff0000;stroke-width:0.3;" x="176.04387743055554" xlink:href="#m4a9546b47b" y="188.51400416666664"/>
     <use style="fill:#ff0000;stroke:#ff0000;stroke-width:0.3;" x="233.26431791666664" xlink:href="#m4a9546b47b" y="264.61482291666664"/>
     <use style="fill:#ff0000;stroke:#ff0000;stroke-width:0.3;" x="294.95316590277776" xlink:href="#m4a9546b47b" y="255.93665937499995"/>
     <use style="fill:#ff0000;stroke:#ff0000;stroke-width:0.3;" x="320.77063145833336" xlink:href="#m4a9546b47b" y="291.3168645833333"/>
     <use style="fill:#ff0000;stroke:#ff0000;stroke-width:0.3;" x="153.95008479166665" xlink:href="#m4a9546b47b" y="224.56176041666663"/>
     <use style="fill:#ff0000;stroke:#ff0000;stroke-width:0.3;" x="260.44713020833336" xlink:href="#m4a9546b47b" y="261.2770677083333"/>
     <use style="fill:#ff0000;stroke:#ff0000;stroke-width:0.3;" x="200.86836354166667" xlink:href="#m4a9546b47b" y="191.1842083333333"/>
     <use style="fill:#ff0000;stroke:#ff0000;stroke-width:0.3;" x="224.32750291666667" xlink:href="#m4a9546b47b" y="171.15767708333328"/>
     <use style="fill:#ff0000;stroke:#ff0000;stroke-width:0.3;" x="145.0132697916667" xlink:href="#m4a9546b47b" y="197.85971874999996"/>
     <use style="fill:#ff0000;stroke:#ff0000;stroke-width:0.3;" x="268.3909657638889" xlink:href="#m4a9546b47b" y="297.9923749999999"/>
     <use style="fill:#ff0000;stroke:#ff0000;stroke-width:0.3;" x="400.08486458333334" xlink:href="#m4a9546b47b" y="318.01890625"/>
     <use style="fill:#ff0000;stroke:#ff0000;stroke-width:0.3;" x="197.144690625" xlink:href="#m4a9546b47b" y="186.51135104166661"/>
     <use style="fill:#ff0000;stroke:#ff0000;stroke-width:0.3;" x="320.64650902777777" xlink:href="#m4a9546b47b" y="288.64666041666663"/>
     <use style="fill:#ff0000;stroke:#ff0000;stroke-width:0.3;" x="166.1140829861111" xlink:href="#m4a9546b47b" y="204.53522916666662"/>
     <use style="fill:#ff0000;stroke:#ff0000;stroke-width:0.3;" x="167.3553072916667" xlink:href="#m4a9546b47b" y="190.5166572916666"/>
     <use style="fill:#ff0000;stroke:#ff0000;stroke-width:0.3;" x="196.52407847222224" xlink:href="#m4a9546b47b" y="193.18686145833328"/>
     <use style="fill:#ff0000;stroke:#ff0000;stroke-width:0.3;" x="375.3845009027778" xlink:href="#m4a9546b47b" y="284.6413541666666"/>
     <use style="fill:#ff0000;stroke:#ff0000;stroke-width:0.3;" x="385.19017291666665" xlink:href="#m4a9546b47b" y="318.01890625"/>
     <use style="fill:#ff0000;stroke:#ff0000;stroke-width:0.3;" x="166.4864502777778" xlink:href="#m4a9546b47b" y="163.81461562499996"/>
     <use style="fill:#ff0000;stroke:#ff0000;stroke-width:0.3;" x="218.99023840277778" xlink:href="#m4a9546b47b" y="244.58829166666663"/>
     <use style="fill:#ff0000;stroke:#ff0000;stroke-width:0.3;" x="182.8706111111111" xlink:href="#m4a9546b47b" y="237.91278124999997"/>
     <use style="fill:#ff0000;stroke:#ff0000;stroke-width:0.3;" x="480.5161995833334" xlink:href="#m4a9546b47b" y="311.34339583333326"/>
     <use style="fill:#ff0000;stroke:#ff0000;stroke-width:0.3;" x="335.4170782638889" xlink:href="#m4a9546b47b" y="304.66788541666665"/>
     <use style="fill:#ff0000;stroke:#ff0000;stroke-width:0.3;" x="411.2558833333334" xlink:href="#m4a9546b47b" y="331.3699270833333"/>
     <use style="fill:#ff0000;stroke:#ff0000;stroke-width:0.3;" x="245.55243854166667" xlink:href="#m4a9546b47b" y="231.2372708333333"/>
     <use style="fill:#ff0000;stroke:#ff0000;stroke-width:0.3;" x="305.2553276388889" xlink:href="#m4a9546b47b" y="324.6944166666666"/>
     <use style="fill:#ff0000;stroke:#ff0000;stroke-width:0.3;" x="176.04387743055554" xlink:href="#m4a9546b47b" y="207.87298437499996"/>
     <use style="fill:#ff0000;stroke:#ff0000;stroke-width:0.3;" x="189.07673263888887" xlink:href="#m4a9546b47b" y="187.84645312499995"/>
     <use style="fill:#ff0000;stroke:#ff0000;stroke-width:0.3;" x="497.2727277083333" xlink:href="#m4a9546b47b" y="344.7209479166666"/>
     <use style="fill:#ff0000;stroke:#ff0000;stroke-width:0.3;" x="405.9186188194445" xlink:href="#m4a9546b47b" y="311.34339583333326"/>
     <use style="fill:#ff0000;stroke:#ff0000;stroke-width:0.3;" x="249.27611145833333" xlink:href="#m4a9546b47b" y="207.20543333333327"/>
     <use style="fill:#ff0000;stroke:#ff0000;stroke-width:0.3;" x="341.87144465277777" xlink:href="#m4a9546b47b" y="290.64931354166663"/>
     <use style="fill:#ff0000;stroke:#ff0000;stroke-width:0.3;" x="374.63976631944445" xlink:href="#m4a9546b47b" y="294.6546197916666"/>
     <use style="fill:#ff0000;stroke:#ff0000;stroke-width:0.3;" x="348.20168861111114" xlink:href="#m4a9546b47b" y="318.01890625"/>
     <use style="fill:#ff0000;stroke:#ff0000;stroke-width:0.3;" x="266.52912930555556" xlink:href="#m4a9546b47b" y="297.9923749999999"/>
     <use style="fill:#ff0000;stroke:#ff0000;stroke-width:0.3;" x="232.51958333333334" xlink:href="#m4a9546b47b" y="184.50869791666662"/>
     <use style="fill:#ff0000;stroke:#ff0000;stroke-width:0.3;" x="302.0281444444444" xlink:href="#m4a9546b47b" y="283.30625208333333"/>
     <use style="fill:#ff0000;stroke:#ff0000;stroke-width:0.3;" x="315.557489375" xlink:href="#m4a9546b47b" y="331.3699270833333"/>
     <use style="fill:#ff0000;stroke:#ff0000;stroke-width:0.3;" x="241.82876562500002" xlink:href="#m4a9546b47b" y="211.2107395833333"/>
     <use style="fill:#ff0000;stroke:#ff0000;stroke-width:0.3;" x="219.486728125" xlink:href="#m4a9546b47b" y="271.29033333333325"/>
     <use style="fill:#ff0000;stroke:#ff0000;stroke-width:0.3;" x="542.4532924305556" xlink:href="#m4a9546b47b" y="344.7209479166666"/>
     <use style="fill:#ff0000;stroke:#ff0000;stroke-width:0.3;" x="163.63163437500003" xlink:href="#m4a9546b47b" y="194.52196354166662"/>
     <use style="fill:#ff0000;stroke:#ff0000;stroke-width:0.3;" x="168.59653159722222" xlink:href="#m4a9546b47b" y="130.4370635416666"/>
     <use style="fill:#ff0000;stroke:#ff0000;stroke-width:0.3;" x="360.3656868055556" xlink:href="#m4a9546b47b" y="248.59359791666662"/>
     <use style="fill:#ff0000;stroke:#ff0000;stroke-width:0.3;" x="184.11183541666668" xlink:href="#m4a9546b47b" y="145.79073749999998"/>
     <use style="fill:#ff0000;stroke:#ff0000;stroke-width:0.3;" x="466.4903649305556" xlink:href="#m4a9546b47b" y="324.6944166666666"/>
     <use style="fill:#ff0000;stroke:#ff0000;stroke-width:0.3;" x="258.70941618055554" xlink:href="#m4a9546b47b" y="219.22135208333327"/>
     <use style="fill:#ff0000;stroke:#ff0000;stroke-width:0.3;" x="442.2864909722222" xlink:href="#m4a9546b47b" y="311.34339583333326"/>
     <use style="fill:#ff0000;stroke:#ff0000;stroke-width:0.3;" x="339.2648736111111" xlink:href="#m4a9546b47b" y="280.6360479166666"/>
     <use style="fill:#ff0000;stroke:#ff0000;stroke-width:0.3;" x="357.1385036111111" xlink:href="#m4a9546b47b" y="297.9923749999999"/>
     <use style="fill:#ff0000;stroke:#ff0000;stroke-width:0.3;" x="145.0132697916667" xlink:href="#m4a9546b47b" y="197.85971874999996"/>
     <use style="fill:#ff0000;stroke:#ff0000;stroke-width:0.3;" x="172.94081666666665" xlink:href="#m4a9546b47b" y="205.87033124999996"/>
     <use style="fill:#ff0000;stroke:#ff0000;stroke-width:0.3;" x="463.75967145833334" xlink:href="#m4a9546b47b" y="331.3699270833333"/>
     <use style="fill:#ff0000;stroke:#ff0000;stroke-width:0.3;" x="307.2412865277778" xlink:href="#m4a9546b47b" y="284.6413541666666"/>
     <use style="fill:#ff0000;stroke:#ff0000;stroke-width:0.3;" x="170.83073534722223" xlink:href="#m4a9546b47b" y="204.53522916666662"/>
     <use style="fill:#ff0000;stroke:#ff0000;stroke-width:0.3;" x="509.93321562500006" xlink:href="#m4a9546b47b" y="331.3699270833333"/>
     <use style="fill:#ff0000;stroke:#ff0000;stroke-width:0.3;" x="222.5897888888889" xlink:href="#m4a9546b47b" y="259.94196562499997"/>
     <use style="fill:#ff0000;stroke:#ff0000;stroke-width:0.3;" x="347.33283159722225" xlink:href="#m4a9546b47b" y="289.98176249999995"/>
     <use style="fill:#ff0000;stroke:#ff0000;stroke-width:0.3;" x="173.56142881944447" xlink:href="#m4a9546b47b" y="171.15767708333328"/>
     <use style="fill:#ff0000;stroke:#ff0000;stroke-width:0.3;" x="348.6981783333333" xlink:href="#m4a9546b47b" y="297.9923749999999"/>
     <use style="fill:#ff0000;stroke:#ff0000;stroke-width:0.3;" x="328.09385486111114" xlink:href="#m4a9546b47b" y="291.3168645833333"/>
     <use style="fill:#ff0000;stroke:#ff0000;stroke-width:0.3;" x="178.52632604166666" xlink:href="#m4a9546b47b" y="202.53257604166663"/>
     <use style="fill:#ff0000;stroke:#ff0000;stroke-width:0.3;" x="309.5996127083333" xlink:href="#m4a9546b47b" y="297.9923749999999"/>
     <use style="fill:#ff0000;stroke:#ff0000;stroke-width:0.3;" x="396.4853140972222" xlink:href="#m4a9546b47b" y="331.3699270833333"/>
     <use style="fill:#ff0000;stroke:#ff0000;stroke-width:0.3;" x="475.30305749999997" xlink:href="#m4a9546b47b" y="338.04543749999993"/>
     <use style="fill:#ff0000;stroke:#ff0000;stroke-width:0.3;" x="167.97591944444446" xlink:href="#m4a9546b47b" y="177.83318749999995"/>
     <use style="fill:#ff0000;stroke:#ff0000;stroke-width:0.3;" x="397.6024159722222" xlink:href="#m4a9546b47b" y="296.6572729166666"/>
     <use style="fill:#ff0000;stroke:#ff0000;stroke-width:0.3;" x="249.1519890277778" xlink:href="#m4a9546b47b" y="291.3168645833333"/>
     <use style="fill:#ff0000;stroke:#ff0000;stroke-width:0.3;" x="325.61140625" xlink:href="#m4a9546b47b" y="217.88624999999996"/>
     <use style="fill:#ff0000;stroke:#ff0000;stroke-width:0.3;" x="461.0289779861111" xlink:href="#m4a9546b47b" y="318.01890625"/>
     <use style="fill:#ff0000;stroke:#ff0000;stroke-width:0.3;" x="376.9980925" xlink:href="#m4a9546b47b" y="344.7209479166666"/>
     <use style="fill:#ff0000;stroke:#ff0000;stroke-width:0.3;" x="495.0385239583333" xlink:href="#m4a9546b47b" y="351.39645833333327"/>
     <use style="fill:#ff0000;stroke:#ff0000;stroke-width:0.3;" x="329.08683430555556" xlink:href="#m4a9546b47b" y="311.34339583333326"/>
     <use style="fill:#ff0000;stroke:#ff0000;stroke-width:0.3;" x="471.45526215277783" xlink:href="#m4a9546b47b" y="324.6944166666666"/>
     <use style="fill:#ff0000;stroke:#ff0000;stroke-width:0.3;" x="463.38730416666664" xlink:href="#m4a9546b47b" y="305.33543645833333"/>
     <use style="fill:#ff0000;stroke:#ff0000;stroke-width:0.3;" x="499.87929875000003" xlink:href="#m4a9546b47b" y="331.3699270833333"/>
     <use style="fill:#ff0000;stroke:#ff0000;stroke-width:0.3;" x="197.76530277777778" xlink:href="#m4a9546b47b" y="251.2638020833333"/>
     <use style="fill:#ff0000;stroke:#ff0000;stroke-width:0.3;" x="243.31823479166667" xlink:href="#m4a9546b47b" y="277.96584375"/>
     <use style="fill:#ff0000;stroke:#ff0000;stroke-width:0.3;" x="234.38141979166664" xlink:href="#m4a9546b47b" y="277.2982927083333"/>
     <use style="fill:#ff0000;stroke:#ff0000;stroke-width:0.3;" x="226.4375842361111" xlink:href="#m4a9546b47b" y="244.58829166666663"/>
     <use style="fill:#ff0000;stroke:#ff0000;stroke-width:0.3;" x="206.20562805555556" xlink:href="#m4a9546b47b" y="231.2372708333333"/>
     <use style="fill:#ff0000;stroke:#ff0000;stroke-width:0.3;" x="162.63865493055556" xlink:href="#m4a9546b47b" y="224.56176041666663"/>
     <use style="fill:#ff0000;stroke:#ff0000;stroke-width:0.3;" x="460.2842434027778" xlink:href="#m4a9546b47b" y="311.34339583333326"/>
     <use style="fill:#ff0000;stroke:#ff0000;stroke-width:0.3;" x="249.27611145833333" xlink:href="#m4a9546b47b" y="240.58298541666662"/>
     <use style="fill:#ff0000;stroke:#ff0000;stroke-width:0.3;" x="211.41877013888887" xlink:href="#m4a9546b47b" y="291.3168645833333"/>
     <use style="fill:#ff0000;stroke:#ff0000;stroke-width:0.3;" x="168.59653159722222" xlink:href="#m4a9546b47b" y="199.19482083333332"/>
     <use style="fill:#ff0000;stroke:#ff0000;stroke-width:0.3;" x="221.1003197222222" xlink:href="#m4a9546b47b" y="271.29033333333325"/>
     <use style="fill:#ff0000;stroke:#ff0000;stroke-width:0.3;" x="208.93632152777775" xlink:href="#m4a9546b47b" y="291.3168645833333"/>
     <use style="fill:#ff0000;stroke:#ff0000;stroke-width:0.3;" x="126.89139493055556" xlink:href="#m4a9546b47b" y="211.2107395833333"/>
     <use style="fill:#ff0000;stroke:#ff0000;stroke-width:0.3;" x="256.5993348611111" xlink:href="#m4a9546b47b" y="264.61482291666664"/>
     <use style="fill:#ff0000;stroke:#ff0000;stroke-width:0.3;" x="148.73694270833334" xlink:href="#m4a9546b47b" y="221.2240052083333"/>
     <use style="fill:#ff0000;stroke:#ff0000;stroke-width:0.3;" x="428.6330236111111" xlink:href="#m4a9546b47b" y="301.3301302083333"/>
     <use style="fill:#ff0000;stroke:#ff0000;stroke-width:0.3;" x="329.5833240277778" xlink:href="#m4a9546b47b" y="291.3168645833333"/>
     <use style="fill:#ff0000;stroke:#ff0000;stroke-width:0.3;" x="257.59231430555553" xlink:href="#m4a9546b47b" y="257.93931249999997"/>
     <use style="fill:#ff0000;stroke:#ff0000;stroke-width:0.3;" x="450.6026938194445" xlink:href="#m4a9546b47b" y="324.6944166666666"/>
     <use style="fill:#ff0000;stroke:#ff0000;stroke-width:0.3;" x="185.97367187499998" xlink:href="#m4a9546b47b" y="231.2372708333333"/>
     <use style="fill:#ff0000;stroke:#ff0000;stroke-width:0.3;" x="229.0441552777778" xlink:href="#m4a9546b47b" y="277.96584375"/>
     <use style="fill:#ff0000;stroke:#ff0000;stroke-width:0.3;" x="346.09160729166666" xlink:href="#m4a9546b47b" y="268.62012916666663"/>
     <use style="fill:#ff0000;stroke:#ff0000;stroke-width:0.3;" x="195.90346631944442" xlink:href="#m4a9546b47b" y="177.83318749999995"/>
     <use style="fill:#ff0000;stroke:#ff0000;stroke-width:0.3;" x="292.5948397222222" xlink:href="#m4a9546b47b" y="297.9923749999999"/>
     <use style="fill:#ff0000;stroke:#ff0000;stroke-width:0.3;" x="345.4709951388889" xlink:href="#m4a9546b47b" y="310.00829374999995"/>
     <use style="fill:#ff0000;stroke:#ff0000;stroke-width:0.3;" x="179.14693819444443" xlink:href="#m4a9546b47b" y="155.13645208333332"/>
     <use style="fill:#ff0000;stroke:#ff0000;stroke-width:0.3;" x="168.59653159722222" xlink:href="#m4a9546b47b" y="217.88624999999996"/>
     <use style="fill:#ff0000;stroke:#ff0000;stroke-width:0.3;" x="286.2645957638889" xlink:href="#m4a9546b47b" y="297.9923749999999"/>
     <use style="fill:#ff0000;stroke:#ff0000;stroke-width:0.3;" x="403.8085375" xlink:href="#m4a9546b47b" y="301.3301302083333"/>
     <use style="fill:#ff0000;stroke:#ff0000;stroke-width:0.3;" x="244.31121423611108" xlink:href="#m4a9546b47b" y="225.89686249999994"/>
     <use style="fill:#ff0000;stroke:#ff0000;stroke-width:0.3;" x="287.75406493055556" xlink:href="#m4a9546b47b" y="271.29033333333325"/>
     <use style="fill:#ff0000;stroke:#ff0000;stroke-width:0.3;" x="195.28285416666665" xlink:href="#m4a9546b47b" y="189.84910624999995"/>
     <use style="fill:#ff0000;stroke:#ff0000;stroke-width:0.3;" x="194.04162986111112" xlink:href="#m4a9546b47b" y="214.54849479166663"/>
     <use style="fill:#ff0000;stroke:#ff0000;stroke-width:0.3;" x="453.2092648611111" xlink:href="#m4a9546b47b" y="311.34339583333326"/>
     <use style="fill:#ff0000;stroke:#ff0000;stroke-width:0.3;" x="185.97367187499998" xlink:href="#m4a9546b47b" y="164.48216666666661"/>
     <use style="fill:#ff0000;stroke:#ff0000;stroke-width:0.3;" x="188.33199805555557" xlink:href="#m4a9546b47b" y="141.1178802083333"/>
     <use style="fill:#ff0000;stroke:#ff0000;stroke-width:0.3;" x="269.7563125" xlink:href="#m4a9546b47b" y="231.90482187499995"/>
     <use style="fill:#ff0000;stroke:#ff0000;stroke-width:0.3;" x="273.85235270833334" xlink:href="#m4a9546b47b" y="271.29033333333325"/>
     <use style="fill:#ff0000;stroke:#ff0000;stroke-width:0.3;" x="151.21939131944447" xlink:href="#m4a9546b47b" y="219.22135208333327"/>
     <use style="fill:#ff0000;stroke:#ff0000;stroke-width:0.3;" x="349.8152802083333" xlink:href="#m4a9546b47b" y="299.995028125"/>
     <use style="fill:#ff0000;stroke:#ff0000;stroke-width:0.3;" x="380.5976429861111" xlink:href="#m4a9546b47b" y="318.01890625"/>
     <use style="fill:#ff0000;stroke:#ff0000;stroke-width:0.3;" x="370.17135881944444" xlink:href="#m4a9546b47b" y="324.6944166666666"/>
     <use style="fill:#ff0000;stroke:#ff0000;stroke-width:0.3;" x="459.04301909722227" xlink:href="#m4a9546b47b" y="314.6811510416666"/>
     <use style="fill:#ff0000;stroke:#ff0000;stroke-width:0.3;" x="318.53642770833335" xlink:href="#m4a9546b47b" y="301.3301302083333"/>
     <use style="fill:#ff0000;stroke:#ff0000;stroke-width:0.3;" x="480.6403220138889" xlink:href="#m4a9546b47b" y="338.04543749999993"/>
     <use style="fill:#ff0000;stroke:#ff0000;stroke-width:0.3;" x="163.0110222222222" xlink:href="#m4a9546b47b" y="224.56176041666663"/>
     <use style="fill:#ff0000;stroke:#ff0000;stroke-width:0.3;" x="413.98657680555556" xlink:href="#m4a9546b47b" y="314.6811510416666"/>
     <use style="fill:#ff0000;stroke:#ff0000;stroke-width:0.3;" x="159.90796145833332" xlink:href="#m4a9546b47b" y="179.83584062499995"/>
     <use style="fill:#ff0000;stroke:#ff0000;stroke-width:0.3;" x="203.3508121527778" xlink:href="#m4a9546b47b" y="244.58829166666663"/>
     <use style="fill:#ff0000;stroke:#ff0000;stroke-width:0.3;" x="189.69734479166664" xlink:href="#m4a9546b47b" y="217.88624999999996"/>
     <use style="fill:#ff0000;stroke:#ff0000;stroke-width:0.3;" x="188.4561204861111" xlink:href="#m4a9546b47b" y="192.51931041666666"/>
     <use style="fill:#ff0000;stroke:#ff0000;stroke-width:0.3;" x="392.01690659722226" xlink:href="#m4a9546b47b" y="297.9923749999999"/>
     <use style="fill:#ff0000;stroke:#ff0000;stroke-width:0.3;" x="455.19522375" xlink:href="#m4a9546b47b" y="331.3699270833333"/>
     <use style="fill:#ff0000;stroke:#ff0000;stroke-width:0.3;" x="322.0118557638889" xlink:href="#m4a9546b47b" y="284.6413541666666"/>
     <use style="fill:#ff0000;stroke:#ff0000;stroke-width:0.3;" x="206.45387291666668" xlink:href="#m4a9546b47b" y="201.86502499999997"/>
     <use style="fill:#ff0000;stroke:#ff0000;stroke-width:0.3;" x="348.32581104166667" xlink:href="#m4a9546b47b" y="311.34339583333326"/>
     <use style="fill:#ff0000;stroke:#ff0000;stroke-width:0.3;" x="239.96692916666666" xlink:href="#m4a9546b47b" y="234.57502604166663"/>
     <use style="fill:#ff0000;stroke:#ff0000;stroke-width:0.3;" x="201.98546541666667" xlink:href="#m4a9546b47b" y="264.61482291666664"/>
     <use style="fill:#ff0000;stroke:#ff0000;stroke-width:0.3;" x="434.7150227083334" xlink:href="#m4a9546b47b" y="324.6944166666666"/>
     <use style="fill:#ff0000;stroke:#ff0000;stroke-width:0.3;" x="398.8436402777778" xlink:href="#m4a9546b47b" y="304.66788541666665"/>
     <use style="fill:#ff0000;stroke:#ff0000;stroke-width:0.3;" x="501.6170127777778" xlink:href="#m4a9546b47b" y="311.34339583333326"/>
     <use style="fill:#ff0000;stroke:#ff0000;stroke-width:0.3;" x="197.76530277777778" xlink:href="#m4a9546b47b" y="264.61482291666664"/>
     <use style="fill:#ff0000;stroke:#ff0000;stroke-width:0.3;" x="238.10509270833336" xlink:href="#m4a9546b47b" y="257.93931249999997"/>
     <use style="fill:#ff0000;stroke:#ff0000;stroke-width:0.3;" x="261.6883545138889" xlink:href="#m4a9546b47b" y="237.91278124999997"/>
     <use style="fill:#ff0000;stroke:#ff0000;stroke-width:0.3;" x="428.88126847222225" xlink:href="#m4a9546b47b" y="318.01890625"/>
     <use style="fill:#ff0000;stroke:#ff0000;stroke-width:0.3;" x="268.51508819444444" xlink:href="#m4a9546b47b" y="237.91278124999997"/>
     <use style="fill:#ff0000;stroke:#ff0000;stroke-width:0.3;" x="248.0348871527778" xlink:href="#m4a9546b47b" y="231.2372708333333"/>
     <use style="fill:#ff0000;stroke:#ff0000;stroke-width:0.3;" x="444.64481715277776" xlink:href="#m4a9546b47b" y="324.6944166666666"/>
     <use style="fill:#ff0000;stroke:#ff0000;stroke-width:0.3;" x="179.7675503472222" xlink:href="#m4a9546b47b" y="194.52196354166662"/>
     <use style="fill:#ff0000;stroke:#ff0000;stroke-width:0.3;" x="154.94306423611113" xlink:href="#m4a9546b47b" y="157.80665624999995"/>
     <use style="fill:#ff0000;stroke:#ff0000;stroke-width:0.3;" x="277.8242704861111" xlink:href="#m4a9546b47b" y="257.93931249999997"/>
     <use style="fill:#ff0000;stroke:#ff0000;stroke-width:0.3;" x="240.58754131944443" xlink:href="#m4a9546b47b" y="241.2505364583333"/>
     <use style="fill:#ff0000;stroke:#ff0000;stroke-width:0.3;" x="385.8107850694445" xlink:href="#m4a9546b47b" y="288.64666041666663"/>
     <use style="fill:#ff0000;stroke:#ff0000;stroke-width:0.3;" x="435.4597572916667" xlink:href="#m4a9546b47b" y="318.01890625"/>
     <use style="fill:#ff0000;stroke:#ff0000;stroke-width:0.3;" x="207.69509722222222" xlink:href="#m4a9546b47b" y="247.92604687499997"/>
     <use style="fill:#ff0000;stroke:#ff0000;stroke-width:0.3;" x="377.99107194444446" xlink:href="#m4a9546b47b" y="324.6944166666666"/>
     <use style="fill:#ff0000;stroke:#ff0000;stroke-width:0.3;" x="253.62039652777776" xlink:href="#m4a9546b47b" y="235.2425770833333"/>
     <use style="fill:#ff0000;stroke:#ff0000;stroke-width:0.3;" x="402.56731319444447" xlink:href="#m4a9546b47b" y="331.3699270833333"/>
     <use style="fill:#ff0000;stroke:#ff0000;stroke-width:0.3;" x="372.77792986111115" xlink:href="#m4a9546b47b" y="291.3168645833333"/>
     <use style="fill:#ff0000;stroke:#ff0000;stroke-width:0.3;" x="311.9579388888889" xlink:href="#m4a9546b47b" y="304.66788541666665"/>
     <use style="fill:#ff0000;stroke:#ff0000;stroke-width:0.3;" x="185.72542701388886" xlink:href="#m4a9546b47b" y="231.2372708333333"/>
     <use style="fill:#ff0000;stroke:#ff0000;stroke-width:0.3;" x="217.50076923611113" xlink:href="#m4a9546b47b" y="271.29033333333325"/>
     <use style="fill:#ff0000;stroke:#ff0000;stroke-width:0.3;" x="178.52632604166666" xlink:href="#m4a9546b47b" y="217.88624999999996"/>
     <use style="fill:#ff0000;stroke:#ff0000;stroke-width:0.3;" x="185.84954944444445" xlink:href="#m4a9546b47b" y="297.9923749999999"/>
     <use style="fill:#ff0000;stroke:#ff0000;stroke-width:0.3;" x="428.2606563194445" xlink:href="#m4a9546b47b" y="324.6944166666666"/>
     <use style="fill:#ff0000;stroke:#ff0000;stroke-width:0.3;" x="271.61814895833334" xlink:href="#m4a9546b47b" y="271.29033333333325"/>
     <use style="fill:#ff0000;stroke:#ff0000;stroke-width:0.3;" x="276.5830461805556" xlink:href="#m4a9546b47b" y="259.2744145833333"/>
     <use style="fill:#ff0000;stroke:#ff0000;stroke-width:0.3;" x="296.07026777777776" xlink:href="#m4a9546b47b" y="257.93931249999997"/>
     <use style="fill:#ff0000;stroke:#ff0000;stroke-width:0.3;" x="207.69509722222222" xlink:href="#m4a9546b47b" y="244.58829166666663"/>
     <use style="fill:#ff0000;stroke:#ff0000;stroke-width:0.3;" x="164.2522465277778" xlink:href="#m4a9546b47b" y="244.58829166666663"/>
     <use style="fill:#ff0000;stroke:#ff0000;stroke-width:0.3;" x="218.24550381944442" xlink:href="#m4a9546b47b" y="217.88624999999996"/>
     <use style="fill:#ff0000;stroke:#ff0000;stroke-width:0.3;" x="162.63865493055556" xlink:href="#m4a9546b47b" y="224.56176041666663"/>
     <use style="fill:#ff0000;stroke:#ff0000;stroke-width:0.3;" x="437.8180834722222" xlink:href="#m4a9546b47b" y="324.6944166666666"/>
     <use style="fill:#ff0000;stroke:#ff0000;stroke-width:0.3;" x="282.16855555555554" xlink:href="#m4a9546b47b" y="248.59359791666662"/>
     <use style="fill:#ff0000;stroke:#ff0000;stroke-width:0.3;" x="282.29267798611113" xlink:href="#m4a9546b47b" y="291.3168645833333"/>
     <use style="fill:#ff0000;stroke:#ff0000;stroke-width:0.3;" x="531.1581512500001" xlink:href="#m4a9546b47b" y="338.04543749999993"/>
     <use style="fill:#ff0000;stroke:#ff0000;stroke-width:0.3;" x="205.08852618055556" xlink:href="#m4a9546b47b" y="284.6413541666666"/>
     <use style="fill:#ff0000;stroke:#ff0000;stroke-width:0.3;" x="186.59428402777775" xlink:href="#m4a9546b47b" y="237.91278124999997"/>
     <use style="fill:#ff0000;stroke:#ff0000;stroke-width:0.3;" x="280.92733125" xlink:href="#m4a9546b47b" y="269.2876802083333"/>
     <use style="fill:#ff0000;stroke:#ff0000;stroke-width:0.3;" x="465.3732630555556" xlink:href="#m4a9546b47b" y="351.39645833333327"/>
     <use style="fill:#ff0000;stroke:#ff0000;stroke-width:0.3;" x="369.67486909722226" xlink:href="#m4a9546b47b" y="289.98176249999995"/>
     <use style="fill:#ff0000;stroke:#ff0000;stroke-width:0.3;" x="243.06998993055555" xlink:href="#m4a9546b47b" y="244.58829166666663"/>
     <use style="fill:#ff0000;stroke:#ff0000;stroke-width:0.3;" x="373.0261747222222" xlink:href="#m4a9546b47b" y="311.34339583333326"/>
     <use style="fill:#ff0000;stroke:#ff0000;stroke-width:0.3;" x="186.59428402777775" xlink:href="#m4a9546b47b" y="169.15502395833332"/>
     <use style="fill:#ff0000;stroke:#ff0000;stroke-width:0.3;" x="165.86583812499998" xlink:href="#m4a9546b47b" y="244.58829166666663"/>
     <use style="fill:#ff0000;stroke:#ff0000;stroke-width:0.3;" x="327.4732427083333" xlink:href="#m4a9546b47b" y="283.30625208333333"/>
     <use style="fill:#ff0000;stroke:#ff0000;stroke-width:0.3;" x="388.29323368055555" xlink:href="#m4a9546b47b" y="331.3699270833333"/>
     <use style="fill:#ff0000;stroke:#ff0000;stroke-width:0.3;" x="250.88970305555557" xlink:href="#m4a9546b47b" y="277.96584375"/>
     <use style="fill:#ff0000;stroke:#ff0000;stroke-width:0.3;" x="198.13767006944443" xlink:href="#m4a9546b47b" y="251.2638020833333"/>
     <use style="fill:#ff0000;stroke:#ff0000;stroke-width:0.3;" x="347.33283159722225" xlink:href="#m4a9546b47b" y="281.3035989583333"/>
     <use style="fill:#ff0000;stroke:#ff0000;stroke-width:0.3;" x="176.66448958333336" xlink:href="#m4a9546b47b" y="166.4848197916666"/>
     <use style="fill:#ff0000;stroke:#ff0000;stroke-width:0.3;" x="190.31795694444446" xlink:href="#m4a9546b47b" y="177.83318749999995"/>
     <use style="fill:#ff0000;stroke:#ff0000;stroke-width:0.3;" x="270.62516951388886" xlink:href="#m4a9546b47b" y="284.6413541666666"/>
     <use style="fill:#ff0000;stroke:#ff0000;stroke-width:0.3;" x="167.3553072916667" xlink:href="#m4a9546b47b" y="171.15767708333328"/>
     <use style="fill:#ff0000;stroke:#ff0000;stroke-width:0.3;" x="297.18736965277776" xlink:href="#m4a9546b47b" y="297.9923749999999"/>
     <use style="fill:#ff0000;stroke:#ff0000;stroke-width:0.3;" x="288.3746770833333" xlink:href="#m4a9546b47b" y="237.91278124999997"/>
     <use style="fill:#ff0000;stroke:#ff0000;stroke-width:0.3;" x="187.21489618055557" xlink:href="#m4a9546b47b" y="221.2240052083333"/>
     <use style="fill:#ff0000;stroke:#ff0000;stroke-width:0.3;" x="359.1244625" xlink:href="#m4a9546b47b" y="301.3301302083333"/>
     <use style="fill:#ff0000;stroke:#ff0000;stroke-width:0.3;" x="259.82651805555554" xlink:href="#m4a9546b47b" y="250.59625104166662"/>
    </g>
   </g>
   <g id="PolyCollection_1">
    <defs>
     <path d="M 46.335938 -365.617102 
L 46.335938 -330.585712 
L 51.977866 -326.67454 
L 57.619795 -322.916489 
L 63.261723 -318.963794 
L 68.903652 -315.052987 
L 74.545581 -311.421093 
L 80.187509 -307.789993 
L 85.829438 -304.05132 
L 91.471367 -300.465961 
L 97.113295 -296.693221 
L 102.755224 -293.1406 
L 108.397153 -289.624272 
L 114.039081 -286.142355 
L 119.68101 -282.648521 
L 125.322939 -279.277008 
L 130.964867 -275.775838 
L 136.606796 -272.228568 
L 142.248725 -268.851748 
L 147.890653 -265.470195 
L 153.532582 -262.019276 
L 159.174511 -258.8166 
L 164.816439 -255.61585 
L 170.458368 -252.412659 
L 176.100297 -249.202083 
L 181.742225 -246.016929 
L 187.384154 -242.969305 
L 193.026083 -239.765985 
L 198.668011 -236.657277 
L 204.30994 -233.523852 
L 209.951869 -230.447675 
L 215.593797 -227.359671 
L 221.235726 -224.277169 
L 226.877655 -221.307229 
L 232.519583 -218.402018 
L 238.161512 -215.597442 
L 243.803441 -212.78533 
L 249.445369 -209.876941 
L 255.087298 -207.042903 
L 260.729227 -204.156165 
L 266.371155 -201.403929 
L 272.013084 -198.639092 
L 277.655013 -195.880369 
L 283.296941 -193.306152 
L 288.93887 -190.698706 
L 294.580799 -188.175477 
L 300.222727 -185.59107 
L 305.864656 -183.110781 
L 311.506585 -180.643861 
L 317.148513 -178.278503 
L 322.790442 -176.034206 
L 328.432371 -173.813656 
L 334.074299 -171.608959 
L 339.716228 -169.478261 
L 345.358157 -167.379853 
L 351.000085 -165.334794 
L 356.642014 -163.324083 
L 362.283943 -161.349152 
L 367.925871 -159.484881 
L 373.5678 -157.613282 
L 379.209729 -155.883409 
L 384.851657 -154.184154 
L 390.493586 -152.547353 
L 396.135515 -150.950433 
L 401.777443 -149.313666 
L 407.419372 -147.744058 
L 413.061301 -146.226872 
L 418.703229 -144.823512 
L 424.345158 -143.407943 
L 429.987086 -142.002462 
L 435.629015 -140.670109 
L 441.270944 -139.432784 
L 446.912872 -138.162158 
L 452.554801 -136.953056 
L 458.19673 -135.789488 
L 463.838658 -134.589272 
L 469.480587 -133.408671 
L 475.122516 -132.31819 
L 480.764444 -131.158734 
L 486.406373 -130.025177 
L 492.048302 -128.937744 
L 497.69023 -127.824726 
L 503.332159 -126.702773 
L 508.974088 -125.606146 
L 514.616016 -124.492915 
L 520.257945 -123.344755 
L 525.899874 -122.228022 
L 531.541802 -121.180871 
L 537.183731 -120.219607 
L 542.82566 -119.268932 
L 548.467588 -118.453477 
L 554.109517 -117.537601 
L 559.751446 -116.64158 
L 565.393374 -115.829827 
L 571.035303 -115.161189 
L 576.677232 -114.329918 
L 582.31916 -113.607118 
L 587.961089 -112.806137 
L 593.603018 -112.036731 
L 599.244946 -111.402346 
L 604.886875 -110.749616 
L 604.886875 -135.889374 
L 604.886875 -135.889374 
L 599.244946 -135.305276 
L 593.603018 -134.774659 
L 587.961089 -134.304983 
L 582.31916 -133.896913 
L 576.677232 -133.546019 
L 571.035303 -133.253009 
L 565.393374 -133.018812 
L 559.751446 -132.815061 
L 554.109517 -132.729599 
L 548.467588 -132.619578 
L 542.82566 -132.589401 
L 537.183731 -132.591795 
L 531.541802 -132.708487 
L 525.899874 -132.886762 
L 520.257945 -133.134115 
L 514.616016 -133.444433 
L 508.974088 -133.765412 
L 503.332159 -134.130661 
L 497.69023 -134.64858 
L 492.048302 -135.259942 
L 486.406373 -135.986437 
L 480.764444 -136.737127 
L 475.122516 -137.550059 
L 469.480587 -138.410242 
L 463.838658 -139.405713 
L 458.19673 -140.434653 
L 452.554801 -141.648202 
L 446.912872 -142.95961 
L 441.270944 -144.325604 
L 435.629015 -145.669788 
L 429.987086 -147.096614 
L 424.345158 -148.593702 
L 418.703229 -150.106451 
L 413.061301 -151.740408 
L 407.419372 -153.374762 
L 401.777443 -155.044963 
L 396.135515 -156.802132 
L 390.493586 -158.629041 
L 384.851657 -160.498971 
L 379.209729 -162.32083 
L 373.5678 -164.32534 
L 367.925871 -166.287985 
L 362.283943 -168.279676 
L 356.642014 -170.342953 
L 351.000085 -172.359062 
L 345.358157 -174.502118 
L 339.716228 -176.700119 
L 334.074299 -178.862267 
L 328.432371 -181.159985 
L 322.790442 -183.477226 
L 317.148513 -185.790793 
L 311.506585 -188.176606 
L 305.864656 -190.545816 
L 300.222727 -192.973565 
L 294.580799 -195.424389 
L 288.93887 -197.963369 
L 283.296941 -200.48864 
L 277.655013 -203.080291 
L 272.013084 -205.596966 
L 266.371155 -208.290497 
L 260.729227 -211.078796 
L 255.087298 -213.912271 
L 249.445369 -216.824824 
L 243.803441 -219.79364 
L 238.161512 -222.829817 
L 232.519583 -225.972728 
L 226.877655 -229.128785 
L 221.235726 -232.332999 
L 215.593797 -235.516972 
L 209.951869 -238.879403 
L 204.30994 -242.274815 
L 198.668011 -245.779218 
L 193.026083 -249.22154 
L 187.384154 -252.866458 
L 181.742225 -256.625577 
L 176.100297 -260.516004 
L 170.458368 -264.431598 
L 164.816439 -268.319994 
L 159.174511 -272.1671 
L 153.532582 -276.315335 
L 147.890653 -280.584213 
L 142.248725 -284.672606 
L 136.606796 -288.96931 
L 130.964867 -293.339032 
L 125.322939 -297.651646 
L 119.68101 -301.999397 
L 114.039081 -306.584844 
L 108.397153 -311.105528 
L 102.755224 -315.866049 
L 97.113295 -320.599405 
L 91.471367 -325.267265 
L 85.829438 -330.026783 
L 80.187509 -334.861217 
L 74.545581 -339.771772 
L 68.903652 -344.812914 
L 63.261723 -349.974402 
L 57.619795 -355.19811 
L 51.977866 -360.484037 
L 46.335938 -365.617102 
z
" id="mf7ac750a57" style="stroke:#000000;stroke-opacity:0.15;stroke-width:0.3;"/>
    </defs>
    <g clip-path="url(#p65aad4f2ef)">
     <use style="fill:#008000;fill-opacity:0.15;stroke:#000000;stroke-opacity:0.15;stroke-width:0.3;" x="0.0" xlink:href="#mf7ac750a57" y="462.6875"/>
    </g>
   </g>
   <g id="line2d_52">
    <path clip-path="url(#p65aad4f2ef)" d="M 46.335938 114.706701 
L 51.977866 119.265881 
L 57.619795 123.778263 
L 63.261723 128.243845 
L 68.903652 132.662627 
L 74.545581 137.03461 
L 80.187509 141.359794 
L 85.829438 145.638179 
L 91.471367 149.869764 
L 97.113295 154.05455 
L 102.755224 158.192537 
L 108.397153 162.283724 
L 114.039081 166.328112 
L 119.68101 170.325701 
L 125.322939 174.27649 
L 130.964867 178.18048 
L 136.606796 182.037671 
L 142.248725 185.848062 
L 147.890653 189.611654 
L 153.532582 193.328447 
L 159.174511 196.99844 
L 164.816439 200.621634 
L 170.458368 204.198029 
L 176.100297 207.727624 
L 181.742225 211.21042 
L 187.384154 214.646417 
L 193.026083 218.035614 
L 198.668011 221.378012 
L 204.30994 224.673611 
L 209.951869 227.92241 
L 215.593797 231.12441 
L 221.235726 234.279611 
L 226.877655 237.388012 
L 232.519583 240.449614 
L 238.161512 243.464417 
L 243.803441 246.43242 
L 249.445369 249.353624 
L 255.087298 252.228029 
L 260.729227 255.055634 
L 266.371155 257.83644 
L 272.013084 260.570447 
L 277.655013 263.257654 
L 283.296941 265.898063 
L 288.93887 268.491671 
L 294.580799 271.038481 
L 300.222727 273.538491 
L 305.864656 275.991702 
L 311.506585 278.398113 
L 317.148513 280.757725 
L 322.790442 283.070538 
L 328.432371 285.336551 
L 334.074299 287.555765 
L 339.716228 289.72818 
L 345.358157 291.853796 
L 351.000085 293.932612 
L 356.642014 295.964628 
L 362.283943 297.949846 
L 367.925871 299.888264 
L 373.5678 301.779883 
L 379.209729 303.624702 
L 384.851657 305.422722 
L 390.493586 307.173943 
L 396.135515 308.878365 
L 401.777443 310.535987 
L 407.419372 312.14681 
L 413.061301 313.710833 
L 418.703229 315.228057 
L 424.345158 316.698482 
L 429.987086 318.122108 
L 435.629015 319.498934 
L 441.270944 320.828961 
L 446.912872 322.112188 
L 452.554801 323.348616 
L 458.19673 324.538245 
L 463.838658 325.681075 
L 469.480587 326.777105 
L 475.122516 327.826336 
L 480.764444 328.828767 
L 486.406373 329.7844 
L 492.048302 330.693232 
L 497.69023 331.555266 
L 503.332159 332.3705 
L 508.974088 333.138935 
L 514.616016 333.860571 
L 520.257945 334.535407 
L 525.899874 335.163444 
L 531.541802 335.744681 
L 537.183731 336.27912 
L 542.82566 336.766759 
L 548.467588 337.207598 
L 554.109517 337.601638 
L 559.751446 337.948879 
L 565.393374 338.249321 
L 571.035303 338.502963 
L 576.677232 338.709806 
L 582.31916 338.86985 
L 587.961089 338.983094 
L 593.603018 339.049539 
L 599.244946 339.069184 
L 604.886875 339.042031 
" style="fill:none;stroke:#008000;stroke-linecap:round;stroke-width:2.625;"/>
   </g>
   <g id="patch_3">
    <path d="M 46.335938 418.151562 
L 604.886875 418.151562 
" style="fill:none;"/>
   </g>
   <g id="patch_4">
    <path d="M 46.335938 418.151562 
L 46.335938 17.620937 
" style="fill:none;"/>
   </g>
   <g id="patch_5">
    <path d="M 604.886875 418.151562 
L 604.886875 17.620937 
" style="fill:none;"/>
   </g>
   <g id="patch_6">
    <path d="M 46.335938 17.620937 
L 604.886875 17.620937 
" style="fill:none;"/>
   </g>
  </g>
 </g>
 <defs>
  <clipPath id="p65aad4f2ef">
   <rect height="400.530625" width="558.5509375" x="46.3359375" y="17.620937499999968"/>
  </clipPath>
 </defs>
</svg>
