<?xml version="1.0" encoding="utf-8" standalone="no"?>
<!DOCTYPE svg PUBLIC "-//W3C//DTD SVG 1.1//EN"
  "http://www.w3.org/Graphics/SVG/1.1/DTD/svg11.dtd">
<!-- Created with matplotlib (http://matplotlib.org/) -->
<svg height="462pt" version="1.1" viewBox="0 0 628 462" width="628pt" xmlns="http://www.w3.org/2000/svg" xmlns:xlink="http://www.w3.org/1999/xlink">
 <defs>
  <style type="text/css">
*{stroke-linecap:butt;stroke-linejoin:round;stroke-miterlimit:100000;}
  </style>
 </defs>
 <g id="figure_1">
  <g id="patch_1">
   <path d="M 0 462.6875 
L 628.96875 462.6875 
L 628.96875 0 
L 0 0 
z
" style="fill:#ffffff;"/>
  </g>
  <g id="axes_1">
   <g id="patch_2">
    <path d="M 46.335938 418.151562 
L 604.886875 418.151562 
L 604.886875 17.620937 
L 46.335938 17.620937 
z
" style="fill:#eaeaf2;"/>
   </g>
   <g id="matplotlib.axis_1">
    <g id="xtick_1">
     <g id="line2d_1">
      <path clip-path="url(#p013a2b93bb)" d="M 46.335938 418.151562 
L 46.335938 17.620937 
" style="fill:none;stroke:#ffffff;stroke-linecap:round;"/>
     </g>
     <g id="line2d_2">
      <defs>
       <path d="M 0 0 
L 0 0 
" id="m8b8c8f907e" style="stroke:#262626;"/>
      </defs>
      <g>
       <use style="fill:#262626;stroke:#262626;" x="46.3359375" xlink:href="#m8b8c8f907e" y="418.15156249999995"/>
      </g>
     </g>
     <g id="line2d_3">
      <g>
       <use style="fill:#262626;stroke:#262626;" x="46.3359375" xlink:href="#m8b8c8f907e" y="17.620937499999968"/>
      </g>
     </g>
     <g id="text_1">
      <!-- 1000 -->
      <defs>
       <path d="M 51.703125 34.421875 
Q 51.703125 24.515625 49.828125 17.75 
Q 47.953125 10.984375 44.703125 6.8125 
Q 41.453125 2.640625 37.0625 0.828125 
Q 32.671875 -0.984375 27.6875 -0.984375 
Q 22.65625 -0.984375 18.3125 0.828125 
Q 13.96875 2.640625 10.765625 6.78125 
Q 7.5625 10.9375 5.734375 17.703125 
Q 3.90625 24.46875 3.90625 34.421875 
Q 3.90625 44.828125 5.734375 51.640625 
Q 7.5625 58.453125 10.78125 62.5 
Q 14.015625 66.546875 18.40625 68.1875 
Q 22.796875 69.828125 27.984375 69.828125 
Q 32.90625 69.828125 37.21875 68.1875 
Q 41.546875 66.546875 44.765625 62.5 
Q 48 58.453125 49.84375 51.640625 
Q 51.703125 44.828125 51.703125 34.421875 
M 42.78125 34.421875 
Q 42.78125 42.625 41.796875 48.0625 
Q 40.828125 53.515625 38.921875 56.765625 
Q 37.015625 60.015625 34.25 61.359375 
Q 31.5 62.703125 27.984375 62.703125 
Q 24.265625 62.703125 21.4375 61.328125 
Q 18.609375 59.96875 16.671875 56.71875 
Q 14.75 53.46875 13.765625 48.015625 
Q 12.796875 42.578125 12.796875 34.421875 
Q 12.796875 26.515625 13.796875 21.09375 
Q 14.796875 15.671875 16.71875 12.375 
Q 18.65625 9.078125 21.4375 7.640625 
Q 24.21875 6.203125 27.78125 6.203125 
Q 31.25 6.203125 34.03125 7.640625 
Q 36.8125 9.078125 38.734375 12.375 
Q 40.671875 15.671875 41.71875 21.09375 
Q 42.78125 26.515625 42.78125 34.421875 
" id="LiberationSans-30"/>
       <path d="M 7.625 0 
L 7.625 7.46875 
L 25.140625 7.46875 
L 25.140625 60.40625 
L 9.625 49.3125 
L 9.625 57.625 
L 25.875 68.796875 
L 33.984375 68.796875 
L 33.984375 7.46875 
L 50.734375 7.46875 
L 50.734375 0 
z
" id="LiberationSans-31"/>
      </defs>
      <g style="fill:#262626;" transform="translate(35.2140625 432.3984375)scale(0.1 -0.1)">
       <use xlink:href="#LiberationSans-31"/>
       <use x="55.615234375" xlink:href="#LiberationSans-30"/>
       <use x="111.23046875" xlink:href="#LiberationSans-30"/>
       <use x="166.845703125" xlink:href="#LiberationSans-30"/>
      </g>
     </g>
    </g>
    <g id="xtick_2">
     <g id="line2d_4">
      <path clip-path="url(#p013a2b93bb)" d="M 108.397153 418.151562 
L 108.397153 17.620937 
" style="fill:none;stroke:#ffffff;stroke-linecap:round;"/>
     </g>
     <g id="line2d_5">
      <g>
       <use style="fill:#262626;stroke:#262626;" x="108.39715277777778" xlink:href="#m8b8c8f907e" y="418.15156249999995"/>
      </g>
     </g>
     <g id="line2d_6">
      <g>
       <use style="fill:#262626;stroke:#262626;" x="108.39715277777778" xlink:href="#m8b8c8f907e" y="17.620937499999968"/>
      </g>
     </g>
     <g id="text_2">
      <!-- 1500 -->
      <defs>
       <path d="M 51.421875 22.40625 
Q 51.421875 17.234375 49.859375 12.9375 
Q 48.296875 8.640625 45.21875 5.53125 
Q 42.140625 2.4375 37.578125 0.71875 
Q 33.015625 -0.984375 27 -0.984375 
Q 21.578125 -0.984375 17.546875 0.28125 
Q 13.53125 1.5625 10.734375 3.78125 
Q 7.953125 6 6.3125 8.984375 
Q 4.6875 11.96875 4 15.375 
L 12.890625 16.40625 
Q 13.421875 14.453125 14.390625 12.625 
Q 15.375 10.796875 17.0625 9.34375 
Q 18.75 7.90625 21.21875 7.046875 
Q 23.6875 6.203125 27.203125 6.203125 
Q 30.609375 6.203125 33.390625 7.25 
Q 36.1875 8.296875 38.15625 10.34375 
Q 40.140625 12.40625 41.203125 15.375 
Q 42.28125 18.359375 42.28125 22.21875 
Q 42.28125 25.390625 41.25 28.046875 
Q 40.234375 30.71875 38.328125 32.640625 
Q 36.421875 34.578125 33.65625 35.640625 
Q 30.90625 36.71875 27.390625 36.71875 
Q 25.203125 36.71875 23.34375 36.328125 
Q 21.484375 35.9375 19.890625 35.25 
Q 18.3125 34.578125 17.015625 33.671875 
Q 15.71875 32.765625 14.59375 31.78125 
L 6 31.78125 
L 8.296875 68.796875 
L 47.40625 68.796875 
L 47.40625 61.328125 
L 16.3125 61.328125 
L 14.984375 39.5 
Q 17.328125 41.3125 20.84375 42.59375 
Q 24.359375 43.890625 29.203125 43.890625 
Q 34.328125 43.890625 38.421875 42.328125 
Q 42.53125 40.765625 45.40625 37.90625 
Q 48.296875 35.0625 49.859375 31.109375 
Q 51.421875 27.15625 51.421875 22.40625 
" id="LiberationSans-35"/>
      </defs>
      <g style="fill:#262626;" transform="translate(97.27527777777777 432.3984375)scale(0.1 -0.1)">
       <use xlink:href="#LiberationSans-31"/>
       <use x="55.615234375" xlink:href="#LiberationSans-35"/>
       <use x="111.23046875" xlink:href="#LiberationSans-30"/>
       <use x="166.845703125" xlink:href="#LiberationSans-30"/>
      </g>
     </g>
    </g>
    <g id="xtick_3">
     <g id="line2d_7">
      <path clip-path="url(#p013a2b93bb)" d="M 170.458368 418.151562 
L 170.458368 17.620937 
" style="fill:none;stroke:#ffffff;stroke-linecap:round;"/>
     </g>
     <g id="line2d_8">
      <g>
       <use style="fill:#262626;stroke:#262626;" x="170.45836805555552" xlink:href="#m8b8c8f907e" y="418.15156249999995"/>
      </g>
     </g>
     <g id="line2d_9">
      <g>
       <use style="fill:#262626;stroke:#262626;" x="170.45836805555552" xlink:href="#m8b8c8f907e" y="17.620937499999968"/>
      </g>
     </g>
     <g id="text_3">
      <!-- 2000 -->
      <defs>
       <path d="M 5.03125 0 
L 5.03125 6.203125 
Q 7.515625 11.921875 11.109375 16.28125 
Q 14.703125 20.65625 18.65625 24.1875 
Q 22.609375 27.734375 26.484375 30.765625 
Q 30.375 33.796875 33.5 36.8125 
Q 36.625 39.84375 38.546875 43.15625 
Q 40.484375 46.484375 40.484375 50.6875 
Q 40.484375 53.609375 39.59375 55.828125 
Q 38.71875 58.0625 37.0625 59.5625 
Q 35.40625 61.078125 33.078125 61.828125 
Q 30.765625 62.59375 27.9375 62.59375 
Q 25.296875 62.59375 22.96875 61.859375 
Q 20.65625 61.140625 18.84375 59.671875 
Q 17.046875 58.203125 15.890625 56.03125 
Q 14.75 53.859375 14.40625 50.984375 
L 5.421875 51.8125 
Q 5.859375 55.515625 7.46875 58.78125 
Q 9.078125 62.0625 11.90625 64.53125 
Q 14.75 67 18.71875 68.40625 
Q 22.703125 69.828125 27.9375 69.828125 
Q 33.0625 69.828125 37.0625 68.609375 
Q 41.0625 67.390625 43.8125 64.984375 
Q 46.578125 62.59375 48.046875 59.078125 
Q 49.515625 55.5625 49.515625 50.984375 
Q 49.515625 47.515625 48.265625 44.390625 
Q 47.015625 41.265625 44.9375 38.421875 
Q 42.875 35.59375 40.140625 32.953125 
Q 37.40625 30.328125 34.421875 27.8125 
Q 31.453125 25.296875 28.421875 22.828125 
Q 25.390625 20.359375 22.71875 17.859375 
Q 20.0625 15.375 17.96875 12.8125 
Q 15.875 10.25 14.703125 7.46875 
L 50.59375 7.46875 
L 50.59375 0 
z
" id="LiberationSans-32"/>
      </defs>
      <g style="fill:#262626;" transform="translate(159.33649305555554 432.3984375)scale(0.1 -0.1)">
       <use xlink:href="#LiberationSans-32"/>
       <use x="55.615234375" xlink:href="#LiberationSans-30"/>
       <use x="111.23046875" xlink:href="#LiberationSans-30"/>
       <use x="166.845703125" xlink:href="#LiberationSans-30"/>
      </g>
     </g>
    </g>
    <g id="xtick_4">
     <g id="line2d_10">
      <path clip-path="url(#p013a2b93bb)" d="M 232.519583 418.151562 
L 232.519583 17.620937 
" style="fill:none;stroke:#ffffff;stroke-linecap:round;"/>
     </g>
     <g id="line2d_11">
      <g>
       <use style="fill:#262626;stroke:#262626;" x="232.51958333333334" xlink:href="#m8b8c8f907e" y="418.15156249999995"/>
      </g>
     </g>
     <g id="line2d_12">
      <g>
       <use style="fill:#262626;stroke:#262626;" x="232.51958333333334" xlink:href="#m8b8c8f907e" y="17.620937499999968"/>
      </g>
     </g>
     <g id="text_4">
      <!-- 2500 -->
      <g style="fill:#262626;" transform="translate(221.39770833333336 432.3984375)scale(0.1 -0.1)">
       <use xlink:href="#LiberationSans-32"/>
       <use x="55.615234375" xlink:href="#LiberationSans-35"/>
       <use x="111.23046875" xlink:href="#LiberationSans-30"/>
       <use x="166.845703125" xlink:href="#LiberationSans-30"/>
      </g>
     </g>
    </g>
    <g id="xtick_5">
     <g id="line2d_13">
      <path clip-path="url(#p013a2b93bb)" d="M 294.580799 418.151562 
L 294.580799 17.620937 
" style="fill:none;stroke:#ffffff;stroke-linecap:round;"/>
     </g>
     <g id="line2d_14">
      <g>
       <use style="fill:#262626;stroke:#262626;" x="294.5807986111111" xlink:href="#m8b8c8f907e" y="418.15156249999995"/>
      </g>
     </g>
     <g id="line2d_15">
      <g>
       <use style="fill:#262626;stroke:#262626;" x="294.5807986111111" xlink:href="#m8b8c8f907e" y="17.620937499999968"/>
      </g>
     </g>
     <g id="text_5">
      <!-- 3000 -->
      <defs>
       <path d="M 51.21875 19 
Q 51.21875 14.265625 49.671875 10.546875 
Q 48.140625 6.84375 45.1875 4.265625 
Q 42.234375 1.703125 37.859375 0.359375 
Q 33.5 -0.984375 27.875 -0.984375 
Q 21.484375 -0.984375 17.109375 0.609375 
Q 12.75 2.203125 9.90625 4.8125 
Q 7.078125 7.421875 5.65625 10.765625 
Q 4.25 14.109375 3.8125 17.671875 
L 12.890625 18.5 
Q 13.28125 15.765625 14.328125 13.515625 
Q 15.375 11.28125 17.1875 9.671875 
Q 19 8.0625 21.625 7.171875 
Q 24.265625 6.296875 27.875 6.296875 
Q 34.515625 6.296875 38.296875 9.5625 
Q 42.09375 12.84375 42.09375 19.28125 
Q 42.09375 23.09375 40.40625 25.40625 
Q 38.71875 27.734375 36.203125 29.03125 
Q 33.6875 30.328125 30.734375 30.765625 
Q 27.78125 31.203125 25.296875 31.203125 
L 20.3125 31.203125 
L 20.3125 38.8125 
L 25.09375 38.8125 
Q 27.59375 38.8125 30.265625 39.328125 
Q 32.953125 39.84375 35.171875 41.1875 
Q 37.40625 42.53125 38.84375 44.828125 
Q 40.28125 47.125 40.28125 50.6875 
Q 40.28125 56.203125 37.03125 59.390625 
Q 33.796875 62.59375 27.390625 62.59375 
Q 21.578125 62.59375 17.984375 59.609375 
Q 14.40625 56.640625 13.8125 51.21875 
L 4.984375 51.90625 
Q 5.515625 56.453125 7.46875 59.8125 
Q 9.421875 63.1875 12.421875 65.40625 
Q 15.4375 67.625 19.28125 68.71875 
Q 23.140625 69.828125 27.484375 69.828125 
Q 33.25 69.828125 37.390625 68.375 
Q 41.546875 66.9375 44.1875 64.46875 
Q 46.828125 62.015625 48.0625 58.6875 
Q 49.3125 55.375 49.3125 51.609375 
Q 49.3125 48.578125 48.484375 45.9375 
Q 47.65625 43.3125 45.890625 41.203125 
Q 44.140625 39.109375 41.421875 37.59375 
Q 38.71875 36.078125 34.90625 35.296875 
L 34.90625 35.109375 
Q 39.0625 34.671875 42.140625 33.21875 
Q 45.21875 31.78125 47.21875 29.625 
Q 49.21875 27.484375 50.21875 24.75 
Q 51.21875 22.015625 51.21875 19 
" id="LiberationSans-33"/>
      </defs>
      <g style="fill:#262626;" transform="translate(283.4589236111111 432.3984375)scale(0.1 -0.1)">
       <use xlink:href="#LiberationSans-33"/>
       <use x="55.615234375" xlink:href="#LiberationSans-30"/>
       <use x="111.23046875" xlink:href="#LiberationSans-30"/>
       <use x="166.845703125" xlink:href="#LiberationSans-30"/>
      </g>
     </g>
    </g>
    <g id="xtick_6">
     <g id="line2d_16">
      <path clip-path="url(#p013a2b93bb)" d="M 356.642014 418.151562 
L 356.642014 17.620937 
" style="fill:none;stroke:#ffffff;stroke-linecap:round;"/>
     </g>
     <g id="line2d_17">
      <g>
       <use style="fill:#262626;stroke:#262626;" x="356.64201388888887" xlink:href="#m8b8c8f907e" y="418.15156249999995"/>
      </g>
     </g>
     <g id="line2d_18">
      <g>
       <use style="fill:#262626;stroke:#262626;" x="356.64201388888887" xlink:href="#m8b8c8f907e" y="17.620937499999968"/>
      </g>
     </g>
     <g id="text_6">
      <!-- 3500 -->
      <g style="fill:#262626;" transform="translate(345.5201388888889 432.3984375)scale(0.1 -0.1)">
       <use xlink:href="#LiberationSans-33"/>
       <use x="55.615234375" xlink:href="#LiberationSans-35"/>
       <use x="111.23046875" xlink:href="#LiberationSans-30"/>
       <use x="166.845703125" xlink:href="#LiberationSans-30"/>
      </g>
     </g>
    </g>
    <g id="xtick_7">
     <g id="line2d_19">
      <path clip-path="url(#p013a2b93bb)" d="M 418.703229 418.151562 
L 418.703229 17.620937 
" style="fill:none;stroke:#ffffff;stroke-linecap:round;"/>
     </g>
     <g id="line2d_20">
      <g>
       <use style="fill:#262626;stroke:#262626;" x="418.70322916666663" xlink:href="#m8b8c8f907e" y="418.15156249999995"/>
      </g>
     </g>
     <g id="line2d_21">
      <g>
       <use style="fill:#262626;stroke:#262626;" x="418.70322916666663" xlink:href="#m8b8c8f907e" y="17.620937499999968"/>
      </g>
     </g>
     <g id="text_7">
      <!-- 4000 -->
      <defs>
       <path d="M 43.015625 15.578125 
L 43.015625 0 
L 34.71875 0 
L 34.71875 15.578125 
L 2.296875 15.578125 
L 2.296875 22.40625 
L 33.796875 68.796875 
L 43.015625 68.796875 
L 43.015625 22.515625 
L 52.6875 22.515625 
L 52.6875 15.578125 
z
M 34.71875 58.890625 
Q 34.625 58.640625 34.234375 57.9375 
Q 33.84375 57.234375 33.34375 56.34375 
Q 32.859375 55.46875 32.34375 54.5625 
Q 31.84375 53.65625 31.453125 53.078125 
L 13.8125 27.09375 
Q 13.578125 26.703125 13.109375 26.0625 
Q 12.640625 25.4375 12.15625 24.78125 
Q 11.671875 24.125 11.171875 23.484375 
Q 10.6875 22.859375 10.40625 22.515625 
L 34.71875 22.515625 
z
" id="LiberationSans-34"/>
      </defs>
      <g style="fill:#262626;" transform="translate(407.58135416666664 432.3984375)scale(0.1 -0.1)">
       <use xlink:href="#LiberationSans-34"/>
       <use x="55.615234375" xlink:href="#LiberationSans-30"/>
       <use x="111.23046875" xlink:href="#LiberationSans-30"/>
       <use x="166.845703125" xlink:href="#LiberationSans-30"/>
      </g>
     </g>
    </g>
    <g id="xtick_8">
     <g id="line2d_22">
      <path clip-path="url(#p013a2b93bb)" d="M 480.764444 418.151562 
L 480.764444 17.620937 
" style="fill:none;stroke:#ffffff;stroke-linecap:round;"/>
     </g>
     <g id="line2d_23">
      <g>
       <use style="fill:#262626;stroke:#262626;" x="480.7644444444444" xlink:href="#m8b8c8f907e" y="418.15156249999995"/>
      </g>
     </g>
     <g id="line2d_24">
      <g>
       <use style="fill:#262626;stroke:#262626;" x="480.7644444444444" xlink:href="#m8b8c8f907e" y="17.620937499999968"/>
      </g>
     </g>
     <g id="text_8">
      <!-- 4500 -->
      <g style="fill:#262626;" transform="translate(469.6425694444444 432.3984375)scale(0.1 -0.1)">
       <use xlink:href="#LiberationSans-34"/>
       <use x="55.615234375" xlink:href="#LiberationSans-35"/>
       <use x="111.23046875" xlink:href="#LiberationSans-30"/>
       <use x="166.845703125" xlink:href="#LiberationSans-30"/>
      </g>
     </g>
    </g>
    <g id="xtick_9">
     <g id="line2d_25">
      <path clip-path="url(#p013a2b93bb)" d="M 542.82566 418.151562 
L 542.82566 17.620937 
" style="fill:none;stroke:#ffffff;stroke-linecap:round;"/>
     </g>
     <g id="line2d_26">
      <g>
       <use style="fill:#262626;stroke:#262626;" x="542.8256597222222" xlink:href="#m8b8c8f907e" y="418.15156249999995"/>
      </g>
     </g>
     <g id="line2d_27">
      <g>
       <use style="fill:#262626;stroke:#262626;" x="542.8256597222222" xlink:href="#m8b8c8f907e" y="17.620937499999968"/>
      </g>
     </g>
     <g id="text_9">
      <!-- 5000 -->
      <g style="fill:#262626;" transform="translate(531.7037847222222 432.3984375)scale(0.1 -0.1)">
       <use xlink:href="#LiberationSans-35"/>
       <use x="55.615234375" xlink:href="#LiberationSans-30"/>
       <use x="111.23046875" xlink:href="#LiberationSans-30"/>
       <use x="166.845703125" xlink:href="#LiberationSans-30"/>
      </g>
     </g>
    </g>
    <g id="xtick_10">
     <g id="line2d_28">
      <path clip-path="url(#p013a2b93bb)" d="M 604.886875 418.151562 
L 604.886875 17.620937 
" style="fill:none;stroke:#ffffff;stroke-linecap:round;"/>
     </g>
     <g id="line2d_29">
      <g>
       <use style="fill:#262626;stroke:#262626;" x="604.8868749999999" xlink:href="#m8b8c8f907e" y="418.15156249999995"/>
      </g>
     </g>
     <g id="line2d_30">
      <g>
       <use style="fill:#262626;stroke:#262626;" x="604.8868749999999" xlink:href="#m8b8c8f907e" y="17.620937499999968"/>
      </g>
     </g>
     <g id="text_10">
      <!-- 5500 -->
      <g style="fill:#262626;" transform="translate(593.7649999999999 432.3984375)scale(0.1 -0.1)">
       <use xlink:href="#LiberationSans-35"/>
       <use x="55.615234375" xlink:href="#LiberationSans-35"/>
       <use x="111.23046875" xlink:href="#LiberationSans-30"/>
       <use x="166.845703125" xlink:href="#LiberationSans-30"/>
      </g>
     </g>
    </g>
    <g id="text_11">
     <!-- weight -->
     <defs>
      <path d="M 15.484375 43.796875 
Q 16.9375 46.484375 18.640625 48.359375 
Q 20.359375 50.25 22.40625 51.46875 
Q 24.46875 52.6875 26.90625 53.25 
Q 29.34375 53.8125 32.375 53.8125 
Q 37.453125 53.8125 40.703125 52.4375 
Q 43.953125 51.078125 45.828125 48.609375 
Q 47.703125 46.140625 48.40625 42.71875 
Q 49.125 39.3125 49.125 35.203125 
L 49.125 0 
L 40.28125 0 
L 40.28125 33.5 
Q 40.28125 36.859375 39.859375 39.390625 
Q 39.453125 41.9375 38.28125 43.625 
Q 37.109375 45.3125 34.953125 46.15625 
Q 32.8125 47.015625 29.390625 47.015625 
Q 26.265625 47.015625 23.75 45.890625 
Q 21.234375 44.78125 19.453125 42.71875 
Q 17.671875 40.671875 16.6875 37.734375 
Q 15.71875 34.8125 15.71875 31.15625 
L 15.71875 0 
L 6.9375 0 
L 6.9375 72.46875 
L 15.71875 72.46875 
L 15.71875 53.609375 
Q 15.71875 52 15.671875 50.390625 
Q 15.625 48.78125 15.546875 47.40625 
Q 15.484375 46.046875 15.421875 45.09375 
Q 15.375 44.140625 15.328125 43.796875 
z
" id="LiberationSans-68"/>
      <path d="M 27.046875 0.390625 
Q 25.046875 -0.140625 22.96875 -0.453125 
Q 20.90625 -0.78125 18.171875 -0.78125 
Q 7.625 -0.78125 7.625 11.1875 
L 7.625 46.4375 
L 1.515625 46.4375 
L 1.515625 52.828125 
L 7.953125 52.828125 
L 10.546875 64.65625 
L 16.40625 64.65625 
L 16.40625 52.828125 
L 26.171875 52.828125 
L 26.171875 46.4375 
L 16.40625 46.4375 
L 16.40625 13.09375 
Q 16.40625 9.28125 17.640625 7.734375 
Q 18.890625 6.203125 21.96875 6.203125 
Q 23.25 6.203125 24.4375 6.390625 
Q 25.640625 6.59375 27.046875 6.890625 
z
" id="LiberationSans-74"/>
      <path d="M 26.765625 -20.75 
Q 22.21875 -20.75 18.703125 -19.8125 
Q 15.1875 -18.890625 12.6875 -17.15625 
Q 10.203125 -15.4375 8.640625 -13.03125 
Q 7.078125 -10.640625 6.390625 -7.71875 
L 15.234375 -6.453125 
Q 16.109375 -10.109375 19.109375 -12.078125 
Q 22.125 -14.0625 27 -14.0625 
Q 29.984375 -14.0625 32.421875 -13.234375 
Q 34.859375 -12.40625 36.5625 -10.5625 
Q 38.28125 -8.734375 39.203125 -5.796875 
Q 40.140625 -2.875 40.140625 1.3125 
L 40.140625 9.8125 
L 40.046875 9.8125 
Q 39.0625 7.8125 37.625 5.984375 
Q 36.1875 4.15625 34.109375 2.734375 
Q 32.03125 1.3125 29.296875 0.453125 
Q 26.5625 -0.390625 23.046875 -0.390625 
Q 18.015625 -0.390625 14.421875 1.296875 
Q 10.84375 2.984375 8.5625 6.34375 
Q 6.296875 9.71875 5.25 14.71875 
Q 4.203125 19.734375 4.203125 26.3125 
Q 4.203125 32.671875 5.25 37.75 
Q 6.296875 42.828125 8.65625 46.359375 
Q 11.03125 49.90625 14.8125 51.78125 
Q 18.609375 53.65625 24.03125 53.65625 
Q 29.640625 53.65625 33.765625 51.09375 
Q 37.890625 48.53125 40.140625 43.796875 
L 40.234375 43.796875 
Q 40.234375 45.015625 40.296875 46.53125 
Q 40.375 48.046875 40.453125 49.390625 
Q 40.53125 50.734375 40.625 51.703125 
Q 40.71875 52.6875 40.828125 52.828125 
L 49.171875 52.828125 
Q 49.125 52.390625 49.078125 51.34375 
Q 49.03125 50.296875 48.96875 48.828125 
Q 48.921875 47.359375 48.890625 45.578125 
Q 48.875 43.796875 48.875 41.890625 
L 48.875 1.515625 
Q 48.875 -9.578125 43.421875 -15.15625 
Q 37.984375 -20.75 26.765625 -20.75 
M 40.140625 26.421875 
Q 40.140625 31.9375 38.9375 35.859375 
Q 37.75 39.796875 35.796875 42.28125 
Q 33.84375 44.78125 31.328125 45.953125 
Q 28.8125 47.125 26.171875 47.125 
Q 22.796875 47.125 20.375 45.953125 
Q 17.96875 44.78125 16.375 42.265625 
Q 14.796875 39.75 14.03125 35.8125 
Q 13.28125 31.890625 13.28125 26.421875 
Q 13.28125 20.703125 14.03125 16.8125 
Q 14.796875 12.9375 16.359375 10.546875 
Q 17.921875 8.15625 20.3125 7.125 
Q 22.703125 6.109375 26.03125 6.109375 
Q 28.65625 6.109375 31.171875 7.21875 
Q 33.6875 8.34375 35.6875 10.78125 
Q 37.703125 13.234375 38.921875 17.09375 
Q 40.140625 20.953125 40.140625 26.421875 
" id="LiberationSans-67"/>
      <path d="M 13.484375 24.5625 
Q 13.484375 20.40625 14.328125 16.90625 
Q 15.1875 13.421875 16.96875 10.90625 
Q 18.75 8.40625 21.53125 7 
Q 24.3125 5.609375 28.21875 5.609375 
Q 33.9375 5.609375 37.375 7.90625 
Q 40.828125 10.203125 42.046875 13.71875 
L 49.75 11.53125 
Q 48.921875 9.328125 47.4375 7.109375 
Q 45.953125 4.890625 43.453125 3.09375 
Q 40.96875 1.3125 37.234375 0.15625 
Q 33.5 -0.984375 28.21875 -0.984375 
Q 16.5 -0.984375 10.375 6 
Q 4.25 12.984375 4.25 26.765625 
Q 4.25 34.1875 6.09375 39.328125 
Q 7.953125 44.484375 11.171875 47.703125 
Q 14.40625 50.921875 18.703125 52.359375 
Q 23 53.8125 27.875 53.8125 
Q 34.515625 53.8125 38.984375 51.65625 
Q 43.453125 49.515625 46.15625 45.71875 
Q 48.875 41.9375 50.015625 36.8125 
Q 51.171875 31.6875 51.171875 25.734375 
L 51.171875 24.5625 
z
M 42.09375 31.296875 
Q 41.359375 39.65625 37.84375 43.484375 
Q 34.328125 47.3125 27.734375 47.3125 
Q 25.53125 47.3125 23.109375 46.609375 
Q 20.703125 45.90625 18.65625 44.09375 
Q 16.609375 42.28125 15.1875 39.171875 
Q 13.765625 36.078125 13.578125 31.296875 
z
" id="LiberationSans-65"/>
      <path d="M 57.328125 0 
L 47.125 0 
L 38.671875 34.078125 
Q 38.28125 35.40625 37.859375 37.359375 
Q 37.453125 39.3125 37.0625 41.15625 
Q 36.578125 43.3125 36.140625 45.609375 
Q 35.6875 43.40625 35.203125 41.265625 
Q 34.8125 39.40625 34.34375 37.40625 
Q 33.890625 35.40625 33.5 33.890625 
L 24.8125 0 
L 14.65625 0 
L -0.140625 52.828125 
L 8.546875 52.828125 
L 17.484375 16.9375 
Q 17.828125 15.828125 18.15625 14.1875 
Q 18.5 12.546875 18.84375 10.984375 
Q 19.1875 9.1875 19.578125 7.28125 
Q 19.96875 9.125 20.40625 10.890625 
Q 20.796875 12.40625 21.1875 13.96875 
Q 21.578125 15.53125 21.875 16.546875 
L 31.453125 52.828125 
L 40.875 52.828125 
L 50.09375 16.546875 
Q 50.4375 15.28125 50.828125 13.671875 
Q 51.21875 12.0625 51.5625 10.640625 
Q 51.953125 8.984375 52.34375 7.28125 
Q 52.734375 9.125 53.125 10.890625 
Q 53.46875 12.40625 53.828125 14.03125 
Q 54.203125 15.671875 54.546875 16.9375 
L 63.875 52.828125 
L 72.46875 52.828125 
z
" id="LiberationSans-77"/>
      <path d="M 6.6875 64.0625 
L 6.6875 72.46875 
L 15.484375 72.46875 
L 15.484375 64.0625 
z
M 6.6875 0 
L 6.6875 52.828125 
L 15.484375 52.828125 
L 15.484375 0 
z
" id="LiberationSans-69"/>
     </defs>
     <g style="fill:#262626;" transform="translate(309.71382812499996 447.445)scale(0.11 -0.11)">
      <use xlink:href="#LiberationSans-77"/>
      <use x="72.216796875" xlink:href="#LiberationSans-65"/>
      <use x="127.83203125" xlink:href="#LiberationSans-69"/>
      <use x="150.048828125" xlink:href="#LiberationSans-67"/>
      <use x="205.6640625" xlink:href="#LiberationSans-68"/>
      <use x="261.279296875" xlink:href="#LiberationSans-74"/>
     </g>
    </g>
   </g>
   <g id="matplotlib.axis_2">
    <g id="ytick_1">
     <g id="line2d_31">
      <path clip-path="url(#p013a2b93bb)" d="M 46.335938 418.151562 
L 604.886875 418.151562 
" style="fill:none;stroke:#ffffff;stroke-linecap:round;"/>
     </g>
     <g id="line2d_32">
      <g>
       <use style="fill:#262626;stroke:#262626;" x="46.3359375" xlink:href="#m8b8c8f907e" y="418.15156249999995"/>
      </g>
     </g>
     <g id="line2d_33">
      <g>
       <use style="fill:#262626;stroke:#262626;" x="604.8868749999999" xlink:href="#m8b8c8f907e" y="418.15156249999995"/>
      </g>
     </g>
     <g id="text_12">
      <!-- 0 -->
      <g style="fill:#262626;" transform="translate(33.775 420.73749999999995)scale(0.1 -0.1)">
       <use xlink:href="#LiberationSans-30"/>
      </g>
     </g>
    </g>
    <g id="ytick_2">
     <g id="line2d_34">
      <path clip-path="url(#p013a2b93bb)" d="M 46.335938 338.045437 
L 604.886875 338.045437 
" style="fill:none;stroke:#ffffff;stroke-linecap:round;"/>
     </g>
     <g id="line2d_35">
      <g>
       <use style="fill:#262626;stroke:#262626;" x="46.3359375" xlink:href="#m8b8c8f907e" y="338.04543749999993"/>
      </g>
     </g>
     <g id="line2d_36">
      <g>
       <use style="fill:#262626;stroke:#262626;" x="604.8868749999999" xlink:href="#m8b8c8f907e" y="338.04543749999993"/>
      </g>
     </g>
     <g id="text_13">
      <!-- 10 -->
      <g style="fill:#262626;" transform="translate(28.214062499999997 340.631375)scale(0.1 -0.1)">
       <use xlink:href="#LiberationSans-31"/>
       <use x="55.615234375" xlink:href="#LiberationSans-30"/>
      </g>
     </g>
    </g>
    <g id="ytick_3">
     <g id="line2d_37">
      <path clip-path="url(#p013a2b93bb)" d="M 46.335938 257.939312 
L 604.886875 257.939312 
" style="fill:none;stroke:#ffffff;stroke-linecap:round;"/>
     </g>
     <g id="line2d_38">
      <g>
       <use style="fill:#262626;stroke:#262626;" x="46.3359375" xlink:href="#m8b8c8f907e" y="257.9393124999999"/>
      </g>
     </g>
     <g id="line2d_39">
      <g>
       <use style="fill:#262626;stroke:#262626;" x="604.8868749999999" xlink:href="#m8b8c8f907e" y="257.9393124999999"/>
      </g>
     </g>
     <g id="text_14">
      <!-- 20 -->
      <g style="fill:#262626;" transform="translate(28.214062499999997 260.52524999999997)scale(0.1 -0.1)">
       <use xlink:href="#LiberationSans-32"/>
       <use x="55.615234375" xlink:href="#LiberationSans-30"/>
      </g>
     </g>
    </g>
    <g id="ytick_4">
     <g id="line2d_40">
      <path clip-path="url(#p013a2b93bb)" d="M 46.335938 177.833187 
L 604.886875 177.833187 
" style="fill:none;stroke:#ffffff;stroke-linecap:round;"/>
     </g>
     <g id="line2d_41">
      <g>
       <use style="fill:#262626;stroke:#262626;" x="46.3359375" xlink:href="#m8b8c8f907e" y="177.83318749999995"/>
      </g>
     </g>
     <g id="line2d_42">
      <g>
       <use style="fill:#262626;stroke:#262626;" x="604.8868749999999" xlink:href="#m8b8c8f907e" y="177.83318749999995"/>
      </g>
     </g>
     <g id="text_15">
      <!-- 30 -->
      <g style="fill:#262626;" transform="translate(28.214062499999997 180.419125)scale(0.1 -0.1)">
       <use xlink:href="#LiberationSans-33"/>
       <use x="55.615234375" xlink:href="#LiberationSans-30"/>
      </g>
     </g>
    </g>
    <g id="ytick_5">
     <g id="line2d_43">
      <path clip-path="url(#p013a2b93bb)" d="M 46.335938 97.727062 
L 604.886875 97.727062 
" style="fill:none;stroke:#ffffff;stroke-linecap:round;"/>
     </g>
     <g id="line2d_44">
      <g>
       <use style="fill:#262626;stroke:#262626;" x="46.3359375" xlink:href="#m8b8c8f907e" y="97.72706249999993"/>
      </g>
     </g>
     <g id="line2d_45">
      <g>
       <use style="fill:#262626;stroke:#262626;" x="604.8868749999999" xlink:href="#m8b8c8f907e" y="97.72706249999993"/>
      </g>
     </g>
     <g id="text_16">
      <!-- 40 -->
      <g style="fill:#262626;" transform="translate(28.214062499999997 100.31299999999999)scale(0.1 -0.1)">
       <use xlink:href="#LiberationSans-34"/>
       <use x="55.615234375" xlink:href="#LiberationSans-30"/>
      </g>
     </g>
    </g>
    <g id="ytick_6">
     <g id="line2d_46">
      <path clip-path="url(#p013a2b93bb)" d="M 46.335938 17.620937 
L 604.886875 17.620937 
" style="fill:none;stroke:#ffffff;stroke-linecap:round;"/>
     </g>
     <g id="line2d_47">
      <g>
       <use style="fill:#262626;stroke:#262626;" x="46.3359375" xlink:href="#m8b8c8f907e" y="17.62093749999991"/>
      </g>
     </g>
     <g id="line2d_48">
      <g>
       <use style="fill:#262626;stroke:#262626;" x="604.8868749999999" xlink:href="#m8b8c8f907e" y="17.62093749999991"/>
      </g>
     </g>
     <g id="text_17">
      <!-- 50 -->
      <g style="fill:#262626;" transform="translate(28.214062499999997 20.206874999999968)scale(0.1 -0.1)">
       <use xlink:href="#LiberationSans-35"/>
       <use x="55.615234375" xlink:href="#LiberationSans-30"/>
      </g>
     </g>
    </g>
    <g id="text_18">
     <!-- mpg -->
     <defs>
      <path d="M 51.421875 26.65625 
Q 51.421875 20.65625 50.4375 15.578125 
Q 49.46875 10.5 47.1875 6.828125 
Q 44.921875 3.171875 41.1875 1.09375 
Q 37.453125 -0.984375 31.984375 -0.984375 
Q 26.3125 -0.984375 22.0625 1.171875 
Q 17.828125 3.328125 15.578125 8.203125 
L 15.328125 8.203125 
Q 15.375 8.109375 15.40625 7.328125 
Q 15.4375 6.546875 15.453125 5.375 
Q 15.484375 4.203125 15.5 2.75 
Q 15.53125 1.3125 15.53125 -0.09375 
L 15.53125 -20.75 
L 6.734375 -20.75 
L 6.734375 42.046875 
Q 6.734375 43.953125 6.703125 45.703125 
Q 6.6875 47.46875 6.640625 48.90625 
Q 6.59375 50.34375 6.546875 51.359375 
Q 6.5 52.390625 6.453125 52.828125 
L 14.9375 52.828125 
Q 14.984375 52.6875 15.0625 51.796875 
Q 15.140625 50.921875 15.203125 49.671875 
Q 15.28125 48.4375 15.359375 47.015625 
Q 15.4375 45.609375 15.4375 44.34375 
L 15.625 44.34375 
Q 16.84375 46.875 18.40625 48.65625 
Q 19.96875 50.4375 21.96875 51.578125 
Q 23.96875 52.734375 26.4375 53.25 
Q 28.90625 53.765625 31.984375 53.765625 
Q 37.453125 53.765625 41.1875 51.8125 
Q 44.921875 49.859375 47.1875 46.3125 
Q 49.46875 42.78125 50.4375 37.765625 
Q 51.421875 32.765625 51.421875 26.65625 
M 42.1875 26.46875 
Q 42.1875 31.34375 41.59375 35.15625 
Q 41.015625 38.96875 39.578125 41.59375 
Q 38.140625 44.234375 35.734375 45.59375 
Q 33.34375 46.96875 29.734375 46.96875 
Q 26.8125 46.96875 24.21875 46.140625 
Q 21.625 45.3125 19.703125 42.96875 
Q 17.78125 40.625 16.65625 36.5 
Q 15.53125 32.375 15.53125 25.78125 
Q 15.53125 20.171875 16.453125 16.28125 
Q 17.390625 12.40625 19.171875 10.015625 
Q 20.953125 7.625 23.578125 6.5625 
Q 26.21875 5.515625 29.640625 5.515625 
Q 33.296875 5.515625 35.71875 6.921875 
Q 38.140625 8.34375 39.578125 11.03125 
Q 41.015625 13.71875 41.59375 17.59375 
Q 42.1875 21.484375 42.1875 26.46875 
" id="LiberationSans-70"/>
      <path d="M 37.5 0 
L 37.5 33.5 
Q 37.5 37.359375 37.015625 39.9375 
Q 36.53125 42.53125 35.375 44.109375 
Q 34.234375 45.703125 32.375 46.359375 
Q 30.515625 47.015625 27.828125 47.015625 
Q 25.046875 47.015625 22.796875 45.921875 
Q 20.5625 44.828125 18.96875 42.75 
Q 17.390625 40.671875 16.53125 37.625 
Q 15.671875 34.578125 15.671875 30.609375 
L 15.671875 0 
L 6.9375 0 
L 6.9375 41.546875 
Q 6.9375 43.21875 6.90625 45.046875 
Q 6.890625 46.875 6.828125 48.5 
Q 6.78125 50.140625 6.734375 51.3125 
Q 6.6875 52.484375 6.640625 52.828125 
L 14.9375 52.828125 
Q 14.984375 52.59375 15.03125 51.515625 
Q 15.09375 50.4375 15.15625 49.046875 
Q 15.234375 47.65625 15.28125 46.21875 
Q 15.328125 44.78125 15.328125 43.796875 
L 15.484375 43.796875 
Q 16.65625 46.09375 18.015625 47.953125 
Q 19.390625 49.8125 21.21875 51.09375 
Q 23.046875 52.390625 25.40625 53.09375 
Q 27.78125 53.8125 30.90625 53.8125 
Q 36.921875 53.8125 40.40625 51.421875 
Q 43.890625 49.03125 45.265625 43.796875 
L 45.40625 43.796875 
Q 46.578125 46.09375 48.046875 47.953125 
Q 49.515625 49.8125 51.46875 51.09375 
Q 53.421875 52.390625 55.859375 53.09375 
Q 58.296875 53.8125 61.421875 53.8125 
Q 65.4375 53.8125 68.328125 52.734375 
Q 71.234375 51.65625 73.09375 49.40625 
Q 74.953125 47.171875 75.828125 43.625 
Q 76.703125 40.09375 76.703125 35.203125 
L 76.703125 0 
L 68.015625 0 
L 68.015625 33.5 
Q 68.015625 37.359375 67.53125 39.9375 
Q 67.046875 42.53125 65.890625 44.109375 
Q 64.75 45.703125 62.890625 46.359375 
Q 61.03125 47.015625 58.34375 47.015625 
Q 55.5625 47.015625 53.3125 45.96875 
Q 51.078125 44.921875 49.484375 42.875 
Q 47.90625 40.828125 47.046875 37.75 
Q 46.1875 34.671875 46.1875 30.609375 
L 46.1875 0 
z
" id="LiberationSans-6d"/>
     </defs>
     <g style="fill:#262626;" transform="translate(20.9315625 228.58460937499999)rotate(-90.0)scale(0.11 -0.11)">
      <use xlink:href="#LiberationSans-6d"/>
      <use x="83.30078125" xlink:href="#LiberationSans-70"/>
      <use x="138.916015625" xlink:href="#LiberationSans-67"/>
     </g>
    </g>
   </g>
   <g id="PathCollection_1">
    <defs>
     <path d="M 0 2.236068 
C 0.593012 2.236068 1.161816 2.000462 1.581139 1.581139 
C 2.000462 1.161816 2.236068 0.593012 2.236068 0 
C 2.236068 -0.593012 2.000462 -1.161816 1.581139 -1.581139 
C 1.161816 -2.000462 0.593012 -2.236068 0 -2.236068 
C -0.593012 -2.236068 -1.161816 -2.000462 -1.581139 -1.581139 
C -2.000462 -1.161816 -2.236068 -0.593012 -2.236068 0 
C -2.236068 0.593012 -2.000462 1.161816 -1.581139 1.581139 
C -1.161816 2.000462 -0.593012 2.236068 0 2.236068 
z
" id="m539ecfd5fa"/>
    </defs>
    <g clip-path="url(#p013a2b93bb)">
     <use style="fill:#0000ff;fill-opacity:0.8;" x="311.83381645833333" xlink:href="#m539ecfd5fa" y="273.96053749999993"/>
     <use style="fill:#0000ff;fill-opacity:0.8;" x="509.5608483333333" xlink:href="#m539ecfd5fa" y="346.0560499999999"/>
     <use style="fill:#0000ff;fill-opacity:0.8;" x="145.63388194444445" xlink:href="#m539ecfd5fa" y="128.96845124999993"/>
     <use style="fill:#0000ff;fill-opacity:0.8;" x="359.74507465277776" xlink:href="#m539ecfd5fa" y="269.95523124999994"/>
     <use style="fill:#0000ff;fill-opacity:0.8;" x="193.793385" xlink:href="#m539ecfd5fa" y="143.38755374999994"/>
     <use style="fill:#0000ff;fill-opacity:0.8;" x="246.7936628472222" xlink:href="#m539ecfd5fa" y="154.60241124999993"/>
     <use style="fill:#0000ff;fill-opacity:0.8;" x="203.3508121527778" xlink:href="#m539ecfd5fa" y="160.20983999999993"/>
     <use style="fill:#0000ff;fill-opacity:0.8;" x="233.8849300694444" xlink:href="#m539ecfd5fa" y="241.91808749999996"/>
     <use style="fill:#0000ff;fill-opacity:0.8;" x="455.3193461805555" xlink:href="#m539ecfd5fa" y="297.9923749999999"/>
     <use style="fill:#0000ff;fill-opacity:0.8;" x="350.3117699305555" xlink:href="#m539ecfd5fa" y="281.97114999999997"/>
     <use style="fill:#0000ff;fill-opacity:0.8;" x="186.59428402777775" xlink:href="#m539ecfd5fa" y="65.68461249999996"/>
     <use style="fill:#0000ff;fill-opacity:0.8;" x="262.30896666666666" xlink:href="#m539ecfd5fa" y="221.89155624999995"/>
     <use style="fill:#0000ff;fill-opacity:0.8;" x="207.07448506944445" xlink:href="#m539ecfd5fa" y="161.81196249999994"/>
     <use style="fill:#0000ff;fill-opacity:0.8;" x="500.25166604166657" xlink:href="#m539ecfd5fa" y="306.00298749999996"/>
     <use style="fill:#0000ff;fill-opacity:0.8;" x="389.03796826388884" xlink:href="#m539ecfd5fa" y="297.9923749999999"/>
     <use style="fill:#0000ff;fill-opacity:0.8;" x="430.8672273611111" xlink:href="#m539ecfd5fa" y="314.01359999999994"/>
     <use style="fill:#0000ff;fill-opacity:0.8;" x="148.73694270833334" xlink:href="#m539ecfd5fa" y="129.7695124999999"/>
     <use style="fill:#0000ff;fill-opacity:0.8;" x="259.82651805555554" xlink:href="#m539ecfd5fa" y="169.82257499999994"/>
     <use style="fill:#0000ff;fill-opacity:0.8;" x="150.1022894444444" xlink:href="#m539ecfd5fa" y="161.81196249999994"/>
     <use style="fill:#0000ff;fill-opacity:0.8;" x="259.82651805555554" xlink:href="#m539ecfd5fa" y="245.92339374999995"/>
     <use style="fill:#0000ff;fill-opacity:0.8;" x="327.34912027777773" xlink:href="#m539ecfd5fa" y="265.94992499999995"/>
     <use style="fill:#0000ff;fill-opacity:0.8;" x="407.15984312499995" xlink:href="#m539ecfd5fa" y="281.97114999999997"/>
     <use style="fill:#0000ff;fill-opacity:0.8;" x="436.2044918749999" xlink:href="#m539ecfd5fa" y="289.98176249999995"/>
     <use style="fill:#0000ff;fill-opacity:0.8;" x="364.46172701388883" xlink:href="#m539ecfd5fa" y="297.9923749999999"/>
     <use style="fill:#0000ff;fill-opacity:0.8;" x="243.93884694444444" xlink:href="#m539ecfd5fa" y="233.90747499999995"/>
     <use style="fill:#0000ff;fill-opacity:0.8;" x="203.3508121527778" xlink:href="#m539ecfd5fa" y="209.87563749999993"/>
     <use style="fill:#0000ff;fill-opacity:0.8;" x="252.999784375" xlink:href="#m539ecfd5fa" y="161.81196249999994"/>
     <use style="fill:#0000ff;fill-opacity:0.8;" x="216.63191222222218" xlink:href="#m539ecfd5fa" y="225.89686249999994"/>
     <use style="fill:#0000ff;fill-opacity:0.8;" x="299.42157340277777" xlink:href="#m539ecfd5fa" y="249.92869999999994"/>
     <use style="fill:#0000ff;fill-opacity:0.8;" x="237.73272541666665" xlink:href="#m539ecfd5fa" y="167.41939124999993"/>
     <use style="fill:#0000ff;fill-opacity:0.8;" x="283.4097798611111" xlink:href="#m539ecfd5fa" y="156.20453374999994"/>
     <use style="fill:#0000ff;fill-opacity:0.8;" x="405.29800666666665" xlink:href="#m539ecfd5fa" y="297.9923749999999"/>
     <use style="fill:#0000ff;fill-opacity:0.8;" x="249.7726011805555" xlink:href="#m539ecfd5fa" y="233.90747499999995"/>
     <use style="fill:#0000ff;fill-opacity:0.8;" x="352.2977288194444" xlink:href="#m539ecfd5fa" y="277.16478249999994"/>
     <use style="fill:#0000ff;fill-opacity:0.8;" x="228.05117583333333" xlink:href="#m539ecfd5fa" y="193.85441249999994"/>
     <use style="fill:#0000ff;fill-opacity:0.8;" x="190.06971208333334" xlink:href="#m539ecfd5fa" y="225.89686249999994"/>
     <use style="fill:#0000ff;fill-opacity:0.8;" x="497.89333986111103" xlink:href="#m539ecfd5fa" y="306.00298749999996"/>
     <use style="fill:#0000ff;fill-opacity:0.8;" x="320.025896875" xlink:href="#m539ecfd5fa" y="273.1594762499999"/>
     <use style="fill:#0000ff;fill-opacity:0.8;" x="185.97367187499998" xlink:href="#m539ecfd5fa" y="129.7695124999999"/>
     <use style="fill:#0000ff;fill-opacity:0.8;" x="174.802653125" xlink:href="#m539ecfd5fa" y="185.84379999999993"/>
     <use style="fill:#0000ff;fill-opacity:0.8;" x="140.6689847222222" xlink:href="#m539ecfd5fa" y="136.9790637499999"/>
     <use style="fill:#0000ff;fill-opacity:0.8;" x="216.38366736111112" xlink:href="#m539ecfd5fa" y="129.7695124999999"/>
     <use style="fill:#0000ff;fill-opacity:0.8;" x="413.1177197916666" xlink:href="#m539ecfd5fa" y="285.97645624999996"/>
     <use style="fill:#0000ff;fill-opacity:0.8;" x="446.0101638888889" xlink:href="#m539ecfd5fa" y="289.98176249999995"/>
     <use style="fill:#0000ff;fill-opacity:0.8;" x="217.62489166666666" xlink:href="#m539ecfd5fa" y="178.63424874999995"/>
     <use style="fill:#0000ff;fill-opacity:0.8;" x="164.25224652777774" xlink:href="#m539ecfd5fa" y="169.82257499999994"/>
     <use style="fill:#0000ff;fill-opacity:0.8;" x="207.69509722222222" xlink:href="#m539ecfd5fa" y="200.26290249999994"/>
     <use style="fill:#0000ff;fill-opacity:0.8;" x="475.42717993055555" xlink:href="#m539ecfd5fa" y="306.00298749999996"/>
     <use style="fill:#0000ff;fill-opacity:0.8;" x="185.3530597222222" xlink:href="#m539ecfd5fa" y="161.0109012499999"/>
     <use style="fill:#0000ff;fill-opacity:0.8;" x="336.28593527777775" xlink:href="#m539ecfd5fa" y="297.9923749999999"/>
     <use style="fill:#0000ff;fill-opacity:0.8;" x="537.2401503472222" xlink:href="#m539ecfd5fa" y="322.0242125"/>
     <use style="fill:#0000ff;fill-opacity:0.8;" x="384.56956076388883" xlink:href="#m539ecfd5fa" y="277.16478249999994"/>
     <use style="fill:#0000ff;fill-opacity:0.8;" x="198.7582822222222" xlink:href="#m539ecfd5fa" y="217.88624999999993"/>
     <use style="fill:#0000ff;fill-opacity:0.8;" x="253.62039652777776" xlink:href="#m539ecfd5fa" y="190.65016749999995"/>
     <use style="fill:#0000ff;fill-opacity:0.8;" x="197.6411803472222" xlink:href="#m539ecfd5fa" y="185.84379999999993"/>
     <use style="fill:#0000ff;fill-opacity:0.8;" x="199.0065270833333" xlink:href="#m539ecfd5fa" y="170.62363624999995"/>
     <use style="fill:#0000ff;fill-opacity:0.8;" x="283.9062695833333" xlink:href="#m539ecfd5fa" y="257.9393124999999"/>
     <use style="fill:#0000ff;fill-opacity:0.8;" x="303.26936874999996" xlink:href="#m539ecfd5fa" y="251.53082249999994"/>
     <use style="fill:#0000ff;fill-opacity:0.8;" x="274.1005975694444" xlink:href="#m539ecfd5fa" y="241.91808749999996"/>
     <use style="fill:#0000ff;fill-opacity:0.8;" x="166.1140829861111" xlink:href="#m539ecfd5fa" y="113.74828749999995"/>
     <use style="fill:#0000ff;fill-opacity:0.8;" x="142.28257631944444" xlink:href="#m539ecfd5fa" y="169.82257499999994"/>
     <use style="fill:#0000ff;fill-opacity:0.8;" x="332.06577263888886" xlink:href="#m539ecfd5fa" y="265.94992499999995"/>
     <use style="fill:#0000ff;fill-opacity:0.8;" x="391.52041687499997" xlink:href="#m539ecfd5fa" y="289.98176249999995"/>
     <use style="fill:#0000ff;fill-opacity:0.8;" x="237.73272541666665" xlink:href="#m539ecfd5fa" y="217.88624999999993"/>
     <use style="fill:#0000ff;fill-opacity:0.8;" x="323.50132493055554" xlink:href="#m539ecfd5fa" y="241.91808749999996"/>
     <use style="fill:#0000ff;fill-opacity:0.8;" x="164.8728586805555" xlink:href="#m539ecfd5fa" y="209.87563749999993"/>
     <use style="fill:#0000ff;fill-opacity:0.8;" x="425.5299628472222" xlink:href="#m539ecfd5fa" y="314.01359999999994"/>
     <use style="fill:#0000ff;fill-opacity:0.8;" x="339.8854857638889" xlink:href="#m539ecfd5fa" y="258.74037374999995"/>
     <use style="fill:#0000ff;fill-opacity:0.8;" x="466.1179976388888" xlink:href="#m539ecfd5fa" y="330.03482499999996"/>
     <use style="fill:#0000ff;fill-opacity:0.8;" x="190.81444666666664" xlink:href="#m539ecfd5fa" y="193.85441249999994"/>
     <use style="fill:#0000ff;fill-opacity:0.8;" x="436.0803694444444" xlink:href="#m539ecfd5fa" y="293.98706874999993"/>
     <use style="fill:#0000ff;fill-opacity:0.8;" x="193.91750743055553" xlink:href="#m539ecfd5fa" y="209.87563749999993"/>
     <use style="fill:#0000ff;fill-opacity:0.8;" x="448.12024520833324" xlink:href="#m539ecfd5fa" y="306.00298749999996"/>
     <use style="fill:#0000ff;fill-opacity:0.8;" x="536.8677830555555" xlink:href="#m539ecfd5fa" y="322.0242125"/>
     <use style="fill:#0000ff;fill-opacity:0.8;" x="285.8922284722222" xlink:href="#m539ecfd5fa" y="224.29473999999993"/>
     <use style="fill:#0000ff;fill-opacity:0.8;" x="241.4563983333333" xlink:href="#m539ecfd5fa" y="217.88624999999993"/>
     <use style="fill:#0000ff;fill-opacity:0.8;" x="305.1312052083333" xlink:href="#m539ecfd5fa" y="237.91278124999994"/>
     <use style="fill:#0000ff;fill-opacity:0.8;" x="257.3440694444444" xlink:href="#m539ecfd5fa" y="203.46714749999992"/>
     <use style="fill:#0000ff;fill-opacity:0.8;" x="282.6650452777778" xlink:href="#m539ecfd5fa" y="233.90747499999995"/>
     <use style="fill:#0000ff;fill-opacity:0.8;" x="200.9924859722222" xlink:href="#m539ecfd5fa" y="209.87563749999993"/>
     <use style="fill:#0000ff;fill-opacity:0.8;" x="314.4403875" xlink:href="#m539ecfd5fa" y="172.22575874999995"/>
     <use style="fill:#0000ff;fill-opacity:0.8;" x="170.45836805555552" xlink:href="#m539ecfd5fa" y="169.82257499999994"/>
     <use style="fill:#0000ff;fill-opacity:0.8;" x="318.16406041666664" xlink:href="#m539ecfd5fa" y="200.26290249999994"/>
     <use style="fill:#0000ff;fill-opacity:0.8;" x="324.9907940972222" xlink:href="#m539ecfd5fa" y="245.92339374999995"/>
     <use style="fill:#0000ff;fill-opacity:0.8;" x="235.62264409722223" xlink:href="#m539ecfd5fa" y="185.84379999999993"/>
     <use style="fill:#0000ff;fill-opacity:0.8;" x="242.6976226388889" xlink:href="#m539ecfd5fa" y="257.9393124999999"/>
     <use style="fill:#0000ff;fill-opacity:0.8;" x="505.464808125" xlink:href="#m539ecfd5fa" y="314.01359999999994"/>
     <use style="fill:#0000ff;fill-opacity:0.8;" x="457.4294275" xlink:href="#m539ecfd5fa" y="306.00298749999996"/>
     <use style="fill:#0000ff;fill-opacity:0.8;" x="169.83775590277776" xlink:href="#m539ecfd5fa" y="113.74828749999995"/>
     <use style="fill:#0000ff;fill-opacity:0.8;" x="560.2027999999999" xlink:href="#m539ecfd5fa" y="314.01359999999994"/>
     <use style="fill:#0000ff;fill-opacity:0.8;" x="190.81444666666664" xlink:href="#m539ecfd5fa" y="221.89155624999995"/>
     <use style="fill:#0000ff;fill-opacity:0.8;" x="431.1154722222222" xlink:href="#m539ecfd5fa" y="314.01359999999994"/>
     <use style="fill:#0000ff;fill-opacity:0.8;" x="287.75406493055556" xlink:href="#m539ecfd5fa" y="217.88624999999993"/>
     <use style="fill:#0000ff;fill-opacity:0.8;" x="204.96440374999997" xlink:href="#m539ecfd5fa" y="225.89686249999994"/>
     <use style="fill:#0000ff;fill-opacity:0.8;" x="168.59653159722222" xlink:href="#m539ecfd5fa" y="144.98967624999995"/>
     <use style="fill:#0000ff;fill-opacity:0.8;" x="476.2960369444444" xlink:href="#m539ecfd5fa" y="314.01359999999994"/>
     <use style="fill:#0000ff;fill-opacity:0.8;" x="151.84000347222218" xlink:href="#m539ecfd5fa" y="60.878244999999936"/>
     <use style="fill:#0000ff;fill-opacity:0.8;" x="313.8197753472222" xlink:href="#m539ecfd5fa" y="253.93400624999995"/>
     <use style="fill:#0000ff;fill-opacity:0.8;" x="289.86414625" xlink:href="#m539ecfd5fa" y="273.96053749999993"/>
     <use style="fill:#0000ff;fill-opacity:0.8;" x="262.92957881944443" xlink:href="#m539ecfd5fa" y="232.30535249999994"/>
     <use style="fill:#0000ff;fill-opacity:0.8;" x="313.1991631944444" xlink:href="#m539ecfd5fa" y="257.9393124999999"/>
     <use style="fill:#0000ff;fill-opacity:0.8;" x="252.37917222222222" xlink:href="#m539ecfd5fa" y="225.89686249999994"/>
     <use style="fill:#0000ff;fill-opacity:0.8;" x="264.17080312499996" xlink:href="#m539ecfd5fa" y="213.88094374999994"/>
     <use style="fill:#0000ff;fill-opacity:0.8;" x="145.63388194444445" xlink:href="#m539ecfd5fa" y="128.96845124999993"/>
     <use style="fill:#0000ff;fill-opacity:0.8;" x="289.2435340972222" xlink:href="#m539ecfd5fa" y="233.90747499999995"/>
     <use style="fill:#0000ff;fill-opacity:0.8;" x="183.86359055555556" xlink:href="#m539ecfd5fa" y="225.89686249999994"/>
     <use style="fill:#0000ff;fill-opacity:0.8;" x="365.82707374999995" xlink:href="#m539ecfd5fa" y="273.96053749999993"/>
     <use style="fill:#0000ff;fill-opacity:0.8;" x="384.56956076388883" xlink:href="#m539ecfd5fa" y="205.06926999999993"/>
     <use style="fill:#0000ff;fill-opacity:0.8;" x="169.21714375" xlink:href="#m539ecfd5fa" y="161.81196249999994"/>
     <use style="fill:#0000ff;fill-opacity:0.8;" x="273.47998541666664" xlink:href="#m539ecfd5fa" y="255.53612874999993"/>
     <use style="fill:#0000ff;fill-opacity:0.8;" x="149.8540445833333" xlink:href="#m539ecfd5fa" y="201.86502499999995"/>
     <use style="fill:#0000ff;fill-opacity:0.8;" x="377.9910719444444" xlink:href="#m539ecfd5fa" y="281.97114999999997"/>
     <use style="fill:#0000ff;fill-opacity:0.8;" x="220.2314627083333" xlink:href="#m539ecfd5fa" y="249.92869999999994"/>
     <use style="fill:#0000ff;fill-opacity:0.8;" x="511.29856236111107" xlink:href="#m539ecfd5fa" y="314.01359999999994"/>
     <use style="fill:#0000ff;fill-opacity:0.8;" x="223.83101319444444" xlink:href="#m539ecfd5fa" y="225.89686249999994"/>
     <use style="fill:#0000ff;fill-opacity:0.8;" x="426.15057499999995" xlink:href="#m539ecfd5fa" y="281.97114999999997"/>
     <use style="fill:#0000ff;fill-opacity:0.8;" x="140.04837256944444" xlink:href="#m539ecfd5fa" y="104.93661374999994"/>
     <use style="fill:#0000ff;fill-opacity:0.8;" x="445.3895517361111" xlink:href="#m539ecfd5fa" y="301.9976812499999"/>
     <use style="fill:#0000ff;fill-opacity:0.8;" x="417.21376" xlink:href="#m539ecfd5fa" y="314.01359999999994"/>
     <use style="fill:#0000ff;fill-opacity:0.8;" x="365.3305840277777" xlink:href="#m539ecfd5fa" y="256.33718999999996"/>
     <use style="fill:#0000ff;fill-opacity:0.8;" x="195.53109902777777" xlink:href="#m539ecfd5fa" y="201.86502499999995"/>
     <use style="fill:#0000ff;fill-opacity:0.8;" x="122.42298743055555" xlink:href="#m539ecfd5fa" y="137.78012499999994"/>
     <use style="fill:#0000ff;fill-opacity:0.8;" x="391.02392715277773" xlink:href="#m539ecfd5fa" y="297.9923749999999"/>
     <use style="fill:#0000ff;fill-opacity:0.8;" x="288.3746770833333" xlink:href="#m539ecfd5fa" y="126.56526749999995"/>
     <use style="fill:#0000ff;fill-opacity:0.8;" x="189.69734479166664" xlink:href="#m539ecfd5fa" y="177.83318749999995"/>
     <use style="fill:#0000ff;fill-opacity:0.8;" x="161.14918576388885" xlink:href="#m539ecfd5fa" y="162.61302374999994"/>
     <use style="fill:#0000ff;fill-opacity:0.8;" x="149.97816701388888" xlink:href="#m539ecfd5fa" y="209.87563749999993"/>
     <use style="fill:#0000ff;fill-opacity:0.8;" x="349.07054562499997" xlink:href="#m539ecfd5fa" y="289.98176249999995"/>
     <use style="fill:#0000ff;fill-opacity:0.8;" x="221.1003197222222" xlink:href="#m539ecfd5fa" y="257.9393124999999"/>
     <use style="fill:#0000ff;fill-opacity:0.8;" x="371.5367055555555" xlink:href="#m539ecfd5fa" y="269.1541699999999"/>
     <use style="fill:#0000ff;fill-opacity:0.8;" x="476.2960369444444" xlink:href="#m539ecfd5fa" y="306.00298749999996"/>
     <use style="fill:#0000ff;fill-opacity:0.8;" x="186.09779430555557" xlink:href="#m539ecfd5fa" y="217.88624999999993"/>
     <use style="fill:#0000ff;fill-opacity:0.8;" x="194.04162986111112" xlink:href="#m539ecfd5fa" y="153.80134999999996"/>
     <use style="fill:#0000ff;fill-opacity:0.8;" x="430.61898249999996" xlink:href="#m539ecfd5fa" y="306.00298749999996"/>
     <use style="fill:#0000ff;fill-opacity:0.8;" x="411.2558833333333" xlink:href="#m539ecfd5fa" y="269.95523124999994"/>
     <use style="fill:#0000ff;fill-opacity:0.8;" x="172.81669423611112" xlink:href="#m539ecfd5fa" y="120.15677749999992"/>
     <use style="fill:#0000ff;fill-opacity:0.8;" x="330.3280586111111" xlink:href="#m539ecfd5fa" y="273.96053749999993"/>
     <use style="fill:#0000ff;fill-opacity:0.8;" x="181.0087746527778" xlink:href="#m539ecfd5fa" y="63.281428749999975"/>
     <use style="fill:#0000ff;fill-opacity:0.8;" x="351.5529942361111" xlink:href="#m539ecfd5fa" y="273.96053749999993"/>
     <use style="fill:#0000ff;fill-opacity:0.8;" x="203.2266897222222" xlink:href="#m539ecfd5fa" y="193.85441249999994"/>
     <use style="fill:#0000ff;fill-opacity:0.8;" x="212.03938229166664" xlink:href="#m539ecfd5fa" y="70.49097999999992"/>
     <use style="fill:#0000ff;fill-opacity:0.8;" x="341.7473222222222" xlink:href="#m539ecfd5fa" y="253.13294499999992"/>
     <use style="fill:#0000ff;fill-opacity:0.8;" x="360.9862989583333" xlink:href="#m539ecfd5fa" y="264.34780249999994"/>
     <use style="fill:#0000ff;fill-opacity:0.8;" x="278.4448826388889" xlink:href="#m539ecfd5fa" y="206.67139249999994"/>
     <use style="fill:#0000ff;fill-opacity:0.8;" x="287.75406493055556" xlink:href="#m539ecfd5fa" y="273.96053749999993"/>
     <use style="fill:#0000ff;fill-opacity:0.8;" x="189.69734479166664" xlink:href="#m539ecfd5fa" y="193.85441249999994"/>
     <use style="fill:#0000ff;fill-opacity:0.8;" x="199.50301680555555" xlink:href="#m539ecfd5fa" y="209.87563749999993"/>
     <use style="fill:#0000ff;fill-opacity:0.8;" x="471.0828948611111" xlink:href="#m539ecfd5fa" y="314.01359999999994"/>
     <use style="fill:#0000ff;fill-opacity:0.8;" x="247.41427499999998" xlink:href="#m539ecfd5fa" y="211.47775999999993"/>
     <use style="fill:#0000ff;fill-opacity:0.8;" x="323.12895763888883" xlink:href="#m539ecfd5fa" y="193.05335124999993"/>
     <use style="fill:#0000ff;fill-opacity:0.8;" x="452.7127751388889" xlink:href="#m539ecfd5fa" y="314.01359999999994"/>
     <use style="fill:#0000ff;fill-opacity:0.8;" x="465.86975277777776" xlink:href="#m539ecfd5fa" y="285.97645624999996"/>
     <use style="fill:#0000ff;fill-opacity:0.8;" x="169.21714375" xlink:href="#m539ecfd5fa" y="165.81726874999993"/>
     <use style="fill:#0000ff;fill-opacity:0.8;" x="231.15423659722222" xlink:href="#m539ecfd5fa" y="225.89686249999994"/>
     <use style="fill:#0000ff;fill-opacity:0.8;" x="314.19214263888887" xlink:href="#m539ecfd5fa" y="297.9923749999999"/>
     <use style="fill:#0000ff;fill-opacity:0.8;" x="370.6678485416666" xlink:href="#m539ecfd5fa" y="273.96053749999993"/>
     <use style="fill:#0000ff;fill-opacity:0.8;" x="239.47043944444442" xlink:href="#m539ecfd5fa" y="149.7960437499999"/>
     <use style="fill:#0000ff;fill-opacity:0.8;" x="213.90121875" xlink:href="#m539ecfd5fa" y="158.60771749999992"/>
     <use style="fill:#0000ff;fill-opacity:0.8;" x="186.59428402777775" xlink:href="#m539ecfd5fa" y="201.86502499999995"/>
     <use style="fill:#0000ff;fill-opacity:0.8;" x="481.01268930555545" xlink:href="#m539ecfd5fa" y="314.01359999999994"/>
     <use style="fill:#0000ff;fill-opacity:0.8;" x="166.73469513888887" xlink:href="#m539ecfd5fa" y="169.82257499999994"/>
     <use style="fill:#0000ff;fill-opacity:0.8;" x="254.61337597222223" xlink:href="#m539ecfd5fa" y="193.85441249999994"/>
     <use style="fill:#0000ff;fill-opacity:0.8;" x="231.27835902777775" xlink:href="#m539ecfd5fa" y="200.26290249999994"/>
     <use style="fill:#0000ff;fill-opacity:0.8;" x="291.9742275694444" xlink:href="#m539ecfd5fa" y="249.92869999999994"/>
     <use style="fill:#0000ff;fill-opacity:0.8;" x="278.19663777777777" xlink:href="#m539ecfd5fa" y="265.94992499999995"/>
     <use style="fill:#0000ff;fill-opacity:0.8;" x="253.86864138888888" xlink:href="#m539ecfd5fa" y="217.88624999999993"/>
     <use style="fill:#0000ff;fill-opacity:0.8;" x="406.29098611111107" xlink:href="#m539ecfd5fa" y="233.90747499999995"/>
     <use style="fill:#0000ff;fill-opacity:0.8;" x="285.8922284722222" xlink:href="#m539ecfd5fa" y="265.94992499999995"/>
     <use style="fill:#0000ff;fill-opacity:0.8;" x="425.40584041666665" xlink:href="#m539ecfd5fa" y="293.98706874999993"/>
     <use style="fill:#0000ff;fill-opacity:0.8;" x="220.72795243055555" xlink:href="#m539ecfd5fa" y="226.69792374999994"/>
     <use style="fill:#0000ff;fill-opacity:0.8;" x="338.3960165972222" xlink:href="#m539ecfd5fa" y="241.91808749999996"/>
     <use style="fill:#0000ff;fill-opacity:0.8;" x="191.68330368055553" xlink:href="#m539ecfd5fa" y="185.84379999999993"/>
     <use style="fill:#0000ff;fill-opacity:0.8;" x="423.91637124999994" xlink:href="#m539ecfd5fa" y="306.00298749999996"/>
     <use style="fill:#0000ff;fill-opacity:0.8;" x="344.1056484027778" xlink:href="#m539ecfd5fa" y="297.9923749999999"/>
     <use style="fill:#0000ff;fill-opacity:0.8;" x="249.8967236111111" xlink:href="#m539ecfd5fa" y="201.86502499999995"/>
     <use style="fill:#0000ff;fill-opacity:0.8;" x="473.3170986111111" xlink:href="#m539ecfd5fa" y="297.9923749999999"/>
     <use style="fill:#0000ff;fill-opacity:0.8;" x="176.7886120138889" xlink:href="#m539ecfd5fa" y="173.82788124999993"/>
     <use style="fill:#0000ff;fill-opacity:0.8;" x="217.0042795138889" xlink:href="#m539ecfd5fa" y="217.88624999999993"/>
     <use style="fill:#0000ff;fill-opacity:0.8;" x="445.3895517361111" xlink:href="#m539ecfd5fa" y="277.96584375"/>
     <use style="fill:#0000ff;fill-opacity:0.8;" x="219.486728125" xlink:href="#m539ecfd5fa" y="145.79073749999992"/>
     <use style="fill:#0000ff;fill-opacity:0.8;" x="296.4426350694444" xlink:href="#m539ecfd5fa" y="113.74828749999995"/>
     <use style="fill:#0000ff;fill-opacity:0.8;" x="179.64342791666667" xlink:href="#m539ecfd5fa" y="177.83318749999995"/>
     <use style="fill:#0000ff;fill-opacity:0.8;" x="293.3395743055555" xlink:href="#m539ecfd5fa" y="259.541435"/>
     <use style="fill:#0000ff;fill-opacity:0.8;" x="253.74451895833334" xlink:href="#m539ecfd5fa" y="217.88624999999993"/>
     <use style="fill:#0000ff;fill-opacity:0.8;" x="198.51003736111113" xlink:href="#m539ecfd5fa" y="249.92869999999994"/>
     <use style="fill:#0000ff;fill-opacity:0.8;" x="202.1095878472222" xlink:href="#m539ecfd5fa" y="209.87563749999993"/>
     <use style="fill:#0000ff;fill-opacity:0.8;" x="396.3611916666666" xlink:href="#m539ecfd5fa" y="285.97645624999996"/>
     <use style="fill:#0000ff;fill-opacity:0.8;" x="345.47099513888884" xlink:href="#m539ecfd5fa" y="273.1594762499999"/>
     <use style="fill:#0000ff;fill-opacity:0.8;" x="184.11183541666668" xlink:href="#m539ecfd5fa" y="44.85701999999992"/>
     <use style="fill:#0000ff;fill-opacity:0.8;" x="244.93182638888885" xlink:href="#m539ecfd5fa" y="245.92339374999995"/>
     <use style="fill:#0000ff;fill-opacity:0.8;" x="462.6425695833333" xlink:href="#m539ecfd5fa" y="306.00298749999996"/>
     <use style="fill:#0000ff;fill-opacity:0.8;" x="269.1357003472222" xlink:href="#m539ecfd5fa" y="245.12233249999994"/>
     <use style="fill:#0000ff;fill-opacity:0.8;" x="439.18343020833333" xlink:href="#m539ecfd5fa" y="293.98706874999993"/>
     <use style="fill:#0000ff;fill-opacity:0.8;" x="347.95344374999996" xlink:href="#m539ecfd5fa" y="253.93400624999995"/>
     <use style="fill:#0000ff;fill-opacity:0.8;" x="346.71221944444443" xlink:href="#m539ecfd5fa" y="226.69792374999994"/>
     <use style="fill:#0000ff;fill-opacity:0.8;" x="536.743660625" xlink:href="#m539ecfd5fa" y="322.0242125"/>
     <use style="fill:#0000ff;fill-opacity:0.8;" x="290.2365135416666" xlink:href="#m539ecfd5fa" y="256.33718999999996"/>
     <use style="fill:#0000ff;fill-opacity:0.8;" x="176.04387743055554" xlink:href="#m539ecfd5fa" y="142.58649249999996"/>
     <use style="fill:#0000ff;fill-opacity:0.8;" x="233.26431791666664" xlink:href="#m539ecfd5fa" y="233.90747499999995"/>
     <use style="fill:#0000ff;fill-opacity:0.8;" x="294.95316590277776" xlink:href="#m539ecfd5fa" y="223.49367874999993"/>
     <use style="fill:#0000ff;fill-opacity:0.8;" x="320.7706314583333" xlink:href="#m539ecfd5fa" y="265.94992499999995"/>
     <use style="fill:#0000ff;fill-opacity:0.8;" x="153.95008479166665" xlink:href="#m539ecfd5fa" y="185.84379999999993"/>
     <use style="fill:#0000ff;fill-opacity:0.8;" x="260.4471302083333" xlink:href="#m539ecfd5fa" y="229.90216874999993"/>
     <use style="fill:#0000ff;fill-opacity:0.8;" x="200.86836354166667" xlink:href="#m539ecfd5fa" y="145.79073749999992"/>
     <use style="fill:#0000ff;fill-opacity:0.8;" x="224.32750291666667" xlink:href="#m539ecfd5fa" y="121.75889999999993"/>
     <use style="fill:#0000ff;fill-opacity:0.8;" x="145.01326979166663" xlink:href="#m539ecfd5fa" y="153.80134999999996"/>
     <use style="fill:#0000ff;fill-opacity:0.8;" x="268.39096576388886" xlink:href="#m539ecfd5fa" y="273.96053749999993"/>
     <use style="fill:#0000ff;fill-opacity:0.8;" x="400.0848645833333" xlink:href="#m539ecfd5fa" y="297.9923749999999"/>
     <use style="fill:#0000ff;fill-opacity:0.8;" x="197.144690625" xlink:href="#m539ecfd5fa" y="140.18330874999992"/>
     <use style="fill:#0000ff;fill-opacity:0.8;" x="320.64650902777777" xlink:href="#m539ecfd5fa" y="262.74568"/>
     <use style="fill:#0000ff;fill-opacity:0.8;" x="166.1140829861111" xlink:href="#m539ecfd5fa" y="161.81196249999994"/>
     <use style="fill:#0000ff;fill-opacity:0.8;" x="167.35530729166663" xlink:href="#m539ecfd5fa" y="144.98967624999995"/>
     <use style="fill:#0000ff;fill-opacity:0.8;" x="196.5240784722222" xlink:href="#m539ecfd5fa" y="148.1939212499999"/>
     <use style="fill:#0000ff;fill-opacity:0.8;" x="375.38450090277775" xlink:href="#m539ecfd5fa" y="257.9393124999999"/>
     <use style="fill:#0000ff;fill-opacity:0.8;" x="385.19017291666665" xlink:href="#m539ecfd5fa" y="297.9923749999999"/>
     <use style="fill:#0000ff;fill-opacity:0.8;" x="166.48645027777775" xlink:href="#m539ecfd5fa" y="112.94722624999991"/>
     <use style="fill:#0000ff;fill-opacity:0.8;" x="218.99023840277778" xlink:href="#m539ecfd5fa" y="209.87563749999993"/>
     <use style="fill:#0000ff;fill-opacity:0.8;" x="182.8706111111111" xlink:href="#m539ecfd5fa" y="201.86502499999995"/>
     <use style="fill:#0000ff;fill-opacity:0.8;" x="480.51619958333333" xlink:href="#m539ecfd5fa" y="289.98176249999995"/>
     <use style="fill:#0000ff;fill-opacity:0.8;" x="335.41707826388887" xlink:href="#m539ecfd5fa" y="281.97114999999997"/>
     <use style="fill:#0000ff;fill-opacity:0.8;" x="411.2558833333333" xlink:href="#m539ecfd5fa" y="314.01359999999994"/>
     <use style="fill:#0000ff;fill-opacity:0.8;" x="245.55243854166667" xlink:href="#m539ecfd5fa" y="193.85441249999994"/>
     <use style="fill:#0000ff;fill-opacity:0.8;" x="305.25532763888884" xlink:href="#m539ecfd5fa" y="306.00298749999996"/>
     <use style="fill:#0000ff;fill-opacity:0.8;" x="176.04387743055554" xlink:href="#m539ecfd5fa" y="165.81726874999993"/>
     <use style="fill:#0000ff;fill-opacity:0.8;" x="189.07673263888887" xlink:href="#m539ecfd5fa" y="141.78543124999993"/>
     <use style="fill:#0000ff;fill-opacity:0.8;" x="497.27272770833326" xlink:href="#m539ecfd5fa" y="330.03482499999996"/>
     <use style="fill:#0000ff;fill-opacity:0.8;" x="405.9186188194444" xlink:href="#m539ecfd5fa" y="289.98176249999995"/>
     <use style="fill:#0000ff;fill-opacity:0.8;" x="249.27611145833333" xlink:href="#m539ecfd5fa" y="165.01620749999992"/>
     <use style="fill:#0000ff;fill-opacity:0.8;" x="341.87144465277777" xlink:href="#m539ecfd5fa" y="265.1488637499999"/>
     <use style="fill:#0000ff;fill-opacity:0.8;" x="374.6397663194444" xlink:href="#m539ecfd5fa" y="269.95523124999994"/>
     <use style="fill:#0000ff;fill-opacity:0.8;" x="348.2016886111111" xlink:href="#m539ecfd5fa" y="297.9923749999999"/>
     <use style="fill:#0000ff;fill-opacity:0.8;" x="266.52912930555556" xlink:href="#m539ecfd5fa" y="273.96053749999993"/>
     <use style="fill:#0000ff;fill-opacity:0.8;" x="232.51958333333334" xlink:href="#m539ecfd5fa" y="137.78012499999994"/>
     <use style="fill:#0000ff;fill-opacity:0.8;" x="302.0281444444444" xlink:href="#m539ecfd5fa" y="256.33718999999996"/>
     <use style="fill:#0000ff;fill-opacity:0.8;" x="315.557489375" xlink:href="#m539ecfd5fa" y="314.01359999999994"/>
     <use style="fill:#0000ff;fill-opacity:0.8;" x="241.82876562499996" xlink:href="#m539ecfd5fa" y="169.82257499999994"/>
     <use style="fill:#0000ff;fill-opacity:0.8;" x="219.486728125" xlink:href="#m539ecfd5fa" y="241.91808749999996"/>
     <use style="fill:#0000ff;fill-opacity:0.8;" x="542.4532924305555" xlink:href="#m539ecfd5fa" y="330.03482499999996"/>
     <use style="fill:#0000ff;fill-opacity:0.8;" x="163.63163437499998" xlink:href="#m539ecfd5fa" y="149.7960437499999"/>
     <use style="fill:#0000ff;fill-opacity:0.8;" x="168.59653159722222" xlink:href="#m539ecfd5fa" y="72.8941637499999"/>
     <use style="fill:#0000ff;fill-opacity:0.8;" x="360.3656868055555" xlink:href="#m539ecfd5fa" y="214.68200499999995"/>
     <use style="fill:#0000ff;fill-opacity:0.8;" x="184.11183541666668" xlink:href="#m539ecfd5fa" y="91.31857249999996"/>
     <use style="fill:#0000ff;fill-opacity:0.8;" x="466.49036493055553" xlink:href="#m539ecfd5fa" y="306.00298749999996"/>
     <use style="fill:#0000ff;fill-opacity:0.8;" x="258.70941618055554" xlink:href="#m539ecfd5fa" y="179.43530999999993"/>
     <use style="fill:#0000ff;fill-opacity:0.8;" x="442.28649097222217" xlink:href="#m539ecfd5fa" y="289.98176249999995"/>
     <use style="fill:#0000ff;fill-opacity:0.8;" x="339.26487361111106" xlink:href="#m539ecfd5fa" y="253.13294499999992"/>
     <use style="fill:#0000ff;fill-opacity:0.8;" x="357.1385036111111" xlink:href="#m539ecfd5fa" y="273.96053749999993"/>
     <use style="fill:#0000ff;fill-opacity:0.8;" x="145.01326979166663" xlink:href="#m539ecfd5fa" y="153.80134999999996"/>
     <use style="fill:#0000ff;fill-opacity:0.8;" x="172.94081666666665" xlink:href="#m539ecfd5fa" y="163.41408499999994"/>
     <use style="fill:#0000ff;fill-opacity:0.8;" x="463.7596714583333" xlink:href="#m539ecfd5fa" y="314.01359999999994"/>
     <use style="fill:#0000ff;fill-opacity:0.8;" x="307.24128652777773" xlink:href="#m539ecfd5fa" y="257.9393124999999"/>
     <use style="fill:#0000ff;fill-opacity:0.8;" x="170.83073534722223" xlink:href="#m539ecfd5fa" y="161.81196249999994"/>
     <use style="fill:#0000ff;fill-opacity:0.8;" x="509.933215625" xlink:href="#m539ecfd5fa" y="314.01359999999994"/>
     <use style="fill:#0000ff;fill-opacity:0.8;" x="222.5897888888889" xlink:href="#m539ecfd5fa" y="228.30004624999995"/>
     <use style="fill:#0000ff;fill-opacity:0.8;" x="347.3328315972222" xlink:href="#m539ecfd5fa" y="264.34780249999994"/>
     <use style="fill:#0000ff;fill-opacity:0.8;" x="173.56142881944442" xlink:href="#m539ecfd5fa" y="121.75889999999993"/>
     <use style="fill:#0000ff;fill-opacity:0.8;" x="348.6981783333333" xlink:href="#m539ecfd5fa" y="273.96053749999993"/>
     <use style="fill:#0000ff;fill-opacity:0.8;" x="328.0938548611111" xlink:href="#m539ecfd5fa" y="265.94992499999995"/>
     <use style="fill:#0000ff;fill-opacity:0.8;" x="178.52632604166666" xlink:href="#m539ecfd5fa" y="159.40877874999995"/>
     <use style="fill:#0000ff;fill-opacity:0.8;" x="309.5996127083333" xlink:href="#m539ecfd5fa" y="273.96053749999993"/>
     <use style="fill:#0000ff;fill-opacity:0.8;" x="396.48531409722216" xlink:href="#m539ecfd5fa" y="314.01359999999994"/>
     <use style="fill:#0000ff;fill-opacity:0.8;" x="475.3030574999999" xlink:href="#m539ecfd5fa" y="322.0242125"/>
     <use style="fill:#0000ff;fill-opacity:0.8;" x="167.9759194444444" xlink:href="#m539ecfd5fa" y="129.7695124999999"/>
     <use style="fill:#0000ff;fill-opacity:0.8;" x="397.60241597222216" xlink:href="#m539ecfd5fa" y="272.3584149999999"/>
     <use style="fill:#0000ff;fill-opacity:0.8;" x="249.15198902777774" xlink:href="#m539ecfd5fa" y="265.94992499999995"/>
     <use style="fill:#0000ff;fill-opacity:0.8;" x="325.61140624999996" xlink:href="#m539ecfd5fa" y="177.83318749999995"/>
     <use style="fill:#0000ff;fill-opacity:0.8;" x="461.02897798611104" xlink:href="#m539ecfd5fa" y="297.9923749999999"/>
     <use style="fill:#0000ff;fill-opacity:0.8;" x="376.9980925" xlink:href="#m539ecfd5fa" y="330.03482499999996"/>
     <use style="fill:#0000ff;fill-opacity:0.8;" x="495.03852395833326" xlink:href="#m539ecfd5fa" y="338.04543749999993"/>
     <use style="fill:#0000ff;fill-opacity:0.8;" x="329.08683430555556" xlink:href="#m539ecfd5fa" y="289.98176249999995"/>
     <use style="fill:#0000ff;fill-opacity:0.8;" x="471.4552621527778" xlink:href="#m539ecfd5fa" y="306.00298749999996"/>
     <use style="fill:#0000ff;fill-opacity:0.8;" x="463.3873041666666" xlink:href="#m539ecfd5fa" y="282.77221124999994"/>
     <use style="fill:#0000ff;fill-opacity:0.8;" x="499.87929875" xlink:href="#m539ecfd5fa" y="314.01359999999994"/>
     <use style="fill:#0000ff;fill-opacity:0.8;" x="197.76530277777778" xlink:href="#m539ecfd5fa" y="217.88624999999993"/>
     <use style="fill:#0000ff;fill-opacity:0.8;" x="243.31823479166667" xlink:href="#m539ecfd5fa" y="249.92869999999994"/>
     <use style="fill:#0000ff;fill-opacity:0.8;" x="234.38141979166664" xlink:href="#m539ecfd5fa" y="249.12763874999993"/>
     <use style="fill:#0000ff;fill-opacity:0.8;" x="226.4375842361111" xlink:href="#m539ecfd5fa" y="209.87563749999993"/>
     <use style="fill:#0000ff;fill-opacity:0.8;" x="206.20562805555556" xlink:href="#m539ecfd5fa" y="193.85441249999994"/>
     <use style="fill:#0000ff;fill-opacity:0.8;" x="162.63865493055556" xlink:href="#m539ecfd5fa" y="185.84379999999993"/>
     <use style="fill:#0000ff;fill-opacity:0.8;" x="460.28424340277775" xlink:href="#m539ecfd5fa" y="289.98176249999995"/>
     <use style="fill:#0000ff;fill-opacity:0.8;" x="249.27611145833333" xlink:href="#m539ecfd5fa" y="205.06926999999993"/>
     <use style="fill:#0000ff;fill-opacity:0.8;" x="211.41877013888887" xlink:href="#m539ecfd5fa" y="265.94992499999995"/>
     <use style="fill:#0000ff;fill-opacity:0.8;" x="168.59653159722222" xlink:href="#m539ecfd5fa" y="155.40347249999996"/>
     <use style="fill:#0000ff;fill-opacity:0.8;" x="221.1003197222222" xlink:href="#m539ecfd5fa" y="241.91808749999996"/>
     <use style="fill:#0000ff;fill-opacity:0.8;" x="208.93632152777775" xlink:href="#m539ecfd5fa" y="265.94992499999995"/>
     <use style="fill:#0000ff;fill-opacity:0.8;" x="126.89139493055553" xlink:href="#m539ecfd5fa" y="169.82257499999994"/>
     <use style="fill:#0000ff;fill-opacity:0.8;" x="256.5993348611111" xlink:href="#m539ecfd5fa" y="233.90747499999995"/>
     <use style="fill:#0000ff;fill-opacity:0.8;" x="148.73694270833334" xlink:href="#m539ecfd5fa" y="181.83849374999994"/>
     <use style="fill:#0000ff;fill-opacity:0.8;" x="428.63302361111107" xlink:href="#m539ecfd5fa" y="277.96584375"/>
     <use style="fill:#0000ff;fill-opacity:0.8;" x="329.58332402777773" xlink:href="#m539ecfd5fa" y="265.94992499999995"/>
     <use style="fill:#0000ff;fill-opacity:0.8;" x="257.59231430555553" xlink:href="#m539ecfd5fa" y="225.89686249999994"/>
     <use style="fill:#0000ff;fill-opacity:0.8;" x="450.6026938194444" xlink:href="#m539ecfd5fa" y="306.00298749999996"/>
     <use style="fill:#0000ff;fill-opacity:0.8;" x="185.97367187499998" xlink:href="#m539ecfd5fa" y="193.85441249999994"/>
     <use style="fill:#0000ff;fill-opacity:0.8;" x="229.04415527777775" xlink:href="#m539ecfd5fa" y="249.92869999999994"/>
     <use style="fill:#0000ff;fill-opacity:0.8;" x="346.09160729166666" xlink:href="#m539ecfd5fa" y="238.71384249999994"/>
     <use style="fill:#0000ff;fill-opacity:0.8;" x="195.90346631944442" xlink:href="#m539ecfd5fa" y="129.7695124999999"/>
     <use style="fill:#0000ff;fill-opacity:0.8;" x="292.5948397222222" xlink:href="#m539ecfd5fa" y="273.96053749999993"/>
     <use style="fill:#0000ff;fill-opacity:0.8;" x="345.47099513888884" xlink:href="#m539ecfd5fa" y="288.37963999999994"/>
     <use style="fill:#0000ff;fill-opacity:0.8;" x="179.14693819444443" xlink:href="#m539ecfd5fa" y="102.53342999999995"/>
     <use style="fill:#0000ff;fill-opacity:0.8;" x="168.59653159722222" xlink:href="#m539ecfd5fa" y="177.83318749999995"/>
     <use style="fill:#0000ff;fill-opacity:0.8;" x="286.26459576388885" xlink:href="#m539ecfd5fa" y="273.96053749999993"/>
     <use style="fill:#0000ff;fill-opacity:0.8;" x="403.80853749999994" xlink:href="#m539ecfd5fa" y="277.96584375"/>
     <use style="fill:#0000ff;fill-opacity:0.8;" x="244.31121423611108" xlink:href="#m539ecfd5fa" y="187.44592249999994"/>
     <use style="fill:#0000ff;fill-opacity:0.8;" x="287.75406493055556" xlink:href="#m539ecfd5fa" y="241.91808749999996"/>
     <use style="fill:#0000ff;fill-opacity:0.8;" x="195.28285416666665" xlink:href="#m539ecfd5fa" y="144.1886149999999"/>
     <use style="fill:#0000ff;fill-opacity:0.8;" x="194.04162986111112" xlink:href="#m539ecfd5fa" y="173.82788124999993"/>
     <use style="fill:#0000ff;fill-opacity:0.8;" x="453.209264861111" xlink:href="#m539ecfd5fa" y="289.98176249999995"/>
     <use style="fill:#0000ff;fill-opacity:0.8;" x="185.97367187499998" xlink:href="#m539ecfd5fa" y="113.74828749999995"/>
     <use style="fill:#0000ff;fill-opacity:0.8;" x="188.33199805555557" xlink:href="#m539ecfd5fa" y="85.7111437499999"/>
     <use style="fill:#0000ff;fill-opacity:0.8;" x="269.7563125" xlink:href="#m539ecfd5fa" y="194.65547374999994"/>
     <use style="fill:#0000ff;fill-opacity:0.8;" x="273.85235270833334" xlink:href="#m539ecfd5fa" y="241.91808749999996"/>
     <use style="fill:#0000ff;fill-opacity:0.8;" x="151.2193913194444" xlink:href="#m539ecfd5fa" y="179.43530999999993"/>
     <use style="fill:#0000ff;fill-opacity:0.8;" x="349.8152802083333" xlink:href="#m539ecfd5fa" y="276.3637212499999"/>
     <use style="fill:#0000ff;fill-opacity:0.8;" x="380.59764298611105" xlink:href="#m539ecfd5fa" y="297.9923749999999"/>
     <use style="fill:#0000ff;fill-opacity:0.8;" x="370.17135881944444" xlink:href="#m539ecfd5fa" y="306.00298749999996"/>
     <use style="fill:#0000ff;fill-opacity:0.8;" x="459.0430190972222" xlink:href="#m539ecfd5fa" y="293.98706874999993"/>
     <use style="fill:#0000ff;fill-opacity:0.8;" x="318.5364277083333" xlink:href="#m539ecfd5fa" y="277.96584375"/>
     <use style="fill:#0000ff;fill-opacity:0.8;" x="480.64032201388886" xlink:href="#m539ecfd5fa" y="322.0242125"/>
     <use style="fill:#0000ff;fill-opacity:0.8;" x="163.0110222222222" xlink:href="#m539ecfd5fa" y="185.84379999999993"/>
     <use style="fill:#0000ff;fill-opacity:0.8;" x="413.9865768055555" xlink:href="#m539ecfd5fa" y="293.98706874999993"/>
     <use style="fill:#0000ff;fill-opacity:0.8;" x="159.90796145833332" xlink:href="#m539ecfd5fa" y="132.1726962499999"/>
     <use style="fill:#0000ff;fill-opacity:0.8;" x="203.3508121527778" xlink:href="#m539ecfd5fa" y="209.87563749999993"/>
     <use style="fill:#0000ff;fill-opacity:0.8;" x="189.69734479166664" xlink:href="#m539ecfd5fa" y="177.83318749999995"/>
     <use style="fill:#0000ff;fill-opacity:0.8;" x="188.4561204861111" xlink:href="#m539ecfd5fa" y="147.39285999999998"/>
     <use style="fill:#0000ff;fill-opacity:0.8;" x="392.0169065972222" xlink:href="#m539ecfd5fa" y="273.96053749999993"/>
     <use style="fill:#0000ff;fill-opacity:0.8;" x="455.19522374999997" xlink:href="#m539ecfd5fa" y="314.01359999999994"/>
     <use style="fill:#0000ff;fill-opacity:0.8;" x="322.0118557638889" xlink:href="#m539ecfd5fa" y="257.9393124999999"/>
     <use style="fill:#0000ff;fill-opacity:0.8;" x="206.45387291666668" xlink:href="#m539ecfd5fa" y="158.60771749999992"/>
     <use style="fill:#0000ff;fill-opacity:0.8;" x="348.3258110416666" xlink:href="#m539ecfd5fa" y="289.98176249999995"/>
     <use style="fill:#0000ff;fill-opacity:0.8;" x="239.96692916666666" xlink:href="#m539ecfd5fa" y="197.85971874999993"/>
     <use style="fill:#0000ff;fill-opacity:0.8;" x="201.98546541666667" xlink:href="#m539ecfd5fa" y="233.90747499999995"/>
     <use style="fill:#0000ff;fill-opacity:0.8;" x="434.7150227083333" xlink:href="#m539ecfd5fa" y="306.00298749999996"/>
     <use style="fill:#0000ff;fill-opacity:0.8;" x="398.84364027777775" xlink:href="#m539ecfd5fa" y="281.97114999999997"/>
     <use style="fill:#0000ff;fill-opacity:0.8;" x="501.61701277777775" xlink:href="#m539ecfd5fa" y="289.98176249999995"/>
     <use style="fill:#0000ff;fill-opacity:0.8;" x="197.76530277777778" xlink:href="#m539ecfd5fa" y="233.90747499999995"/>
     <use style="fill:#0000ff;fill-opacity:0.8;" x="238.1050927083333" xlink:href="#m539ecfd5fa" y="225.89686249999994"/>
     <use style="fill:#0000ff;fill-opacity:0.8;" x="261.6883545138889" xlink:href="#m539ecfd5fa" y="201.86502499999995"/>
     <use style="fill:#0000ff;fill-opacity:0.8;" x="428.8812684722222" xlink:href="#m539ecfd5fa" y="297.9923749999999"/>
     <use style="fill:#0000ff;fill-opacity:0.8;" x="268.51508819444444" xlink:href="#m539ecfd5fa" y="201.86502499999995"/>
     <use style="fill:#0000ff;fill-opacity:0.8;" x="248.03488715277774" xlink:href="#m539ecfd5fa" y="193.85441249999994"/>
     <use style="fill:#0000ff;fill-opacity:0.8;" x="444.6448171527777" xlink:href="#m539ecfd5fa" y="306.00298749999996"/>
     <use style="fill:#0000ff;fill-opacity:0.8;" x="179.7675503472222" xlink:href="#m539ecfd5fa" y="149.7960437499999"/>
     <use style="fill:#0000ff;fill-opacity:0.8;" x="154.94306423611107" xlink:href="#m539ecfd5fa" y="105.73767499999991"/>
     <use style="fill:#0000ff;fill-opacity:0.8;" x="277.8242704861111" xlink:href="#m539ecfd5fa" y="225.89686249999994"/>
     <use style="fill:#0000ff;fill-opacity:0.8;" x="240.58754131944443" xlink:href="#m539ecfd5fa" y="205.87033124999994"/>
     <use style="fill:#0000ff;fill-opacity:0.8;" x="385.8107850694444" xlink:href="#m539ecfd5fa" y="262.74568"/>
     <use style="fill:#0000ff;fill-opacity:0.8;" x="435.4597572916666" xlink:href="#m539ecfd5fa" y="297.9923749999999"/>
     <use style="fill:#0000ff;fill-opacity:0.8;" x="207.69509722222222" xlink:href="#m539ecfd5fa" y="213.88094374999994"/>
     <use style="fill:#0000ff;fill-opacity:0.8;" x="377.9910719444444" xlink:href="#m539ecfd5fa" y="306.00298749999996"/>
     <use style="fill:#0000ff;fill-opacity:0.8;" x="253.62039652777776" xlink:href="#m539ecfd5fa" y="198.66077999999996"/>
     <use style="fill:#0000ff;fill-opacity:0.8;" x="402.5673131944444" xlink:href="#m539ecfd5fa" y="314.01359999999994"/>
     <use style="fill:#0000ff;fill-opacity:0.8;" x="372.7779298611111" xlink:href="#m539ecfd5fa" y="265.94992499999995"/>
     <use style="fill:#0000ff;fill-opacity:0.8;" x="311.95793888888886" xlink:href="#m539ecfd5fa" y="281.97114999999997"/>
     <use style="fill:#0000ff;fill-opacity:0.8;" x="185.72542701388886" xlink:href="#m539ecfd5fa" y="193.85441249999994"/>
     <use style="fill:#0000ff;fill-opacity:0.8;" x="217.50076923611113" xlink:href="#m539ecfd5fa" y="241.91808749999996"/>
     <use style="fill:#0000ff;fill-opacity:0.8;" x="178.52632604166666" xlink:href="#m539ecfd5fa" y="177.83318749999995"/>
     <use style="fill:#0000ff;fill-opacity:0.8;" x="185.84954944444445" xlink:href="#m539ecfd5fa" y="273.96053749999993"/>
     <use style="fill:#0000ff;fill-opacity:0.8;" x="428.2606563194444" xlink:href="#m539ecfd5fa" y="306.00298749999996"/>
     <use style="fill:#0000ff;fill-opacity:0.8;" x="271.61814895833334" xlink:href="#m539ecfd5fa" y="241.91808749999996"/>
     <use style="fill:#0000ff;fill-opacity:0.8;" x="276.5830461805555" xlink:href="#m539ecfd5fa" y="227.49898499999995"/>
     <use style="fill:#0000ff;fill-opacity:0.8;" x="296.07026777777776" xlink:href="#m539ecfd5fa" y="225.89686249999994"/>
     <use style="fill:#0000ff;fill-opacity:0.8;" x="207.69509722222222" xlink:href="#m539ecfd5fa" y="209.87563749999993"/>
     <use style="fill:#0000ff;fill-opacity:0.8;" x="164.25224652777774" xlink:href="#m539ecfd5fa" y="209.87563749999993"/>
     <use style="fill:#0000ff;fill-opacity:0.8;" x="218.24550381944442" xlink:href="#m539ecfd5fa" y="177.83318749999995"/>
     <use style="fill:#0000ff;fill-opacity:0.8;" x="162.63865493055556" xlink:href="#m539ecfd5fa" y="185.84379999999993"/>
     <use style="fill:#0000ff;fill-opacity:0.8;" x="437.81808347222216" xlink:href="#m539ecfd5fa" y="306.00298749999996"/>
     <use style="fill:#0000ff;fill-opacity:0.8;" x="282.16855555555554" xlink:href="#m539ecfd5fa" y="214.68200499999995"/>
     <use style="fill:#0000ff;fill-opacity:0.8;" x="282.2926779861111" xlink:href="#m539ecfd5fa" y="265.94992499999995"/>
     <use style="fill:#0000ff;fill-opacity:0.8;" x="531.15815125" xlink:href="#m539ecfd5fa" y="322.0242125"/>
     <use style="fill:#0000ff;fill-opacity:0.8;" x="205.08852618055556" xlink:href="#m539ecfd5fa" y="257.9393124999999"/>
     <use style="fill:#0000ff;fill-opacity:0.8;" x="186.59428402777775" xlink:href="#m539ecfd5fa" y="201.86502499999995"/>
     <use style="fill:#0000ff;fill-opacity:0.8;" x="280.92733124999995" xlink:href="#m539ecfd5fa" y="239.51490374999995"/>
     <use style="fill:#0000ff;fill-opacity:0.8;" x="465.3732630555555" xlink:href="#m539ecfd5fa" y="338.04543749999993"/>
     <use style="fill:#0000ff;fill-opacity:0.8;" x="369.6748690972222" xlink:href="#m539ecfd5fa" y="264.34780249999994"/>
     <use style="fill:#0000ff;fill-opacity:0.8;" x="243.06998993055555" xlink:href="#m539ecfd5fa" y="209.87563749999993"/>
     <use style="fill:#0000ff;fill-opacity:0.8;" x="373.0261747222222" xlink:href="#m539ecfd5fa" y="289.98176249999995"/>
     <use style="fill:#0000ff;fill-opacity:0.8;" x="186.59428402777775" xlink:href="#m539ecfd5fa" y="119.35571624999994"/>
     <use style="fill:#0000ff;fill-opacity:0.8;" x="165.86583812499998" xlink:href="#m539ecfd5fa" y="209.87563749999993"/>
     <use style="fill:#0000ff;fill-opacity:0.8;" x="327.4732427083333" xlink:href="#m539ecfd5fa" y="256.33718999999996"/>
     <use style="fill:#0000ff;fill-opacity:0.8;" x="388.29323368055555" xlink:href="#m539ecfd5fa" y="314.01359999999994"/>
     <use style="fill:#0000ff;fill-opacity:0.8;" x="250.88970305555551" xlink:href="#m539ecfd5fa" y="249.92869999999994"/>
     <use style="fill:#0000ff;fill-opacity:0.8;" x="198.13767006944443" xlink:href="#m539ecfd5fa" y="217.88624999999993"/>
     <use style="fill:#0000ff;fill-opacity:0.8;" x="347.3328315972222" xlink:href="#m539ecfd5fa" y="253.93400624999995"/>
     <use style="fill:#0000ff;fill-opacity:0.8;" x="176.6644895833333" xlink:href="#m539ecfd5fa" y="116.15147124999993"/>
     <use style="fill:#0000ff;fill-opacity:0.8;" x="190.31795694444446" xlink:href="#m539ecfd5fa" y="129.7695124999999"/>
     <use style="fill:#0000ff;fill-opacity:0.8;" x="270.62516951388886" xlink:href="#m539ecfd5fa" y="257.9393124999999"/>
     <use style="fill:#0000ff;fill-opacity:0.8;" x="167.35530729166663" xlink:href="#m539ecfd5fa" y="121.75889999999993"/>
     <use style="fill:#0000ff;fill-opacity:0.8;" x="297.18736965277776" xlink:href="#m539ecfd5fa" y="273.96053749999993"/>
     <use style="fill:#0000ff;fill-opacity:0.8;" x="288.3746770833333" xlink:href="#m539ecfd5fa" y="201.86502499999995"/>
     <use style="fill:#0000ff;fill-opacity:0.8;" x="187.21489618055557" xlink:href="#m539ecfd5fa" y="181.83849374999994"/>
     <use style="fill:#0000ff;fill-opacity:0.8;" x="359.1244625" xlink:href="#m539ecfd5fa" y="277.96584375"/>
     <use style="fill:#0000ff;fill-opacity:0.8;" x="259.82651805555554" xlink:href="#m539ecfd5fa" y="217.08518874999993"/>
    </g>
   </g>
   <g id="PolyCollection_1">
    <defs>
     <path d="M 46.335938 -362.813734 
L 46.335938 -343.557864 
L 51.977866 -340.947458 
L 57.619795 -338.32968 
L 63.261723 -335.725653 
L 68.903652 -333.121988 
L 74.545581 -330.518324 
L 80.187509 -327.914659 
L 85.829438 -325.310994 
L 91.471367 -322.707329 
L 97.113295 -320.087144 
L 102.755224 -317.466872 
L 108.397153 -314.863227 
L 114.039081 -312.219334 
L 119.68101 -309.566946 
L 125.322939 -306.935807 
L 130.964867 -304.304667 
L 136.606796 -301.673827 
L 142.248725 -299.045159 
L 147.890653 -296.416491 
L 153.532582 -293.804008 
L 159.174511 -291.226645 
L 164.816439 -288.649282 
L 170.458368 -286.021304 
L 176.100297 -283.285557 
L 181.742225 -280.636092 
L 187.384154 -278.006479 
L 193.026083 -275.376866 
L 198.668011 -272.747464 
L 204.30994 -270.117123 
L 209.951869 -267.485813 
L 215.593797 -264.85689 
L 221.235726 -262.247314 
L 226.877655 -259.569713 
L 232.519583 -256.918228 
L 238.161512 -254.286354 
L 243.803441 -251.630214 
L 249.445369 -248.982462 
L 255.087298 -246.361051 
L 260.729227 -243.712873 
L 266.371155 -241.087033 
L 272.013084 -238.414335 
L 277.655013 -235.757536 
L 283.296941 -233.07486 
L 288.93887 -230.29912 
L 294.580799 -227.590618 
L 300.222727 -224.883647 
L 305.864656 -222.094812 
L 311.506585 -219.345098 
L 317.148513 -216.618961 
L 322.790442 -213.784634 
L 328.432371 -210.992349 
L 334.074299 -208.20313 
L 339.716228 -205.364363 
L 345.358157 -202.574192 
L 351.000085 -199.763151 
L 356.642014 -196.964535 
L 362.283943 -194.165919 
L 367.925871 -191.330022 
L 373.5678 -188.495965 
L 379.209729 -185.620365 
L 384.851657 -182.735664 
L 390.493586 -179.851224 
L 396.135515 -177.017471 
L 401.777443 -174.185936 
L 407.419372 -171.253221 
L 413.061301 -168.367413 
L 418.703229 -165.526847 
L 424.345158 -162.665025 
L 429.987086 -159.81316 
L 435.629015 -156.962526 
L 441.270944 -154.111892 
L 446.912872 -151.213472 
L 452.554801 -148.194454 
L 458.19673 -145.21762 
L 463.838658 -142.331737 
L 469.480587 -139.439761 
L 475.122516 -136.569613 
L 480.764444 -133.673603 
L 486.406373 -130.786508 
L 492.048302 -127.898782 
L 497.69023 -124.981648 
L 503.332159 -122.012006 
L 508.974088 -119.043521 
L 514.616016 -116.120057 
L 520.257945 -113.222232 
L 525.899874 -110.325467 
L 531.541802 -107.428613 
L 537.183731 -104.555 
L 542.82566 -101.678562 
L 548.467588 -98.768445 
L 554.109517 -95.839234 
L 559.751446 -92.940924 
L 565.393374 -90.043107 
L 571.035303 -87.146671 
L 576.677232 -84.250182 
L 582.31916 -81.351766 
L 587.961089 -78.45335 
L 593.603018 -75.515305 
L 599.244946 -72.54135 
L 604.886875 -69.567396 
L 604.886875 -85.773522 
L 604.886875 -85.773522 
L 599.244946 -88.377505 
L 593.603018 -90.98529 
L 587.961089 -93.612424 
L 582.31916 -96.238369 
L 576.677232 -98.9029 
L 571.035303 -101.576468 
L 565.393374 -104.23196 
L 559.751446 -106.878976 
L 554.109517 -109.496051 
L 548.467588 -112.112843 
L 542.82566 -114.711284 
L 537.183731 -117.324009 
L 531.541802 -119.960248 
L 525.899874 -122.581838 
L 520.257945 -125.198472 
L 514.616016 -127.88243 
L 508.974088 -130.568237 
L 503.332159 -133.221282 
L 497.69023 -135.874326 
L 492.048302 -138.549421 
L 486.406373 -141.271138 
L 480.764444 -143.893119 
L 475.122516 -146.50759 
L 469.480587 -149.140845 
L 463.838658 -151.812399 
L 458.19673 -154.517914 
L 452.554801 -157.220899 
L 446.912872 -159.919635 
L 441.270944 -162.560867 
L 435.629015 -165.255155 
L 429.987086 -167.941441 
L 424.345158 -170.620684 
L 418.703229 -173.325831 
L 413.061301 -175.998028 
L 407.419372 -178.724339 
L 401.777443 -181.450602 
L 396.135515 -184.146751 
L 390.493586 -186.84699 
L 384.851657 -189.622689 
L 379.209729 -192.378185 
L 373.5678 -195.104855 
L 367.925871 -197.82027 
L 362.283943 -200.588901 
L 356.642014 -203.333336 
L 351.000085 -206.153892 
L 345.358157 -208.912032 
L 339.716228 -211.707459 
L 334.074299 -214.509784 
L 328.432371 -217.385891 
L 322.790442 -220.265918 
L 317.148513 -223.074359 
L 311.506585 -225.853594 
L 305.864656 -228.67644 
L 300.222727 -231.53871 
L 294.580799 -234.474969 
L 288.93887 -237.295895 
L 283.296941 -240.235322 
L 277.655013 -243.112733 
L 272.013084 -246.057564 
L 266.371155 -248.837014 
L 260.729227 -251.713773 
L 255.087298 -254.625913 
L 249.445369 -257.553783 
L 243.803441 -260.481939 
L 238.161512 -263.403735 
L 232.519583 -266.280822 
L 226.877655 -269.166691 
L 221.235726 -272.033712 
L 215.593797 -275.021797 
L 209.951869 -277.948318 
L 204.30994 -280.793667 
L 198.668011 -283.748843 
L 193.026083 -286.646171 
L 187.384154 -289.59148 
L 181.742225 -292.529165 
L 176.100297 -295.466522 
L 170.458368 -298.389502 
L 164.816439 -301.305169 
L 159.174511 -304.268033 
L 153.532582 -307.211218 
L 147.890653 -310.152811 
L 142.248725 -313.089715 
L 136.606796 -316.020007 
L 130.964867 -318.943422 
L 125.322939 -321.866837 
L 119.68101 -324.789877 
L 114.039081 -327.712716 
L 108.397153 -330.643763 
L 102.755224 -333.566524 
L 97.113295 -336.501022 
L 91.471367 -339.445383 
L 85.829438 -342.369084 
L 80.187509 -345.312809 
L 74.545581 -348.238306 
L 68.903652 -351.153829 
L 63.261723 -354.059759 
L 57.619795 -356.960426 
L 51.977866 -359.88708 
L 46.335938 -362.813734 
z
" id="m8c8cd1f04b" style="stroke:#000000;stroke-opacity:0.15;stroke-width:0.3;"/>
    </defs>
    <g clip-path="url(#p013a2b93bb)">
     <use style="fill:#0000ff;fill-opacity:0.15;stroke:#000000;stroke-opacity:0.15;stroke-width:0.3;" x="0.0" xlink:href="#m8c8cd1f04b" y="462.6875"/>
    </g>
   </g>
   <g id="line2d_49">
    <path clip-path="url(#p013a2b93bb)" d="M 46.335938 109.188791 
L 51.977866 111.973332 
L 57.619795 114.757873 
L 63.261723 117.542413 
L 68.903652 120.326954 
L 74.545581 123.111495 
L 80.187509 125.896036 
L 85.829438 128.680577 
L 91.471367 131.465117 
L 97.113295 134.249658 
L 102.755224 137.034199 
L 108.397153 139.81874 
L 114.039081 142.603281 
L 119.68101 145.387821 
L 125.322939 148.172362 
L 130.964867 150.956903 
L 136.606796 153.741444 
L 142.248725 156.525985 
L 147.890653 159.310525 
L 153.532582 162.095066 
L 159.174511 164.879607 
L 164.816439 167.664148 
L 170.458368 170.448689 
L 176.100297 173.233229 
L 181.742225 176.01777 
L 187.384154 178.802311 
L 193.026083 181.586852 
L 198.668011 184.371393 
L 204.30994 187.155933 
L 209.951869 189.940474 
L 215.593797 192.725015 
L 221.235726 195.509556 
L 226.877655 198.294097 
L 232.519583 201.078638 
L 238.161512 203.863178 
L 243.803441 206.647719 
L 249.445369 209.43226 
L 255.087298 212.216801 
L 260.729227 215.001342 
L 266.371155 217.785882 
L 272.013084 220.570423 
L 277.655013 223.354964 
L 283.296941 226.139505 
L 288.93887 228.924046 
L 294.580799 231.708586 
L 300.222727 234.493127 
L 305.864656 237.277668 
L 311.506585 240.062209 
L 317.148513 242.84675 
L 322.790442 245.63129 
L 328.432371 248.415831 
L 334.074299 251.200372 
L 339.716228 253.984913 
L 345.358157 256.769454 
L 351.000085 259.553994 
L 356.642014 262.338535 
L 362.283943 265.123076 
L 367.925871 267.907617 
L 373.5678 270.692158 
L 379.209729 273.476698 
L 384.851657 276.261239 
L 390.493586 279.04578 
L 396.135515 281.830321 
L 401.777443 284.614862 
L 407.419372 287.399402 
L 413.061301 290.183943 
L 418.703229 292.968484 
L 424.345158 295.753025 
L 429.987086 298.537566 
L 435.629015 301.322106 
L 441.270944 304.106647 
L 446.912872 306.891188 
L 452.554801 309.675729 
L 458.19673 312.46027 
L 463.838658 315.244811 
L 469.480587 318.029351 
L 475.122516 320.813892 
L 480.764444 323.598433 
L 486.406373 326.382974 
L 492.048302 329.167515 
L 497.69023 331.952055 
L 503.332159 334.736596 
L 508.974088 337.521137 
L 514.616016 340.305678 
L 520.257945 343.090219 
L 525.899874 345.874759 
L 531.541802 348.6593 
L 537.183731 351.443841 
L 542.82566 354.228382 
L 548.467588 357.012923 
L 554.109517 359.797463 
L 559.751446 362.582004 
L 565.393374 365.366545 
L 571.035303 368.151086 
L 576.677232 370.935627 
L 582.31916 373.720167 
L 587.961089 376.504708 
L 593.603018 379.289249 
L 599.244946 382.07379 
L 604.886875 384.858331 
" style="fill:none;stroke:#0000ff;stroke-linecap:round;stroke-width:2.625;"/>
   </g>
   <g id="patch_3">
    <path d="M 46.335938 418.151562 
L 604.886875 418.151562 
" style="fill:none;"/>
   </g>
   <g id="patch_4">
    <path d="M 46.335938 418.151562 
L 46.335938 17.620937 
" style="fill:none;"/>
   </g>
   <g id="patch_5">
    <path d="M 604.886875 418.151562 
L 604.886875 17.620937 
" style="fill:none;"/>
   </g>
   <g id="patch_6">
    <path d="M 46.335938 17.620937 
L 604.886875 17.620937 
" style="fill:none;"/>
   </g>
  </g>
 </g>
 <defs>
  <clipPath id="p013a2b93bb">
   <rect height="400.530625" width="558.5509374999999" x="46.3359375" y="17.620937499999968"/>
  </clipPath>
 </defs>
</svg>
