<?xml version="1.0" encoding="utf-8" standalone="no"?>
<!DOCTYPE svg PUBLIC "-//W3C//DTD SVG 1.1//EN"
  "http://www.w3.org/Graphics/SVG/1.1/DTD/svg11.dtd">
<!-- Created with matplotlib (http://matplotlib.org/) -->
<svg height="461pt" version="1.1" viewBox="0 0 629 461" width="629pt" xmlns="http://www.w3.org/2000/svg" xmlns:xlink="http://www.w3.org/1999/xlink">
 <defs>
  <style type="text/css">
*{stroke-linecap:butt;stroke-linejoin:round;stroke-miterlimit:100000;}
  </style>
 </defs>
 <g id="figure_1">
  <g id="patch_1">
   <path d="M 0 461.976 
L 629 461.976 
L 629 0 
L 0 0 
z
" style="fill:#ffffff;"/>
  </g>
  <g id="axes_1">
   <g id="patch_2">
    <path d="M 51.896875 417.440062 
L 604.918125 417.440062 
L 604.918125 17.620938 
L 51.896875 17.620938 
z
" style="fill:#eaeaf2;"/>
   </g>
   <g id="matplotlib.axis_1">
    <g id="xtick_1">
     <g id="line2d_1">
      <path clip-path="url(#p62af6887e8)" d="M 51.896875 417.440062 
L 51.896875 17.620938 
" style="fill:none;stroke:#ffffff;stroke-linecap:round;"/>
     </g>
     <g id="line2d_2">
      <defs>
       <path d="M 0 0 
L 0 0 
" id="m4519893f22" style="stroke:#262626;"/>
      </defs>
      <g>
       <use style="fill:#262626;stroke:#262626;" x="51.89687500000001" xlink:href="#m4519893f22" y="417.44006249999995"/>
      </g>
     </g>
     <g id="text_1">
      <!-- 1000 -->
      <defs>
       <path d="M 7.625 0 
L 7.625 7.46875 
L 25.140625 7.46875 
L 25.140625 60.40625 
L 9.625 49.3125 
L 9.625 57.625 
L 25.875 68.796875 
L 33.984375 68.796875 
L 33.984375 7.46875 
L 50.734375 7.46875 
L 50.734375 0 
z
" id="LiberationSans-31"/>
       <path d="M 51.703125 34.421875 
Q 51.703125 24.515625 49.828125 17.75 
Q 47.953125 10.984375 44.703125 6.8125 
Q 41.453125 2.640625 37.0625 0.828125 
Q 32.671875 -0.984375 27.6875 -0.984375 
Q 22.65625 -0.984375 18.3125 0.828125 
Q 13.96875 2.640625 10.765625 6.78125 
Q 7.5625 10.9375 5.734375 17.703125 
Q 3.90625 24.46875 3.90625 34.421875 
Q 3.90625 44.828125 5.734375 51.640625 
Q 7.5625 58.453125 10.78125 62.5 
Q 14.015625 66.546875 18.40625 68.1875 
Q 22.796875 69.828125 27.984375 69.828125 
Q 32.90625 69.828125 37.21875 68.1875 
Q 41.546875 66.546875 44.765625 62.5 
Q 48 58.453125 49.84375 51.640625 
Q 51.703125 44.828125 51.703125 34.421875 
M 42.78125 34.421875 
Q 42.78125 42.625 41.796875 48.0625 
Q 40.828125 53.515625 38.921875 56.765625 
Q 37.015625 60.015625 34.25 61.359375 
Q 31.5 62.703125 27.984375 62.703125 
Q 24.265625 62.703125 21.4375 61.328125 
Q 18.609375 59.96875 16.671875 56.71875 
Q 14.75 53.46875 13.765625 48.015625 
Q 12.796875 42.578125 12.796875 34.421875 
Q 12.796875 26.515625 13.796875 21.09375 
Q 14.796875 15.671875 16.71875 12.375 
Q 18.65625 9.078125 21.4375 7.640625 
Q 24.21875 6.203125 27.78125 6.203125 
Q 31.25 6.203125 34.03125 7.640625 
Q 36.8125 9.078125 38.734375 12.375 
Q 40.671875 15.671875 41.71875 21.09375 
Q 42.78125 26.515625 42.78125 34.421875 
" id="LiberationSans-30"/>
      </defs>
      <g style="fill:#262626;" transform="translate(40.775000000000006 431.6869375)scale(0.1 -0.1)">
       <use xlink:href="#LiberationSans-31"/>
       <use x="55.615234375" xlink:href="#LiberationSans-30"/>
       <use x="111.23046875" xlink:href="#LiberationSans-30"/>
       <use x="166.845703125" xlink:href="#LiberationSans-30"/>
      </g>
     </g>
    </g>
    <g id="xtick_2">
     <g id="line2d_3">
      <path clip-path="url(#p62af6887e8)" d="M 113.343681 417.440062 
L 113.343681 17.620938 
" style="fill:none;stroke:#ffffff;stroke-linecap:round;"/>
     </g>
     <g id="line2d_4">
      <g>
       <use style="fill:#262626;stroke:#262626;" x="113.34368055555555" xlink:href="#m4519893f22" y="417.44006249999995"/>
      </g>
     </g>
     <g id="text_2">
      <!-- 1500 -->
      <defs>
       <path d="M 51.421875 22.40625 
Q 51.421875 17.234375 49.859375 12.9375 
Q 48.296875 8.640625 45.21875 5.53125 
Q 42.140625 2.4375 37.578125 0.71875 
Q 33.015625 -0.984375 27 -0.984375 
Q 21.578125 -0.984375 17.546875 0.28125 
Q 13.53125 1.5625 10.734375 3.78125 
Q 7.953125 6 6.3125 8.984375 
Q 4.6875 11.96875 4 15.375 
L 12.890625 16.40625 
Q 13.421875 14.453125 14.390625 12.625 
Q 15.375 10.796875 17.0625 9.34375 
Q 18.75 7.90625 21.21875 7.046875 
Q 23.6875 6.203125 27.203125 6.203125 
Q 30.609375 6.203125 33.390625 7.25 
Q 36.1875 8.296875 38.15625 10.34375 
Q 40.140625 12.40625 41.203125 15.375 
Q 42.28125 18.359375 42.28125 22.21875 
Q 42.28125 25.390625 41.25 28.046875 
Q 40.234375 30.71875 38.328125 32.640625 
Q 36.421875 34.578125 33.65625 35.640625 
Q 30.90625 36.71875 27.390625 36.71875 
Q 25.203125 36.71875 23.34375 36.328125 
Q 21.484375 35.9375 19.890625 35.25 
Q 18.3125 34.578125 17.015625 33.671875 
Q 15.71875 32.765625 14.59375 31.78125 
L 6 31.78125 
L 8.296875 68.796875 
L 47.40625 68.796875 
L 47.40625 61.328125 
L 16.3125 61.328125 
L 14.984375 39.5 
Q 17.328125 41.3125 20.84375 42.59375 
Q 24.359375 43.890625 29.203125 43.890625 
Q 34.328125 43.890625 38.421875 42.328125 
Q 42.53125 40.765625 45.40625 37.90625 
Q 48.296875 35.0625 49.859375 31.109375 
Q 51.421875 27.15625 51.421875 22.40625 
" id="LiberationSans-35"/>
      </defs>
      <g style="fill:#262626;" transform="translate(102.22180555555555 431.6869375)scale(0.1 -0.1)">
       <use xlink:href="#LiberationSans-31"/>
       <use x="55.615234375" xlink:href="#LiberationSans-35"/>
       <use x="111.23046875" xlink:href="#LiberationSans-30"/>
       <use x="166.845703125" xlink:href="#LiberationSans-30"/>
      </g>
     </g>
    </g>
    <g id="xtick_3">
     <g id="line2d_5">
      <path clip-path="url(#p62af6887e8)" d="M 174.790486 417.440062 
L 174.790486 17.620938 
" style="fill:none;stroke:#ffffff;stroke-linecap:round;"/>
     </g>
     <g id="line2d_6">
      <g>
       <use style="fill:#262626;stroke:#262626;" x="174.7904861111111" xlink:href="#m4519893f22" y="417.44006249999995"/>
      </g>
     </g>
     <g id="text_3">
      <!-- 2000 -->
      <defs>
       <path d="M 5.03125 0 
L 5.03125 6.203125 
Q 7.515625 11.921875 11.109375 16.28125 
Q 14.703125 20.65625 18.65625 24.1875 
Q 22.609375 27.734375 26.484375 30.765625 
Q 30.375 33.796875 33.5 36.8125 
Q 36.625 39.84375 38.546875 43.15625 
Q 40.484375 46.484375 40.484375 50.6875 
Q 40.484375 53.609375 39.59375 55.828125 
Q 38.71875 58.0625 37.0625 59.5625 
Q 35.40625 61.078125 33.078125 61.828125 
Q 30.765625 62.59375 27.9375 62.59375 
Q 25.296875 62.59375 22.96875 61.859375 
Q 20.65625 61.140625 18.84375 59.671875 
Q 17.046875 58.203125 15.890625 56.03125 
Q 14.75 53.859375 14.40625 50.984375 
L 5.421875 51.8125 
Q 5.859375 55.515625 7.46875 58.78125 
Q 9.078125 62.0625 11.90625 64.53125 
Q 14.75 67 18.71875 68.40625 
Q 22.703125 69.828125 27.9375 69.828125 
Q 33.0625 69.828125 37.0625 68.609375 
Q 41.0625 67.390625 43.8125 64.984375 
Q 46.578125 62.59375 48.046875 59.078125 
Q 49.515625 55.5625 49.515625 50.984375 
Q 49.515625 47.515625 48.265625 44.390625 
Q 47.015625 41.265625 44.9375 38.421875 
Q 42.875 35.59375 40.140625 32.953125 
Q 37.40625 30.328125 34.421875 27.8125 
Q 31.453125 25.296875 28.421875 22.828125 
Q 25.390625 20.359375 22.71875 17.859375 
Q 20.0625 15.375 17.96875 12.8125 
Q 15.875 10.25 14.703125 7.46875 
L 50.59375 7.46875 
L 50.59375 0 
z
" id="LiberationSans-32"/>
      </defs>
      <g style="fill:#262626;" transform="translate(163.66861111111112 431.6869375)scale(0.1 -0.1)">
       <use xlink:href="#LiberationSans-32"/>
       <use x="55.615234375" xlink:href="#LiberationSans-30"/>
       <use x="111.23046875" xlink:href="#LiberationSans-30"/>
       <use x="166.845703125" xlink:href="#LiberationSans-30"/>
      </g>
     </g>
    </g>
    <g id="xtick_4">
     <g id="line2d_7">
      <path clip-path="url(#p62af6887e8)" d="M 236.237292 417.440062 
L 236.237292 17.620938 
" style="fill:none;stroke:#ffffff;stroke-linecap:round;"/>
     </g>
     <g id="line2d_8">
      <g>
       <use style="fill:#262626;stroke:#262626;" x="236.23729166666664" xlink:href="#m4519893f22" y="417.44006249999995"/>
      </g>
     </g>
     <g id="text_4">
      <!-- 2500 -->
      <g style="fill:#262626;" transform="translate(225.11541666666665 431.6869375)scale(0.1 -0.1)">
       <use xlink:href="#LiberationSans-32"/>
       <use x="55.615234375" xlink:href="#LiberationSans-35"/>
       <use x="111.23046875" xlink:href="#LiberationSans-30"/>
       <use x="166.845703125" xlink:href="#LiberationSans-30"/>
      </g>
     </g>
    </g>
    <g id="xtick_5">
     <g id="line2d_9">
      <path clip-path="url(#p62af6887e8)" d="M 297.684097 417.440062 
L 297.684097 17.620938 
" style="fill:none;stroke:#ffffff;stroke-linecap:round;"/>
     </g>
     <g id="line2d_10">
      <g>
       <use style="fill:#262626;stroke:#262626;" x="297.6840972222222" xlink:href="#m4519893f22" y="417.44006249999995"/>
      </g>
     </g>
     <g id="text_5">
      <!-- 3000 -->
      <defs>
       <path d="M 51.21875 19 
Q 51.21875 14.265625 49.671875 10.546875 
Q 48.140625 6.84375 45.1875 4.265625 
Q 42.234375 1.703125 37.859375 0.359375 
Q 33.5 -0.984375 27.875 -0.984375 
Q 21.484375 -0.984375 17.109375 0.609375 
Q 12.75 2.203125 9.90625 4.8125 
Q 7.078125 7.421875 5.65625 10.765625 
Q 4.25 14.109375 3.8125 17.671875 
L 12.890625 18.5 
Q 13.28125 15.765625 14.328125 13.515625 
Q 15.375 11.28125 17.1875 9.671875 
Q 19 8.0625 21.625 7.171875 
Q 24.265625 6.296875 27.875 6.296875 
Q 34.515625 6.296875 38.296875 9.5625 
Q 42.09375 12.84375 42.09375 19.28125 
Q 42.09375 23.09375 40.40625 25.40625 
Q 38.71875 27.734375 36.203125 29.03125 
Q 33.6875 30.328125 30.734375 30.765625 
Q 27.78125 31.203125 25.296875 31.203125 
L 20.3125 31.203125 
L 20.3125 38.8125 
L 25.09375 38.8125 
Q 27.59375 38.8125 30.265625 39.328125 
Q 32.953125 39.84375 35.171875 41.1875 
Q 37.40625 42.53125 38.84375 44.828125 
Q 40.28125 47.125 40.28125 50.6875 
Q 40.28125 56.203125 37.03125 59.390625 
Q 33.796875 62.59375 27.390625 62.59375 
Q 21.578125 62.59375 17.984375 59.609375 
Q 14.40625 56.640625 13.8125 51.21875 
L 4.984375 51.90625 
Q 5.515625 56.453125 7.46875 59.8125 
Q 9.421875 63.1875 12.421875 65.40625 
Q 15.4375 67.625 19.28125 68.71875 
Q 23.140625 69.828125 27.484375 69.828125 
Q 33.25 69.828125 37.390625 68.375 
Q 41.546875 66.9375 44.1875 64.46875 
Q 46.828125 62.015625 48.0625 58.6875 
Q 49.3125 55.375 49.3125 51.609375 
Q 49.3125 48.578125 48.484375 45.9375 
Q 47.65625 43.3125 45.890625 41.203125 
Q 44.140625 39.109375 41.421875 37.59375 
Q 38.71875 36.078125 34.90625 35.296875 
L 34.90625 35.109375 
Q 39.0625 34.671875 42.140625 33.21875 
Q 45.21875 31.78125 47.21875 29.625 
Q 49.21875 27.484375 50.21875 24.75 
Q 51.21875 22.015625 51.21875 19 
" id="LiberationSans-33"/>
      </defs>
      <g style="fill:#262626;" transform="translate(286.5622222222222 431.6869375)scale(0.1 -0.1)">
       <use xlink:href="#LiberationSans-33"/>
       <use x="55.615234375" xlink:href="#LiberationSans-30"/>
       <use x="111.23046875" xlink:href="#LiberationSans-30"/>
       <use x="166.845703125" xlink:href="#LiberationSans-30"/>
      </g>
     </g>
    </g>
    <g id="xtick_6">
     <g id="line2d_11">
      <path clip-path="url(#p62af6887e8)" d="M 359.130903 417.440062 
L 359.130903 17.620938 
" style="fill:none;stroke:#ffffff;stroke-linecap:round;"/>
     </g>
     <g id="line2d_12">
      <g>
       <use style="fill:#262626;stroke:#262626;" x="359.13090277777775" xlink:href="#m4519893f22" y="417.44006249999995"/>
      </g>
     </g>
     <g id="text_6">
      <!-- 3500 -->
      <g style="fill:#262626;" transform="translate(348.00902777777776 431.6869375)scale(0.1 -0.1)">
       <use xlink:href="#LiberationSans-33"/>
       <use x="55.615234375" xlink:href="#LiberationSans-35"/>
       <use x="111.23046875" xlink:href="#LiberationSans-30"/>
       <use x="166.845703125" xlink:href="#LiberationSans-30"/>
      </g>
     </g>
    </g>
    <g id="xtick_7">
     <g id="line2d_13">
      <path clip-path="url(#p62af6887e8)" d="M 420.577708 417.440062 
L 420.577708 17.620938 
" style="fill:none;stroke:#ffffff;stroke-linecap:round;"/>
     </g>
     <g id="line2d_14">
      <g>
       <use style="fill:#262626;stroke:#262626;" x="420.5777083333333" xlink:href="#m4519893f22" y="417.44006249999995"/>
      </g>
     </g>
     <g id="text_7">
      <!-- 4000 -->
      <defs>
       <path d="M 43.015625 15.578125 
L 43.015625 0 
L 34.71875 0 
L 34.71875 15.578125 
L 2.296875 15.578125 
L 2.296875 22.40625 
L 33.796875 68.796875 
L 43.015625 68.796875 
L 43.015625 22.515625 
L 52.6875 22.515625 
L 52.6875 15.578125 
z
M 34.71875 58.890625 
Q 34.625 58.640625 34.234375 57.9375 
Q 33.84375 57.234375 33.34375 56.34375 
Q 32.859375 55.46875 32.34375 54.5625 
Q 31.84375 53.65625 31.453125 53.078125 
L 13.8125 27.09375 
Q 13.578125 26.703125 13.109375 26.0625 
Q 12.640625 25.4375 12.15625 24.78125 
Q 11.671875 24.125 11.171875 23.484375 
Q 10.6875 22.859375 10.40625 22.515625 
L 34.71875 22.515625 
z
" id="LiberationSans-34"/>
      </defs>
      <g style="fill:#262626;" transform="translate(409.4558333333333 431.6869375)scale(0.1 -0.1)">
       <use xlink:href="#LiberationSans-34"/>
       <use x="55.615234375" xlink:href="#LiberationSans-30"/>
       <use x="111.23046875" xlink:href="#LiberationSans-30"/>
       <use x="166.845703125" xlink:href="#LiberationSans-30"/>
      </g>
     </g>
    </g>
    <g id="xtick_8">
     <g id="line2d_15">
      <path clip-path="url(#p62af6887e8)" d="M 482.024514 417.440062 
L 482.024514 17.620938 
" style="fill:none;stroke:#ffffff;stroke-linecap:round;"/>
     </g>
     <g id="line2d_16">
      <g>
       <use style="fill:#262626;stroke:#262626;" x="482.0245138888888" xlink:href="#m4519893f22" y="417.44006249999995"/>
      </g>
     </g>
     <g id="text_8">
      <!-- 4500 -->
      <g style="fill:#262626;" transform="translate(470.9026388888888 431.6869375)scale(0.1 -0.1)">
       <use xlink:href="#LiberationSans-34"/>
       <use x="55.615234375" xlink:href="#LiberationSans-35"/>
       <use x="111.23046875" xlink:href="#LiberationSans-30"/>
       <use x="166.845703125" xlink:href="#LiberationSans-30"/>
      </g>
     </g>
    </g>
    <g id="xtick_9">
     <g id="line2d_17">
      <path clip-path="url(#p62af6887e8)" d="M 543.471319 417.440062 
L 543.471319 17.620938 
" style="fill:none;stroke:#ffffff;stroke-linecap:round;"/>
     </g>
     <g id="line2d_18">
      <g>
       <use style="fill:#262626;stroke:#262626;" x="543.4713194444444" xlink:href="#m4519893f22" y="417.44006249999995"/>
      </g>
     </g>
     <g id="text_9">
      <!-- 5000 -->
      <g style="fill:#262626;" transform="translate(532.3494444444443 431.6869375)scale(0.1 -0.1)">
       <use xlink:href="#LiberationSans-35"/>
       <use x="55.615234375" xlink:href="#LiberationSans-30"/>
       <use x="111.23046875" xlink:href="#LiberationSans-30"/>
       <use x="166.845703125" xlink:href="#LiberationSans-30"/>
      </g>
     </g>
    </g>
    <g id="xtick_10">
     <g id="line2d_19">
      <path clip-path="url(#p62af6887e8)" d="M 604.918125 417.440062 
L 604.918125 17.620938 
" style="fill:none;stroke:#ffffff;stroke-linecap:round;"/>
     </g>
     <g id="line2d_20">
      <g>
       <use style="fill:#262626;stroke:#262626;" x="604.9181249999999" xlink:href="#m4519893f22" y="417.44006249999995"/>
      </g>
     </g>
     <g id="text_10">
      <!-- 5500 -->
      <g style="fill:#262626;" transform="translate(593.7962499999999 431.6869375)scale(0.1 -0.1)">
       <use xlink:href="#LiberationSans-35"/>
       <use x="55.615234375" xlink:href="#LiberationSans-35"/>
       <use x="111.23046875" xlink:href="#LiberationSans-30"/>
       <use x="166.845703125" xlink:href="#LiberationSans-30"/>
      </g>
     </g>
    </g>
    <g id="text_11">
     <!-- weight -->
     <defs>
      <path d="M 13.484375 24.5625 
Q 13.484375 20.40625 14.328125 16.90625 
Q 15.1875 13.421875 16.96875 10.90625 
Q 18.75 8.40625 21.53125 7 
Q 24.3125 5.609375 28.21875 5.609375 
Q 33.9375 5.609375 37.375 7.90625 
Q 40.828125 10.203125 42.046875 13.71875 
L 49.75 11.53125 
Q 48.921875 9.328125 47.4375 7.109375 
Q 45.953125 4.890625 43.453125 3.09375 
Q 40.96875 1.3125 37.234375 0.15625 
Q 33.5 -0.984375 28.21875 -0.984375 
Q 16.5 -0.984375 10.375 6 
Q 4.25 12.984375 4.25 26.765625 
Q 4.25 34.1875 6.09375 39.328125 
Q 7.953125 44.484375 11.171875 47.703125 
Q 14.40625 50.921875 18.703125 52.359375 
Q 23 53.8125 27.875 53.8125 
Q 34.515625 53.8125 38.984375 51.65625 
Q 43.453125 49.515625 46.15625 45.71875 
Q 48.875 41.9375 50.015625 36.8125 
Q 51.171875 31.6875 51.171875 25.734375 
L 51.171875 24.5625 
z
M 42.09375 31.296875 
Q 41.359375 39.65625 37.84375 43.484375 
Q 34.328125 47.3125 27.734375 47.3125 
Q 25.53125 47.3125 23.109375 46.609375 
Q 20.703125 45.90625 18.65625 44.09375 
Q 16.609375 42.28125 15.1875 39.171875 
Q 13.765625 36.078125 13.578125 31.296875 
z
" id="LiberationSans-65"/>
      <path d="M 27.046875 0.390625 
Q 25.046875 -0.140625 22.96875 -0.453125 
Q 20.90625 -0.78125 18.171875 -0.78125 
Q 7.625 -0.78125 7.625 11.1875 
L 7.625 46.4375 
L 1.515625 46.4375 
L 1.515625 52.828125 
L 7.953125 52.828125 
L 10.546875 64.65625 
L 16.40625 64.65625 
L 16.40625 52.828125 
L 26.171875 52.828125 
L 26.171875 46.4375 
L 16.40625 46.4375 
L 16.40625 13.09375 
Q 16.40625 9.28125 17.640625 7.734375 
Q 18.890625 6.203125 21.96875 6.203125 
Q 23.25 6.203125 24.4375 6.390625 
Q 25.640625 6.59375 27.046875 6.890625 
z
" id="LiberationSans-74"/>
      <path d="M 15.484375 43.796875 
Q 16.9375 46.484375 18.640625 48.359375 
Q 20.359375 50.25 22.40625 51.46875 
Q 24.46875 52.6875 26.90625 53.25 
Q 29.34375 53.8125 32.375 53.8125 
Q 37.453125 53.8125 40.703125 52.4375 
Q 43.953125 51.078125 45.828125 48.609375 
Q 47.703125 46.140625 48.40625 42.71875 
Q 49.125 39.3125 49.125 35.203125 
L 49.125 0 
L 40.28125 0 
L 40.28125 33.5 
Q 40.28125 36.859375 39.859375 39.390625 
Q 39.453125 41.9375 38.28125 43.625 
Q 37.109375 45.3125 34.953125 46.15625 
Q 32.8125 47.015625 29.390625 47.015625 
Q 26.265625 47.015625 23.75 45.890625 
Q 21.234375 44.78125 19.453125 42.71875 
Q 17.671875 40.671875 16.6875 37.734375 
Q 15.71875 34.8125 15.71875 31.15625 
L 15.71875 0 
L 6.9375 0 
L 6.9375 72.46875 
L 15.71875 72.46875 
L 15.71875 53.609375 
Q 15.71875 52 15.671875 50.390625 
Q 15.625 48.78125 15.546875 47.40625 
Q 15.484375 46.046875 15.421875 45.09375 
Q 15.375 44.140625 15.328125 43.796875 
z
" id="LiberationSans-68"/>
      <path d="M 26.765625 -20.75 
Q 22.21875 -20.75 18.703125 -19.8125 
Q 15.1875 -18.890625 12.6875 -17.15625 
Q 10.203125 -15.4375 8.640625 -13.03125 
Q 7.078125 -10.640625 6.390625 -7.71875 
L 15.234375 -6.453125 
Q 16.109375 -10.109375 19.109375 -12.078125 
Q 22.125 -14.0625 27 -14.0625 
Q 29.984375 -14.0625 32.421875 -13.234375 
Q 34.859375 -12.40625 36.5625 -10.5625 
Q 38.28125 -8.734375 39.203125 -5.796875 
Q 40.140625 -2.875 40.140625 1.3125 
L 40.140625 9.8125 
L 40.046875 9.8125 
Q 39.0625 7.8125 37.625 5.984375 
Q 36.1875 4.15625 34.109375 2.734375 
Q 32.03125 1.3125 29.296875 0.453125 
Q 26.5625 -0.390625 23.046875 -0.390625 
Q 18.015625 -0.390625 14.421875 1.296875 
Q 10.84375 2.984375 8.5625 6.34375 
Q 6.296875 9.71875 5.25 14.71875 
Q 4.203125 19.734375 4.203125 26.3125 
Q 4.203125 32.671875 5.25 37.75 
Q 6.296875 42.828125 8.65625 46.359375 
Q 11.03125 49.90625 14.8125 51.78125 
Q 18.609375 53.65625 24.03125 53.65625 
Q 29.640625 53.65625 33.765625 51.09375 
Q 37.890625 48.53125 40.140625 43.796875 
L 40.234375 43.796875 
Q 40.234375 45.015625 40.296875 46.53125 
Q 40.375 48.046875 40.453125 49.390625 
Q 40.53125 50.734375 40.625 51.703125 
Q 40.71875 52.6875 40.828125 52.828125 
L 49.171875 52.828125 
Q 49.125 52.390625 49.078125 51.34375 
Q 49.03125 50.296875 48.96875 48.828125 
Q 48.921875 47.359375 48.890625 45.578125 
Q 48.875 43.796875 48.875 41.890625 
L 48.875 1.515625 
Q 48.875 -9.578125 43.421875 -15.15625 
Q 37.984375 -20.75 26.765625 -20.75 
M 40.140625 26.421875 
Q 40.140625 31.9375 38.9375 35.859375 
Q 37.75 39.796875 35.796875 42.28125 
Q 33.84375 44.78125 31.328125 45.953125 
Q 28.8125 47.125 26.171875 47.125 
Q 22.796875 47.125 20.375 45.953125 
Q 17.96875 44.78125 16.375 42.265625 
Q 14.796875 39.75 14.03125 35.8125 
Q 13.28125 31.890625 13.28125 26.421875 
Q 13.28125 20.703125 14.03125 16.8125 
Q 14.796875 12.9375 16.359375 10.546875 
Q 17.921875 8.15625 20.3125 7.125 
Q 22.703125 6.109375 26.03125 6.109375 
Q 28.65625 6.109375 31.171875 7.21875 
Q 33.6875 8.34375 35.6875 10.78125 
Q 37.703125 13.234375 38.921875 17.09375 
Q 40.140625 20.953125 40.140625 26.421875 
" id="LiberationSans-67"/>
      <path d="M 6.6875 64.0625 
L 6.6875 72.46875 
L 15.484375 72.46875 
L 15.484375 64.0625 
z
M 6.6875 0 
L 6.6875 52.828125 
L 15.484375 52.828125 
L 15.484375 0 
z
" id="LiberationSans-69"/>
      <path d="M 57.328125 0 
L 47.125 0 
L 38.671875 34.078125 
Q 38.28125 35.40625 37.859375 37.359375 
Q 37.453125 39.3125 37.0625 41.15625 
Q 36.578125 43.3125 36.140625 45.609375 
Q 35.6875 43.40625 35.203125 41.265625 
Q 34.8125 39.40625 34.34375 37.40625 
Q 33.890625 35.40625 33.5 33.890625 
L 24.8125 0 
L 14.65625 0 
L -0.140625 52.828125 
L 8.546875 52.828125 
L 17.484375 16.9375 
Q 17.828125 15.828125 18.15625 14.1875 
Q 18.5 12.546875 18.84375 10.984375 
Q 19.1875 9.1875 19.578125 7.28125 
Q 19.96875 9.125 20.40625 10.890625 
Q 20.796875 12.40625 21.1875 13.96875 
Q 21.578125 15.53125 21.875 16.546875 
L 31.453125 52.828125 
L 40.875 52.828125 
L 50.09375 16.546875 
Q 50.4375 15.28125 50.828125 13.671875 
Q 51.21875 12.0625 51.5625 10.640625 
Q 51.953125 8.984375 52.34375 7.28125 
Q 52.734375 9.125 53.125 10.890625 
Q 53.46875 12.40625 53.828125 14.03125 
Q 54.203125 15.671875 54.546875 16.9375 
L 63.875 52.828125 
L 72.46875 52.828125 
z
" id="LiberationSans-77"/>
     </defs>
     <g style="fill:#262626;" transform="translate(312.509921875 446.7335)scale(0.11 -0.11)">
      <use xlink:href="#LiberationSans-77"/>
      <use x="72.216796875" xlink:href="#LiberationSans-65"/>
      <use x="127.83203125" xlink:href="#LiberationSans-69"/>
      <use x="150.048828125" xlink:href="#LiberationSans-67"/>
      <use x="205.6640625" xlink:href="#LiberationSans-68"/>
      <use x="261.279296875" xlink:href="#LiberationSans-74"/>
     </g>
    </g>
   </g>
   <g id="matplotlib.axis_2">
    <g id="ytick_1">
     <g id="line2d_21">
      <path clip-path="url(#p62af6887e8)" d="M 51.896875 417.440062 
L 604.918125 417.440062 
" style="fill:none;stroke:#ffffff;stroke-linecap:round;"/>
     </g>
     <g id="line2d_22">
      <g>
       <use style="fill:#262626;stroke:#262626;" x="51.89687500000001" xlink:href="#m4519893f22" y="417.44006249999995"/>
      </g>
     </g>
     <g id="text_12">
      <!-- 0 -->
      <g style="fill:#262626;" transform="translate(39.33593750000001 420.02599999999995)scale(0.1 -0.1)">
       <use xlink:href="#LiberationSans-30"/>
      </g>
     </g>
    </g>
    <g id="ytick_2">
     <g id="line2d_23">
      <path clip-path="url(#p62af6887e8)" d="M 51.896875 337.476237 
L 604.918125 337.476237 
" style="fill:none;stroke:#ffffff;stroke-linecap:round;"/>
     </g>
     <g id="line2d_24">
      <g>
       <use style="fill:#262626;stroke:#262626;" x="51.89687500000001" xlink:href="#m4519893f22" y="337.47623749999997"/>
      </g>
     </g>
     <g id="text_13">
      <!-- 50 -->
      <g style="fill:#262626;" transform="translate(33.775000000000006 340.062175)scale(0.1 -0.1)">
       <use xlink:href="#LiberationSans-35"/>
       <use x="55.615234375" xlink:href="#LiberationSans-30"/>
      </g>
     </g>
    </g>
    <g id="ytick_3">
     <g id="line2d_25">
      <path clip-path="url(#p62af6887e8)" d="M 51.896875 257.512412 
L 604.918125 257.512412 
" style="fill:none;stroke:#ffffff;stroke-linecap:round;"/>
     </g>
     <g id="line2d_26">
      <g>
       <use style="fill:#262626;stroke:#262626;" x="51.89687500000001" xlink:href="#m4519893f22" y="257.5124125"/>
      </g>
     </g>
     <g id="text_14">
      <!-- 100 -->
      <g style="fill:#262626;" transform="translate(28.214062500000008 260.09835000000004)scale(0.1 -0.1)">
       <use xlink:href="#LiberationSans-31"/>
       <use x="55.615234375" xlink:href="#LiberationSans-30"/>
       <use x="111.23046875" xlink:href="#LiberationSans-30"/>
      </g>
     </g>
    </g>
    <g id="ytick_4">
     <g id="line2d_27">
      <path clip-path="url(#p62af6887e8)" d="M 51.896875 177.548588 
L 604.918125 177.548588 
" style="fill:none;stroke:#ffffff;stroke-linecap:round;"/>
     </g>
     <g id="line2d_28">
      <g>
       <use style="fill:#262626;stroke:#262626;" x="51.89687500000001" xlink:href="#m4519893f22" y="177.54858750000002"/>
      </g>
     </g>
     <g id="text_15">
      <!-- 150 -->
      <g style="fill:#262626;" transform="translate(28.214062500000008 180.13452500000005)scale(0.1 -0.1)">
       <use xlink:href="#LiberationSans-31"/>
       <use x="55.615234375" xlink:href="#LiberationSans-35"/>
       <use x="111.23046875" xlink:href="#LiberationSans-30"/>
      </g>
     </g>
    </g>
    <g id="ytick_5">
     <g id="line2d_29">
      <path clip-path="url(#p62af6887e8)" d="M 51.896875 97.584763 
L 604.918125 97.584763 
" style="fill:none;stroke:#ffffff;stroke-linecap:round;"/>
     </g>
     <g id="line2d_30">
      <g>
       <use style="fill:#262626;stroke:#262626;" x="51.89687500000001" xlink:href="#m4519893f22" y="97.58476250000007"/>
      </g>
     </g>
     <g id="text_16">
      <!-- 200 -->
      <g style="fill:#262626;" transform="translate(28.214062500000008 100.17070000000007)scale(0.1 -0.1)">
       <use xlink:href="#LiberationSans-32"/>
       <use x="55.615234375" xlink:href="#LiberationSans-30"/>
       <use x="111.23046875" xlink:href="#LiberationSans-30"/>
      </g>
     </g>
    </g>
    <g id="ytick_6">
     <g id="line2d_31">
      <path clip-path="url(#p62af6887e8)" d="M 51.896875 17.620938 
L 604.918125 17.620938 
" style="fill:none;stroke:#ffffff;stroke-linecap:round;"/>
     </g>
     <g id="line2d_32">
      <g>
       <use style="fill:#262626;stroke:#262626;" x="51.89687500000001" xlink:href="#m4519893f22" y="17.620937500000082"/>
      </g>
     </g>
     <g id="text_17">
      <!-- 250 -->
      <g style="fill:#262626;" transform="translate(28.214062500000008 20.206875000000082)scale(0.1 -0.1)">
       <use xlink:href="#LiberationSans-32"/>
       <use x="55.615234375" xlink:href="#LiberationSans-35"/>
       <use x="111.23046875" xlink:href="#LiberationSans-30"/>
      </g>
     </g>
    </g>
    <g id="text_18">
     <!-- hp -->
     <defs>
      <path d="M 51.421875 26.65625 
Q 51.421875 20.65625 50.4375 15.578125 
Q 49.46875 10.5 47.1875 6.828125 
Q 44.921875 3.171875 41.1875 1.09375 
Q 37.453125 -0.984375 31.984375 -0.984375 
Q 26.3125 -0.984375 22.0625 1.171875 
Q 17.828125 3.328125 15.578125 8.203125 
L 15.328125 8.203125 
Q 15.375 8.109375 15.40625 7.328125 
Q 15.4375 6.546875 15.453125 5.375 
Q 15.484375 4.203125 15.5 2.75 
Q 15.53125 1.3125 15.53125 -0.09375 
L 15.53125 -20.75 
L 6.734375 -20.75 
L 6.734375 42.046875 
Q 6.734375 43.953125 6.703125 45.703125 
Q 6.6875 47.46875 6.640625 48.90625 
Q 6.59375 50.34375 6.546875 51.359375 
Q 6.5 52.390625 6.453125 52.828125 
L 14.9375 52.828125 
Q 14.984375 52.6875 15.0625 51.796875 
Q 15.140625 50.921875 15.203125 49.671875 
Q 15.28125 48.4375 15.359375 47.015625 
Q 15.4375 45.609375 15.4375 44.34375 
L 15.625 44.34375 
Q 16.84375 46.875 18.40625 48.65625 
Q 19.96875 50.4375 21.96875 51.578125 
Q 23.96875 52.734375 26.4375 53.25 
Q 28.90625 53.765625 31.984375 53.765625 
Q 37.453125 53.765625 41.1875 51.8125 
Q 44.921875 49.859375 47.1875 46.3125 
Q 49.46875 42.78125 50.4375 37.765625 
Q 51.421875 32.765625 51.421875 26.65625 
M 42.1875 26.46875 
Q 42.1875 31.34375 41.59375 35.15625 
Q 41.015625 38.96875 39.578125 41.59375 
Q 38.140625 44.234375 35.734375 45.59375 
Q 33.34375 46.96875 29.734375 46.96875 
Q 26.8125 46.96875 24.21875 46.140625 
Q 21.625 45.3125 19.703125 42.96875 
Q 17.78125 40.625 16.65625 36.5 
Q 15.53125 32.375 15.53125 25.78125 
Q 15.53125 20.171875 16.453125 16.28125 
Q 17.390625 12.40625 19.171875 10.015625 
Q 20.953125 7.625 23.578125 6.5625 
Q 26.21875 5.515625 29.640625 5.515625 
Q 33.296875 5.515625 35.71875 6.921875 
Q 38.140625 8.34375 39.578125 11.03125 
Q 41.015625 13.71875 41.59375 17.59375 
Q 42.1875 21.484375 42.1875 26.46875 
" id="LiberationSans-70"/>
     </defs>
     <g style="fill:#262626;" transform="translate(20.931562500000005 223.64753125000004)rotate(-90.0)scale(0.11 -0.11)">
      <use xlink:href="#LiberationSans-68"/>
      <use x="55.615234375" xlink:href="#LiberationSans-70"/>
     </g>
    </g>
   </g>
   <g id="PathCollection_1">
    <defs>
     <path d="M 0 2.236068 
C 0.593012 2.236068 1.161816 2.000462 1.581139 1.581139 
C 2.000462 1.161816 2.236068 0.593012 2.236068 0 
C 2.236068 -0.593012 2.000462 -1.161816 1.581139 -1.581139 
C 1.161816 -2.000462 0.593012 -2.236068 0 -2.236068 
C -0.593012 -2.236068 -1.161816 -2.000462 -1.581139 -1.581139 
C -2.000462 -1.161816 -2.236068 -0.593012 -2.236068 0 
C -2.236068 0.593012 -2.000462 1.161816 -1.581139 1.581139 
C -1.161816 2.000462 -0.593012 2.236068 0 2.236068 
z
" id="m4c1703153e"/>
    </defs>
    <g clip-path="url(#p62af6887e8)">
     <use style="fill:#4c72b0;fill-opacity:0.8;" x="314.76630916666664" xlink:href="#m4c1703153e" y="276.7037305"/>
     <use style="fill:#4c72b0;fill-opacity:0.8;" x="510.5358316666666" xlink:href="#m4c1703153e" y="108.77969800000005"/>
     <use style="fill:#4c72b0;fill-opacity:0.8;" x="150.21176388888887" xlink:href="#m4c1703153e" y="321.48347249999995"/>
     <use style="fill:#4c72b0;fill-opacity:0.8;" x="362.2032430555555" xlink:href="#m4c1703153e" y="260.7109655"/>
     <use style="fill:#4c72b0;fill-opacity:0.8;" x="197.89448499999997" xlink:href="#m4c1703153e" y="292.69649549999997"/>
     <use style="fill:#4c72b0;fill-opacity:0.8;" x="250.3700569444444" xlink:href="#m4c1703153e" y="257.5124125"/>
     <use style="fill:#4c72b0;fill-opacity:0.8;" x="207.35729305555554" xlink:href="#m4c1703153e" y="297.494325"/>
     <use style="fill:#4c72b0;fill-opacity:0.8;" x="237.58912138888888" xlink:href="#m4c1703153e" y="295.8950485"/>
     <use style="fill:#4c72b0;fill-opacity:0.8;" x="456.8313236111111" xlink:href="#m4c1703153e" y="209.5341175"/>
     <use style="fill:#4c72b0;fill-opacity:0.8;" x="352.86332861111106" xlink:href="#m4c1703153e" y="193.54135250000002"/>
     <use style="fill:#4c72b0;fill-opacity:0.8;" x="190.76665555555553" xlink:href="#m4c1703153e" y="334.27768449999996"/>
     <use style="fill:#4c72b0;fill-opacity:0.8;" x="265.7317583333333" xlink:href="#m4c1703153e" y="276.7037305"/>
     <use style="fill:#4c72b0;fill-opacity:0.8;" x="211.04410138888886" xlink:href="#m4c1703153e" y="283.1008365"/>
     <use style="fill:#4c72b0;fill-opacity:0.8;" x="501.31881083333326" xlink:href="#m4c1703153e" y="180.74714050000003"/>
     <use style="fill:#4c72b0;fill-opacity:0.8;" x="391.2061352777777" xlink:href="#m4c1703153e" y="177.54858750000002"/>
     <use style="fill:#4c72b0;fill-opacity:0.8;" x="432.6212822222222" xlink:href="#m4c1703153e" y="209.5341175"/>
     <use style="fill:#4c72b0;fill-opacity:0.8;" x="153.28410416666665" xlink:href="#m4c1703153e" y="324.6820255"/>
     <use style="fill:#4c72b0;fill-opacity:0.8;" x="263.2738861111111" xlink:href="#m4c1703153e" y="286.29938949999996"/>
     <use style="fill:#4c72b0;fill-opacity:0.8;" x="154.63593388888887" xlink:href="#m4c1703153e" y="313.48708999999997"/>
     <use style="fill:#4c72b0;fill-opacity:0.8;" x="263.2738861111111" xlink:href="#m4c1703153e" y="241.5196475"/>
     <use style="fill:#4c72b0;fill-opacity:0.8;" x="330.12801055555553" xlink:href="#m4c1703153e" y="265.50879499999996"/>
     <use style="fill:#4c72b0;fill-opacity:0.8;" x="409.1486024999999" xlink:href="#m4c1703153e" y="241.5196475"/>
     <use style="fill:#4c72b0;fill-opacity:0.8;" x="437.90570749999995" xlink:href="#m4c1703153e" y="193.54135250000002"/>
     <use style="fill:#4c72b0;fill-opacity:0.8;" x="366.87320027777776" xlink:href="#m4c1703153e" y="145.5630575"/>
     <use style="fill:#4c72b0;fill-opacity:0.8;" x="247.54350388888884" xlink:href="#m4c1703153e" y="292.69649549999997"/>
     <use style="fill:#4c72b0;fill-opacity:0.8;" x="207.35729305555554" xlink:href="#m4c1703153e" y="273.5051775"/>
     <use style="fill:#4c72b0;fill-opacity:0.8;" x="256.51473749999997" xlink:href="#m4c1703153e" y="263.9095185"/>
     <use style="fill:#4c72b0;fill-opacity:0.8;" x="220.50690944444443" xlink:href="#m4c1703153e" y="265.50879499999996"/>
     <use style="fill:#4c72b0;fill-opacity:0.8;" x="302.4769480555555" xlink:href="#m4c1703153e" y="241.5196475"/>
     <use style="fill:#4c72b0;fill-opacity:0.8;" x="241.39882333333333" xlink:href="#m4c1703153e" y="297.494325"/>
     <use style="fill:#4c72b0;fill-opacity:0.8;" x="286.6236722222222" xlink:href="#m4c1703153e" y="206.3355645"/>
     <use style="fill:#4c72b0;fill-opacity:0.8;" x="407.3051983333333" xlink:href="#m4c1703153e" y="177.54858750000002"/>
     <use style="fill:#4c72b0;fill-opacity:0.8;" x="253.3195036111111" xlink:href="#m4c1703153e" y="284.700113"/>
     <use style="fill:#4c72b0;fill-opacity:0.8;" x="354.82962638888887" xlink:href="#m4c1703153e" y="281.50156"/>
     <use style="fill:#4c72b0;fill-opacity:0.8;" x="231.81312166666663" xlink:href="#m4c1703153e" y="279.90228349999995"/>
     <use style="fill:#4c72b0;fill-opacity:0.8;" x="194.20767666666666" xlink:href="#m4c1703153e" y="297.494325"/>
     <use style="fill:#4c72b0;fill-opacity:0.8;" x="498.9838322222222" xlink:href="#m4c1703153e" y="193.54135250000002"/>
     <use style="fill:#4c72b0;fill-opacity:0.8;" x="322.87728749999997" xlink:href="#m4c1703153e" y="195.14062900000002"/>
     <use style="fill:#4c72b0;fill-opacity:0.8;" x="190.15218749999997" xlink:href="#m4c1703153e" y="305.4907075"/>
     <use style="fill:#4c72b0;fill-opacity:0.8;" x="179.0917625" xlink:href="#m4c1703153e" y="334.27768449999996"/>
     <use style="fill:#4c72b0;fill-opacity:0.8;" x="145.29601944444443" xlink:href="#m4c1703153e" y="321.48347249999995"/>
     <use style="fill:#4c72b0;fill-opacity:0.8;" x="220.26112222222218" xlink:href="#m4c1703153e" y="283.1008365"/>
     <use style="fill:#4c72b0;fill-opacity:0.8;" x="415.0474958333333" xlink:href="#m4c1703153e" y="196.73990550000002"/>
     <use style="fill:#4c72b0;fill-opacity:0.8;" x="447.61430277777777" xlink:href="#m4c1703153e" y="129.57029250000005"/>
     <use style="fill:#4c72b0;fill-opacity:0.8;" x="221.4900583333333" xlink:href="#m4c1703153e" y="313.48708999999997"/>
     <use style="fill:#4c72b0;fill-opacity:0.8;" x="168.64580555555554" xlink:href="#m4c1703153e" y="310.288537"/>
     <use style="fill:#4c72b0;fill-opacity:0.8;" x="211.65856944444442" xlink:href="#m4c1703153e" y="262.310242"/>
     <use style="fill:#4c72b0;fill-opacity:0.8;" x="476.7400886111111" xlink:href="#m4c1703153e" y="177.54858750000002"/>
     <use style="fill:#4c72b0;fill-opacity:0.8;" x="189.5377194444444" xlink:href="#m4c1703153e" y="305.4907075"/>
     <use style="fill:#4c72b0;fill-opacity:0.8;" x="338.97635055555554" xlink:href="#m4c1703153e" y="257.5124125"/>
     <use style="fill:#4c72b0;fill-opacity:0.8;" x="537.9411069444444" xlink:href="#m4c1703153e" y="129.57029250000005"/>
     <use style="fill:#4c72b0;fill-opacity:0.8;" x="386.7819652777777" xlink:href="#m4c1703153e" y="211.133394"/>
     <use style="fill:#4c72b0;fill-opacity:0.8;" x="202.81022944444442" xlink:href="#m4c1703153e" y="265.50879499999996"/>
     <use style="fill:#4c72b0;fill-opacity:0.8;" x="257.12920555555553" xlink:href="#m4c1703153e" y="273.5051775"/>
     <use style="fill:#4c72b0;fill-opacity:0.8;" x="201.70418694444442" xlink:href="#m4c1703153e" y="284.700113"/>
     <use style="fill:#4c72b0;fill-opacity:0.8;" x="203.05601666666666" xlink:href="#m4c1703153e" y="297.494325"/>
     <use style="fill:#4c72b0;fill-opacity:0.8;" x="287.1152466666666" xlink:href="#m4c1703153e" y="257.5124125"/>
     <use style="fill:#4c72b0;fill-opacity:0.8;" x="306.28664999999995" xlink:href="#m4c1703153e" y="281.50156"/>
     <use style="fill:#4c72b0;fill-opacity:0.8;" x="277.40665138888886" xlink:href="#m4c1703153e" y="238.32109450000002"/>
     <use style="fill:#4c72b0;fill-opacity:0.8;" x="170.4892097222222" xlink:href="#m4c1703153e" y="310.288537"/>
     <use style="fill:#4c72b0;fill-opacity:0.8;" x="146.89363638888886" xlink:href="#m4c1703153e" y="313.48708999999997"/>
     <use style="fill:#4c72b0;fill-opacity:0.8;" x="334.7979677777777" xlink:href="#m4c1703153e" y="276.7037305"/>
     <use style="fill:#4c72b0;fill-opacity:0.8;" x="393.66400749999997" xlink:href="#m4c1703153e" y="257.5124125"/>
     <use style="fill:#4c72b0;fill-opacity:0.8;" x="241.39882333333333" xlink:href="#m4c1703153e" y="297.494325"/>
     <use style="fill:#4c72b0;fill-opacity:0.8;" x="326.3183086111111" xlink:href="#m4c1703153e" y="257.5124125"/>
     <use style="fill:#4c72b0;fill-opacity:0.8;" x="169.2602736111111" xlink:href="#m4c1703153e" y="305.4907075"/>
     <use style="fill:#4c72b0;fill-opacity:0.8;" x="427.3368569444444" xlink:href="#m4c1703153e" y="185.54497"/>
     <use style="fill:#4c72b0;fill-opacity:0.8;" x="342.54026527777773" xlink:href="#m4c1703153e" y="241.5196475"/>
     <use style="fill:#4c72b0;fill-opacity:0.8;" x="467.52306777777767" xlink:href="#m4c1703153e" y="81.59199750000005"/>
     <use style="fill:#4c72b0;fill-opacity:0.8;" x="194.9450383333333" xlink:href="#m4c1703153e" y="289.4979425"/>
     <use style="fill:#4c72b0;fill-opacity:0.8;" x="437.7828138888888" xlink:href="#m4c1703153e" y="185.54497"/>
     <use style="fill:#4c72b0;fill-opacity:0.8;" x="198.0173786111111" xlink:href="#m4c1703153e" y="307.08998399999996"/>
     <use style="fill:#4c72b0;fill-opacity:0.8;" x="449.7034941666666" xlink:href="#m4c1703153e" y="177.54858750000002"/>
     <use style="fill:#4c72b0;fill-opacity:0.8;" x="537.572426111111" xlink:href="#m4c1703153e" y="100.78331550000007"/>
     <use style="fill:#4c72b0;fill-opacity:0.8;" x="289.08154444444443" xlink:href="#m4c1703153e" y="225.5268825"/>
     <use style="fill:#4c72b0;fill-opacity:0.8;" x="245.08563166666664" xlink:href="#m4c1703153e" y="270.3066245"/>
     <use style="fill:#4c72b0;fill-opacity:0.8;" x="308.13005416666664" xlink:href="#m4c1703153e" y="273.5051775"/>
     <use style="fill:#4c72b0;fill-opacity:0.8;" x="260.81601388888885" xlink:href="#m4c1703153e" y="233.523265"/>
     <use style="fill:#4c72b0;fill-opacity:0.8;" x="285.8863105555555" xlink:href="#m4c1703153e" y="265.50879499999996"/>
     <use style="fill:#4c72b0;fill-opacity:0.8;" x="205.02231444444442" xlink:href="#m4c1703153e" y="297.494325"/>
     <use style="fill:#4c72b0;fill-opacity:0.8;" x="317.34707499999996" xlink:href="#m4c1703153e" y="295.8950485"/>
     <use style="fill:#4c72b0;fill-opacity:0.8;" x="174.7904861111111" xlink:href="#m4c1703153e" y="310.288537"/>
     <use style="fill:#4c72b0;fill-opacity:0.8;" x="321.0338833333333" xlink:href="#m4c1703153e" y="303.891431"/>
     <use style="fill:#4c72b0;fill-opacity:0.8;" x="327.7930319444444" xlink:href="#m4c1703153e" y="233.523265"/>
     <use style="fill:#4c72b0;fill-opacity:0.8;" x="239.3096319444444" xlink:href="#m4c1703153e" y="283.1008365"/>
     <use style="fill:#4c72b0;fill-opacity:0.8;" x="246.31456777777777" xlink:href="#m4c1703153e" y="271.905901"/>
     <use style="fill:#4c72b0;fill-opacity:0.8;" x="506.4803424999999" xlink:href="#m4c1703153e" y="177.54858750000002"/>
     <use style="fill:#4c72b0;fill-opacity:0.8;" x="458.9205149999999" xlink:href="#m4c1703153e" y="73.59561500000007"/>
     <use style="fill:#4c72b0;fill-opacity:0.8;" x="174.17601805555555" xlink:href="#m4c1703153e" y="310.288537"/>
     <use style="fill:#4c72b0;fill-opacity:0.8;" x="560.6764249999999" xlink:href="#m4c1703153e" y="137.56667500000003"/>
     <use style="fill:#4c72b0;fill-opacity:0.8;" x="194.9450383333333" xlink:href="#m4c1703153e" y="321.48347249999995"/>
     <use style="fill:#4c72b0;fill-opacity:0.8;" x="432.8670694444444" xlink:href="#m4c1703153e" y="137.56667500000003"/>
     <use style="fill:#4c72b0;fill-opacity:0.8;" x="290.92494861111106" xlink:href="#m4c1703153e" y="241.5196475"/>
     <use style="fill:#4c72b0;fill-opacity:0.8;" x="208.95490999999998" xlink:href="#m4c1703153e" y="265.50879499999996"/>
     <use style="fill:#4c72b0;fill-opacity:0.8;" x="172.94708194444442" xlink:href="#m4c1703153e" y="308.6892605"/>
     <use style="fill:#4c72b0;fill-opacity:0.8;" x="477.6003438888888" xlink:href="#m4c1703153e" y="177.54858750000002"/>
     <use style="fill:#4c72b0;fill-opacity:0.8;" x="156.35644444444443" xlink:href="#m4c1703153e" y="310.288537"/>
     <use style="fill:#4c72b0;fill-opacity:0.8;" x="316.7326069444444" xlink:href="#m4c1703153e" y="265.50879499999996"/>
     <use style="fill:#4c72b0;fill-opacity:0.8;" x="293.01413999999994" xlink:href="#m4c1703153e" y="241.5196475"/>
     <use style="fill:#4c72b0;fill-opacity:0.8;" x="266.34622638888885" xlink:href="#m4c1703153e" y="249.51603"/>
     <use style="fill:#4c72b0;fill-opacity:0.8;" x="316.11813888888884" xlink:href="#m4c1703153e" y="254.3138595"/>
     <use style="fill:#4c72b0;fill-opacity:0.8;" x="255.9002694444444" xlink:href="#m4c1703153e" y="241.5196475"/>
     <use style="fill:#4c72b0;fill-opacity:0.8;" x="267.5751625" xlink:href="#m4c1703153e" y="275.10445400000003"/>
     <use style="fill:#4c72b0;fill-opacity:0.8;" x="150.21176388888887" xlink:href="#m4c1703153e" y="311.8878135"/>
     <use style="fill:#4c72b0;fill-opacity:0.8;" x="292.39967194444444" xlink:href="#m4c1703153e" y="276.7037305"/>
     <use style="fill:#4c72b0;fill-opacity:0.8;" x="188.0629961111111" xlink:href="#m4c1703153e" y="297.494325"/>
     <use style="fill:#4c72b0;fill-opacity:0.8;" x="368.22502999999995" xlink:href="#m4c1703153e" y="292.69649549999997"/>
     <use style="fill:#4c72b0;fill-opacity:0.8;" x="386.7819652777777" xlink:href="#m4c1703153e" y="249.51603"/>
     <use style="fill:#4c72b0;fill-opacity:0.8;" x="173.56154999999998" xlink:href="#m4c1703153e" y="305.4907075"/>
     <use style="fill:#4c72b0;fill-opacity:0.8;" x="276.7921833333333" xlink:href="#m4c1703153e" y="252.714583"/>
     <use style="fill:#4c72b0;fill-opacity:0.8;" x="154.39014666666665" xlink:href="#m4c1703153e" y="321.48347249999995"/>
     <use style="fill:#4c72b0;fill-opacity:0.8;" x="380.26860388888883" xlink:href="#m4c1703153e" y="177.54858750000002"/>
     <use style="fill:#4c72b0;fill-opacity:0.8;" x="224.07082416666663" xlink:href="#m4c1703153e" y="302.2921545"/>
     <use style="fill:#4c72b0;fill-opacity:0.8;" x="512.2563422222222" xlink:href="#m4c1703153e" y="145.5630575"/>
     <use style="fill:#4c72b0;fill-opacity:0.8;" x="227.63473888888888" xlink:href="#m4c1703153e" y="273.5051775"/>
     <use style="fill:#4c72b0;fill-opacity:0.8;" x="427.95132499999994" xlink:href="#m4c1703153e" y="241.5196475"/>
     <use style="fill:#4c72b0;fill-opacity:0.8;" x="144.68155138888886" xlink:href="#m4c1703153e" y="324.6820255"/>
     <use style="fill:#4c72b0;fill-opacity:0.8;" x="446.9998347222222" xlink:href="#m4c1703153e" y="174.35003450000002"/>
     <use style="fill:#4c72b0;fill-opacity:0.8;" x="419.10298499999993" xlink:href="#m4c1703153e" y="185.54497"/>
     <use style="fill:#4c72b0;fill-opacity:0.8;" x="367.7334555555555" xlink:href="#m4c1703153e" y="195.14062900000002"/>
     <use style="fill:#4c72b0;fill-opacity:0.8;" x="199.61499555555554" xlink:href="#m4c1703153e" y="284.700113"/>
     <use style="fill:#4c72b0;fill-opacity:0.8;" x="127.2306586111111" xlink:href="#m4c1703153e" y="307.08998399999996"/>
     <use style="fill:#4c72b0;fill-opacity:0.8;" x="393.17243305555553" xlink:href="#m4c1703153e" y="177.54858750000002"/>
     <use style="fill:#4c72b0;fill-opacity:0.8;" x="291.5394166666666" xlink:href="#m4c1703153e" y="310.288537"/>
     <use style="fill:#4c72b0;fill-opacity:0.8;" x="193.83899583333329" xlink:href="#m4c1703153e" y="289.4979425"/>
     <use style="fill:#4c72b0;fill-opacity:0.8;" x="165.57346527777776" xlink:href="#m4c1703153e" y="303.891431"/>
     <use style="fill:#4c72b0;fill-opacity:0.8;" x="154.51304027777778" xlink:href="#m4c1703153e" y="343.8733435"/>
     <use style="fill:#4c72b0;fill-opacity:0.8;" x="351.63439249999993" xlink:href="#m4c1703153e" y="249.51603"/>
     <use style="fill:#4c72b0;fill-opacity:0.8;" x="224.93107944444444" xlink:href="#m4c1703153e" y="273.5051775"/>
     <use style="fill:#4c72b0;fill-opacity:0.8;" x="373.8781361111111" xlink:href="#m4c1703153e" y="241.5196475"/>
     <use style="fill:#4c72b0;fill-opacity:0.8;" x="477.6003438888888" xlink:href="#m4c1703153e" y="137.56667500000003"/>
     <use style="fill:#4c72b0;fill-opacity:0.8;" x="190.2750811111111" xlink:href="#m4c1703153e" y="289.4979425"/>
     <use style="fill:#4c72b0;fill-opacity:0.8;" x="198.14027222222222" xlink:href="#m4c1703153e" y="299.0936015"/>
     <use style="fill:#4c72b0;fill-opacity:0.8;" x="432.37549499999994" xlink:href="#m4c1703153e" y="177.54858750000002"/>
     <use style="fill:#4c72b0;fill-opacity:0.8;" x="413.2040916666666" xlink:href="#m4c1703153e" y="177.54858750000002"/>
     <use style="fill:#4c72b0;fill-opacity:0.8;" x="177.1254647222222" xlink:href="#m4c1703153e" y="313.48708999999997"/>
     <use style="fill:#4c72b0;fill-opacity:0.8;" x="333.07745722222217" xlink:href="#m4c1703153e" y="257.5124125"/>
     <use style="fill:#4c72b0;fill-opacity:0.8;" x="185.23644305555553" xlink:href="#m4c1703153e" y="340.6747905"/>
     <use style="fill:#4c72b0;fill-opacity:0.8;" x="354.0922647222222" xlink:href="#m4c1703153e" y="249.51603"/>
     <use style="fill:#4c72b0;fill-opacity:0.8;" x="207.23439944444442" xlink:href="#m4c1703153e" y="273.5051775"/>
     <use style="fill:#4c72b0;fill-opacity:0.8;" x="215.9598458333333" xlink:href="#m4c1703153e" y="340.6747905"/>
     <use style="fill:#4c72b0;fill-opacity:0.8;" x="344.3836694444444" xlink:href="#m4c1703153e" y="249.51603"/>
     <use style="fill:#4c72b0;fill-opacity:0.8;" x="363.43217916666663" xlink:href="#m4c1703153e" y="249.51603"/>
     <use style="fill:#4c72b0;fill-opacity:0.8;" x="281.70792777777774" xlink:href="#m4c1703153e" y="276.7037305"/>
     <use style="fill:#4c72b0;fill-opacity:0.8;" x="290.92494861111106" xlink:href="#m4c1703153e" y="257.5124125"/>
     <use style="fill:#4c72b0;fill-opacity:0.8;" x="193.83899583333329" xlink:href="#m4c1703153e" y="297.494325"/>
     <use style="fill:#4c72b0;fill-opacity:0.8;" x="203.5475911111111" xlink:href="#m4c1703153e" y="236.721818"/>
     <use style="fill:#4c72b0;fill-opacity:0.8;" x="472.43881222222217" xlink:href="#m4c1703153e" y="113.57752750000003"/>
     <use style="fill:#4c72b0;fill-opacity:0.8;" x="250.98452499999996" xlink:href="#m4c1703153e" y="270.3066245"/>
     <use style="fill:#4c72b0;fill-opacity:0.8;" x="325.9496277777777" xlink:href="#m4c1703153e" y="289.4979425"/>
     <use style="fill:#4c72b0;fill-opacity:0.8;" x="454.2505577777778" xlink:href="#m4c1703153e" y="153.55944000000005"/>
     <use style="fill:#4c72b0;fill-opacity:0.8;" x="467.27728055555554" xlink:href="#m4c1703153e" y="129.57029250000005"/>
     <use style="fill:#4c72b0;fill-opacity:0.8;" x="173.56154999999998" xlink:href="#m4c1703153e" y="303.891431"/>
     <use style="fill:#4c72b0;fill-opacity:0.8;" x="234.88546194444444" xlink:href="#m4c1703153e" y="262.310242"/>
     <use style="fill:#4c72b0;fill-opacity:0.8;" x="317.1012877777777" xlink:href="#m4c1703153e" y="302.2921545"/>
     <use style="fill:#4c72b0;fill-opacity:0.8;" x="373.01788083333327" xlink:href="#m4c1703153e" y="249.51603"/>
     <use style="fill:#4c72b0;fill-opacity:0.8;" x="243.1193338888889" xlink:href="#m4c1703153e" y="273.5051775"/>
     <use style="fill:#4c72b0;fill-opacity:0.8;" x="217.80325" xlink:href="#m4c1703153e" y="297.494325"/>
     <use style="fill:#4c72b0;fill-opacity:0.8;" x="190.76665555555553" xlink:href="#m4c1703153e" y="276.7037305"/>
     <use style="fill:#4c72b0;fill-opacity:0.8;" x="482.27030111111105" xlink:href="#m4c1703153e" y="169.55220500000001"/>
     <use style="fill:#4c72b0;fill-opacity:0.8;" x="171.10367777777776" xlink:href="#m4c1703153e" y="308.6892605"/>
     <use style="fill:#4c72b0;fill-opacity:0.8;" x="258.1123544444444" xlink:href="#m4c1703153e" y="273.5051775"/>
     <use style="fill:#4c72b0;fill-opacity:0.8;" x="235.0083555555555" xlink:href="#m4c1703153e" y="283.1008365"/>
     <use style="fill:#4c72b0;fill-opacity:0.8;" x="295.1033313888889" xlink:href="#m4c1703153e" y="278.303007"/>
     <use style="fill:#4c72b0;fill-opacity:0.8;" x="281.46214055555555" xlink:href="#m4c1703153e" y="238.32109450000002"/>
     <use style="fill:#4c72b0;fill-opacity:0.8;" x="257.3749927777777" xlink:href="#m4c1703153e" y="278.303007"/>
     <use style="fill:#4c72b0;fill-opacity:0.8;" x="408.28834722222217" xlink:href="#m4c1703153e" y="217.53050000000002"/>
     <use style="fill:#4c72b0;fill-opacity:0.8;" x="289.08154444444443" xlink:href="#m4c1703153e" y="244.7182005"/>
     <use style="fill:#4c72b0;fill-opacity:0.8;" x="427.21396333333325" xlink:href="#m4c1703153e" y="190.3427995"/>
     <use style="fill:#4c72b0;fill-opacity:0.8;" x="224.56239861111106" xlink:href="#m4c1703153e" y="262.310242"/>
     <use style="fill:#4c72b0;fill-opacity:0.8;" x="341.0655419444444" xlink:href="#m4c1703153e" y="249.51603"/>
     <use style="fill:#4c72b0;fill-opacity:0.8;" x="195.8052936111111" xlink:href="#m4c1703153e" y="297.494325"/>
     <use style="fill:#4c72b0;fill-opacity:0.8;" x="425.73923999999994" xlink:href="#m4c1703153e" y="198.33918200000002"/>
     <use style="fill:#4c72b0;fill-opacity:0.8;" x="346.7186480555555" xlink:href="#m4c1703153e" y="177.54858750000002"/>
     <use style="fill:#4c72b0;fill-opacity:0.8;" x="253.4423972222222" xlink:href="#m4c1703153e" y="276.7037305"/>
     <use style="fill:#4c72b0;fill-opacity:0.8;" x="474.65089722222217" xlink:href="#m4c1703153e" y="185.54497"/>
     <use style="fill:#4c72b0;fill-opacity:0.8;" x="181.05806027777777" xlink:href="#m4c1703153e" y="316.68564299999997"/>
     <use style="fill:#4c72b0;fill-opacity:0.8;" x="220.87559027777775" xlink:href="#m4c1703153e" y="265.50879499999996"/>
     <use style="fill:#4c72b0;fill-opacity:0.8;" x="446.9998347222222" xlink:href="#m4c1703153e" y="193.54135250000002"/>
     <use style="fill:#4c72b0;fill-opacity:0.8;" x="223.3334625" xlink:href="#m4c1703153e" y="276.7037305"/>
     <use style="fill:#4c72b0;fill-opacity:0.8;" x="299.5275013888889" xlink:href="#m4c1703153e" y="281.50156"/>
     <use style="fill:#4c72b0;fill-opacity:0.8;" x="183.8846133333333" xlink:href="#m4c1703153e" y="305.4907075"/>
     <use style="fill:#4c72b0;fill-opacity:0.8;" x="296.45516111111107" xlink:href="#m4c1703153e" y="281.50156"/>
     <use style="fill:#4c72b0;fill-opacity:0.8;" x="257.25209916666665" xlink:href="#m4c1703153e" y="233.523265"/>
     <use style="fill:#4c72b0;fill-opacity:0.8;" x="202.56444222222223" xlink:href="#m4c1703153e" y="279.90228349999995"/>
     <use style="fill:#4c72b0;fill-opacity:0.8;" x="206.12835694444442" xlink:href="#m4c1703153e" y="291.097219"/>
     <use style="fill:#4c72b0;fill-opacity:0.8;" x="398.4568583333333" xlink:href="#m4c1703153e" y="225.5268825"/>
     <use style="fill:#4c72b0;fill-opacity:0.8;" x="348.07047777777774" xlink:href="#m4c1703153e" y="225.5268825"/>
     <use style="fill:#4c72b0;fill-opacity:0.8;" x="188.30878333333334" xlink:href="#m4c1703153e" y="313.48708999999997"/>
     <use style="fill:#4c72b0;fill-opacity:0.8;" x="248.52665277777777" xlink:href="#m4c1703153e" y="241.5196475"/>
     <use style="fill:#4c72b0;fill-opacity:0.8;" x="464.08204666666666" xlink:href="#m4c1703153e" y="65.59923250000003"/>
     <use style="fill:#4c72b0;fill-opacity:0.8;" x="272.4909069444444" xlink:href="#m4c1703153e" y="233.523265"/>
     <use style="fill:#4c72b0;fill-opacity:0.8;" x="440.85515416666664" xlink:href="#m4c1703153e" y="145.5630575"/>
     <use style="fill:#4c72b0;fill-opacity:0.8;" x="350.52834999999993" xlink:href="#m4c1703153e" y="257.5124125"/>
     <use style="fill:#4c72b0;fill-opacity:0.8;" x="349.29941388888886" xlink:href="#m4c1703153e" y="273.5051775"/>
     <use style="fill:#4c72b0;fill-opacity:0.8;" x="537.4495324999999" xlink:href="#m4c1703153e" y="57.602850000000046"/>
     <use style="fill:#4c72b0;fill-opacity:0.8;" x="293.3828208333333" xlink:href="#m4c1703153e" y="281.50156"/>
     <use style="fill:#4c72b0;fill-opacity:0.8;" x="180.32069861111108" xlink:href="#m4c1703153e" y="313.48708999999997"/>
     <use style="fill:#4c72b0;fill-opacity:0.8;" x="236.97465333333332" xlink:href="#m4c1703153e" y="262.310242"/>
     <use style="fill:#4c72b0;fill-opacity:0.8;" x="298.0527780555555" xlink:href="#m4c1703153e" y="273.5051775"/>
     <use style="fill:#4c72b0;fill-opacity:0.8;" x="323.61464916666665" xlink:href="#m4c1703153e" y="273.5051775"/>
     <use style="fill:#4c72b0;fill-opacity:0.8;" x="158.4456358333333" xlink:href="#m4c1703153e" y="339.075514"/>
     <use style="fill:#4c72b0;fill-opacity:0.8;" x="263.88835416666666" xlink:href="#m4c1703153e" y="241.5196475"/>
     <use style="fill:#4c72b0;fill-opacity:0.8;" x="204.8994208333333" xlink:href="#m4c1703153e" y="305.4907075"/>
     <use style="fill:#4c72b0;fill-opacity:0.8;" x="228.12631333333331" xlink:href="#m4c1703153e" y="270.3066245"/>
     <use style="fill:#4c72b0;fill-opacity:0.8;" x="149.59729583333333" xlink:href="#m4c1703153e" y="332.678408"/>
     <use style="fill:#4c72b0;fill-opacity:0.8;" x="271.75354527777773" xlink:href="#m4c1703153e" y="257.5124125"/>
     <use style="fill:#4c72b0;fill-opacity:0.8;" x="402.1436666666666" xlink:href="#m4c1703153e" y="113.57752750000003"/>
     <use style="fill:#4c72b0;fill-opacity:0.8;" x="201.21261249999998" xlink:href="#m4c1703153e" y="316.68564299999997"/>
     <use style="fill:#4c72b0;fill-opacity:0.8;" x="323.4917555555555" xlink:href="#m4c1703153e" y="273.5051775"/>
     <use style="fill:#4c72b0;fill-opacity:0.8;" x="170.4892097222222" xlink:href="#m4c1703153e" y="310.288537"/>
     <use style="fill:#4c72b0;fill-opacity:0.8;" x="171.71814583333332" xlink:href="#m4c1703153e" y="313.48708999999997"/>
     <use style="fill:#4c72b0;fill-opacity:0.8;" x="200.59814444444442" xlink:href="#m4c1703153e" y="297.494325"/>
     <use style="fill:#4c72b0;fill-opacity:0.8;" x="377.6878380555555" xlink:href="#m4c1703153e" y="257.5124125"/>
     <use style="fill:#4c72b0;fill-opacity:0.8;" x="387.3964333333333" xlink:href="#m4c1703153e" y="241.5196475"/>
     <use style="fill:#4c72b0;fill-opacity:0.8;" x="170.85789055555554" xlink:href="#m4c1703153e" y="321.48347249999995"/>
     <use style="fill:#4c72b0;fill-opacity:0.8;" x="222.84188805555556" xlink:href="#m4c1703153e" y="268.707348"/>
     <use style="fill:#4c72b0;fill-opacity:0.8;" x="187.0798472222222" xlink:href="#m4c1703153e" y="276.7037305"/>
     <use style="fill:#4c72b0;fill-opacity:0.8;" x="481.77872666666656" xlink:href="#m4c1703153e" y="177.54858750000002"/>
     <use style="fill:#4c72b0;fill-opacity:0.8;" x="338.11609527777773" xlink:href="#m4c1703153e" y="257.5124125"/>
     <use style="fill:#4c72b0;fill-opacity:0.8;" x="413.2040916666666" xlink:href="#m4c1703153e" y="177.54858750000002"/>
     <use style="fill:#4c72b0;fill-opacity:0.8;" x="249.14112083333333" xlink:href="#m4c1703153e" y="276.7037305"/>
     <use style="fill:#4c72b0;fill-opacity:0.8;" x="308.25294777777776" xlink:href="#m4c1703153e" y="57.602850000000046"/>
     <use style="fill:#4c72b0;fill-opacity:0.8;" x="180.32069861111108" xlink:href="#m4c1703153e" y="308.6892605"/>
     <use style="fill:#4c72b0;fill-opacity:0.8;" x="193.22452777777778" xlink:href="#m4c1703153e" y="305.4907075"/>
     <use style="fill:#4c72b0;fill-opacity:0.8;" x="498.3693641666666" xlink:href="#m4c1703153e" y="84.79055050000005"/>
     <use style="fill:#4c72b0;fill-opacity:0.8;" x="407.91966638888886" xlink:href="#m4c1703153e" y="249.51603"/>
     <use style="fill:#4c72b0;fill-opacity:0.8;" x="252.82792916666665" xlink:href="#m4c1703153e" y="299.0936015"/>
     <use style="fill:#4c72b0;fill-opacity:0.8;" x="344.5065630555555" xlink:href="#m4c1703153e" y="273.5051775"/>
     <use style="fill:#4c72b0;fill-opacity:0.8;" x="376.95047638888883" xlink:href="#m4c1703153e" y="241.5196475"/>
     <use style="fill:#4c72b0;fill-opacity:0.8;" x="350.7741372222222" xlink:href="#m4c1703153e" y="302.2921545"/>
     <use style="fill:#4c72b0;fill-opacity:0.8;" x="269.9101411111111" xlink:href="#m4c1703153e" y="262.310242"/>
     <use style="fill:#4c72b0;fill-opacity:0.8;" x="236.23729166666664" xlink:href="#m4c1703153e" y="276.7037305"/>
     <use style="fill:#4c72b0;fill-opacity:0.8;" x="305.0577138888888" xlink:href="#m4c1703153e" y="276.7037305"/>
     <use style="fill:#4c72b0;fill-opacity:0.8;" x="318.45311749999996" xlink:href="#m4c1703153e" y="211.133394"/>
     <use style="fill:#4c72b0;fill-opacity:0.8;" x="245.45431249999996" xlink:href="#m4c1703153e" y="281.50156"/>
     <use style="fill:#4c72b0;fill-opacity:0.8;" x="223.3334625" xlink:href="#m4c1703153e" y="279.90228349999995"/>
     <use style="fill:#4c72b0;fill-opacity:0.8;" x="543.102638611111" xlink:href="#m4c1703153e" y="177.54858750000002"/>
     <use style="fill:#4c72b0;fill-opacity:0.8;" x="168.03133749999998" xlink:href="#m4c1703153e" y="305.4907075"/>
     <use style="fill:#4c72b0;fill-opacity:0.8;" x="172.94708194444442" xlink:href="#m4c1703153e" y="340.6747905"/>
     <use style="fill:#4c72b0;fill-opacity:0.8;" x="362.81771111111107" xlink:href="#m4c1703153e" y="294.295772"/>
     <use style="fill:#4c72b0;fill-opacity:0.8;" x="188.30878333333334" xlink:href="#m4c1703153e" y="313.48708999999997"/>
     <use style="fill:#4c72b0;fill-opacity:0.8;" x="467.8917486111111" xlink:href="#m4c1703153e" y="137.56667500000003"/>
     <use style="fill:#4c72b0;fill-opacity:0.8;" x="262.1678436111111" xlink:href="#m4c1703153e" y="273.5051775"/>
     <use style="fill:#4c72b0;fill-opacity:0.8;" x="443.9274944444444" xlink:href="#m4c1703153e" y="177.54858750000002"/>
     <use style="fill:#4c72b0;fill-opacity:0.8;" x="341.9257972222222" xlink:href="#m4c1703153e" y="241.5196475"/>
     <use style="fill:#4c72b0;fill-opacity:0.8;" x="359.6224772222222" xlink:href="#m4c1703153e" y="209.5341175"/>
     <use style="fill:#4c72b0;fill-opacity:0.8;" x="149.59729583333333" xlink:href="#m4c1703153e" y="332.678408"/>
     <use style="fill:#4c72b0;fill-opacity:0.8;" x="177.24835833333333" xlink:href="#m4c1703153e" y="313.48708999999997"/>
     <use style="fill:#4c72b0;fill-opacity:0.8;" x="465.1880891666666" xlink:href="#m4c1703153e" y="164.75437550000004"/>
     <use style="fill:#4c72b0;fill-opacity:0.8;" x="310.2192455555555" xlink:href="#m4c1703153e" y="265.50879499999996"/>
     <use style="fill:#4c72b0;fill-opacity:0.8;" x="175.15916694444442" xlink:href="#m4c1703153e" y="319.884196"/>
     <use style="fill:#4c72b0;fill-opacity:0.8;" x="510.9045124999999" xlink:href="#m4c1703153e" y="73.59561500000007"/>
     <use style="fill:#4c72b0;fill-opacity:0.8;" x="226.40580277777775" xlink:href="#m4c1703153e" y="257.5124125"/>
     <use style="fill:#4c72b0;fill-opacity:0.8;" x="349.9138819444444" xlink:href="#m4c1703153e" y="185.54497"/>
     <use style="fill:#4c72b0;fill-opacity:0.8;" x="177.86282638888886" xlink:href="#m4c1703153e" y="308.6892605"/>
     <use style="fill:#4c72b0;fill-opacity:0.8;" x="351.2657116666666" xlink:href="#m4c1703153e" y="177.54858750000002"/>
     <use style="fill:#4c72b0;fill-opacity:0.8;" x="330.86537222222216" xlink:href="#m4c1703153e" y="276.7037305"/>
     <use style="fill:#4c72b0;fill-opacity:0.8;" x="182.7785708333333" xlink:href="#m4c1703153e" y="310.288537"/>
     <use style="fill:#4c72b0;fill-opacity:0.8;" x="312.55422416666664" xlink:href="#m4c1703153e" y="249.51603"/>
     <use style="fill:#4c72b0;fill-opacity:0.8;" x="398.5797519444444" xlink:href="#m4c1703153e" y="137.56667500000003"/>
     <use style="fill:#4c72b0;fill-opacity:0.8;" x="476.6171949999999" xlink:href="#m4c1703153e" y="161.55582250000003"/>
     <use style="fill:#4c72b0;fill-opacity:0.8;" x="172.3326138888889" xlink:href="#m4c1703153e" y="299.0936015"/>
     <use style="fill:#4c72b0;fill-opacity:0.8;" x="399.6857944444444" xlink:href="#m4c1703153e" y="201.53773500000003"/>
     <use style="fill:#4c72b0;fill-opacity:0.8;" x="252.70503555555553" xlink:href="#m4c1703153e" y="257.5124125"/>
     <use style="fill:#4c72b0;fill-opacity:0.8;" x="328.40749999999997" xlink:href="#m4c1703153e" y="310.288537"/>
     <use style="fill:#4c72b0;fill-opacity:0.8;" x="462.4844297222222" xlink:href="#m4c1703153e" y="100.78331550000007"/>
     <use style="fill:#4c72b0;fill-opacity:0.8;" x="379.28545499999996" xlink:href="#m4c1703153e" y="129.57029250000005"/>
     <use style="fill:#4c72b0;fill-opacity:0.8;" x="496.1572791666666" xlink:href="#m4c1703153e" y="73.59561500000007"/>
     <use style="fill:#4c72b0;fill-opacity:0.8;" x="331.8485211111111" xlink:href="#m4c1703153e" y="257.5124125"/>
     <use style="fill:#4c72b0;fill-opacity:0.8;" x="472.8074930555555" xlink:href="#m4c1703153e" y="57.602850000000046"/>
     <use style="fill:#4c72b0;fill-opacity:0.8;" x="464.8194083333333" xlink:href="#m4c1703153e" y="169.55220500000001"/>
     <use style="fill:#4c72b0;fill-opacity:0.8;" x="500.95012999999994" xlink:href="#m4c1703153e" y="145.5630575"/>
     <use style="fill:#4c72b0;fill-opacity:0.8;" x="201.82708055555554" xlink:href="#m4c1703153e" y="287.898666"/>
     <use style="fill:#4c72b0;fill-opacity:0.8;" x="246.92903583333333" xlink:href="#m4c1703153e" y="281.50156"/>
     <use style="fill:#4c72b0;fill-opacity:0.8;" x="238.08069583333332" xlink:href="#m4c1703153e" y="265.50879499999996"/>
     <use style="fill:#4c72b0;fill-opacity:0.8;" x="230.2155047222222" xlink:href="#m4c1703153e" y="289.4979425"/>
     <use style="fill:#4c72b0;fill-opacity:0.8;" x="210.1838461111111" xlink:href="#m4c1703153e" y="270.3066245"/>
     <use style="fill:#4c72b0;fill-opacity:0.8;" x="167.0481886111111" xlink:href="#m4c1703153e" y="305.4907075"/>
     <use style="fill:#4c72b0;fill-opacity:0.8;" x="461.7470680555555" xlink:href="#m4c1703153e" y="179.14786400000003"/>
     <use style="fill:#4c72b0;fill-opacity:0.8;" x="252.82792916666665" xlink:href="#m4c1703153e" y="283.1008365"/>
     <use style="fill:#4c72b0;fill-opacity:0.8;" x="215.34537777777774" xlink:href="#m4c1703153e" y="262.310242"/>
     <use style="fill:#4c72b0;fill-opacity:0.8;" x="172.94708194444442" xlink:href="#m4c1703153e" y="334.27768449999996"/>
     <use style="fill:#4c72b0;fill-opacity:0.8;" x="224.93107944444444" xlink:href="#m4c1703153e" y="302.2921545"/>
     <use style="fill:#4c72b0;fill-opacity:0.8;" x="212.88750555555555" xlink:href="#m4c1703153e" y="281.50156"/>
     <use style="fill:#4c72b0;fill-opacity:0.8;" x="131.6548286111111" xlink:href="#m4c1703153e" y="334.27768449999996"/>
     <use style="fill:#4c72b0;fill-opacity:0.8;" x="260.0786522222222" xlink:href="#m4c1703153e" y="265.50879499999996"/>
     <use style="fill:#4c72b0;fill-opacity:0.8;" x="153.28410416666665" xlink:href="#m4c1703153e" y="303.891431"/>
     <use style="fill:#4c72b0;fill-opacity:0.8;" x="430.4091972222222" xlink:href="#m4c1703153e" y="193.54135250000002"/>
     <use style="fill:#4c72b0;fill-opacity:0.8;" x="332.34009555555554" xlink:href="#m4c1703153e" y="257.5124125"/>
     <use style="fill:#4c72b0;fill-opacity:0.8;" x="261.0618011111111" xlink:href="#m4c1703153e" y="263.9095185"/>
     <use style="fill:#4c72b0;fill-opacity:0.8;" x="452.16136638888884" xlink:href="#m4c1703153e" y="177.54858750000002"/>
     <use style="fill:#4c72b0;fill-opacity:0.8;" x="190.15218749999997" xlink:href="#m4c1703153e" y="297.494325"/>
     <use style="fill:#4c72b0;fill-opacity:0.8;" x="232.7962705555555" xlink:href="#m4c1703153e" y="246.317477"/>
     <use style="fill:#4c72b0;fill-opacity:0.8;" x="348.6849458333333" xlink:href="#m4c1703153e" y="241.5196475"/>
     <use style="fill:#4c72b0;fill-opacity:0.8;" x="199.98367638888885" xlink:href="#m4c1703153e" y="297.494325"/>
     <use style="fill:#4c72b0;fill-opacity:0.8;" x="295.7177994444444" xlink:href="#m4c1703153e" y="262.310242"/>
     <use style="fill:#4c72b0;fill-opacity:0.8;" x="348.07047777777774" xlink:href="#m4c1703153e" y="204.736288"/>
     <use style="fill:#4c72b0;fill-opacity:0.8;" x="183.39303888888887" xlink:href="#m4c1703153e" y="305.4907075"/>
     <use style="fill:#4c72b0;fill-opacity:0.8;" x="172.94708194444442" xlink:href="#m4c1703153e" y="310.288537"/>
     <use style="fill:#4c72b0;fill-opacity:0.8;" x="289.45022527777775" xlink:href="#m4c1703153e" y="238.32109450000002"/>
     <use style="fill:#4c72b0;fill-opacity:0.8;" x="405.8304749999999" xlink:href="#m4c1703153e" y="185.54497"/>
     <use style="fill:#4c72b0;fill-opacity:0.8;" x="247.9121847222222" xlink:href="#m4c1703153e" y="233.523265"/>
     <use style="fill:#4c72b0;fill-opacity:0.8;" x="290.92494861111106" xlink:href="#m4c1703153e" y="260.7109655"/>
     <use style="fill:#4c72b0;fill-opacity:0.8;" x="199.3692083333333" xlink:href="#m4c1703153e" y="305.4907075"/>
     <use style="fill:#4c72b0;fill-opacity:0.8;" x="198.14027222222222" xlink:href="#m4c1703153e" y="292.69649549999997"/>
     <use style="fill:#4c72b0;fill-opacity:0.8;" x="454.74213222222215" xlink:href="#m4c1703153e" y="49.606467500000065"/>
     <use style="fill:#4c72b0;fill-opacity:0.8;" x="190.15218749999997" xlink:href="#m4c1703153e" y="316.68564299999997"/>
     <use style="fill:#4c72b0;fill-opacity:0.8;" x="192.4871661111111" xlink:href="#m4c1703153e" y="295.8950485"/>
     <use style="fill:#4c72b0;fill-opacity:0.8;" x="273.105375" xlink:href="#m4c1703153e" y="249.51603"/>
     <use style="fill:#4c72b0;fill-opacity:0.8;" x="277.1608641666666" xlink:href="#m4c1703153e" y="265.50879499999996"/>
     <use style="fill:#4c72b0;fill-opacity:0.8;" x="155.74197638888887" xlink:href="#m4c1703153e" y="318.2849195"/>
     <use style="fill:#4c72b0;fill-opacity:0.8;" x="352.3717541666666" xlink:href="#m4c1703153e" y="153.55944000000005"/>
     <use style="fill:#4c72b0;fill-opacity:0.8;" x="382.84936972222215" xlink:href="#m4c1703153e" y="153.55944000000005"/>
     <use style="fill:#4c72b0;fill-opacity:0.8;" x="372.5263063888888" xlink:href="#m4c1703153e" y="161.55582250000003"/>
     <use style="fill:#4c72b0;fill-opacity:0.8;" x="460.51813194444435" xlink:href="#m4c1703153e" y="113.57752750000003"/>
     <use style="fill:#4c72b0;fill-opacity:0.8;" x="321.40256416666665" xlink:href="#m4c1703153e" y="265.50879499999996"/>
     <use style="fill:#4c72b0;fill-opacity:0.8;" x="481.90162027777774" xlink:href="#m4c1703153e" y="129.57029250000005"/>
     <use style="fill:#4c72b0;fill-opacity:0.8;" x="167.41686944444442" xlink:href="#m4c1703153e" y="292.69649549999997"/>
     <use style="fill:#4c72b0;fill-opacity:0.8;" x="415.90775111111105" xlink:href="#m4c1703153e" y="225.5268825"/>
     <use style="fill:#4c72b0;fill-opacity:0.8;" x="164.34452916666666" xlink:href="#m4c1703153e" y="289.4979425"/>
     <use style="fill:#4c72b0;fill-opacity:0.8;" x="207.35729305555554" xlink:href="#m4c1703153e" y="297.494325"/>
     <use style="fill:#4c72b0;fill-opacity:0.8;" x="193.83899583333329" xlink:href="#m4c1703153e" y="308.6892605"/>
     <use style="fill:#4c72b0;fill-opacity:0.8;" x="192.61005972222222" xlink:href="#m4c1703153e" y="310.288537"/>
     <use style="fill:#4c72b0;fill-opacity:0.8;" x="394.1555819444444" xlink:href="#m4c1703153e" y="265.50879499999996"/>
     <use style="fill:#4c72b0;fill-opacity:0.8;" x="456.7084299999999" xlink:href="#m4c1703153e" y="193.54135250000002"/>
     <use style="fill:#4c72b0;fill-opacity:0.8;" x="324.8435852777777" xlink:href="#m4c1703153e" y="241.5196475"/>
     <use style="fill:#4c72b0;fill-opacity:0.8;" x="210.4296333333333" xlink:href="#m4c1703153e" y="302.2921545"/>
     <use style="fill:#4c72b0;fill-opacity:0.8;" x="350.8970308333333" xlink:href="#m4c1703153e" y="177.54858750000002"/>
     <use style="fill:#4c72b0;fill-opacity:0.8;" x="243.61090833333333" xlink:href="#m4c1703153e" y="265.50879499999996"/>
     <use style="fill:#4c72b0;fill-opacity:0.8;" x="206.0054633333333" xlink:href="#m4c1703153e" y="331.07913149999996"/>
     <use style="fill:#4c72b0;fill-opacity:0.8;" x="436.43098416666663" xlink:href="#m4c1703153e" y="172.75075800000002"/>
     <use style="fill:#4c72b0;fill-opacity:0.8;" x="400.9147305555555" xlink:href="#m4c1703153e" y="209.5341175"/>
     <use style="fill:#4c72b0;fill-opacity:0.8;" x="502.67064055555545" xlink:href="#m4c1703153e" y="145.5630575"/>
     <use style="fill:#4c72b0;fill-opacity:0.8;" x="201.82708055555554" xlink:href="#m4c1703153e" y="279.90228349999995"/>
     <use style="fill:#4c72b0;fill-opacity:0.8;" x="241.76750416666664" xlink:href="#m4c1703153e" y="262.310242"/>
     <use style="fill:#4c72b0;fill-opacity:0.8;" x="265.1172902777777" xlink:href="#m4c1703153e" y="273.5051775"/>
     <use style="fill:#4c72b0;fill-opacity:0.8;" x="430.6549844444444" xlink:href="#m4c1703153e" y="185.54497"/>
     <use style="fill:#4c72b0;fill-opacity:0.8;" x="271.87643888888886" xlink:href="#m4c1703153e" y="279.90228349999995"/>
     <use style="fill:#4c72b0;fill-opacity:0.8;" x="251.59899305555552" xlink:href="#m4c1703153e" y="291.097219"/>
     <use style="fill:#4c72b0;fill-opacity:0.8;" x="446.26247305555546" xlink:href="#m4c1703153e" y="153.55944000000005"/>
     <use style="fill:#4c72b0;fill-opacity:0.8;" x="184.00750694444443" xlink:href="#m4c1703153e" y="284.700113"/>
     <use style="fill:#4c72b0;fill-opacity:0.8;" x="159.42878472222222" xlink:href="#m4c1703153e" y="315.0863665"/>
     <use style="fill:#4c72b0;fill-opacity:0.8;" x="281.0934597222222" xlink:href="#m4c1703153e" y="270.3066245"/>
     <use style="fill:#4c72b0;fill-opacity:0.8;" x="244.2253763888889" xlink:href="#m4c1703153e" y="302.2921545"/>
     <use style="fill:#4c72b0;fill-opacity:0.8;" x="388.01090138888884" xlink:href="#m4c1703153e" y="193.54135250000002"/>
     <use style="fill:#4c72b0;fill-opacity:0.8;" x="437.16834583333326" xlink:href="#m4c1703153e" y="177.54858750000002"/>
     <use style="fill:#4c72b0;fill-opacity:0.8;" x="211.65856944444442" xlink:href="#m4c1703153e" y="263.9095185"/>
     <use style="fill:#4c72b0;fill-opacity:0.8;" x="380.26860388888883" xlink:href="#m4c1703153e" y="177.54858750000002"/>
     <use style="fill:#4c72b0;fill-opacity:0.8;" x="257.12920555555553" xlink:href="#m4c1703153e" y="289.4979425"/>
     <use style="fill:#4c72b0;fill-opacity:0.8;" x="404.60153888888885" xlink:href="#m4c1703153e" y="209.5341175"/>
     <use style="fill:#4c72b0;fill-opacity:0.8;" x="375.1070722222222" xlink:href="#m4c1703153e" y="257.5124125"/>
     <use style="fill:#4c72b0;fill-opacity:0.8;" x="314.8892027777777" xlink:href="#m4c1703153e" y="217.53050000000002"/>
     <use style="fill:#4c72b0;fill-opacity:0.8;" x="189.90640027777778" xlink:href="#m4c1703153e" y="273.5051775"/>
     <use style="fill:#4c72b0;fill-opacity:0.8;" x="221.36716472222218" xlink:href="#m4c1703153e" y="267.1080715"/>
     <use style="fill:#4c72b0;fill-opacity:0.8;" x="182.7785708333333" xlink:href="#m4c1703153e" y="295.8950485"/>
     <use style="fill:#4c72b0;fill-opacity:0.8;" x="190.02929388888884" xlink:href="#m4c1703153e" y="273.5051775"/>
     <use style="fill:#4c72b0;fill-opacity:0.8;" x="430.0405163888888" xlink:href="#m4c1703153e" y="177.54858750000002"/>
     <use style="fill:#4c72b0;fill-opacity:0.8;" x="274.9487791666666" xlink:href="#m4c1703153e" y="262.310242"/>
     <use style="fill:#4c72b0;fill-opacity:0.8;" x="279.86452361111105" xlink:href="#m4c1703153e" y="281.50156"/>
     <use style="fill:#4c72b0;fill-opacity:0.8;" x="299.1588205555555" xlink:href="#m4c1703153e" y="287.898666"/>
     <use style="fill:#4c72b0;fill-opacity:0.8;" x="211.65856944444442" xlink:href="#m4c1703153e" y="292.69649549999997"/>
     <use style="fill:#4c72b0;fill-opacity:0.8;" x="168.64580555555554" xlink:href="#m4c1703153e" y="343.8733435"/>
     <use style="fill:#4c72b0;fill-opacity:0.8;" x="222.10452638888887" xlink:href="#m4c1703153e" y="283.1008365"/>
     <use style="fill:#4c72b0;fill-opacity:0.8;" x="167.0481886111111" xlink:href="#m4c1703153e" y="305.4907075"/>
     <use style="fill:#4c72b0;fill-opacity:0.8;" x="439.5033244444444" xlink:href="#m4c1703153e" y="172.75075800000002"/>
     <use style="fill:#4c72b0;fill-opacity:0.8;" x="285.39473611111106" xlink:href="#m4c1703153e" y="231.9239885"/>
     <use style="fill:#4c72b0;fill-opacity:0.8;" x="285.5176297222222" xlink:href="#m4c1703153e" y="257.5124125"/>
     <use style="fill:#4c72b0;fill-opacity:0.8;" x="531.91932" xlink:href="#m4c1703153e" y="150.36088700000005"/>
     <use style="fill:#4c72b0;fill-opacity:0.8;" x="209.0778036111111" xlink:href="#m4c1703153e" y="276.7037305"/>
     <use style="fill:#4c72b0;fill-opacity:0.8;" x="190.76665555555553" xlink:href="#m4c1703153e" y="276.7037305"/>
     <use style="fill:#4c72b0;fill-opacity:0.8;" x="284.1658" xlink:href="#m4c1703153e" y="276.7037305"/>
     <use style="fill:#4c72b0;fill-opacity:0.8;" x="466.78570611111104" xlink:href="#m4c1703153e" y="97.58476250000007"/>
     <use style="fill:#4c72b0;fill-opacity:0.8;" x="372.0347319444444" xlink:href="#m4c1703153e" y="217.53050000000002"/>
     <use style="fill:#4c72b0;fill-opacity:0.8;" x="246.68324861111108" xlink:href="#m4c1703153e" y="270.3066245"/>
     <use style="fill:#4c72b0;fill-opacity:0.8;" x="375.3528594444444" xlink:href="#m4c1703153e" y="241.5196475"/>
     <use style="fill:#4c72b0;fill-opacity:0.8;" x="190.76665555555553" xlink:href="#m4c1703153e" y="307.08998399999996"/>
     <use style="fill:#4c72b0;fill-opacity:0.8;" x="170.24342249999998" xlink:href="#m4c1703153e" y="310.288537"/>
     <use style="fill:#4c72b0;fill-opacity:0.8;" x="330.2509041666666" xlink:href="#m4c1703153e" y="273.5051775"/>
     <use style="fill:#4c72b0;fill-opacity:0.8;" x="390.4687736111111" xlink:href="#m4c1703153e" y="177.54858750000002"/>
     <use style="fill:#4c72b0;fill-opacity:0.8;" x="254.4255461111111" xlink:href="#m4c1703153e" y="273.5051775"/>
     <use style="fill:#4c72b0;fill-opacity:0.8;" x="202.19576138888885" xlink:href="#m4c1703153e" y="303.891431"/>
     <use style="fill:#4c72b0;fill-opacity:0.8;" x="349.9138819444444" xlink:href="#m4c1703153e" y="249.51603"/>
     <use style="fill:#4c72b0;fill-opacity:0.8;" x="180.93516666666665" xlink:href="#m4c1703153e" y="318.2849195"/>
     <use style="fill:#4c72b0;fill-opacity:0.8;" x="194.45346388888885" xlink:href="#m4c1703153e" y="276.7037305"/>
     <use style="fill:#4c72b0;fill-opacity:0.8;" x="273.96563027777773" xlink:href="#m4c1703153e" y="222.3283295"/>
     <use style="fill:#4c72b0;fill-opacity:0.8;" x="171.71814583333332" xlink:href="#m4c1703153e" y="313.48708999999997"/>
     <use style="fill:#4c72b0;fill-opacity:0.8;" x="300.2648630555555" xlink:href="#m4c1703153e" y="276.7037305"/>
     <use style="fill:#4c72b0;fill-opacity:0.8;" x="291.5394166666666" xlink:href="#m4c1703153e" y="273.5051775"/>
     <use style="fill:#4c72b0;fill-opacity:0.8;" x="191.3811236111111" xlink:href="#m4c1703153e" y="308.6892605"/>
     <use style="fill:#4c72b0;fill-opacity:0.8;" x="361.58877499999994" xlink:href="#m4c1703153e" y="241.5196475"/>
     <use style="fill:#4c72b0;fill-opacity:0.8;" x="263.2738861111111" xlink:href="#m4c1703153e" y="276.7037305"/>
    </g>
   </g>
   <g id="PolyCollection_1">
    <defs>
     <path d="M 51.896875 -94.681889 
L 51.896875 -81.22704 
L 57.482948 -84.296064 
L 63.069021 -87.330859 
L 68.655095 -90.34467 
L 74.241168 -93.38417 
L 79.827241 -96.36893 
L 85.413314 -99.337591 
L 90.999388 -102.338835 
L 96.585461 -105.374677 
L 102.171534 -108.412511 
L 107.757607 -111.391242 
L 113.343681 -114.408348 
L 118.929754 -117.433963 
L 124.515827 -120.455922 
L 130.1019 -123.493782 
L 135.687973 -126.519205 
L 141.274047 -129.544628 
L 146.86012 -132.555559 
L 152.446193 -135.528959 
L 158.032266 -138.546427 
L 163.61834 -141.523732 
L 169.204413 -144.473894 
L 174.790486 -147.416675 
L 180.376559 -150.341503 
L 185.962633 -153.302996 
L 191.548706 -156.237792 
L 197.134779 -159.128727 
L 202.720852 -162.024726 
L 208.306926 -164.938991 
L 213.892999 -167.820877 
L 219.479072 -170.715094 
L 225.065145 -173.602817 
L 230.651218 -176.490923 
L 236.237292 -179.410155 
L 241.823365 -182.260758 
L 247.409438 -185.100317 
L 252.995511 -187.924338 
L 258.581585 -190.758034 
L 264.167658 -193.557675 
L 269.753731 -196.319853 
L 275.339804 -199.080302 
L 280.925878 -201.8725 
L 286.511951 -204.625898 
L 292.098024 -207.389212 
L 297.684097 -210.133335 
L 303.27017 -212.924353 
L 308.856244 -215.686889 
L 314.442317 -218.428215 
L 320.02839 -221.136124 
L 325.614463 -223.845679 
L 331.200537 -226.593465 
L 336.78661 -229.296449 
L 342.372683 -232.016367 
L 347.958756 -234.723081 
L 353.54483 -237.397834 
L 359.130903 -240.137103 
L 364.716976 -242.860237 
L 370.303049 -245.558437 
L 375.889122 -248.257385 
L 381.475196 -250.953962 
L 387.061269 -253.644577 
L 392.647342 -256.353769 
L 398.233415 -259.062433 
L 403.819489 -261.771096 
L 409.405562 -264.452249 
L 414.991635 -267.140861 
L 420.577708 -269.837468 
L 426.163782 -272.524042 
L 431.749855 -275.215867 
L 437.335928 -277.908112 
L 442.922001 -280.595965 
L 448.508074 -283.283817 
L 454.094148 -285.947538 
L 459.680221 -288.583195 
L 465.266294 -291.22991 
L 470.852367 -293.900983 
L 476.438441 -296.572291 
L 482.024514 -299.244947 
L 487.610587 -301.917603 
L 493.19666 -304.591449 
L 498.782734 -307.288827 
L 504.368807 -309.986205 
L 509.95488 -312.684054 
L 515.540953 -315.382355 
L 521.127027 -318.080655 
L 526.7131 -320.778956 
L 532.299173 -323.477256 
L 537.885246 -326.175557 
L 543.471319 -328.878437 
L 549.057393 -331.587076 
L 554.643466 -334.295714 
L 560.229539 -337.004353 
L 565.815612 -339.690433 
L 571.401686 -342.373995 
L 576.987759 -345.061796 
L 582.573832 -347.757565 
L 588.159905 -350.457111 
L 593.745979 -353.106766 
L 599.332052 -355.768669 
L 604.918125 -358.418288 
L 604.918125 -381.607254 
L 604.918125 -381.607254 
L 599.332052 -378.585888 
L 593.745979 -375.564523 
L 588.159905 -372.543158 
L 582.573832 -369.521793 
L 576.987759 -366.500428 
L 571.401686 -363.479062 
L 565.815612 -360.457697 
L 560.229539 -357.436332 
L 554.643466 -354.408096 
L 549.057393 -351.370222 
L 543.471319 -348.332039 
L 537.885246 -345.293856 
L 532.299173 -342.266664 
L 526.7131 -339.227419 
L 521.127027 -336.187466 
L 515.540953 -333.178093 
L 509.95488 -330.197263 
L 504.368807 -327.216432 
L 498.782734 -324.206558 
L 493.19666 -321.186651 
L 487.610587 -318.166744 
L 482.024514 -315.146283 
L 476.438441 -312.13214 
L 470.852367 -309.101749 
L 465.266294 -306.081235 
L 459.680221 -303.060721 
L 454.094148 -300.039688 
L 448.508074 -297.018369 
L 442.922001 -293.99705 
L 437.335928 -290.975731 
L 431.749855 -287.95493 
L 426.163782 -284.934319 
L 420.577708 -281.897571 
L 414.991635 -278.862563 
L 409.405562 -275.817898 
L 403.819489 -272.790015 
L 398.233415 -269.755394 
L 392.647342 -266.768479 
L 387.061269 -263.800329 
L 381.475196 -260.856619 
L 375.889122 -257.885231 
L 370.303049 -254.854623 
L 364.716976 -251.852657 
L 359.130903 -248.89031 
L 353.54483 -245.941323 
L 347.958756 -242.915057 
L 342.372683 -239.985845 
L 336.78661 -237.030162 
L 331.200537 -234.042376 
L 325.614463 -231.020866 
L 320.02839 -228.019958 
L 314.442317 -225.05887 
L 308.856244 -222.152342 
L 303.27017 -219.141875 
L 297.684097 -216.174292 
L 292.098024 -213.224848 
L 286.511951 -210.28947 
L 280.925878 -207.357717 
L 275.339804 -204.459346 
L 269.753731 -201.538189 
L 264.167658 -198.617993 
L 258.581585 -195.694467 
L 252.995511 -192.82701 
L 247.409438 -189.950197 
L 241.823365 -187.085368 
L 236.237292 -184.26582 
L 230.651218 -181.436909 
L 225.065145 -178.557252 
L 219.479072 -175.686567 
L 213.892999 -172.922892 
L 208.306926 -170.163083 
L 202.720852 -167.421803 
L 197.134779 -164.690041 
L 191.548706 -161.905317 
L 185.962633 -159.17682 
L 180.376559 -156.424256 
L 174.790486 -153.74196 
L 169.204413 -151.06366 
L 163.61834 -148.383677 
L 158.032266 -145.610773 
L 152.446193 -142.863086 
L 146.86012 -140.106029 
L 141.274047 -137.455384 
L 135.687973 -134.762916 
L 130.1019 -132.132986 
L 124.515827 -129.396706 
L 118.929754 -126.674102 
L 113.343681 -124.027335 
L 107.757607 -121.379777 
L 102.171534 -118.616099 
L 96.585461 -116.037276 
L 90.999388 -113.446639 
L 85.413314 -110.729302 
L 79.827241 -108.073534 
L 74.241168 -105.45954 
L 68.655095 -102.745336 
L 63.069021 -100.009003 
L 57.482948 -97.331046 
L 51.896875 -94.681889 
z
" id="mef466f66f5" style="stroke:#000000;stroke-opacity:0.15;stroke-width:0.3;"/>
    </defs>
    <g clip-path="url(#p62af6887e8)">
     <use style="fill:#4c72b0;fill-opacity:0.15;stroke:#000000;stroke-opacity:0.15;stroke-width:0.3;" x="0.0" xlink:href="#mef466f66f5" y="461.976"/>
    </g>
   </g>
   <g id="line2d_33">
    <path clip-path="url(#p62af6887e8)" d="M 51.896875 374.269937 
L 57.482948 371.421988 
L 63.069021 368.574039 
L 68.655095 365.726089 
L 74.241168 362.87814 
L 79.827241 360.03019 
L 85.413314 357.182241 
L 90.999388 354.334292 
L 96.585461 351.486342 
L 102.171534 348.638393 
L 107.757607 345.790444 
L 113.343681 342.942494 
L 118.929754 340.094545 
L 124.515827 337.246596 
L 130.1019 334.398646 
L 135.687973 331.550697 
L 141.274047 328.702747 
L 146.86012 325.854798 
L 152.446193 323.006849 
L 158.032266 320.158899 
L 163.61834 317.31095 
L 169.204413 314.463001 
L 174.790486 311.615051 
L 180.376559 308.767102 
L 185.962633 305.919153 
L 191.548706 303.071203 
L 197.134779 300.223254 
L 202.720852 297.375304 
L 208.306926 294.527355 
L 213.892999 291.679406 
L 219.479072 288.831456 
L 225.065145 285.983507 
L 230.651218 283.135558 
L 236.237292 280.287608 
L 241.823365 277.439659 
L 247.409438 274.59171 
L 252.995511 271.74376 
L 258.581585 268.895811 
L 264.167658 266.047861 
L 269.753731 263.199912 
L 275.339804 260.351963 
L 280.925878 257.504013 
L 286.511951 254.656064 
L 292.098024 251.808115 
L 297.684097 248.960165 
L 303.27017 246.112216 
L 308.856244 243.264267 
L 314.442317 240.416317 
L 320.02839 237.568368 
L 325.614463 234.720418 
L 331.200537 231.872469 
L 336.78661 229.02452 
L 342.372683 226.17657 
L 347.958756 223.328621 
L 353.54483 220.480672 
L 359.130903 217.632722 
L 364.716976 214.784773 
L 370.303049 211.936824 
L 375.889122 209.088874 
L 381.475196 206.240925 
L 387.061269 203.392975 
L 392.647342 200.545026 
L 398.233415 197.697077 
L 403.819489 194.849127 
L 409.405562 192.001178 
L 414.991635 189.153229 
L 420.577708 186.305279 
L 426.163782 183.45733 
L 431.749855 180.609381 
L 437.335928 177.761431 
L 442.922001 174.913482 
L 448.508074 172.065532 
L 454.094148 169.217583 
L 459.680221 166.369634 
L 465.266294 163.521684 
L 470.852367 160.673735 
L 476.438441 157.825786 
L 482.024514 154.977836 
L 487.610587 152.129887 
L 493.19666 149.281938 
L 498.782734 146.433988 
L 504.368807 143.586039 
L 509.95488 140.738089 
L 515.540953 137.89014 
L 521.127027 135.042191 
L 526.7131 132.194241 
L 532.299173 129.346292 
L 537.885246 126.498343 
L 543.471319 123.650393 
L 549.057393 120.802444 
L 554.643466 117.954495 
L 560.229539 115.106545 
L 565.815612 112.258596 
L 571.401686 109.410646 
L 576.987759 106.562697 
L 582.573832 103.714748 
L 588.159905 100.866798 
L 593.745979 98.018849 
L 599.332052 95.1709 
L 604.918125 92.32295 
" style="fill:none;stroke:#4c72b0;stroke-linecap:round;stroke-width:2.625;"/>
   </g>
   <g id="patch_3">
    <path d="M 51.896875 417.440062 
L 51.896875 17.620938 
" style="fill:none;"/>
   </g>
   <g id="patch_4">
    <path d="M 51.896875 417.440062 
L 604.918125 417.440062 
" style="fill:none;"/>
   </g>
  </g>
 </g>
 <defs>
  <clipPath id="p62af6887e8">
   <rect height="399.8191249999999" width="553.0212499999999" x="51.89687500000001" y="17.620937500000082"/>
  </clipPath>
 </defs>
</svg>
