<?xml version="1.0" encoding="utf-8" standalone="no"?>
<!DOCTYPE svg PUBLIC "-//W3C//DTD SVG 1.1//EN"
  "http://www.w3.org/Graphics/SVG/1.1/DTD/svg11.dtd">
<!-- Created with matplotlib (https://matplotlib.org/) -->
<svg height="401pt" version="1.1" viewBox="0 0 551 401" width="551pt" xmlns="http://www.w3.org/2000/svg" xmlns:xlink="http://www.w3.org/1999/xlink">
 <defs>
  <style type="text/css">
*{stroke-linecap:butt;stroke-linejoin:round;}
  </style>
 </defs>
 <g id="figure_1">
  <g id="patch_1">
   <path d="M 0 401 
L 551 401 
L 551 0 
L 0 0 
z
" style="fill:#ffffff;"/>
  </g>
  <g id="axes_1">
   <g id="patch_2">
    <path d="M 46.13875 357.908125 
L 536.7 357.908125 
L 536.7 14.3 
L 46.13875 14.3 
z
" style="fill:#e5e5e5;"/>
   </g>
   <g id="matplotlib.axis_1">
    <g id="xtick_1">
     <g id="line2d_1">
      <path clip-path="url(#p74530902d9)" d="M 49.112266 357.908125 
L 49.112266 14.3 
" style="fill:none;stroke:#ffffff;stroke-linecap:square;stroke-width:0.8;"/>
     </g>
     <g id="line2d_2">
      <defs>
       <path d="M 0 0 
L 0 3.5 
" id="md3d7f4499f" style="stroke:#555555;stroke-width:0.8;"/>
      </defs>
      <g>
       <use style="fill:#555555;stroke:#555555;stroke-width:0.8;" x="49.112266" xlink:href="#md3d7f4499f" y="357.908125"/>
      </g>
     </g>
     <g id="text_1">
      <!-- 1 -->
      <defs>
       <path d="M 12.40625 8.296875 
L 28.515625 8.296875 
L 28.515625 63.921875 
L 10.984375 60.40625 
L 10.984375 69.390625 
L 28.421875 72.90625 
L 38.28125 72.90625 
L 38.28125 8.296875 
L 54.390625 8.296875 
L 54.390625 0 
L 12.40625 0 
z
" id="DejaVuSans-49"/>
      </defs>
      <g style="fill:#555555;" transform="translate(45.931016 372.506563)scale(0.1 -0.1)">
       <use xlink:href="#DejaVuSans-49"/>
      </g>
     </g>
    </g>
    <g id="xtick_2">
     <g id="line2d_3">
      <path clip-path="url(#p74530902d9)" d="M 119.652909 357.908125 
L 119.652909 14.3 
" style="fill:none;stroke:#ffffff;stroke-linecap:square;stroke-width:0.8;"/>
     </g>
     <g id="line2d_4">
      <g>
       <use style="fill:#555555;stroke:#555555;stroke-width:0.8;" x="119.652909" xlink:href="#md3d7f4499f" y="357.908125"/>
      </g>
     </g>
     <g id="text_2">
      <!-- 2 -->
      <defs>
       <path d="M 19.1875 8.296875 
L 53.609375 8.296875 
L 53.609375 0 
L 7.328125 0 
L 7.328125 8.296875 
Q 12.9375 14.109375 22.625 23.890625 
Q 32.328125 33.6875 34.8125 36.53125 
Q 39.546875 41.84375 41.421875 45.53125 
Q 43.3125 49.21875 43.3125 52.78125 
Q 43.3125 58.59375 39.234375 62.25 
Q 35.15625 65.921875 28.609375 65.921875 
Q 23.96875 65.921875 18.8125 64.3125 
Q 13.671875 62.703125 7.8125 59.421875 
L 7.8125 69.390625 
Q 13.765625 71.78125 18.9375 73 
Q 24.125 74.21875 28.421875 74.21875 
Q 39.75 74.21875 46.484375 68.546875 
Q 53.21875 62.890625 53.21875 53.421875 
Q 53.21875 48.921875 51.53125 44.890625 
Q 49.859375 40.875 45.40625 35.40625 
Q 44.1875 33.984375 37.640625 27.21875 
Q 31.109375 20.453125 19.1875 8.296875 
z
" id="DejaVuSans-50"/>
      </defs>
      <g style="fill:#555555;" transform="translate(116.471659 372.506563)scale(0.1 -0.1)">
       <use xlink:href="#DejaVuSans-50"/>
      </g>
     </g>
    </g>
    <g id="xtick_3">
     <g id="line2d_5">
      <path clip-path="url(#p74530902d9)" d="M 190.193552 357.908125 
L 190.193552 14.3 
" style="fill:none;stroke:#ffffff;stroke-linecap:square;stroke-width:0.8;"/>
     </g>
     <g id="line2d_6">
      <g>
       <use style="fill:#555555;stroke:#555555;stroke-width:0.8;" x="190.193552" xlink:href="#md3d7f4499f" y="357.908125"/>
      </g>
     </g>
     <g id="text_3">
      <!-- 3 -->
      <defs>
       <path d="M 40.578125 39.3125 
Q 47.65625 37.796875 51.625 33 
Q 55.609375 28.21875 55.609375 21.1875 
Q 55.609375 10.40625 48.1875 4.484375 
Q 40.765625 -1.421875 27.09375 -1.421875 
Q 22.515625 -1.421875 17.65625 -0.515625 
Q 12.796875 0.390625 7.625 2.203125 
L 7.625 11.71875 
Q 11.71875 9.328125 16.59375 8.109375 
Q 21.484375 6.890625 26.8125 6.890625 
Q 36.078125 6.890625 40.9375 10.546875 
Q 45.796875 14.203125 45.796875 21.1875 
Q 45.796875 27.640625 41.28125 31.265625 
Q 36.765625 34.90625 28.71875 34.90625 
L 20.21875 34.90625 
L 20.21875 43.015625 
L 29.109375 43.015625 
Q 36.375 43.015625 40.234375 45.921875 
Q 44.09375 48.828125 44.09375 54.296875 
Q 44.09375 59.90625 40.109375 62.90625 
Q 36.140625 65.921875 28.71875 65.921875 
Q 24.65625 65.921875 20.015625 65.03125 
Q 15.375 64.15625 9.8125 62.3125 
L 9.8125 71.09375 
Q 15.4375 72.65625 20.34375 73.4375 
Q 25.25 74.21875 29.59375 74.21875 
Q 40.828125 74.21875 47.359375 69.109375 
Q 53.90625 64.015625 53.90625 55.328125 
Q 53.90625 49.265625 50.4375 45.09375 
Q 46.96875 40.921875 40.578125 39.3125 
z
" id="DejaVuSans-51"/>
      </defs>
      <g style="fill:#555555;" transform="translate(187.012302 372.506563)scale(0.1 -0.1)">
       <use xlink:href="#DejaVuSans-51"/>
      </g>
     </g>
    </g>
    <g id="xtick_4">
     <g id="line2d_7">
      <path clip-path="url(#p74530902d9)" d="M 260.734195 357.908125 
L 260.734195 14.3 
" style="fill:none;stroke:#ffffff;stroke-linecap:square;stroke-width:0.8;"/>
     </g>
     <g id="line2d_8">
      <g>
       <use style="fill:#555555;stroke:#555555;stroke-width:0.8;" x="260.734195" xlink:href="#md3d7f4499f" y="357.908125"/>
      </g>
     </g>
     <g id="text_4">
      <!-- 4 -->
      <defs>
       <path d="M 37.796875 64.3125 
L 12.890625 25.390625 
L 37.796875 25.390625 
z
M 35.203125 72.90625 
L 47.609375 72.90625 
L 47.609375 25.390625 
L 58.015625 25.390625 
L 58.015625 17.1875 
L 47.609375 17.1875 
L 47.609375 0 
L 37.796875 0 
L 37.796875 17.1875 
L 4.890625 17.1875 
L 4.890625 26.703125 
z
" id="DejaVuSans-52"/>
      </defs>
      <g style="fill:#555555;" transform="translate(257.552945 372.506563)scale(0.1 -0.1)">
       <use xlink:href="#DejaVuSans-52"/>
      </g>
     </g>
    </g>
    <g id="xtick_5">
     <g id="line2d_9">
      <path clip-path="url(#p74530902d9)" d="M 331.274838 357.908125 
L 331.274838 14.3 
" style="fill:none;stroke:#ffffff;stroke-linecap:square;stroke-width:0.8;"/>
     </g>
     <g id="line2d_10">
      <g>
       <use style="fill:#555555;stroke:#555555;stroke-width:0.8;" x="331.274838" xlink:href="#md3d7f4499f" y="357.908125"/>
      </g>
     </g>
     <g id="text_5">
      <!-- 5 -->
      <defs>
       <path d="M 10.796875 72.90625 
L 49.515625 72.90625 
L 49.515625 64.59375 
L 19.828125 64.59375 
L 19.828125 46.734375 
Q 21.96875 47.46875 24.109375 47.828125 
Q 26.265625 48.1875 28.421875 48.1875 
Q 40.625 48.1875 47.75 41.5 
Q 54.890625 34.8125 54.890625 23.390625 
Q 54.890625 11.625 47.5625 5.09375 
Q 40.234375 -1.421875 26.90625 -1.421875 
Q 22.3125 -1.421875 17.546875 -0.640625 
Q 12.796875 0.140625 7.71875 1.703125 
L 7.71875 11.625 
Q 12.109375 9.234375 16.796875 8.0625 
Q 21.484375 6.890625 26.703125 6.890625 
Q 35.15625 6.890625 40.078125 11.328125 
Q 45.015625 15.765625 45.015625 23.390625 
Q 45.015625 31 40.078125 35.4375 
Q 35.15625 39.890625 26.703125 39.890625 
Q 22.75 39.890625 18.8125 39.015625 
Q 14.890625 38.140625 10.796875 36.28125 
z
" id="DejaVuSans-53"/>
      </defs>
      <g style="fill:#555555;" transform="translate(328.093588 372.506563)scale(0.1 -0.1)">
       <use xlink:href="#DejaVuSans-53"/>
      </g>
     </g>
    </g>
    <g id="xtick_6">
     <g id="line2d_11">
      <path clip-path="url(#p74530902d9)" d="M 401.815482 357.908125 
L 401.815482 14.3 
" style="fill:none;stroke:#ffffff;stroke-linecap:square;stroke-width:0.8;"/>
     </g>
     <g id="line2d_12">
      <g>
       <use style="fill:#555555;stroke:#555555;stroke-width:0.8;" x="401.815482" xlink:href="#md3d7f4499f" y="357.908125"/>
      </g>
     </g>
     <g id="text_6">
      <!-- 6 -->
      <defs>
       <path d="M 33.015625 40.375 
Q 26.375 40.375 22.484375 35.828125 
Q 18.609375 31.296875 18.609375 23.390625 
Q 18.609375 15.53125 22.484375 10.953125 
Q 26.375 6.390625 33.015625 6.390625 
Q 39.65625 6.390625 43.53125 10.953125 
Q 47.40625 15.53125 47.40625 23.390625 
Q 47.40625 31.296875 43.53125 35.828125 
Q 39.65625 40.375 33.015625 40.375 
z
M 52.59375 71.296875 
L 52.59375 62.3125 
Q 48.875 64.0625 45.09375 64.984375 
Q 41.3125 65.921875 37.59375 65.921875 
Q 27.828125 65.921875 22.671875 59.328125 
Q 17.53125 52.734375 16.796875 39.40625 
Q 19.671875 43.65625 24.015625 45.921875 
Q 28.375 48.1875 33.59375 48.1875 
Q 44.578125 48.1875 50.953125 41.515625 
Q 57.328125 34.859375 57.328125 23.390625 
Q 57.328125 12.15625 50.6875 5.359375 
Q 44.046875 -1.421875 33.015625 -1.421875 
Q 20.359375 -1.421875 13.671875 8.265625 
Q 6.984375 17.96875 6.984375 36.375 
Q 6.984375 53.65625 15.1875 63.9375 
Q 23.390625 74.21875 37.203125 74.21875 
Q 40.921875 74.21875 44.703125 73.484375 
Q 48.484375 72.75 52.59375 71.296875 
z
" id="DejaVuSans-54"/>
      </defs>
      <g style="fill:#555555;" transform="translate(398.634232 372.506563)scale(0.1 -0.1)">
       <use xlink:href="#DejaVuSans-54"/>
      </g>
     </g>
    </g>
    <g id="xtick_7">
     <g id="line2d_13">
      <path clip-path="url(#p74530902d9)" d="M 472.356125 357.908125 
L 472.356125 14.3 
" style="fill:none;stroke:#ffffff;stroke-linecap:square;stroke-width:0.8;"/>
     </g>
     <g id="line2d_14">
      <g>
       <use style="fill:#555555;stroke:#555555;stroke-width:0.8;" x="472.356125" xlink:href="#md3d7f4499f" y="357.908125"/>
      </g>
     </g>
     <g id="text_7">
      <!-- 7 -->
      <defs>
       <path d="M 8.203125 72.90625 
L 55.078125 72.90625 
L 55.078125 68.703125 
L 28.609375 0 
L 18.3125 0 
L 43.21875 64.59375 
L 8.203125 64.59375 
z
" id="DejaVuSans-55"/>
      </defs>
      <g style="fill:#555555;" transform="translate(469.174875 372.506563)scale(0.1 -0.1)">
       <use xlink:href="#DejaVuSans-55"/>
      </g>
     </g>
    </g>
    <g id="text_8">
     <!-- Fertility -->
     <defs>
      <path d="M 9.8125 72.90625 
L 51.703125 72.90625 
L 51.703125 64.59375 
L 19.671875 64.59375 
L 19.671875 43.109375 
L 48.578125 43.109375 
L 48.578125 34.8125 
L 19.671875 34.8125 
L 19.671875 0 
L 9.8125 0 
z
" id="DejaVuSans-70"/>
      <path d="M 56.203125 29.59375 
L 56.203125 25.203125 
L 14.890625 25.203125 
Q 15.484375 15.921875 20.484375 11.0625 
Q 25.484375 6.203125 34.421875 6.203125 
Q 39.59375 6.203125 44.453125 7.46875 
Q 49.3125 8.734375 54.109375 11.28125 
L 54.109375 2.78125 
Q 49.265625 0.734375 44.1875 -0.34375 
Q 39.109375 -1.421875 33.890625 -1.421875 
Q 20.796875 -1.421875 13.15625 6.1875 
Q 5.515625 13.8125 5.515625 26.8125 
Q 5.515625 40.234375 12.765625 48.109375 
Q 20.015625 56 32.328125 56 
Q 43.359375 56 49.78125 48.890625 
Q 56.203125 41.796875 56.203125 29.59375 
z
M 47.21875 32.234375 
Q 47.125 39.59375 43.09375 43.984375 
Q 39.0625 48.390625 32.421875 48.390625 
Q 24.90625 48.390625 20.390625 44.140625 
Q 15.875 39.890625 15.1875 32.171875 
z
" id="DejaVuSans-101"/>
      <path d="M 41.109375 46.296875 
Q 39.59375 47.171875 37.8125 47.578125 
Q 36.03125 48 33.890625 48 
Q 26.265625 48 22.1875 43.046875 
Q 18.109375 38.09375 18.109375 28.8125 
L 18.109375 0 
L 9.078125 0 
L 9.078125 54.6875 
L 18.109375 54.6875 
L 18.109375 46.1875 
Q 20.953125 51.171875 25.484375 53.578125 
Q 30.03125 56 36.53125 56 
Q 37.453125 56 38.578125 55.875 
Q 39.703125 55.765625 41.0625 55.515625 
z
" id="DejaVuSans-114"/>
      <path d="M 18.3125 70.21875 
L 18.3125 54.6875 
L 36.8125 54.6875 
L 36.8125 47.703125 
L 18.3125 47.703125 
L 18.3125 18.015625 
Q 18.3125 11.328125 20.140625 9.421875 
Q 21.96875 7.515625 27.59375 7.515625 
L 36.8125 7.515625 
L 36.8125 0 
L 27.59375 0 
Q 17.1875 0 13.234375 3.875 
Q 9.28125 7.765625 9.28125 18.015625 
L 9.28125 47.703125 
L 2.6875 47.703125 
L 2.6875 54.6875 
L 9.28125 54.6875 
L 9.28125 70.21875 
z
" id="DejaVuSans-116"/>
      <path d="M 9.421875 54.6875 
L 18.40625 54.6875 
L 18.40625 0 
L 9.421875 0 
z
M 9.421875 75.984375 
L 18.40625 75.984375 
L 18.40625 64.59375 
L 9.421875 64.59375 
z
" id="DejaVuSans-105"/>
      <path d="M 9.421875 75.984375 
L 18.40625 75.984375 
L 18.40625 0 
L 9.421875 0 
z
" id="DejaVuSans-108"/>
      <path d="M 32.171875 -5.078125 
Q 28.375 -14.84375 24.75 -17.8125 
Q 21.140625 -20.796875 15.09375 -20.796875 
L 7.90625 -20.796875 
L 7.90625 -13.28125 
L 13.1875 -13.28125 
Q 16.890625 -13.28125 18.9375 -11.515625 
Q 21 -9.765625 23.484375 -3.21875 
L 25.09375 0.875 
L 2.984375 54.6875 
L 12.5 54.6875 
L 29.59375 11.921875 
L 46.6875 54.6875 
L 56.203125 54.6875 
z
" id="DejaVuSans-121"/>
     </defs>
     <g style="fill:#555555;" transform="translate(268.558438 387.704375)scale(0.12 -0.12)">
      <use xlink:href="#DejaVuSans-70"/>
      <use x="57.441406" xlink:href="#DejaVuSans-101"/>
      <use x="118.964844" xlink:href="#DejaVuSans-114"/>
      <use x="160.078125" xlink:href="#DejaVuSans-116"/>
      <use x="199.287109" xlink:href="#DejaVuSans-105"/>
      <use x="227.070312" xlink:href="#DejaVuSans-108"/>
      <use x="254.853516" xlink:href="#DejaVuSans-105"/>
      <use x="282.636719" xlink:href="#DejaVuSans-116"/>
      <use x="321.845703" xlink:href="#DejaVuSans-121"/>
     </g>
    </g>
   </g>
   <g id="matplotlib.axis_2">
    <g id="ytick_1">
     <g id="line2d_15">
      <path clip-path="url(#p74530902d9)" d="M 46.13875 343.891518 
L 536.7 343.891518 
" style="fill:none;stroke:#ffffff;stroke-linecap:square;stroke-width:0.8;"/>
     </g>
     <g id="line2d_16">
      <defs>
       <path d="M 0 0 
L -3.5 0 
" id="m08aae0a9e7" style="stroke:#555555;stroke-width:0.8;"/>
      </defs>
      <g>
       <use style="fill:#555555;stroke:#555555;stroke-width:0.8;" x="46.13875" xlink:href="#m08aae0a9e7" y="343.891518"/>
      </g>
     </g>
     <g id="text_9">
      <!-- 45 -->
      <g style="fill:#555555;" transform="translate(26.41375 347.690737)scale(0.1 -0.1)">
       <use xlink:href="#DejaVuSans-52"/>
       <use x="63.623047" xlink:href="#DejaVuSans-53"/>
      </g>
     </g>
    </g>
    <g id="ytick_2">
     <g id="line2d_17">
      <path clip-path="url(#p74530902d9)" d="M 46.13875 302.148805 
L 536.7 302.148805 
" style="fill:none;stroke:#ffffff;stroke-linecap:square;stroke-width:0.8;"/>
     </g>
     <g id="line2d_18">
      <g>
       <use style="fill:#555555;stroke:#555555;stroke-width:0.8;" x="46.13875" xlink:href="#m08aae0a9e7" y="302.148805"/>
      </g>
     </g>
     <g id="text_10">
      <!-- 50 -->
      <defs>
       <path d="M 31.78125 66.40625 
Q 24.171875 66.40625 20.328125 58.90625 
Q 16.5 51.421875 16.5 36.375 
Q 16.5 21.390625 20.328125 13.890625 
Q 24.171875 6.390625 31.78125 6.390625 
Q 39.453125 6.390625 43.28125 13.890625 
Q 47.125 21.390625 47.125 36.375 
Q 47.125 51.421875 43.28125 58.90625 
Q 39.453125 66.40625 31.78125 66.40625 
z
M 31.78125 74.21875 
Q 44.046875 74.21875 50.515625 64.515625 
Q 56.984375 54.828125 56.984375 36.375 
Q 56.984375 17.96875 50.515625 8.265625 
Q 44.046875 -1.421875 31.78125 -1.421875 
Q 19.53125 -1.421875 13.0625 8.265625 
Q 6.59375 17.96875 6.59375 36.375 
Q 6.59375 54.828125 13.0625 64.515625 
Q 19.53125 74.21875 31.78125 74.21875 
z
" id="DejaVuSans-48"/>
      </defs>
      <g style="fill:#555555;" transform="translate(26.41375 305.948024)scale(0.1 -0.1)">
       <use xlink:href="#DejaVuSans-53"/>
       <use x="63.623047" xlink:href="#DejaVuSans-48"/>
      </g>
     </g>
    </g>
    <g id="ytick_3">
     <g id="line2d_19">
      <path clip-path="url(#p74530902d9)" d="M 46.13875 260.406092 
L 536.7 260.406092 
" style="fill:none;stroke:#ffffff;stroke-linecap:square;stroke-width:0.8;"/>
     </g>
     <g id="line2d_20">
      <g>
       <use style="fill:#555555;stroke:#555555;stroke-width:0.8;" x="46.13875" xlink:href="#m08aae0a9e7" y="260.406092"/>
      </g>
     </g>
     <g id="text_11">
      <!-- 55 -->
      <g style="fill:#555555;" transform="translate(26.41375 264.205311)scale(0.1 -0.1)">
       <use xlink:href="#DejaVuSans-53"/>
       <use x="63.623047" xlink:href="#DejaVuSans-53"/>
      </g>
     </g>
    </g>
    <g id="ytick_4">
     <g id="line2d_21">
      <path clip-path="url(#p74530902d9)" d="M 46.13875 218.663379 
L 536.7 218.663379 
" style="fill:none;stroke:#ffffff;stroke-linecap:square;stroke-width:0.8;"/>
     </g>
     <g id="line2d_22">
      <g>
       <use style="fill:#555555;stroke:#555555;stroke-width:0.8;" x="46.13875" xlink:href="#m08aae0a9e7" y="218.663379"/>
      </g>
     </g>
     <g id="text_12">
      <!-- 60 -->
      <g style="fill:#555555;" transform="translate(26.41375 222.462598)scale(0.1 -0.1)">
       <use xlink:href="#DejaVuSans-54"/>
       <use x="63.623047" xlink:href="#DejaVuSans-48"/>
      </g>
     </g>
    </g>
    <g id="ytick_5">
     <g id="line2d_23">
      <path clip-path="url(#p74530902d9)" d="M 46.13875 176.920666 
L 536.7 176.920666 
" style="fill:none;stroke:#ffffff;stroke-linecap:square;stroke-width:0.8;"/>
     </g>
     <g id="line2d_24">
      <g>
       <use style="fill:#555555;stroke:#555555;stroke-width:0.8;" x="46.13875" xlink:href="#m08aae0a9e7" y="176.920666"/>
      </g>
     </g>
     <g id="text_13">
      <!-- 65 -->
      <g style="fill:#555555;" transform="translate(26.41375 180.719884)scale(0.1 -0.1)">
       <use xlink:href="#DejaVuSans-54"/>
       <use x="63.623047" xlink:href="#DejaVuSans-53"/>
      </g>
     </g>
    </g>
    <g id="ytick_6">
     <g id="line2d_25">
      <path clip-path="url(#p74530902d9)" d="M 46.13875 135.177952 
L 536.7 135.177952 
" style="fill:none;stroke:#ffffff;stroke-linecap:square;stroke-width:0.8;"/>
     </g>
     <g id="line2d_26">
      <g>
       <use style="fill:#555555;stroke:#555555;stroke-width:0.8;" x="46.13875" xlink:href="#m08aae0a9e7" y="135.177952"/>
      </g>
     </g>
     <g id="text_14">
      <!-- 70 -->
      <g style="fill:#555555;" transform="translate(26.41375 138.977171)scale(0.1 -0.1)">
       <use xlink:href="#DejaVuSans-55"/>
       <use x="63.623047" xlink:href="#DejaVuSans-48"/>
      </g>
     </g>
    </g>
    <g id="ytick_7">
     <g id="line2d_27">
      <path clip-path="url(#p74530902d9)" d="M 46.13875 93.435239 
L 536.7 93.435239 
" style="fill:none;stroke:#ffffff;stroke-linecap:square;stroke-width:0.8;"/>
     </g>
     <g id="line2d_28">
      <g>
       <use style="fill:#555555;stroke:#555555;stroke-width:0.8;" x="46.13875" xlink:href="#m08aae0a9e7" y="93.435239"/>
      </g>
     </g>
     <g id="text_15">
      <!-- 75 -->
      <g style="fill:#555555;" transform="translate(26.41375 97.234458)scale(0.1 -0.1)">
       <use xlink:href="#DejaVuSans-55"/>
       <use x="63.623047" xlink:href="#DejaVuSans-53"/>
      </g>
     </g>
    </g>
    <g id="ytick_8">
     <g id="line2d_29">
      <path clip-path="url(#p74530902d9)" d="M 46.13875 51.692526 
L 536.7 51.692526 
" style="fill:none;stroke:#ffffff;stroke-linecap:square;stroke-width:0.8;"/>
     </g>
     <g id="line2d_30">
      <g>
       <use style="fill:#555555;stroke:#555555;stroke-width:0.8;" x="46.13875" xlink:href="#m08aae0a9e7" y="51.692526"/>
      </g>
     </g>
     <g id="text_16">
      <!-- 80 -->
      <defs>
       <path d="M 31.78125 34.625 
Q 24.75 34.625 20.71875 30.859375 
Q 16.703125 27.09375 16.703125 20.515625 
Q 16.703125 13.921875 20.71875 10.15625 
Q 24.75 6.390625 31.78125 6.390625 
Q 38.8125 6.390625 42.859375 10.171875 
Q 46.921875 13.96875 46.921875 20.515625 
Q 46.921875 27.09375 42.890625 30.859375 
Q 38.875 34.625 31.78125 34.625 
z
M 21.921875 38.8125 
Q 15.578125 40.375 12.03125 44.71875 
Q 8.5 49.078125 8.5 55.328125 
Q 8.5 64.0625 14.71875 69.140625 
Q 20.953125 74.21875 31.78125 74.21875 
Q 42.671875 74.21875 48.875 69.140625 
Q 55.078125 64.0625 55.078125 55.328125 
Q 55.078125 49.078125 51.53125 44.71875 
Q 48 40.375 41.703125 38.8125 
Q 48.828125 37.15625 52.796875 32.3125 
Q 56.78125 27.484375 56.78125 20.515625 
Q 56.78125 9.90625 50.3125 4.234375 
Q 43.84375 -1.421875 31.78125 -1.421875 
Q 19.734375 -1.421875 13.25 4.234375 
Q 6.78125 9.90625 6.78125 20.515625 
Q 6.78125 27.484375 10.78125 32.3125 
Q 14.796875 37.15625 21.921875 38.8125 
z
M 18.3125 54.390625 
Q 18.3125 48.734375 21.84375 45.5625 
Q 25.390625 42.390625 31.78125 42.390625 
Q 38.140625 42.390625 41.71875 45.5625 
Q 45.3125 48.734375 45.3125 54.390625 
Q 45.3125 60.0625 41.71875 63.234375 
Q 38.140625 66.40625 31.78125 66.40625 
Q 25.390625 66.40625 21.84375 63.234375 
Q 18.3125 60.0625 18.3125 54.390625 
z
" id="DejaVuSans-56"/>
      </defs>
      <g style="fill:#555555;" transform="translate(26.41375 55.491745)scale(0.1 -0.1)">
       <use xlink:href="#DejaVuSans-56"/>
       <use x="63.623047" xlink:href="#DejaVuSans-48"/>
      </g>
     </g>
    </g>
    <g id="text_17">
     <!-- Life Expectancy -->
     <defs>
      <path d="M 9.8125 72.90625 
L 19.671875 72.90625 
L 19.671875 8.296875 
L 55.171875 8.296875 
L 55.171875 0 
L 9.8125 0 
z
" id="DejaVuSans-76"/>
      <path d="M 37.109375 75.984375 
L 37.109375 68.5 
L 28.515625 68.5 
Q 23.6875 68.5 21.796875 66.546875 
Q 19.921875 64.59375 19.921875 59.515625 
L 19.921875 54.6875 
L 34.71875 54.6875 
L 34.71875 47.703125 
L 19.921875 47.703125 
L 19.921875 0 
L 10.890625 0 
L 10.890625 47.703125 
L 2.296875 47.703125 
L 2.296875 54.6875 
L 10.890625 54.6875 
L 10.890625 58.5 
Q 10.890625 67.625 15.140625 71.796875 
Q 19.390625 75.984375 28.609375 75.984375 
z
" id="DejaVuSans-102"/>
      <path id="DejaVuSans-32"/>
      <path d="M 9.8125 72.90625 
L 55.90625 72.90625 
L 55.90625 64.59375 
L 19.671875 64.59375 
L 19.671875 43.015625 
L 54.390625 43.015625 
L 54.390625 34.71875 
L 19.671875 34.71875 
L 19.671875 8.296875 
L 56.78125 8.296875 
L 56.78125 0 
L 9.8125 0 
z
" id="DejaVuSans-69"/>
      <path d="M 54.890625 54.6875 
L 35.109375 28.078125 
L 55.90625 0 
L 45.3125 0 
L 29.390625 21.484375 
L 13.484375 0 
L 2.875 0 
L 24.125 28.609375 
L 4.6875 54.6875 
L 15.28125 54.6875 
L 29.78125 35.203125 
L 44.28125 54.6875 
z
" id="DejaVuSans-120"/>
      <path d="M 18.109375 8.203125 
L 18.109375 -20.796875 
L 9.078125 -20.796875 
L 9.078125 54.6875 
L 18.109375 54.6875 
L 18.109375 46.390625 
Q 20.953125 51.265625 25.265625 53.625 
Q 29.59375 56 35.59375 56 
Q 45.5625 56 51.78125 48.09375 
Q 58.015625 40.1875 58.015625 27.296875 
Q 58.015625 14.40625 51.78125 6.484375 
Q 45.5625 -1.421875 35.59375 -1.421875 
Q 29.59375 -1.421875 25.265625 0.953125 
Q 20.953125 3.328125 18.109375 8.203125 
z
M 48.6875 27.296875 
Q 48.6875 37.203125 44.609375 42.84375 
Q 40.53125 48.484375 33.40625 48.484375 
Q 26.265625 48.484375 22.1875 42.84375 
Q 18.109375 37.203125 18.109375 27.296875 
Q 18.109375 17.390625 22.1875 11.75 
Q 26.265625 6.109375 33.40625 6.109375 
Q 40.53125 6.109375 44.609375 11.75 
Q 48.6875 17.390625 48.6875 27.296875 
z
" id="DejaVuSans-112"/>
      <path d="M 48.78125 52.59375 
L 48.78125 44.1875 
Q 44.96875 46.296875 41.140625 47.34375 
Q 37.3125 48.390625 33.40625 48.390625 
Q 24.65625 48.390625 19.8125 42.84375 
Q 14.984375 37.3125 14.984375 27.296875 
Q 14.984375 17.28125 19.8125 11.734375 
Q 24.65625 6.203125 33.40625 6.203125 
Q 37.3125 6.203125 41.140625 7.25 
Q 44.96875 8.296875 48.78125 10.40625 
L 48.78125 2.09375 
Q 45.015625 0.34375 40.984375 -0.53125 
Q 36.96875 -1.421875 32.421875 -1.421875 
Q 20.0625 -1.421875 12.78125 6.34375 
Q 5.515625 14.109375 5.515625 27.296875 
Q 5.515625 40.671875 12.859375 48.328125 
Q 20.21875 56 33.015625 56 
Q 37.15625 56 41.109375 55.140625 
Q 45.0625 54.296875 48.78125 52.59375 
z
" id="DejaVuSans-99"/>
      <path d="M 34.28125 27.484375 
Q 23.390625 27.484375 19.1875 25 
Q 14.984375 22.515625 14.984375 16.5 
Q 14.984375 11.71875 18.140625 8.90625 
Q 21.296875 6.109375 26.703125 6.109375 
Q 34.1875 6.109375 38.703125 11.40625 
Q 43.21875 16.703125 43.21875 25.484375 
L 43.21875 27.484375 
z
M 52.203125 31.203125 
L 52.203125 0 
L 43.21875 0 
L 43.21875 8.296875 
Q 40.140625 3.328125 35.546875 0.953125 
Q 30.953125 -1.421875 24.3125 -1.421875 
Q 15.921875 -1.421875 10.953125 3.296875 
Q 6 8.015625 6 15.921875 
Q 6 25.140625 12.171875 29.828125 
Q 18.359375 34.515625 30.609375 34.515625 
L 43.21875 34.515625 
L 43.21875 35.40625 
Q 43.21875 41.609375 39.140625 45 
Q 35.0625 48.390625 27.6875 48.390625 
Q 23 48.390625 18.546875 47.265625 
Q 14.109375 46.140625 10.015625 43.890625 
L 10.015625 52.203125 
Q 14.9375 54.109375 19.578125 55.046875 
Q 24.21875 56 28.609375 56 
Q 40.484375 56 46.34375 49.84375 
Q 52.203125 43.703125 52.203125 31.203125 
z
" id="DejaVuSans-97"/>
      <path d="M 54.890625 33.015625 
L 54.890625 0 
L 45.90625 0 
L 45.90625 32.71875 
Q 45.90625 40.484375 42.875 44.328125 
Q 39.84375 48.1875 33.796875 48.1875 
Q 26.515625 48.1875 22.3125 43.546875 
Q 18.109375 38.921875 18.109375 30.90625 
L 18.109375 0 
L 9.078125 0 
L 9.078125 54.6875 
L 18.109375 54.6875 
L 18.109375 46.1875 
Q 21.34375 51.125 25.703125 53.5625 
Q 30.078125 56 35.796875 56 
Q 45.21875 56 50.046875 50.171875 
Q 54.890625 44.34375 54.890625 33.015625 
z
" id="DejaVuSans-110"/>
     </defs>
     <g style="fill:#555555;" transform="translate(19.918125 233.649375)rotate(-90)scale(0.12 -0.12)">
      <use xlink:href="#DejaVuSans-76"/>
      <use x="55.712891" xlink:href="#DejaVuSans-105"/>
      <use x="83.496094" xlink:href="#DejaVuSans-102"/>
      <use x="118.701172" xlink:href="#DejaVuSans-101"/>
      <use x="180.224609" xlink:href="#DejaVuSans-32"/>
      <use x="212.011719" xlink:href="#DejaVuSans-69"/>
      <use x="275.195312" xlink:href="#DejaVuSans-120"/>
      <use x="334.375" xlink:href="#DejaVuSans-112"/>
      <use x="397.851562" xlink:href="#DejaVuSans-101"/>
      <use x="459.375" xlink:href="#DejaVuSans-99"/>
      <use x="514.355469" xlink:href="#DejaVuSans-116"/>
      <use x="553.564453" xlink:href="#DejaVuSans-97"/>
      <use x="614.84375" xlink:href="#DejaVuSans-110"/>
      <use x="678.222656" xlink:href="#DejaVuSans-99"/>
      <use x="733.203125" xlink:href="#DejaVuSans-121"/>
     </g>
    </g>
   </g>
   <g id="PathCollection_1">
    <defs>
     <path d="M 0 3 
C 0.795609 3 1.55874 2.683901 2.12132 2.12132 
C 2.683901 1.55874 3 0.795609 3 0 
C 3 -0.795609 2.683901 -1.55874 2.12132 -2.12132 
C 1.55874 -2.683901 0.795609 -3 0 -3 
C -0.795609 -3 -1.55874 -2.683901 -2.12132 -2.12132 
C -2.683901 -1.55874 -3 -0.795609 -3 0 
C -3 0.795609 -2.683901 1.55874 -2.12132 2.12132 
C -1.55874 2.683901 -0.795609 3 0 3 
z
" id="mcf838b46cf" style="stroke:#0000ff;stroke-width:0.5;"/>
    </defs>
    <g clip-path="url(#p74530902d9)">
     <use style="fill:#0000ff;stroke:#0000ff;stroke-width:0.5;" x="171.147578" xlink:href="#mcf838b46cf" y="90.930676"/>
     <use style="fill:#0000ff;stroke:#0000ff;stroke-width:0.5;" x="432.147958" xlink:href="#mcf838b46cf" y="232.855901"/>
     <use style="fill:#0000ff;stroke:#0000ff;stroke-width:0.5;" x="136.582663" xlink:href="#mcf838b46cf" y="89.260968"/>
     <use style="fill:#0000ff;stroke:#0000ff;stroke-width:0.5;" x="77.328523" xlink:href="#mcf838b46cf" y="114.306596"/>
     <use style="fill:#0000ff;stroke:#0000ff;stroke-width:0.5;" x="116.831283" xlink:href="#mcf838b46cf" y="39.169712"/>
     <use style="fill:#0000ff;stroke:#0000ff;stroke-width:0.5;" x="78.033929" xlink:href="#mcf838b46cf" y="48.353109"/>
     <use style="fill:#0000ff;stroke:#0000ff;stroke-width:0.5;" x="118.947502" xlink:href="#mcf838b46cf" y="130.168827"/>
     <use style="fill:#0000ff;stroke:#0000ff;stroke-width:0.5;" x="111.893438" xlink:href="#mcf838b46cf" y="116.811159"/>
     <use style="fill:#0000ff;stroke:#0000ff;stroke-width:0.5;" x="146.458353" xlink:href="#mcf838b46cf" y="148.535621"/>
     <use style="fill:#0000ff;stroke:#0000ff;stroke-width:0.5;" x="107.661" xlink:href="#mcf838b46cf" y="90.930676"/>
     <use style="fill:#0000ff;stroke:#0000ff;stroke-width:0.5;" x="78.739336" xlink:href="#mcf838b46cf" y="134.343098"/>
     <use style="fill:#0000ff;stroke:#0000ff;stroke-width:0.5;" x="106.955593" xlink:href="#mcf838b46cf" y="56.701652"/>
     <use style="fill:#0000ff;stroke:#0000ff;stroke-width:0.5;" x="183.844894" xlink:href="#mcf838b46cf" y="129.333973"/>
     <use style="fill:#0000ff;stroke:#0000ff;stroke-width:0.5;" x="350.320812" xlink:href="#mcf838b46cf" y="191.948042"/>
     <use style="fill:#0000ff;stroke:#0000ff;stroke-width:0.5;" x="155.628637" xlink:href="#mcf838b46cf" y="155.214455"/>
     <use style="fill:#0000ff;stroke:#0000ff;stroke-width:0.5;" x="224.053061" xlink:href="#mcf838b46cf" y="127.664264"/>
     <use style="fill:#0000ff;stroke:#0000ff;stroke-width:0.5;" x="180.317862" xlink:href="#mcf838b46cf" y="208.645128"/>
     <use style="fill:#0000ff;stroke:#0000ff;stroke-width:0.5;" x="112.598845" xlink:href="#mcf838b46cf" y="102.618636"/>
     <use style="fill:#0000ff;stroke:#0000ff;stroke-width:0.5;" x="79.444742" xlink:href="#mcf838b46cf" y="108.462616"/>
     <use style="fill:#0000ff;stroke:#0000ff;stroke-width:0.5;" x="404.637107" xlink:href="#mcf838b46cf" y="223.672504"/>
     <use style="fill:#0000ff;stroke:#0000ff;stroke-width:0.5;" x="435.67499" xlink:href="#mcf838b46cf" y="240.36959"/>
     <use style="fill:#0000ff;stroke:#0000ff;stroke-width:0.5;" x="193.720584" xlink:href="#mcf838b46cf" y="166.902414"/>
     <use style="fill:#0000ff;stroke:#0000ff;stroke-width:0.5;" x="343.266748" xlink:href="#mcf838b46cf" y="247.048424"/>
     <use style="fill:#0000ff;stroke:#0000ff;stroke-width:0.5;" x="97.079903" xlink:href="#mcf838b46cf" y="45.848546"/>
     <use style="fill:#0000ff;stroke:#0000ff;stroke-width:0.5;" x="458.953403" xlink:href="#mcf838b46cf" y="262.0758"/>
     <use style="fill:#0000ff;stroke:#0000ff;stroke-width:0.5;" x="111.893438" xlink:href="#mcf838b46cf" y="60.875923"/>
     <use style="fill:#0000ff;stroke:#0000ff;stroke-width:0.5;" x="149.985385" xlink:href="#mcf838b46cf" y="92.600385"/>
     <use style="fill:#0000ff;stroke:#0000ff;stroke-width:0.5;" x="334.801871" xlink:href="#mcf838b46cf" y="196.957168"/>
     <use style="fill:#0000ff;stroke:#0000ff;stroke-width:0.5;" x="338.328903" xlink:href="#mcf838b46cf" y="230.351338"/>
     <use style="fill:#0000ff;stroke:#0000ff;stroke-width:0.5;" x="113.304251" xlink:href="#mcf838b46cf" y="54.197089"/>
     <use style="fill:#0000ff;stroke:#0000ff;stroke-width:0.5;" x="324.926181" xlink:href="#mcf838b46cf" y="252.892404"/>
     <use style="fill:#0000ff;stroke:#0000ff;stroke-width:0.5;" x="79.444742" xlink:href="#mcf838b46cf" y="80.912425"/>
     <use style="fill:#0000ff;stroke:#0000ff;stroke-width:0.5;" x="84.382587" xlink:href="#mcf838b46cf" y="70.05932"/>
     <use style="fill:#0000ff;stroke:#0000ff;stroke-width:0.5;" x="111.893438" xlink:href="#mcf838b46cf" y="62.545632"/>
     <use style="fill:#0000ff;stroke:#0000ff;stroke-width:0.5;" x="243.804441" xlink:href="#mcf838b46cf" y="210.314836"/>
     <use style="fill:#0000ff;stroke:#0000ff;stroke-width:0.5;" x="171.147578" xlink:href="#mcf838b46cf" y="101.783782"/>
     <use style="fill:#0000ff;stroke:#0000ff;stroke-width:0.5;" x="186.66652" xlink:href="#mcf838b46cf" y="134.343098"/>
     <use style="fill:#0000ff;stroke:#0000ff;stroke-width:0.5;" x="142.225915" xlink:href="#mcf838b46cf" y="100.948928"/>
     <use style="fill:#0000ff;stroke:#0000ff;stroke-width:0.5;" x="353.142438" xlink:href="#mcf838b46cf" y="246.213569"/>
     <use style="fill:#0000ff;stroke:#0000ff;stroke-width:0.5;" x="342.561341" xlink:href="#mcf838b46cf" y="215.323962"/>
     <use style="fill:#0000ff;stroke:#0000ff;stroke-width:0.5;" x="92.847464" xlink:href="#mcf838b46cf" y="101.783782"/>
     <use style="fill:#0000ff;stroke:#0000ff;stroke-width:0.5;" x="171.852985" xlink:href="#mcf838b46cf" y="171.076686"/>
     <use style="fill:#0000ff;stroke:#0000ff;stroke-width:0.5;" x="109.071812" xlink:href="#mcf838b46cf" y="56.701652"/>
     <use style="fill:#0000ff;stroke:#0000ff;stroke-width:0.5;" x="117.53669" xlink:href="#mcf838b46cf" y="43.343983"/>
     <use style="fill:#0000ff;stroke:#0000ff;stroke-width:0.5;" x="280.485575" xlink:href="#mcf838b46cf" y="239.534735"/>
     <use style="fill:#0000ff;stroke:#0000ff;stroke-width:0.5;" x="387.707353" xlink:href="#mcf838b46cf" y="200.296585"/>
     <use style="fill:#0000ff;stroke:#0000ff;stroke-width:0.5;" x="104.839374" xlink:href="#mcf838b46cf" y="117.646013"/>
     <use style="fill:#0000ff;stroke:#0000ff;stroke-width:0.5;" x="75.212304" xlink:href="#mcf838b46cf" y="51.692526"/>
     <use style="fill:#0000ff;stroke:#0000ff;stroke-width:0.5;" x="274.136917" xlink:href="#mcf838b46cf" y="196.122314"/>
     <use style="fill:#0000ff;stroke:#0000ff;stroke-width:0.5;" x="81.560962" xlink:href="#mcf838b46cf" y="55.866797"/>
     <use style="fill:#0000ff;stroke:#0000ff;stroke-width:0.5;" x="269.199072" xlink:href="#mcf838b46cf" y="128.499118"/>
     <use style="fill:#0000ff;stroke:#0000ff;stroke-width:0.5;" x="355.258657" xlink:href="#mcf838b46cf" y="232.855901"/>
     <use style="fill:#0000ff;stroke:#0000ff;stroke-width:0.5;" x="348.909999" xlink:href="#mcf838b46cf" y="291.2957"/>
     <use style="fill:#0000ff;stroke:#0000ff;stroke-width:0.5;" x="171.852985" xlink:href="#mcf838b46cf" y="193.617751"/>
     <use style="fill:#0000ff;stroke:#0000ff;stroke-width:0.5;" x="225.463874" xlink:href="#mcf838b46cf" y="204.470856"/>
     <use style="fill:#0000ff;stroke:#0000ff;stroke-width:0.5;" x="209.239526" xlink:href="#mcf838b46cf" y="127.664264"/>
     <use style="fill:#0000ff;stroke:#0000ff;stroke-width:0.5;" x="72.390678" xlink:href="#mcf838b46cf" y="103.45349"/>
     <use style="fill:#0000ff;stroke:#0000ff;stroke-width:0.5;" x="128.117786" xlink:href="#mcf838b46cf" y="34.995441"/>
     <use style="fill:#0000ff;stroke:#0000ff;stroke-width:0.5;" x="164.79892" xlink:href="#mcf838b46cf" y="181.929791"/>
     <use style="fill:#0000ff;stroke:#0000ff;stroke-width:0.5;" x="153.512418" xlink:href="#mcf838b46cf" y="139.352224"/>
     <use style="fill:#0000ff;stroke:#0000ff;stroke-width:0.5;" x="111.188032" xlink:href="#mcf838b46cf" y="77.573008"/>
     <use style="fill:#0000ff;stroke:#0000ff;stroke-width:0.5;" x="119.652909" xlink:href="#mcf838b46cf" y="56.701652"/>
     <use style="fill:#0000ff;stroke:#0000ff;stroke-width:0.5;" x="184.550301" xlink:href="#mcf838b46cf" y="44.178838"/>
     <use style="fill:#0000ff;stroke:#0000ff;stroke-width:0.5;" x="76.623117" xlink:href="#mcf838b46cf" y="40.004566"/>
     <use style="fill:#0000ff;stroke:#0000ff;stroke-width:0.5;" x="147.16376" xlink:href="#mcf838b46cf" y="89.260968"/>
     <use style="fill:#0000ff;stroke:#0000ff;stroke-width:0.5;" x="73.096084" xlink:href="#mcf838b46cf" y="29.986315"/>
     <use style="fill:#0000ff;stroke:#0000ff;stroke-width:0.5;" x="155.628637" xlink:href="#mcf838b46cf" y="167.737269"/>
     <use style="fill:#0000ff;stroke:#0000ff;stroke-width:0.5;" x="314.345084" xlink:href="#mcf838b46cf" y="206.140565"/>
     <use style="fill:#0000ff;stroke:#0000ff;stroke-width:0.5;" x="84.382587" xlink:href="#mcf838b46cf" y="115.976304"/>
     <use style="fill:#0000ff;stroke:#0000ff;stroke-width:0.5;" x="89.320432" xlink:href="#mcf838b46cf" y="71.729028"/>
     <use style="fill:#0000ff;stroke:#0000ff;stroke-width:0.5;" x="214.177371" xlink:href="#mcf838b46cf" y="342.22181"/>
     <use style="fill:#0000ff;stroke:#0000ff;stroke-width:0.5;" x="344.677561" xlink:href="#mcf838b46cf" y="210.314836"/>
     <use style="fill:#0000ff;stroke:#0000ff;stroke-width:0.5;" x="78.739336" xlink:href="#mcf838b46cf" y="118.480867"/>
     <use style="fill:#0000ff;stroke:#0000ff;stroke-width:0.5;" x="93.552871" xlink:href="#mcf838b46cf" y="45.848546"/>
     <use style="fill:#0000ff;stroke:#0000ff;stroke-width:0.5;" x="316.461303" xlink:href="#mcf838b46cf" y="190.278334"/>
     <use style="fill:#0000ff;stroke:#0000ff;stroke-width:0.5;" x="386.29654" xlink:href="#mcf838b46cf" y="290.460845"/>
     <use style="fill:#0000ff;stroke:#0000ff;stroke-width:0.5;" x="123.179941" xlink:href="#mcf838b46cf" y="97.609511"/>
     <use style="fill:#0000ff;stroke:#0000ff;stroke-width:0.5;" x="146.458353" xlink:href="#mcf838b46cf" y="66.719903"/>
     <use style="fill:#0000ff;stroke:#0000ff;stroke-width:0.5;" x="459.658809" xlink:href="#mcf838b46cf" y="253.727258"/>
     <use style="fill:#0000ff;stroke:#0000ff;stroke-width:0.5;" x="75.91771" xlink:href="#mcf838b46cf" y="40.004566"/>
     <use style="fill:#0000ff;stroke:#0000ff;stroke-width:0.5;" x="327.0424" xlink:href="#mcf838b46cf" y="188.608625"/>
     <use style="fill:#0000ff;stroke:#0000ff;stroke-width:0.5;" x="90.025839" xlink:href="#mcf838b46cf" y="117.646013"/>
     <use style="fill:#0000ff;stroke:#0000ff;stroke-width:0.5;" x="144.342134" xlink:href="#mcf838b46cf" y="87.591259"/>
     <use style="fill:#0000ff;stroke:#0000ff;stroke-width:0.5;" x="83.677181" xlink:href="#mcf838b46cf" y="138.517369"/>
     <use style="fill:#0000ff;stroke:#0000ff;stroke-width:0.5;" x="145.752947" xlink:href="#mcf838b46cf" y="191.948042"/>
     <use style="fill:#0000ff;stroke:#0000ff;stroke-width:0.5;" x="150.690792" xlink:href="#mcf838b46cf" y="107.627762"/>
     <use style="fill:#0000ff;stroke:#0000ff;stroke-width:0.5;" x="369.366786" xlink:href="#mcf838b46cf" y="260.406092"/>
     <use style="fill:#0000ff;stroke:#0000ff;stroke-width:0.5;" x="123.179941" xlink:href="#mcf838b46cf" y="211.984545"/>
     <use style="fill:#0000ff;stroke:#0000ff;stroke-width:0.5;" x="183.139488" xlink:href="#mcf838b46cf" y="146.865912"/>
     <use style="fill:#0000ff;stroke:#0000ff;stroke-width:0.5;" x="103.428561" xlink:href="#mcf838b46cf" y="49.187963"/>
     <use style="fill:#0000ff;stroke:#0000ff;stroke-width:0.5;" x="128.117786" xlink:href="#mcf838b46cf" y="50.022818"/>
     <use style="fill:#0000ff;stroke:#0000ff;stroke-width:0.5;" x="170.442172" xlink:href="#mcf838b46cf" y="91.765531"/>
     <use style="fill:#0000ff;stroke:#0000ff;stroke-width:0.5;" x="513.975104" xlink:href="#mcf838b46cf" y="221.167942"/>
     <use style="fill:#0000ff;stroke:#0000ff;stroke-width:0.5;" x="403.226294" xlink:href="#mcf838b46cf" y="235.360464"/>
     <use style="fill:#0000ff;stroke:#0000ff;stroke-width:0.5;" x="116.831283" xlink:href="#mcf838b46cf" y="45.848546"/>
     <use style="fill:#0000ff;stroke:#0000ff;stroke-width:0.5;" x="182.434081" xlink:href="#mcf838b46cf" y="96.774656"/>
     <use style="fill:#0000ff;stroke:#0000ff;stroke-width:0.5;" x="231.107125" xlink:href="#mcf838b46cf" y="184.434354"/>
     <use style="fill:#0000ff;stroke:#0000ff;stroke-width:0.5;" x="162.682701" xlink:href="#mcf838b46cf" y="75.9033"/>
     <use style="fill:#0000ff;stroke:#0000ff;stroke-width:0.5;" x="265.67204" xlink:href="#mcf838b46cf" y="233.690756"/>
     <use style="fill:#0000ff;stroke:#0000ff;stroke-width:0.5;" x="194.425991" xlink:href="#mcf838b46cf" y="105.123199"/>
     <use style="fill:#0000ff;stroke:#0000ff;stroke-width:0.5;" x="160.566482" xlink:href="#mcf838b46cf" y="78.407863"/>
     <use style="fill:#0000ff;stroke:#0000ff;stroke-width:0.5;" x="208.534119" xlink:href="#mcf838b46cf" y="140.187078"/>
     <use style="fill:#0000ff;stroke:#0000ff;stroke-width:0.5;" x="72.390678" xlink:href="#mcf838b46cf" y="90.930676"/>
     <use style="fill:#0000ff;stroke:#0000ff;stroke-width:0.5;" x="74.506897" xlink:href="#mcf838b46cf" y="58.37136"/>
     <use style="fill:#0000ff;stroke:#0000ff;stroke-width:0.5;" x="133.761037" xlink:href="#mcf838b46cf" y="48.353109"/>
     <use style="fill:#0000ff;stroke:#0000ff;stroke-width:0.5;" x="73.096084" xlink:href="#mcf838b46cf" y="106.792907"/>
     <use style="fill:#0000ff;stroke:#0000ff;stroke-width:0.5;" x="83.677181" xlink:href="#mcf838b46cf" y="155.214455"/>
     <use style="fill:#0000ff;stroke:#0000ff;stroke-width:0.5;" x="335.507277" xlink:href="#mcf838b46cf" y="200.296585"/>
     <use style="fill:#0000ff;stroke:#0000ff;stroke-width:0.5;" x="339.034309" xlink:href="#mcf838b46cf" y="182.764645"/>
     <use style="fill:#0000ff;stroke:#0000ff;stroke-width:0.5;" x="78.033929" xlink:href="#mcf838b46cf" y="81.74728"/>
     <use style="fill:#0000ff;stroke:#0000ff;stroke-width:0.5;" x="340.445122" xlink:href="#mcf838b46cf" y="252.892404"/>
     <use style="fill:#0000ff;stroke:#0000ff;stroke-width:0.5;" x="68.863646" xlink:href="#mcf838b46cf" y="44.178838"/>
     <use style="fill:#0000ff;stroke:#0000ff;stroke-width:0.5;" x="70.979865" xlink:href="#mcf838b46cf" y="95.104948"/>
     <use style="fill:#0000ff;stroke:#0000ff;stroke-width:0.5;" x="79.444742" xlink:href="#mcf838b46cf" y="64.21534"/>
     <use style="fill:#0000ff;stroke:#0000ff;stroke-width:0.5;" x="476.588563" xlink:href="#mcf838b46cf" y="246.213569"/>
     <use style="fill:#0000ff;stroke:#0000ff;stroke-width:0.5;" x="157.744856" xlink:href="#mcf838b46cf" y="260.406092"/>
     <use style="fill:#0000ff;stroke:#0000ff;stroke-width:0.5;" x="78.739336" xlink:href="#mcf838b46cf" y="42.509129"/>
     <use style="fill:#0000ff;stroke:#0000ff;stroke-width:0.5;" x="142.225915" xlink:href="#mcf838b46cf" y="99.279219"/>
     <use style="fill:#0000ff;stroke:#0000ff;stroke-width:0.5;" x="316.461303" xlink:href="#mcf838b46cf" y="156.884163"/>
     <use style="fill:#0000ff;stroke:#0000ff;stroke-width:0.5;" x="148.574573" xlink:href="#mcf838b46cf" y="142.691641"/>
     <use style="fill:#0000ff;stroke:#0000ff;stroke-width:0.5;" x="239.572002" xlink:href="#mcf838b46cf" y="334.708121"/>
     <use style="fill:#0000ff;stroke:#0000ff;stroke-width:0.5;" x="114.009657" xlink:href="#mcf838b46cf" y="42.509129"/>
     <use style="fill:#0000ff;stroke:#0000ff;stroke-width:0.5;" x="82.266368" xlink:href="#mcf838b46cf" y="35.830295"/>
     <use style="fill:#0000ff;stroke:#0000ff;stroke-width:0.5;" x="239.572002" xlink:href="#mcf838b46cf" y="139.352224"/>
     <use style="fill:#0000ff;stroke:#0000ff;stroke-width:0.5;" x="369.366786" xlink:href="#mcf838b46cf" y="221.167942"/>
     <use style="fill:#0000ff;stroke:#0000ff;stroke-width:0.5;" x="82.971774" xlink:href="#mcf838b46cf" y="100.948928"/>
     <use style="fill:#0000ff;stroke:#0000ff;stroke-width:0.5;" x="322.809961" xlink:href="#mcf838b46cf" y="218.663379"/>
     <use style="fill:#0000ff;stroke:#0000ff;stroke-width:0.5;" x="105.54478" xlink:href="#mcf838b46cf" y="124.324847"/>
     <use style="fill:#0000ff;stroke:#0000ff;stroke-width:0.5;" x="122.474535" xlink:href="#mcf838b46cf" y="80.912425"/>
     <use style="fill:#0000ff;stroke:#0000ff;stroke-width:0.5;" x="130.234005" xlink:href="#mcf838b46cf" y="92.600385"/>
     <use style="fill:#0000ff;stroke:#0000ff;stroke-width:0.5;" x="425.7993" xlink:href="#mcf838b46cf" y="242.039298"/>
     <use style="fill:#0000ff;stroke:#0000ff;stroke-width:0.5;" x="75.91771" xlink:href="#mcf838b46cf" y="150.205329"/>
     <use style="fill:#0000ff;stroke:#0000ff;stroke-width:0.5;" x="110.482625" xlink:href="#mcf838b46cf" y="55.866797"/>
     <use style="fill:#0000ff;stroke:#0000ff;stroke-width:0.5;" x="124.590754" xlink:href="#mcf838b46cf" y="66.719903"/>
     <use style="fill:#0000ff;stroke:#0000ff;stroke-width:0.5;" x="127.41238" xlink:href="#mcf838b46cf" y="85.086697"/>
     <use style="fill:#0000ff;stroke:#0000ff;stroke-width:0.5;" x="152.101605" xlink:href="#mcf838b46cf" y="146.031058"/>
     <use style="fill:#0000ff;stroke:#0000ff;stroke-width:0.5;" x="109.777219" xlink:href="#mcf838b46cf" y="90.095822"/>
     <use style="fill:#0000ff;stroke:#0000ff;stroke-width:0.5;" x="393.350604" xlink:href="#mcf838b46cf" y="285.45172"/>
     <use style="fill:#0000ff;stroke:#0000ff;stroke-width:0.5;" x="250.153099" xlink:href="#mcf838b46cf" y="310.497348"/>
    </g>
   </g>
   <g id="line2d_31">
    <path clip-path="url(#p74530902d9)" d="M 68.863646 74.491991 
L 77.947553 79.269551 
L 87.03146 84.047112 
L 96.115368 88.824672 
L 105.199275 93.602232 
L 114.283182 98.379792 
L 123.36709 103.157353 
L 132.450997 107.934913 
L 141.534904 112.712473 
L 150.618812 117.490033 
L 159.702719 122.267594 
L 168.786626 127.045154 
L 177.870534 131.822714 
L 186.954441 136.600274 
L 196.038348 141.377835 
L 205.122255 146.155395 
L 214.206163 150.932955 
L 223.29007 155.710515 
L 232.373977 160.488076 
L 241.457885 165.265636 
L 250.541792 170.043196 
L 259.625699 174.820756 
L 268.709607 179.598317 
L 277.793514 184.375877 
L 286.877421 189.153437 
L 295.961329 193.930997 
L 305.045236 198.708558 
L 314.129143 203.486118 
L 323.213051 208.263678 
L 332.296958 213.041238 
L 341.380865 217.818799 
L 350.464773 222.596359 
L 359.54868 227.373919 
L 368.632587 232.151479 
L 377.716495 236.92904 
L 386.800402 241.7066 
L 395.884309 246.48416 
L 404.968216 251.26172 
L 414.052124 256.039281 
L 423.136031 260.816841 
L 432.219938 265.594401 
L 441.303846 270.371961 
L 450.387753 275.149522 
L 459.47166 279.927082 
L 468.555568 284.704642 
L 477.639475 289.482202 
L 486.723382 294.259763 
L 495.80729 299.037323 
L 504.891197 303.814883 
L 513.975104 308.592443 
" style="fill:none;stroke:#000000;stroke-linecap:square;stroke-width:3;"/>
   </g>
   <g id="patch_3">
    <path d="M 46.13875 357.908125 
L 46.13875 14.3 
" style="fill:none;stroke:#ffffff;stroke-linecap:square;stroke-linejoin:miter;"/>
   </g>
   <g id="patch_4">
    <path d="M 536.7 357.908125 
L 536.7 14.3 
" style="fill:none;stroke:#ffffff;stroke-linecap:square;stroke-linejoin:miter;"/>
   </g>
   <g id="patch_5">
    <path d="M 46.13875 357.908125 
L 536.7 357.908125 
" style="fill:none;stroke:#ffffff;stroke-linecap:square;stroke-linejoin:miter;"/>
   </g>
   <g id="patch_6">
    <path d="M 46.13875 14.3 
L 536.7 14.3 
" style="fill:none;stroke:#ffffff;stroke-linecap:square;stroke-linejoin:miter;"/>
   </g>
  </g>
 </g>
 <defs>
  <clipPath id="p74530902d9">
   <rect height="343.608125" width="490.56125" x="46.13875" y="14.3"/>
  </clipPath>
 </defs>
</svg>
