<?xml version="1.0" encoding="utf-8" standalone="no"?>
<!DOCTYPE svg PUBLIC "-//W3C//DTD SVG 1.1//EN"
  "http://www.w3.org/Graphics/SVG/1.1/DTD/svg11.dtd">
<!-- Created with matplotlib (http://matplotlib.org/) -->
<svg height="414pt" version="1.1" viewBox="0 0 566 414" width="566pt" xmlns="http://www.w3.org/2000/svg" xmlns:xlink="http://www.w3.org/1999/xlink">
 <defs>
  <style type="text/css">
*{stroke-linecap:butt;stroke-linejoin:round;}
  </style>
 </defs>
 <g id="figure_1">
  <g id="patch_1">
   <path d="M 0 414 
L 566 414 
L 566 0 
L 0 0 
z
" style="fill:#ffffff;"/>
  </g>
  <g id="axes_1">
   <g id="patch_2">
    <path d="M 30.525 386.521875 
L 551.7 386.521875 
L 551.7 14.3 
L 30.525 14.3 
z
" style="fill:#ffffff;"/>
   </g>
   <g id="matplotlib.axis_1">
    <g id="xtick_1">
     <g id="line2d_1">
      <defs>
       <path d="M 0 0 
L 0 3.5 
" id="m80f2cce6ec" style="stroke:#000000;stroke-width:0.8;"/>
      </defs>
      <g>
       <use style="stroke:#000000;stroke-width:0.8;" x="54.214773" xlink:href="#m80f2cce6ec" y="386.521875"/>
      </g>
     </g>
     <g id="text_1">
      <!-- 0 -->
      <defs>
       <path d="M 31.78125 66.40625 
Q 24.171875 66.40625 20.328125 58.90625 
Q 16.5 51.421875 16.5 36.375 
Q 16.5 21.390625 20.328125 13.890625 
Q 24.171875 6.390625 31.78125 6.390625 
Q 39.453125 6.390625 43.28125 13.890625 
Q 47.125 21.390625 47.125 36.375 
Q 47.125 51.421875 43.28125 58.90625 
Q 39.453125 66.40625 31.78125 66.40625 
z
M 31.78125 74.21875 
Q 44.046875 74.21875 50.515625 64.515625 
Q 56.984375 54.828125 56.984375 36.375 
Q 56.984375 17.96875 50.515625 8.265625 
Q 44.046875 -1.421875 31.78125 -1.421875 
Q 19.53125 -1.421875 13.0625 8.265625 
Q 6.59375 17.96875 6.59375 36.375 
Q 6.59375 54.828125 13.0625 64.515625 
Q 19.53125 74.21875 31.78125 74.21875 
z
" id="DejaVuSans-30"/>
      </defs>
      <g transform="translate(51.033523 401.120313)scale(0.1 -0.1)">
       <use xlink:href="#DejaVuSans-30"/>
      </g>
     </g>
    </g>
    <g id="xtick_2">
     <g id="line2d_2">
      <g>
       <use style="stroke:#000000;stroke-width:0.8;" x="117.982667" xlink:href="#m80f2cce6ec" y="386.521875"/>
      </g>
     </g>
     <g id="text_2">
      <!-- 100 -->
      <defs>
       <path d="M 12.40625 8.296875 
L 28.515625 8.296875 
L 28.515625 63.921875 
L 10.984375 60.40625 
L 10.984375 69.390625 
L 28.421875 72.90625 
L 38.28125 72.90625 
L 38.28125 8.296875 
L 54.390625 8.296875 
L 54.390625 0 
L 12.40625 0 
z
" id="DejaVuSans-31"/>
      </defs>
      <g transform="translate(108.438917 401.120313)scale(0.1 -0.1)">
       <use xlink:href="#DejaVuSans-31"/>
       <use x="63.623047" xlink:href="#DejaVuSans-30"/>
       <use x="127.246094" xlink:href="#DejaVuSans-30"/>
      </g>
     </g>
    </g>
    <g id="xtick_3">
     <g id="line2d_3">
      <g>
       <use style="stroke:#000000;stroke-width:0.8;" x="181.750561" xlink:href="#m80f2cce6ec" y="386.521875"/>
      </g>
     </g>
     <g id="text_3">
      <!-- 200 -->
      <defs>
       <path d="M 19.1875 8.296875 
L 53.609375 8.296875 
L 53.609375 0 
L 7.328125 0 
L 7.328125 8.296875 
Q 12.9375 14.109375 22.625 23.890625 
Q 32.328125 33.6875 34.8125 36.53125 
Q 39.546875 41.84375 41.421875 45.53125 
Q 43.3125 49.21875 43.3125 52.78125 
Q 43.3125 58.59375 39.234375 62.25 
Q 35.15625 65.921875 28.609375 65.921875 
Q 23.96875 65.921875 18.8125 64.3125 
Q 13.671875 62.703125 7.8125 59.421875 
L 7.8125 69.390625 
Q 13.765625 71.78125 18.9375 73 
Q 24.125 74.21875 28.421875 74.21875 
Q 39.75 74.21875 46.484375 68.546875 
Q 53.21875 62.890625 53.21875 53.421875 
Q 53.21875 48.921875 51.53125 44.890625 
Q 49.859375 40.875 45.40625 35.40625 
Q 44.1875 33.984375 37.640625 27.21875 
Q 31.109375 20.453125 19.1875 8.296875 
z
" id="DejaVuSans-32"/>
      </defs>
      <g transform="translate(172.206811 401.120313)scale(0.1 -0.1)">
       <use xlink:href="#DejaVuSans-32"/>
       <use x="63.623047" xlink:href="#DejaVuSans-30"/>
       <use x="127.246094" xlink:href="#DejaVuSans-30"/>
      </g>
     </g>
    </g>
    <g id="xtick_4">
     <g id="line2d_4">
      <g>
       <use style="stroke:#000000;stroke-width:0.8;" x="245.518456" xlink:href="#m80f2cce6ec" y="386.521875"/>
      </g>
     </g>
     <g id="text_4">
      <!-- 300 -->
      <defs>
       <path d="M 40.578125 39.3125 
Q 47.65625 37.796875 51.625 33 
Q 55.609375 28.21875 55.609375 21.1875 
Q 55.609375 10.40625 48.1875 4.484375 
Q 40.765625 -1.421875 27.09375 -1.421875 
Q 22.515625 -1.421875 17.65625 -0.515625 
Q 12.796875 0.390625 7.625 2.203125 
L 7.625 11.71875 
Q 11.71875 9.328125 16.59375 8.109375 
Q 21.484375 6.890625 26.8125 6.890625 
Q 36.078125 6.890625 40.9375 10.546875 
Q 45.796875 14.203125 45.796875 21.1875 
Q 45.796875 27.640625 41.28125 31.265625 
Q 36.765625 34.90625 28.71875 34.90625 
L 20.21875 34.90625 
L 20.21875 43.015625 
L 29.109375 43.015625 
Q 36.375 43.015625 40.234375 45.921875 
Q 44.09375 48.828125 44.09375 54.296875 
Q 44.09375 59.90625 40.109375 62.90625 
Q 36.140625 65.921875 28.71875 65.921875 
Q 24.65625 65.921875 20.015625 65.03125 
Q 15.375 64.15625 9.8125 62.3125 
L 9.8125 71.09375 
Q 15.4375 72.65625 20.34375 73.4375 
Q 25.25 74.21875 29.59375 74.21875 
Q 40.828125 74.21875 47.359375 69.109375 
Q 53.90625 64.015625 53.90625 55.328125 
Q 53.90625 49.265625 50.4375 45.09375 
Q 46.96875 40.921875 40.578125 39.3125 
z
" id="DejaVuSans-33"/>
      </defs>
      <g transform="translate(235.974706 401.120313)scale(0.1 -0.1)">
       <use xlink:href="#DejaVuSans-33"/>
       <use x="63.623047" xlink:href="#DejaVuSans-30"/>
       <use x="127.246094" xlink:href="#DejaVuSans-30"/>
      </g>
     </g>
    </g>
    <g id="xtick_5">
     <g id="line2d_5">
      <g>
       <use style="stroke:#000000;stroke-width:0.8;" x="309.28635" xlink:href="#m80f2cce6ec" y="386.521875"/>
      </g>
     </g>
     <g id="text_5">
      <!-- 400 -->
      <defs>
       <path d="M 37.796875 64.3125 
L 12.890625 25.390625 
L 37.796875 25.390625 
z
M 35.203125 72.90625 
L 47.609375 72.90625 
L 47.609375 25.390625 
L 58.015625 25.390625 
L 58.015625 17.1875 
L 47.609375 17.1875 
L 47.609375 0 
L 37.796875 0 
L 37.796875 17.1875 
L 4.890625 17.1875 
L 4.890625 26.703125 
z
" id="DejaVuSans-34"/>
      </defs>
      <g transform="translate(299.7426 401.120313)scale(0.1 -0.1)">
       <use xlink:href="#DejaVuSans-34"/>
       <use x="63.623047" xlink:href="#DejaVuSans-30"/>
       <use x="127.246094" xlink:href="#DejaVuSans-30"/>
      </g>
     </g>
    </g>
    <g id="xtick_6">
     <g id="line2d_6">
      <g>
       <use style="stroke:#000000;stroke-width:0.8;" x="373.054244" xlink:href="#m80f2cce6ec" y="386.521875"/>
      </g>
     </g>
     <g id="text_6">
      <!-- 500 -->
      <defs>
       <path d="M 10.796875 72.90625 
L 49.515625 72.90625 
L 49.515625 64.59375 
L 19.828125 64.59375 
L 19.828125 46.734375 
Q 21.96875 47.46875 24.109375 47.828125 
Q 26.265625 48.1875 28.421875 48.1875 
Q 40.625 48.1875 47.75 41.5 
Q 54.890625 34.8125 54.890625 23.390625 
Q 54.890625 11.625 47.5625 5.09375 
Q 40.234375 -1.421875 26.90625 -1.421875 
Q 22.3125 -1.421875 17.546875 -0.640625 
Q 12.796875 0.140625 7.71875 1.703125 
L 7.71875 11.625 
Q 12.109375 9.234375 16.796875 8.0625 
Q 21.484375 6.890625 26.703125 6.890625 
Q 35.15625 6.890625 40.078125 11.328125 
Q 45.015625 15.765625 45.015625 23.390625 
Q 45.015625 31 40.078125 35.4375 
Q 35.15625 39.890625 26.703125 39.890625 
Q 22.75 39.890625 18.8125 39.015625 
Q 14.890625 38.140625 10.796875 36.28125 
z
" id="DejaVuSans-35"/>
      </defs>
      <g transform="translate(363.510494 401.120313)scale(0.1 -0.1)">
       <use xlink:href="#DejaVuSans-35"/>
       <use x="63.623047" xlink:href="#DejaVuSans-30"/>
       <use x="127.246094" xlink:href="#DejaVuSans-30"/>
      </g>
     </g>
    </g>
    <g id="xtick_7">
     <g id="line2d_7">
      <g>
       <use style="stroke:#000000;stroke-width:0.8;" x="436.822138" xlink:href="#m80f2cce6ec" y="386.521875"/>
      </g>
     </g>
     <g id="text_7">
      <!-- 600 -->
      <defs>
       <path d="M 33.015625 40.375 
Q 26.375 40.375 22.484375 35.828125 
Q 18.609375 31.296875 18.609375 23.390625 
Q 18.609375 15.53125 22.484375 10.953125 
Q 26.375 6.390625 33.015625 6.390625 
Q 39.65625 6.390625 43.53125 10.953125 
Q 47.40625 15.53125 47.40625 23.390625 
Q 47.40625 31.296875 43.53125 35.828125 
Q 39.65625 40.375 33.015625 40.375 
z
M 52.59375 71.296875 
L 52.59375 62.3125 
Q 48.875 64.0625 45.09375 64.984375 
Q 41.3125 65.921875 37.59375 65.921875 
Q 27.828125 65.921875 22.671875 59.328125 
Q 17.53125 52.734375 16.796875 39.40625 
Q 19.671875 43.65625 24.015625 45.921875 
Q 28.375 48.1875 33.59375 48.1875 
Q 44.578125 48.1875 50.953125 41.515625 
Q 57.328125 34.859375 57.328125 23.390625 
Q 57.328125 12.15625 50.6875 5.359375 
Q 44.046875 -1.421875 33.015625 -1.421875 
Q 20.359375 -1.421875 13.671875 8.265625 
Q 6.984375 17.96875 6.984375 36.375 
Q 6.984375 53.65625 15.1875 63.9375 
Q 23.390625 74.21875 37.203125 74.21875 
Q 40.921875 74.21875 44.703125 73.484375 
Q 48.484375 72.75 52.59375 71.296875 
z
" id="DejaVuSans-36"/>
      </defs>
      <g transform="translate(427.278388 401.120313)scale(0.1 -0.1)">
       <use xlink:href="#DejaVuSans-36"/>
       <use x="63.623047" xlink:href="#DejaVuSans-30"/>
       <use x="127.246094" xlink:href="#DejaVuSans-30"/>
      </g>
     </g>
    </g>
    <g id="xtick_8">
     <g id="line2d_8">
      <g>
       <use style="stroke:#000000;stroke-width:0.8;" x="500.590033" xlink:href="#m80f2cce6ec" y="386.521875"/>
      </g>
     </g>
     <g id="text_8">
      <!-- 700 -->
      <defs>
       <path d="M 8.203125 72.90625 
L 55.078125 72.90625 
L 55.078125 68.703125 
L 28.609375 0 
L 18.3125 0 
L 43.21875 64.59375 
L 8.203125 64.59375 
z
" id="DejaVuSans-37"/>
      </defs>
      <g transform="translate(491.046283 401.120313)scale(0.1 -0.1)">
       <use xlink:href="#DejaVuSans-37"/>
       <use x="63.623047" xlink:href="#DejaVuSans-30"/>
       <use x="127.246094" xlink:href="#DejaVuSans-30"/>
      </g>
     </g>
    </g>
   </g>
   <g id="matplotlib.axis_2">
    <g id="ytick_1">
     <g id="line2d_9">
      <defs>
       <path d="M 0 0 
L -3.5 0 
" id="mc846eb3e9e" style="stroke:#000000;stroke-width:0.8;"/>
      </defs>
      <g>
       <use style="stroke:#000000;stroke-width:0.8;" x="30.525" xlink:href="#mc846eb3e9e" y="379.7037"/>
      </g>
     </g>
     <g id="text_9">
      <!-- 66 -->
      <g transform="translate(10.8 383.502918)scale(0.1 -0.1)">
       <use xlink:href="#DejaVuSans-36"/>
       <use x="63.623047" xlink:href="#DejaVuSans-36"/>
      </g>
     </g>
    </g>
    <g id="ytick_2">
     <g id="line2d_10">
      <g>
       <use style="stroke:#000000;stroke-width:0.8;" x="30.525" xlink:href="#mc846eb3e9e" y="329.198696"/>
      </g>
     </g>
     <g id="text_10">
      <!-- 67 -->
      <g transform="translate(10.8 332.997915)scale(0.1 -0.1)">
       <use xlink:href="#DejaVuSans-36"/>
       <use x="63.623047" xlink:href="#DejaVuSans-37"/>
      </g>
     </g>
    </g>
    <g id="ytick_3">
     <g id="line2d_11">
      <g>
       <use style="stroke:#000000;stroke-width:0.8;" x="30.525" xlink:href="#mc846eb3e9e" y="278.693693"/>
      </g>
     </g>
     <g id="text_11">
      <!-- 68 -->
      <defs>
       <path d="M 31.78125 34.625 
Q 24.75 34.625 20.71875 30.859375 
Q 16.703125 27.09375 16.703125 20.515625 
Q 16.703125 13.921875 20.71875 10.15625 
Q 24.75 6.390625 31.78125 6.390625 
Q 38.8125 6.390625 42.859375 10.171875 
Q 46.921875 13.96875 46.921875 20.515625 
Q 46.921875 27.09375 42.890625 30.859375 
Q 38.875 34.625 31.78125 34.625 
z
M 21.921875 38.8125 
Q 15.578125 40.375 12.03125 44.71875 
Q 8.5 49.078125 8.5 55.328125 
Q 8.5 64.0625 14.71875 69.140625 
Q 20.953125 74.21875 31.78125 74.21875 
Q 42.671875 74.21875 48.875 69.140625 
Q 55.078125 64.0625 55.078125 55.328125 
Q 55.078125 49.078125 51.53125 44.71875 
Q 48 40.375 41.703125 38.8125 
Q 48.828125 37.15625 52.796875 32.3125 
Q 56.78125 27.484375 56.78125 20.515625 
Q 56.78125 9.90625 50.3125 4.234375 
Q 43.84375 -1.421875 31.78125 -1.421875 
Q 19.734375 -1.421875 13.25 4.234375 
Q 6.78125 9.90625 6.78125 20.515625 
Q 6.78125 27.484375 10.78125 32.3125 
Q 14.796875 37.15625 21.921875 38.8125 
z
M 18.3125 54.390625 
Q 18.3125 48.734375 21.84375 45.5625 
Q 25.390625 42.390625 31.78125 42.390625 
Q 38.140625 42.390625 41.71875 45.5625 
Q 45.3125 48.734375 45.3125 54.390625 
Q 45.3125 60.0625 41.71875 63.234375 
Q 38.140625 66.40625 31.78125 66.40625 
Q 25.390625 66.40625 21.84375 63.234375 
Q 18.3125 60.0625 18.3125 54.390625 
z
" id="DejaVuSans-38"/>
      </defs>
      <g transform="translate(10.8 282.492912)scale(0.1 -0.1)">
       <use xlink:href="#DejaVuSans-36"/>
       <use x="63.623047" xlink:href="#DejaVuSans-38"/>
      </g>
     </g>
    </g>
    <g id="ytick_4">
     <g id="line2d_12">
      <g>
       <use style="stroke:#000000;stroke-width:0.8;" x="30.525" xlink:href="#mc846eb3e9e" y="228.188689"/>
      </g>
     </g>
     <g id="text_12">
      <!-- 69 -->
      <defs>
       <path d="M 10.984375 1.515625 
L 10.984375 10.5 
Q 14.703125 8.734375 18.5 7.8125 
Q 22.3125 6.890625 25.984375 6.890625 
Q 35.75 6.890625 40.890625 13.453125 
Q 46.046875 20.015625 46.78125 33.40625 
Q 43.953125 29.203125 39.59375 26.953125 
Q 35.25 24.703125 29.984375 24.703125 
Q 19.046875 24.703125 12.671875 31.3125 
Q 6.296875 37.9375 6.296875 49.421875 
Q 6.296875 60.640625 12.9375 67.421875 
Q 19.578125 74.21875 30.609375 74.21875 
Q 43.265625 74.21875 49.921875 64.515625 
Q 56.59375 54.828125 56.59375 36.375 
Q 56.59375 19.140625 48.40625 8.859375 
Q 40.234375 -1.421875 26.421875 -1.421875 
Q 22.703125 -1.421875 18.890625 -0.6875 
Q 15.09375 0.046875 10.984375 1.515625 
z
M 30.609375 32.421875 
Q 37.25 32.421875 41.125 36.953125 
Q 45.015625 41.5 45.015625 49.421875 
Q 45.015625 57.28125 41.125 61.84375 
Q 37.25 66.40625 30.609375 66.40625 
Q 23.96875 66.40625 20.09375 61.84375 
Q 16.21875 57.28125 16.21875 49.421875 
Q 16.21875 41.5 20.09375 36.953125 
Q 23.96875 32.421875 30.609375 32.421875 
z
" id="DejaVuSans-39"/>
      </defs>
      <g transform="translate(10.8 231.987908)scale(0.1 -0.1)">
       <use xlink:href="#DejaVuSans-36"/>
       <use x="63.623047" xlink:href="#DejaVuSans-39"/>
      </g>
     </g>
    </g>
    <g id="ytick_5">
     <g id="line2d_13">
      <g>
       <use style="stroke:#000000;stroke-width:0.8;" x="30.525" xlink:href="#mc846eb3e9e" y="177.683686"/>
      </g>
     </g>
     <g id="text_13">
      <!-- 70 -->
      <g transform="translate(10.8 181.482905)scale(0.1 -0.1)">
       <use xlink:href="#DejaVuSans-37"/>
       <use x="63.623047" xlink:href="#DejaVuSans-30"/>
      </g>
     </g>
    </g>
    <g id="ytick_6">
     <g id="line2d_14">
      <g>
       <use style="stroke:#000000;stroke-width:0.8;" x="30.525" xlink:href="#mc846eb3e9e" y="127.178683"/>
      </g>
     </g>
     <g id="text_14">
      <!-- 71 -->
      <g transform="translate(10.8 130.977901)scale(0.1 -0.1)">
       <use xlink:href="#DejaVuSans-37"/>
       <use x="63.623047" xlink:href="#DejaVuSans-31"/>
      </g>
     </g>
    </g>
    <g id="ytick_7">
     <g id="line2d_15">
      <g>
       <use style="stroke:#000000;stroke-width:0.8;" x="30.525" xlink:href="#mc846eb3e9e" y="76.673679"/>
      </g>
     </g>
     <g id="text_15">
      <!-- 72 -->
      <g transform="translate(10.8 80.472898)scale(0.1 -0.1)">
       <use xlink:href="#DejaVuSans-37"/>
       <use x="63.623047" xlink:href="#DejaVuSans-32"/>
      </g>
     </g>
    </g>
    <g id="ytick_8">
     <g id="line2d_16">
      <g>
       <use style="stroke:#000000;stroke-width:0.8;" x="30.525" xlink:href="#mc846eb3e9e" y="26.168676"/>
      </g>
     </g>
     <g id="text_16">
      <!-- 73 -->
      <g transform="translate(10.8 29.967895)scale(0.1 -0.1)">
       <use xlink:href="#DejaVuSans-37"/>
       <use x="63.623047" xlink:href="#DejaVuSans-33"/>
      </g>
     </g>
    </g>
   </g>
   <g id="line2d_17">
    <path clip-path="url(#p78ce87fbb3)" d="M 54.214773 137.279683 
L 54.852452 117.077682 
L 56.12781 106.976681 
L 56.765488 106.976681 
L 57.403167 112.027182 
L 58.040846 112.027182 
L 58.678525 61.522178 
L 59.316204 36.269676 
L 59.953883 71.623179 
L 61.86692 223.138189 
L 63.779957 324.148196 
L 64.417636 339.299697 
L 65.055315 334.249196 
L 65.692994 344.350197 
L 66.968352 248.390691 
L 68.243709 162.532185 
L 68.881388 142.330184 
L 69.519067 137.279683 
L 70.156746 117.077682 
L 72.069783 101.926181 
L 73.345141 112.027182 
L 73.98282 61.522178 
L 74.620499 36.269676 
L 75.258178 71.623179 
L 77.171215 223.138189 
L 78.446573 298.895694 
L 79.084251 329.198696 
L 79.72193 344.350197 
L 80.359609 339.299697 
L 80.997288 349.400698 
L 81.634967 293.845194 
L 83.548004 167.582685 
L 84.185683 142.330184 
L 84.823362 137.279683 
L 85.461041 117.077682 
L 86.736399 106.976681 
L 87.374078 106.976681 
L 88.011757 112.027182 
L 88.649436 112.027182 
L 89.287115 61.522178 
L 89.924794 36.269676 
L 90.562472 66.572679 
L 91.83783 172.633186 
L 92.475509 223.138189 
L 93.750867 303.946194 
L 94.388546 329.198696 
L 95.026225 344.350197 
L 95.663904 339.299697 
L 96.301583 354.451198 
L 97.576941 248.390691 
L 98.852299 167.582685 
L 99.489978 147.380684 
L 100.127657 137.279683 
L 100.765336 122.128182 
L 101.403014 112.027182 
L 102.040693 106.976681 
L 102.678372 106.976681 
L 103.95373 117.077682 
L 104.591409 61.522178 
L 105.229088 36.269676 
L 105.866767 71.623179 
L 106.504446 127.178683 
L 109.055162 303.946194 
L 109.692841 329.198696 
L 110.33052 344.350197 
L 110.968199 339.299697 
L 111.605878 349.400698 
L 112.243557 293.845194 
L 113.518914 207.986688 
L 114.156593 172.633186 
L 114.794272 147.380684 
L 115.431951 142.330184 
L 116.06963 122.128182 
L 116.707309 112.027182 
L 117.344988 106.976681 
L 117.982667 106.976681 
L 119.258025 117.077682 
L 119.895704 66.572679 
L 120.533383 36.269676 
L 121.171062 66.572679 
L 122.44642 172.633186 
L 123.084099 223.138189 
L 124.359456 298.895694 
L 124.997135 329.198696 
L 125.634814 344.350197 
L 126.272493 334.249196 
L 126.910172 349.400698 
L 127.547851 293.845194 
L 128.823209 207.986688 
L 130.098567 152.431184 
L 130.736246 142.330184 
L 131.373925 122.128182 
L 132.649283 112.027182 
L 133.286962 112.027182 
L 134.56232 122.128182 
L 135.199998 71.623179 
L 135.837677 41.320177 
L 136.475356 71.623179 
L 138.388393 228.188689 
L 140.30143 329.198696 
L 140.939109 344.350197 
L 141.576788 339.299697 
L 142.214467 349.400698 
L 143.489825 253.441191 
L 144.127504 213.037188 
L 145.402862 152.431184 
L 146.04054 147.380684 
L 146.678219 127.178683 
L 147.315898 117.077682 
L 147.953577 112.027182 
L 148.591256 112.027182 
L 149.228935 122.128182 
L 149.866614 127.178683 
L 150.504293 71.623179 
L 151.141972 41.320177 
L 151.779651 66.572679 
L 153.055009 172.633186 
L 153.692688 223.138189 
L 155.605725 329.198696 
L 156.243404 344.350197 
L 156.881083 334.249196 
L 157.518761 344.350197 
L 158.794119 243.34019 
L 159.431798 207.986688 
L 160.069477 182.734186 
L 160.707156 152.431184 
L 161.344835 147.380684 
L 161.982514 127.178683 
L 162.620193 117.077682 
L 163.257872 112.027182 
L 163.895551 112.027182 
L 164.53323 127.178683 
L 165.170909 127.178683 
L 165.808588 71.623179 
L 166.446267 41.320177 
L 167.083946 66.572679 
L 168.996982 218.087689 
L 170.910019 319.097695 
L 171.547698 339.299697 
L 172.185377 334.249196 
L 172.823056 344.350197 
L 173.460735 288.794693 
L 174.098414 243.34019 
L 174.736093 207.986688 
L 175.373772 182.734186 
L 176.011451 152.431184 
L 176.64913 147.380684 
L 177.286809 127.178683 
L 177.924488 117.077682 
L 178.562167 112.027182 
L 179.199846 117.077682 
L 179.837524 127.178683 
L 180.475203 127.178683 
L 181.112882 71.623179 
L 181.750561 41.320177 
L 182.38824 66.572679 
L 184.301277 218.087689 
L 184.938956 248.390691 
L 185.576635 288.794693 
L 186.214314 319.097695 
L 186.851993 334.249196 
L 187.489672 329.198696 
L 188.127351 339.299697 
L 189.402709 243.34019 
L 190.040388 207.986688 
L 191.315745 157.481685 
L 191.953424 147.380684 
L 192.591103 127.178683 
L 193.228782 117.077682 
L 194.50414 117.077682 
L 195.141819 127.178683 
L 195.779498 127.178683 
L 196.417177 76.673679 
L 197.054856 41.320177 
L 197.692535 66.572679 
L 199.605572 218.087689 
L 201.518609 319.097695 
L 202.156287 334.249196 
L 202.793966 329.198696 
L 203.431645 339.299697 
L 204.707003 238.28969 
L 205.344682 202.936188 
L 205.982361 182.734186 
L 206.62004 152.431184 
L 207.257719 147.380684 
L 207.895398 127.178683 
L 208.533077 117.077682 
L 209.170756 112.027182 
L 209.808435 112.027182 
L 210.446114 122.128182 
L 211.083793 127.178683 
L 211.721472 76.673679 
L 212.359151 41.320177 
L 212.996829 61.522178 
L 214.909866 218.087689 
L 215.547545 248.390691 
L 216.185224 288.794693 
L 216.822903 314.047195 
L 217.460582 329.198696 
L 218.098261 329.198696 
L 218.73594 339.299697 
L 219.373619 283.744193 
L 220.011298 238.28969 
L 221.286656 182.734186 
L 221.924335 157.481685 
L 222.562014 152.431184 
L 223.199693 127.178683 
L 223.837372 117.077682 
L 224.47505 112.027182 
L 226.388087 127.178683 
L 227.025766 76.673679 
L 227.663445 41.320177 
L 228.301124 61.522178 
L 230.214161 218.087689 
L 230.85184 248.390691 
L 231.489519 288.794693 
L 232.127198 314.047195 
L 232.764877 329.198696 
L 233.402556 329.198696 
L 234.040235 339.299697 
L 235.315592 243.34019 
L 236.59095 182.734186 
L 237.228629 162.532185 
L 237.866308 152.431184 
L 238.503987 127.178683 
L 239.141666 117.077682 
L 239.779345 112.027182 
L 241.054703 122.128182 
L 241.692382 132.229183 
L 242.330061 76.673679 
L 242.96774 41.320177 
L 243.605419 61.522178 
L 245.518456 218.087689 
L 247.431492 319.097695 
L 248.069171 334.249196 
L 248.70685 334.249196 
L 249.344529 344.350197 
L 250.619887 243.34019 
L 251.257566 207.986688 
L 252.532924 157.481685 
L 253.170603 152.431184 
L 253.808282 132.229183 
L 254.445961 117.077682 
L 255.08364 112.027182 
L 256.358998 122.128182 
L 256.996677 132.229183 
L 257.634355 81.72418 
L 258.272034 41.320177 
L 258.909713 61.522178 
L 260.82275 218.087689 
L 262.735787 319.097695 
L 263.373466 334.249196 
L 264.011145 334.249196 
L 264.648824 339.299697 
L 265.286503 283.744193 
L 265.924182 238.28969 
L 267.19954 182.734186 
L 267.837219 157.481685 
L 268.474898 152.431184 
L 269.112576 132.229183 
L 269.750255 122.128182 
L 270.387934 117.077682 
L 271.025613 117.077682 
L 271.663292 122.128182 
L 272.300971 132.229183 
L 272.93865 81.72418 
L 273.576329 41.320177 
L 274.214008 61.522178 
L 276.127045 218.087689 
L 278.040082 319.097695 
L 278.677761 334.249196 
L 279.31544 329.198696 
L 279.953118 339.299697 
L 281.228476 233.23919 
L 282.503834 177.683686 
L 283.141513 157.481685 
L 283.779192 147.380684 
L 284.416871 127.178683 
L 285.05455 117.077682 
L 285.692229 112.027182 
L 286.967587 122.128182 
L 287.605266 132.229183 
L 288.242945 76.673679 
L 288.880624 36.269676 
L 289.518303 56.471678 
L 291.431339 213.037188 
L 293.344376 319.097695 
L 293.982055 334.249196 
L 294.619734 329.198696 
L 295.257413 339.299697 
L 296.532771 233.23919 
L 297.808129 177.683686 
L 298.445808 157.481685 
L 299.083487 147.380684 
L 299.721166 127.178683 
L 300.358845 117.077682 
L 300.996524 112.027182 
L 302.90956 127.178683 
L 303.547239 76.673679 
L 304.184918 36.269676 
L 304.822597 51.421177 
L 306.735634 213.037188 
L 308.648671 314.047195 
L 309.28635 329.198696 
L 310.561708 329.198696 
L 311.837066 228.188689 
L 313.112424 172.633186 
L 313.750102 152.431184 
L 314.387781 147.380684 
L 315.02546 127.178683 
L 315.663139 117.077682 
L 316.300818 112.027182 
L 316.938497 112.027182 
L 317.576176 122.128182 
L 318.213855 127.178683 
L 319.489213 31.219176 
L 320.126892 51.421177 
L 322.039929 207.986688 
L 323.952966 314.047195 
L 324.590645 324.148196 
L 325.866002 324.148196 
L 326.503681 273.643192 
L 327.14136 233.23919 
L 328.416718 172.633186 
L 329.054397 152.431184 
L 329.692076 147.380684 
L 330.329755 132.229183 
L 330.967434 122.128182 
L 331.605113 117.077682 
L 332.242792 117.077682 
L 332.880471 127.178683 
L 333.51815 132.229183 
L 334.793508 36.269676 
L 335.431187 51.421177 
L 336.706544 157.481685 
L 337.344223 213.037188 
L 339.25726 314.047195 
L 339.894939 329.198696 
L 341.170297 329.198696 
L 341.807976 273.643192 
L 342.445655 233.23919 
L 343.721013 172.633186 
L 344.358692 152.431184 
L 344.996371 147.380684 
L 345.63405 132.229183 
L 346.909408 122.128182 
L 347.547086 122.128182 
L 348.184765 127.178683 
L 348.822444 137.279683 
L 349.460123 81.72418 
L 350.097802 36.269676 
L 350.735481 56.471678 
L 352.010839 157.481685 
L 352.648518 218.087689 
L 353.923876 283.744193 
L 354.561555 319.097695 
L 355.199234 334.249196 
L 355.836913 334.249196 
L 356.474592 329.198696 
L 357.74995 233.23919 
L 359.025307 172.633186 
L 359.662986 157.481685 
L 360.300665 152.431184 
L 360.938344 137.279683 
L 361.576023 127.178683 
L 362.213702 122.128182 
L 362.851381 122.128182 
L 363.48906 127.178683 
L 364.126739 137.279683 
L 364.764418 81.72418 
L 365.402097 41.320177 
L 366.039776 56.471678 
L 367.952813 213.037188 
L 369.865849 314.047195 
L 370.503528 329.198696 
L 371.778886 329.198696 
L 372.416565 273.643192 
L 373.054244 233.23919 
L 374.329602 172.633186 
L 374.967281 157.481685 
L 375.60496 157.481685 
L 376.242639 137.279683 
L 377.517997 127.178683 
L 378.155676 127.178683 
L 379.431034 137.279683 
L 380.706391 46.370677 
L 381.34407 61.522178 
L 383.257107 218.087689 
L 385.170144 319.097695 
L 385.807823 334.249196 
L 387.083181 334.249196 
L 387.72086 283.744193 
L 388.358539 243.34019 
L 389.633897 177.683686 
L 390.271576 167.582685 
L 390.909255 162.532185 
L 391.546934 147.380684 
L 392.822291 137.279683 
L 393.45997 137.279683 
L 394.735328 147.380684 
L 396.010686 51.421177 
L 396.648365 71.623179 
L 397.286044 117.077682 
L 398.561402 228.188689 
L 399.199081 258.491691 
L 399.83676 298.895694 
L 400.474439 324.148196 
L 401.112118 339.299697 
L 402.387476 339.299697 
L 403.025154 288.794693 
L 403.662833 248.390691 
L 404.938191 182.734186 
L 405.57587 172.633186 
L 406.213549 172.633186 
L 406.851228 152.431184 
L 408.126586 142.330184 
L 408.764265 142.330184 
L 410.039623 152.431184 
L 411.314981 56.471678 
L 411.95266 76.673679 
L 413.228018 167.582685 
L 413.865697 228.188689 
L 414.503375 258.491691 
L 415.141054 298.895694 
L 415.778733 324.148196 
L 416.416412 339.299697 
L 417.69177 339.299697 
L 418.329449 283.744193 
L 420.242486 182.734186 
L 420.880165 172.633186 
L 421.517844 172.633186 
L 422.155523 152.431184 
L 422.793202 152.431184 
L 423.430881 147.380684 
L 424.06856 147.380684 
L 425.343917 157.481685 
L 426.619275 66.572679 
L 427.256954 81.72418 
L 427.894633 122.128182 
L 429.169991 228.188689 
L 429.80767 258.491691 
L 430.445349 298.895694 
L 431.083028 324.148196 
L 431.720707 339.299697 
L 432.996065 339.299697 
L 433.633744 288.794693 
L 435.546781 187.784687 
L 436.18446 177.683686 
L 436.822138 177.683686 
L 437.459817 162.532185 
L 438.735175 152.431184 
L 439.372854 157.481685 
L 440.010533 157.481685 
L 440.648212 162.532185 
L 441.92357 71.623179 
L 442.561249 86.77468 
L 443.836607 172.633186 
L 444.474286 233.23919 
L 446.387323 324.148196 
L 447.025002 344.350197 
L 447.66268 339.299697 
L 448.300359 339.299697 
L 448.938038 288.794693 
L 450.851075 187.784687 
L 452.126433 177.683686 
L 452.764112 162.532185 
L 453.401791 162.532185 
L 454.03947 157.481685 
L 454.677149 162.532185 
L 455.314828 162.532185 
L 455.952507 172.633186 
L 457.227865 76.673679 
L 457.865544 91.82518 
L 458.503223 127.178683 
L 459.140901 177.683686 
L 459.77858 238.28969 
L 460.416259 263.542192 
L 461.053938 298.895694 
L 461.691617 324.148196 
L 462.329296 344.350197 
L 462.966975 339.299697 
L 463.604654 339.299697 
L 464.242333 288.794693 
L 465.517691 223.138189 
L 466.15537 192.835187 
L 466.793049 182.734186 
L 467.430728 182.734186 
L 468.068407 167.582685 
L 469.981443 167.582685 
L 471.256801 177.683686 
L 472.532159 91.82518 
L 473.169838 101.926181 
L 473.807517 137.279683 
L 474.445196 182.734186 
L 475.082875 238.28969 
L 476.995912 329.198696 
L 477.633591 344.350197 
L 478.27127 344.350197 
L 478.908949 339.299697 
L 479.546628 293.845194 
L 480.821986 228.188689 
L 481.459664 197.885687 
L 482.097343 187.784687 
L 482.735022 187.784687 
L 483.372701 172.633186 
L 485.285738 172.633186 
L 485.923417 182.734186 
L 486.561096 187.784687 
L 487.836454 96.875681 
L 488.474133 106.976681 
L 489.111812 142.330184 
L 489.749491 187.784687 
L 490.38717 243.34019 
L 492.300206 329.198696 
L 492.937885 349.400698 
L 494.213243 349.400698 
L 494.850922 303.946194 
L 496.12628 238.28969 
L 496.763959 213.037188 
L 497.401638 197.885687 
L 498.039317 197.885687 
L 498.676996 187.784687 
L 499.314675 182.734186 
L 499.952354 187.784687 
L 500.590033 187.784687 
L 501.865391 197.885687 
L 503.140749 112.027182 
L 503.778427 117.077682 
L 504.416106 147.380684 
L 505.053785 192.835187 
L 505.691464 253.441191 
L 506.329143 278.693693 
L 506.966822 314.047195 
L 507.604501 339.299697 
L 508.24218 359.501698 
L 509.517538 359.501698 
L 510.155217 314.047195 
L 512.068254 223.138189 
L 512.705933 213.037188 
L 513.343612 213.037188 
L 513.981291 197.885687 
L 515.894327 197.885687 
L 516.532006 207.986688 
L 517.169685 213.037188 
L 517.807364 172.633186 
L 518.445043 122.128182 
L 519.082722 127.178683 
L 519.720401 157.481685 
L 520.995759 253.441191 
L 523.546475 369.602699 
L 524.184154 364.552199 
L 524.821833 364.552199 
L 525.459512 319.097695 
L 527.372548 233.23919 
L 528.010227 218.087689 
L 528.010227 218.087689 
" style="fill:none;stroke:#1f77b4;stroke-linecap:square;stroke-width:1.5;"/>
   </g>
   <g id="patch_3">
    <path d="M 30.525 386.521875 
L 30.525 14.3 
" style="fill:none;stroke:#000000;stroke-linecap:square;stroke-linejoin:miter;stroke-width:0.8;"/>
   </g>
   <g id="patch_4">
    <path d="M 551.7 386.521875 
L 551.7 14.3 
" style="fill:none;stroke:#000000;stroke-linecap:square;stroke-linejoin:miter;stroke-width:0.8;"/>
   </g>
   <g id="patch_5">
    <path d="M 30.525 386.521875 
L 551.7 386.521875 
" style="fill:none;stroke:#000000;stroke-linecap:square;stroke-linejoin:miter;stroke-width:0.8;"/>
   </g>
   <g id="patch_6">
    <path d="M 30.525 14.3 
L 551.7 14.3 
" style="fill:none;stroke:#000000;stroke-linecap:square;stroke-linejoin:miter;stroke-width:0.8;"/>
   </g>
   <g id="legend_1">
    <g id="patch_7">
     <path d="M 423.55 36.978125 
L 544.7 36.978125 
Q 546.7 36.978125 546.7 34.978125 
L 546.7 21.3 
Q 546.7 19.3 544.7 19.3 
L 423.55 19.3 
Q 421.55 19.3 421.55 21.3 
L 421.55 34.978125 
Q 421.55 36.978125 423.55 36.978125 
z
" style="fill:#ffffff;opacity:0.8;stroke:#cccccc;stroke-linejoin:miter;"/>
    </g>
    <g id="line2d_18">
     <path d="M 425.55 27.398438 
L 445.55 27.398438 
" style="fill:none;stroke:#1f77b4;stroke-linecap:square;stroke-width:1.5;"/>
    </g>
    <g id="line2d_19"/>
    <g id="text_17">
     <!-- Dew Point (deg F) -->
     <defs>
      <path d="M 19.671875 64.796875 
L 19.671875 8.109375 
L 31.59375 8.109375 
Q 46.6875 8.109375 53.6875 14.9375 
Q 60.6875 21.78125 60.6875 36.53125 
Q 60.6875 51.171875 53.6875 57.984375 
Q 46.6875 64.796875 31.59375 64.796875 
z
M 9.8125 72.90625 
L 30.078125 72.90625 
Q 51.265625 72.90625 61.171875 64.09375 
Q 71.09375 55.28125 71.09375 36.53125 
Q 71.09375 17.671875 61.125 8.828125 
Q 51.171875 0 30.078125 0 
L 9.8125 0 
z
" id="DejaVuSans-44"/>
      <path d="M 56.203125 29.59375 
L 56.203125 25.203125 
L 14.890625 25.203125 
Q 15.484375 15.921875 20.484375 11.0625 
Q 25.484375 6.203125 34.421875 6.203125 
Q 39.59375 6.203125 44.453125 7.46875 
Q 49.3125 8.734375 54.109375 11.28125 
L 54.109375 2.78125 
Q 49.265625 0.734375 44.1875 -0.34375 
Q 39.109375 -1.421875 33.890625 -1.421875 
Q 20.796875 -1.421875 13.15625 6.1875 
Q 5.515625 13.8125 5.515625 26.8125 
Q 5.515625 40.234375 12.765625 48.109375 
Q 20.015625 56 32.328125 56 
Q 43.359375 56 49.78125 48.890625 
Q 56.203125 41.796875 56.203125 29.59375 
z
M 47.21875 32.234375 
Q 47.125 39.59375 43.09375 43.984375 
Q 39.0625 48.390625 32.421875 48.390625 
Q 24.90625 48.390625 20.390625 44.140625 
Q 15.875 39.890625 15.1875 32.171875 
z
" id="DejaVuSans-65"/>
      <path d="M 4.203125 54.6875 
L 13.1875 54.6875 
L 24.421875 12.015625 
L 35.59375 54.6875 
L 46.1875 54.6875 
L 57.421875 12.015625 
L 68.609375 54.6875 
L 77.59375 54.6875 
L 63.28125 0 
L 52.6875 0 
L 40.921875 44.828125 
L 29.109375 0 
L 18.5 0 
z
" id="DejaVuSans-77"/>
      <path id="DejaVuSans-20"/>
      <path d="M 19.671875 64.796875 
L 19.671875 37.40625 
L 32.078125 37.40625 
Q 38.96875 37.40625 42.71875 40.96875 
Q 46.484375 44.53125 46.484375 51.125 
Q 46.484375 57.671875 42.71875 61.234375 
Q 38.96875 64.796875 32.078125 64.796875 
z
M 9.8125 72.90625 
L 32.078125 72.90625 
Q 44.34375 72.90625 50.609375 67.359375 
Q 56.890625 61.8125 56.890625 51.125 
Q 56.890625 40.328125 50.609375 34.8125 
Q 44.34375 29.296875 32.078125 29.296875 
L 19.671875 29.296875 
L 19.671875 0 
L 9.8125 0 
z
" id="DejaVuSans-50"/>
      <path d="M 30.609375 48.390625 
Q 23.390625 48.390625 19.1875 42.75 
Q 14.984375 37.109375 14.984375 27.296875 
Q 14.984375 17.484375 19.15625 11.84375 
Q 23.34375 6.203125 30.609375 6.203125 
Q 37.796875 6.203125 41.984375 11.859375 
Q 46.1875 17.53125 46.1875 27.296875 
Q 46.1875 37.015625 41.984375 42.703125 
Q 37.796875 48.390625 30.609375 48.390625 
z
M 30.609375 56 
Q 42.328125 56 49.015625 48.375 
Q 55.71875 40.765625 55.71875 27.296875 
Q 55.71875 13.875 49.015625 6.21875 
Q 42.328125 -1.421875 30.609375 -1.421875 
Q 18.84375 -1.421875 12.171875 6.21875 
Q 5.515625 13.875 5.515625 27.296875 
Q 5.515625 40.765625 12.171875 48.375 
Q 18.84375 56 30.609375 56 
z
" id="DejaVuSans-6f"/>
      <path d="M 9.421875 54.6875 
L 18.40625 54.6875 
L 18.40625 0 
L 9.421875 0 
z
M 9.421875 75.984375 
L 18.40625 75.984375 
L 18.40625 64.59375 
L 9.421875 64.59375 
z
" id="DejaVuSans-69"/>
      <path d="M 54.890625 33.015625 
L 54.890625 0 
L 45.90625 0 
L 45.90625 32.71875 
Q 45.90625 40.484375 42.875 44.328125 
Q 39.84375 48.1875 33.796875 48.1875 
Q 26.515625 48.1875 22.3125 43.546875 
Q 18.109375 38.921875 18.109375 30.90625 
L 18.109375 0 
L 9.078125 0 
L 9.078125 54.6875 
L 18.109375 54.6875 
L 18.109375 46.1875 
Q 21.34375 51.125 25.703125 53.5625 
Q 30.078125 56 35.796875 56 
Q 45.21875 56 50.046875 50.171875 
Q 54.890625 44.34375 54.890625 33.015625 
z
" id="DejaVuSans-6e"/>
      <path d="M 18.3125 70.21875 
L 18.3125 54.6875 
L 36.8125 54.6875 
L 36.8125 47.703125 
L 18.3125 47.703125 
L 18.3125 18.015625 
Q 18.3125 11.328125 20.140625 9.421875 
Q 21.96875 7.515625 27.59375 7.515625 
L 36.8125 7.515625 
L 36.8125 0 
L 27.59375 0 
Q 17.1875 0 13.234375 3.875 
Q 9.28125 7.765625 9.28125 18.015625 
L 9.28125 47.703125 
L 2.6875 47.703125 
L 2.6875 54.6875 
L 9.28125 54.6875 
L 9.28125 70.21875 
z
" id="DejaVuSans-74"/>
      <path d="M 31 75.875 
Q 24.46875 64.65625 21.28125 53.65625 
Q 18.109375 42.671875 18.109375 31.390625 
Q 18.109375 20.125 21.3125 9.0625 
Q 24.515625 -2 31 -13.1875 
L 23.1875 -13.1875 
Q 15.875 -1.703125 12.234375 9.375 
Q 8.59375 20.453125 8.59375 31.390625 
Q 8.59375 42.28125 12.203125 53.3125 
Q 15.828125 64.359375 23.1875 75.875 
z
" id="DejaVuSans-28"/>
      <path d="M 45.40625 46.390625 
L 45.40625 75.984375 
L 54.390625 75.984375 
L 54.390625 0 
L 45.40625 0 
L 45.40625 8.203125 
Q 42.578125 3.328125 38.25 0.953125 
Q 33.9375 -1.421875 27.875 -1.421875 
Q 17.96875 -1.421875 11.734375 6.484375 
Q 5.515625 14.40625 5.515625 27.296875 
Q 5.515625 40.1875 11.734375 48.09375 
Q 17.96875 56 27.875 56 
Q 33.9375 56 38.25 53.625 
Q 42.578125 51.265625 45.40625 46.390625 
z
M 14.796875 27.296875 
Q 14.796875 17.390625 18.875 11.75 
Q 22.953125 6.109375 30.078125 6.109375 
Q 37.203125 6.109375 41.296875 11.75 
Q 45.40625 17.390625 45.40625 27.296875 
Q 45.40625 37.203125 41.296875 42.84375 
Q 37.203125 48.484375 30.078125 48.484375 
Q 22.953125 48.484375 18.875 42.84375 
Q 14.796875 37.203125 14.796875 27.296875 
z
" id="DejaVuSans-64"/>
      <path d="M 45.40625 27.984375 
Q 45.40625 37.75 41.375 43.109375 
Q 37.359375 48.484375 30.078125 48.484375 
Q 22.859375 48.484375 18.828125 43.109375 
Q 14.796875 37.75 14.796875 27.984375 
Q 14.796875 18.265625 18.828125 12.890625 
Q 22.859375 7.515625 30.078125 7.515625 
Q 37.359375 7.515625 41.375 12.890625 
Q 45.40625 18.265625 45.40625 27.984375 
z
M 54.390625 6.78125 
Q 54.390625 -7.171875 48.1875 -13.984375 
Q 42 -20.796875 29.203125 -20.796875 
Q 24.46875 -20.796875 20.265625 -20.09375 
Q 16.0625 -19.390625 12.109375 -17.921875 
L 12.109375 -9.1875 
Q 16.0625 -11.328125 19.921875 -12.34375 
Q 23.78125 -13.375 27.78125 -13.375 
Q 36.625 -13.375 41.015625 -8.765625 
Q 45.40625 -4.15625 45.40625 5.171875 
L 45.40625 9.625 
Q 42.625 4.78125 38.28125 2.390625 
Q 33.9375 0 27.875 0 
Q 17.828125 0 11.671875 7.65625 
Q 5.515625 15.328125 5.515625 27.984375 
Q 5.515625 40.671875 11.671875 48.328125 
Q 17.828125 56 27.875 56 
Q 33.9375 56 38.28125 53.609375 
Q 42.625 51.21875 45.40625 46.390625 
L 45.40625 54.6875 
L 54.390625 54.6875 
z
" id="DejaVuSans-67"/>
      <path d="M 9.8125 72.90625 
L 51.703125 72.90625 
L 51.703125 64.59375 
L 19.671875 64.59375 
L 19.671875 43.109375 
L 48.578125 43.109375 
L 48.578125 34.8125 
L 19.671875 34.8125 
L 19.671875 0 
L 9.8125 0 
z
" id="DejaVuSans-46"/>
      <path d="M 8.015625 75.875 
L 15.828125 75.875 
Q 23.140625 64.359375 26.78125 53.3125 
Q 30.421875 42.28125 30.421875 31.390625 
Q 30.421875 20.453125 26.78125 9.375 
Q 23.140625 -1.703125 15.828125 -13.1875 
L 8.015625 -13.1875 
Q 14.5 -2 17.703125 9.0625 
Q 20.90625 20.125 20.90625 31.390625 
Q 20.90625 42.671875 17.703125 53.65625 
Q 14.5 64.65625 8.015625 75.875 
z
" id="DejaVuSans-29"/>
     </defs>
     <g transform="translate(453.55 30.898438)scale(0.1 -0.1)">
      <use xlink:href="#DejaVuSans-44"/>
      <use x="77.001953" xlink:href="#DejaVuSans-65"/>
      <use x="138.525391" xlink:href="#DejaVuSans-77"/>
      <use x="220.3125" xlink:href="#DejaVuSans-20"/>
      <use x="252.099609" xlink:href="#DejaVuSans-50"/>
      <use x="312.355469" xlink:href="#DejaVuSans-6f"/>
      <use x="373.537109" xlink:href="#DejaVuSans-69"/>
      <use x="401.320312" xlink:href="#DejaVuSans-6e"/>
      <use x="464.699219" xlink:href="#DejaVuSans-74"/>
      <use x="503.908203" xlink:href="#DejaVuSans-20"/>
      <use x="535.695312" xlink:href="#DejaVuSans-28"/>
      <use x="574.708984" xlink:href="#DejaVuSans-64"/>
      <use x="638.185547" xlink:href="#DejaVuSans-65"/>
      <use x="699.708984" xlink:href="#DejaVuSans-67"/>
      <use x="763.185547" xlink:href="#DejaVuSans-20"/>
      <use x="794.972656" xlink:href="#DejaVuSans-46"/>
      <use x="852.492188" xlink:href="#DejaVuSans-29"/>
     </g>
    </g>
   </g>
  </g>
 </g>
 <defs>
  <clipPath id="p78ce87fbb3">
   <rect height="372.221875" width="521.175" x="30.525" y="14.3"/>
  </clipPath>
 </defs>
</svg>
