<?xml version="1.0" encoding="utf-8" standalone="no"?>
<!DOCTYPE svg PUBLIC "-//W3C//DTD SVG 1.1//EN"
  "http://www.w3.org/Graphics/SVG/1.1/DTD/svg11.dtd">
<!-- Created with matplotlib (http://matplotlib.org/) -->
<svg height="414pt" version="1.1" viewBox="0 0 566 414" width="566pt" xmlns="http://www.w3.org/2000/svg" xmlns:xlink="http://www.w3.org/1999/xlink">
 <defs>
  <style type="text/css">
*{stroke-linecap:butt;stroke-linejoin:round;}
  </style>
 </defs>
 <g id="figure_1">
  <g id="patch_1">
   <path d="M 0 414 
L 566 414 
L 566 0 
L 0 0 
z
" style="fill:#ffffff;"/>
  </g>
  <g id="axes_1">
   <g id="patch_2">
    <path d="M 30.525 386.521875 
L 551.7 386.521875 
L 551.7 14.3 
L 30.525 14.3 
z
" style="fill:#ffffff;"/>
   </g>
   <g id="matplotlib.axis_1">
    <g id="xtick_1">
     <g id="line2d_1">
      <defs>
       <path d="M 0 0 
L 0 3.5 
" id="mf9a193f1ec" style="stroke:#000000;stroke-width:0.8;"/>
      </defs>
      <g>
       <use style="stroke:#000000;stroke-width:0.8;" x="54.214773" xlink:href="#mf9a193f1ec" y="386.521875"/>
      </g>
     </g>
     <g id="text_1">
      <!-- 0 -->
      <defs>
       <path d="M 31.78125 66.40625 
Q 24.171875 66.40625 20.328125 58.90625 
Q 16.5 51.421875 16.5 36.375 
Q 16.5 21.390625 20.328125 13.890625 
Q 24.171875 6.390625 31.78125 6.390625 
Q 39.453125 6.390625 43.28125 13.890625 
Q 47.125 21.390625 47.125 36.375 
Q 47.125 51.421875 43.28125 58.90625 
Q 39.453125 66.40625 31.78125 66.40625 
z
M 31.78125 74.21875 
Q 44.046875 74.21875 50.515625 64.515625 
Q 56.984375 54.828125 56.984375 36.375 
Q 56.984375 17.96875 50.515625 8.265625 
Q 44.046875 -1.421875 31.78125 -1.421875 
Q 19.53125 -1.421875 13.0625 8.265625 
Q 6.59375 17.96875 6.59375 36.375 
Q 6.59375 54.828125 13.0625 64.515625 
Q 19.53125 74.21875 31.78125 74.21875 
z
" id="DejaVuSans-30"/>
      </defs>
      <g transform="translate(51.033523 401.120313)scale(0.1 -0.1)">
       <use xlink:href="#DejaVuSans-30"/>
      </g>
     </g>
    </g>
    <g id="xtick_2">
     <g id="line2d_2">
      <g>
       <use style="stroke:#000000;stroke-width:0.8;" x="117.982667" xlink:href="#mf9a193f1ec" y="386.521875"/>
      </g>
     </g>
     <g id="text_2">
      <!-- 100 -->
      <defs>
       <path d="M 12.40625 8.296875 
L 28.515625 8.296875 
L 28.515625 63.921875 
L 10.984375 60.40625 
L 10.984375 69.390625 
L 28.421875 72.90625 
L 38.28125 72.90625 
L 38.28125 8.296875 
L 54.390625 8.296875 
L 54.390625 0 
L 12.40625 0 
z
" id="DejaVuSans-31"/>
      </defs>
      <g transform="translate(108.438917 401.120313)scale(0.1 -0.1)">
       <use xlink:href="#DejaVuSans-31"/>
       <use x="63.623047" xlink:href="#DejaVuSans-30"/>
       <use x="127.246094" xlink:href="#DejaVuSans-30"/>
      </g>
     </g>
    </g>
    <g id="xtick_3">
     <g id="line2d_3">
      <g>
       <use style="stroke:#000000;stroke-width:0.8;" x="181.750561" xlink:href="#mf9a193f1ec" y="386.521875"/>
      </g>
     </g>
     <g id="text_3">
      <!-- 200 -->
      <defs>
       <path d="M 19.1875 8.296875 
L 53.609375 8.296875 
L 53.609375 0 
L 7.328125 0 
L 7.328125 8.296875 
Q 12.9375 14.109375 22.625 23.890625 
Q 32.328125 33.6875 34.8125 36.53125 
Q 39.546875 41.84375 41.421875 45.53125 
Q 43.3125 49.21875 43.3125 52.78125 
Q 43.3125 58.59375 39.234375 62.25 
Q 35.15625 65.921875 28.609375 65.921875 
Q 23.96875 65.921875 18.8125 64.3125 
Q 13.671875 62.703125 7.8125 59.421875 
L 7.8125 69.390625 
Q 13.765625 71.78125 18.9375 73 
Q 24.125 74.21875 28.421875 74.21875 
Q 39.75 74.21875 46.484375 68.546875 
Q 53.21875 62.890625 53.21875 53.421875 
Q 53.21875 48.921875 51.53125 44.890625 
Q 49.859375 40.875 45.40625 35.40625 
Q 44.1875 33.984375 37.640625 27.21875 
Q 31.109375 20.453125 19.1875 8.296875 
z
" id="DejaVuSans-32"/>
      </defs>
      <g transform="translate(172.206811 401.120313)scale(0.1 -0.1)">
       <use xlink:href="#DejaVuSans-32"/>
       <use x="63.623047" xlink:href="#DejaVuSans-30"/>
       <use x="127.246094" xlink:href="#DejaVuSans-30"/>
      </g>
     </g>
    </g>
    <g id="xtick_4">
     <g id="line2d_4">
      <g>
       <use style="stroke:#000000;stroke-width:0.8;" x="245.518456" xlink:href="#mf9a193f1ec" y="386.521875"/>
      </g>
     </g>
     <g id="text_4">
      <!-- 300 -->
      <defs>
       <path d="M 40.578125 39.3125 
Q 47.65625 37.796875 51.625 33 
Q 55.609375 28.21875 55.609375 21.1875 
Q 55.609375 10.40625 48.1875 4.484375 
Q 40.765625 -1.421875 27.09375 -1.421875 
Q 22.515625 -1.421875 17.65625 -0.515625 
Q 12.796875 0.390625 7.625 2.203125 
L 7.625 11.71875 
Q 11.71875 9.328125 16.59375 8.109375 
Q 21.484375 6.890625 26.8125 6.890625 
Q 36.078125 6.890625 40.9375 10.546875 
Q 45.796875 14.203125 45.796875 21.1875 
Q 45.796875 27.640625 41.28125 31.265625 
Q 36.765625 34.90625 28.71875 34.90625 
L 20.21875 34.90625 
L 20.21875 43.015625 
L 29.109375 43.015625 
Q 36.375 43.015625 40.234375 45.921875 
Q 44.09375 48.828125 44.09375 54.296875 
Q 44.09375 59.90625 40.109375 62.90625 
Q 36.140625 65.921875 28.71875 65.921875 
Q 24.65625 65.921875 20.015625 65.03125 
Q 15.375 64.15625 9.8125 62.3125 
L 9.8125 71.09375 
Q 15.4375 72.65625 20.34375 73.4375 
Q 25.25 74.21875 29.59375 74.21875 
Q 40.828125 74.21875 47.359375 69.109375 
Q 53.90625 64.015625 53.90625 55.328125 
Q 53.90625 49.265625 50.4375 45.09375 
Q 46.96875 40.921875 40.578125 39.3125 
z
" id="DejaVuSans-33"/>
      </defs>
      <g transform="translate(235.974706 401.120313)scale(0.1 -0.1)">
       <use xlink:href="#DejaVuSans-33"/>
       <use x="63.623047" xlink:href="#DejaVuSans-30"/>
       <use x="127.246094" xlink:href="#DejaVuSans-30"/>
      </g>
     </g>
    </g>
    <g id="xtick_5">
     <g id="line2d_5">
      <g>
       <use style="stroke:#000000;stroke-width:0.8;" x="309.28635" xlink:href="#mf9a193f1ec" y="386.521875"/>
      </g>
     </g>
     <g id="text_5">
      <!-- 400 -->
      <defs>
       <path d="M 37.796875 64.3125 
L 12.890625 25.390625 
L 37.796875 25.390625 
z
M 35.203125 72.90625 
L 47.609375 72.90625 
L 47.609375 25.390625 
L 58.015625 25.390625 
L 58.015625 17.1875 
L 47.609375 17.1875 
L 47.609375 0 
L 37.796875 0 
L 37.796875 17.1875 
L 4.890625 17.1875 
L 4.890625 26.703125 
z
" id="DejaVuSans-34"/>
      </defs>
      <g transform="translate(299.7426 401.120313)scale(0.1 -0.1)">
       <use xlink:href="#DejaVuSans-34"/>
       <use x="63.623047" xlink:href="#DejaVuSans-30"/>
       <use x="127.246094" xlink:href="#DejaVuSans-30"/>
      </g>
     </g>
    </g>
    <g id="xtick_6">
     <g id="line2d_6">
      <g>
       <use style="stroke:#000000;stroke-width:0.8;" x="373.054244" xlink:href="#mf9a193f1ec" y="386.521875"/>
      </g>
     </g>
     <g id="text_6">
      <!-- 500 -->
      <defs>
       <path d="M 10.796875 72.90625 
L 49.515625 72.90625 
L 49.515625 64.59375 
L 19.828125 64.59375 
L 19.828125 46.734375 
Q 21.96875 47.46875 24.109375 47.828125 
Q 26.265625 48.1875 28.421875 48.1875 
Q 40.625 48.1875 47.75 41.5 
Q 54.890625 34.8125 54.890625 23.390625 
Q 54.890625 11.625 47.5625 5.09375 
Q 40.234375 -1.421875 26.90625 -1.421875 
Q 22.3125 -1.421875 17.546875 -0.640625 
Q 12.796875 0.140625 7.71875 1.703125 
L 7.71875 11.625 
Q 12.109375 9.234375 16.796875 8.0625 
Q 21.484375 6.890625 26.703125 6.890625 
Q 35.15625 6.890625 40.078125 11.328125 
Q 45.015625 15.765625 45.015625 23.390625 
Q 45.015625 31 40.078125 35.4375 
Q 35.15625 39.890625 26.703125 39.890625 
Q 22.75 39.890625 18.8125 39.015625 
Q 14.890625 38.140625 10.796875 36.28125 
z
" id="DejaVuSans-35"/>
      </defs>
      <g transform="translate(363.510494 401.120313)scale(0.1 -0.1)">
       <use xlink:href="#DejaVuSans-35"/>
       <use x="63.623047" xlink:href="#DejaVuSans-30"/>
       <use x="127.246094" xlink:href="#DejaVuSans-30"/>
      </g>
     </g>
    </g>
    <g id="xtick_7">
     <g id="line2d_7">
      <g>
       <use style="stroke:#000000;stroke-width:0.8;" x="436.822138" xlink:href="#mf9a193f1ec" y="386.521875"/>
      </g>
     </g>
     <g id="text_7">
      <!-- 600 -->
      <defs>
       <path d="M 33.015625 40.375 
Q 26.375 40.375 22.484375 35.828125 
Q 18.609375 31.296875 18.609375 23.390625 
Q 18.609375 15.53125 22.484375 10.953125 
Q 26.375 6.390625 33.015625 6.390625 
Q 39.65625 6.390625 43.53125 10.953125 
Q 47.40625 15.53125 47.40625 23.390625 
Q 47.40625 31.296875 43.53125 35.828125 
Q 39.65625 40.375 33.015625 40.375 
z
M 52.59375 71.296875 
L 52.59375 62.3125 
Q 48.875 64.0625 45.09375 64.984375 
Q 41.3125 65.921875 37.59375 65.921875 
Q 27.828125 65.921875 22.671875 59.328125 
Q 17.53125 52.734375 16.796875 39.40625 
Q 19.671875 43.65625 24.015625 45.921875 
Q 28.375 48.1875 33.59375 48.1875 
Q 44.578125 48.1875 50.953125 41.515625 
Q 57.328125 34.859375 57.328125 23.390625 
Q 57.328125 12.15625 50.6875 5.359375 
Q 44.046875 -1.421875 33.015625 -1.421875 
Q 20.359375 -1.421875 13.671875 8.265625 
Q 6.984375 17.96875 6.984375 36.375 
Q 6.984375 53.65625 15.1875 63.9375 
Q 23.390625 74.21875 37.203125 74.21875 
Q 40.921875 74.21875 44.703125 73.484375 
Q 48.484375 72.75 52.59375 71.296875 
z
" id="DejaVuSans-36"/>
      </defs>
      <g transform="translate(427.278388 401.120313)scale(0.1 -0.1)">
       <use xlink:href="#DejaVuSans-36"/>
       <use x="63.623047" xlink:href="#DejaVuSans-30"/>
       <use x="127.246094" xlink:href="#DejaVuSans-30"/>
      </g>
     </g>
    </g>
    <g id="xtick_8">
     <g id="line2d_8">
      <g>
       <use style="stroke:#000000;stroke-width:0.8;" x="500.590033" xlink:href="#mf9a193f1ec" y="386.521875"/>
      </g>
     </g>
     <g id="text_8">
      <!-- 700 -->
      <defs>
       <path d="M 8.203125 72.90625 
L 55.078125 72.90625 
L 55.078125 68.703125 
L 28.609375 0 
L 18.3125 0 
L 43.21875 64.59375 
L 8.203125 64.59375 
z
" id="DejaVuSans-37"/>
      </defs>
      <g transform="translate(491.046283 401.120313)scale(0.1 -0.1)">
       <use xlink:href="#DejaVuSans-37"/>
       <use x="63.623047" xlink:href="#DejaVuSans-30"/>
       <use x="127.246094" xlink:href="#DejaVuSans-30"/>
      </g>
     </g>
    </g>
   </g>
   <g id="matplotlib.axis_2">
    <g id="ytick_1">
     <g id="line2d_9">
      <defs>
       <path d="M 0 0 
L -3.5 0 
" id="mb67d54241d" style="stroke:#000000;stroke-width:0.8;"/>
      </defs>
      <g>
       <use style="stroke:#000000;stroke-width:0.8;" x="30.525" xlink:href="#mb67d54241d" y="383.556659"/>
      </g>
     </g>
     <g id="text_9">
      <!-- 65 -->
      <g transform="translate(10.8 387.355877)scale(0.1 -0.1)">
       <use xlink:href="#DejaVuSans-36"/>
       <use x="63.623047" xlink:href="#DejaVuSans-35"/>
      </g>
     </g>
    </g>
    <g id="ytick_2">
     <g id="line2d_10">
      <g>
       <use style="stroke:#000000;stroke-width:0.8;" x="30.525" xlink:href="#mb67d54241d" y="325.41516"/>
      </g>
     </g>
     <g id="text_10">
      <!-- 70 -->
      <g transform="translate(10.8 329.214379)scale(0.1 -0.1)">
       <use xlink:href="#DejaVuSans-37"/>
       <use x="63.623047" xlink:href="#DejaVuSans-30"/>
      </g>
     </g>
    </g>
    <g id="ytick_3">
     <g id="line2d_11">
      <g>
       <use style="stroke:#000000;stroke-width:0.8;" x="30.525" xlink:href="#mb67d54241d" y="267.273661"/>
      </g>
     </g>
     <g id="text_11">
      <!-- 75 -->
      <g transform="translate(10.8 271.07288)scale(0.1 -0.1)">
       <use xlink:href="#DejaVuSans-37"/>
       <use x="63.623047" xlink:href="#DejaVuSans-35"/>
      </g>
     </g>
    </g>
    <g id="ytick_4">
     <g id="line2d_12">
      <g>
       <use style="stroke:#000000;stroke-width:0.8;" x="30.525" xlink:href="#mb67d54241d" y="209.132162"/>
      </g>
     </g>
     <g id="text_12">
      <!-- 80 -->
      <defs>
       <path d="M 31.78125 34.625 
Q 24.75 34.625 20.71875 30.859375 
Q 16.703125 27.09375 16.703125 20.515625 
Q 16.703125 13.921875 20.71875 10.15625 
Q 24.75 6.390625 31.78125 6.390625 
Q 38.8125 6.390625 42.859375 10.171875 
Q 46.921875 13.96875 46.921875 20.515625 
Q 46.921875 27.09375 42.890625 30.859375 
Q 38.875 34.625 31.78125 34.625 
z
M 21.921875 38.8125 
Q 15.578125 40.375 12.03125 44.71875 
Q 8.5 49.078125 8.5 55.328125 
Q 8.5 64.0625 14.71875 69.140625 
Q 20.953125 74.21875 31.78125 74.21875 
Q 42.671875 74.21875 48.875 69.140625 
Q 55.078125 64.0625 55.078125 55.328125 
Q 55.078125 49.078125 51.53125 44.71875 
Q 48 40.375 41.703125 38.8125 
Q 48.828125 37.15625 52.796875 32.3125 
Q 56.78125 27.484375 56.78125 20.515625 
Q 56.78125 9.90625 50.3125 4.234375 
Q 43.84375 -1.421875 31.78125 -1.421875 
Q 19.734375 -1.421875 13.25 4.234375 
Q 6.78125 9.90625 6.78125 20.515625 
Q 6.78125 27.484375 10.78125 32.3125 
Q 14.796875 37.15625 21.921875 38.8125 
z
M 18.3125 54.390625 
Q 18.3125 48.734375 21.84375 45.5625 
Q 25.390625 42.390625 31.78125 42.390625 
Q 38.140625 42.390625 41.71875 45.5625 
Q 45.3125 48.734375 45.3125 54.390625 
Q 45.3125 60.0625 41.71875 63.234375 
Q 38.140625 66.40625 31.78125 66.40625 
Q 25.390625 66.40625 21.84375 63.234375 
Q 18.3125 60.0625 18.3125 54.390625 
z
" id="DejaVuSans-38"/>
      </defs>
      <g transform="translate(10.8 212.931381)scale(0.1 -0.1)">
       <use xlink:href="#DejaVuSans-38"/>
       <use x="63.623047" xlink:href="#DejaVuSans-30"/>
      </g>
     </g>
    </g>
    <g id="ytick_5">
     <g id="line2d_13">
      <g>
       <use style="stroke:#000000;stroke-width:0.8;" x="30.525" xlink:href="#mb67d54241d" y="150.990664"/>
      </g>
     </g>
     <g id="text_13">
      <!-- 85 -->
      <g transform="translate(10.8 154.789882)scale(0.1 -0.1)">
       <use xlink:href="#DejaVuSans-38"/>
       <use x="63.623047" xlink:href="#DejaVuSans-35"/>
      </g>
     </g>
    </g>
    <g id="ytick_6">
     <g id="line2d_14">
      <g>
       <use style="stroke:#000000;stroke-width:0.8;" x="30.525" xlink:href="#mb67d54241d" y="92.849165"/>
      </g>
     </g>
     <g id="text_14">
      <!-- 90 -->
      <defs>
       <path d="M 10.984375 1.515625 
L 10.984375 10.5 
Q 14.703125 8.734375 18.5 7.8125 
Q 22.3125 6.890625 25.984375 6.890625 
Q 35.75 6.890625 40.890625 13.453125 
Q 46.046875 20.015625 46.78125 33.40625 
Q 43.953125 29.203125 39.59375 26.953125 
Q 35.25 24.703125 29.984375 24.703125 
Q 19.046875 24.703125 12.671875 31.3125 
Q 6.296875 37.9375 6.296875 49.421875 
Q 6.296875 60.640625 12.9375 67.421875 
Q 19.578125 74.21875 30.609375 74.21875 
Q 43.265625 74.21875 49.921875 64.515625 
Q 56.59375 54.828125 56.59375 36.375 
Q 56.59375 19.140625 48.40625 8.859375 
Q 40.234375 -1.421875 26.421875 -1.421875 
Q 22.703125 -1.421875 18.890625 -0.6875 
Q 15.09375 0.046875 10.984375 1.515625 
z
M 30.609375 32.421875 
Q 37.25 32.421875 41.125 36.953125 
Q 45.015625 41.5 45.015625 49.421875 
Q 45.015625 57.28125 41.125 61.84375 
Q 37.25 66.40625 30.609375 66.40625 
Q 23.96875 66.40625 20.09375 61.84375 
Q 16.21875 57.28125 16.21875 49.421875 
Q 16.21875 41.5 20.09375 36.953125 
Q 23.96875 32.421875 30.609375 32.421875 
z
" id="DejaVuSans-39"/>
      </defs>
      <g transform="translate(10.8 96.648384)scale(0.1 -0.1)">
       <use xlink:href="#DejaVuSans-39"/>
       <use x="63.623047" xlink:href="#DejaVuSans-30"/>
      </g>
     </g>
    </g>
    <g id="ytick_7">
     <g id="line2d_15">
      <g>
       <use style="stroke:#000000;stroke-width:0.8;" x="30.525" xlink:href="#mb67d54241d" y="34.707666"/>
      </g>
     </g>
     <g id="text_15">
      <!-- 95 -->
      <g transform="translate(10.8 38.506885)scale(0.1 -0.1)">
       <use xlink:href="#DejaVuSans-39"/>
       <use x="63.623047" xlink:href="#DejaVuSans-35"/>
      </g>
     </g>
    </g>
   </g>
   <g id="line2d_16">
    <path clip-path="url(#paf55e6d7ef)" d="M 54.214773 220.760462 
L 54.852452 239.365742 
L 55.490131 250.994041 
L 56.765488 266.110831 
L 57.403167 271.924981 
L 58.040846 273.087811 
L 58.678525 255.645361 
L 59.953883 170.758773 
L 60.591562 132.385384 
L 61.86692 74.243885 
L 62.504599 55.638606 
L 63.142278 41.684646 
L 63.779957 34.707666 
L 64.417636 37.033326 
L 65.055315 47.498796 
L 65.692994 64.941245 
L 66.330673 94.011995 
L 66.968352 138.199534 
L 67.606031 167.270283 
L 68.881388 209.132162 
L 69.519067 219.597632 
L 70.156746 239.365742 
L 70.794425 249.831211 
L 72.069783 264.948001 
L 72.707462 271.924981 
L 73.345141 271.924981 
L 73.98282 254.482531 
L 75.258178 170.758773 
L 76.533536 99.826145 
L 77.171215 74.243885 
L 77.808894 55.638606 
L 78.446573 41.684646 
L 79.084251 34.707666 
L 79.72193 37.033326 
L 80.359609 47.498796 
L 80.997288 64.941245 
L 81.634967 95.174825 
L 82.272646 138.199534 
L 82.910325 167.270283 
L 84.185683 207.969332 
L 84.823362 219.597632 
L 85.461041 238.202912 
L 86.09872 249.831211 
L 87.374078 264.948001 
L 88.011757 271.924981 
L 88.649436 273.087811 
L 89.287115 255.645361 
L 90.562472 169.595943 
L 91.83783 99.826145 
L 92.475509 73.081055 
L 93.113188 54.475776 
L 93.750867 40.521816 
L 94.388546 33.544836 
L 95.026225 35.870496 
L 95.663904 45.173136 
L 96.301583 63.778415 
L 96.939262 95.174825 
L 97.576941 139.362364 
L 98.21462 168.433113 
L 99.489978 207.969332 
L 100.127657 218.434802 
L 100.765336 237.040082 
L 101.403014 248.668381 
L 102.678372 263.785171 
L 103.316051 270.762151 
L 103.95373 271.924981 
L 104.591409 255.645361 
L 105.866767 168.433113 
L 107.142125 98.663315 
L 107.779804 70.755395 
L 108.417483 53.312946 
L 109.055162 39.358986 
L 109.692841 33.544836 
L 110.33052 34.707666 
L 110.968199 45.173136 
L 111.605878 63.778415 
L 112.243557 96.337655 
L 112.881235 139.362364 
L 113.518914 168.433113 
L 114.794272 206.806502 
L 115.431951 218.434802 
L 116.06963 237.040082 
L 116.707309 248.668381 
L 117.982667 263.785171 
L 118.620346 270.762151 
L 119.258025 271.924981 
L 119.895704 254.482531 
L 121.808741 132.385384 
L 123.084099 70.755395 
L 123.721777 53.312946 
L 124.359456 40.521816 
L 124.997135 33.544836 
L 125.634814 35.870496 
L 126.272493 45.173136 
L 126.910172 64.941245 
L 127.547851 97.500485 
L 128.18553 140.525194 
L 128.823209 169.595943 
L 130.098567 207.969332 
L 130.736246 218.434802 
L 131.373925 237.040082 
L 132.011604 248.668381 
L 133.924641 271.924981 
L 134.56232 271.924981 
L 135.199998 255.645361 
L 137.113035 132.385384 
L 137.750714 98.663315 
L 138.388393 71.918225 
L 139.026072 53.312946 
L 139.663751 40.521816 
L 140.30143 32.382006 
L 140.939109 34.707666 
L 141.576788 45.173136 
L 142.214467 63.778415 
L 142.852146 97.500485 
L 143.489825 140.525194 
L 144.127504 169.595943 
L 145.402862 209.132162 
L 146.04054 218.434802 
L 146.678219 238.202912 
L 147.315898 249.831211 
L 148.591256 264.948001 
L 149.228935 271.924981 
L 149.866614 271.924981 
L 150.504293 255.645361 
L 152.41733 133.548214 
L 153.692688 71.918225 
L 154.330367 53.312946 
L 154.968046 40.521816 
L 155.605725 31.219176 
L 156.243404 34.707666 
L 156.881083 45.173136 
L 157.518761 64.941245 
L 158.15644 98.663315 
L 158.794119 141.688024 
L 159.431798 170.758773 
L 160.707156 209.132162 
L 161.344835 218.434802 
L 161.982514 238.202912 
L 162.620193 249.831211 
L 163.895551 264.948001 
L 164.53323 271.924981 
L 165.170909 271.924981 
L 165.808588 256.808191 
L 167.083946 170.758773 
L 168.359303 99.826145 
L 168.996982 73.081055 
L 169.634661 54.475776 
L 170.27234 40.521816 
L 170.910019 32.382006 
L 171.547698 35.870496 
L 172.185377 45.173136 
L 172.823056 64.941245 
L 173.460735 98.663315 
L 174.098414 142.850854 
L 174.736093 170.758773 
L 176.011451 209.132162 
L 176.64913 218.434802 
L 177.286809 238.202912 
L 177.924488 249.831211 
L 179.199846 264.948001 
L 179.837524 271.924981 
L 180.475203 271.924981 
L 181.112882 256.808191 
L 182.38824 170.758773 
L 183.663598 99.826145 
L 184.301277 73.081055 
L 184.938956 54.475776 
L 185.576635 40.521816 
L 186.214314 32.382006 
L 186.851993 35.870496 
L 187.489672 45.173136 
L 188.127351 67.266905 
L 188.76503 100.988975 
L 189.402709 144.013684 
L 190.040388 171.921603 
L 191.315745 210.294992 
L 191.953424 219.597632 
L 192.591103 239.365742 
L 193.228782 250.994041 
L 195.141819 271.924981 
L 195.779498 271.924981 
L 196.417177 256.808191 
L 198.330214 134.711044 
L 198.967893 99.826145 
L 199.605572 73.081055 
L 200.243251 55.638606 
L 200.88093 41.684646 
L 201.518609 33.544836 
L 202.156287 37.033326 
L 202.793966 45.173136 
L 203.431645 66.104075 
L 205.344682 171.921603 
L 206.62004 210.294992 
L 207.257719 219.597632 
L 207.895398 239.365742 
L 208.533077 249.831211 
L 209.170756 257.971021 
L 209.808435 263.785171 
L 210.446114 270.762151 
L 211.083793 271.924981 
L 211.721472 256.808191 
L 213.634508 134.711044 
L 214.909866 73.081055 
L 215.547545 55.638606 
L 216.185224 41.684646 
L 216.822903 34.707666 
L 217.460582 38.196156 
L 218.098261 46.335966 
L 218.73594 68.429735 
L 220.648977 173.084433 
L 221.924335 209.132162 
L 222.562014 218.434802 
L 223.199693 238.202912 
L 223.837372 249.831211 
L 224.47505 257.971021 
L 225.750408 269.599321 
L 226.388087 270.762151 
L 227.025766 256.808191 
L 228.938803 134.711044 
L 230.214161 74.243885 
L 231.489519 41.684646 
L 232.127198 35.870496 
L 232.764877 38.196156 
L 233.402556 46.335966 
L 234.040235 68.429735 
L 235.953271 171.921603 
L 237.228629 207.969332 
L 237.866308 218.434802 
L 238.503987 238.202912 
L 239.141666 248.668381 
L 239.779345 256.808191 
L 240.417024 262.622341 
L 241.054703 269.599321 
L 241.692382 270.762151 
L 242.330061 256.808191 
L 244.243098 134.711044 
L 244.880777 100.988975 
L 245.518456 74.243885 
L 246.156135 55.638606 
L 246.793813 41.684646 
L 247.431492 34.707666 
L 248.069171 37.033326 
L 248.70685 45.173136 
L 249.344529 66.104075 
L 251.257566 169.595943 
L 252.532924 206.806502 
L 253.170603 218.434802 
L 253.808282 238.202912 
L 254.445961 249.831211 
L 255.721319 262.622341 
L 256.358998 268.436491 
L 256.996677 270.762151 
L 257.634355 256.808191 
L 259.547392 135.873874 
L 260.185071 102.151805 
L 260.82275 75.406715 
L 261.460429 56.801436 
L 262.098108 42.847476 
L 262.735787 35.870496 
L 263.373466 38.196156 
L 264.011145 46.335966 
L 264.648824 68.429735 
L 266.561861 170.758773 
L 267.837219 207.969332 
L 268.474898 219.597632 
L 269.112576 239.365742 
L 269.750255 250.994041 
L 271.025613 263.785171 
L 271.663292 269.599321 
L 272.300971 270.762151 
L 272.93865 257.971021 
L 274.214008 173.084433 
L 275.489366 103.314635 
L 276.127045 76.569545 
L 276.764724 57.964266 
L 277.402403 44.010306 
L 278.040082 38.196156 
L 278.677761 39.358986 
L 279.31544 47.498796 
L 279.953118 70.755395 
L 281.228476 145.176514 
L 281.866155 170.758773 
L 283.141513 209.132162 
L 283.779192 219.597632 
L 284.416871 239.365742 
L 285.05455 249.831211 
L 286.967587 269.599321 
L 287.605266 270.762151 
L 288.242945 257.971021 
L 290.155982 137.036704 
L 291.431339 76.569545 
L 292.069018 57.964266 
L 292.706697 44.010306 
L 293.344376 38.196156 
L 293.982055 39.358986 
L 294.619734 46.335966 
L 295.257413 69.592565 
L 296.532771 145.176514 
L 297.17045 169.595943 
L 298.445808 207.969332 
L 299.083487 218.434802 
L 299.721166 238.202912 
L 300.358845 248.668381 
L 301.634203 263.785171 
L 302.271882 269.599321 
L 302.90956 269.599321 
L 303.547239 256.808191 
L 305.460276 135.873874 
L 306.735634 75.406715 
L 307.373313 56.801436 
L 308.010992 42.847476 
L 308.648671 37.033326 
L 309.28635 39.358986 
L 309.924029 46.335966 
L 310.561708 69.592565 
L 311.837066 145.176514 
L 312.474745 170.758773 
L 313.750102 207.969332 
L 314.387781 218.434802 
L 315.02546 238.202912 
L 315.663139 248.668381 
L 316.300818 256.808191 
L 317.576176 268.436491 
L 318.213855 269.599321 
L 318.851534 256.808191 
L 320.764571 135.873874 
L 322.039929 75.406715 
L 322.677608 56.801436 
L 323.315287 42.847476 
L 323.952966 37.033326 
L 324.590645 39.358986 
L 325.228323 47.498796 
L 325.866002 70.755395 
L 327.14136 144.013684 
L 327.779039 169.595943 
L 329.054397 207.969332 
L 329.692076 218.434802 
L 330.329755 238.202912 
L 330.967434 248.668381 
L 332.242792 263.785171 
L 332.880471 268.436491 
L 333.51815 269.599321 
L 334.155829 257.971021 
L 336.068865 135.873874 
L 337.344223 75.406715 
L 337.981902 56.801436 
L 338.619581 42.847476 
L 339.25726 37.033326 
L 339.894939 38.196156 
L 340.532618 46.335966 
L 341.170297 68.429735 
L 342.445655 142.850854 
L 343.083334 168.433113 
L 344.358692 206.806502 
L 344.996371 218.434802 
L 345.63405 237.040082 
L 346.271729 248.668381 
L 347.547086 263.785171 
L 348.184765 269.599321 
L 348.822444 270.762151 
L 349.460123 257.971021 
L 351.37316 134.711044 
L 352.010839 102.151805 
L 352.648518 75.406715 
L 353.286197 55.638606 
L 353.923876 41.684646 
L 354.561555 37.033326 
L 355.199234 38.196156 
L 355.836913 45.173136 
L 356.474592 68.429735 
L 357.74995 142.850854 
L 358.387628 168.433113 
L 359.662986 206.806502 
L 360.300665 217.271972 
L 360.938344 237.040082 
L 361.576023 248.668381 
L 362.851381 263.785171 
L 363.48906 269.599321 
L 364.126739 270.762151 
L 364.764418 259.133851 
L 366.677455 135.873874 
L 367.315134 103.314635 
L 367.952813 76.569545 
L 368.590492 56.801436 
L 369.228171 42.847476 
L 369.865849 38.196156 
L 370.503528 39.358986 
L 371.141207 46.335966 
L 371.778886 69.592565 
L 373.054244 145.176514 
L 373.691923 169.595943 
L 374.967281 207.969332 
L 375.60496 218.434802 
L 376.242639 238.202912 
L 376.880318 249.831211 
L 378.155676 264.948001 
L 378.793355 269.599321 
L 379.431034 270.762151 
L 380.068713 260.296681 
L 381.34407 174.247263 
L 381.981749 135.873874 
L 383.257107 76.569545 
L 383.894786 57.964266 
L 384.532465 44.010306 
L 385.170144 39.358986 
L 385.807823 39.358986 
L 386.445502 48.661626 
L 387.083181 73.081055 
L 388.358539 146.339344 
L 388.996218 170.758773 
L 390.271576 209.132162 
L 390.909255 219.597632 
L 391.546934 239.365742 
L 392.822291 259.133851 
L 394.097649 271.924981 
L 394.735328 273.087811 
L 395.373007 261.459511 
L 397.286044 137.036704 
L 398.561402 77.732375 
L 399.199081 60.289926 
L 399.83676 46.335966 
L 400.474439 40.521816 
L 401.112118 40.521816 
L 401.749797 49.824456 
L 402.387476 74.243885 
L 403.662833 148.665004 
L 404.300512 173.084433 
L 405.57587 210.294992 
L 406.213549 221.923292 
L 406.851228 240.528572 
L 407.488907 250.994041 
L 408.764265 267.273661 
L 409.401944 273.087811 
L 410.039623 274.250641 
L 410.677302 262.622341 
L 412.590339 137.036704 
L 413.865697 80.058035 
L 414.503375 61.452755 
L 415.141054 47.498796 
L 415.778733 42.847476 
L 416.416412 42.847476 
L 417.054091 52.150116 
L 417.69177 75.406715 
L 418.967128 149.827834 
L 419.604807 174.247263 
L 420.880165 212.620652 
L 421.517844 221.923292 
L 422.155523 240.528572 
L 423.430881 260.296681 
L 424.06856 268.436491 
L 424.706239 273.087811 
L 425.343917 275.413471 
L 425.981596 263.785171 
L 427.256954 177.735753 
L 427.894633 139.362364 
L 429.169991 81.220865 
L 429.80767 62.615585 
L 430.445349 48.661626 
L 431.083028 45.173136 
L 431.720707 46.335966 
L 432.358386 55.638606 
L 432.996065 78.895205 
L 434.271423 152.153494 
L 434.909102 177.735753 
L 435.546781 197.503863 
L 436.18446 213.783482 
L 436.822138 223.086122 
L 437.459817 241.691402 
L 438.097496 253.319701 
L 439.372854 269.599321 
L 440.010533 274.250641 
L 440.648212 276.576301 
L 441.285891 264.948001 
L 442.561249 178.898583 
L 443.198928 140.525194 
L 444.474286 82.383695 
L 445.111965 64.941245 
L 445.749644 50.987286 
L 446.387323 46.335966 
L 447.025002 47.498796 
L 447.66268 57.964266 
L 448.300359 81.220865 
L 449.575717 154.479153 
L 450.213396 178.898583 
L 451.488754 216.109142 
L 452.126433 225.411782 
L 452.764112 244.017062 
L 454.677149 270.762151 
L 455.314828 276.576301 
L 455.952507 277.739131 
L 456.590186 267.273661 
L 457.865544 178.898583 
L 459.140901 109.128784 
L 459.77858 83.546525 
L 460.416259 66.104075 
L 461.053938 54.475776 
L 461.691617 49.824456 
L 462.329296 50.987286 
L 462.966975 61.452755 
L 463.604654 84.709355 
L 464.880012 157.967643 
L 465.517691 183.549903 
L 466.793049 218.434802 
L 467.430728 227.737442 
L 468.068407 245.179892 
L 468.706086 255.645361 
L 469.981443 271.924981 
L 470.619122 277.739131 
L 471.256801 278.901961 
L 471.89448 268.436491 
L 473.807517 142.850854 
L 474.445196 111.454444 
L 475.082875 85.872185 
L 475.720554 68.429735 
L 476.358233 56.801436 
L 476.995912 52.150116 
L 477.633591 54.475776 
L 478.27127 66.104075 
L 478.908949 89.360675 
L 480.184307 161.456133 
L 480.821986 187.038393 
L 482.097343 221.923292 
L 482.735022 230.063102 
L 483.372701 247.505551 
L 484.648059 266.110831 
L 485.923417 278.901961 
L 486.561096 281.227621 
L 487.198775 270.762151 
L 489.111812 145.176514 
L 489.749491 113.780104 
L 490.38717 88.197845 
L 491.024849 70.755395 
L 491.662528 59.127096 
L 492.300206 54.475776 
L 492.937885 55.638606 
L 493.575564 67.266905 
L 494.213243 91.686335 
L 495.488601 163.781793 
L 496.12628 189.364053 
L 497.401638 224.248952 
L 498.039317 232.388762 
L 498.676996 249.831211 
L 499.952354 268.436491 
L 501.227712 282.390451 
L 501.865391 282.390451 
L 502.50307 273.087811 
L 504.416106 146.339344 
L 505.691464 88.197845 
L 506.329143 71.918225 
L 506.966822 60.289926 
L 507.604501 54.475776 
L 508.24218 56.801436 
L 508.879859 68.429735 
L 509.517538 92.849165 
L 510.792896 166.107453 
L 511.430575 191.689713 
L 512.705933 227.737442 
L 513.343612 234.714422 
L 513.981291 252.156871 
L 515.256648 270.762151 
L 516.532006 284.716111 
L 517.169685 285.878941 
L 517.807364 275.413471 
L 519.720401 148.665004 
L 520.35808 117.268594 
L 520.995759 91.686335 
L 521.633438 74.243885 
L 522.271117 62.615585 
L 522.908796 56.801436 
L 523.546475 57.964266 
L 524.184154 70.755395 
L 524.821833 95.174825 
L 526.09719 169.595943 
L 526.734869 195.178203 
L 528.010227 230.063102 
L 528.010227 230.063102 
" style="fill:none;stroke:#1f77b4;stroke-linecap:square;stroke-width:1.5;"/>
   </g>
   <g id="line2d_17">
    <path clip-path="url(#paf55e6d7ef)" d="M 54.214773 316.11252 
L 54.852452 311.4612 
L 56.12781 309.13554 
L 56.765488 309.13554 
L 57.403167 310.29837 
L 58.040846 310.29837 
L 58.678525 298.67007 
L 59.316204 292.855921 
L 59.953883 300.99573 
L 61.86692 335.88063 
L 63.779957 359.137229 
L 64.417636 362.625719 
L 65.055315 361.462889 
L 65.692994 363.788549 
L 66.968352 341.694779 
L 68.243709 321.92667 
L 68.881388 317.27535 
L 69.519067 316.11252 
L 70.156746 311.4612 
L 72.069783 307.97271 
L 73.345141 310.29837 
L 73.98282 298.67007 
L 74.620499 292.855921 
L 75.258178 300.99573 
L 77.171215 335.88063 
L 78.446573 353.323079 
L 79.084251 360.300059 
L 79.72193 363.788549 
L 80.359609 362.625719 
L 80.997288 364.951379 
L 81.634967 352.160249 
L 83.548004 323.0895 
L 84.185683 317.27535 
L 84.823362 316.11252 
L 85.461041 311.4612 
L 86.736399 309.13554 
L 87.374078 309.13554 
L 88.011757 310.29837 
L 88.649436 310.29837 
L 89.287115 298.67007 
L 89.924794 292.855921 
L 90.562472 299.8329 
L 91.83783 324.25233 
L 92.475509 335.88063 
L 93.750867 354.485909 
L 94.388546 360.300059 
L 95.026225 363.788549 
L 95.663904 362.625719 
L 96.301583 366.114209 
L 97.576941 341.694779 
L 98.852299 323.0895 
L 99.489978 318.43818 
L 100.127657 316.11252 
L 100.765336 312.62403 
L 101.403014 310.29837 
L 102.040693 309.13554 
L 102.678372 309.13554 
L 103.95373 311.4612 
L 104.591409 298.67007 
L 105.229088 292.855921 
L 105.866767 300.99573 
L 106.504446 313.78686 
L 109.055162 354.485909 
L 109.692841 360.300059 
L 110.33052 363.788549 
L 110.968199 362.625719 
L 111.605878 364.951379 
L 112.243557 352.160249 
L 113.518914 332.39214 
L 114.156593 324.25233 
L 114.794272 318.43818 
L 115.431951 317.27535 
L 116.06963 312.62403 
L 116.707309 310.29837 
L 117.344988 309.13554 
L 117.982667 309.13554 
L 119.258025 311.4612 
L 119.895704 299.8329 
L 120.533383 292.855921 
L 121.171062 299.8329 
L 122.44642 324.25233 
L 123.084099 335.88063 
L 124.359456 353.323079 
L 124.997135 360.300059 
L 125.634814 363.788549 
L 126.272493 361.462889 
L 126.910172 364.951379 
L 127.547851 352.160249 
L 128.823209 332.39214 
L 130.098567 319.60101 
L 130.736246 317.27535 
L 131.373925 312.62403 
L 132.649283 310.29837 
L 133.286962 310.29837 
L 134.56232 312.62403 
L 135.199998 300.99573 
L 135.837677 294.01875 
L 136.475356 300.99573 
L 138.388393 337.04346 
L 140.30143 360.300059 
L 140.939109 363.788549 
L 141.576788 362.625719 
L 142.214467 364.951379 
L 143.489825 342.857609 
L 144.127504 333.55497 
L 145.402862 319.60101 
L 146.04054 318.43818 
L 146.678219 313.78686 
L 147.315898 311.4612 
L 147.953577 310.29837 
L 148.591256 310.29837 
L 149.228935 312.62403 
L 149.866614 313.78686 
L 150.504293 300.99573 
L 151.141972 294.01875 
L 151.779651 299.8329 
L 153.055009 324.25233 
L 153.692688 335.88063 
L 155.605725 360.300059 
L 156.243404 363.788549 
L 156.881083 361.462889 
L 157.518761 363.788549 
L 158.794119 340.531949 
L 159.431798 332.39214 
L 160.069477 326.57799 
L 160.707156 319.60101 
L 161.344835 318.43818 
L 161.982514 313.78686 
L 162.620193 311.4612 
L 163.257872 310.29837 
L 163.895551 310.29837 
L 164.53323 313.78686 
L 165.170909 313.78686 
L 165.808588 300.99573 
L 166.446267 294.01875 
L 167.083946 299.8329 
L 168.996982 334.7178 
L 170.910019 357.974399 
L 171.547698 362.625719 
L 172.185377 361.462889 
L 172.823056 363.788549 
L 173.460735 350.997419 
L 174.098414 340.531949 
L 174.736093 332.39214 
L 175.373772 326.57799 
L 176.011451 319.60101 
L 176.64913 318.43818 
L 177.286809 313.78686 
L 177.924488 311.4612 
L 178.562167 310.29837 
L 179.199846 311.4612 
L 179.837524 313.78686 
L 180.475203 313.78686 
L 181.112882 300.99573 
L 181.750561 294.01875 
L 182.38824 299.8329 
L 184.301277 334.7178 
L 184.938956 341.694779 
L 185.576635 350.997419 
L 186.214314 357.974399 
L 186.851993 361.462889 
L 187.489672 360.300059 
L 188.127351 362.625719 
L 189.402709 340.531949 
L 190.040388 332.39214 
L 191.315745 320.76384 
L 191.953424 318.43818 
L 192.591103 313.78686 
L 193.228782 311.4612 
L 194.50414 311.4612 
L 195.141819 313.78686 
L 195.779498 313.78686 
L 196.417177 302.15856 
L 197.054856 294.01875 
L 197.692535 299.8329 
L 199.605572 334.7178 
L 201.518609 357.974399 
L 202.156287 361.462889 
L 202.793966 360.300059 
L 203.431645 362.625719 
L 204.707003 339.36912 
L 205.344682 331.22931 
L 205.982361 326.57799 
L 206.62004 319.60101 
L 207.257719 318.43818 
L 207.895398 313.78686 
L 208.533077 311.4612 
L 209.170756 310.29837 
L 209.808435 310.29837 
L 210.446114 312.62403 
L 211.083793 313.78686 
L 211.721472 302.15856 
L 212.359151 294.01875 
L 212.996829 298.67007 
L 214.909866 334.7178 
L 215.547545 341.694779 
L 216.185224 350.997419 
L 216.822903 356.811569 
L 217.460582 360.300059 
L 218.098261 360.300059 
L 218.73594 362.625719 
L 219.373619 349.834589 
L 220.011298 339.36912 
L 221.286656 326.57799 
L 221.924335 320.76384 
L 222.562014 319.60101 
L 223.199693 313.78686 
L 223.837372 311.4612 
L 224.47505 310.29837 
L 226.388087 313.78686 
L 227.025766 302.15856 
L 227.663445 294.01875 
L 228.301124 298.67007 
L 230.214161 334.7178 
L 230.85184 341.694779 
L 231.489519 350.997419 
L 232.127198 356.811569 
L 232.764877 360.300059 
L 233.402556 360.300059 
L 234.040235 362.625719 
L 235.315592 340.531949 
L 236.59095 326.57799 
L 237.228629 321.92667 
L 237.866308 319.60101 
L 238.503987 313.78686 
L 239.141666 311.4612 
L 239.779345 310.29837 
L 241.054703 312.62403 
L 241.692382 314.94969 
L 242.330061 302.15856 
L 242.96774 294.01875 
L 243.605419 298.67007 
L 245.518456 334.7178 
L 247.431492 357.974399 
L 248.069171 361.462889 
L 248.70685 361.462889 
L 249.344529 363.788549 
L 250.619887 340.531949 
L 251.257566 332.39214 
L 252.532924 320.76384 
L 253.170603 319.60101 
L 253.808282 314.94969 
L 254.445961 311.4612 
L 255.08364 310.29837 
L 256.358998 312.62403 
L 256.996677 314.94969 
L 257.634355 303.32139 
L 258.272034 294.01875 
L 258.909713 298.67007 
L 260.82275 334.7178 
L 262.735787 357.974399 
L 263.373466 361.462889 
L 264.011145 361.462889 
L 264.648824 362.625719 
L 265.286503 349.834589 
L 265.924182 339.36912 
L 267.19954 326.57799 
L 267.837219 320.76384 
L 268.474898 319.60101 
L 269.112576 314.94969 
L 269.750255 312.62403 
L 270.387934 311.4612 
L 271.025613 311.4612 
L 271.663292 312.62403 
L 272.300971 314.94969 
L 272.93865 303.32139 
L 273.576329 294.01875 
L 274.214008 298.67007 
L 276.127045 334.7178 
L 278.040082 357.974399 
L 278.677761 361.462889 
L 279.31544 360.300059 
L 279.953118 362.625719 
L 281.228476 338.20629 
L 282.503834 325.41516 
L 283.141513 320.76384 
L 283.779192 318.43818 
L 284.416871 313.78686 
L 285.05455 311.4612 
L 285.692229 310.29837 
L 286.967587 312.62403 
L 287.605266 314.94969 
L 288.242945 302.15856 
L 288.880624 292.855921 
L 289.518303 297.50724 
L 291.431339 333.55497 
L 293.344376 357.974399 
L 293.982055 361.462889 
L 294.619734 360.300059 
L 295.257413 362.625719 
L 296.532771 338.20629 
L 297.808129 325.41516 
L 298.445808 320.76384 
L 299.083487 318.43818 
L 299.721166 313.78686 
L 300.358845 311.4612 
L 300.996524 310.29837 
L 302.90956 313.78686 
L 303.547239 302.15856 
L 304.184918 292.855921 
L 304.822597 296.34441 
L 306.735634 333.55497 
L 308.648671 356.811569 
L 309.28635 360.300059 
L 310.561708 360.300059 
L 311.837066 337.04346 
L 313.112424 324.25233 
L 313.750102 319.60101 
L 314.387781 318.43818 
L 315.02546 313.78686 
L 315.663139 311.4612 
L 316.300818 310.29837 
L 316.938497 310.29837 
L 317.576176 312.62403 
L 318.213855 313.78686 
L 319.489213 291.693091 
L 320.126892 296.34441 
L 322.039929 332.39214 
L 323.952966 356.811569 
L 324.590645 359.137229 
L 325.866002 359.137229 
L 326.503681 347.508929 
L 327.14136 338.20629 
L 328.416718 324.25233 
L 329.054397 319.60101 
L 329.692076 318.43818 
L 330.329755 314.94969 
L 330.967434 312.62403 
L 331.605113 311.4612 
L 332.242792 311.4612 
L 332.880471 313.78686 
L 333.51815 314.94969 
L 334.793508 292.855921 
L 335.431187 296.34441 
L 336.706544 320.76384 
L 337.344223 333.55497 
L 339.25726 356.811569 
L 339.894939 360.300059 
L 341.170297 360.300059 
L 341.807976 347.508929 
L 342.445655 338.20629 
L 343.721013 324.25233 
L 344.358692 319.60101 
L 344.996371 318.43818 
L 345.63405 314.94969 
L 346.909408 312.62403 
L 347.547086 312.62403 
L 348.184765 313.78686 
L 348.822444 316.11252 
L 349.460123 303.32139 
L 350.097802 292.855921 
L 350.735481 297.50724 
L 352.010839 320.76384 
L 352.648518 334.7178 
L 353.923876 349.834589 
L 354.561555 357.974399 
L 355.199234 361.462889 
L 355.836913 361.462889 
L 356.474592 360.300059 
L 357.74995 338.20629 
L 359.025307 324.25233 
L 359.662986 320.76384 
L 360.300665 319.60101 
L 360.938344 316.11252 
L 361.576023 313.78686 
L 362.213702 312.62403 
L 362.851381 312.62403 
L 363.48906 313.78686 
L 364.126739 316.11252 
L 364.764418 303.32139 
L 365.402097 294.01875 
L 366.039776 297.50724 
L 367.952813 333.55497 
L 369.865849 356.811569 
L 370.503528 360.300059 
L 371.778886 360.300059 
L 372.416565 347.508929 
L 373.054244 338.20629 
L 374.329602 324.25233 
L 374.967281 320.76384 
L 375.60496 320.76384 
L 376.242639 316.11252 
L 377.517997 313.78686 
L 378.155676 313.78686 
L 379.431034 316.11252 
L 380.706391 295.18158 
L 381.34407 298.67007 
L 383.257107 334.7178 
L 385.170144 357.974399 
L 385.807823 361.462889 
L 387.083181 361.462889 
L 387.72086 349.834589 
L 388.358539 340.531949 
L 389.633897 325.41516 
L 390.271576 323.0895 
L 390.909255 321.92667 
L 391.546934 318.43818 
L 392.822291 316.11252 
L 393.45997 316.11252 
L 394.735328 318.43818 
L 396.010686 296.34441 
L 396.648365 300.99573 
L 397.286044 311.4612 
L 398.561402 337.04346 
L 399.199081 344.020439 
L 399.83676 353.323079 
L 400.474439 359.137229 
L 401.112118 362.625719 
L 402.387476 362.625719 
L 403.025154 350.997419 
L 403.662833 341.694779 
L 404.938191 326.57799 
L 405.57587 324.25233 
L 406.213549 324.25233 
L 406.851228 319.60101 
L 408.126586 317.27535 
L 408.764265 317.27535 
L 410.039623 319.60101 
L 411.314981 297.50724 
L 411.95266 302.15856 
L 413.228018 323.0895 
L 413.865697 337.04346 
L 414.503375 344.020439 
L 415.141054 353.323079 
L 415.778733 359.137229 
L 416.416412 362.625719 
L 417.69177 362.625719 
L 418.329449 349.834589 
L 420.242486 326.57799 
L 420.880165 324.25233 
L 421.517844 324.25233 
L 422.155523 319.60101 
L 422.793202 319.60101 
L 423.430881 318.43818 
L 424.06856 318.43818 
L 425.343917 320.76384 
L 426.619275 299.8329 
L 427.256954 303.32139 
L 427.894633 312.62403 
L 429.169991 337.04346 
L 429.80767 344.020439 
L 430.445349 353.323079 
L 431.083028 359.137229 
L 431.720707 362.625719 
L 432.996065 362.625719 
L 433.633744 350.997419 
L 435.546781 327.74082 
L 436.18446 325.41516 
L 436.822138 325.41516 
L 437.459817 321.92667 
L 438.735175 319.60101 
L 439.372854 320.76384 
L 440.010533 320.76384 
L 440.648212 321.92667 
L 441.92357 300.99573 
L 442.561249 304.48422 
L 443.836607 324.25233 
L 444.474286 338.20629 
L 446.387323 359.137229 
L 447.025002 363.788549 
L 447.66268 362.625719 
L 448.300359 362.625719 
L 448.938038 350.997419 
L 450.851075 327.74082 
L 452.126433 325.41516 
L 452.764112 321.92667 
L 453.401791 321.92667 
L 454.03947 320.76384 
L 454.677149 321.92667 
L 455.314828 321.92667 
L 455.952507 324.25233 
L 457.227865 302.15856 
L 457.865544 305.64705 
L 458.503223 313.78686 
L 459.140901 325.41516 
L 459.77858 339.36912 
L 460.416259 345.183269 
L 461.053938 353.323079 
L 461.691617 359.137229 
L 462.329296 363.788549 
L 462.966975 362.625719 
L 463.604654 362.625719 
L 464.242333 350.997419 
L 465.517691 335.88063 
L 466.15537 328.90365 
L 466.793049 326.57799 
L 467.430728 326.57799 
L 468.068407 323.0895 
L 469.981443 323.0895 
L 471.256801 325.41516 
L 472.532159 305.64705 
L 473.169838 307.97271 
L 473.807517 316.11252 
L 474.445196 326.57799 
L 475.082875 339.36912 
L 476.995912 360.300059 
L 477.633591 363.788549 
L 478.27127 363.788549 
L 478.908949 362.625719 
L 479.546628 352.160249 
L 480.821986 337.04346 
L 481.459664 330.06648 
L 482.097343 327.74082 
L 482.735022 327.74082 
L 483.372701 324.25233 
L 485.285738 324.25233 
L 485.923417 326.57799 
L 486.561096 327.74082 
L 487.836454 306.80988 
L 488.474133 309.13554 
L 489.111812 317.27535 
L 489.749491 327.74082 
L 490.38717 340.531949 
L 492.300206 360.300059 
L 492.937885 364.951379 
L 494.213243 364.951379 
L 494.850922 354.485909 
L 496.12628 339.36912 
L 496.763959 333.55497 
L 497.401638 330.06648 
L 498.039317 330.06648 
L 498.676996 327.74082 
L 499.314675 326.57799 
L 499.952354 327.74082 
L 500.590033 327.74082 
L 501.865391 330.06648 
L 503.140749 310.29837 
L 503.778427 311.4612 
L 504.416106 318.43818 
L 505.053785 328.90365 
L 505.691464 342.857609 
L 506.329143 348.671759 
L 506.966822 356.811569 
L 507.604501 362.625719 
L 508.24218 367.277039 
L 509.517538 367.277039 
L 510.155217 356.811569 
L 512.068254 335.88063 
L 512.705933 333.55497 
L 513.343612 333.55497 
L 513.981291 330.06648 
L 515.894327 330.06648 
L 516.532006 332.39214 
L 517.169685 333.55497 
L 517.807364 324.25233 
L 518.445043 312.62403 
L 519.082722 313.78686 
L 519.720401 320.76384 
L 520.995759 342.857609 
L 523.546475 369.602699 
L 524.184154 368.439869 
L 524.821833 368.439869 
L 525.459512 357.974399 
L 527.372548 338.20629 
L 528.010227 334.7178 
L 528.010227 334.7178 
" style="fill:none;stroke:#ff7f0e;stroke-linecap:square;stroke-width:1.5;"/>
   </g>
   <g id="patch_3">
    <path d="M 30.525 386.521875 
L 30.525 14.3 
" style="fill:none;stroke:#000000;stroke-linecap:square;stroke-linejoin:miter;stroke-width:0.8;"/>
   </g>
   <g id="patch_4">
    <path d="M 551.7 386.521875 
L 551.7 14.3 
" style="fill:none;stroke:#000000;stroke-linecap:square;stroke-linejoin:miter;stroke-width:0.8;"/>
   </g>
   <g id="patch_5">
    <path d="M 30.525 386.521875 
L 551.7 386.521875 
" style="fill:none;stroke:#000000;stroke-linecap:square;stroke-linejoin:miter;stroke-width:0.8;"/>
   </g>
   <g id="patch_6">
    <path d="M 30.525 14.3 
L 551.7 14.3 
" style="fill:none;stroke:#000000;stroke-linecap:square;stroke-linejoin:miter;stroke-width:0.8;"/>
   </g>
   <g id="legend_1">
    <g id="patch_7">
     <path d="M 408.704687 51.65625 
L 544.7 51.65625 
Q 546.7 51.65625 546.7 49.65625 
L 546.7 21.3 
Q 546.7 19.3 544.7 19.3 
L 408.704687 19.3 
Q 406.704687 19.3 406.704687 21.3 
L 406.704687 49.65625 
Q 406.704687 51.65625 408.704687 51.65625 
z
" style="fill:#ffffff;opacity:0.8;stroke:#cccccc;stroke-linejoin:miter;"/>
    </g>
    <g id="line2d_18">
     <path d="M 410.704687 27.398437 
L 430.704687 27.398437 
" style="fill:none;stroke:#1f77b4;stroke-linecap:square;stroke-width:1.5;"/>
    </g>
    <g id="line2d_19"/>
    <g id="text_16">
     <!-- Temperature (deg F) -->
     <defs>
      <path d="M -0.296875 72.90625 
L 61.375 72.90625 
L 61.375 64.59375 
L 35.5 64.59375 
L 35.5 0 
L 25.59375 0 
L 25.59375 64.59375 
L -0.296875 64.59375 
z
" id="DejaVuSans-54"/>
      <path d="M 56.203125 29.59375 
L 56.203125 25.203125 
L 14.890625 25.203125 
Q 15.484375 15.921875 20.484375 11.0625 
Q 25.484375 6.203125 34.421875 6.203125 
Q 39.59375 6.203125 44.453125 7.46875 
Q 49.3125 8.734375 54.109375 11.28125 
L 54.109375 2.78125 
Q 49.265625 0.734375 44.1875 -0.34375 
Q 39.109375 -1.421875 33.890625 -1.421875 
Q 20.796875 -1.421875 13.15625 6.1875 
Q 5.515625 13.8125 5.515625 26.8125 
Q 5.515625 40.234375 12.765625 48.109375 
Q 20.015625 56 32.328125 56 
Q 43.359375 56 49.78125 48.890625 
Q 56.203125 41.796875 56.203125 29.59375 
z
M 47.21875 32.234375 
Q 47.125 39.59375 43.09375 43.984375 
Q 39.0625 48.390625 32.421875 48.390625 
Q 24.90625 48.390625 20.390625 44.140625 
Q 15.875 39.890625 15.1875 32.171875 
z
" id="DejaVuSans-65"/>
      <path d="M 52 44.1875 
Q 55.375 50.25 60.0625 53.125 
Q 64.75 56 71.09375 56 
Q 79.640625 56 84.28125 50.015625 
Q 88.921875 44.046875 88.921875 33.015625 
L 88.921875 0 
L 79.890625 0 
L 79.890625 32.71875 
Q 79.890625 40.578125 77.09375 44.375 
Q 74.3125 48.1875 68.609375 48.1875 
Q 61.625 48.1875 57.5625 43.546875 
Q 53.515625 38.921875 53.515625 30.90625 
L 53.515625 0 
L 44.484375 0 
L 44.484375 32.71875 
Q 44.484375 40.625 41.703125 44.40625 
Q 38.921875 48.1875 33.109375 48.1875 
Q 26.21875 48.1875 22.15625 43.53125 
Q 18.109375 38.875 18.109375 30.90625 
L 18.109375 0 
L 9.078125 0 
L 9.078125 54.6875 
L 18.109375 54.6875 
L 18.109375 46.1875 
Q 21.1875 51.21875 25.484375 53.609375 
Q 29.78125 56 35.6875 56 
Q 41.65625 56 45.828125 52.96875 
Q 50 49.953125 52 44.1875 
z
" id="DejaVuSans-6d"/>
      <path d="M 18.109375 8.203125 
L 18.109375 -20.796875 
L 9.078125 -20.796875 
L 9.078125 54.6875 
L 18.109375 54.6875 
L 18.109375 46.390625 
Q 20.953125 51.265625 25.265625 53.625 
Q 29.59375 56 35.59375 56 
Q 45.5625 56 51.78125 48.09375 
Q 58.015625 40.1875 58.015625 27.296875 
Q 58.015625 14.40625 51.78125 6.484375 
Q 45.5625 -1.421875 35.59375 -1.421875 
Q 29.59375 -1.421875 25.265625 0.953125 
Q 20.953125 3.328125 18.109375 8.203125 
z
M 48.6875 27.296875 
Q 48.6875 37.203125 44.609375 42.84375 
Q 40.53125 48.484375 33.40625 48.484375 
Q 26.265625 48.484375 22.1875 42.84375 
Q 18.109375 37.203125 18.109375 27.296875 
Q 18.109375 17.390625 22.1875 11.75 
Q 26.265625 6.109375 33.40625 6.109375 
Q 40.53125 6.109375 44.609375 11.75 
Q 48.6875 17.390625 48.6875 27.296875 
z
" id="DejaVuSans-70"/>
      <path d="M 41.109375 46.296875 
Q 39.59375 47.171875 37.8125 47.578125 
Q 36.03125 48 33.890625 48 
Q 26.265625 48 22.1875 43.046875 
Q 18.109375 38.09375 18.109375 28.8125 
L 18.109375 0 
L 9.078125 0 
L 9.078125 54.6875 
L 18.109375 54.6875 
L 18.109375 46.1875 
Q 20.953125 51.171875 25.484375 53.578125 
Q 30.03125 56 36.53125 56 
Q 37.453125 56 38.578125 55.875 
Q 39.703125 55.765625 41.0625 55.515625 
z
" id="DejaVuSans-72"/>
      <path d="M 34.28125 27.484375 
Q 23.390625 27.484375 19.1875 25 
Q 14.984375 22.515625 14.984375 16.5 
Q 14.984375 11.71875 18.140625 8.90625 
Q 21.296875 6.109375 26.703125 6.109375 
Q 34.1875 6.109375 38.703125 11.40625 
Q 43.21875 16.703125 43.21875 25.484375 
L 43.21875 27.484375 
z
M 52.203125 31.203125 
L 52.203125 0 
L 43.21875 0 
L 43.21875 8.296875 
Q 40.140625 3.328125 35.546875 0.953125 
Q 30.953125 -1.421875 24.3125 -1.421875 
Q 15.921875 -1.421875 10.953125 3.296875 
Q 6 8.015625 6 15.921875 
Q 6 25.140625 12.171875 29.828125 
Q 18.359375 34.515625 30.609375 34.515625 
L 43.21875 34.515625 
L 43.21875 35.40625 
Q 43.21875 41.609375 39.140625 45 
Q 35.0625 48.390625 27.6875 48.390625 
Q 23 48.390625 18.546875 47.265625 
Q 14.109375 46.140625 10.015625 43.890625 
L 10.015625 52.203125 
Q 14.9375 54.109375 19.578125 55.046875 
Q 24.21875 56 28.609375 56 
Q 40.484375 56 46.34375 49.84375 
Q 52.203125 43.703125 52.203125 31.203125 
z
" id="DejaVuSans-61"/>
      <path d="M 18.3125 70.21875 
L 18.3125 54.6875 
L 36.8125 54.6875 
L 36.8125 47.703125 
L 18.3125 47.703125 
L 18.3125 18.015625 
Q 18.3125 11.328125 20.140625 9.421875 
Q 21.96875 7.515625 27.59375 7.515625 
L 36.8125 7.515625 
L 36.8125 0 
L 27.59375 0 
Q 17.1875 0 13.234375 3.875 
Q 9.28125 7.765625 9.28125 18.015625 
L 9.28125 47.703125 
L 2.6875 47.703125 
L 2.6875 54.6875 
L 9.28125 54.6875 
L 9.28125 70.21875 
z
" id="DejaVuSans-74"/>
      <path d="M 8.5 21.578125 
L 8.5 54.6875 
L 17.484375 54.6875 
L 17.484375 21.921875 
Q 17.484375 14.15625 20.5 10.265625 
Q 23.53125 6.390625 29.59375 6.390625 
Q 36.859375 6.390625 41.078125 11.03125 
Q 45.3125 15.671875 45.3125 23.6875 
L 45.3125 54.6875 
L 54.296875 54.6875 
L 54.296875 0 
L 45.3125 0 
L 45.3125 8.40625 
Q 42.046875 3.421875 37.71875 1 
Q 33.40625 -1.421875 27.6875 -1.421875 
Q 18.265625 -1.421875 13.375 4.4375 
Q 8.5 10.296875 8.5 21.578125 
z
M 31.109375 56 
z
" id="DejaVuSans-75"/>
      <path id="DejaVuSans-20"/>
      <path d="M 31 75.875 
Q 24.46875 64.65625 21.28125 53.65625 
Q 18.109375 42.671875 18.109375 31.390625 
Q 18.109375 20.125 21.3125 9.0625 
Q 24.515625 -2 31 -13.1875 
L 23.1875 -13.1875 
Q 15.875 -1.703125 12.234375 9.375 
Q 8.59375 20.453125 8.59375 31.390625 
Q 8.59375 42.28125 12.203125 53.3125 
Q 15.828125 64.359375 23.1875 75.875 
z
" id="DejaVuSans-28"/>
      <path d="M 45.40625 46.390625 
L 45.40625 75.984375 
L 54.390625 75.984375 
L 54.390625 0 
L 45.40625 0 
L 45.40625 8.203125 
Q 42.578125 3.328125 38.25 0.953125 
Q 33.9375 -1.421875 27.875 -1.421875 
Q 17.96875 -1.421875 11.734375 6.484375 
Q 5.515625 14.40625 5.515625 27.296875 
Q 5.515625 40.1875 11.734375 48.09375 
Q 17.96875 56 27.875 56 
Q 33.9375 56 38.25 53.625 
Q 42.578125 51.265625 45.40625 46.390625 
z
M 14.796875 27.296875 
Q 14.796875 17.390625 18.875 11.75 
Q 22.953125 6.109375 30.078125 6.109375 
Q 37.203125 6.109375 41.296875 11.75 
Q 45.40625 17.390625 45.40625 27.296875 
Q 45.40625 37.203125 41.296875 42.84375 
Q 37.203125 48.484375 30.078125 48.484375 
Q 22.953125 48.484375 18.875 42.84375 
Q 14.796875 37.203125 14.796875 27.296875 
z
" id="DejaVuSans-64"/>
      <path d="M 45.40625 27.984375 
Q 45.40625 37.75 41.375 43.109375 
Q 37.359375 48.484375 30.078125 48.484375 
Q 22.859375 48.484375 18.828125 43.109375 
Q 14.796875 37.75 14.796875 27.984375 
Q 14.796875 18.265625 18.828125 12.890625 
Q 22.859375 7.515625 30.078125 7.515625 
Q 37.359375 7.515625 41.375 12.890625 
Q 45.40625 18.265625 45.40625 27.984375 
z
M 54.390625 6.78125 
Q 54.390625 -7.171875 48.1875 -13.984375 
Q 42 -20.796875 29.203125 -20.796875 
Q 24.46875 -20.796875 20.265625 -20.09375 
Q 16.0625 -19.390625 12.109375 -17.921875 
L 12.109375 -9.1875 
Q 16.0625 -11.328125 19.921875 -12.34375 
Q 23.78125 -13.375 27.78125 -13.375 
Q 36.625 -13.375 41.015625 -8.765625 
Q 45.40625 -4.15625 45.40625 5.171875 
L 45.40625 9.625 
Q 42.625 4.78125 38.28125 2.390625 
Q 33.9375 0 27.875 0 
Q 17.828125 0 11.671875 7.65625 
Q 5.515625 15.328125 5.515625 27.984375 
Q 5.515625 40.671875 11.671875 48.328125 
Q 17.828125 56 27.875 56 
Q 33.9375 56 38.28125 53.609375 
Q 42.625 51.21875 45.40625 46.390625 
L 45.40625 54.6875 
L 54.390625 54.6875 
z
" id="DejaVuSans-67"/>
      <path d="M 9.8125 72.90625 
L 51.703125 72.90625 
L 51.703125 64.59375 
L 19.671875 64.59375 
L 19.671875 43.109375 
L 48.578125 43.109375 
L 48.578125 34.8125 
L 19.671875 34.8125 
L 19.671875 0 
L 9.8125 0 
z
" id="DejaVuSans-46"/>
      <path d="M 8.015625 75.875 
L 15.828125 75.875 
Q 23.140625 64.359375 26.78125 53.3125 
Q 30.421875 42.28125 30.421875 31.390625 
Q 30.421875 20.453125 26.78125 9.375 
Q 23.140625 -1.703125 15.828125 -13.1875 
L 8.015625 -13.1875 
Q 14.5 -2 17.703125 9.0625 
Q 20.90625 20.125 20.90625 31.390625 
Q 20.90625 42.671875 17.703125 53.65625 
Q 14.5 64.65625 8.015625 75.875 
z
" id="DejaVuSans-29"/>
     </defs>
     <g transform="translate(438.704687 30.898437)scale(0.1 -0.1)">
      <use xlink:href="#DejaVuSans-54"/>
      <use x="60.818359" xlink:href="#DejaVuSans-65"/>
      <use x="122.341797" xlink:href="#DejaVuSans-6d"/>
      <use x="219.753906" xlink:href="#DejaVuSans-70"/>
      <use x="283.230469" xlink:href="#DejaVuSans-65"/>
      <use x="344.753906" xlink:href="#DejaVuSans-72"/>
      <use x="385.867188" xlink:href="#DejaVuSans-61"/>
      <use x="447.146484" xlink:href="#DejaVuSans-74"/>
      <use x="486.355469" xlink:href="#DejaVuSans-75"/>
      <use x="549.734375" xlink:href="#DejaVuSans-72"/>
      <use x="590.816406" xlink:href="#DejaVuSans-65"/>
      <use x="652.339844" xlink:href="#DejaVuSans-20"/>
      <use x="684.126953" xlink:href="#DejaVuSans-28"/>
      <use x="723.140625" xlink:href="#DejaVuSans-64"/>
      <use x="786.617188" xlink:href="#DejaVuSans-65"/>
      <use x="848.140625" xlink:href="#DejaVuSans-67"/>
      <use x="911.617188" xlink:href="#DejaVuSans-20"/>
      <use x="943.404297" xlink:href="#DejaVuSans-46"/>
      <use x="1000.923828" xlink:href="#DejaVuSans-29"/>
     </g>
    </g>
    <g id="line2d_20">
     <path d="M 410.704687 42.076562 
L 430.704687 42.076562 
" style="fill:none;stroke:#ff7f0e;stroke-linecap:square;stroke-width:1.5;"/>
    </g>
    <g id="line2d_21"/>
    <g id="text_17">
     <!-- Dew Point (deg F) -->
     <defs>
      <path d="M 19.671875 64.796875 
L 19.671875 8.109375 
L 31.59375 8.109375 
Q 46.6875 8.109375 53.6875 14.9375 
Q 60.6875 21.78125 60.6875 36.53125 
Q 60.6875 51.171875 53.6875 57.984375 
Q 46.6875 64.796875 31.59375 64.796875 
z
M 9.8125 72.90625 
L 30.078125 72.90625 
Q 51.265625 72.90625 61.171875 64.09375 
Q 71.09375 55.28125 71.09375 36.53125 
Q 71.09375 17.671875 61.125 8.828125 
Q 51.171875 0 30.078125 0 
L 9.8125 0 
z
" id="DejaVuSans-44"/>
      <path d="M 4.203125 54.6875 
L 13.1875 54.6875 
L 24.421875 12.015625 
L 35.59375 54.6875 
L 46.1875 54.6875 
L 57.421875 12.015625 
L 68.609375 54.6875 
L 77.59375 54.6875 
L 63.28125 0 
L 52.6875 0 
L 40.921875 44.828125 
L 29.109375 0 
L 18.5 0 
z
" id="DejaVuSans-77"/>
      <path d="M 19.671875 64.796875 
L 19.671875 37.40625 
L 32.078125 37.40625 
Q 38.96875 37.40625 42.71875 40.96875 
Q 46.484375 44.53125 46.484375 51.125 
Q 46.484375 57.671875 42.71875 61.234375 
Q 38.96875 64.796875 32.078125 64.796875 
z
M 9.8125 72.90625 
L 32.078125 72.90625 
Q 44.34375 72.90625 50.609375 67.359375 
Q 56.890625 61.8125 56.890625 51.125 
Q 56.890625 40.328125 50.609375 34.8125 
Q 44.34375 29.296875 32.078125 29.296875 
L 19.671875 29.296875 
L 19.671875 0 
L 9.8125 0 
z
" id="DejaVuSans-50"/>
      <path d="M 30.609375 48.390625 
Q 23.390625 48.390625 19.1875 42.75 
Q 14.984375 37.109375 14.984375 27.296875 
Q 14.984375 17.484375 19.15625 11.84375 
Q 23.34375 6.203125 30.609375 6.203125 
Q 37.796875 6.203125 41.984375 11.859375 
Q 46.1875 17.53125 46.1875 27.296875 
Q 46.1875 37.015625 41.984375 42.703125 
Q 37.796875 48.390625 30.609375 48.390625 
z
M 30.609375 56 
Q 42.328125 56 49.015625 48.375 
Q 55.71875 40.765625 55.71875 27.296875 
Q 55.71875 13.875 49.015625 6.21875 
Q 42.328125 -1.421875 30.609375 -1.421875 
Q 18.84375 -1.421875 12.171875 6.21875 
Q 5.515625 13.875 5.515625 27.296875 
Q 5.515625 40.765625 12.171875 48.375 
Q 18.84375 56 30.609375 56 
z
" id="DejaVuSans-6f"/>
      <path d="M 9.421875 54.6875 
L 18.40625 54.6875 
L 18.40625 0 
L 9.421875 0 
z
M 9.421875 75.984375 
L 18.40625 75.984375 
L 18.40625 64.59375 
L 9.421875 64.59375 
z
" id="DejaVuSans-69"/>
      <path d="M 54.890625 33.015625 
L 54.890625 0 
L 45.90625 0 
L 45.90625 32.71875 
Q 45.90625 40.484375 42.875 44.328125 
Q 39.84375 48.1875 33.796875 48.1875 
Q 26.515625 48.1875 22.3125 43.546875 
Q 18.109375 38.921875 18.109375 30.90625 
L 18.109375 0 
L 9.078125 0 
L 9.078125 54.6875 
L 18.109375 54.6875 
L 18.109375 46.1875 
Q 21.34375 51.125 25.703125 53.5625 
Q 30.078125 56 35.796875 56 
Q 45.21875 56 50.046875 50.171875 
Q 54.890625 44.34375 54.890625 33.015625 
z
" id="DejaVuSans-6e"/>
     </defs>
     <g transform="translate(438.704687 45.576562)scale(0.1 -0.1)">
      <use xlink:href="#DejaVuSans-44"/>
      <use x="77.001953" xlink:href="#DejaVuSans-65"/>
      <use x="138.525391" xlink:href="#DejaVuSans-77"/>
      <use x="220.3125" xlink:href="#DejaVuSans-20"/>
      <use x="252.099609" xlink:href="#DejaVuSans-50"/>
      <use x="312.355469" xlink:href="#DejaVuSans-6f"/>
      <use x="373.537109" xlink:href="#DejaVuSans-69"/>
      <use x="401.320312" xlink:href="#DejaVuSans-6e"/>
      <use x="464.699219" xlink:href="#DejaVuSans-74"/>
      <use x="503.908203" xlink:href="#DejaVuSans-20"/>
      <use x="535.695312" xlink:href="#DejaVuSans-28"/>
      <use x="574.708984" xlink:href="#DejaVuSans-64"/>
      <use x="638.185547" xlink:href="#DejaVuSans-65"/>
      <use x="699.708984" xlink:href="#DejaVuSans-67"/>
      <use x="763.185547" xlink:href="#DejaVuSans-20"/>
      <use x="794.972656" xlink:href="#DejaVuSans-46"/>
      <use x="852.492188" xlink:href="#DejaVuSans-29"/>
     </g>
    </g>
   </g>
  </g>
 </g>
 <defs>
  <clipPath id="paf55e6d7ef">
   <rect height="372.221875" width="521.175" x="30.525" y="14.3"/>
  </clipPath>
 </defs>
</svg>
