<?xml version="1.0" encoding="utf-8" standalone="no"?>
<!DOCTYPE svg PUBLIC "-//W3C//DTD SVG 1.1//EN"
  "http://www.w3.org/Graphics/SVG/1.1/DTD/svg11.dtd">
<!-- Created with matplotlib (http://matplotlib.org/) -->
<svg height="414pt" version="1.1" viewBox="0 0 566 414" width="566pt" xmlns="http://www.w3.org/2000/svg" xmlns:xlink="http://www.w3.org/1999/xlink">
 <defs>
  <style type="text/css">
*{stroke-linecap:butt;stroke-linejoin:round;}
  </style>
 </defs>
 <g id="figure_1">
  <g id="patch_1">
   <path d="M 0 414 
L 566 414 
L 566 0 
L 0 0 
z
" style="fill:#ffffff;"/>
  </g>
  <g id="axes_1">
   <g id="patch_2">
    <path d="M 36.8875 386.521875 
L 551.7 386.521875 
L 551.7 14.553121 
L 36.8875 14.553121 
z
" style="fill:#ffffff;"/>
   </g>
   <g id="matplotlib.axis_1">
    <g id="xtick_1">
     <g id="line2d_1">
      <defs>
       <path d="M 0 0 
L 0 3.5 
" id="m2db11782f6" style="stroke:#000000;stroke-width:0.8;"/>
      </defs>
      <g>
       <use style="stroke:#000000;stroke-width:0.8;" x="60.288068" xlink:href="#m2db11782f6" y="386.521875"/>
      </g>
     </g>
     <g id="text_1">
      <!-- 0 -->
      <defs>
       <path d="M 31.78125 66.40625 
Q 24.171875 66.40625 20.328125 58.90625 
Q 16.5 51.421875 16.5 36.375 
Q 16.5 21.390625 20.328125 13.890625 
Q 24.171875 6.390625 31.78125 6.390625 
Q 39.453125 6.390625 43.28125 13.890625 
Q 47.125 21.390625 47.125 36.375 
Q 47.125 51.421875 43.28125 58.90625 
Q 39.453125 66.40625 31.78125 66.40625 
z
M 31.78125 74.21875 
Q 44.046875 74.21875 50.515625 64.515625 
Q 56.984375 54.828125 56.984375 36.375 
Q 56.984375 17.96875 50.515625 8.265625 
Q 44.046875 -1.421875 31.78125 -1.421875 
Q 19.53125 -1.421875 13.0625 8.265625 
Q 6.59375 17.96875 6.59375 36.375 
Q 6.59375 54.828125 13.0625 64.515625 
Q 19.53125 74.21875 31.78125 74.21875 
z
" id="DejaVuSans-30"/>
      </defs>
      <g transform="translate(57.106818 401.120313)scale(0.1 -0.1)">
       <use xlink:href="#DejaVuSans-30"/>
      </g>
     </g>
    </g>
    <g id="xtick_2">
     <g id="line2d_2">
      <g>
       <use style="stroke:#000000;stroke-width:0.8;" x="123.277485" xlink:href="#m2db11782f6" y="386.521875"/>
      </g>
     </g>
     <g id="text_2">
      <!-- 100 -->
      <defs>
       <path d="M 12.40625 8.296875 
L 28.515625 8.296875 
L 28.515625 63.921875 
L 10.984375 60.40625 
L 10.984375 69.390625 
L 28.421875 72.90625 
L 38.28125 72.90625 
L 38.28125 8.296875 
L 54.390625 8.296875 
L 54.390625 0 
L 12.40625 0 
z
" id="DejaVuSans-31"/>
      </defs>
      <g transform="translate(113.733735 401.120313)scale(0.1 -0.1)">
       <use xlink:href="#DejaVuSans-31"/>
       <use x="63.623047" xlink:href="#DejaVuSans-30"/>
       <use x="127.246094" xlink:href="#DejaVuSans-30"/>
      </g>
     </g>
    </g>
    <g id="xtick_3">
     <g id="line2d_3">
      <g>
       <use style="stroke:#000000;stroke-width:0.8;" x="186.266901" xlink:href="#m2db11782f6" y="386.521875"/>
      </g>
     </g>
     <g id="text_3">
      <!-- 200 -->
      <defs>
       <path d="M 19.1875 8.296875 
L 53.609375 8.296875 
L 53.609375 0 
L 7.328125 0 
L 7.328125 8.296875 
Q 12.9375 14.109375 22.625 23.890625 
Q 32.328125 33.6875 34.8125 36.53125 
Q 39.546875 41.84375 41.421875 45.53125 
Q 43.3125 49.21875 43.3125 52.78125 
Q 43.3125 58.59375 39.234375 62.25 
Q 35.15625 65.921875 28.609375 65.921875 
Q 23.96875 65.921875 18.8125 64.3125 
Q 13.671875 62.703125 7.8125 59.421875 
L 7.8125 69.390625 
Q 13.765625 71.78125 18.9375 73 
Q 24.125 74.21875 28.421875 74.21875 
Q 39.75 74.21875 46.484375 68.546875 
Q 53.21875 62.890625 53.21875 53.421875 
Q 53.21875 48.921875 51.53125 44.890625 
Q 49.859375 40.875 45.40625 35.40625 
Q 44.1875 33.984375 37.640625 27.21875 
Q 31.109375 20.453125 19.1875 8.296875 
z
" id="DejaVuSans-32"/>
      </defs>
      <g transform="translate(176.723151 401.120313)scale(0.1 -0.1)">
       <use xlink:href="#DejaVuSans-32"/>
       <use x="63.623047" xlink:href="#DejaVuSans-30"/>
       <use x="127.246094" xlink:href="#DejaVuSans-30"/>
      </g>
     </g>
    </g>
    <g id="xtick_4">
     <g id="line2d_4">
      <g>
       <use style="stroke:#000000;stroke-width:0.8;" x="249.256317" xlink:href="#m2db11782f6" y="386.521875"/>
      </g>
     </g>
     <g id="text_4">
      <!-- 300 -->
      <defs>
       <path d="M 40.578125 39.3125 
Q 47.65625 37.796875 51.625 33 
Q 55.609375 28.21875 55.609375 21.1875 
Q 55.609375 10.40625 48.1875 4.484375 
Q 40.765625 -1.421875 27.09375 -1.421875 
Q 22.515625 -1.421875 17.65625 -0.515625 
Q 12.796875 0.390625 7.625 2.203125 
L 7.625 11.71875 
Q 11.71875 9.328125 16.59375 8.109375 
Q 21.484375 6.890625 26.8125 6.890625 
Q 36.078125 6.890625 40.9375 10.546875 
Q 45.796875 14.203125 45.796875 21.1875 
Q 45.796875 27.640625 41.28125 31.265625 
Q 36.765625 34.90625 28.71875 34.90625 
L 20.21875 34.90625 
L 20.21875 43.015625 
L 29.109375 43.015625 
Q 36.375 43.015625 40.234375 45.921875 
Q 44.09375 48.828125 44.09375 54.296875 
Q 44.09375 59.90625 40.109375 62.90625 
Q 36.140625 65.921875 28.71875 65.921875 
Q 24.65625 65.921875 20.015625 65.03125 
Q 15.375 64.15625 9.8125 62.3125 
L 9.8125 71.09375 
Q 15.4375 72.65625 20.34375 73.4375 
Q 25.25 74.21875 29.59375 74.21875 
Q 40.828125 74.21875 47.359375 69.109375 
Q 53.90625 64.015625 53.90625 55.328125 
Q 53.90625 49.265625 50.4375 45.09375 
Q 46.96875 40.921875 40.578125 39.3125 
z
" id="DejaVuSans-33"/>
      </defs>
      <g transform="translate(239.712567 401.120313)scale(0.1 -0.1)">
       <use xlink:href="#DejaVuSans-33"/>
       <use x="63.623047" xlink:href="#DejaVuSans-30"/>
       <use x="127.246094" xlink:href="#DejaVuSans-30"/>
      </g>
     </g>
    </g>
    <g id="xtick_5">
     <g id="line2d_5">
      <g>
       <use style="stroke:#000000;stroke-width:0.8;" x="312.245734" xlink:href="#m2db11782f6" y="386.521875"/>
      </g>
     </g>
     <g id="text_5">
      <!-- 400 -->
      <defs>
       <path d="M 37.796875 64.3125 
L 12.890625 25.390625 
L 37.796875 25.390625 
z
M 35.203125 72.90625 
L 47.609375 72.90625 
L 47.609375 25.390625 
L 58.015625 25.390625 
L 58.015625 17.1875 
L 47.609375 17.1875 
L 47.609375 0 
L 37.796875 0 
L 37.796875 17.1875 
L 4.890625 17.1875 
L 4.890625 26.703125 
z
" id="DejaVuSans-34"/>
      </defs>
      <g transform="translate(302.701984 401.120313)scale(0.1 -0.1)">
       <use xlink:href="#DejaVuSans-34"/>
       <use x="63.623047" xlink:href="#DejaVuSans-30"/>
       <use x="127.246094" xlink:href="#DejaVuSans-30"/>
      </g>
     </g>
    </g>
    <g id="xtick_6">
     <g id="line2d_6">
      <g>
       <use style="stroke:#000000;stroke-width:0.8;" x="375.23515" xlink:href="#m2db11782f6" y="386.521875"/>
      </g>
     </g>
     <g id="text_6">
      <!-- 500 -->
      <defs>
       <path d="M 10.796875 72.90625 
L 49.515625 72.90625 
L 49.515625 64.59375 
L 19.828125 64.59375 
L 19.828125 46.734375 
Q 21.96875 47.46875 24.109375 47.828125 
Q 26.265625 48.1875 28.421875 48.1875 
Q 40.625 48.1875 47.75 41.5 
Q 54.890625 34.8125 54.890625 23.390625 
Q 54.890625 11.625 47.5625 5.09375 
Q 40.234375 -1.421875 26.90625 -1.421875 
Q 22.3125 -1.421875 17.546875 -0.640625 
Q 12.796875 0.140625 7.71875 1.703125 
L 7.71875 11.625 
Q 12.109375 9.234375 16.796875 8.0625 
Q 21.484375 6.890625 26.703125 6.890625 
Q 35.15625 6.890625 40.078125 11.328125 
Q 45.015625 15.765625 45.015625 23.390625 
Q 45.015625 31 40.078125 35.4375 
Q 35.15625 39.890625 26.703125 39.890625 
Q 22.75 39.890625 18.8125 39.015625 
Q 14.890625 38.140625 10.796875 36.28125 
z
" id="DejaVuSans-35"/>
      </defs>
      <g transform="translate(365.6914 401.120313)scale(0.1 -0.1)">
       <use xlink:href="#DejaVuSans-35"/>
       <use x="63.623047" xlink:href="#DejaVuSans-30"/>
       <use x="127.246094" xlink:href="#DejaVuSans-30"/>
      </g>
     </g>
    </g>
    <g id="xtick_7">
     <g id="line2d_7">
      <g>
       <use style="stroke:#000000;stroke-width:0.8;" x="438.224566" xlink:href="#m2db11782f6" y="386.521875"/>
      </g>
     </g>
     <g id="text_7">
      <!-- 600 -->
      <defs>
       <path d="M 33.015625 40.375 
Q 26.375 40.375 22.484375 35.828125 
Q 18.609375 31.296875 18.609375 23.390625 
Q 18.609375 15.53125 22.484375 10.953125 
Q 26.375 6.390625 33.015625 6.390625 
Q 39.65625 6.390625 43.53125 10.953125 
Q 47.40625 15.53125 47.40625 23.390625 
Q 47.40625 31.296875 43.53125 35.828125 
Q 39.65625 40.375 33.015625 40.375 
z
M 52.59375 71.296875 
L 52.59375 62.3125 
Q 48.875 64.0625 45.09375 64.984375 
Q 41.3125 65.921875 37.59375 65.921875 
Q 27.828125 65.921875 22.671875 59.328125 
Q 17.53125 52.734375 16.796875 39.40625 
Q 19.671875 43.65625 24.015625 45.921875 
Q 28.375 48.1875 33.59375 48.1875 
Q 44.578125 48.1875 50.953125 41.515625 
Q 57.328125 34.859375 57.328125 23.390625 
Q 57.328125 12.15625 50.6875 5.359375 
Q 44.046875 -1.421875 33.015625 -1.421875 
Q 20.359375 -1.421875 13.671875 8.265625 
Q 6.984375 17.96875 6.984375 36.375 
Q 6.984375 53.65625 15.1875 63.9375 
Q 23.390625 74.21875 37.203125 74.21875 
Q 40.921875 74.21875 44.703125 73.484375 
Q 48.484375 72.75 52.59375 71.296875 
z
" id="DejaVuSans-36"/>
      </defs>
      <g transform="translate(428.680816 401.120313)scale(0.1 -0.1)">
       <use xlink:href="#DejaVuSans-36"/>
       <use x="63.623047" xlink:href="#DejaVuSans-30"/>
       <use x="127.246094" xlink:href="#DejaVuSans-30"/>
      </g>
     </g>
    </g>
    <g id="xtick_8">
     <g id="line2d_8">
      <g>
       <use style="stroke:#000000;stroke-width:0.8;" x="501.213983" xlink:href="#m2db11782f6" y="386.521875"/>
      </g>
     </g>
     <g id="text_8">
      <!-- 700 -->
      <defs>
       <path d="M 8.203125 72.90625 
L 55.078125 72.90625 
L 55.078125 68.703125 
L 28.609375 0 
L 18.3125 0 
L 43.21875 64.59375 
L 8.203125 64.59375 
z
" id="DejaVuSans-37"/>
      </defs>
      <g transform="translate(491.670233 401.120313)scale(0.1 -0.1)">
       <use xlink:href="#DejaVuSans-37"/>
       <use x="63.623047" xlink:href="#DejaVuSans-30"/>
       <use x="127.246094" xlink:href="#DejaVuSans-30"/>
      </g>
     </g>
    </g>
   </g>
   <g id="matplotlib.axis_2">
    <g id="ytick_1">
     <g id="line2d_9">
      <defs>
       <path d="M 0 0 
L -3.5 0 
" id="m517dc1fd83" style="stroke:#000000;stroke-width:0.8;"/>
      </defs>
      <g>
       <use style="stroke:#000000;stroke-width:0.8;" x="36.8875" xlink:href="#m517dc1fd83" y="373.200137"/>
      </g>
     </g>
     <g id="text_9">
      <!-- 0 -->
      <g transform="translate(23.525 376.999355)scale(0.1 -0.1)">
       <use xlink:href="#DejaVuSans-30"/>
      </g>
     </g>
    </g>
    <g id="ytick_2">
     <g id="line2d_10">
      <g>
       <use style="stroke:#000000;stroke-width:0.8;" x="36.8875" xlink:href="#m517dc1fd83" y="301.481491"/>
      </g>
     </g>
     <g id="text_10">
      <!-- 20 -->
      <g transform="translate(17.1625 305.28071)scale(0.1 -0.1)">
       <use xlink:href="#DejaVuSans-32"/>
       <use x="63.623047" xlink:href="#DejaVuSans-30"/>
      </g>
     </g>
    </g>
    <g id="ytick_3">
     <g id="line2d_11">
      <g>
       <use style="stroke:#000000;stroke-width:0.8;" x="36.8875" xlink:href="#m517dc1fd83" y="229.762846"/>
      </g>
     </g>
     <g id="text_11">
      <!-- 40 -->
      <g transform="translate(17.1625 233.562065)scale(0.1 -0.1)">
       <use xlink:href="#DejaVuSans-34"/>
       <use x="63.623047" xlink:href="#DejaVuSans-30"/>
      </g>
     </g>
    </g>
    <g id="ytick_4">
     <g id="line2d_12">
      <g>
       <use style="stroke:#000000;stroke-width:0.8;" x="36.8875" xlink:href="#m517dc1fd83" y="158.044201"/>
      </g>
     </g>
     <g id="text_12">
      <!-- 60 -->
      <g transform="translate(17.1625 161.84342)scale(0.1 -0.1)">
       <use xlink:href="#DejaVuSans-36"/>
       <use x="63.623047" xlink:href="#DejaVuSans-30"/>
      </g>
     </g>
    </g>
    <g id="ytick_5">
     <g id="line2d_13">
      <g>
       <use style="stroke:#000000;stroke-width:0.8;" x="36.8875" xlink:href="#m517dc1fd83" y="86.325555"/>
      </g>
     </g>
     <g id="text_13">
      <!-- 80 -->
      <defs>
       <path d="M 31.78125 34.625 
Q 24.75 34.625 20.71875 30.859375 
Q 16.703125 27.09375 16.703125 20.515625 
Q 16.703125 13.921875 20.71875 10.15625 
Q 24.75 6.390625 31.78125 6.390625 
Q 38.8125 6.390625 42.859375 10.171875 
Q 46.921875 13.96875 46.921875 20.515625 
Q 46.921875 27.09375 42.890625 30.859375 
Q 38.875 34.625 31.78125 34.625 
z
M 21.921875 38.8125 
Q 15.578125 40.375 12.03125 44.71875 
Q 8.5 49.078125 8.5 55.328125 
Q 8.5 64.0625 14.71875 69.140625 
Q 20.953125 74.21875 31.78125 74.21875 
Q 42.671875 74.21875 48.875 69.140625 
Q 55.078125 64.0625 55.078125 55.328125 
Q 55.078125 49.078125 51.53125 44.71875 
Q 48 40.375 41.703125 38.8125 
Q 48.828125 37.15625 52.796875 32.3125 
Q 56.78125 27.484375 56.78125 20.515625 
Q 56.78125 9.90625 50.3125 4.234375 
Q 43.84375 -1.421875 31.78125 -1.421875 
Q 19.734375 -1.421875 13.25 4.234375 
Q 6.78125 9.90625 6.78125 20.515625 
Q 6.78125 27.484375 10.78125 32.3125 
Q 14.796875 37.15625 21.921875 38.8125 
z
M 18.3125 54.390625 
Q 18.3125 48.734375 21.84375 45.5625 
Q 25.390625 42.390625 31.78125 42.390625 
Q 38.140625 42.390625 41.71875 45.5625 
Q 45.3125 48.734375 45.3125 54.390625 
Q 45.3125 60.0625 41.71875 63.234375 
Q 38.140625 66.40625 31.78125 66.40625 
Q 25.390625 66.40625 21.84375 63.234375 
Q 18.3125 60.0625 18.3125 54.390625 
z
" id="DejaVuSans-38"/>
      </defs>
      <g transform="translate(17.1625 90.124774)scale(0.1 -0.1)">
       <use xlink:href="#DejaVuSans-38"/>
       <use x="63.623047" xlink:href="#DejaVuSans-30"/>
      </g>
     </g>
    </g>
    <g id="ytick_6">
     <g id="line2d_14">
      <g>
       <use style="stroke:#000000;stroke-width:0.8;" x="36.8875" xlink:href="#m517dc1fd83" y="14.60691"/>
      </g>
     </g>
     <g id="text_14">
      <!-- 100 -->
      <g transform="translate(10.8 18.406129)scale(0.1 -0.1)">
       <use xlink:href="#DejaVuSans-31"/>
       <use x="63.623047" xlink:href="#DejaVuSans-30"/>
       <use x="127.246094" xlink:href="#DejaVuSans-30"/>
      </g>
     </g>
    </g>
   </g>
   <g id="line2d_15">
    <path clip-path="url(#p3e88ef9269)" d="M 60.288068 89.911488 
L 60.917962 95.648979 
L 61.547857 99.234912 
L 62.807645 103.896624 
L 63.437539 105.68959 
L 64.067433 106.048183 
L 64.697327 100.669285 
L 65.957116 74.491979 
L 66.58701 62.658403 
L 67.846798 44.728741 
L 68.476692 38.99125 
L 69.106586 34.688131 
L 69.736481 32.536571 
L 70.366375 33.253758 
L 70.996269 36.481097 
L 71.626163 41.859995 
L 72.256057 50.824826 
L 72.885951 64.451369 
L 73.515846 73.416199 
L 74.775634 86.325555 
L 75.405528 89.552895 
L 76.035422 95.648979 
L 76.665316 98.876318 
L 77.925105 103.53803 
L 78.554999 105.68959 
L 79.184893 105.68959 
L 79.814787 100.310691 
L 81.074576 74.491979 
L 82.334364 52.617792 
L 82.964258 44.728741 
L 83.594152 38.99125 
L 84.224046 34.688131 
L 84.853941 32.536571 
L 85.483835 33.253758 
L 86.113729 36.481097 
L 86.743623 41.859995 
L 87.373517 51.183419 
L 88.003411 64.451369 
L 88.633306 73.416199 
L 89.893094 85.966962 
L 90.522988 89.552895 
L 91.152882 95.290386 
L 91.782776 98.876318 
L 93.042565 103.53803 
L 93.672459 105.68959 
L 94.302353 106.048183 
L 94.932247 100.669285 
L 96.192036 74.133386 
L 97.451824 52.617792 
L 98.081718 44.370148 
L 98.711612 38.632656 
L 99.341506 34.329538 
L 99.9714 32.177978 
L 100.601295 32.895165 
L 101.231189 35.763911 
L 101.861083 41.501402 
L 102.490977 51.183419 
L 103.120871 64.809962 
L 103.750765 73.774793 
L 105.010554 85.966962 
L 105.640448 89.194301 
L 106.270342 94.931793 
L 106.900236 98.517725 
L 108.160025 103.179437 
L 108.789919 105.330996 
L 109.419813 105.68959 
L 110.049707 100.669285 
L 111.309495 73.774793 
L 112.569284 52.259199 
L 113.199178 43.652962 
L 113.829072 38.274063 
L 114.458966 33.970944 
L 115.08886 32.177978 
L 115.718755 32.536571 
L 116.348649 35.763911 
L 116.978543 41.501402 
L 117.608437 51.542012 
L 118.238331 64.809962 
L 118.868225 73.774793 
L 120.128014 85.608369 
L 120.757908 89.194301 
L 121.387802 94.931793 
L 122.017696 98.517725 
L 123.277485 103.179437 
L 123.907379 105.330996 
L 124.537273 105.68959 
L 125.167167 100.310691 
L 127.05685 62.658403 
L 128.316638 43.652962 
L 128.946532 38.274063 
L 129.576426 34.329538 
L 130.20632 32.177978 
L 130.836215 32.895165 
L 131.466109 35.763911 
L 132.096003 41.859995 
L 132.725897 51.900606 
L 133.355791 65.168555 
L 133.985685 74.133386 
L 135.245474 85.966962 
L 135.875368 89.194301 
L 136.505262 94.931793 
L 137.135156 98.517725 
L 139.024839 105.68959 
L 139.654733 105.68959 
L 140.284627 100.669285 
L 142.174309 62.658403 
L 142.804204 52.259199 
L 143.434098 44.011555 
L 144.063992 38.274063 
L 144.693886 34.329538 
L 145.32378 31.819385 
L 145.953674 32.536571 
L 146.583569 35.763911 
L 147.213463 41.501402 
L 147.843357 51.900606 
L 148.473251 65.168555 
L 149.103145 74.133386 
L 150.362934 86.325555 
L 150.992828 89.194301 
L 151.622722 95.290386 
L 152.252616 98.876318 
L 153.512404 103.53803 
L 154.142299 105.68959 
L 154.772193 105.68959 
L 155.402087 100.669285 
L 157.291769 63.016996 
L 158.551558 44.011555 
L 159.181452 38.274063 
L 159.811346 34.329538 
L 160.44124 31.460792 
L 161.071134 32.536571 
L 161.701029 35.763911 
L 162.330923 41.859995 
L 162.960817 52.259199 
L 163.590711 65.527148 
L 164.220605 74.491979 
L 165.480394 86.325555 
L 166.110288 89.194301 
L 166.740182 95.290386 
L 167.370076 98.876318 
L 168.629864 103.53803 
L 169.259759 105.68959 
L 169.889653 105.68959 
L 170.519547 101.027878 
L 171.779335 74.491979 
L 173.039123 52.617792 
L 173.669018 44.370148 
L 174.298912 38.632656 
L 174.928806 34.329538 
L 175.5587 31.819385 
L 176.188594 32.895165 
L 176.818488 35.763911 
L 177.448383 41.859995 
L 178.078277 52.259199 
L 178.708171 65.885742 
L 179.338065 74.491979 
L 180.597853 86.325555 
L 181.227748 89.194301 
L 181.857642 95.290386 
L 182.487536 98.876318 
L 183.747324 103.53803 
L 184.377218 105.68959 
L 185.007113 105.68959 
L 185.637007 101.027878 
L 186.896795 74.491979 
L 188.156583 52.617792 
L 188.786478 44.370148 
L 189.416372 38.632656 
L 190.046266 34.329538 
L 190.67616 31.819385 
L 191.306054 32.895165 
L 191.935948 35.763911 
L 192.565843 42.577182 
L 193.195737 52.976385 
L 193.825631 66.244335 
L 194.455525 74.850572 
L 195.715313 86.684149 
L 196.345208 89.552895 
L 196.975102 95.648979 
L 197.604996 99.234912 
L 199.494678 105.68959 
L 200.124573 105.68959 
L 200.754467 101.027878 
L 202.644149 63.375589 
L 203.274043 52.617792 
L 203.903938 44.370148 
L 204.533832 38.99125 
L 205.163726 34.688131 
L 205.79362 32.177978 
L 206.423514 33.253758 
L 207.053408 35.763911 
L 207.683302 42.218589 
L 209.572985 74.850572 
L 210.832773 86.684149 
L 211.462667 89.552895 
L 212.092562 95.648979 
L 212.722456 98.876318 
L 213.35235 101.386471 
L 213.982244 103.179437 
L 214.612138 105.330996 
L 215.242032 105.68959 
L 215.871927 101.027878 
L 217.761609 63.375589 
L 219.021397 44.370148 
L 219.651292 38.99125 
L 220.281186 34.688131 
L 220.91108 32.536571 
L 221.540974 33.612351 
L 222.170868 36.122504 
L 222.800762 42.935775 
L 224.690445 75.209165 
L 225.950233 86.325555 
L 226.580127 89.194301 
L 227.210022 95.290386 
L 227.839916 98.876318 
L 228.46981 101.386471 
L 229.729598 104.972403 
L 230.359492 105.330996 
L 230.989387 101.027878 
L 232.879069 63.375589 
L 234.138857 44.728741 
L 235.398646 34.688131 
L 236.02854 32.895165 
L 236.658434 33.612351 
L 237.288328 36.122504 
L 237.918222 42.935775 
L 239.807905 74.850572 
L 241.067693 85.966962 
L 241.697587 89.194301 
L 242.327481 95.290386 
L 242.957376 98.517725 
L 243.58727 101.027878 
L 244.217164 102.820844 
L 244.847058 104.972403 
L 245.476952 105.330996 
L 246.106846 101.027878 
L 247.996529 63.375589 
L 248.626423 52.976385 
L 249.256317 44.728741 
L 249.886211 38.99125 
L 250.516106 34.688131 
L 251.146 32.536571 
L 251.775894 33.253758 
L 252.405788 35.763911 
L 253.035682 42.218589 
L 254.925365 74.133386 
L 256.185153 85.608369 
L 256.815047 89.194301 
L 257.444941 95.290386 
L 258.074836 98.876318 
L 259.334624 102.820844 
L 259.964518 104.61381 
L 260.594412 105.330996 
L 261.224306 101.027878 
L 263.113989 63.734182 
L 263.743883 53.334979 
L 264.373777 45.087334 
L 265.003671 39.349843 
L 265.633566 35.046724 
L 266.26346 32.895165 
L 266.893354 33.612351 
L 267.523248 36.122504 
L 268.153142 42.935775 
L 270.042825 74.491979 
L 271.302613 85.966962 
L 271.932507 89.552895 
L 272.562401 95.648979 
L 273.192296 99.234912 
L 274.452084 103.179437 
L 275.081978 104.972403 
L 275.711872 105.330996 
L 276.341766 101.386471 
L 277.601555 75.209165 
L 278.861343 53.693572 
L 279.491237 45.445928 
L 280.121131 39.708436 
L 280.751025 35.405317 
L 281.38092 33.612351 
L 282.010814 33.970944 
L 282.640708 36.481097 
L 283.270602 43.652962 
L 284.53039 66.602928 
L 285.160285 74.491979 
L 286.420073 86.325555 
L 287.049967 89.552895 
L 287.679861 95.648979 
L 288.309755 98.876318 
L 290.199438 104.972403 
L 290.829332 105.330996 
L 291.459226 101.386471 
L 293.348909 64.092775 
L 294.608697 45.445928 
L 295.238591 39.708436 
L 295.868485 35.405317 
L 296.49838 33.612351 
L 297.128274 33.970944 
L 297.758168 36.122504 
L 298.388062 43.294368 
L 299.64785 66.602928 
L 300.277745 74.133386 
L 301.537533 85.966962 
L 302.167427 89.194301 
L 302.797321 95.290386 
L 303.427215 98.517725 
L 304.687004 103.179437 
L 305.316898 104.972403 
L 305.946792 104.972403 
L 306.576686 101.027878 
L 308.466369 63.734182 
L 309.726157 45.087334 
L 310.356051 39.349843 
L 310.985945 35.046724 
L 311.61584 33.253758 
L 312.245734 33.970944 
L 312.875628 36.122504 
L 313.505522 43.294368 
L 314.76531 66.602928 
L 315.395204 74.491979 
L 316.654993 85.966962 
L 317.284887 89.194301 
L 317.914781 95.290386 
L 318.544675 98.517725 
L 319.174569 101.027878 
L 320.434358 104.61381 
L 321.064252 104.972403 
L 321.694146 101.027878 
L 323.583829 63.734182 
L 324.843617 45.087334 
L 325.473511 39.349843 
L 326.103405 35.046724 
L 326.733299 33.253758 
L 327.363194 33.970944 
L 327.993088 36.481097 
L 328.622982 43.652962 
L 329.88277 66.244335 
L 330.512664 74.133386 
L 331.772453 85.966962 
L 332.402347 89.194301 
L 333.032241 95.290386 
L 333.662135 98.517725 
L 334.921924 103.179437 
L 335.551818 104.61381 
L 336.181712 104.972403 
L 336.811606 101.386471 
L 338.701289 63.734182 
L 339.961077 45.087334 
L 340.590971 39.349843 
L 341.220865 35.046724 
L 341.850759 33.253758 
L 342.480654 33.612351 
L 343.110548 36.122504 
L 343.740442 42.935775 
L 345.00023 65.885742 
L 345.630124 73.774793 
L 346.889913 85.608369 
L 347.519807 89.194301 
L 348.149701 94.931793 
L 348.779595 98.517725 
L 350.039383 103.179437 
L 350.669278 104.972403 
L 351.299172 105.330996 
L 351.929066 101.386471 
L 353.818748 63.375589 
L 354.448643 53.334979 
L 355.078537 45.087334 
L 355.708431 38.99125 
L 356.338325 34.688131 
L 356.968219 33.253758 
L 357.598113 33.612351 
L 358.228008 35.763911 
L 358.857902 42.935775 
L 360.11769 65.885742 
L 360.747584 73.774793 
L 362.007373 85.608369 
L 362.637267 88.835708 
L 363.267161 94.931793 
L 363.897055 98.517725 
L 365.156843 103.179437 
L 365.786738 104.972403 
L 366.416632 105.330996 
L 367.046526 101.745064 
L 368.936208 63.734182 
L 369.566103 53.693572 
L 370.195997 45.445928 
L 370.825891 39.349843 
L 371.455785 35.046724 
L 372.085679 33.612351 
L 372.715573 33.970944 
L 373.345468 36.122504 
L 373.975362 43.294368 
L 375.23515 66.602928 
L 375.865044 74.133386 
L 377.124833 85.966962 
L 377.754727 89.194301 
L 378.384621 95.290386 
L 379.014515 98.876318 
L 380.274303 103.53803 
L 380.904198 104.972403 
L 381.534092 105.330996 
L 382.163986 102.103657 
L 383.423774 75.567759 
L 384.053668 63.734182 
L 385.313457 45.445928 
L 385.943351 39.708436 
L 386.573245 35.405317 
L 387.203139 33.970944 
L 387.833033 33.970944 
L 388.462927 36.83969 
L 389.092822 44.370148 
L 390.35261 66.961521 
L 390.982504 74.491979 
L 392.242292 86.325555 
L 392.872187 89.552895 
L 393.502081 95.648979 
L 394.761869 101.745064 
L 396.021657 105.68959 
L 396.651552 106.048183 
L 397.281446 102.462251 
L 399.171128 64.092775 
L 400.430917 45.804521 
L 401.060811 40.425622 
L 401.690705 36.122504 
L 402.320599 34.329538 
L 402.950493 34.329538 
L 403.580387 37.198283 
L 404.210282 44.728741 
L 405.47007 67.678708 
L 406.099964 75.209165 
L 407.359752 86.684149 
L 407.989647 90.270081 
L 408.619541 96.007573 
L 409.249435 99.234912 
L 410.509223 104.255217 
L 411.139117 106.048183 
L 411.769012 106.406776 
L 412.398906 102.820844 
L 414.288588 64.092775 
L 415.548377 46.521707 
L 416.178271 40.784216 
L 416.808165 36.481097 
L 417.438059 35.046724 
L 418.067953 35.046724 
L 418.697847 37.91547 
L 419.327741 45.087334 
L 420.58753 68.037301 
L 421.217424 75.567759 
L 422.477212 87.401335 
L 423.107106 90.270081 
L 423.737001 96.007573 
L 424.996789 102.103657 
L 425.626683 104.61381 
L 426.256577 106.048183 
L 426.886471 106.765369 
L 427.516366 103.179437 
L 428.776154 76.643538 
L 429.406048 64.809962 
L 430.665836 46.880301 
L 431.295731 41.142809 
L 431.925625 36.83969 
L 432.555519 35.763911 
L 433.185413 36.122504 
L 433.815307 38.99125 
L 434.445201 46.163114 
L 435.70499 68.754487 
L 436.334884 76.643538 
L 437.594672 87.759928 
L 438.224566 90.628674 
L 438.854461 96.366166 
L 439.484355 99.952098 
L 440.744143 104.972403 
L 441.374037 106.406776 
L 442.003931 107.123963 
L 442.633826 103.53803 
L 443.893614 77.002132 
L 444.523508 65.168555 
L 445.783296 47.238894 
L 446.413191 41.859995 
L 447.043085 37.556877 
L 447.672979 36.122504 
L 448.302873 36.481097 
L 448.932767 39.708436 
L 449.562661 46.880301 
L 450.82245 69.471674 
L 451.452344 77.002132 
L 452.712132 88.477115 
L 453.342026 91.345861 
L 453.971921 97.083352 
L 455.861603 105.330996 
L 456.491497 107.123963 
L 457.121391 107.482556 
L 457.751285 104.255217 
L 459.011074 77.002132 
L 460.270862 55.486538 
L 460.900756 47.597487 
L 461.53065 42.218589 
L 462.160545 38.632656 
L 462.790439 37.198283 
L 463.420333 37.556877 
L 464.050227 40.784216 
L 464.680121 47.95608 
L 465.93991 70.547454 
L 466.569804 78.436504 
L 467.829592 89.194301 
L 468.459486 92.063047 
L 469.08938 97.441945 
L 469.719275 100.669285 
L 470.979063 105.68959 
L 471.608957 107.482556 
L 472.238851 107.841149 
L 472.868745 104.61381 
L 474.758428 65.885742 
L 475.388322 56.203724 
L 476.018216 48.314673 
L 476.64811 42.935775 
L 477.278005 39.349843 
L 477.907899 37.91547 
L 478.537793 38.632656 
L 479.167687 42.218589 
L 479.797581 49.390453 
L 481.05737 71.623233 
L 481.687264 79.512284 
L 482.947052 90.270081 
L 483.576946 92.780234 
L 484.20684 98.159132 
L 485.466629 103.896624 
L 486.726417 107.841149 
L 487.356311 108.558336 
L 487.986205 105.330996 
L 489.875888 66.602928 
L 490.505782 56.920911 
L 491.135676 49.03186 
L 491.76557 43.652962 
L 492.395464 40.067029 
L 493.025359 38.632656 
L 493.655253 38.99125 
L 494.285147 42.577182 
L 494.915041 50.10764 
L 496.174829 72.34042 
L 496.804724 80.229471 
L 498.064512 90.987267 
L 498.694406 93.49742 
L 499.3243 98.876318 
L 500.584089 104.61381 
L 501.843877 108.916929 
L 502.473771 108.916929 
L 503.103665 106.048183 
L 504.993348 66.961521 
L 506.253136 49.03186 
L 506.88303 44.011555 
L 507.512924 40.425622 
L 508.142819 38.632656 
L 508.772713 39.349843 
L 509.402607 42.935775 
L 510.032501 50.466233 
L 511.292289 73.057606 
L 511.922184 80.946657 
L 513.181972 92.063047 
L 513.811866 94.214606 
L 514.44176 99.593505 
L 515.701549 105.330996 
L 516.961337 109.634115 
L 517.591231 109.992708 
L 518.221125 106.765369 
L 520.110808 67.678708 
L 520.740702 57.996691 
L 521.370596 50.10764 
L 522.00049 44.728741 
L 522.630384 41.142809 
L 523.260279 39.349843 
L 523.890173 39.708436 
L 524.520067 43.652962 
L 525.149961 51.183419 
L 526.409749 74.133386 
L 527.039643 82.022437 
L 528.299432 92.780234 
L 528.299432 92.780234 
" style="fill:none;stroke:#1f77b4;stroke-linecap:square;stroke-width:1.5;"/>
   </g>
   <g id="line2d_16">
    <path clip-path="url(#p3e88ef9269)" d="M 60.288068 119.316132 
L 60.917962 117.881759 
L 62.177751 117.164573 
L 62.807645 117.164573 
L 63.437539 117.523166 
L 64.067433 117.523166 
L 64.697327 113.937234 
L 65.327221 112.144268 
L 65.957116 114.65442 
L 67.846798 125.412217 
L 69.736481 132.584082 
L 70.366375 133.659861 
L 70.996269 133.301268 
L 71.626163 134.018455 
L 72.885951 127.205183 
L 74.14574 121.109098 
L 74.775634 119.674726 
L 75.405528 119.316132 
L 76.035422 117.881759 
L 77.925105 116.80598 
L 79.184893 117.523166 
L 79.814787 113.937234 
L 80.444681 112.144268 
L 81.074576 114.65442 
L 82.964258 125.412217 
L 84.224046 130.791116 
L 84.853941 132.942675 
L 85.483835 134.018455 
L 86.113729 133.659861 
L 86.743623 134.377048 
L 87.373517 130.432522 
L 89.2632 121.467692 
L 89.893094 119.674726 
L 90.522988 119.316132 
L 91.152882 117.881759 
L 92.412671 117.164573 
L 93.042565 117.164573 
L 93.672459 117.523166 
L 94.302353 117.523166 
L 94.932247 113.937234 
L 95.562141 112.144268 
L 96.192036 114.295827 
L 97.451824 121.826285 
L 98.081718 125.412217 
L 99.341506 131.149709 
L 99.9714 132.942675 
L 100.601295 134.018455 
L 101.231189 133.659861 
L 101.861083 134.735641 
L 103.120871 127.205183 
L 104.38066 121.467692 
L 105.010554 120.033319 
L 105.640448 119.316132 
L 106.270342 118.240353 
L 106.900236 117.523166 
L 107.53013 117.164573 
L 108.160025 117.164573 
L 109.419813 117.881759 
L 110.049707 113.937234 
L 110.679601 112.144268 
L 111.309495 114.65442 
L 111.93939 118.598946 
L 114.458966 131.149709 
L 115.08886 132.942675 
L 115.718755 134.018455 
L 116.348649 133.659861 
L 116.978543 134.377048 
L 117.608437 130.432522 
L 118.868225 124.336437 
L 119.49812 121.826285 
L 120.128014 120.033319 
L 120.757908 119.674726 
L 121.387802 118.240353 
L 122.017696 117.523166 
L 122.64759 117.164573 
L 123.277485 117.164573 
L 124.537273 117.881759 
L 125.167167 114.295827 
L 125.797061 112.144268 
L 126.426955 114.295827 
L 127.686744 121.826285 
L 128.316638 125.412217 
L 129.576426 130.791116 
L 130.20632 132.942675 
L 130.836215 134.018455 
L 131.466109 133.301268 
L 132.096003 134.377048 
L 132.725897 130.432522 
L 133.985685 124.336437 
L 135.245474 120.391912 
L 135.875368 119.674726 
L 136.505262 118.240353 
L 137.76505 117.523166 
L 138.394944 117.523166 
L 139.654733 118.240353 
L 140.284627 114.65442 
L 140.914521 112.502861 
L 141.544415 114.65442 
L 143.434098 125.77081 
L 145.32378 132.942675 
L 145.953674 134.018455 
L 146.583569 133.659861 
L 147.213463 134.377048 
L 148.473251 127.563777 
L 149.103145 124.695031 
L 150.362934 120.391912 
L 150.992828 120.033319 
L 151.622722 118.598946 
L 152.252616 117.881759 
L 152.88251 117.523166 
L 153.512404 117.523166 
L 154.142299 118.240353 
L 154.772193 118.598946 
L 155.402087 114.65442 
L 156.031981 112.502861 
L 156.661875 114.295827 
L 157.921664 121.826285 
L 158.551558 125.412217 
L 160.44124 132.942675 
L 161.071134 134.018455 
L 161.701029 133.301268 
L 162.330923 134.018455 
L 163.590711 126.84659 
L 164.220605 124.336437 
L 164.850499 122.543471 
L 165.480394 120.391912 
L 166.110288 120.033319 
L 166.740182 118.598946 
L 167.370076 117.881759 
L 167.99997 117.523166 
L 168.629864 117.523166 
L 169.259759 118.598946 
L 169.889653 118.598946 
L 170.519547 114.65442 
L 171.149441 112.502861 
L 171.779335 114.295827 
L 173.669018 125.053624 
L 175.5587 132.225488 
L 176.188594 133.659861 
L 176.818488 133.301268 
L 177.448383 134.018455 
L 178.078277 130.073929 
L 178.708171 126.84659 
L 179.338065 124.336437 
L 179.967959 122.543471 
L 180.597853 120.391912 
L 181.227748 120.033319 
L 181.857642 118.598946 
L 182.487536 117.881759 
L 183.11743 117.523166 
L 183.747324 117.881759 
L 184.377218 118.598946 
L 185.007113 118.598946 
L 185.637007 114.65442 
L 186.266901 112.502861 
L 186.896795 114.295827 
L 188.786478 125.053624 
L 189.416372 127.205183 
L 190.046266 130.073929 
L 190.67616 132.225488 
L 191.306054 133.301268 
L 191.935948 132.942675 
L 192.565843 133.659861 
L 193.825631 126.84659 
L 194.455525 124.336437 
L 195.715313 120.750505 
L 196.345208 120.033319 
L 196.975102 118.598946 
L 197.604996 117.881759 
L 198.864784 117.881759 
L 199.494678 118.598946 
L 200.124573 118.598946 
L 200.754467 115.013014 
L 201.384361 112.502861 
L 202.014255 114.295827 
L 203.903938 125.053624 
L 205.79362 132.225488 
L 206.423514 133.301268 
L 207.053408 132.942675 
L 207.683302 133.659861 
L 208.943091 126.487997 
L 209.572985 123.977844 
L 210.202879 122.543471 
L 210.832773 120.391912 
L 211.462667 120.033319 
L 212.092562 118.598946 
L 212.722456 117.881759 
L 213.35235 117.523166 
L 213.982244 117.523166 
L 214.612138 118.240353 
L 215.242032 118.598946 
L 215.871927 115.013014 
L 216.501821 112.502861 
L 217.131715 113.937234 
L 219.021397 125.053624 
L 219.651292 127.205183 
L 220.281186 130.073929 
L 220.91108 131.866895 
L 221.540974 132.942675 
L 222.170868 132.942675 
L 222.800762 133.659861 
L 223.430657 129.715336 
L 224.060551 126.487997 
L 225.320339 122.543471 
L 225.950233 120.750505 
L 226.580127 120.391912 
L 227.210022 118.598946 
L 227.839916 117.881759 
L 228.46981 117.523166 
L 230.359492 118.598946 
L 230.989387 115.013014 
L 231.619281 112.502861 
L 232.249175 113.937234 
L 234.138857 125.053624 
L 234.768752 127.205183 
L 235.398646 130.073929 
L 236.02854 131.866895 
L 236.658434 132.942675 
L 237.288328 132.942675 
L 237.918222 133.659861 
L 239.178011 126.84659 
L 240.437799 122.543471 
L 241.067693 121.109098 
L 241.697587 120.391912 
L 242.327481 118.598946 
L 242.957376 117.881759 
L 243.58727 117.523166 
L 244.847058 118.240353 
L 245.476952 118.957539 
L 246.106846 115.013014 
L 246.736741 112.502861 
L 247.366635 113.937234 
L 249.256317 125.053624 
L 251.146 132.225488 
L 251.775894 133.301268 
L 252.405788 133.301268 
L 253.035682 134.018455 
L 254.295471 126.84659 
L 254.925365 124.336437 
L 256.185153 120.750505 
L 256.815047 120.391912 
L 257.444941 118.957539 
L 258.074836 117.881759 
L 258.70473 117.523166 
L 259.964518 118.240353 
L 260.594412 118.957539 
L 261.224306 115.371607 
L 261.854201 112.502861 
L 262.484095 113.937234 
L 264.373777 125.053624 
L 266.26346 132.225488 
L 266.893354 133.301268 
L 267.523248 133.301268 
L 268.153142 133.659861 
L 268.783036 129.715336 
L 269.412931 126.487997 
L 270.672719 122.543471 
L 271.302613 120.750505 
L 271.932507 120.391912 
L 272.562401 118.957539 
L 273.192296 118.240353 
L 273.82219 117.881759 
L 274.452084 117.881759 
L 275.081978 118.240353 
L 275.711872 118.957539 
L 276.341766 115.371607 
L 276.97166 112.502861 
L 277.601555 113.937234 
L 279.491237 125.053624 
L 281.38092 132.225488 
L 282.010814 133.301268 
L 282.640708 132.942675 
L 283.270602 133.659861 
L 284.53039 126.129404 
L 285.790179 122.184878 
L 286.420073 120.750505 
L 287.049967 120.033319 
L 287.679861 118.598946 
L 288.309755 117.881759 
L 288.93965 117.523166 
L 290.199438 118.240353 
L 290.829332 118.957539 
L 291.459226 115.013014 
L 292.08912 112.144268 
L 292.719015 113.578641 
L 294.608697 124.695031 
L 296.49838 132.225488 
L 297.128274 133.301268 
L 297.758168 132.942675 
L 298.388062 133.659861 
L 299.64785 126.129404 
L 300.907639 122.184878 
L 301.537533 120.750505 
L 302.167427 120.033319 
L 302.797321 118.598946 
L 303.427215 117.881759 
L 304.05711 117.523166 
L 305.946792 118.598946 
L 306.576686 115.013014 
L 307.20658 112.144268 
L 307.836475 113.220047 
L 309.726157 124.695031 
L 311.61584 131.866895 
L 312.245734 132.942675 
L 313.505522 132.942675 
L 314.76531 125.77081 
L 316.025099 121.826285 
L 316.654993 120.391912 
L 317.284887 120.033319 
L 317.914781 118.598946 
L 318.544675 117.881759 
L 319.174569 117.523166 
L 319.804464 117.523166 
L 320.434358 118.240353 
L 321.064252 118.598946 
L 322.32404 111.785675 
L 322.953934 113.220047 
L 324.843617 124.336437 
L 326.733299 131.866895 
L 327.363194 132.584082 
L 328.622982 132.584082 
L 329.252876 128.998149 
L 329.88277 126.129404 
L 331.142559 121.826285 
L 331.772453 120.391912 
L 332.402347 120.033319 
L 333.032241 118.957539 
L 333.662135 118.240353 
L 334.292029 117.881759 
L 334.921924 117.881759 
L 335.551818 118.598946 
L 336.181712 118.957539 
L 337.4415 112.144268 
L 338.071394 113.220047 
L 339.331183 120.750505 
L 339.961077 124.695031 
L 341.850759 131.866895 
L 342.480654 132.942675 
L 343.740442 132.942675 
L 344.370336 128.998149 
L 345.00023 126.129404 
L 346.260019 121.826285 
L 346.889913 120.391912 
L 347.519807 120.033319 
L 348.149701 118.957539 
L 349.409489 118.240353 
L 350.039383 118.240353 
L 350.669278 118.598946 
L 351.299172 119.316132 
L 351.929066 115.371607 
L 352.55896 112.144268 
L 353.188854 113.578641 
L 354.448643 120.750505 
L 355.078537 125.053624 
L 356.338325 129.715336 
L 356.968219 132.225488 
L 357.598113 133.301268 
L 358.228008 133.301268 
L 358.857902 132.942675 
L 360.11769 126.129404 
L 361.377478 121.826285 
L 362.007373 120.750505 
L 362.637267 120.391912 
L 363.267161 119.316132 
L 363.897055 118.598946 
L 364.526949 118.240353 
L 365.156843 118.240353 
L 365.786738 118.598946 
L 366.416632 119.316132 
L 367.046526 115.371607 
L 367.67642 112.502861 
L 368.306314 113.578641 
L 370.195997 124.695031 
L 372.085679 131.866895 
L 372.715573 132.942675 
L 373.975362 132.942675 
L 374.605256 128.998149 
L 375.23515 126.129404 
L 376.494938 121.826285 
L 377.124833 120.750505 
L 377.754727 120.750505 
L 378.384621 119.316132 
L 379.644409 118.598946 
L 380.274303 118.598946 
L 381.534092 119.316132 
L 382.79388 112.861454 
L 383.423774 113.937234 
L 385.313457 125.053624 
L 387.203139 132.225488 
L 387.833033 133.301268 
L 389.092822 133.301268 
L 389.722716 129.715336 
L 390.35261 126.84659 
L 391.612398 122.184878 
L 392.242292 121.467692 
L 392.872187 121.109098 
L 393.502081 120.033319 
L 394.761869 119.316132 
L 395.391763 119.316132 
L 396.651552 120.033319 
L 397.91134 113.220047 
L 398.541234 114.65442 
L 399.171128 117.881759 
L 400.430917 125.77081 
L 401.060811 127.92237 
L 401.690705 130.791116 
L 402.320599 132.584082 
L 402.950493 133.659861 
L 404.210282 133.659861 
L 404.840176 130.073929 
L 405.47007 127.205183 
L 406.729858 122.543471 
L 407.359752 121.826285 
L 407.989647 121.826285 
L 408.619541 120.391912 
L 409.879329 119.674726 
L 410.509223 119.674726 
L 411.769012 120.391912 
L 413.0288 113.578641 
L 413.658694 115.013014 
L 414.918482 121.467692 
L 415.548377 125.77081 
L 416.178271 127.92237 
L 416.808165 130.791116 
L 417.438059 132.584082 
L 418.067953 133.659861 
L 419.327741 133.659861 
L 419.957636 129.715336 
L 421.847318 122.543471 
L 422.477212 121.826285 
L 423.107106 121.826285 
L 423.737001 120.391912 
L 424.366895 120.391912 
L 424.996789 120.033319 
L 425.626683 120.033319 
L 426.886471 120.750505 
L 428.14626 114.295827 
L 428.776154 115.371607 
L 429.406048 118.240353 
L 430.665836 125.77081 
L 431.295731 127.92237 
L 431.925625 130.791116 
L 432.555519 132.584082 
L 433.185413 133.659861 
L 434.445201 133.659861 
L 435.075096 130.073929 
L 436.964778 122.902065 
L 437.594672 122.184878 
L 438.224566 122.184878 
L 438.854461 121.109098 
L 440.114249 120.391912 
L 440.744143 120.750505 
L 441.374037 120.750505 
L 442.003931 121.109098 
L 443.26372 114.65442 
L 443.893614 115.7302 
L 445.153402 121.826285 
L 445.783296 126.129404 
L 447.672979 132.584082 
L 448.302873 134.018455 
L 448.932767 133.659861 
L 449.562661 133.659861 
L 450.192556 130.073929 
L 452.082238 122.902065 
L 453.342026 122.184878 
L 453.971921 121.109098 
L 454.601815 121.109098 
L 455.231709 120.750505 
L 455.861603 121.109098 
L 456.491497 121.109098 
L 457.121391 121.826285 
L 458.38118 115.013014 
L 459.011074 116.088793 
L 459.640968 118.598946 
L 460.270862 122.184878 
L 460.900756 126.487997 
L 461.53065 128.280963 
L 462.160545 130.791116 
L 462.790439 132.584082 
L 463.420333 134.018455 
L 464.050227 133.659861 
L 464.680121 133.659861 
L 465.310015 130.073929 
L 466.569804 125.412217 
L 467.199698 123.260658 
L 467.829592 122.543471 
L 468.459486 122.543471 
L 469.08938 121.467692 
L 470.979063 121.467692 
L 472.238851 122.184878 
L 473.49864 116.088793 
L 474.128534 116.80598 
L 474.758428 119.316132 
L 475.388322 122.543471 
L 476.018216 126.487997 
L 477.907899 132.942675 
L 478.537793 134.018455 
L 479.167687 134.018455 
L 479.797581 133.659861 
L 480.427475 130.432522 
L 481.687264 125.77081 
L 482.317158 123.619251 
L 482.947052 122.902065 
L 483.576946 122.902065 
L 484.20684 121.826285 
L 486.096523 121.826285 
L 486.726417 122.543471 
L 487.356311 122.902065 
L 488.6161 116.447386 
L 489.245994 117.164573 
L 489.875888 119.674726 
L 490.505782 122.902065 
L 491.135676 126.84659 
L 493.025359 132.942675 
L 493.655253 134.377048 
L 494.915041 134.377048 
L 495.544935 131.149709 
L 496.804724 126.487997 
L 497.434618 124.695031 
L 498.064512 123.619251 
L 498.694406 123.619251 
L 499.3243 122.902065 
L 499.954194 122.543471 
L 500.584089 122.902065 
L 501.213983 122.902065 
L 502.473771 123.619251 
L 503.733559 117.523166 
L 504.363454 117.881759 
L 504.993348 120.033319 
L 505.623242 123.260658 
L 506.253136 127.563777 
L 506.88303 129.356743 
L 507.512924 131.866895 
L 508.142819 133.659861 
L 508.772713 135.094234 
L 510.032501 135.094234 
L 510.662395 131.866895 
L 512.552078 125.412217 
L 513.181972 124.695031 
L 513.811866 124.695031 
L 514.44176 123.619251 
L 516.331443 123.619251 
L 516.961337 124.336437 
L 517.591231 124.695031 
L 518.221125 121.826285 
L 518.851019 118.240353 
L 519.480914 118.598946 
L 520.110808 120.750505 
L 521.370596 127.563777 
L 523.890173 135.811421 
L 524.520067 135.452827 
L 525.149961 135.452827 
L 525.779855 132.225488 
L 527.669538 126.129404 
L 528.299432 125.053624 
L 528.299432 125.053624 
" style="fill:none;stroke:#ff7f0e;stroke-linecap:square;stroke-width:1.5;"/>
   </g>
   <g id="line2d_17">
    <path clip-path="url(#p3e88ef9269)" d="M 60.288068 369.614204 
L 528.299432 369.614204 
L 528.299432 369.614204 
" style="fill:none;stroke:#2ca02c;stroke-linecap:square;stroke-width:1.5;"/>
   </g>
   <g id="patch_3">
    <path d="M 36.8875 386.521875 
L 36.8875 14.553121 
" style="fill:none;stroke:#000000;stroke-linecap:square;stroke-linejoin:miter;stroke-width:0.8;"/>
   </g>
   <g id="patch_4">
    <path d="M 551.7 386.521875 
L 551.7 14.553121 
" style="fill:none;stroke:#000000;stroke-linecap:square;stroke-linejoin:miter;stroke-width:0.8;"/>
   </g>
   <g id="patch_5">
    <path d="M 36.8875 386.521875 
L 551.7 386.521875 
" style="fill:none;stroke:#000000;stroke-linecap:square;stroke-linejoin:miter;stroke-width:0.8;"/>
   </g>
   <g id="patch_6">
    <path d="M 36.8875 14.553121 
L 551.7 14.553121 
" style="fill:none;stroke:#000000;stroke-linecap:square;stroke-linejoin:miter;stroke-width:0.8;"/>
   </g>
   <g id="legend_1">
    <g id="patch_7">
     <path d="M 408.704687 224.054686 
L 544.7 224.054686 
Q 546.7 224.054686 546.7 222.054686 
L 546.7 179.020311 
Q 546.7 177.020311 544.7 177.020311 
L 408.704687 177.020311 
Q 406.704687 177.020311 406.704687 179.020311 
L 406.704687 222.054686 
Q 406.704687 224.054686 408.704687 224.054686 
z
" style="fill:#ffffff;opacity:0.8;stroke:#cccccc;stroke-linejoin:miter;"/>
    </g>
    <g id="line2d_18">
     <path d="M 410.704687 185.118748 
L 430.704687 185.118748 
" style="fill:none;stroke:#1f77b4;stroke-linecap:square;stroke-width:1.5;"/>
    </g>
    <g id="line2d_19"/>
    <g id="text_15">
     <!-- Temperature (deg F) -->
     <defs>
      <path d="M -0.296875 72.90625 
L 61.375 72.90625 
L 61.375 64.59375 
L 35.5 64.59375 
L 35.5 0 
L 25.59375 0 
L 25.59375 64.59375 
L -0.296875 64.59375 
z
" id="DejaVuSans-54"/>
      <path d="M 56.203125 29.59375 
L 56.203125 25.203125 
L 14.890625 25.203125 
Q 15.484375 15.921875 20.484375 11.0625 
Q 25.484375 6.203125 34.421875 6.203125 
Q 39.59375 6.203125 44.453125 7.46875 
Q 49.3125 8.734375 54.109375 11.28125 
L 54.109375 2.78125 
Q 49.265625 0.734375 44.1875 -0.34375 
Q 39.109375 -1.421875 33.890625 -1.421875 
Q 20.796875 -1.421875 13.15625 6.1875 
Q 5.515625 13.8125 5.515625 26.8125 
Q 5.515625 40.234375 12.765625 48.109375 
Q 20.015625 56 32.328125 56 
Q 43.359375 56 49.78125 48.890625 
Q 56.203125 41.796875 56.203125 29.59375 
z
M 47.21875 32.234375 
Q 47.125 39.59375 43.09375 43.984375 
Q 39.0625 48.390625 32.421875 48.390625 
Q 24.90625 48.390625 20.390625 44.140625 
Q 15.875 39.890625 15.1875 32.171875 
z
" id="DejaVuSans-65"/>
      <path d="M 52 44.1875 
Q 55.375 50.25 60.0625 53.125 
Q 64.75 56 71.09375 56 
Q 79.640625 56 84.28125 50.015625 
Q 88.921875 44.046875 88.921875 33.015625 
L 88.921875 0 
L 79.890625 0 
L 79.890625 32.71875 
Q 79.890625 40.578125 77.09375 44.375 
Q 74.3125 48.1875 68.609375 48.1875 
Q 61.625 48.1875 57.5625 43.546875 
Q 53.515625 38.921875 53.515625 30.90625 
L 53.515625 0 
L 44.484375 0 
L 44.484375 32.71875 
Q 44.484375 40.625 41.703125 44.40625 
Q 38.921875 48.1875 33.109375 48.1875 
Q 26.21875 48.1875 22.15625 43.53125 
Q 18.109375 38.875 18.109375 30.90625 
L 18.109375 0 
L 9.078125 0 
L 9.078125 54.6875 
L 18.109375 54.6875 
L 18.109375 46.1875 
Q 21.1875 51.21875 25.484375 53.609375 
Q 29.78125 56 35.6875 56 
Q 41.65625 56 45.828125 52.96875 
Q 50 49.953125 52 44.1875 
z
" id="DejaVuSans-6d"/>
      <path d="M 18.109375 8.203125 
L 18.109375 -20.796875 
L 9.078125 -20.796875 
L 9.078125 54.6875 
L 18.109375 54.6875 
L 18.109375 46.390625 
Q 20.953125 51.265625 25.265625 53.625 
Q 29.59375 56 35.59375 56 
Q 45.5625 56 51.78125 48.09375 
Q 58.015625 40.1875 58.015625 27.296875 
Q 58.015625 14.40625 51.78125 6.484375 
Q 45.5625 -1.421875 35.59375 -1.421875 
Q 29.59375 -1.421875 25.265625 0.953125 
Q 20.953125 3.328125 18.109375 8.203125 
z
M 48.6875 27.296875 
Q 48.6875 37.203125 44.609375 42.84375 
Q 40.53125 48.484375 33.40625 48.484375 
Q 26.265625 48.484375 22.1875 42.84375 
Q 18.109375 37.203125 18.109375 27.296875 
Q 18.109375 17.390625 22.1875 11.75 
Q 26.265625 6.109375 33.40625 6.109375 
Q 40.53125 6.109375 44.609375 11.75 
Q 48.6875 17.390625 48.6875 27.296875 
z
" id="DejaVuSans-70"/>
      <path d="M 41.109375 46.296875 
Q 39.59375 47.171875 37.8125 47.578125 
Q 36.03125 48 33.890625 48 
Q 26.265625 48 22.1875 43.046875 
Q 18.109375 38.09375 18.109375 28.8125 
L 18.109375 0 
L 9.078125 0 
L 9.078125 54.6875 
L 18.109375 54.6875 
L 18.109375 46.1875 
Q 20.953125 51.171875 25.484375 53.578125 
Q 30.03125 56 36.53125 56 
Q 37.453125 56 38.578125 55.875 
Q 39.703125 55.765625 41.0625 55.515625 
z
" id="DejaVuSans-72"/>
      <path d="M 34.28125 27.484375 
Q 23.390625 27.484375 19.1875 25 
Q 14.984375 22.515625 14.984375 16.5 
Q 14.984375 11.71875 18.140625 8.90625 
Q 21.296875 6.109375 26.703125 6.109375 
Q 34.1875 6.109375 38.703125 11.40625 
Q 43.21875 16.703125 43.21875 25.484375 
L 43.21875 27.484375 
z
M 52.203125 31.203125 
L 52.203125 0 
L 43.21875 0 
L 43.21875 8.296875 
Q 40.140625 3.328125 35.546875 0.953125 
Q 30.953125 -1.421875 24.3125 -1.421875 
Q 15.921875 -1.421875 10.953125 3.296875 
Q 6 8.015625 6 15.921875 
Q 6 25.140625 12.171875 29.828125 
Q 18.359375 34.515625 30.609375 34.515625 
L 43.21875 34.515625 
L 43.21875 35.40625 
Q 43.21875 41.609375 39.140625 45 
Q 35.0625 48.390625 27.6875 48.390625 
Q 23 48.390625 18.546875 47.265625 
Q 14.109375 46.140625 10.015625 43.890625 
L 10.015625 52.203125 
Q 14.9375 54.109375 19.578125 55.046875 
Q 24.21875 56 28.609375 56 
Q 40.484375 56 46.34375 49.84375 
Q 52.203125 43.703125 52.203125 31.203125 
z
" id="DejaVuSans-61"/>
      <path d="M 18.3125 70.21875 
L 18.3125 54.6875 
L 36.8125 54.6875 
L 36.8125 47.703125 
L 18.3125 47.703125 
L 18.3125 18.015625 
Q 18.3125 11.328125 20.140625 9.421875 
Q 21.96875 7.515625 27.59375 7.515625 
L 36.8125 7.515625 
L 36.8125 0 
L 27.59375 0 
Q 17.1875 0 13.234375 3.875 
Q 9.28125 7.765625 9.28125 18.015625 
L 9.28125 47.703125 
L 2.6875 47.703125 
L 2.6875 54.6875 
L 9.28125 54.6875 
L 9.28125 70.21875 
z
" id="DejaVuSans-74"/>
      <path d="M 8.5 21.578125 
L 8.5 54.6875 
L 17.484375 54.6875 
L 17.484375 21.921875 
Q 17.484375 14.15625 20.5 10.265625 
Q 23.53125 6.390625 29.59375 6.390625 
Q 36.859375 6.390625 41.078125 11.03125 
Q 45.3125 15.671875 45.3125 23.6875 
L 45.3125 54.6875 
L 54.296875 54.6875 
L 54.296875 0 
L 45.3125 0 
L 45.3125 8.40625 
Q 42.046875 3.421875 37.71875 1 
Q 33.40625 -1.421875 27.6875 -1.421875 
Q 18.265625 -1.421875 13.375 4.4375 
Q 8.5 10.296875 8.5 21.578125 
z
M 31.109375 56 
z
" id="DejaVuSans-75"/>
      <path id="DejaVuSans-20"/>
      <path d="M 31 75.875 
Q 24.46875 64.65625 21.28125 53.65625 
Q 18.109375 42.671875 18.109375 31.390625 
Q 18.109375 20.125 21.3125 9.0625 
Q 24.515625 -2 31 -13.1875 
L 23.1875 -13.1875 
Q 15.875 -1.703125 12.234375 9.375 
Q 8.59375 20.453125 8.59375 31.390625 
Q 8.59375 42.28125 12.203125 53.3125 
Q 15.828125 64.359375 23.1875 75.875 
z
" id="DejaVuSans-28"/>
      <path d="M 45.40625 46.390625 
L 45.40625 75.984375 
L 54.390625 75.984375 
L 54.390625 0 
L 45.40625 0 
L 45.40625 8.203125 
Q 42.578125 3.328125 38.25 0.953125 
Q 33.9375 -1.421875 27.875 -1.421875 
Q 17.96875 -1.421875 11.734375 6.484375 
Q 5.515625 14.40625 5.515625 27.296875 
Q 5.515625 40.1875 11.734375 48.09375 
Q 17.96875 56 27.875 56 
Q 33.9375 56 38.25 53.625 
Q 42.578125 51.265625 45.40625 46.390625 
z
M 14.796875 27.296875 
Q 14.796875 17.390625 18.875 11.75 
Q 22.953125 6.109375 30.078125 6.109375 
Q 37.203125 6.109375 41.296875 11.75 
Q 45.40625 17.390625 45.40625 27.296875 
Q 45.40625 37.203125 41.296875 42.84375 
Q 37.203125 48.484375 30.078125 48.484375 
Q 22.953125 48.484375 18.875 42.84375 
Q 14.796875 37.203125 14.796875 27.296875 
z
" id="DejaVuSans-64"/>
      <path d="M 45.40625 27.984375 
Q 45.40625 37.75 41.375 43.109375 
Q 37.359375 48.484375 30.078125 48.484375 
Q 22.859375 48.484375 18.828125 43.109375 
Q 14.796875 37.75 14.796875 27.984375 
Q 14.796875 18.265625 18.828125 12.890625 
Q 22.859375 7.515625 30.078125 7.515625 
Q 37.359375 7.515625 41.375 12.890625 
Q 45.40625 18.265625 45.40625 27.984375 
z
M 54.390625 6.78125 
Q 54.390625 -7.171875 48.1875 -13.984375 
Q 42 -20.796875 29.203125 -20.796875 
Q 24.46875 -20.796875 20.265625 -20.09375 
Q 16.0625 -19.390625 12.109375 -17.921875 
L 12.109375 -9.1875 
Q 16.0625 -11.328125 19.921875 -12.34375 
Q 23.78125 -13.375 27.78125 -13.375 
Q 36.625 -13.375 41.015625 -8.765625 
Q 45.40625 -4.15625 45.40625 5.171875 
L 45.40625 9.625 
Q 42.625 4.78125 38.28125 2.390625 
Q 33.9375 0 27.875 0 
Q 17.828125 0 11.671875 7.65625 
Q 5.515625 15.328125 5.515625 27.984375 
Q 5.515625 40.671875 11.671875 48.328125 
Q 17.828125 56 27.875 56 
Q 33.9375 56 38.28125 53.609375 
Q 42.625 51.21875 45.40625 46.390625 
L 45.40625 54.6875 
L 54.390625 54.6875 
z
" id="DejaVuSans-67"/>
      <path d="M 9.8125 72.90625 
L 51.703125 72.90625 
L 51.703125 64.59375 
L 19.671875 64.59375 
L 19.671875 43.109375 
L 48.578125 43.109375 
L 48.578125 34.8125 
L 19.671875 34.8125 
L 19.671875 0 
L 9.8125 0 
z
" id="DejaVuSans-46"/>
      <path d="M 8.015625 75.875 
L 15.828125 75.875 
Q 23.140625 64.359375 26.78125 53.3125 
Q 30.421875 42.28125 30.421875 31.390625 
Q 30.421875 20.453125 26.78125 9.375 
Q 23.140625 -1.703125 15.828125 -13.1875 
L 8.015625 -13.1875 
Q 14.5 -2 17.703125 9.0625 
Q 20.90625 20.125 20.90625 31.390625 
Q 20.90625 42.671875 17.703125 53.65625 
Q 14.5 64.65625 8.015625 75.875 
z
" id="DejaVuSans-29"/>
     </defs>
     <g transform="translate(438.704687 188.618748)scale(0.1 -0.1)">
      <use xlink:href="#DejaVuSans-54"/>
      <use x="60.818359" xlink:href="#DejaVuSans-65"/>
      <use x="122.341797" xlink:href="#DejaVuSans-6d"/>
      <use x="219.753906" xlink:href="#DejaVuSans-70"/>
      <use x="283.230469" xlink:href="#DejaVuSans-65"/>
      <use x="344.753906" xlink:href="#DejaVuSans-72"/>
      <use x="385.867188" xlink:href="#DejaVuSans-61"/>
      <use x="447.146484" xlink:href="#DejaVuSans-74"/>
      <use x="486.355469" xlink:href="#DejaVuSans-75"/>
      <use x="549.734375" xlink:href="#DejaVuSans-72"/>
      <use x="590.816406" xlink:href="#DejaVuSans-65"/>
      <use x="652.339844" xlink:href="#DejaVuSans-20"/>
      <use x="684.126953" xlink:href="#DejaVuSans-28"/>
      <use x="723.140625" xlink:href="#DejaVuSans-64"/>
      <use x="786.617188" xlink:href="#DejaVuSans-65"/>
      <use x="848.140625" xlink:href="#DejaVuSans-67"/>
      <use x="911.617188" xlink:href="#DejaVuSans-20"/>
      <use x="943.404297" xlink:href="#DejaVuSans-46"/>
      <use x="1000.923828" xlink:href="#DejaVuSans-29"/>
     </g>
    </g>
    <g id="line2d_20">
     <path d="M 410.704687 199.796873 
L 430.704687 199.796873 
" style="fill:none;stroke:#ff7f0e;stroke-linecap:square;stroke-width:1.5;"/>
    </g>
    <g id="line2d_21"/>
    <g id="text_16">
     <!-- Dew Point (deg F) -->
     <defs>
      <path d="M 19.671875 64.796875 
L 19.671875 8.109375 
L 31.59375 8.109375 
Q 46.6875 8.109375 53.6875 14.9375 
Q 60.6875 21.78125 60.6875 36.53125 
Q 60.6875 51.171875 53.6875 57.984375 
Q 46.6875 64.796875 31.59375 64.796875 
z
M 9.8125 72.90625 
L 30.078125 72.90625 
Q 51.265625 72.90625 61.171875 64.09375 
Q 71.09375 55.28125 71.09375 36.53125 
Q 71.09375 17.671875 61.125 8.828125 
Q 51.171875 0 30.078125 0 
L 9.8125 0 
z
" id="DejaVuSans-44"/>
      <path d="M 4.203125 54.6875 
L 13.1875 54.6875 
L 24.421875 12.015625 
L 35.59375 54.6875 
L 46.1875 54.6875 
L 57.421875 12.015625 
L 68.609375 54.6875 
L 77.59375 54.6875 
L 63.28125 0 
L 52.6875 0 
L 40.921875 44.828125 
L 29.109375 0 
L 18.5 0 
z
" id="DejaVuSans-77"/>
      <path d="M 19.671875 64.796875 
L 19.671875 37.40625 
L 32.078125 37.40625 
Q 38.96875 37.40625 42.71875 40.96875 
Q 46.484375 44.53125 46.484375 51.125 
Q 46.484375 57.671875 42.71875 61.234375 
Q 38.96875 64.796875 32.078125 64.796875 
z
M 9.8125 72.90625 
L 32.078125 72.90625 
Q 44.34375 72.90625 50.609375 67.359375 
Q 56.890625 61.8125 56.890625 51.125 
Q 56.890625 40.328125 50.609375 34.8125 
Q 44.34375 29.296875 32.078125 29.296875 
L 19.671875 29.296875 
L 19.671875 0 
L 9.8125 0 
z
" id="DejaVuSans-50"/>
      <path d="M 30.609375 48.390625 
Q 23.390625 48.390625 19.1875 42.75 
Q 14.984375 37.109375 14.984375 27.296875 
Q 14.984375 17.484375 19.15625 11.84375 
Q 23.34375 6.203125 30.609375 6.203125 
Q 37.796875 6.203125 41.984375 11.859375 
Q 46.1875 17.53125 46.1875 27.296875 
Q 46.1875 37.015625 41.984375 42.703125 
Q 37.796875 48.390625 30.609375 48.390625 
z
M 30.609375 56 
Q 42.328125 56 49.015625 48.375 
Q 55.71875 40.765625 55.71875 27.296875 
Q 55.71875 13.875 49.015625 6.21875 
Q 42.328125 -1.421875 30.609375 -1.421875 
Q 18.84375 -1.421875 12.171875 6.21875 
Q 5.515625 13.875 5.515625 27.296875 
Q 5.515625 40.765625 12.171875 48.375 
Q 18.84375 56 30.609375 56 
z
" id="DejaVuSans-6f"/>
      <path d="M 9.421875 54.6875 
L 18.40625 54.6875 
L 18.40625 0 
L 9.421875 0 
z
M 9.421875 75.984375 
L 18.40625 75.984375 
L 18.40625 64.59375 
L 9.421875 64.59375 
z
" id="DejaVuSans-69"/>
      <path d="M 54.890625 33.015625 
L 54.890625 0 
L 45.90625 0 
L 45.90625 32.71875 
Q 45.90625 40.484375 42.875 44.328125 
Q 39.84375 48.1875 33.796875 48.1875 
Q 26.515625 48.1875 22.3125 43.546875 
Q 18.109375 38.921875 18.109375 30.90625 
L 18.109375 0 
L 9.078125 0 
L 9.078125 54.6875 
L 18.109375 54.6875 
L 18.109375 46.1875 
Q 21.34375 51.125 25.703125 53.5625 
Q 30.078125 56 35.796875 56 
Q 45.21875 56 50.046875 50.171875 
Q 54.890625 44.34375 54.890625 33.015625 
z
" id="DejaVuSans-6e"/>
     </defs>
     <g transform="translate(438.704687 203.296873)scale(0.1 -0.1)">
      <use xlink:href="#DejaVuSans-44"/>
      <use x="77.001953" xlink:href="#DejaVuSans-65"/>
      <use x="138.525391" xlink:href="#DejaVuSans-77"/>
      <use x="220.3125" xlink:href="#DejaVuSans-20"/>
      <use x="252.099609" xlink:href="#DejaVuSans-50"/>
      <use x="312.355469" xlink:href="#DejaVuSans-6f"/>
      <use x="373.537109" xlink:href="#DejaVuSans-69"/>
      <use x="401.320312" xlink:href="#DejaVuSans-6e"/>
      <use x="464.699219" xlink:href="#DejaVuSans-74"/>
      <use x="503.908203" xlink:href="#DejaVuSans-20"/>
      <use x="535.695312" xlink:href="#DejaVuSans-28"/>
      <use x="574.708984" xlink:href="#DejaVuSans-64"/>
      <use x="638.185547" xlink:href="#DejaVuSans-65"/>
      <use x="699.708984" xlink:href="#DejaVuSans-67"/>
      <use x="763.185547" xlink:href="#DejaVuSans-20"/>
      <use x="794.972656" xlink:href="#DejaVuSans-46"/>
      <use x="852.492188" xlink:href="#DejaVuSans-29"/>
     </g>
    </g>
    <g id="line2d_22">
     <path d="M 410.704687 214.474998 
L 430.704687 214.474998 
" style="fill:none;stroke:#2ca02c;stroke-linecap:square;stroke-width:1.5;"/>
    </g>
    <g id="line2d_23"/>
    <g id="text_17">
     <!-- Pressure (atm) -->
     <defs>
      <path d="M 44.28125 53.078125 
L 44.28125 44.578125 
Q 40.484375 46.53125 36.375 47.5 
Q 32.28125 48.484375 27.875 48.484375 
Q 21.1875 48.484375 17.84375 46.4375 
Q 14.5 44.390625 14.5 40.28125 
Q 14.5 37.15625 16.890625 35.375 
Q 19.28125 33.59375 26.515625 31.984375 
L 29.59375 31.296875 
Q 39.15625 29.25 43.1875 25.515625 
Q 47.21875 21.78125 47.21875 15.09375 
Q 47.21875 7.46875 41.1875 3.015625 
Q 35.15625 -1.421875 24.609375 -1.421875 
Q 20.21875 -1.421875 15.453125 -0.5625 
Q 10.6875 0.296875 5.421875 2 
L 5.421875 11.28125 
Q 10.40625 8.6875 15.234375 7.390625 
Q 20.0625 6.109375 24.8125 6.109375 
Q 31.15625 6.109375 34.5625 8.28125 
Q 37.984375 10.453125 37.984375 14.40625 
Q 37.984375 18.0625 35.515625 20.015625 
Q 33.0625 21.96875 24.703125 23.78125 
L 21.578125 24.515625 
Q 13.234375 26.265625 9.515625 29.90625 
Q 5.8125 33.546875 5.8125 39.890625 
Q 5.8125 47.609375 11.28125 51.796875 
Q 16.75 56 26.8125 56 
Q 31.78125 56 36.171875 55.265625 
Q 40.578125 54.546875 44.28125 53.078125 
z
" id="DejaVuSans-73"/>
     </defs>
     <g transform="translate(438.704687 217.974998)scale(0.1 -0.1)">
      <use xlink:href="#DejaVuSans-50"/>
      <use x="60.287109" xlink:href="#DejaVuSans-72"/>
      <use x="101.369141" xlink:href="#DejaVuSans-65"/>
      <use x="162.892578" xlink:href="#DejaVuSans-73"/>
      <use x="214.992188" xlink:href="#DejaVuSans-73"/>
      <use x="267.091797" xlink:href="#DejaVuSans-75"/>
      <use x="330.470703" xlink:href="#DejaVuSans-72"/>
      <use x="371.552734" xlink:href="#DejaVuSans-65"/>
      <use x="433.076172" xlink:href="#DejaVuSans-20"/>
      <use x="464.863281" xlink:href="#DejaVuSans-28"/>
      <use x="503.876953" xlink:href="#DejaVuSans-61"/>
      <use x="565.15625" xlink:href="#DejaVuSans-74"/>
      <use x="604.365234" xlink:href="#DejaVuSans-6d"/>
      <use x="701.777344" xlink:href="#DejaVuSans-29"/>
     </g>
    </g>
   </g>
  </g>
 </g>
 <defs>
  <clipPath id="p3e88ef9269">
   <rect height="371.968754" width="514.8125" x="36.8875" y="14.553121"/>
  </clipPath>
 </defs>
</svg>
