<?xml version="1.0" encoding="utf-8" standalone="no"?>
<!DOCTYPE svg PUBLIC "-//W3C//DTD SVG 1.1//EN"
  "http://www.w3.org/Graphics/SVG/1.1/DTD/svg11.dtd">
<!-- Created with matplotlib (http://matplotlib.org/) -->
<svg height="414pt" version="1.1" viewBox="0 0 569 414" width="569pt" xmlns="http://www.w3.org/2000/svg" xmlns:xlink="http://www.w3.org/1999/xlink">
 <defs>
  <style type="text/css">
*{stroke-linecap:butt;stroke-linejoin:round;}
  </style>
 </defs>
 <g id="figure_1">
  <g id="patch_1">
   <path d="M 0 414 
L 569 414 
L 569 0 
L 0 0 
z
" style="fill:#ffffff;"/>
  </g>
  <g id="axes_1">
   <g id="patch_2">
    <path d="M 36.8875 386.521875 
L 554.7 386.521875 
L 554.7 14.3 
L 36.8875 14.3 
z
" style="fill:#ffffff;"/>
   </g>
   <g id="matplotlib.axis_1">
    <g id="xtick_1">
     <g id="line2d_1">
      <defs>
       <path d="M 0 0 
L 0 3.5 
" id="m68e3b12cad" style="stroke:#000000;stroke-width:0.8;"/>
      </defs>
      <g>
       <use style="stroke:#000000;stroke-width:0.8;" x="295.79375" xlink:href="#m68e3b12cad" y="386.521875"/>
      </g>
     </g>
     <g id="text_1">
      <!-- fare -->
      <defs>
       <path d="M 37.109375 75.984375 
L 37.109375 68.5 
L 28.515625 68.5 
Q 23.6875 68.5 21.796875 66.546875 
Q 19.921875 64.59375 19.921875 59.515625 
L 19.921875 54.6875 
L 34.71875 54.6875 
L 34.71875 47.703125 
L 19.921875 47.703125 
L 19.921875 0 
L 10.890625 0 
L 10.890625 47.703125 
L 2.296875 47.703125 
L 2.296875 54.6875 
L 10.890625 54.6875 
L 10.890625 58.5 
Q 10.890625 67.625 15.140625 71.796875 
Q 19.390625 75.984375 28.609375 75.984375 
z
" id="DejaVuSans-66"/>
       <path d="M 34.28125 27.484375 
Q 23.390625 27.484375 19.1875 25 
Q 14.984375 22.515625 14.984375 16.5 
Q 14.984375 11.71875 18.140625 8.90625 
Q 21.296875 6.109375 26.703125 6.109375 
Q 34.1875 6.109375 38.703125 11.40625 
Q 43.21875 16.703125 43.21875 25.484375 
L 43.21875 27.484375 
z
M 52.203125 31.203125 
L 52.203125 0 
L 43.21875 0 
L 43.21875 8.296875 
Q 40.140625 3.328125 35.546875 0.953125 
Q 30.953125 -1.421875 24.3125 -1.421875 
Q 15.921875 -1.421875 10.953125 3.296875 
Q 6 8.015625 6 15.921875 
Q 6 25.140625 12.171875 29.828125 
Q 18.359375 34.515625 30.609375 34.515625 
L 43.21875 34.515625 
L 43.21875 35.40625 
Q 43.21875 41.609375 39.140625 45 
Q 35.0625 48.390625 27.6875 48.390625 
Q 23 48.390625 18.546875 47.265625 
Q 14.109375 46.140625 10.015625 43.890625 
L 10.015625 52.203125 
Q 14.9375 54.109375 19.578125 55.046875 
Q 24.21875 56 28.609375 56 
Q 40.484375 56 46.34375 49.84375 
Q 52.203125 43.703125 52.203125 31.203125 
z
" id="DejaVuSans-61"/>
       <path d="M 41.109375 46.296875 
Q 39.59375 47.171875 37.8125 47.578125 
Q 36.03125 48 33.890625 48 
Q 26.265625 48 22.1875 43.046875 
Q 18.109375 38.09375 18.109375 28.8125 
L 18.109375 0 
L 9.078125 0 
L 9.078125 54.6875 
L 18.109375 54.6875 
L 18.109375 46.1875 
Q 20.953125 51.171875 25.484375 53.578125 
Q 30.03125 56 36.53125 56 
Q 37.453125 56 38.578125 55.875 
Q 39.703125 55.765625 41.0625 55.515625 
z
" id="DejaVuSans-72"/>
       <path d="M 56.203125 29.59375 
L 56.203125 25.203125 
L 14.890625 25.203125 
Q 15.484375 15.921875 20.484375 11.0625 
Q 25.484375 6.203125 34.421875 6.203125 
Q 39.59375 6.203125 44.453125 7.46875 
Q 49.3125 8.734375 54.109375 11.28125 
L 54.109375 2.78125 
Q 49.265625 0.734375 44.1875 -0.34375 
Q 39.109375 -1.421875 33.890625 -1.421875 
Q 20.796875 -1.421875 13.15625 6.1875 
Q 5.515625 13.8125 5.515625 26.8125 
Q 5.515625 40.234375 12.765625 48.109375 
Q 20.015625 56 32.328125 56 
Q 43.359375 56 49.78125 48.890625 
Q 56.203125 41.796875 56.203125 29.59375 
z
M 47.21875 32.234375 
Q 47.125 39.59375 43.09375 43.984375 
Q 39.0625 48.390625 32.421875 48.390625 
Q 24.90625 48.390625 20.390625 44.140625 
Q 15.875 39.890625 15.1875 32.171875 
z
" id="DejaVuSans-65"/>
      </defs>
      <g transform="translate(285.839062 401.120313)scale(0.1 -0.1)">
       <use xlink:href="#DejaVuSans-66"/>
       <use x="35.205078" xlink:href="#DejaVuSans-61"/>
       <use x="96.484375" xlink:href="#DejaVuSans-72"/>
       <use x="137.566406" xlink:href="#DejaVuSans-65"/>
      </g>
     </g>
    </g>
   </g>
   <g id="matplotlib.axis_2">
    <g id="ytick_1">
     <g id="line2d_2">
      <defs>
       <path d="M 0 0 
L -3.5 0 
" id="m9957de839a" style="stroke:#000000;stroke-width:0.8;"/>
      </defs>
      <g>
       <use style="stroke:#000000;stroke-width:0.8;" x="36.8875" xlink:href="#m9957de839a" y="369.602699"/>
      </g>
     </g>
     <g id="text_2">
      <!-- 0 -->
      <defs>
       <path d="M 31.78125 66.40625 
Q 24.171875 66.40625 20.328125 58.90625 
Q 16.5 51.421875 16.5 36.375 
Q 16.5 21.390625 20.328125 13.890625 
Q 24.171875 6.390625 31.78125 6.390625 
Q 39.453125 6.390625 43.28125 13.890625 
Q 47.125 21.390625 47.125 36.375 
Q 47.125 51.421875 43.28125 58.90625 
Q 39.453125 66.40625 31.78125 66.40625 
z
M 31.78125 74.21875 
Q 44.046875 74.21875 50.515625 64.515625 
Q 56.984375 54.828125 56.984375 36.375 
Q 56.984375 17.96875 50.515625 8.265625 
Q 44.046875 -1.421875 31.78125 -1.421875 
Q 19.53125 -1.421875 13.0625 8.265625 
Q 6.59375 17.96875 6.59375 36.375 
Q 6.59375 54.828125 13.0625 64.515625 
Q 19.53125 74.21875 31.78125 74.21875 
z
" id="DejaVuSans-30"/>
      </defs>
      <g transform="translate(23.525 373.401918)scale(0.1 -0.1)">
       <use xlink:href="#DejaVuSans-30"/>
      </g>
     </g>
    </g>
    <g id="ytick_2">
     <g id="line2d_3">
      <g>
       <use style="stroke:#000000;stroke-width:0.8;" x="36.8875" xlink:href="#m9957de839a" y="303.554634"/>
      </g>
     </g>
     <g id="text_3">
      <!-- 100 -->
      <defs>
       <path d="M 12.40625 8.296875 
L 28.515625 8.296875 
L 28.515625 63.921875 
L 10.984375 60.40625 
L 10.984375 69.390625 
L 28.421875 72.90625 
L 38.28125 72.90625 
L 38.28125 8.296875 
L 54.390625 8.296875 
L 54.390625 0 
L 12.40625 0 
z
" id="DejaVuSans-31"/>
      </defs>
      <g transform="translate(10.8 307.353853)scale(0.1 -0.1)">
       <use xlink:href="#DejaVuSans-31"/>
       <use x="63.623047" xlink:href="#DejaVuSans-30"/>
       <use x="127.246094" xlink:href="#DejaVuSans-30"/>
      </g>
     </g>
    </g>
    <g id="ytick_3">
     <g id="line2d_4">
      <g>
       <use style="stroke:#000000;stroke-width:0.8;" x="36.8875" xlink:href="#m9957de839a" y="237.506569"/>
      </g>
     </g>
     <g id="text_4">
      <!-- 200 -->
      <defs>
       <path d="M 19.1875 8.296875 
L 53.609375 8.296875 
L 53.609375 0 
L 7.328125 0 
L 7.328125 8.296875 
Q 12.9375 14.109375 22.625 23.890625 
Q 32.328125 33.6875 34.8125 36.53125 
Q 39.546875 41.84375 41.421875 45.53125 
Q 43.3125 49.21875 43.3125 52.78125 
Q 43.3125 58.59375 39.234375 62.25 
Q 35.15625 65.921875 28.609375 65.921875 
Q 23.96875 65.921875 18.8125 64.3125 
Q 13.671875 62.703125 7.8125 59.421875 
L 7.8125 69.390625 
Q 13.765625 71.78125 18.9375 73 
Q 24.125 74.21875 28.421875 74.21875 
Q 39.75 74.21875 46.484375 68.546875 
Q 53.21875 62.890625 53.21875 53.421875 
Q 53.21875 48.921875 51.53125 44.890625 
Q 49.859375 40.875 45.40625 35.40625 
Q 44.1875 33.984375 37.640625 27.21875 
Q 31.109375 20.453125 19.1875 8.296875 
z
" id="DejaVuSans-32"/>
      </defs>
      <g transform="translate(10.8 241.305788)scale(0.1 -0.1)">
       <use xlink:href="#DejaVuSans-32"/>
       <use x="63.623047" xlink:href="#DejaVuSans-30"/>
       <use x="127.246094" xlink:href="#DejaVuSans-30"/>
      </g>
     </g>
    </g>
    <g id="ytick_4">
     <g id="line2d_5">
      <g>
       <use style="stroke:#000000;stroke-width:0.8;" x="36.8875" xlink:href="#m9957de839a" y="171.458504"/>
      </g>
     </g>
     <g id="text_5">
      <!-- 300 -->
      <defs>
       <path d="M 40.578125 39.3125 
Q 47.65625 37.796875 51.625 33 
Q 55.609375 28.21875 55.609375 21.1875 
Q 55.609375 10.40625 48.1875 4.484375 
Q 40.765625 -1.421875 27.09375 -1.421875 
Q 22.515625 -1.421875 17.65625 -0.515625 
Q 12.796875 0.390625 7.625 2.203125 
L 7.625 11.71875 
Q 11.71875 9.328125 16.59375 8.109375 
Q 21.484375 6.890625 26.8125 6.890625 
Q 36.078125 6.890625 40.9375 10.546875 
Q 45.796875 14.203125 45.796875 21.1875 
Q 45.796875 27.640625 41.28125 31.265625 
Q 36.765625 34.90625 28.71875 34.90625 
L 20.21875 34.90625 
L 20.21875 43.015625 
L 29.109375 43.015625 
Q 36.375 43.015625 40.234375 45.921875 
Q 44.09375 48.828125 44.09375 54.296875 
Q 44.09375 59.90625 40.109375 62.90625 
Q 36.140625 65.921875 28.71875 65.921875 
Q 24.65625 65.921875 20.015625 65.03125 
Q 15.375 64.15625 9.8125 62.3125 
L 9.8125 71.09375 
Q 15.4375 72.65625 20.34375 73.4375 
Q 25.25 74.21875 29.59375 74.21875 
Q 40.828125 74.21875 47.359375 69.109375 
Q 53.90625 64.015625 53.90625 55.328125 
Q 53.90625 49.265625 50.4375 45.09375 
Q 46.96875 40.921875 40.578125 39.3125 
z
" id="DejaVuSans-33"/>
      </defs>
      <g transform="translate(10.8 175.257723)scale(0.1 -0.1)">
       <use xlink:href="#DejaVuSans-33"/>
       <use x="63.623047" xlink:href="#DejaVuSans-30"/>
       <use x="127.246094" xlink:href="#DejaVuSans-30"/>
      </g>
     </g>
    </g>
    <g id="ytick_5">
     <g id="line2d_6">
      <g>
       <use style="stroke:#000000;stroke-width:0.8;" x="36.8875" xlink:href="#m9957de839a" y="105.410439"/>
      </g>
     </g>
     <g id="text_6">
      <!-- 400 -->
      <defs>
       <path d="M 37.796875 64.3125 
L 12.890625 25.390625 
L 37.796875 25.390625 
z
M 35.203125 72.90625 
L 47.609375 72.90625 
L 47.609375 25.390625 
L 58.015625 25.390625 
L 58.015625 17.1875 
L 47.609375 17.1875 
L 47.609375 0 
L 37.796875 0 
L 37.796875 17.1875 
L 4.890625 17.1875 
L 4.890625 26.703125 
z
" id="DejaVuSans-34"/>
      </defs>
      <g transform="translate(10.8 109.209658)scale(0.1 -0.1)">
       <use xlink:href="#DejaVuSans-34"/>
       <use x="63.623047" xlink:href="#DejaVuSans-30"/>
       <use x="127.246094" xlink:href="#DejaVuSans-30"/>
      </g>
     </g>
    </g>
    <g id="ytick_6">
     <g id="line2d_7">
      <g>
       <use style="stroke:#000000;stroke-width:0.8;" x="36.8875" xlink:href="#m9957de839a" y="39.362374"/>
      </g>
     </g>
     <g id="text_7">
      <!-- 500 -->
      <defs>
       <path d="M 10.796875 72.90625 
L 49.515625 72.90625 
L 49.515625 64.59375 
L 19.828125 64.59375 
L 19.828125 46.734375 
Q 21.96875 47.46875 24.109375 47.828125 
Q 26.265625 48.1875 28.421875 48.1875 
Q 40.625 48.1875 47.75 41.5 
Q 54.890625 34.8125 54.890625 23.390625 
Q 54.890625 11.625 47.5625 5.09375 
Q 40.234375 -1.421875 26.90625 -1.421875 
Q 22.3125 -1.421875 17.546875 -0.640625 
Q 12.796875 0.140625 7.71875 1.703125 
L 7.71875 11.625 
Q 12.109375 9.234375 16.796875 8.0625 
Q 21.484375 6.890625 26.703125 6.890625 
Q 35.15625 6.890625 40.078125 11.328125 
Q 45.015625 15.765625 45.015625 23.390625 
Q 45.015625 31 40.078125 35.4375 
Q 35.15625 39.890625 26.703125 39.890625 
Q 22.75 39.890625 18.8125 39.015625 
Q 14.890625 38.140625 10.796875 36.28125 
z
" id="DejaVuSans-35"/>
      </defs>
      <g transform="translate(10.8 43.161593)scale(0.1 -0.1)">
       <use xlink:href="#DejaVuSans-35"/>
       <use x="63.623047" xlink:href="#DejaVuSans-30"/>
       <use x="127.246094" xlink:href="#DejaVuSans-30"/>
      </g>
     </g>
    </g>
   </g>
   <g id="line2d_8">
    <path clip-path="url(#peea7ba6832)" d="M 256.957813 364.387676 
L 334.629687 364.387676 
L 334.629687 348.946167 
L 256.957813 348.946167 
L 256.957813 364.387676 
" style="fill:none;stroke:#1f77b4;stroke-linecap:square;"/>
   </g>
   <g id="line2d_9">
    <path clip-path="url(#peea7ba6832)" d="M 295.79375 364.387676 
L 295.79375 369.602699 
" style="fill:none;stroke:#1f77b4;stroke-linecap:square;"/>
   </g>
   <g id="line2d_10">
    <path clip-path="url(#peea7ba6832)" d="M 295.79375 348.946167 
L 295.79375 326.671457 
" style="fill:none;stroke:#1f77b4;stroke-linecap:square;"/>
   </g>
   <g id="line2d_11">
    <path clip-path="url(#peea7ba6832)" d="M 276.375781 369.602699 
L 315.211719 369.602699 
" style="fill:none;stroke:#000000;stroke-linecap:square;"/>
   </g>
   <g id="line2d_12">
    <path clip-path="url(#peea7ba6832)" d="M 276.375781 326.671457 
L 315.211719 326.671457 
" style="fill:none;stroke:#000000;stroke-linecap:square;"/>
   </g>
   <g id="line2d_13">
    <defs>
     <path d="M 0 3 
C 0.795609 3 1.55874 2.683901 2.12132 2.12132 
C 2.683901 1.55874 3 0.795609 3 0 
C 3 -0.795609 2.683901 -1.55874 2.12132 -2.12132 
C 1.55874 -2.683901 0.795609 -3 0 -3 
C -0.795609 -3 -1.55874 -2.683901 -2.12132 -2.12132 
C -2.683901 -1.55874 -3 -0.795609 -3 0 
C -3 0.795609 -2.683901 1.55874 -2.12132 2.12132 
C -1.55874 2.683901 -0.795609 3 0 3 
z
" id="m21cdff0f6b" style="stroke:#000000;"/>
    </defs>
    <g clip-path="url(#peea7ba6832)">
     <use style="fill-opacity:0;stroke:#000000;" x="295.79375" xlink:href="#m21cdff0f6b" y="230.01837"/>
     <use style="fill-opacity:0;stroke:#000000;" x="295.79375" xlink:href="#m21cdff0f6b" y="269.506856"/>
     <use style="fill-opacity:0;stroke:#000000;" x="295.79375" xlink:href="#m21cdff0f6b" y="269.506856"/>
     <use style="fill-opacity:0;stroke:#000000;" x="295.79375" xlink:href="#m21cdff0f6b" y="269.506856"/>
     <use style="fill-opacity:0;stroke:#000000;" x="295.79375" xlink:href="#m21cdff0f6b" y="269.506856"/>
     <use style="fill-opacity:0;stroke:#000000;" x="295.79375" xlink:href="#m21cdff0f6b" y="318.11275"/>
     <use style="fill-opacity:0;stroke:#000000;" x="295.79375" xlink:href="#m21cdff0f6b" y="219.326839"/>
     <use style="fill-opacity:0;stroke:#000000;" x="295.79375" xlink:href="#m21cdff0f6b" y="219.326839"/>
     <use style="fill-opacity:0;stroke:#000000;" x="295.79375" xlink:href="#m21cdff0f6b" y="323.83139"/>
     <use style="fill-opacity:0;stroke:#000000;" x="295.79375" xlink:href="#m21cdff0f6b" y="317.5238"/>
     <use style="fill-opacity:0;stroke:#000000;" x="295.79375" xlink:href="#m21cdff0f6b" y="206.12"/>
     <use style="fill-opacity:0;stroke:#000000;" x="295.79375" xlink:href="#m21cdff0f6b" y="206.12"/>
     <use style="fill-opacity:0;stroke:#000000;" x="295.79375" xlink:href="#m21cdff0f6b" y="319.213507"/>
     <use style="fill-opacity:0;stroke:#000000;" x="295.79375" xlink:href="#m21cdff0f6b" y="319.907012"/>
     <use style="fill-opacity:0;stroke:#000000;" x="295.79375" xlink:href="#m21cdff0f6b" y="219.326839"/>
     <use style="fill-opacity:0;stroke:#000000;" x="295.79375" xlink:href="#m21cdff0f6b" y="223.121829"/>
     <use style="fill-opacity:0;stroke:#000000;" x="295.79375" xlink:href="#m21cdff0f6b" y="309.44665"/>
     <use style="fill-opacity:0;stroke:#000000;" x="295.79375" xlink:href="#m21cdff0f6b" y="309.44665"/>
     <use style="fill-opacity:0;stroke:#000000;" x="295.79375" xlink:href="#m21cdff0f6b" y="280.019529"/>
     <use style="fill-opacity:0;stroke:#000000;" x="295.79375" xlink:href="#m21cdff0f6b" y="260.711434"/>
     <use style="fill-opacity:0;stroke:#000000;" x="295.79375" xlink:href="#m21cdff0f6b" y="196.309088"/>
     <use style="fill-opacity:0;stroke:#000000;" x="295.79375" xlink:href="#m21cdff0f6b" y="319.213507"/>
     <use style="fill-opacity:0;stroke:#000000;" x="295.79375" xlink:href="#m21cdff0f6b" y="280.768052"/>
     <use style="fill-opacity:0;stroke:#000000;" x="295.79375" xlink:href="#m21cdff0f6b" y="31.219176"/>
     <use style="fill-opacity:0;stroke:#000000;" x="295.79375" xlink:href="#m21cdff0f6b" y="31.219176"/>
     <use style="fill-opacity:0;stroke:#000000;" x="295.79375" xlink:href="#m21cdff0f6b" y="290.345021"/>
     <use style="fill-opacity:0;stroke:#000000;" x="295.79375" xlink:href="#m21cdff0f6b" y="290.345021"/>
     <use style="fill-opacity:0;stroke:#000000;" x="295.79375" xlink:href="#m21cdff0f6b" y="290.345021"/>
     <use style="fill-opacity:0;stroke:#000000;" x="295.79375" xlink:href="#m21cdff0f6b" y="290.345021"/>
     <use style="fill-opacity:0;stroke:#000000;" x="295.79375" xlink:href="#m21cdff0f6b" y="317.5238"/>
     <use style="fill-opacity:0;stroke:#000000;" x="295.79375" xlink:href="#m21cdff0f6b" y="317.5238"/>
     <use style="fill-opacity:0;stroke:#000000;" x="295.79375" xlink:href="#m21cdff0f6b" y="196.309088"/>
     <use style="fill-opacity:0;stroke:#000000;" x="295.79375" xlink:href="#m21cdff0f6b" y="312.471123"/>
     <use style="fill-opacity:0;stroke:#000000;" x="295.79375" xlink:href="#m21cdff0f6b" y="279.262684"/>
     <use style="fill-opacity:0;stroke:#000000;" x="295.79375" xlink:href="#m21cdff0f6b" y="279.262684"/>
     <use style="fill-opacity:0;stroke:#000000;" x="295.79375" xlink:href="#m21cdff0f6b" y="269.506856"/>
     <use style="fill-opacity:0;stroke:#000000;" x="295.79375" xlink:href="#m21cdff0f6b" y="314.678251"/>
     <use style="fill-opacity:0;stroke:#000000;" x="295.79375" xlink:href="#m21cdff0f6b" y="314.678251"/>
     <use style="fill-opacity:0;stroke:#000000;" x="295.79375" xlink:href="#m21cdff0f6b" y="314.678251"/>
     <use style="fill-opacity:0;stroke:#000000;" x="295.79375" xlink:href="#m21cdff0f6b" y="322.708573"/>
     <use style="fill-opacity:0;stroke:#000000;" x="295.79375" xlink:href="#m21cdff0f6b" y="322.708573"/>
     <use style="fill-opacity:0;stroke:#000000;" x="295.79375" xlink:href="#m21cdff0f6b" y="322.521459"/>
     <use style="fill-opacity:0;stroke:#000000;" x="295.79375" xlink:href="#m21cdff0f6b" y="322.521459"/>
     <use style="fill-opacity:0;stroke:#000000;" x="295.79375" xlink:href="#m21cdff0f6b" y="269.506856"/>
     <use style="fill-opacity:0;stroke:#000000;" x="295.79375" xlink:href="#m21cdff0f6b" y="315.536876"/>
     <use style="fill-opacity:0;stroke:#000000;" x="295.79375" xlink:href="#m21cdff0f6b" y="315.536876"/>
     <use style="fill-opacity:0;stroke:#000000;" x="295.79375" xlink:href="#m21cdff0f6b" y="315.536876"/>
     <use style="fill-opacity:0;stroke:#000000;" x="295.79375" xlink:href="#m21cdff0f6b" y="299.311046"/>
     <use style="fill-opacity:0;stroke:#000000;" x="295.79375" xlink:href="#m21cdff0f6b" y="206.12"/>
     <use style="fill-opacity:0;stroke:#000000;" x="295.79375" xlink:href="#m21cdff0f6b" y="299.311046"/>
     <use style="fill-opacity:0;stroke:#000000;" x="295.79375" xlink:href="#m21cdff0f6b" y="314.678251"/>
     <use style="fill-opacity:0;stroke:#000000;" x="295.79375" xlink:href="#m21cdff0f6b" y="219.326839"/>
     <use style="fill-opacity:0;stroke:#000000;" x="295.79375" xlink:href="#m21cdff0f6b" y="317.909058"/>
     <use style="fill-opacity:0;stroke:#000000;" x="295.79375" xlink:href="#m21cdff0f6b" y="223.121829"/>
     <use style="fill-opacity:0;stroke:#000000;" x="295.79375" xlink:href="#m21cdff0f6b" y="296.366425"/>
     <use style="fill-opacity:0;stroke:#000000;" x="295.79375" xlink:href="#m21cdff0f6b" y="195.896288"/>
     <use style="fill-opacity:0;stroke:#000000;" x="295.79375" xlink:href="#m21cdff0f6b" y="195.896288"/>
     <use style="fill-opacity:0;stroke:#000000;" x="295.79375" xlink:href="#m21cdff0f6b" y="195.896288"/>
     <use style="fill-opacity:0;stroke:#000000;" x="295.79375" xlink:href="#m21cdff0f6b" y="195.896288"/>
     <use style="fill-opacity:0;stroke:#000000;" x="295.79375" xlink:href="#m21cdff0f6b" y="195.896288"/>
     <use style="fill-opacity:0;stroke:#000000;" x="295.79375" xlink:href="#m21cdff0f6b" y="195.896288"/>
     <use style="fill-opacity:0;stroke:#000000;" x="295.79375" xlink:href="#m21cdff0f6b" y="281.32946"/>
     <use style="fill-opacity:0;stroke:#000000;" x="295.79375" xlink:href="#m21cdff0f6b" y="281.32946"/>
     <use style="fill-opacity:0;stroke:#000000;" x="295.79375" xlink:href="#m21cdff0f6b" y="317.292631"/>
     <use style="fill-opacity:0;stroke:#000000;" x="295.79375" xlink:href="#m21cdff0f6b" y="317.292631"/>
     <use style="fill-opacity:0;stroke:#000000;" x="295.79375" xlink:href="#m21cdff0f6b" y="229.911042"/>
     <use style="fill-opacity:0;stroke:#000000;" x="295.79375" xlink:href="#m21cdff0f6b" y="317.292631"/>
     <use style="fill-opacity:0;stroke:#000000;" x="295.79375" xlink:href="#m21cdff0f6b" y="310.751099"/>
     <use style="fill-opacity:0;stroke:#000000;" x="295.79375" xlink:href="#m21cdff0f6b" y="310.751099"/>
     <use style="fill-opacity:0;stroke:#000000;" x="295.79375" xlink:href="#m21cdff0f6b" y="268.243687"/>
     <use style="fill-opacity:0;stroke:#000000;" x="295.79375" xlink:href="#m21cdff0f6b" y="268.243687"/>
     <use style="fill-opacity:0;stroke:#000000;" x="295.79375" xlink:href="#m21cdff0f6b" y="317.292631"/>
     <use style="fill-opacity:0;stroke:#000000;" x="295.79375" xlink:href="#m21cdff0f6b" y="318.924547"/>
     <use style="fill-opacity:0;stroke:#000000;" x="295.79375" xlink:href="#m21cdff0f6b" y="318.924547"/>
     <use style="fill-opacity:0;stroke:#000000;" x="295.79375" xlink:href="#m21cdff0f6b" y="314.469077"/>
     <use style="fill-opacity:0;stroke:#000000;" x="295.79375" xlink:href="#m21cdff0f6b" y="314.469077"/>
     <use style="fill-opacity:0;stroke:#000000;" x="295.79375" xlink:href="#m21cdff0f6b" y="318.924547"/>
     <use style="fill-opacity:0;stroke:#000000;" x="295.79375" xlink:href="#m21cdff0f6b" y="314.678251"/>
     <use style="fill-opacity:0;stroke:#000000;" x="295.79375" xlink:href="#m21cdff0f6b" y="307.847758"/>
     <use style="fill-opacity:0;stroke:#000000;" x="295.79375" xlink:href="#m21cdff0f6b" y="307.847758"/>
     <use style="fill-opacity:0;stroke:#000000;" x="295.79375" xlink:href="#m21cdff0f6b" y="318.11275"/>
     <use style="fill-opacity:0;stroke:#000000;" x="295.79375" xlink:href="#m21cdff0f6b" y="310.15944"/>
     <use style="fill-opacity:0;stroke:#000000;" x="295.79375" xlink:href="#m21cdff0f6b" y="310.15944"/>
     <use style="fill-opacity:0;stroke:#000000;" x="295.79375" xlink:href="#m21cdff0f6b" y="316.764247"/>
     <use style="fill-opacity:0;stroke:#000000;" x="295.79375" xlink:href="#m21cdff0f6b" y="229.911042"/>
     <use style="fill-opacity:0;stroke:#000000;" x="295.79375" xlink:href="#m21cdff0f6b" y="230.01837"/>
     <use style="fill-opacity:0;stroke:#000000;" x="295.79375" xlink:href="#m21cdff0f6b" y="299.311046"/>
     <use style="fill-opacity:0;stroke:#000000;" x="295.79375" xlink:href="#m21cdff0f6b" y="31.219176"/>
     <use style="fill-opacity:0;stroke:#000000;" x="295.79375" xlink:href="#m21cdff0f6b" y="318.11275"/>
     <use style="fill-opacity:0;stroke:#000000;" x="295.79375" xlink:href="#m21cdff0f6b" y="272.828546"/>
     <use style="fill-opacity:0;stroke:#000000;" x="295.79375" xlink:href="#m21cdff0f6b" y="230.01837"/>
     <use style="fill-opacity:0;stroke:#000000;" x="295.79375" xlink:href="#m21cdff0f6b" y="312.471123"/>
     <use style="fill-opacity:0;stroke:#000000;" x="295.79375" xlink:href="#m21cdff0f6b" y="319.907012"/>
     <use style="fill-opacity:0;stroke:#000000;" x="295.79375" xlink:href="#m21cdff0f6b" y="315.330476"/>
     <use style="fill-opacity:0;stroke:#000000;" x="295.79375" xlink:href="#m21cdff0f6b" y="315.330476"/>
     <use style="fill-opacity:0;stroke:#000000;" x="295.79375" xlink:href="#m21cdff0f6b" y="310.15944"/>
     <use style="fill-opacity:0;stroke:#000000;" x="295.79375" xlink:href="#m21cdff0f6b" y="310.15944"/>
     <use style="fill-opacity:0;stroke:#000000;" x="295.79375" xlink:href="#m21cdff0f6b" y="310.15944"/>
     <use style="fill-opacity:0;stroke:#000000;" x="295.79375" xlink:href="#m21cdff0f6b" y="294.786753"/>
     <use style="fill-opacity:0;stroke:#000000;" x="295.79375" xlink:href="#m21cdff0f6b" y="294.786753"/>
     <use style="fill-opacity:0;stroke:#000000;" x="295.79375" xlink:href="#m21cdff0f6b" y="294.786753"/>
     <use style="fill-opacity:0;stroke:#000000;" x="295.79375" xlink:href="#m21cdff0f6b" y="297.676356"/>
     <use style="fill-opacity:0;stroke:#000000;" x="295.79375" xlink:href="#m21cdff0f6b" y="307.847758"/>
     <use style="fill-opacity:0;stroke:#000000;" x="295.79375" xlink:href="#m21cdff0f6b" y="325.614688"/>
     <use style="fill-opacity:0;stroke:#000000;" x="295.79375" xlink:href="#m21cdff0f6b" y="325.614688"/>
     <use style="fill-opacity:0;stroke:#000000;" x="295.79375" xlink:href="#m21cdff0f6b" y="297.676356"/>
     <use style="fill-opacity:0;stroke:#000000;" x="295.79375" xlink:href="#m21cdff0f6b" y="297.676356"/>
     <use style="fill-opacity:0;stroke:#000000;" x="295.79375" xlink:href="#m21cdff0f6b" y="307.847758"/>
     <use style="fill-opacity:0;stroke:#000000;" x="295.79375" xlink:href="#m21cdff0f6b" y="314.678251"/>
     <use style="fill-opacity:0;stroke:#000000;" x="295.79375" xlink:href="#m21cdff0f6b" y="280.019529"/>
     <use style="fill-opacity:0;stroke:#000000;" x="295.79375" xlink:href="#m21cdff0f6b" y="219.326839"/>
     <use style="fill-opacity:0;stroke:#000000;" x="295.79375" xlink:href="#m21cdff0f6b" y="230.01837"/>
     <use style="fill-opacity:0;stroke:#000000;" x="295.79375" xlink:href="#m21cdff0f6b" y="317.292631"/>
     <use style="fill-opacity:0;stroke:#000000;" x="295.79375" xlink:href="#m21cdff0f6b" y="312.471123"/>
     <use style="fill-opacity:0;stroke:#000000;" x="295.79375" xlink:href="#m21cdff0f6b" y="196.309088"/>
     <use style="fill-opacity:0;stroke:#000000;" x="295.79375" xlink:href="#m21cdff0f6b" y="196.309088"/>
     <use style="fill-opacity:0;stroke:#000000;" x="295.79375" xlink:href="#m21cdff0f6b" y="196.309088"/>
     <use style="fill-opacity:0;stroke:#000000;" x="295.79375" xlink:href="#m21cdff0f6b" y="196.309088"/>
     <use style="fill-opacity:0;stroke:#000000;" x="295.79375" xlink:href="#m21cdff0f6b" y="196.309088"/>
     <use style="fill-opacity:0;stroke:#000000;" x="295.79375" xlink:href="#m21cdff0f6b" y="323.83139"/>
     <use style="fill-opacity:0;stroke:#000000;" x="295.79375" xlink:href="#m21cdff0f6b" y="268.243687"/>
     <use style="fill-opacity:0;stroke:#000000;" x="295.79375" xlink:href="#m21cdff0f6b" y="315.267135"/>
     <use style="fill-opacity:0;stroke:#000000;" x="295.79375" xlink:href="#m21cdff0f6b" y="315.267135"/>
     <use style="fill-opacity:0;stroke:#000000;" x="295.79375" xlink:href="#m21cdff0f6b" y="280.768052"/>
     <use style="fill-opacity:0;stroke:#000000;" x="295.79375" xlink:href="#m21cdff0f6b" y="280.768052"/>
     <use style="fill-opacity:0;stroke:#000000;" x="295.79375" xlink:href="#m21cdff0f6b" y="280.768052"/>
     <use style="fill-opacity:0;stroke:#000000;" x="295.79375" xlink:href="#m21cdff0f6b" y="272.828546"/>
     <use style="fill-opacity:0;stroke:#000000;" x="295.79375" xlink:href="#m21cdff0f6b" y="272.828546"/>
     <use style="fill-opacity:0;stroke:#000000;" x="295.79375" xlink:href="#m21cdff0f6b" y="317.909058"/>
     <use style="fill-opacity:0;stroke:#000000;" x="295.79375" xlink:href="#m21cdff0f6b" y="316.764247"/>
     <use style="fill-opacity:0;stroke:#000000;" x="295.79375" xlink:href="#m21cdff0f6b" y="223.121829"/>
     <use style="fill-opacity:0;stroke:#000000;" x="295.79375" xlink:href="#m21cdff0f6b" y="223.121829"/>
     <use style="fill-opacity:0;stroke:#000000;" x="295.79375" xlink:href="#m21cdff0f6b" y="316.995415"/>
     <use style="fill-opacity:0;stroke:#000000;" x="295.79375" xlink:href="#m21cdff0f6b" y="316.995415"/>
     <use style="fill-opacity:0;stroke:#000000;" x="295.79375" xlink:href="#m21cdff0f6b" y="316.995415"/>
     <use style="fill-opacity:0;stroke:#000000;" x="295.79375" xlink:href="#m21cdff0f6b" y="296.366425"/>
     <use style="fill-opacity:0;stroke:#000000;" x="295.79375" xlink:href="#m21cdff0f6b" y="296.366425"/>
     <use style="fill-opacity:0;stroke:#000000;" x="295.79375" xlink:href="#m21cdff0f6b" y="296.366425"/>
     <use style="fill-opacity:0;stroke:#000000;" x="295.79375" xlink:href="#m21cdff0f6b" y="317.292631"/>
     <use style="fill-opacity:0;stroke:#000000;" x="295.79375" xlink:href="#m21cdff0f6b" y="31.219176"/>
     <use style="fill-opacity:0;stroke:#000000;" x="295.79375" xlink:href="#m21cdff0f6b" y="319.90153"/>
     <use style="fill-opacity:0;stroke:#000000;" x="295.79375" xlink:href="#m21cdff0f6b" y="319.90153"/>
     <use style="fill-opacity:0;stroke:#000000;" x="295.79375" xlink:href="#m21cdff0f6b" y="318.555801"/>
     <use style="fill-opacity:0;stroke:#000000;" x="295.79375" xlink:href="#m21cdff0f6b" y="318.555801"/>
     <use style="fill-opacity:0;stroke:#000000;" x="295.79375" xlink:href="#m21cdff0f6b" y="280.019529"/>
     <use style="fill-opacity:0;stroke:#000000;" x="295.79375" xlink:href="#m21cdff0f6b" y="260.711434"/>
     <use style="fill-opacity:0;stroke:#000000;" x="295.79375" xlink:href="#m21cdff0f6b" y="260.711434"/>
     <use style="fill-opacity:0;stroke:#000000;" x="295.79375" xlink:href="#m21cdff0f6b" y="260.711434"/>
     <use style="fill-opacity:0;stroke:#000000;" x="295.79375" xlink:href="#m21cdff0f6b" y="229.911042"/>
     <use style="fill-opacity:0;stroke:#000000;" x="295.79375" xlink:href="#m21cdff0f6b" y="229.911042"/>
     <use style="fill-opacity:0;stroke:#000000;" x="295.79375" xlink:href="#m21cdff0f6b" y="229.911042"/>
     <use style="fill-opacity:0;stroke:#000000;" x="295.79375" xlink:href="#m21cdff0f6b" y="280.768052"/>
     <use style="fill-opacity:0;stroke:#000000;" x="295.79375" xlink:href="#m21cdff0f6b" y="280.019529"/>
     <use style="fill-opacity:0;stroke:#000000;" x="295.79375" xlink:href="#m21cdff0f6b" y="321.057371"/>
     <use style="fill-opacity:0;stroke:#000000;" x="295.79375" xlink:href="#m21cdff0f6b" y="321.057371"/>
     <use style="fill-opacity:0;stroke:#000000;" x="295.79375" xlink:href="#m21cdff0f6b" y="321.057371"/>
     <use style="fill-opacity:0;stroke:#000000;" x="295.79375" xlink:href="#m21cdff0f6b" y="321.057371"/>
     <use style="fill-opacity:0;stroke:#000000;" x="295.79375" xlink:href="#m21cdff0f6b" y="321.057371"/>
     <use style="fill-opacity:0;stroke:#000000;" x="295.79375" xlink:href="#m21cdff0f6b" y="321.057371"/>
     <use style="fill-opacity:0;stroke:#000000;" x="295.79375" xlink:href="#m21cdff0f6b" y="321.057371"/>
     <use style="fill-opacity:0;stroke:#000000;" x="295.79375" xlink:href="#m21cdff0f6b" y="323.66627"/>
     <use style="fill-opacity:0;stroke:#000000;" x="295.79375" xlink:href="#m21cdff0f6b" y="323.66627"/>
     <use style="fill-opacity:0;stroke:#000000;" x="295.79375" xlink:href="#m21cdff0f6b" y="323.66627"/>
     <use style="fill-opacity:0;stroke:#000000;" x="295.79375" xlink:href="#m21cdff0f6b" y="323.66627"/>
     <use style="fill-opacity:0;stroke:#000000;" x="295.79375" xlink:href="#m21cdff0f6b" y="323.66627"/>
     <use style="fill-opacity:0;stroke:#000000;" x="295.79375" xlink:href="#m21cdff0f6b" y="323.66627"/>
     <use style="fill-opacity:0;stroke:#000000;" x="295.79375" xlink:href="#m21cdff0f6b" y="323.66627"/>
     <use style="fill-opacity:0;stroke:#000000;" x="295.79375" xlink:href="#m21cdff0f6b" y="323.66627"/>
     <use style="fill-opacity:0;stroke:#000000;" x="295.79375" xlink:href="#m21cdff0f6b" y="323.66627"/>
     <use style="fill-opacity:0;stroke:#000000;" x="295.79375" xlink:href="#m21cdff0f6b" y="323.66627"/>
     <use style="fill-opacity:0;stroke:#000000;" x="295.79375" xlink:href="#m21cdff0f6b" y="323.66627"/>
    </g>
   </g>
   <g id="line2d_14">
    <path clip-path="url(#peea7ba6832)" d="M 256.957813 360.055979 
L 334.629687 360.055979 
" style="fill:none;stroke:#2ca02c;stroke-linecap:square;"/>
   </g>
   <g id="patch_3">
    <path d="M 36.8875 386.521875 
L 36.8875 14.3 
" style="fill:none;stroke:#000000;stroke-linecap:square;stroke-linejoin:miter;stroke-width:0.8;"/>
   </g>
   <g id="patch_4">
    <path d="M 554.7 386.521875 
L 554.7 14.3 
" style="fill:none;stroke:#000000;stroke-linecap:square;stroke-linejoin:miter;stroke-width:0.8;"/>
   </g>
   <g id="patch_5">
    <path d="M 36.8875 386.521875 
L 554.7 386.521875 
" style="fill:none;stroke:#000000;stroke-linecap:square;stroke-linejoin:miter;stroke-width:0.8;"/>
   </g>
   <g id="patch_6">
    <path d="M 36.8875 14.3 
L 554.7 14.3 
" style="fill:none;stroke:#000000;stroke-linecap:square;stroke-linejoin:miter;stroke-width:0.8;"/>
   </g>
  </g>
 </g>
 <defs>
  <clipPath id="peea7ba6832">
   <rect height="372.221875" width="517.8125" x="36.8875" y="14.3"/>
  </clipPath>
 </defs>
</svg>
