<?xml version="1.0" encoding="utf-8" standalone="no"?>
<!DOCTYPE svg PUBLIC "-//W3C//DTD SVG 1.1//EN"
  "http://www.w3.org/Graphics/SVG/1.1/DTD/svg11.dtd">
<!-- Created with matplotlib (http://matplotlib.org/) -->
<svg height="414pt" version="1.1" viewBox="0 0 569 414" width="569pt" xmlns="http://www.w3.org/2000/svg" xmlns:xlink="http://www.w3.org/1999/xlink">
 <defs>
  <style type="text/css">
*{stroke-linecap:butt;stroke-linejoin:round;}
  </style>
 </defs>
 <g id="figure_1">
  <g id="patch_1">
   <path d="M 0 414 
L 569 414 
L 569 0 
L 0 0 
z
" style="fill:#ffffff;"/>
  </g>
  <g id="axes_1">
   <g id="patch_2">
    <path d="M 36.8875 117.721875 
L 554.7 117.721875 
L 554.7 14.3 
L 36.8875 14.3 
z
" style="fill:#ffffff;"/>
   </g>
   <g id="matplotlib.axis_1">
    <g id="xtick_1">
     <g id="line2d_1">
      <defs>
       <path d="M 0 0 
L 0 3.5 
" id="me0dcf0b427" style="stroke:#000000;stroke-width:0.8;"/>
      </defs>
      <g>
       <use style="stroke:#000000;stroke-width:0.8;" x="295.79375" xlink:href="#me0dcf0b427" y="117.721875"/>
      </g>
     </g>
     <g id="text_1">
      <!-- fare -->
      <defs>
       <path d="M 37.109375 75.984375 
L 37.109375 68.5 
L 28.515625 68.5 
Q 23.6875 68.5 21.796875 66.546875 
Q 19.921875 64.59375 19.921875 59.515625 
L 19.921875 54.6875 
L 34.71875 54.6875 
L 34.71875 47.703125 
L 19.921875 47.703125 
L 19.921875 0 
L 10.890625 0 
L 10.890625 47.703125 
L 2.296875 47.703125 
L 2.296875 54.6875 
L 10.890625 54.6875 
L 10.890625 58.5 
Q 10.890625 67.625 15.140625 71.796875 
Q 19.390625 75.984375 28.609375 75.984375 
z
" id="DejaVuSans-66"/>
       <path d="M 34.28125 27.484375 
Q 23.390625 27.484375 19.1875 25 
Q 14.984375 22.515625 14.984375 16.5 
Q 14.984375 11.71875 18.140625 8.90625 
Q 21.296875 6.109375 26.703125 6.109375 
Q 34.1875 6.109375 38.703125 11.40625 
Q 43.21875 16.703125 43.21875 25.484375 
L 43.21875 27.484375 
z
M 52.203125 31.203125 
L 52.203125 0 
L 43.21875 0 
L 43.21875 8.296875 
Q 40.140625 3.328125 35.546875 0.953125 
Q 30.953125 -1.421875 24.3125 -1.421875 
Q 15.921875 -1.421875 10.953125 3.296875 
Q 6 8.015625 6 15.921875 
Q 6 25.140625 12.171875 29.828125 
Q 18.359375 34.515625 30.609375 34.515625 
L 43.21875 34.515625 
L 43.21875 35.40625 
Q 43.21875 41.609375 39.140625 45 
Q 35.0625 48.390625 27.6875 48.390625 
Q 23 48.390625 18.546875 47.265625 
Q 14.109375 46.140625 10.015625 43.890625 
L 10.015625 52.203125 
Q 14.9375 54.109375 19.578125 55.046875 
Q 24.21875 56 28.609375 56 
Q 40.484375 56 46.34375 49.84375 
Q 52.203125 43.703125 52.203125 31.203125 
z
" id="DejaVuSans-61"/>
       <path d="M 41.109375 46.296875 
Q 39.59375 47.171875 37.8125 47.578125 
Q 36.03125 48 33.890625 48 
Q 26.265625 48 22.1875 43.046875 
Q 18.109375 38.09375 18.109375 28.8125 
L 18.109375 0 
L 9.078125 0 
L 9.078125 54.6875 
L 18.109375 54.6875 
L 18.109375 46.1875 
Q 20.953125 51.171875 25.484375 53.578125 
Q 30.03125 56 36.53125 56 
Q 37.453125 56 38.578125 55.875 
Q 39.703125 55.765625 41.0625 55.515625 
z
" id="DejaVuSans-72"/>
       <path d="M 56.203125 29.59375 
L 56.203125 25.203125 
L 14.890625 25.203125 
Q 15.484375 15.921875 20.484375 11.0625 
Q 25.484375 6.203125 34.421875 6.203125 
Q 39.59375 6.203125 44.453125 7.46875 
Q 49.3125 8.734375 54.109375 11.28125 
L 54.109375 2.78125 
Q 49.265625 0.734375 44.1875 -0.34375 
Q 39.109375 -1.421875 33.890625 -1.421875 
Q 20.796875 -1.421875 13.15625 6.1875 
Q 5.515625 13.8125 5.515625 26.8125 
Q 5.515625 40.234375 12.765625 48.109375 
Q 20.015625 56 32.328125 56 
Q 43.359375 56 49.78125 48.890625 
Q 56.203125 41.796875 56.203125 29.59375 
z
M 47.21875 32.234375 
Q 47.125 39.59375 43.09375 43.984375 
Q 39.0625 48.390625 32.421875 48.390625 
Q 24.90625 48.390625 20.390625 44.140625 
Q 15.875 39.890625 15.1875 32.171875 
z
" id="DejaVuSans-65"/>
      </defs>
      <g transform="translate(285.839062 132.320312)scale(0.1 -0.1)">
       <use xlink:href="#DejaVuSans-66"/>
       <use x="35.205078" xlink:href="#DejaVuSans-61"/>
       <use x="96.484375" xlink:href="#DejaVuSans-72"/>
       <use x="137.566406" xlink:href="#DejaVuSans-65"/>
      </g>
     </g>
    </g>
   </g>
   <g id="matplotlib.axis_2">
    <g id="ytick_1">
     <g id="line2d_2">
      <defs>
       <path d="M 0 0 
L -3.5 0 
" id="m792206a216" style="stroke:#000000;stroke-width:0.8;"/>
      </defs>
      <g>
       <use style="stroke:#000000;stroke-width:0.8;" x="36.8875" xlink:href="#m792206a216" y="113.020881"/>
      </g>
     </g>
     <g id="text_2">
      <!-- 0 -->
      <defs>
       <path d="M 31.78125 66.40625 
Q 24.171875 66.40625 20.328125 58.90625 
Q 16.5 51.421875 16.5 36.375 
Q 16.5 21.390625 20.328125 13.890625 
Q 24.171875 6.390625 31.78125 6.390625 
Q 39.453125 6.390625 43.28125 13.890625 
Q 47.125 21.390625 47.125 36.375 
Q 47.125 51.421875 43.28125 58.90625 
Q 39.453125 66.40625 31.78125 66.40625 
z
M 31.78125 74.21875 
Q 44.046875 74.21875 50.515625 64.515625 
Q 56.984375 54.828125 56.984375 36.375 
Q 56.984375 17.96875 50.515625 8.265625 
Q 44.046875 -1.421875 31.78125 -1.421875 
Q 19.53125 -1.421875 13.0625 8.265625 
Q 6.59375 17.96875 6.59375 36.375 
Q 6.59375 54.828125 13.0625 64.515625 
Q 19.53125 74.21875 31.78125 74.21875 
z
" id="DejaVuSans-30"/>
      </defs>
      <g transform="translate(23.525 116.820099)scale(0.1 -0.1)">
       <use xlink:href="#DejaVuSans-30"/>
      </g>
     </g>
    </g>
    <g id="ytick_2">
     <g id="line2d_3">
      <g>
       <use style="stroke:#000000;stroke-width:0.8;" x="36.8875" xlink:href="#m792206a216" y="76.317961"/>
      </g>
     </g>
     <g id="text_3">
      <!-- 200 -->
      <defs>
       <path d="M 19.1875 8.296875 
L 53.609375 8.296875 
L 53.609375 0 
L 7.328125 0 
L 7.328125 8.296875 
Q 12.9375 14.109375 22.625 23.890625 
Q 32.328125 33.6875 34.8125 36.53125 
Q 39.546875 41.84375 41.421875 45.53125 
Q 43.3125 49.21875 43.3125 52.78125 
Q 43.3125 58.59375 39.234375 62.25 
Q 35.15625 65.921875 28.609375 65.921875 
Q 23.96875 65.921875 18.8125 64.3125 
Q 13.671875 62.703125 7.8125 59.421875 
L 7.8125 69.390625 
Q 13.765625 71.78125 18.9375 73 
Q 24.125 74.21875 28.421875 74.21875 
Q 39.75 74.21875 46.484375 68.546875 
Q 53.21875 62.890625 53.21875 53.421875 
Q 53.21875 48.921875 51.53125 44.890625 
Q 49.859375 40.875 45.40625 35.40625 
Q 44.1875 33.984375 37.640625 27.21875 
Q 31.109375 20.453125 19.1875 8.296875 
z
" id="DejaVuSans-32"/>
      </defs>
      <g transform="translate(10.8 80.11718)scale(0.1 -0.1)">
       <use xlink:href="#DejaVuSans-32"/>
       <use x="63.623047" xlink:href="#DejaVuSans-30"/>
       <use x="127.246094" xlink:href="#DejaVuSans-30"/>
      </g>
     </g>
    </g>
    <g id="ytick_3">
     <g id="line2d_4">
      <g>
       <use style="stroke:#000000;stroke-width:0.8;" x="36.8875" xlink:href="#m792206a216" y="39.615042"/>
      </g>
     </g>
     <g id="text_4">
      <!-- 400 -->
      <defs>
       <path d="M 37.796875 64.3125 
L 12.890625 25.390625 
L 37.796875 25.390625 
z
M 35.203125 72.90625 
L 47.609375 72.90625 
L 47.609375 25.390625 
L 58.015625 25.390625 
L 58.015625 17.1875 
L 47.609375 17.1875 
L 47.609375 0 
L 37.796875 0 
L 37.796875 17.1875 
L 4.890625 17.1875 
L 4.890625 26.703125 
z
" id="DejaVuSans-34"/>
      </defs>
      <g transform="translate(10.8 43.414261)scale(0.1 -0.1)">
       <use xlink:href="#DejaVuSans-34"/>
       <use x="63.623047" xlink:href="#DejaVuSans-30"/>
       <use x="127.246094" xlink:href="#DejaVuSans-30"/>
      </g>
     </g>
    </g>
   </g>
   <g id="line2d_5">
    <path clip-path="url(#p330140fa64)" d="M 256.957813 107.387753 
L 334.629687 107.387753 
L 334.629687 93.26324 
L 256.957813 93.26324 
L 256.957813 107.387753 
" style="fill:none;stroke:#1f77b4;stroke-linecap:square;"/>
   </g>
   <g id="line2d_6">
    <path clip-path="url(#p330140fa64)" d="M 295.79375 107.387753 
L 295.79375 113.020881 
" style="fill:none;stroke:#1f77b4;stroke-linecap:square;"/>
   </g>
   <g id="line2d_7">
    <path clip-path="url(#p330140fa64)" d="M 295.79375 93.26324 
L 295.79375 72.32116 
" style="fill:none;stroke:#1f77b4;stroke-linecap:square;"/>
   </g>
   <g id="line2d_8">
    <path clip-path="url(#p330140fa64)" d="M 276.375781 113.020881 
L 315.211719 113.020881 
" style="fill:none;stroke:#000000;stroke-linecap:square;"/>
   </g>
   <g id="line2d_9">
    <path clip-path="url(#p330140fa64)" d="M 276.375781 72.32116 
L 315.211719 72.32116 
" style="fill:none;stroke:#000000;stroke-linecap:square;"/>
   </g>
   <g id="line2d_10">
    <defs>
     <path d="M 0 3 
C 0.795609 3 1.55874 2.683901 2.12132 2.12132 
C 2.683901 1.55874 3 0.795609 3 0 
C 3 -0.795609 2.683901 -1.55874 2.12132 -2.12132 
C 1.55874 -2.683901 0.795609 -3 0 -3 
C -0.795609 -3 -1.55874 -2.683901 -2.12132 -2.12132 
C -2.683901 -1.55874 -3 -0.795609 -3 0 
C -3 0.795609 -2.683901 1.55874 -2.12132 2.12132 
C -1.55874 2.683901 -0.795609 3 0 3 
z
" id="m00dd360da8" style="stroke:#000000;"/>
    </defs>
    <g clip-path="url(#p330140fa64)">
     <use style="fill-opacity:0;stroke:#000000;" x="295.79375" xlink:href="#m00dd360da8" y="71.266722"/>
     <use style="fill-opacity:0;stroke:#000000;" x="295.79375" xlink:href="#m00dd360da8" y="71.266722"/>
     <use style="fill-opacity:0;stroke:#000000;" x="295.79375" xlink:href="#m00dd360da8" y="67.597201"/>
     <use style="fill-opacity:0;stroke:#000000;" x="295.79375" xlink:href="#m00dd360da8" y="67.597201"/>
     <use style="fill-opacity:0;stroke:#000000;" x="295.79375" xlink:href="#m00dd360da8" y="71.266722"/>
     <use style="fill-opacity:0;stroke:#000000;" x="295.79375" xlink:href="#m00dd360da8" y="64.871238"/>
     <use style="fill-opacity:0;stroke:#000000;" x="295.79375" xlink:href="#m00dd360da8" y="19.000994"/>
     <use style="fill-opacity:0;stroke:#000000;" x="295.79375" xlink:href="#m00dd360da8" y="19.000994"/>
     <use style="fill-opacity:0;stroke:#000000;" x="295.79375" xlink:href="#m00dd360da8" y="64.871238"/>
     <use style="fill-opacity:0;stroke:#000000;" x="295.79375" xlink:href="#m00dd360da8" y="67.597201"/>
     <use style="fill-opacity:0;stroke:#000000;" x="295.79375" xlink:href="#m00dd360da8" y="71.266722"/>
     <use style="fill-opacity:0;stroke:#000000;" x="295.79375" xlink:href="#m00dd360da8" y="64.756542"/>
     <use style="fill-opacity:0;stroke:#000000;" x="295.79375" xlink:href="#m00dd360da8" y="64.756542"/>
     <use style="fill-opacity:0;stroke:#000000;" x="295.79375" xlink:href="#m00dd360da8" y="64.756542"/>
     <use style="fill-opacity:0;stroke:#000000;" x="295.79375" xlink:href="#m00dd360da8" y="64.756542"/>
     <use style="fill-opacity:0;stroke:#000000;" x="295.79375" xlink:href="#m00dd360da8" y="64.756542"/>
     <use style="fill-opacity:0;stroke:#000000;" x="295.79375" xlink:href="#m00dd360da8" y="64.756542"/>
     <use style="fill-opacity:0;stroke:#000000;" x="295.79375" xlink:href="#m00dd360da8" y="19.000994"/>
     <use style="fill-opacity:0;stroke:#000000;" x="295.79375" xlink:href="#m00dd360da8" y="71.266722"/>
     <use style="fill-opacity:0;stroke:#000000;" x="295.79375" xlink:href="#m00dd360da8" y="64.871238"/>
     <use style="fill-opacity:0;stroke:#000000;" x="295.79375" xlink:href="#m00dd360da8" y="64.871238"/>
     <use style="fill-opacity:0;stroke:#000000;" x="295.79375" xlink:href="#m00dd360da8" y="64.871238"/>
     <use style="fill-opacity:0;stroke:#000000;" x="295.79375" xlink:href="#m00dd360da8" y="64.871238"/>
     <use style="fill-opacity:0;stroke:#000000;" x="295.79375" xlink:href="#m00dd360da8" y="64.871238"/>
     <use style="fill-opacity:0;stroke:#000000;" x="295.79375" xlink:href="#m00dd360da8" y="19.000994"/>
    </g>
   </g>
   <g id="line2d_11">
    <path clip-path="url(#p330140fa64)" d="M 256.957813 102.010005 
L 334.629687 102.010005 
" style="fill:none;stroke:#2ca02c;stroke-linecap:square;"/>
   </g>
   <g id="patch_3">
    <path d="M 36.8875 117.721875 
L 36.8875 14.3 
" style="fill:none;stroke:#000000;stroke-linecap:square;stroke-linejoin:miter;stroke-width:0.8;"/>
   </g>
   <g id="patch_4">
    <path d="M 554.7 117.721875 
L 554.7 14.3 
" style="fill:none;stroke:#000000;stroke-linecap:square;stroke-linejoin:miter;stroke-width:0.8;"/>
   </g>
   <g id="patch_5">
    <path d="M 36.8875 117.721875 
L 554.7 117.721875 
" style="fill:none;stroke:#000000;stroke-linecap:square;stroke-linejoin:miter;stroke-width:0.8;"/>
   </g>
   <g id="patch_6">
    <path d="M 36.8875 14.3 
L 554.7 14.3 
" style="fill:none;stroke:#000000;stroke-linecap:square;stroke-linejoin:miter;stroke-width:0.8;"/>
   </g>
  </g>
  <g id="axes_2">
   <g id="patch_7">
    <path d="M 36.8875 252.121875 
L 554.7 252.121875 
L 554.7 148.7 
L 36.8875 148.7 
z
" style="fill:#ffffff;"/>
   </g>
   <g id="matplotlib.axis_3">
    <g id="xtick_2">
     <g id="line2d_12">
      <g>
       <use style="stroke:#000000;stroke-width:0.8;" x="295.79375" xlink:href="#me0dcf0b427" y="252.121875"/>
      </g>
     </g>
     <g id="text_5">
      <!-- fare -->
      <g transform="translate(285.839062 266.720312)scale(0.1 -0.1)">
       <use xlink:href="#DejaVuSans-66"/>
       <use x="35.205078" xlink:href="#DejaVuSans-61"/>
       <use x="96.484375" xlink:href="#DejaVuSans-72"/>
       <use x="137.566406" xlink:href="#DejaVuSans-65"/>
      </g>
     </g>
    </g>
   </g>
   <g id="matplotlib.axis_4">
    <g id="ytick_4">
     <g id="line2d_13">
      <g>
       <use style="stroke:#000000;stroke-width:0.8;" x="36.8875" xlink:href="#m792206a216" y="247.420881"/>
      </g>
     </g>
     <g id="text_6">
      <!-- 0 -->
      <g transform="translate(23.525 251.220099)scale(0.1 -0.1)">
       <use xlink:href="#DejaVuSans-30"/>
      </g>
     </g>
    </g>
    <g id="ytick_5">
     <g id="line2d_14">
      <g>
       <use style="stroke:#000000;stroke-width:0.8;" x="36.8875" xlink:href="#m792206a216" y="221.837238"/>
      </g>
     </g>
     <g id="text_7">
      <!-- 20 -->
      <g transform="translate(17.1625 225.636457)scale(0.1 -0.1)">
       <use xlink:href="#DejaVuSans-32"/>
       <use x="63.623047" xlink:href="#DejaVuSans-30"/>
      </g>
     </g>
    </g>
    <g id="ytick_6">
     <g id="line2d_15">
      <g>
       <use style="stroke:#000000;stroke-width:0.8;" x="36.8875" xlink:href="#m792206a216" y="196.253596"/>
      </g>
     </g>
     <g id="text_8">
      <!-- 40 -->
      <g transform="translate(17.1625 200.052814)scale(0.1 -0.1)">
       <use xlink:href="#DejaVuSans-34"/>
       <use x="63.623047" xlink:href="#DejaVuSans-30"/>
      </g>
     </g>
    </g>
    <g id="ytick_7">
     <g id="line2d_16">
      <g>
       <use style="stroke:#000000;stroke-width:0.8;" x="36.8875" xlink:href="#m792206a216" y="170.669953"/>
      </g>
     </g>
     <g id="text_9">
      <!-- 60 -->
      <defs>
       <path d="M 33.015625 40.375 
Q 26.375 40.375 22.484375 35.828125 
Q 18.609375 31.296875 18.609375 23.390625 
Q 18.609375 15.53125 22.484375 10.953125 
Q 26.375 6.390625 33.015625 6.390625 
Q 39.65625 6.390625 43.53125 10.953125 
Q 47.40625 15.53125 47.40625 23.390625 
Q 47.40625 31.296875 43.53125 35.828125 
Q 39.65625 40.375 33.015625 40.375 
z
M 52.59375 71.296875 
L 52.59375 62.3125 
Q 48.875 64.0625 45.09375 64.984375 
Q 41.3125 65.921875 37.59375 65.921875 
Q 27.828125 65.921875 22.671875 59.328125 
Q 17.53125 52.734375 16.796875 39.40625 
Q 19.671875 43.65625 24.015625 45.921875 
Q 28.375 48.1875 33.59375 48.1875 
Q 44.578125 48.1875 50.953125 41.515625 
Q 57.328125 34.859375 57.328125 23.390625 
Q 57.328125 12.15625 50.6875 5.359375 
Q 44.046875 -1.421875 33.015625 -1.421875 
Q 20.359375 -1.421875 13.671875 8.265625 
Q 6.984375 17.96875 6.984375 36.375 
Q 6.984375 53.65625 15.1875 63.9375 
Q 23.390625 74.21875 37.203125 74.21875 
Q 40.921875 74.21875 44.703125 73.484375 
Q 48.484375 72.75 52.59375 71.296875 
z
" id="DejaVuSans-36"/>
      </defs>
      <g transform="translate(17.1625 174.469172)scale(0.1 -0.1)">
       <use xlink:href="#DejaVuSans-36"/>
       <use x="63.623047" xlink:href="#DejaVuSans-30"/>
      </g>
     </g>
    </g>
   </g>
   <g id="line2d_17">
    <path clip-path="url(#p602f60fe92)" d="M 256.957813 230.791513 
L 334.629687 230.791513 
L 334.629687 214.162145 
L 256.957813 214.162145 
L 256.957813 230.791513 
" style="fill:none;stroke:#1f77b4;stroke-linecap:square;"/>
   </g>
   <g id="line2d_18">
    <path clip-path="url(#p602f60fe92)" d="M 295.79375 230.791513 
L 295.79375 247.420881 
" style="fill:none;stroke:#1f77b4;stroke-linecap:square;"/>
   </g>
   <g id="line2d_19">
    <path clip-path="url(#p602f60fe92)" d="M 295.79375 214.162145 
L 295.79375 194.233511 
" style="fill:none;stroke:#1f77b4;stroke-linecap:square;"/>
   </g>
   <g id="line2d_20">
    <path clip-path="url(#p602f60fe92)" d="M 276.375781 247.420881 
L 315.211719 247.420881 
" style="fill:none;stroke:#000000;stroke-linecap:square;"/>
   </g>
   <g id="line2d_21">
    <path clip-path="url(#p602f60fe92)" d="M 276.375781 194.233511 
L 315.211719 194.233511 
" style="fill:none;stroke:#000000;stroke-linecap:square;"/>
   </g>
   <g id="line2d_22">
    <g clip-path="url(#p602f60fe92)">
     <use style="fill-opacity:0;stroke:#000000;" x="295.79375" xlink:href="#m00dd360da8" y="153.400994"/>
     <use style="fill-opacity:0;stroke:#000000;" x="295.79375" xlink:href="#m00dd360da8" y="153.400994"/>
     <use style="fill-opacity:0;stroke:#000000;" x="295.79375" xlink:href="#m00dd360da8" y="153.400994"/>
     <use style="fill-opacity:0;stroke:#000000;" x="295.79375" xlink:href="#m00dd360da8" y="164.274042"/>
     <use style="fill-opacity:0;stroke:#000000;" x="295.79375" xlink:href="#m00dd360da8" y="164.274042"/>
     <use style="fill-opacity:0;stroke:#000000;" x="295.79375" xlink:href="#m00dd360da8" y="164.274042"/>
     <use style="fill-opacity:0;stroke:#000000;" x="295.79375" xlink:href="#m00dd360da8" y="164.274042"/>
     <use style="fill-opacity:0;stroke:#000000;" x="295.79375" xlink:href="#m00dd360da8" y="153.400994"/>
     <use style="fill-opacity:0;stroke:#000000;" x="295.79375" xlink:href="#m00dd360da8" y="153.400994"/>
     <use style="fill-opacity:0;stroke:#000000;" x="295.79375" xlink:href="#m00dd360da8" y="153.400994"/>
     <use style="fill-opacity:0;stroke:#000000;" x="295.79375" xlink:href="#m00dd360da8" y="153.400994"/>
     <use style="fill-opacity:0;stroke:#000000;" x="295.79375" xlink:href="#m00dd360da8" y="164.274042"/>
    </g>
   </g>
   <g id="line2d_23">
    <path clip-path="url(#p602f60fe92)" d="M 256.957813 228.174562 
L 334.629687 228.174562 
" style="fill:none;stroke:#2ca02c;stroke-linecap:square;"/>
   </g>
   <g id="patch_8">
    <path d="M 36.8875 252.121875 
L 36.8875 148.7 
" style="fill:none;stroke:#000000;stroke-linecap:square;stroke-linejoin:miter;stroke-width:0.8;"/>
   </g>
   <g id="patch_9">
    <path d="M 554.7 252.121875 
L 554.7 148.7 
" style="fill:none;stroke:#000000;stroke-linecap:square;stroke-linejoin:miter;stroke-width:0.8;"/>
   </g>
   <g id="patch_10">
    <path d="M 36.8875 252.121875 
L 554.7 252.121875 
" style="fill:none;stroke:#000000;stroke-linecap:square;stroke-linejoin:miter;stroke-width:0.8;"/>
   </g>
   <g id="patch_11">
    <path d="M 36.8875 148.7 
L 554.7 148.7 
" style="fill:none;stroke:#000000;stroke-linecap:square;stroke-linejoin:miter;stroke-width:0.8;"/>
   </g>
  </g>
  <g id="axes_3">
   <g id="patch_12">
    <path d="M 36.8875 386.521875 
L 554.7 386.521875 
L 554.7 283.1 
L 36.8875 283.1 
z
" style="fill:#ffffff;"/>
   </g>
   <g id="matplotlib.axis_5">
    <g id="xtick_3">
     <g id="line2d_24">
      <g>
       <use style="stroke:#000000;stroke-width:0.8;" x="295.79375" xlink:href="#me0dcf0b427" y="386.521875"/>
      </g>
     </g>
     <g id="text_10">
      <!-- fare -->
      <g transform="translate(285.839062 401.120313)scale(0.1 -0.1)">
       <use xlink:href="#DejaVuSans-66"/>
       <use x="35.205078" xlink:href="#DejaVuSans-61"/>
       <use x="96.484375" xlink:href="#DejaVuSans-72"/>
       <use x="137.566406" xlink:href="#DejaVuSans-65"/>
      </g>
     </g>
    </g>
   </g>
   <g id="matplotlib.axis_6">
    <g id="ytick_8">
     <g id="line2d_25">
      <g>
       <use style="stroke:#000000;stroke-width:0.8;" x="36.8875" xlink:href="#m792206a216" y="381.820881"/>
      </g>
     </g>
     <g id="text_11">
      <!-- 0 -->
      <g transform="translate(23.525 385.620099)scale(0.1 -0.1)">
       <use xlink:href="#DejaVuSans-30"/>
      </g>
     </g>
    </g>
    <g id="ytick_9">
     <g id="line2d_26">
      <g>
       <use style="stroke:#000000;stroke-width:0.8;" x="36.8875" xlink:href="#m792206a216" y="354.784249"/>
      </g>
     </g>
     <g id="text_12">
      <!-- 20 -->
      <g transform="translate(17.1625 358.583468)scale(0.1 -0.1)">
       <use xlink:href="#DejaVuSans-32"/>
       <use x="63.623047" xlink:href="#DejaVuSans-30"/>
      </g>
     </g>
    </g>
    <g id="ytick_10">
     <g id="line2d_27">
      <g>
       <use style="stroke:#000000;stroke-width:0.8;" x="36.8875" xlink:href="#m792206a216" y="327.747617"/>
      </g>
     </g>
     <g id="text_13">
      <!-- 40 -->
      <g transform="translate(17.1625 331.546836)scale(0.1 -0.1)">
       <use xlink:href="#DejaVuSans-34"/>
       <use x="63.623047" xlink:href="#DejaVuSans-30"/>
      </g>
     </g>
    </g>
    <g id="ytick_11">
     <g id="line2d_28">
      <g>
       <use style="stroke:#000000;stroke-width:0.8;" x="36.8875" xlink:href="#m792206a216" y="300.710986"/>
      </g>
     </g>
     <g id="text_14">
      <!-- 60 -->
      <g transform="translate(17.1625 304.510205)scale(0.1 -0.1)">
       <use xlink:href="#DejaVuSans-36"/>
       <use x="63.623047" xlink:href="#DejaVuSans-30"/>
      </g>
     </g>
    </g>
   </g>
   <g id="line2d_29">
    <path clip-path="url(#p4e2e9aff8f)" d="M 256.957813 371.344186 
L 334.629687 371.344186 
L 334.629687 361.211127 
L 256.957813 361.211127 
L 256.957813 371.344186 
" style="fill:none;stroke:#1f77b4;stroke-linecap:square;"/>
   </g>
   <g id="line2d_30">
    <path clip-path="url(#p4e2e9aff8f)" d="M 295.79375 371.344186 
L 295.79375 381.820881 
" style="fill:none;stroke:#1f77b4;stroke-linecap:square;"/>
   </g>
   <g id="line2d_31">
    <path clip-path="url(#p4e2e9aff8f)" d="M 295.79375 361.211127 
L 295.79375 347.394191 
" style="fill:none;stroke:#1f77b4;stroke-linecap:square;"/>
   </g>
   <g id="line2d_32">
    <path clip-path="url(#p4e2e9aff8f)" d="M 276.375781 381.820881 
L 315.211719 381.820881 
" style="fill:none;stroke:#000000;stroke-linecap:square;"/>
   </g>
   <g id="line2d_33">
    <path clip-path="url(#p4e2e9aff8f)" d="M 276.375781 347.394191 
L 315.211719 347.394191 
" style="fill:none;stroke:#000000;stroke-linecap:square;"/>
   </g>
   <g id="line2d_34">
    <g clip-path="url(#p4e2e9aff8f)">
     <use style="fill-opacity:0;stroke:#000000;" x="295.79375" xlink:href="#m00dd360da8" y="339.542348"/>
     <use style="fill-opacity:0;stroke:#000000;" x="295.79375" xlink:href="#m00dd360da8" y="339.542348"/>
     <use style="fill-opacity:0;stroke:#000000;" x="295.79375" xlink:href="#m00dd360da8" y="339.542348"/>
     <use style="fill-opacity:0;stroke:#000000;" x="295.79375" xlink:href="#m00dd360da8" y="339.542348"/>
     <use style="fill-opacity:0;stroke:#000000;" x="295.79375" xlink:href="#m00dd360da8" y="339.542348"/>
     <use style="fill-opacity:0;stroke:#000000;" x="295.79375" xlink:href="#m00dd360da8" y="339.542348"/>
     <use style="fill-opacity:0;stroke:#000000;" x="295.79375" xlink:href="#m00dd360da8" y="339.542348"/>
     <use style="fill-opacity:0;stroke:#000000;" x="295.79375" xlink:href="#m00dd360da8" y="339.390267"/>
     <use style="fill-opacity:0;stroke:#000000;" x="295.79375" xlink:href="#m00dd360da8" y="339.390267"/>
     <use style="fill-opacity:0;stroke:#000000;" x="295.79375" xlink:href="#m00dd360da8" y="339.390267"/>
     <use style="fill-opacity:0;stroke:#000000;" x="295.79375" xlink:href="#m00dd360da8" y="339.390267"/>
     <use style="fill-opacity:0;stroke:#000000;" x="295.79375" xlink:href="#m00dd360da8" y="339.390267"/>
     <use style="fill-opacity:0;stroke:#000000;" x="295.79375" xlink:href="#m00dd360da8" y="339.390267"/>
     <use style="fill-opacity:0;stroke:#000000;" x="295.79375" xlink:href="#m00dd360da8" y="339.390267"/>
     <use style="fill-opacity:0;stroke:#000000;" x="295.79375" xlink:href="#m00dd360da8" y="305.448074"/>
     <use style="fill-opacity:0;stroke:#000000;" x="295.79375" xlink:href="#m00dd360da8" y="305.448074"/>
     <use style="fill-opacity:0;stroke:#000000;" x="295.79375" xlink:href="#m00dd360da8" y="305.448074"/>
     <use style="fill-opacity:0;stroke:#000000;" x="295.79375" xlink:href="#m00dd360da8" y="335.35167"/>
     <use style="fill-opacity:0;stroke:#000000;" x="295.79375" xlink:href="#m00dd360da8" y="335.35167"/>
     <use style="fill-opacity:0;stroke:#000000;" x="295.79375" xlink:href="#m00dd360da8" y="335.35167"/>
     <use style="fill-opacity:0;stroke:#000000;" x="295.79375" xlink:href="#m00dd360da8" y="335.35167"/>
     <use style="fill-opacity:0;stroke:#000000;" x="295.79375" xlink:href="#m00dd360da8" y="335.35167"/>
     <use style="fill-opacity:0;stroke:#000000;" x="295.79375" xlink:href="#m00dd360da8" y="318.41998"/>
     <use style="fill-opacity:0;stroke:#000000;" x="295.79375" xlink:href="#m00dd360da8" y="318.41998"/>
     <use style="fill-opacity:0;stroke:#000000;" x="295.79375" xlink:href="#m00dd360da8" y="318.41998"/>
     <use style="fill-opacity:0;stroke:#000000;" x="295.79375" xlink:href="#m00dd360da8" y="318.41998"/>
     <use style="fill-opacity:0;stroke:#000000;" x="295.79375" xlink:href="#m00dd360da8" y="318.41998"/>
     <use style="fill-opacity:0;stroke:#000000;" x="295.79375" xlink:href="#m00dd360da8" y="318.41998"/>
     <use style="fill-opacity:0;stroke:#000000;" x="295.79375" xlink:href="#m00dd360da8" y="318.41998"/>
     <use style="fill-opacity:0;stroke:#000000;" x="295.79375" xlink:href="#m00dd360da8" y="318.41998"/>
     <use style="fill-opacity:0;stroke:#000000;" x="295.79375" xlink:href="#m00dd360da8" y="305.448074"/>
     <use style="fill-opacity:0;stroke:#000000;" x="295.79375" xlink:href="#m00dd360da8" y="305.448074"/>
     <use style="fill-opacity:0;stroke:#000000;" x="295.79375" xlink:href="#m00dd360da8" y="305.448074"/>
     <use style="fill-opacity:0;stroke:#000000;" x="295.79375" xlink:href="#m00dd360da8" y="305.448074"/>
     <use style="fill-opacity:0;stroke:#000000;" x="295.79375" xlink:href="#m00dd360da8" y="305.448074"/>
     <use style="fill-opacity:0;stroke:#000000;" x="295.79375" xlink:href="#m00dd360da8" y="328.170065"/>
     <use style="fill-opacity:0;stroke:#000000;" x="295.79375" xlink:href="#m00dd360da8" y="328.170065"/>
     <use style="fill-opacity:0;stroke:#000000;" x="295.79375" xlink:href="#m00dd360da8" y="328.170065"/>
     <use style="fill-opacity:0;stroke:#000000;" x="295.79375" xlink:href="#m00dd360da8" y="328.170065"/>
     <use style="fill-opacity:0;stroke:#000000;" x="295.79375" xlink:href="#m00dd360da8" y="328.170065"/>
     <use style="fill-opacity:0;stroke:#000000;" x="295.79375" xlink:href="#m00dd360da8" y="328.170065"/>
     <use style="fill-opacity:0;stroke:#000000;" x="295.79375" xlink:href="#m00dd360da8" y="342.448786"/>
     <use style="fill-opacity:0;stroke:#000000;" x="295.79375" xlink:href="#m00dd360da8" y="342.448786"/>
     <use style="fill-opacity:0;stroke:#000000;" x="295.79375" xlink:href="#m00dd360da8" y="342.448786"/>
     <use style="fill-opacity:0;stroke:#000000;" x="295.79375" xlink:href="#m00dd360da8" y="342.448786"/>
     <use style="fill-opacity:0;stroke:#000000;" x="295.79375" xlink:href="#m00dd360da8" y="342.448786"/>
     <use style="fill-opacity:0;stroke:#000000;" x="295.79375" xlink:href="#m00dd360da8" y="342.448786"/>
     <use style="fill-opacity:0;stroke:#000000;" x="295.79375" xlink:href="#m00dd360da8" y="328.170065"/>
     <use style="fill-opacity:0;stroke:#000000;" x="295.79375" xlink:href="#m00dd360da8" y="287.800994"/>
     <use style="fill-opacity:0;stroke:#000000;" x="295.79375" xlink:href="#m00dd360da8" y="287.800994"/>
     <use style="fill-opacity:0;stroke:#000000;" x="295.79375" xlink:href="#m00dd360da8" y="287.800994"/>
     <use style="fill-opacity:0;stroke:#000000;" x="295.79375" xlink:href="#m00dd360da8" y="287.800994"/>
     <use style="fill-opacity:0;stroke:#000000;" x="295.79375" xlink:href="#m00dd360da8" y="287.800994"/>
     <use style="fill-opacity:0;stroke:#000000;" x="295.79375" xlink:href="#m00dd360da8" y="287.800994"/>
     <use style="fill-opacity:0;stroke:#000000;" x="295.79375" xlink:href="#m00dd360da8" y="287.800994"/>
     <use style="fill-opacity:0;stroke:#000000;" x="295.79375" xlink:href="#m00dd360da8" y="287.800994"/>
     <use style="fill-opacity:0;stroke:#000000;" x="295.79375" xlink:href="#m00dd360da8" y="287.800994"/>
     <use style="fill-opacity:0;stroke:#000000;" x="295.79375" xlink:href="#m00dd360da8" y="287.800994"/>
     <use style="fill-opacity:0;stroke:#000000;" x="295.79375" xlink:href="#m00dd360da8" y="287.800994"/>
     <use style="fill-opacity:0;stroke:#000000;" x="295.79375" xlink:href="#m00dd360da8" y="344.10478"/>
     <use style="fill-opacity:0;stroke:#000000;" x="295.79375" xlink:href="#m00dd360da8" y="344.10478"/>
     <use style="fill-opacity:0;stroke:#000000;" x="295.79375" xlink:href="#m00dd360da8" y="344.10478"/>
     <use style="fill-opacity:0;stroke:#000000;" x="295.79375" xlink:href="#m00dd360da8" y="344.10478"/>
     <use style="fill-opacity:0;stroke:#000000;" x="295.79375" xlink:href="#m00dd360da8" y="344.10478"/>
     <use style="fill-opacity:0;stroke:#000000;" x="295.79375" xlink:href="#m00dd360da8" y="344.10478"/>
    </g>
   </g>
   <g id="line2d_35">
    <path clip-path="url(#p4e2e9aff8f)" d="M 256.957813 370.938636 
L 334.629687 370.938636 
" style="fill:none;stroke:#2ca02c;stroke-linecap:square;"/>
   </g>
   <g id="patch_13">
    <path d="M 36.8875 386.521875 
L 36.8875 283.1 
" style="fill:none;stroke:#000000;stroke-linecap:square;stroke-linejoin:miter;stroke-width:0.8;"/>
   </g>
   <g id="patch_14">
    <path d="M 554.7 386.521875 
L 554.7 283.1 
" style="fill:none;stroke:#000000;stroke-linecap:square;stroke-linejoin:miter;stroke-width:0.8;"/>
   </g>
   <g id="patch_15">
    <path d="M 36.8875 386.521875 
L 554.7 386.521875 
" style="fill:none;stroke:#000000;stroke-linecap:square;stroke-linejoin:miter;stroke-width:0.8;"/>
   </g>
   <g id="patch_16">
    <path d="M 36.8875 283.1 
L 554.7 283.1 
" style="fill:none;stroke:#000000;stroke-linecap:square;stroke-linejoin:miter;stroke-width:0.8;"/>
   </g>
  </g>
 </g>
 <defs>
  <clipPath id="p330140fa64">
   <rect height="103.421875" width="517.8125" x="36.8875" y="14.3"/>
  </clipPath>
  <clipPath id="p602f60fe92">
   <rect height="103.421875" width="517.8125" x="36.8875" y="148.7"/>
  </clipPath>
  <clipPath id="p4e2e9aff8f">
   <rect height="103.421875" width="517.8125" x="36.8875" y="283.1"/>
  </clipPath>
 </defs>
</svg>
