<?xml version="1.0" encoding="utf-8" standalone="no"?>
<!DOCTYPE svg PUBLIC "-//W3C//DTD SVG 1.1//EN"
  "http://www.w3.org/Graphics/SVG/1.1/DTD/svg11.dtd">
<!-- Created with matplotlib (http://matplotlib.org/) -->
<svg height="414pt" version="1.1" viewBox="0 0 566 414" width="566pt" xmlns="http://www.w3.org/2000/svg" xmlns:xlink="http://www.w3.org/1999/xlink">
 <defs>
  <style type="text/css">
*{stroke-linecap:butt;stroke-linejoin:round;}
  </style>
 </defs>
 <g id="figure_1">
  <g id="patch_1">
   <path d="M 0 414 
L 566 414 
L 566 0 
L 0 0 
z
" style="fill:#ffffff;"/>
  </g>
  <g id="axes_1">
   <g id="patch_2">
    <path d="M 40.065625 339.250313 
L 551.7 339.250313 
L 551.7 14.3 
L 40.065625 14.3 
z
" style="fill:#ffffff;"/>
   </g>
   <g id="matplotlib.axis_1">
    <g id="xtick_1">
     <g id="line2d_1">
      <defs>
       <path d="M 0 0 
L 0 3.5 
" id="m7ee4b63c00" style="stroke:#000000;stroke-width:0.8;"/>
      </defs>
      <g>
       <use style="stroke:#000000;stroke-width:0.8;" x="63.321733" xlink:href="#m7ee4b63c00" y="339.250313"/>
      </g>
     </g>
     <g id="text_1">
      <!--  -->
      <g transform="translate(63.321733 353.84875)scale(0.1 -0.1)"/>
      <!--  -->
      <g transform="translate(63.321733 365.046562)scale(0.1 -0.1)"/>
      <!-- Jan -->
      <defs>
       <path d="M 9.8125 72.90625 
L 19.671875 72.90625 
L 19.671875 5.078125 
Q 19.671875 -8.109375 14.671875 -14.0625 
Q 9.671875 -20.015625 -1.421875 -20.015625 
L -5.171875 -20.015625 
L -5.171875 -11.71875 
L -2.09375 -11.71875 
Q 4.4375 -11.71875 7.125 -8.046875 
Q 9.8125 -4.390625 9.8125 5.078125 
z
" id="DejaVuSans-4a"/>
       <path d="M 34.28125 27.484375 
Q 23.390625 27.484375 19.1875 25 
Q 14.984375 22.515625 14.984375 16.5 
Q 14.984375 11.71875 18.140625 8.90625 
Q 21.296875 6.109375 26.703125 6.109375 
Q 34.1875 6.109375 38.703125 11.40625 
Q 43.21875 16.703125 43.21875 25.484375 
L 43.21875 27.484375 
z
M 52.203125 31.203125 
L 52.203125 0 
L 43.21875 0 
L 43.21875 8.296875 
Q 40.140625 3.328125 35.546875 0.953125 
Q 30.953125 -1.421875 24.3125 -1.421875 
Q 15.921875 -1.421875 10.953125 3.296875 
Q 6 8.015625 6 15.921875 
Q 6 25.140625 12.171875 29.828125 
Q 18.359375 34.515625 30.609375 34.515625 
L 43.21875 34.515625 
L 43.21875 35.40625 
Q 43.21875 41.609375 39.140625 45 
Q 35.0625 48.390625 27.6875 48.390625 
Q 23 48.390625 18.546875 47.265625 
Q 14.109375 46.140625 10.015625 43.890625 
L 10.015625 52.203125 
Q 14.9375 54.109375 19.578125 55.046875 
Q 24.21875 56 28.609375 56 
Q 40.484375 56 46.34375 49.84375 
Q 52.203125 43.703125 52.203125 31.203125 
z
" id="DejaVuSans-61"/>
       <path d="M 54.890625 33.015625 
L 54.890625 0 
L 45.90625 0 
L 45.90625 32.71875 
Q 45.90625 40.484375 42.875 44.328125 
Q 39.84375 48.1875 33.796875 48.1875 
Q 26.515625 48.1875 22.3125 43.546875 
Q 18.109375 38.921875 18.109375 30.90625 
L 18.109375 0 
L 9.078125 0 
L 9.078125 54.6875 
L 18.109375 54.6875 
L 18.109375 46.1875 
Q 21.34375 51.125 25.703125 53.5625 
Q 30.078125 56 35.796875 56 
Q 45.21875 56 50.046875 50.171875 
Q 54.890625 44.34375 54.890625 33.015625 
z
" id="DejaVuSans-6e"/>
      </defs>
      <g transform="translate(55.61392 376.244375)scale(0.1 -0.1)">
       <use xlink:href="#DejaVuSans-4a"/>
       <use x="29.492188" xlink:href="#DejaVuSans-61"/>
       <use x="90.771484" xlink:href="#DejaVuSans-6e"/>
      </g>
      <!-- 2010 -->
      <defs>
       <path d="M 19.1875 8.296875 
L 53.609375 8.296875 
L 53.609375 0 
L 7.328125 0 
L 7.328125 8.296875 
Q 12.9375 14.109375 22.625 23.890625 
Q 32.328125 33.6875 34.8125 36.53125 
Q 39.546875 41.84375 41.421875 45.53125 
Q 43.3125 49.21875 43.3125 52.78125 
Q 43.3125 58.59375 39.234375 62.25 
Q 35.15625 65.921875 28.609375 65.921875 
Q 23.96875 65.921875 18.8125 64.3125 
Q 13.671875 62.703125 7.8125 59.421875 
L 7.8125 69.390625 
Q 13.765625 71.78125 18.9375 73 
Q 24.125 74.21875 28.421875 74.21875 
Q 39.75 74.21875 46.484375 68.546875 
Q 53.21875 62.890625 53.21875 53.421875 
Q 53.21875 48.921875 51.53125 44.890625 
Q 49.859375 40.875 45.40625 35.40625 
Q 44.1875 33.984375 37.640625 27.21875 
Q 31.109375 20.453125 19.1875 8.296875 
z
" id="DejaVuSans-32"/>
       <path d="M 31.78125 66.40625 
Q 24.171875 66.40625 20.328125 58.90625 
Q 16.5 51.421875 16.5 36.375 
Q 16.5 21.390625 20.328125 13.890625 
Q 24.171875 6.390625 31.78125 6.390625 
Q 39.453125 6.390625 43.28125 13.890625 
Q 47.125 21.390625 47.125 36.375 
Q 47.125 51.421875 43.28125 58.90625 
Q 39.453125 66.40625 31.78125 66.40625 
z
M 31.78125 74.21875 
Q 44.046875 74.21875 50.515625 64.515625 
Q 56.984375 54.828125 56.984375 36.375 
Q 56.984375 17.96875 50.515625 8.265625 
Q 44.046875 -1.421875 31.78125 -1.421875 
Q 19.53125 -1.421875 13.0625 8.265625 
Q 6.59375 17.96875 6.59375 36.375 
Q 6.59375 54.828125 13.0625 64.515625 
Q 19.53125 74.21875 31.78125 74.21875 
z
" id="DejaVuSans-30"/>
       <path d="M 12.40625 8.296875 
L 28.515625 8.296875 
L 28.515625 63.921875 
L 10.984375 60.40625 
L 10.984375 69.390625 
L 28.421875 72.90625 
L 38.28125 72.90625 
L 38.28125 8.296875 
L 54.390625 8.296875 
L 54.390625 0 
L 12.40625 0 
z
" id="DejaVuSans-31"/>
      </defs>
      <g transform="translate(50.596733 387.442187)scale(0.1 -0.1)">
       <use xlink:href="#DejaVuSans-32"/>
       <use x="63.623047" xlink:href="#DejaVuSans-30"/>
       <use x="127.246094" xlink:href="#DejaVuSans-31"/>
       <use x="190.869141" xlink:href="#DejaVuSans-30"/>
      </g>
     </g>
    </g>
    <g id="xtick_2">
     <g id="line2d_2">
      <g>
       <use style="stroke:#000000;stroke-width:0.8;" x="528.443892" xlink:href="#m7ee4b63c00" y="339.250313"/>
      </g>
     </g>
     <g id="text_2">
      <!--  -->
      <g transform="translate(528.443892 353.84875)scale(0.1 -0.1)"/>
      <!--  -->
      <g transform="translate(528.443892 365.046562)scale(0.1 -0.1)"/>
      <!-- Feb -->
      <defs>
       <path d="M 9.8125 72.90625 
L 51.703125 72.90625 
L 51.703125 64.59375 
L 19.671875 64.59375 
L 19.671875 43.109375 
L 48.578125 43.109375 
L 48.578125 34.8125 
L 19.671875 34.8125 
L 19.671875 0 
L 9.8125 0 
z
" id="DejaVuSans-46"/>
       <path d="M 56.203125 29.59375 
L 56.203125 25.203125 
L 14.890625 25.203125 
Q 15.484375 15.921875 20.484375 11.0625 
Q 25.484375 6.203125 34.421875 6.203125 
Q 39.59375 6.203125 44.453125 7.46875 
Q 49.3125 8.734375 54.109375 11.28125 
L 54.109375 2.78125 
Q 49.265625 0.734375 44.1875 -0.34375 
Q 39.109375 -1.421875 33.890625 -1.421875 
Q 20.796875 -1.421875 13.15625 6.1875 
Q 5.515625 13.8125 5.515625 26.8125 
Q 5.515625 40.234375 12.765625 48.109375 
Q 20.015625 56 32.328125 56 
Q 43.359375 56 49.78125 48.890625 
Q 56.203125 41.796875 56.203125 29.59375 
z
M 47.21875 32.234375 
Q 47.125 39.59375 43.09375 43.984375 
Q 39.0625 48.390625 32.421875 48.390625 
Q 24.90625 48.390625 20.390625 44.140625 
Q 15.875 39.890625 15.1875 32.171875 
z
" id="DejaVuSans-65"/>
       <path d="M 48.6875 27.296875 
Q 48.6875 37.203125 44.609375 42.84375 
Q 40.53125 48.484375 33.40625 48.484375 
Q 26.265625 48.484375 22.1875 42.84375 
Q 18.109375 37.203125 18.109375 27.296875 
Q 18.109375 17.390625 22.1875 11.75 
Q 26.265625 6.109375 33.40625 6.109375 
Q 40.53125 6.109375 44.609375 11.75 
Q 48.6875 17.390625 48.6875 27.296875 
z
M 18.109375 46.390625 
Q 20.953125 51.265625 25.265625 53.625 
Q 29.59375 56 35.59375 56 
Q 45.5625 56 51.78125 48.09375 
Q 58.015625 40.1875 58.015625 27.296875 
Q 58.015625 14.40625 51.78125 6.484375 
Q 45.5625 -1.421875 35.59375 -1.421875 
Q 29.59375 -1.421875 25.265625 0.953125 
Q 20.953125 3.328125 18.109375 8.203125 
L 18.109375 0 
L 9.078125 0 
L 9.078125 75.984375 
L 18.109375 75.984375 
z
" id="DejaVuSans-62"/>
      </defs>
      <g transform="translate(519.321236 376.244375)scale(0.1 -0.1)">
       <use xlink:href="#DejaVuSans-46"/>
       <use x="57.441406" xlink:href="#DejaVuSans-65"/>
       <use x="118.964844" xlink:href="#DejaVuSans-62"/>
      </g>
     </g>
    </g>
    <g id="xtick_3">
     <g id="line2d_3">
      <g>
       <use style="stroke:#000000;stroke-width:0.8;" x="551.574967" xlink:href="#m7ee4b63c00" y="339.250313"/>
      </g>
     </g>
    </g>
    <g id="xtick_4">
     <g id="line2d_4">
      <defs>
       <path d="M 0 0 
L 0 2 
" id="m5311ef37df" style="stroke:#000000;stroke-width:0.6;"/>
      </defs>
      <g>
       <use style="stroke:#000000;stroke-width:0.6;" x="48.317792" xlink:href="#m5311ef37df" y="339.250313"/>
      </g>
     </g>
    </g>
    <g id="xtick_5">
     <g id="line2d_5">
      <g>
       <use style="stroke:#000000;stroke-width:0.6;" x="63.321733" xlink:href="#m5311ef37df" y="339.250313"/>
      </g>
     </g>
    </g>
    <g id="xtick_6">
     <g id="line2d_6">
      <g>
       <use style="stroke:#000000;stroke-width:0.6;" x="78.325674" xlink:href="#m5311ef37df" y="339.250313"/>
      </g>
     </g>
    </g>
    <g id="xtick_7">
     <g id="line2d_7">
      <g>
       <use style="stroke:#000000;stroke-width:0.6;" x="93.329614" xlink:href="#m5311ef37df" y="339.250313"/>
      </g>
     </g>
    </g>
    <g id="xtick_8">
     <g id="line2d_8">
      <g>
       <use style="stroke:#000000;stroke-width:0.6;" x="108.333555" xlink:href="#m5311ef37df" y="339.250313"/>
      </g>
     </g>
     <g id="text_3">
      <!-- 04 -->
      <defs>
       <path d="M 37.796875 64.3125 
L 12.890625 25.390625 
L 37.796875 25.390625 
z
M 35.203125 72.90625 
L 47.609375 72.90625 
L 47.609375 25.390625 
L 58.015625 25.390625 
L 58.015625 17.1875 
L 47.609375 17.1875 
L 47.609375 0 
L 37.796875 0 
L 37.796875 17.1875 
L 4.890625 17.1875 
L 4.890625 26.703125 
z
" id="DejaVuSans-34"/>
      </defs>
      <g transform="translate(101.971055 352.24875)scale(0.1 -0.1)">
       <use xlink:href="#DejaVuSans-30"/>
       <use x="63.623047" xlink:href="#DejaVuSans-34"/>
      </g>
     </g>
    </g>
    <g id="xtick_9">
     <g id="line2d_9">
      <g>
       <use style="stroke:#000000;stroke-width:0.6;" x="123.337495" xlink:href="#m5311ef37df" y="339.250313"/>
      </g>
     </g>
    </g>
    <g id="xtick_10">
     <g id="line2d_10">
      <g>
       <use style="stroke:#000000;stroke-width:0.6;" x="138.341436" xlink:href="#m5311ef37df" y="339.250313"/>
      </g>
     </g>
    </g>
    <g id="xtick_11">
     <g id="line2d_11">
      <g>
       <use style="stroke:#000000;stroke-width:0.6;" x="153.345377" xlink:href="#m5311ef37df" y="339.250313"/>
      </g>
     </g>
    </g>
    <g id="xtick_12">
     <g id="line2d_12">
      <g>
       <use style="stroke:#000000;stroke-width:0.6;" x="168.349317" xlink:href="#m5311ef37df" y="339.250313"/>
      </g>
     </g>
    </g>
    <g id="xtick_13">
     <g id="line2d_13">
      <g>
       <use style="stroke:#000000;stroke-width:0.6;" x="183.353258" xlink:href="#m5311ef37df" y="339.250313"/>
      </g>
     </g>
    </g>
    <g id="xtick_14">
     <g id="line2d_14">
      <g>
       <use style="stroke:#000000;stroke-width:0.6;" x="198.357198" xlink:href="#m5311ef37df" y="339.250313"/>
      </g>
     </g>
    </g>
    <g id="xtick_15">
     <g id="line2d_15">
      <g>
       <use style="stroke:#000000;stroke-width:0.6;" x="213.361139" xlink:href="#m5311ef37df" y="339.250313"/>
      </g>
     </g>
     <g id="text_4">
      <!-- 11 -->
      <g transform="translate(206.998639 352.24875)scale(0.1 -0.1)">
       <use xlink:href="#DejaVuSans-31"/>
       <use x="63.623047" xlink:href="#DejaVuSans-31"/>
      </g>
     </g>
    </g>
    <g id="xtick_16">
     <g id="line2d_16">
      <g>
       <use style="stroke:#000000;stroke-width:0.6;" x="228.36508" xlink:href="#m5311ef37df" y="339.250313"/>
      </g>
     </g>
    </g>
    <g id="xtick_17">
     <g id="line2d_17">
      <g>
       <use style="stroke:#000000;stroke-width:0.6;" x="243.36902" xlink:href="#m5311ef37df" y="339.250313"/>
      </g>
     </g>
    </g>
    <g id="xtick_18">
     <g id="line2d_18">
      <g>
       <use style="stroke:#000000;stroke-width:0.6;" x="258.372961" xlink:href="#m5311ef37df" y="339.250313"/>
      </g>
     </g>
    </g>
    <g id="xtick_19">
     <g id="line2d_19">
      <g>
       <use style="stroke:#000000;stroke-width:0.6;" x="273.376902" xlink:href="#m5311ef37df" y="339.250313"/>
      </g>
     </g>
    </g>
    <g id="xtick_20">
     <g id="line2d_20">
      <g>
       <use style="stroke:#000000;stroke-width:0.6;" x="288.380842" xlink:href="#m5311ef37df" y="339.250313"/>
      </g>
     </g>
    </g>
    <g id="xtick_21">
     <g id="line2d_21">
      <g>
       <use style="stroke:#000000;stroke-width:0.6;" x="303.384783" xlink:href="#m5311ef37df" y="339.250313"/>
      </g>
     </g>
    </g>
    <g id="xtick_22">
     <g id="line2d_22">
      <g>
       <use style="stroke:#000000;stroke-width:0.6;" x="318.388723" xlink:href="#m5311ef37df" y="339.250313"/>
      </g>
     </g>
     <g id="text_5">
      <!-- 18 -->
      <defs>
       <path d="M 31.78125 34.625 
Q 24.75 34.625 20.71875 30.859375 
Q 16.703125 27.09375 16.703125 20.515625 
Q 16.703125 13.921875 20.71875 10.15625 
Q 24.75 6.390625 31.78125 6.390625 
Q 38.8125 6.390625 42.859375 10.171875 
Q 46.921875 13.96875 46.921875 20.515625 
Q 46.921875 27.09375 42.890625 30.859375 
Q 38.875 34.625 31.78125 34.625 
z
M 21.921875 38.8125 
Q 15.578125 40.375 12.03125 44.71875 
Q 8.5 49.078125 8.5 55.328125 
Q 8.5 64.0625 14.71875 69.140625 
Q 20.953125 74.21875 31.78125 74.21875 
Q 42.671875 74.21875 48.875 69.140625 
Q 55.078125 64.0625 55.078125 55.328125 
Q 55.078125 49.078125 51.53125 44.71875 
Q 48 40.375 41.703125 38.8125 
Q 48.828125 37.15625 52.796875 32.3125 
Q 56.78125 27.484375 56.78125 20.515625 
Q 56.78125 9.90625 50.3125 4.234375 
Q 43.84375 -1.421875 31.78125 -1.421875 
Q 19.734375 -1.421875 13.25 4.234375 
Q 6.78125 9.90625 6.78125 20.515625 
Q 6.78125 27.484375 10.78125 32.3125 
Q 14.796875 37.15625 21.921875 38.8125 
z
M 18.3125 54.390625 
Q 18.3125 48.734375 21.84375 45.5625 
Q 25.390625 42.390625 31.78125 42.390625 
Q 38.140625 42.390625 41.71875 45.5625 
Q 45.3125 48.734375 45.3125 54.390625 
Q 45.3125 60.0625 41.71875 63.234375 
Q 38.140625 66.40625 31.78125 66.40625 
Q 25.390625 66.40625 21.84375 63.234375 
Q 18.3125 60.0625 18.3125 54.390625 
z
" id="DejaVuSans-38"/>
      </defs>
      <g transform="translate(312.026223 352.24875)scale(0.1 -0.1)">
       <use xlink:href="#DejaVuSans-31"/>
       <use x="63.623047" xlink:href="#DejaVuSans-38"/>
      </g>
     </g>
    </g>
    <g id="xtick_23">
     <g id="line2d_23">
      <g>
       <use style="stroke:#000000;stroke-width:0.6;" x="333.392664" xlink:href="#m5311ef37df" y="339.250313"/>
      </g>
     </g>
    </g>
    <g id="xtick_24">
     <g id="line2d_24">
      <g>
       <use style="stroke:#000000;stroke-width:0.6;" x="348.396605" xlink:href="#m5311ef37df" y="339.250313"/>
      </g>
     </g>
    </g>
    <g id="xtick_25">
     <g id="line2d_25">
      <g>
       <use style="stroke:#000000;stroke-width:0.6;" x="363.400545" xlink:href="#m5311ef37df" y="339.250313"/>
      </g>
     </g>
    </g>
    <g id="xtick_26">
     <g id="line2d_26">
      <g>
       <use style="stroke:#000000;stroke-width:0.6;" x="378.404486" xlink:href="#m5311ef37df" y="339.250313"/>
      </g>
     </g>
    </g>
    <g id="xtick_27">
     <g id="line2d_27">
      <g>
       <use style="stroke:#000000;stroke-width:0.6;" x="393.408427" xlink:href="#m5311ef37df" y="339.250313"/>
      </g>
     </g>
    </g>
    <g id="xtick_28">
     <g id="line2d_28">
      <g>
       <use style="stroke:#000000;stroke-width:0.6;" x="408.412367" xlink:href="#m5311ef37df" y="339.250313"/>
      </g>
     </g>
    </g>
    <g id="xtick_29">
     <g id="line2d_29">
      <g>
       <use style="stroke:#000000;stroke-width:0.6;" x="423.416308" xlink:href="#m5311ef37df" y="339.250313"/>
      </g>
     </g>
     <g id="text_6">
      <!-- 25 -->
      <defs>
       <path d="M 10.796875 72.90625 
L 49.515625 72.90625 
L 49.515625 64.59375 
L 19.828125 64.59375 
L 19.828125 46.734375 
Q 21.96875 47.46875 24.109375 47.828125 
Q 26.265625 48.1875 28.421875 48.1875 
Q 40.625 48.1875 47.75 41.5 
Q 54.890625 34.8125 54.890625 23.390625 
Q 54.890625 11.625 47.5625 5.09375 
Q 40.234375 -1.421875 26.90625 -1.421875 
Q 22.3125 -1.421875 17.546875 -0.640625 
Q 12.796875 0.140625 7.71875 1.703125 
L 7.71875 11.625 
Q 12.109375 9.234375 16.796875 8.0625 
Q 21.484375 6.890625 26.703125 6.890625 
Q 35.15625 6.890625 40.078125 11.328125 
Q 45.015625 15.765625 45.015625 23.390625 
Q 45.015625 31 40.078125 35.4375 
Q 35.15625 39.890625 26.703125 39.890625 
Q 22.75 39.890625 18.8125 39.015625 
Q 14.890625 38.140625 10.796875 36.28125 
z
" id="DejaVuSans-35"/>
      </defs>
      <g transform="translate(417.053808 352.24875)scale(0.1 -0.1)">
       <use xlink:href="#DejaVuSans-32"/>
       <use x="63.623047" xlink:href="#DejaVuSans-35"/>
      </g>
     </g>
    </g>
    <g id="xtick_30">
     <g id="line2d_30">
      <g>
       <use style="stroke:#000000;stroke-width:0.6;" x="438.420248" xlink:href="#m5311ef37df" y="339.250313"/>
      </g>
     </g>
    </g>
    <g id="xtick_31">
     <g id="line2d_31">
      <g>
       <use style="stroke:#000000;stroke-width:0.6;" x="453.424189" xlink:href="#m5311ef37df" y="339.250313"/>
      </g>
     </g>
    </g>
    <g id="xtick_32">
     <g id="line2d_32">
      <g>
       <use style="stroke:#000000;stroke-width:0.6;" x="468.42813" xlink:href="#m5311ef37df" y="339.250313"/>
      </g>
     </g>
    </g>
    <g id="xtick_33">
     <g id="line2d_33">
      <g>
       <use style="stroke:#000000;stroke-width:0.6;" x="483.43207" xlink:href="#m5311ef37df" y="339.250313"/>
      </g>
     </g>
    </g>
    <g id="xtick_34">
     <g id="line2d_34">
      <g>
       <use style="stroke:#000000;stroke-width:0.6;" x="498.436011" xlink:href="#m5311ef37df" y="339.250313"/>
      </g>
     </g>
    </g>
    <g id="xtick_35">
     <g id="line2d_35">
      <g>
       <use style="stroke:#000000;stroke-width:0.6;" x="513.439951" xlink:href="#m5311ef37df" y="339.250313"/>
      </g>
     </g>
    </g>
    <g id="xtick_36">
     <g id="line2d_36">
      <g>
       <use style="stroke:#000000;stroke-width:0.6;" x="528.443892" xlink:href="#m5311ef37df" y="339.250313"/>
      </g>
     </g>
    </g>
    <g id="xtick_37">
     <g id="line2d_37">
      <g>
       <use style="stroke:#000000;stroke-width:0.6;" x="543.447833" xlink:href="#m5311ef37df" y="339.250313"/>
      </g>
     </g>
    </g>
    <g id="text_7">
     <!-- Date -->
     <defs>
      <path d="M 19.671875 64.796875 
L 19.671875 8.109375 
L 31.59375 8.109375 
Q 46.6875 8.109375 53.6875 14.9375 
Q 60.6875 21.78125 60.6875 36.53125 
Q 60.6875 51.171875 53.6875 57.984375 
Q 46.6875 64.796875 31.59375 64.796875 
z
M 9.8125 72.90625 
L 30.078125 72.90625 
Q 51.265625 72.90625 61.171875 64.09375 
Q 71.09375 55.28125 71.09375 36.53125 
Q 71.09375 17.671875 61.125 8.828125 
Q 51.171875 0 30.078125 0 
L 9.8125 0 
z
" id="DejaVuSans-44"/>
      <path d="M 18.3125 70.21875 
L 18.3125 54.6875 
L 36.8125 54.6875 
L 36.8125 47.703125 
L 18.3125 47.703125 
L 18.3125 18.015625 
Q 18.3125 11.328125 20.140625 9.421875 
Q 21.96875 7.515625 27.59375 7.515625 
L 36.8125 7.515625 
L 36.8125 0 
L 27.59375 0 
Q 17.1875 0 13.234375 3.875 
Q 9.28125 7.765625 9.28125 18.015625 
L 9.28125 47.703125 
L 2.6875 47.703125 
L 2.6875 54.6875 
L 9.28125 54.6875 
L 9.28125 70.21875 
z
" id="DejaVuSans-74"/>
     </defs>
     <g transform="translate(283.932031 401.120313)scale(0.1 -0.1)">
      <use xlink:href="#DejaVuSans-44"/>
      <use x="77.001953" xlink:href="#DejaVuSans-61"/>
      <use x="138.28125" xlink:href="#DejaVuSans-74"/>
      <use x="177.490234" xlink:href="#DejaVuSans-65"/>
     </g>
    </g>
   </g>
   <g id="matplotlib.axis_2">
    <g id="ytick_1">
     <g id="line2d_38">
      <defs>
       <path d="M 0 0 
L -3.5 0 
" id="m1be79efefd" style="stroke:#000000;stroke-width:0.8;"/>
      </defs>
      <g>
       <use style="stroke:#000000;stroke-width:0.8;" x="40.065625" xlink:href="#m1be79efefd" y="316.705913"/>
      </g>
     </g>
     <g id="text_8">
      <!-- 42.5 -->
      <defs>
       <path d="M 10.6875 12.40625 
L 21 12.40625 
L 21 0 
L 10.6875 0 
z
" id="DejaVuSans-2e"/>
      </defs>
      <g transform="translate(10.8 320.505132)scale(0.1 -0.1)">
       <use xlink:href="#DejaVuSans-34"/>
       <use x="63.623047" xlink:href="#DejaVuSans-32"/>
       <use x="127.246094" xlink:href="#DejaVuSans-2e"/>
       <use x="159.033203" xlink:href="#DejaVuSans-35"/>
      </g>
     </g>
    </g>
    <g id="ytick_2">
     <g id="line2d_39">
      <g>
       <use style="stroke:#000000;stroke-width:0.8;" x="40.065625" xlink:href="#m1be79efefd" y="277.836258"/>
      </g>
     </g>
     <g id="text_9">
      <!-- 45.0 -->
      <g transform="translate(10.8 281.635477)scale(0.1 -0.1)">
       <use xlink:href="#DejaVuSans-34"/>
       <use x="63.623047" xlink:href="#DejaVuSans-35"/>
       <use x="127.246094" xlink:href="#DejaVuSans-2e"/>
       <use x="159.033203" xlink:href="#DejaVuSans-30"/>
      </g>
     </g>
    </g>
    <g id="ytick_3">
     <g id="line2d_40">
      <g>
       <use style="stroke:#000000;stroke-width:0.8;" x="40.065625" xlink:href="#m1be79efefd" y="238.966604"/>
      </g>
     </g>
     <g id="text_10">
      <!-- 47.5 -->
      <defs>
       <path d="M 8.203125 72.90625 
L 55.078125 72.90625 
L 55.078125 68.703125 
L 28.609375 0 
L 18.3125 0 
L 43.21875 64.59375 
L 8.203125 64.59375 
z
" id="DejaVuSans-37"/>
      </defs>
      <g transform="translate(10.8 242.765822)scale(0.1 -0.1)">
       <use xlink:href="#DejaVuSans-34"/>
       <use x="63.623047" xlink:href="#DejaVuSans-37"/>
       <use x="127.246094" xlink:href="#DejaVuSans-2e"/>
       <use x="159.033203" xlink:href="#DejaVuSans-35"/>
      </g>
     </g>
    </g>
    <g id="ytick_4">
     <g id="line2d_41">
      <g>
       <use style="stroke:#000000;stroke-width:0.8;" x="40.065625" xlink:href="#m1be79efefd" y="200.096949"/>
      </g>
     </g>
     <g id="text_11">
      <!-- 50.0 -->
      <g transform="translate(10.8 203.896168)scale(0.1 -0.1)">
       <use xlink:href="#DejaVuSans-35"/>
       <use x="63.623047" xlink:href="#DejaVuSans-30"/>
       <use x="127.246094" xlink:href="#DejaVuSans-2e"/>
       <use x="159.033203" xlink:href="#DejaVuSans-30"/>
      </g>
     </g>
    </g>
    <g id="ytick_5">
     <g id="line2d_42">
      <g>
       <use style="stroke:#000000;stroke-width:0.8;" x="40.065625" xlink:href="#m1be79efefd" y="161.227294"/>
      </g>
     </g>
     <g id="text_12">
      <!-- 52.5 -->
      <g transform="translate(10.8 165.026513)scale(0.1 -0.1)">
       <use xlink:href="#DejaVuSans-35"/>
       <use x="63.623047" xlink:href="#DejaVuSans-32"/>
       <use x="127.246094" xlink:href="#DejaVuSans-2e"/>
       <use x="159.033203" xlink:href="#DejaVuSans-35"/>
      </g>
     </g>
    </g>
    <g id="ytick_6">
     <g id="line2d_43">
      <g>
       <use style="stroke:#000000;stroke-width:0.8;" x="40.065625" xlink:href="#m1be79efefd" y="122.35764"/>
      </g>
     </g>
     <g id="text_13">
      <!-- 55.0 -->
      <g transform="translate(10.8 126.156859)scale(0.1 -0.1)">
       <use xlink:href="#DejaVuSans-35"/>
       <use x="63.623047" xlink:href="#DejaVuSans-35"/>
       <use x="127.246094" xlink:href="#DejaVuSans-2e"/>
       <use x="159.033203" xlink:href="#DejaVuSans-30"/>
      </g>
     </g>
    </g>
    <g id="ytick_7">
     <g id="line2d_44">
      <g>
       <use style="stroke:#000000;stroke-width:0.8;" x="40.065625" xlink:href="#m1be79efefd" y="83.487985"/>
      </g>
     </g>
     <g id="text_14">
      <!-- 57.5 -->
      <g transform="translate(10.8 87.287204)scale(0.1 -0.1)">
       <use xlink:href="#DejaVuSans-35"/>
       <use x="63.623047" xlink:href="#DejaVuSans-37"/>
       <use x="127.246094" xlink:href="#DejaVuSans-2e"/>
       <use x="159.033203" xlink:href="#DejaVuSans-35"/>
      </g>
     </g>
    </g>
    <g id="ytick_8">
     <g id="line2d_45">
      <g>
       <use style="stroke:#000000;stroke-width:0.8;" x="40.065625" xlink:href="#m1be79efefd" y="44.618331"/>
      </g>
     </g>
     <g id="text_15">
      <!-- 60.0 -->
      <defs>
       <path d="M 33.015625 40.375 
Q 26.375 40.375 22.484375 35.828125 
Q 18.609375 31.296875 18.609375 23.390625 
Q 18.609375 15.53125 22.484375 10.953125 
Q 26.375 6.390625 33.015625 6.390625 
Q 39.65625 6.390625 43.53125 10.953125 
Q 47.40625 15.53125 47.40625 23.390625 
Q 47.40625 31.296875 43.53125 35.828125 
Q 39.65625 40.375 33.015625 40.375 
z
M 52.59375 71.296875 
L 52.59375 62.3125 
Q 48.875 64.0625 45.09375 64.984375 
Q 41.3125 65.921875 37.59375 65.921875 
Q 27.828125 65.921875 22.671875 59.328125 
Q 17.53125 52.734375 16.796875 39.40625 
Q 19.671875 43.65625 24.015625 45.921875 
Q 28.375 48.1875 33.59375 48.1875 
Q 44.578125 48.1875 50.953125 41.515625 
Q 57.328125 34.859375 57.328125 23.390625 
Q 57.328125 12.15625 50.6875 5.359375 
Q 44.046875 -1.421875 33.015625 -1.421875 
Q 20.359375 -1.421875 13.671875 8.265625 
Q 6.984375 17.96875 6.984375 36.375 
Q 6.984375 53.65625 15.1875 63.9375 
Q 23.390625 74.21875 37.203125 74.21875 
Q 40.921875 74.21875 44.703125 73.484375 
Q 48.484375 72.75 52.59375 71.296875 
z
" id="DejaVuSans-36"/>
      </defs>
      <g transform="translate(10.8 48.417549)scale(0.1 -0.1)">
       <use xlink:href="#DejaVuSans-36"/>
       <use x="63.623047" xlink:href="#DejaVuSans-30"/>
       <use x="127.246094" xlink:href="#DejaVuSans-2e"/>
       <use x="159.033203" xlink:href="#DejaVuSans-30"/>
      </g>
     </g>
    </g>
   </g>
   <g id="line2d_46">
    <path clip-path="url(#pb56dc071ec)" d="M 63.321733 259.178824 
L 63.946897 284.055403 
L 64.572061 291.829334 
L 65.82239 301.158051 
L 66.447554 308.931982 
L 67.072718 307.377196 
L 67.697882 319.815485 
L 68.323046 316.705913 
L 70.198539 162.782081 
L 71.448867 89.70713 
L 72.074032 69.49491 
L 72.699196 58.611406 
L 73.32436 58.611406 
L 73.949524 75.714054 
L 75.199853 179.884729 
L 75.825017 212.535238 
L 76.450181 229.637887 
L 77.700509 256.069252 
L 78.325674 254.514465 
L 78.950838 279.391044 
L 79.576002 287.164975 
L 80.201166 291.829334 
L 80.82633 294.938906 
L 81.451495 304.267623 
L 82.076659 301.158051 
L 82.701823 315.151127 
L 83.326987 312.041554 
L 85.20248 153.453363 
L 86.452808 80.378413 
L 87.077972 60.166192 
L 87.703136 49.282689 
L 88.328301 49.282689 
L 88.953465 66.385337 
L 90.203793 172.110798 
L 90.828957 203.206521 
L 92.079286 237.411817 
L 92.70445 249.850107 
L 93.329614 249.850107 
L 93.954778 274.726686 
L 94.579943 282.500617 
L 95.205107 285.610189 
L 95.830271 291.829334 
L 96.455435 302.712837 
L 97.080599 298.048479 
L 97.705764 312.041554 
L 98.330928 308.931982 
L 100.20642 151.898577 
L 101.456749 78.823627 
L 102.081913 58.611406 
L 102.707077 47.727903 
L 103.332241 47.727903 
L 103.957405 66.385337 
L 105.207734 172.110798 
L 105.832898 204.761308 
L 107.083226 238.966604 
L 107.708391 252.959679 
L 108.333555 252.959679 
L 108.958719 277.836258 
L 109.583883 285.610189 
L 110.209047 288.719762 
L 110.834212 294.938906 
L 111.459376 305.82241 
L 112.08454 302.712837 
L 112.709704 315.151127 
L 113.334868 310.486768 
L 115.210361 155.00815 
L 116.460689 81.933199 
L 117.085853 60.166192 
L 117.711018 49.282689 
L 118.336182 49.282689 
L 118.961346 67.940123 
L 120.211674 175.22037 
L 120.836839 207.87088 
L 122.087167 242.076176 
L 122.712331 256.069252 
L 123.337495 254.514465 
L 123.96266 279.391044 
L 124.587824 285.610189 
L 125.212988 288.719762 
L 125.838152 294.938906 
L 126.463316 305.82241 
L 127.088481 301.158051 
L 127.713645 313.59634 
L 128.338809 308.931982 
L 130.214302 153.453363 
L 131.46463 78.823627 
L 132.089794 57.05662 
L 132.714958 46.173117 
L 133.340122 46.173117 
L 133.965287 64.830551 
L 135.215615 172.110798 
L 135.840779 204.761308 
L 137.091108 238.966604 
L 137.716272 254.514465 
L 138.341436 249.850107 
L 138.9666 274.726686 
L 139.591764 284.055403 
L 140.216929 287.164975 
L 140.842093 294.938906 
L 141.467257 305.82241 
L 142.092421 302.712837 
L 142.717585 315.151127 
L 143.34275 312.041554 
L 145.218242 156.562936 
L 146.468571 83.487985 
L 147.093735 63.275765 
L 147.718899 50.837475 
L 148.344063 52.392262 
L 148.969227 71.049696 
L 150.219556 176.775156 
L 150.84472 209.425666 
L 152.095048 243.630962 
L 152.720212 257.624038 
L 153.345377 256.069252 
L 153.970541 280.945831 
L 154.595705 287.164975 
L 155.220869 291.829334 
L 155.846033 299.603265 
L 156.471198 308.931982 
L 157.096362 307.377196 
L 157.721526 319.815485 
L 158.34669 316.705913 
L 160.222183 158.117722 
L 161.472511 85.042771 
L 162.097675 63.275765 
L 162.72284 52.392262 
L 163.348004 52.392262 
L 163.973168 71.049696 
L 165.223496 178.329942 
L 165.84866 210.980452 
L 166.473825 231.192673 
L 167.724153 260.73361 
L 168.349317 259.178824 
L 168.974481 284.055403 
L 169.599646 288.719762 
L 170.22481 294.938906 
L 170.849974 302.712837 
L 171.475138 312.041554 
L 172.100302 310.486768 
L 172.725467 322.925058 
L 173.350631 321.370271 
L 175.226123 161.227294 
L 176.476452 88.152344 
L 177.101616 66.385337 
L 177.72678 53.947048 
L 178.351944 53.947048 
L 178.977109 72.604482 
L 180.227437 178.329942 
L 180.852601 209.425666 
L 181.477765 229.637887 
L 182.728094 260.73361 
L 183.353258 259.178824 
L 183.978422 282.500617 
L 185.22875 294.938906 
L 186.479079 310.486768 
L 187.104243 308.931982 
L 187.729407 319.815485 
L 188.354571 318.260699 
L 190.230064 161.227294 
L 191.480392 89.70713 
L 192.105557 67.940123 
L 192.730721 55.501834 
L 193.355885 57.05662 
L 193.981049 74.159268 
L 195.231378 179.884729 
L 195.856542 210.980452 
L 196.481706 231.192673 
L 197.10687 246.740535 
L 197.732034 259.178824 
L 198.357198 259.178824 
L 198.982363 282.500617 
L 200.232691 294.938906 
L 201.483019 310.486768 
L 202.108184 308.931982 
L 202.733348 319.815485 
L 203.358512 316.705913 
L 205.234005 161.227294 
L 206.484333 89.70713 
L 207.109497 67.940123 
L 207.734661 55.501834 
L 208.359826 55.501834 
L 208.98499 74.159268 
L 210.235318 179.884729 
L 210.860482 210.980452 
L 211.485647 232.747459 
L 212.735975 260.73361 
L 213.361139 260.73361 
L 213.986303 282.500617 
L 214.611467 290.274548 
L 215.861796 302.712837 
L 216.48696 310.486768 
L 217.112124 310.486768 
L 217.737288 319.815485 
L 218.362453 316.705913 
L 220.237945 164.336867 
L 220.863109 125.467212 
L 221.488274 94.371488 
L 222.113438 72.604482 
L 222.738602 58.611406 
L 223.363766 60.166192 
L 223.98893 77.26884 
L 225.239259 182.994301 
L 225.864423 212.535238 
L 226.489587 232.747459 
L 227.739916 260.73361 
L 228.36508 262.288396 
L 228.990244 284.055403 
L 231.490901 308.931982 
L 232.116065 308.931982 
L 232.741229 318.260699 
L 233.366393 315.151127 
L 235.241886 164.336867 
L 235.86705 125.467212 
L 236.492214 94.371488 
L 237.117378 72.604482 
L 237.742543 58.611406 
L 238.367707 60.166192 
L 238.992871 75.714054 
L 240.243199 181.439515 
L 240.868364 210.980452 
L 241.493528 231.192673 
L 242.743856 260.73361 
L 243.36902 260.73361 
L 243.994185 284.055403 
L 244.619349 291.829334 
L 245.244513 296.493692 
L 246.494841 308.931982 
L 247.120005 307.377196 
L 247.74517 316.705913 
L 248.370334 313.59634 
L 250.870991 127.021998 
L 251.496155 94.371488 
L 252.121319 74.159268 
L 252.746483 60.166192 
L 253.371647 60.166192 
L 253.996812 77.26884 
L 255.24714 179.884729 
L 255.872304 210.980452 
L 256.497468 231.192673 
L 257.122633 245.185748 
L 257.747797 262.288396 
L 258.372961 262.288396 
L 258.998125 284.055403 
L 259.623289 293.38412 
L 261.498782 312.041554 
L 262.123946 310.486768 
L 262.74911 321.370271 
L 263.374274 318.260699 
L 265.249767 165.891653 
L 266.500095 95.926275 
L 267.12526 74.159268 
L 267.750424 60.166192 
L 268.375588 60.166192 
L 269.000752 75.714054 
L 270.251081 181.439515 
L 270.876245 212.535238 
L 271.501409 234.302245 
L 272.751737 265.397969 
L 273.376902 265.397969 
L 274.002066 287.164975 
L 275.252394 302.712837 
L 276.502723 315.151127 
L 277.127887 312.041554 
L 277.753051 322.925058 
L 278.378215 319.815485 
L 280.253708 164.336867 
L 281.504036 94.371488 
L 282.1292 72.604482 
L 282.754364 57.05662 
L 283.379529 58.611406 
L 284.004693 74.159268 
L 285.255021 181.439515 
L 285.880185 210.980452 
L 286.50535 232.747459 
L 287.755678 265.397969 
L 288.380842 266.952755 
L 289.006006 285.610189 
L 290.256335 301.158051 
L 291.506663 313.59634 
L 292.131827 312.041554 
L 292.756992 322.925058 
L 293.382156 316.705913 
L 295.257648 162.782081 
L 296.507977 92.816702 
L 297.133141 71.049696 
L 297.758305 57.05662 
L 298.383469 57.05662 
L 299.008633 72.604482 
L 300.258962 178.329942 
L 300.884126 207.87088 
L 301.50929 229.637887 
L 302.759619 263.843183 
L 303.384783 266.952755 
L 304.009947 284.055403 
L 305.88544 307.377196 
L 306.510604 313.59634 
L 307.135768 312.041554 
L 307.760932 324.479844 
L 308.386096 316.705913 
L 310.261589 164.336867 
L 311.511917 95.926275 
L 312.137082 74.159268 
L 312.762246 58.611406 
L 313.38741 60.166192 
L 314.012574 74.159268 
L 315.262902 178.329942 
L 315.888067 209.425666 
L 316.513231 231.192673 
L 317.763559 263.843183 
L 318.388723 266.952755 
L 319.013888 285.610189 
L 319.639052 293.38412 
L 320.264216 302.712837 
L 320.88938 308.931982 
L 321.514544 313.59634 
L 322.139709 313.59634 
L 322.764873 324.479844 
L 323.390037 316.705913 
L 325.26553 161.227294 
L 326.515858 91.261916 
L 327.141022 69.49491 
L 327.766186 53.947048 
L 328.391351 53.947048 
L 329.016515 69.49491 
L 329.641679 116.138495 
L 330.266843 172.110798 
L 330.892007 203.206521 
L 331.517171 224.973528 
L 332.7675 257.624038 
L 333.392664 262.288396 
L 334.017828 279.391044 
L 335.268157 296.493692 
L 335.893321 304.267623 
L 336.518485 310.486768 
L 337.143649 308.931982 
L 337.768813 321.370271 
L 338.393978 313.59634 
L 340.26947 156.562936 
L 341.519799 88.152344 
L 342.144963 66.385337 
L 342.770127 50.837475 
L 343.395291 50.837475 
L 344.020455 64.830551 
L 345.270784 167.446439 
L 345.895948 196.987377 
L 346.521112 218.754383 
L 347.77144 254.514465 
L 348.396605 260.73361 
L 349.021769 274.726686 
L 350.897261 301.158051 
L 351.522426 307.377196 
L 352.14759 307.377196 
L 352.772754 319.815485 
L 353.397918 313.59634 
L 355.273411 156.562936 
L 356.523739 88.152344 
L 357.148903 66.385337 
L 357.774068 49.282689 
L 358.399232 50.837475 
L 359.024396 64.830551 
L 360.274724 164.336867 
L 360.899889 195.43259 
L 361.525053 217.199597 
L 362.775381 251.404893 
L 363.400545 259.178824 
L 364.025709 273.1719 
L 364.650874 282.500617 
L 365.276038 288.719762 
L 365.901202 296.493692 
L 366.526366 302.712837 
L 367.15153 301.158051 
L 367.776695 312.041554 
L 368.401859 304.267623 
L 370.277351 151.898577 
L 371.52768 81.933199 
L 372.152844 60.166192 
L 372.778008 43.063544 
L 373.403172 43.063544 
L 374.028337 57.05662 
L 375.278665 155.00815 
L 375.903829 184.549087 
L 376.528993 206.316094 
L 377.779322 240.52139 
L 378.404486 248.295321 
L 379.654814 271.617113 
L 380.905143 287.164975 
L 381.530307 291.829334 
L 382.155471 291.829334 
L 382.780635 302.712837 
L 383.405799 294.938906 
L 385.281292 147.234219 
L 386.53162 78.823627 
L 387.156785 57.05662 
L 387.781949 39.953972 
L 388.407113 41.508758 
L 389.032277 53.947048 
L 390.282606 148.789005 
L 390.90777 179.884729 
L 392.158098 217.199597 
L 392.783262 232.747459 
L 393.408427 240.52139 
L 394.033591 254.514465 
L 394.658755 265.397969 
L 395.909083 280.945831 
L 396.534247 287.164975 
L 397.159412 285.610189 
L 397.784576 298.048479 
L 398.40974 290.274548 
L 400.285233 145.679433 
L 401.535561 77.26884 
L 402.160725 55.501834 
L 402.785889 38.399186 
L 403.411054 38.399186 
L 404.036218 52.392262 
L 404.661382 94.371488 
L 405.286546 147.234219 
L 405.91171 179.884729 
L 407.162039 217.199597 
L 407.787203 232.747459 
L 408.412367 240.52139 
L 409.037531 254.514465 
L 409.662696 265.397969 
L 410.913024 280.945831 
L 411.538188 287.164975 
L 412.163352 285.610189 
L 412.788516 299.603265 
L 413.413681 294.938906 
L 415.289173 144.124646 
L 416.539502 75.714054 
L 417.164666 53.947048 
L 417.78983 36.8444 
L 418.414994 38.399186 
L 419.040158 50.837475 
L 419.665323 92.816702 
L 420.290487 144.124646 
L 420.915651 176.775156 
L 421.540815 198.542163 
L 422.791144 231.192673 
L 423.416308 238.966604 
L 424.041472 252.959679 
L 424.666636 263.843183 
L 426.542129 287.164975 
L 427.167293 284.055403 
L 427.792457 299.603265 
L 428.417621 294.938906 
L 430.293114 142.56986 
L 431.543442 75.714054 
L 432.168606 50.837475 
L 432.793771 35.289613 
L 433.418935 35.289613 
L 434.044099 49.282689 
L 434.669263 89.70713 
L 435.294427 139.460288 
L 435.919592 173.665584 
L 436.544756 195.43259 
L 437.16992 212.535238 
L 437.795084 226.528314 
L 438.420248 235.857031 
L 439.045413 249.850107 
L 440.295741 270.062327 
L 441.546069 285.610189 
L 442.171234 284.055403 
L 442.796398 301.158051 
L 443.421562 294.938906 
L 445.297054 139.460288 
L 446.547383 71.049696 
L 447.172547 47.727903 
L 447.797711 30.625255 
L 448.422875 30.625255 
L 449.04804 43.063544 
L 449.673204 85.042771 
L 450.298368 137.905502 
L 450.923532 172.110798 
L 451.548696 195.43259 
L 452.173861 212.535238 
L 452.799025 226.528314 
L 453.424189 235.857031 
L 454.674517 262.288396 
L 455.299682 270.062327 
L 455.924846 280.945831 
L 456.55001 287.164975 
L 457.175174 285.610189 
L 457.800338 301.158051 
L 458.425503 293.38412 
L 460.300995 137.905502 
L 461.551323 69.49491 
L 462.176488 46.173117 
L 462.801652 30.625255 
L 463.426816 30.625255 
L 464.05198 43.063544 
L 464.677144 83.487985 
L 465.302309 137.905502 
L 465.927473 170.556012 
L 466.552637 193.877804 
L 467.177801 210.980452 
L 467.802965 224.973528 
L 468.42813 234.302245 
L 469.053294 248.295321 
L 470.303622 268.507541 
L 471.553951 285.610189 
L 472.179115 285.610189 
L 472.804279 299.603265 
L 473.429443 291.829334 
L 475.304936 136.350715 
L 476.555264 67.940123 
L 477.180428 46.173117 
L 477.805592 30.625255 
L 478.430757 29.070469 
L 479.055921 43.063544 
L 479.681085 81.933199 
L 480.306249 136.350715 
L 480.931413 172.110798 
L 482.181742 210.980452 
L 482.806906 224.973528 
L 483.43207 232.747459 
L 484.057234 246.740535 
L 485.307563 266.952755 
L 485.932727 276.281472 
L 486.557891 282.500617 
L 487.183055 280.945831 
L 487.80822 296.493692 
L 488.433384 288.719762 
L 490.308876 136.350715 
L 491.559205 71.049696 
L 492.184369 47.727903 
L 492.809533 33.734827 
L 493.434697 32.180041 
L 494.059861 46.173117 
L 494.685026 83.487985 
L 495.31019 137.905502 
L 495.935354 172.110798 
L 496.560518 193.877804 
L 497.810847 224.973528 
L 498.436011 234.302245 
L 499.061175 248.295321 
L 500.311503 268.507541 
L 501.561832 284.055403 
L 502.186996 282.500617 
L 502.81216 298.048479 
L 503.437324 290.274548 
L 505.312817 141.015074 
L 506.563145 74.159268 
L 507.18831 50.837475 
L 507.813474 35.289613 
L 508.438638 33.734827 
L 509.063802 46.173117 
L 509.688966 83.487985 
L 510.31413 137.905502 
L 510.939295 172.110798 
L 511.564459 193.877804 
L 512.814787 226.528314 
L 513.439951 234.302245 
L 514.065116 249.850107 
L 515.315444 270.062327 
L 516.565772 285.610189 
L 517.190937 282.500617 
L 517.816101 298.048479 
L 518.441265 290.274548 
L 520.316758 137.905502 
L 521.567086 72.604482 
L 522.19225 47.727903 
L 522.817414 33.734827 
L 523.442579 30.625255 
L 524.067743 44.618331 
L 524.692907 80.378413 
L 525.318071 134.795929 
L 525.943235 170.556012 
L 526.568399 193.877804 
L 527.818728 228.0831 
L 528.443892 234.302245 
L 528.443892 234.302245 
" style="fill:none;stroke:#1f77b4;stroke-linecap:square;stroke-width:1.5;"/>
   </g>
   <g id="patch_3">
    <path d="M 40.065625 339.250312 
L 40.065625 14.3 
" style="fill:none;stroke:#000000;stroke-linecap:square;stroke-linejoin:miter;stroke-width:0.8;"/>
   </g>
   <g id="patch_4">
    <path d="M 551.7 339.250312 
L 551.7 14.3 
" style="fill:none;stroke:#000000;stroke-linecap:square;stroke-linejoin:miter;stroke-width:0.8;"/>
   </g>
   <g id="patch_5">
    <path d="M 40.065625 339.250313 
L 551.7 339.250313 
" style="fill:none;stroke:#000000;stroke-linecap:square;stroke-linejoin:miter;stroke-width:0.8;"/>
   </g>
   <g id="patch_6">
    <path d="M 40.065625 14.3 
L 551.7 14.3 
" style="fill:none;stroke:#000000;stroke-linecap:square;stroke-linejoin:miter;stroke-width:0.8;"/>
   </g>
   <g id="legend_1">
    <g id="patch_7">
     <path d="M 47.065625 36.978125 
L 144.3 36.978125 
Q 146.3 36.978125 146.3 34.978125 
L 146.3 21.3 
Q 146.3 19.3 144.3 19.3 
L 47.065625 19.3 
Q 45.065625 19.3 45.065625 21.3 
L 45.065625 34.978125 
Q 45.065625 36.978125 47.065625 36.978125 
z
" style="fill:#ffffff;opacity:0.8;stroke:#cccccc;stroke-linejoin:miter;"/>
    </g>
    <g id="line2d_47">
     <path d="M 49.065625 27.398438 
L 69.065625 27.398438 
" style="fill:none;stroke:#1f77b4;stroke-linecap:square;stroke-width:1.5;"/>
    </g>
    <g id="line2d_48"/>
    <g id="text_16">
     <!-- Temperature -->
     <defs>
      <path d="M -0.296875 72.90625 
L 61.375 72.90625 
L 61.375 64.59375 
L 35.5 64.59375 
L 35.5 0 
L 25.59375 0 
L 25.59375 64.59375 
L -0.296875 64.59375 
z
" id="DejaVuSans-54"/>
      <path d="M 52 44.1875 
Q 55.375 50.25 60.0625 53.125 
Q 64.75 56 71.09375 56 
Q 79.640625 56 84.28125 50.015625 
Q 88.921875 44.046875 88.921875 33.015625 
L 88.921875 0 
L 79.890625 0 
L 79.890625 32.71875 
Q 79.890625 40.578125 77.09375 44.375 
Q 74.3125 48.1875 68.609375 48.1875 
Q 61.625 48.1875 57.5625 43.546875 
Q 53.515625 38.921875 53.515625 30.90625 
L 53.515625 0 
L 44.484375 0 
L 44.484375 32.71875 
Q 44.484375 40.625 41.703125 44.40625 
Q 38.921875 48.1875 33.109375 48.1875 
Q 26.21875 48.1875 22.15625 43.53125 
Q 18.109375 38.875 18.109375 30.90625 
L 18.109375 0 
L 9.078125 0 
L 9.078125 54.6875 
L 18.109375 54.6875 
L 18.109375 46.1875 
Q 21.1875 51.21875 25.484375 53.609375 
Q 29.78125 56 35.6875 56 
Q 41.65625 56 45.828125 52.96875 
Q 50 49.953125 52 44.1875 
z
" id="DejaVuSans-6d"/>
      <path d="M 18.109375 8.203125 
L 18.109375 -20.796875 
L 9.078125 -20.796875 
L 9.078125 54.6875 
L 18.109375 54.6875 
L 18.109375 46.390625 
Q 20.953125 51.265625 25.265625 53.625 
Q 29.59375 56 35.59375 56 
Q 45.5625 56 51.78125 48.09375 
Q 58.015625 40.1875 58.015625 27.296875 
Q 58.015625 14.40625 51.78125 6.484375 
Q 45.5625 -1.421875 35.59375 -1.421875 
Q 29.59375 -1.421875 25.265625 0.953125 
Q 20.953125 3.328125 18.109375 8.203125 
z
M 48.6875 27.296875 
Q 48.6875 37.203125 44.609375 42.84375 
Q 40.53125 48.484375 33.40625 48.484375 
Q 26.265625 48.484375 22.1875 42.84375 
Q 18.109375 37.203125 18.109375 27.296875 
Q 18.109375 17.390625 22.1875 11.75 
Q 26.265625 6.109375 33.40625 6.109375 
Q 40.53125 6.109375 44.609375 11.75 
Q 48.6875 17.390625 48.6875 27.296875 
z
" id="DejaVuSans-70"/>
      <path d="M 41.109375 46.296875 
Q 39.59375 47.171875 37.8125 47.578125 
Q 36.03125 48 33.890625 48 
Q 26.265625 48 22.1875 43.046875 
Q 18.109375 38.09375 18.109375 28.8125 
L 18.109375 0 
L 9.078125 0 
L 9.078125 54.6875 
L 18.109375 54.6875 
L 18.109375 46.1875 
Q 20.953125 51.171875 25.484375 53.578125 
Q 30.03125 56 36.53125 56 
Q 37.453125 56 38.578125 55.875 
Q 39.703125 55.765625 41.0625 55.515625 
z
" id="DejaVuSans-72"/>
      <path d="M 8.5 21.578125 
L 8.5 54.6875 
L 17.484375 54.6875 
L 17.484375 21.921875 
Q 17.484375 14.15625 20.5 10.265625 
Q 23.53125 6.390625 29.59375 6.390625 
Q 36.859375 6.390625 41.078125 11.03125 
Q 45.3125 15.671875 45.3125 23.6875 
L 45.3125 54.6875 
L 54.296875 54.6875 
L 54.296875 0 
L 45.3125 0 
L 45.3125 8.40625 
Q 42.046875 3.421875 37.71875 1 
Q 33.40625 -1.421875 27.6875 -1.421875 
Q 18.265625 -1.421875 13.375 4.4375 
Q 8.5 10.296875 8.5 21.578125 
z
M 31.109375 56 
z
" id="DejaVuSans-75"/>
     </defs>
     <g transform="translate(77.065625 30.898438)scale(0.1 -0.1)">
      <use xlink:href="#DejaVuSans-54"/>
      <use x="60.818359" xlink:href="#DejaVuSans-65"/>
      <use x="122.341797" xlink:href="#DejaVuSans-6d"/>
      <use x="219.753906" xlink:href="#DejaVuSans-70"/>
      <use x="283.230469" xlink:href="#DejaVuSans-65"/>
      <use x="344.753906" xlink:href="#DejaVuSans-72"/>
      <use x="385.867188" xlink:href="#DejaVuSans-61"/>
      <use x="447.146484" xlink:href="#DejaVuSans-74"/>
      <use x="486.355469" xlink:href="#DejaVuSans-75"/>
      <use x="549.734375" xlink:href="#DejaVuSans-72"/>
      <use x="590.816406" xlink:href="#DejaVuSans-65"/>
     </g>
    </g>
   </g>
  </g>
 </g>
 <defs>
  <clipPath id="pb56dc071ec">
   <rect height="324.950313" width="511.634375" x="40.065625" y="14.3"/>
  </clipPath>
 </defs>
</svg>
