<?xml version="1.0" encoding="utf-8" standalone="no"?>
<!DOCTYPE svg PUBLIC "-//W3C//DTD SVG 1.1//EN"
  "http://www.w3.org/Graphics/SVG/1.1/DTD/svg11.dtd">
<!-- Created with matplotlib (http://matplotlib.org/) -->
<svg height="414pt" version="1.1" viewBox="0 0 569 414" width="569pt" xmlns="http://www.w3.org/2000/svg" xmlns:xlink="http://www.w3.org/1999/xlink">
 <defs>
  <style type="text/css">
*{stroke-linecap:butt;stroke-linejoin:round;}
  </style>
 </defs>
 <g id="figure_1">
  <g id="patch_1">
   <path d="M 0 414 
L 569 414 
L 569 0 
L 0 0 
z
" style="fill:#ffffff;"/>
  </g>
  <g id="axes_1">
   <g id="patch_2">
    <path d="M 44.203125 372.84375 
L 554.7 372.84375 
L 554.7 25.918125 
L 44.203125 25.918125 
z
" style="fill:#ffffff;"/>
   </g>
   <g id="matplotlib.axis_1">
    <g id="xtick_1">
     <g id="line2d_1">
      <defs>
       <path d="M 0 0 
L 0 3.5 
" id="md6465da764" style="stroke:#000000;stroke-width:0.8;"/>
      </defs>
      <g>
       <use style="stroke:#000000;stroke-width:0.8;" x="67.407528" xlink:href="#md6465da764" y="372.84375"/>
      </g>
     </g>
     <g id="text_1">
      <!-- 0 -->
      <defs>
       <path d="M 31.78125 66.40625 
Q 24.171875 66.40625 20.328125 58.90625 
Q 16.5 51.421875 16.5 36.375 
Q 16.5 21.390625 20.328125 13.890625 
Q 24.171875 6.390625 31.78125 6.390625 
Q 39.453125 6.390625 43.28125 13.890625 
Q 47.125 21.390625 47.125 36.375 
Q 47.125 51.421875 43.28125 58.90625 
Q 39.453125 66.40625 31.78125 66.40625 
z
M 31.78125 74.21875 
Q 44.046875 74.21875 50.515625 64.515625 
Q 56.984375 54.828125 56.984375 36.375 
Q 56.984375 17.96875 50.515625 8.265625 
Q 44.046875 -1.421875 31.78125 -1.421875 
Q 19.53125 -1.421875 13.0625 8.265625 
Q 6.59375 17.96875 6.59375 36.375 
Q 6.59375 54.828125 13.0625 64.515625 
Q 19.53125 74.21875 31.78125 74.21875 
z
" id="DejaVuSans-30"/>
      </defs>
      <g transform="translate(64.226278 387.442187)scale(0.1 -0.1)">
       <use xlink:href="#DejaVuSans-30"/>
      </g>
     </g>
    </g>
    <g id="xtick_2">
     <g id="line2d_2">
      <g>
       <use style="stroke:#000000;stroke-width:0.8;" x="129.86891" xlink:href="#md6465da764" y="372.84375"/>
      </g>
     </g>
     <g id="text_2">
      <!-- 100 -->
      <defs>
       <path d="M 12.40625 8.296875 
L 28.515625 8.296875 
L 28.515625 63.921875 
L 10.984375 60.40625 
L 10.984375 69.390625 
L 28.421875 72.90625 
L 38.28125 72.90625 
L 38.28125 8.296875 
L 54.390625 8.296875 
L 54.390625 0 
L 12.40625 0 
z
" id="DejaVuSans-31"/>
      </defs>
      <g transform="translate(120.32516 387.442187)scale(0.1 -0.1)">
       <use xlink:href="#DejaVuSans-31"/>
       <use x="63.623047" xlink:href="#DejaVuSans-30"/>
       <use x="127.246094" xlink:href="#DejaVuSans-30"/>
      </g>
     </g>
    </g>
    <g id="xtick_3">
     <g id="line2d_3">
      <g>
       <use style="stroke:#000000;stroke-width:0.8;" x="192.330292" xlink:href="#md6465da764" y="372.84375"/>
      </g>
     </g>
     <g id="text_3">
      <!-- 200 -->
      <defs>
       <path d="M 19.1875 8.296875 
L 53.609375 8.296875 
L 53.609375 0 
L 7.328125 0 
L 7.328125 8.296875 
Q 12.9375 14.109375 22.625 23.890625 
Q 32.328125 33.6875 34.8125 36.53125 
Q 39.546875 41.84375 41.421875 45.53125 
Q 43.3125 49.21875 43.3125 52.78125 
Q 43.3125 58.59375 39.234375 62.25 
Q 35.15625 65.921875 28.609375 65.921875 
Q 23.96875 65.921875 18.8125 64.3125 
Q 13.671875 62.703125 7.8125 59.421875 
L 7.8125 69.390625 
Q 13.765625 71.78125 18.9375 73 
Q 24.125 74.21875 28.421875 74.21875 
Q 39.75 74.21875 46.484375 68.546875 
Q 53.21875 62.890625 53.21875 53.421875 
Q 53.21875 48.921875 51.53125 44.890625 
Q 49.859375 40.875 45.40625 35.40625 
Q 44.1875 33.984375 37.640625 27.21875 
Q 31.109375 20.453125 19.1875 8.296875 
z
" id="DejaVuSans-32"/>
      </defs>
      <g transform="translate(182.786542 387.442187)scale(0.1 -0.1)">
       <use xlink:href="#DejaVuSans-32"/>
       <use x="63.623047" xlink:href="#DejaVuSans-30"/>
       <use x="127.246094" xlink:href="#DejaVuSans-30"/>
      </g>
     </g>
    </g>
    <g id="xtick_4">
     <g id="line2d_4">
      <g>
       <use style="stroke:#000000;stroke-width:0.8;" x="254.791674" xlink:href="#md6465da764" y="372.84375"/>
      </g>
     </g>
     <g id="text_4">
      <!-- 300 -->
      <defs>
       <path d="M 40.578125 39.3125 
Q 47.65625 37.796875 51.625 33 
Q 55.609375 28.21875 55.609375 21.1875 
Q 55.609375 10.40625 48.1875 4.484375 
Q 40.765625 -1.421875 27.09375 -1.421875 
Q 22.515625 -1.421875 17.65625 -0.515625 
Q 12.796875 0.390625 7.625 2.203125 
L 7.625 11.71875 
Q 11.71875 9.328125 16.59375 8.109375 
Q 21.484375 6.890625 26.8125 6.890625 
Q 36.078125 6.890625 40.9375 10.546875 
Q 45.796875 14.203125 45.796875 21.1875 
Q 45.796875 27.640625 41.28125 31.265625 
Q 36.765625 34.90625 28.71875 34.90625 
L 20.21875 34.90625 
L 20.21875 43.015625 
L 29.109375 43.015625 
Q 36.375 43.015625 40.234375 45.921875 
Q 44.09375 48.828125 44.09375 54.296875 
Q 44.09375 59.90625 40.109375 62.90625 
Q 36.140625 65.921875 28.71875 65.921875 
Q 24.65625 65.921875 20.015625 65.03125 
Q 15.375 64.15625 9.8125 62.3125 
L 9.8125 71.09375 
Q 15.4375 72.65625 20.34375 73.4375 
Q 25.25 74.21875 29.59375 74.21875 
Q 40.828125 74.21875 47.359375 69.109375 
Q 53.90625 64.015625 53.90625 55.328125 
Q 53.90625 49.265625 50.4375 45.09375 
Q 46.96875 40.921875 40.578125 39.3125 
z
" id="DejaVuSans-33"/>
      </defs>
      <g transform="translate(245.247924 387.442187)scale(0.1 -0.1)">
       <use xlink:href="#DejaVuSans-33"/>
       <use x="63.623047" xlink:href="#DejaVuSans-30"/>
       <use x="127.246094" xlink:href="#DejaVuSans-30"/>
      </g>
     </g>
    </g>
    <g id="xtick_5">
     <g id="line2d_5">
      <g>
       <use style="stroke:#000000;stroke-width:0.8;" x="317.253056" xlink:href="#md6465da764" y="372.84375"/>
      </g>
     </g>
     <g id="text_5">
      <!-- 400 -->
      <defs>
       <path d="M 37.796875 64.3125 
L 12.890625 25.390625 
L 37.796875 25.390625 
z
M 35.203125 72.90625 
L 47.609375 72.90625 
L 47.609375 25.390625 
L 58.015625 25.390625 
L 58.015625 17.1875 
L 47.609375 17.1875 
L 47.609375 0 
L 37.796875 0 
L 37.796875 17.1875 
L 4.890625 17.1875 
L 4.890625 26.703125 
z
" id="DejaVuSans-34"/>
      </defs>
      <g transform="translate(307.709306 387.442187)scale(0.1 -0.1)">
       <use xlink:href="#DejaVuSans-34"/>
       <use x="63.623047" xlink:href="#DejaVuSans-30"/>
       <use x="127.246094" xlink:href="#DejaVuSans-30"/>
      </g>
     </g>
    </g>
    <g id="xtick_6">
     <g id="line2d_6">
      <g>
       <use style="stroke:#000000;stroke-width:0.8;" x="379.714438" xlink:href="#md6465da764" y="372.84375"/>
      </g>
     </g>
     <g id="text_6">
      <!-- 500 -->
      <defs>
       <path d="M 10.796875 72.90625 
L 49.515625 72.90625 
L 49.515625 64.59375 
L 19.828125 64.59375 
L 19.828125 46.734375 
Q 21.96875 47.46875 24.109375 47.828125 
Q 26.265625 48.1875 28.421875 48.1875 
Q 40.625 48.1875 47.75 41.5 
Q 54.890625 34.8125 54.890625 23.390625 
Q 54.890625 11.625 47.5625 5.09375 
Q 40.234375 -1.421875 26.90625 -1.421875 
Q 22.3125 -1.421875 17.546875 -0.640625 
Q 12.796875 0.140625 7.71875 1.703125 
L 7.71875 11.625 
Q 12.109375 9.234375 16.796875 8.0625 
Q 21.484375 6.890625 26.703125 6.890625 
Q 35.15625 6.890625 40.078125 11.328125 
Q 45.015625 15.765625 45.015625 23.390625 
Q 45.015625 31 40.078125 35.4375 
Q 35.15625 39.890625 26.703125 39.890625 
Q 22.75 39.890625 18.8125 39.015625 
Q 14.890625 38.140625 10.796875 36.28125 
z
" id="DejaVuSans-35"/>
      </defs>
      <g transform="translate(370.170688 387.442187)scale(0.1 -0.1)">
       <use xlink:href="#DejaVuSans-35"/>
       <use x="63.623047" xlink:href="#DejaVuSans-30"/>
       <use x="127.246094" xlink:href="#DejaVuSans-30"/>
      </g>
     </g>
    </g>
    <g id="xtick_7">
     <g id="line2d_7">
      <g>
       <use style="stroke:#000000;stroke-width:0.8;" x="442.17582" xlink:href="#md6465da764" y="372.84375"/>
      </g>
     </g>
     <g id="text_7">
      <!-- 600 -->
      <defs>
       <path d="M 33.015625 40.375 
Q 26.375 40.375 22.484375 35.828125 
Q 18.609375 31.296875 18.609375 23.390625 
Q 18.609375 15.53125 22.484375 10.953125 
Q 26.375 6.390625 33.015625 6.390625 
Q 39.65625 6.390625 43.53125 10.953125 
Q 47.40625 15.53125 47.40625 23.390625 
Q 47.40625 31.296875 43.53125 35.828125 
Q 39.65625 40.375 33.015625 40.375 
z
M 52.59375 71.296875 
L 52.59375 62.3125 
Q 48.875 64.0625 45.09375 64.984375 
Q 41.3125 65.921875 37.59375 65.921875 
Q 27.828125 65.921875 22.671875 59.328125 
Q 17.53125 52.734375 16.796875 39.40625 
Q 19.671875 43.65625 24.015625 45.921875 
Q 28.375 48.1875 33.59375 48.1875 
Q 44.578125 48.1875 50.953125 41.515625 
Q 57.328125 34.859375 57.328125 23.390625 
Q 57.328125 12.15625 50.6875 5.359375 
Q 44.046875 -1.421875 33.015625 -1.421875 
Q 20.359375 -1.421875 13.671875 8.265625 
Q 6.984375 17.96875 6.984375 36.375 
Q 6.984375 53.65625 15.1875 63.9375 
Q 23.390625 74.21875 37.203125 74.21875 
Q 40.921875 74.21875 44.703125 73.484375 
Q 48.484375 72.75 52.59375 71.296875 
z
" id="DejaVuSans-36"/>
      </defs>
      <g transform="translate(432.63207 387.442187)scale(0.1 -0.1)">
       <use xlink:href="#DejaVuSans-36"/>
       <use x="63.623047" xlink:href="#DejaVuSans-30"/>
       <use x="127.246094" xlink:href="#DejaVuSans-30"/>
      </g>
     </g>
    </g>
    <g id="xtick_8">
     <g id="line2d_8">
      <g>
       <use style="stroke:#000000;stroke-width:0.8;" x="504.637202" xlink:href="#md6465da764" y="372.84375"/>
      </g>
     </g>
     <g id="text_8">
      <!-- 700 -->
      <defs>
       <path d="M 8.203125 72.90625 
L 55.078125 72.90625 
L 55.078125 68.703125 
L 28.609375 0 
L 18.3125 0 
L 43.21875 64.59375 
L 8.203125 64.59375 
z
" id="DejaVuSans-37"/>
      </defs>
      <g transform="translate(495.093452 387.442187)scale(0.1 -0.1)">
       <use xlink:href="#DejaVuSans-37"/>
       <use x="63.623047" xlink:href="#DejaVuSans-30"/>
       <use x="127.246094" xlink:href="#DejaVuSans-30"/>
      </g>
     </g>
    </g>
    <g id="text_9">
     <!-- Hours since midnight August 1, 2010 -->
     <defs>
      <path d="M 9.8125 72.90625 
L 19.671875 72.90625 
L 19.671875 43.015625 
L 55.515625 43.015625 
L 55.515625 72.90625 
L 65.375 72.90625 
L 65.375 0 
L 55.515625 0 
L 55.515625 34.71875 
L 19.671875 34.71875 
L 19.671875 0 
L 9.8125 0 
z
" id="DejaVuSans-48"/>
      <path d="M 30.609375 48.390625 
Q 23.390625 48.390625 19.1875 42.75 
Q 14.984375 37.109375 14.984375 27.296875 
Q 14.984375 17.484375 19.15625 11.84375 
Q 23.34375 6.203125 30.609375 6.203125 
Q 37.796875 6.203125 41.984375 11.859375 
Q 46.1875 17.53125 46.1875 27.296875 
Q 46.1875 37.015625 41.984375 42.703125 
Q 37.796875 48.390625 30.609375 48.390625 
z
M 30.609375 56 
Q 42.328125 56 49.015625 48.375 
Q 55.71875 40.765625 55.71875 27.296875 
Q 55.71875 13.875 49.015625 6.21875 
Q 42.328125 -1.421875 30.609375 -1.421875 
Q 18.84375 -1.421875 12.171875 6.21875 
Q 5.515625 13.875 5.515625 27.296875 
Q 5.515625 40.765625 12.171875 48.375 
Q 18.84375 56 30.609375 56 
z
" id="DejaVuSans-6f"/>
      <path d="M 8.5 21.578125 
L 8.5 54.6875 
L 17.484375 54.6875 
L 17.484375 21.921875 
Q 17.484375 14.15625 20.5 10.265625 
Q 23.53125 6.390625 29.59375 6.390625 
Q 36.859375 6.390625 41.078125 11.03125 
Q 45.3125 15.671875 45.3125 23.6875 
L 45.3125 54.6875 
L 54.296875 54.6875 
L 54.296875 0 
L 45.3125 0 
L 45.3125 8.40625 
Q 42.046875 3.421875 37.71875 1 
Q 33.40625 -1.421875 27.6875 -1.421875 
Q 18.265625 -1.421875 13.375 4.4375 
Q 8.5 10.296875 8.5 21.578125 
z
M 31.109375 56 
z
" id="DejaVuSans-75"/>
      <path d="M 41.109375 46.296875 
Q 39.59375 47.171875 37.8125 47.578125 
Q 36.03125 48 33.890625 48 
Q 26.265625 48 22.1875 43.046875 
Q 18.109375 38.09375 18.109375 28.8125 
L 18.109375 0 
L 9.078125 0 
L 9.078125 54.6875 
L 18.109375 54.6875 
L 18.109375 46.1875 
Q 20.953125 51.171875 25.484375 53.578125 
Q 30.03125 56 36.53125 56 
Q 37.453125 56 38.578125 55.875 
Q 39.703125 55.765625 41.0625 55.515625 
z
" id="DejaVuSans-72"/>
      <path d="M 44.28125 53.078125 
L 44.28125 44.578125 
Q 40.484375 46.53125 36.375 47.5 
Q 32.28125 48.484375 27.875 48.484375 
Q 21.1875 48.484375 17.84375 46.4375 
Q 14.5 44.390625 14.5 40.28125 
Q 14.5 37.15625 16.890625 35.375 
Q 19.28125 33.59375 26.515625 31.984375 
L 29.59375 31.296875 
Q 39.15625 29.25 43.1875 25.515625 
Q 47.21875 21.78125 47.21875 15.09375 
Q 47.21875 7.46875 41.1875 3.015625 
Q 35.15625 -1.421875 24.609375 -1.421875 
Q 20.21875 -1.421875 15.453125 -0.5625 
Q 10.6875 0.296875 5.421875 2 
L 5.421875 11.28125 
Q 10.40625 8.6875 15.234375 7.390625 
Q 20.0625 6.109375 24.8125 6.109375 
Q 31.15625 6.109375 34.5625 8.28125 
Q 37.984375 10.453125 37.984375 14.40625 
Q 37.984375 18.0625 35.515625 20.015625 
Q 33.0625 21.96875 24.703125 23.78125 
L 21.578125 24.515625 
Q 13.234375 26.265625 9.515625 29.90625 
Q 5.8125 33.546875 5.8125 39.890625 
Q 5.8125 47.609375 11.28125 51.796875 
Q 16.75 56 26.8125 56 
Q 31.78125 56 36.171875 55.265625 
Q 40.578125 54.546875 44.28125 53.078125 
z
" id="DejaVuSans-73"/>
      <path id="DejaVuSans-20"/>
      <path d="M 9.421875 54.6875 
L 18.40625 54.6875 
L 18.40625 0 
L 9.421875 0 
z
M 9.421875 75.984375 
L 18.40625 75.984375 
L 18.40625 64.59375 
L 9.421875 64.59375 
z
" id="DejaVuSans-69"/>
      <path d="M 54.890625 33.015625 
L 54.890625 0 
L 45.90625 0 
L 45.90625 32.71875 
Q 45.90625 40.484375 42.875 44.328125 
Q 39.84375 48.1875 33.796875 48.1875 
Q 26.515625 48.1875 22.3125 43.546875 
Q 18.109375 38.921875 18.109375 30.90625 
L 18.109375 0 
L 9.078125 0 
L 9.078125 54.6875 
L 18.109375 54.6875 
L 18.109375 46.1875 
Q 21.34375 51.125 25.703125 53.5625 
Q 30.078125 56 35.796875 56 
Q 45.21875 56 50.046875 50.171875 
Q 54.890625 44.34375 54.890625 33.015625 
z
" id="DejaVuSans-6e"/>
      <path d="M 48.78125 52.59375 
L 48.78125 44.1875 
Q 44.96875 46.296875 41.140625 47.34375 
Q 37.3125 48.390625 33.40625 48.390625 
Q 24.65625 48.390625 19.8125 42.84375 
Q 14.984375 37.3125 14.984375 27.296875 
Q 14.984375 17.28125 19.8125 11.734375 
Q 24.65625 6.203125 33.40625 6.203125 
Q 37.3125 6.203125 41.140625 7.25 
Q 44.96875 8.296875 48.78125 10.40625 
L 48.78125 2.09375 
Q 45.015625 0.34375 40.984375 -0.53125 
Q 36.96875 -1.421875 32.421875 -1.421875 
Q 20.0625 -1.421875 12.78125 6.34375 
Q 5.515625 14.109375 5.515625 27.296875 
Q 5.515625 40.671875 12.859375 48.328125 
Q 20.21875 56 33.015625 56 
Q 37.15625 56 41.109375 55.140625 
Q 45.0625 54.296875 48.78125 52.59375 
z
" id="DejaVuSans-63"/>
      <path d="M 56.203125 29.59375 
L 56.203125 25.203125 
L 14.890625 25.203125 
Q 15.484375 15.921875 20.484375 11.0625 
Q 25.484375 6.203125 34.421875 6.203125 
Q 39.59375 6.203125 44.453125 7.46875 
Q 49.3125 8.734375 54.109375 11.28125 
L 54.109375 2.78125 
Q 49.265625 0.734375 44.1875 -0.34375 
Q 39.109375 -1.421875 33.890625 -1.421875 
Q 20.796875 -1.421875 13.15625 6.1875 
Q 5.515625 13.8125 5.515625 26.8125 
Q 5.515625 40.234375 12.765625 48.109375 
Q 20.015625 56 32.328125 56 
Q 43.359375 56 49.78125 48.890625 
Q 56.203125 41.796875 56.203125 29.59375 
z
M 47.21875 32.234375 
Q 47.125 39.59375 43.09375 43.984375 
Q 39.0625 48.390625 32.421875 48.390625 
Q 24.90625 48.390625 20.390625 44.140625 
Q 15.875 39.890625 15.1875 32.171875 
z
" id="DejaVuSans-65"/>
      <path d="M 52 44.1875 
Q 55.375 50.25 60.0625 53.125 
Q 64.75 56 71.09375 56 
Q 79.640625 56 84.28125 50.015625 
Q 88.921875 44.046875 88.921875 33.015625 
L 88.921875 0 
L 79.890625 0 
L 79.890625 32.71875 
Q 79.890625 40.578125 77.09375 44.375 
Q 74.3125 48.1875 68.609375 48.1875 
Q 61.625 48.1875 57.5625 43.546875 
Q 53.515625 38.921875 53.515625 30.90625 
L 53.515625 0 
L 44.484375 0 
L 44.484375 32.71875 
Q 44.484375 40.625 41.703125 44.40625 
Q 38.921875 48.1875 33.109375 48.1875 
Q 26.21875 48.1875 22.15625 43.53125 
Q 18.109375 38.875 18.109375 30.90625 
L 18.109375 0 
L 9.078125 0 
L 9.078125 54.6875 
L 18.109375 54.6875 
L 18.109375 46.1875 
Q 21.1875 51.21875 25.484375 53.609375 
Q 29.78125 56 35.6875 56 
Q 41.65625 56 45.828125 52.96875 
Q 50 49.953125 52 44.1875 
z
" id="DejaVuSans-6d"/>
      <path d="M 45.40625 46.390625 
L 45.40625 75.984375 
L 54.390625 75.984375 
L 54.390625 0 
L 45.40625 0 
L 45.40625 8.203125 
Q 42.578125 3.328125 38.25 0.953125 
Q 33.9375 -1.421875 27.875 -1.421875 
Q 17.96875 -1.421875 11.734375 6.484375 
Q 5.515625 14.40625 5.515625 27.296875 
Q 5.515625 40.1875 11.734375 48.09375 
Q 17.96875 56 27.875 56 
Q 33.9375 56 38.25 53.625 
Q 42.578125 51.265625 45.40625 46.390625 
z
M 14.796875 27.296875 
Q 14.796875 17.390625 18.875 11.75 
Q 22.953125 6.109375 30.078125 6.109375 
Q 37.203125 6.109375 41.296875 11.75 
Q 45.40625 17.390625 45.40625 27.296875 
Q 45.40625 37.203125 41.296875 42.84375 
Q 37.203125 48.484375 30.078125 48.484375 
Q 22.953125 48.484375 18.875 42.84375 
Q 14.796875 37.203125 14.796875 27.296875 
z
" id="DejaVuSans-64"/>
      <path d="M 45.40625 27.984375 
Q 45.40625 37.75 41.375 43.109375 
Q 37.359375 48.484375 30.078125 48.484375 
Q 22.859375 48.484375 18.828125 43.109375 
Q 14.796875 37.75 14.796875 27.984375 
Q 14.796875 18.265625 18.828125 12.890625 
Q 22.859375 7.515625 30.078125 7.515625 
Q 37.359375 7.515625 41.375 12.890625 
Q 45.40625 18.265625 45.40625 27.984375 
z
M 54.390625 6.78125 
Q 54.390625 -7.171875 48.1875 -13.984375 
Q 42 -20.796875 29.203125 -20.796875 
Q 24.46875 -20.796875 20.265625 -20.09375 
Q 16.0625 -19.390625 12.109375 -17.921875 
L 12.109375 -9.1875 
Q 16.0625 -11.328125 19.921875 -12.34375 
Q 23.78125 -13.375 27.78125 -13.375 
Q 36.625 -13.375 41.015625 -8.765625 
Q 45.40625 -4.15625 45.40625 5.171875 
L 45.40625 9.625 
Q 42.625 4.78125 38.28125 2.390625 
Q 33.9375 0 27.875 0 
Q 17.828125 0 11.671875 7.65625 
Q 5.515625 15.328125 5.515625 27.984375 
Q 5.515625 40.671875 11.671875 48.328125 
Q 17.828125 56 27.875 56 
Q 33.9375 56 38.28125 53.609375 
Q 42.625 51.21875 45.40625 46.390625 
L 45.40625 54.6875 
L 54.390625 54.6875 
z
" id="DejaVuSans-67"/>
      <path d="M 54.890625 33.015625 
L 54.890625 0 
L 45.90625 0 
L 45.90625 32.71875 
Q 45.90625 40.484375 42.875 44.328125 
Q 39.84375 48.1875 33.796875 48.1875 
Q 26.515625 48.1875 22.3125 43.546875 
Q 18.109375 38.921875 18.109375 30.90625 
L 18.109375 0 
L 9.078125 0 
L 9.078125 75.984375 
L 18.109375 75.984375 
L 18.109375 46.1875 
Q 21.34375 51.125 25.703125 53.5625 
Q 30.078125 56 35.796875 56 
Q 45.21875 56 50.046875 50.171875 
Q 54.890625 44.34375 54.890625 33.015625 
z
" id="DejaVuSans-68"/>
      <path d="M 18.3125 70.21875 
L 18.3125 54.6875 
L 36.8125 54.6875 
L 36.8125 47.703125 
L 18.3125 47.703125 
L 18.3125 18.015625 
Q 18.3125 11.328125 20.140625 9.421875 
Q 21.96875 7.515625 27.59375 7.515625 
L 36.8125 7.515625 
L 36.8125 0 
L 27.59375 0 
Q 17.1875 0 13.234375 3.875 
Q 9.28125 7.765625 9.28125 18.015625 
L 9.28125 47.703125 
L 2.6875 47.703125 
L 2.6875 54.6875 
L 9.28125 54.6875 
L 9.28125 70.21875 
z
" id="DejaVuSans-74"/>
      <path d="M 34.1875 63.1875 
L 20.796875 26.90625 
L 47.609375 26.90625 
z
M 28.609375 72.90625 
L 39.796875 72.90625 
L 67.578125 0 
L 57.328125 0 
L 50.6875 18.703125 
L 17.828125 18.703125 
L 11.1875 0 
L 0.78125 0 
z
" id="DejaVuSans-41"/>
      <path d="M 11.71875 12.40625 
L 22.015625 12.40625 
L 22.015625 4 
L 14.015625 -11.625 
L 7.71875 -11.625 
L 11.71875 4 
z
" id="DejaVuSans-2c"/>
     </defs>
     <g transform="translate(206.582812 401.120313)scale(0.1 -0.1)">
      <use xlink:href="#DejaVuSans-48"/>
      <use x="75.195312" xlink:href="#DejaVuSans-6f"/>
      <use x="136.376953" xlink:href="#DejaVuSans-75"/>
      <use x="199.755859" xlink:href="#DejaVuSans-72"/>
      <use x="240.869141" xlink:href="#DejaVuSans-73"/>
      <use x="292.96875" xlink:href="#DejaVuSans-20"/>
      <use x="324.755859" xlink:href="#DejaVuSans-73"/>
      <use x="376.855469" xlink:href="#DejaVuSans-69"/>
      <use x="404.638672" xlink:href="#DejaVuSans-6e"/>
      <use x="468.017578" xlink:href="#DejaVuSans-63"/>
      <use x="522.998047" xlink:href="#DejaVuSans-65"/>
      <use x="584.521484" xlink:href="#DejaVuSans-20"/>
      <use x="616.308594" xlink:href="#DejaVuSans-6d"/>
      <use x="713.720703" xlink:href="#DejaVuSans-69"/>
      <use x="741.503906" xlink:href="#DejaVuSans-64"/>
      <use x="804.980469" xlink:href="#DejaVuSans-6e"/>
      <use x="868.359375" xlink:href="#DejaVuSans-69"/>
      <use x="896.142578" xlink:href="#DejaVuSans-67"/>
      <use x="959.619141" xlink:href="#DejaVuSans-68"/>
      <use x="1022.998047" xlink:href="#DejaVuSans-74"/>
      <use x="1062.207031" xlink:href="#DejaVuSans-20"/>
      <use x="1093.994141" xlink:href="#DejaVuSans-41"/>
      <use x="1162.402344" xlink:href="#DejaVuSans-75"/>
      <use x="1225.78125" xlink:href="#DejaVuSans-67"/>
      <use x="1289.257812" xlink:href="#DejaVuSans-75"/>
      <use x="1352.636719" xlink:href="#DejaVuSans-73"/>
      <use x="1404.736328" xlink:href="#DejaVuSans-74"/>
      <use x="1443.945312" xlink:href="#DejaVuSans-20"/>
      <use x="1475.732422" xlink:href="#DejaVuSans-31"/>
      <use x="1539.355469" xlink:href="#DejaVuSans-2c"/>
      <use x="1571.142578" xlink:href="#DejaVuSans-20"/>
      <use x="1602.929688" xlink:href="#DejaVuSans-32"/>
      <use x="1666.552734" xlink:href="#DejaVuSans-30"/>
      <use x="1730.175781" xlink:href="#DejaVuSans-31"/>
      <use x="1793.798828" xlink:href="#DejaVuSans-30"/>
     </g>
    </g>
   </g>
   <g id="matplotlib.axis_2">
    <g id="ytick_1">
     <g id="line2d_9">
      <defs>
       <path d="M 0 0 
L -3.5 0 
" id="m73bcc78ac6" style="stroke:#000000;stroke-width:0.8;"/>
      </defs>
      <g>
       <use style="stroke:#000000;stroke-width:0.8;" x="44.203125" xlink:href="#m73bcc78ac6" y="334.032436"/>
      </g>
     </g>
     <g id="text_10">
      <!-- 75 -->
      <g transform="translate(24.478125 337.831655)scale(0.1 -0.1)">
       <use xlink:href="#DejaVuSans-37"/>
       <use x="63.623047" xlink:href="#DejaVuSans-35"/>
      </g>
     </g>
    </g>
    <g id="ytick_2">
     <g id="line2d_10">
      <g>
       <use style="stroke:#000000;stroke-width:0.8;" x="44.203125" xlink:href="#m73bcc78ac6" y="262.026287"/>
      </g>
     </g>
     <g id="text_11">
      <!-- 80 -->
      <defs>
       <path d="M 31.78125 34.625 
Q 24.75 34.625 20.71875 30.859375 
Q 16.703125 27.09375 16.703125 20.515625 
Q 16.703125 13.921875 20.71875 10.15625 
Q 24.75 6.390625 31.78125 6.390625 
Q 38.8125 6.390625 42.859375 10.171875 
Q 46.921875 13.96875 46.921875 20.515625 
Q 46.921875 27.09375 42.890625 30.859375 
Q 38.875 34.625 31.78125 34.625 
z
M 21.921875 38.8125 
Q 15.578125 40.375 12.03125 44.71875 
Q 8.5 49.078125 8.5 55.328125 
Q 8.5 64.0625 14.71875 69.140625 
Q 20.953125 74.21875 31.78125 74.21875 
Q 42.671875 74.21875 48.875 69.140625 
Q 55.078125 64.0625 55.078125 55.328125 
Q 55.078125 49.078125 51.53125 44.71875 
Q 48 40.375 41.703125 38.8125 
Q 48.828125 37.15625 52.796875 32.3125 
Q 56.78125 27.484375 56.78125 20.515625 
Q 56.78125 9.90625 50.3125 4.234375 
Q 43.84375 -1.421875 31.78125 -1.421875 
Q 19.734375 -1.421875 13.25 4.234375 
Q 6.78125 9.90625 6.78125 20.515625 
Q 6.78125 27.484375 10.78125 32.3125 
Q 14.796875 37.15625 21.921875 38.8125 
z
M 18.3125 54.390625 
Q 18.3125 48.734375 21.84375 45.5625 
Q 25.390625 42.390625 31.78125 42.390625 
Q 38.140625 42.390625 41.71875 45.5625 
Q 45.3125 48.734375 45.3125 54.390625 
Q 45.3125 60.0625 41.71875 63.234375 
Q 38.140625 66.40625 31.78125 66.40625 
Q 25.390625 66.40625 21.84375 63.234375 
Q 18.3125 60.0625 18.3125 54.390625 
z
" id="DejaVuSans-38"/>
      </defs>
      <g transform="translate(24.478125 265.825506)scale(0.1 -0.1)">
       <use xlink:href="#DejaVuSans-38"/>
       <use x="63.623047" xlink:href="#DejaVuSans-30"/>
      </g>
     </g>
    </g>
    <g id="ytick_3">
     <g id="line2d_11">
      <g>
       <use style="stroke:#000000;stroke-width:0.8;" x="44.203125" xlink:href="#m73bcc78ac6" y="190.020138"/>
      </g>
     </g>
     <g id="text_12">
      <!-- 85 -->
      <g transform="translate(24.478125 193.819357)scale(0.1 -0.1)">
       <use xlink:href="#DejaVuSans-38"/>
       <use x="63.623047" xlink:href="#DejaVuSans-35"/>
      </g>
     </g>
    </g>
    <g id="ytick_4">
     <g id="line2d_12">
      <g>
       <use style="stroke:#000000;stroke-width:0.8;" x="44.203125" xlink:href="#m73bcc78ac6" y="118.013989"/>
      </g>
     </g>
     <g id="text_13">
      <!-- 90 -->
      <defs>
       <path d="M 10.984375 1.515625 
L 10.984375 10.5 
Q 14.703125 8.734375 18.5 7.8125 
Q 22.3125 6.890625 25.984375 6.890625 
Q 35.75 6.890625 40.890625 13.453125 
Q 46.046875 20.015625 46.78125 33.40625 
Q 43.953125 29.203125 39.59375 26.953125 
Q 35.25 24.703125 29.984375 24.703125 
Q 19.046875 24.703125 12.671875 31.3125 
Q 6.296875 37.9375 6.296875 49.421875 
Q 6.296875 60.640625 12.9375 67.421875 
Q 19.578125 74.21875 30.609375 74.21875 
Q 43.265625 74.21875 49.921875 64.515625 
Q 56.59375 54.828125 56.59375 36.375 
Q 56.59375 19.140625 48.40625 8.859375 
Q 40.234375 -1.421875 26.421875 -1.421875 
Q 22.703125 -1.421875 18.890625 -0.6875 
Q 15.09375 0.046875 10.984375 1.515625 
z
M 30.609375 32.421875 
Q 37.25 32.421875 41.125 36.953125 
Q 45.015625 41.5 45.015625 49.421875 
Q 45.015625 57.28125 41.125 61.84375 
Q 37.25 66.40625 30.609375 66.40625 
Q 23.96875 66.40625 20.09375 61.84375 
Q 16.21875 57.28125 16.21875 49.421875 
Q 16.21875 41.5 20.09375 36.953125 
Q 23.96875 32.421875 30.609375 32.421875 
z
" id="DejaVuSans-39"/>
      </defs>
      <g transform="translate(24.478125 121.813208)scale(0.1 -0.1)">
       <use xlink:href="#DejaVuSans-39"/>
       <use x="63.623047" xlink:href="#DejaVuSans-30"/>
      </g>
     </g>
    </g>
    <g id="ytick_5">
     <g id="line2d_13">
      <g>
       <use style="stroke:#000000;stroke-width:0.8;" x="44.203125" xlink:href="#m73bcc78ac6" y="46.007841"/>
      </g>
     </g>
     <g id="text_14">
      <!-- 95 -->
      <g transform="translate(24.478125 49.807059)scale(0.1 -0.1)">
       <use xlink:href="#DejaVuSans-39"/>
       <use x="63.623047" xlink:href="#DejaVuSans-35"/>
      </g>
     </g>
    </g>
    <g id="text_15">
     <!-- Temperature (degrees F) -->
     <defs>
      <path d="M -0.296875 72.90625 
L 61.375 72.90625 
L 61.375 64.59375 
L 35.5 64.59375 
L 35.5 0 
L 25.59375 0 
L 25.59375 64.59375 
L -0.296875 64.59375 
z
" id="DejaVuSans-54"/>
      <path d="M 18.109375 8.203125 
L 18.109375 -20.796875 
L 9.078125 -20.796875 
L 9.078125 54.6875 
L 18.109375 54.6875 
L 18.109375 46.390625 
Q 20.953125 51.265625 25.265625 53.625 
Q 29.59375 56 35.59375 56 
Q 45.5625 56 51.78125 48.09375 
Q 58.015625 40.1875 58.015625 27.296875 
Q 58.015625 14.40625 51.78125 6.484375 
Q 45.5625 -1.421875 35.59375 -1.421875 
Q 29.59375 -1.421875 25.265625 0.953125 
Q 20.953125 3.328125 18.109375 8.203125 
z
M 48.6875 27.296875 
Q 48.6875 37.203125 44.609375 42.84375 
Q 40.53125 48.484375 33.40625 48.484375 
Q 26.265625 48.484375 22.1875 42.84375 
Q 18.109375 37.203125 18.109375 27.296875 
Q 18.109375 17.390625 22.1875 11.75 
Q 26.265625 6.109375 33.40625 6.109375 
Q 40.53125 6.109375 44.609375 11.75 
Q 48.6875 17.390625 48.6875 27.296875 
z
" id="DejaVuSans-70"/>
      <path d="M 34.28125 27.484375 
Q 23.390625 27.484375 19.1875 25 
Q 14.984375 22.515625 14.984375 16.5 
Q 14.984375 11.71875 18.140625 8.90625 
Q 21.296875 6.109375 26.703125 6.109375 
Q 34.1875 6.109375 38.703125 11.40625 
Q 43.21875 16.703125 43.21875 25.484375 
L 43.21875 27.484375 
z
M 52.203125 31.203125 
L 52.203125 0 
L 43.21875 0 
L 43.21875 8.296875 
Q 40.140625 3.328125 35.546875 0.953125 
Q 30.953125 -1.421875 24.3125 -1.421875 
Q 15.921875 -1.421875 10.953125 3.296875 
Q 6 8.015625 6 15.921875 
Q 6 25.140625 12.171875 29.828125 
Q 18.359375 34.515625 30.609375 34.515625 
L 43.21875 34.515625 
L 43.21875 35.40625 
Q 43.21875 41.609375 39.140625 45 
Q 35.0625 48.390625 27.6875 48.390625 
Q 23 48.390625 18.546875 47.265625 
Q 14.109375 46.140625 10.015625 43.890625 
L 10.015625 52.203125 
Q 14.9375 54.109375 19.578125 55.046875 
Q 24.21875 56 28.609375 56 
Q 40.484375 56 46.34375 49.84375 
Q 52.203125 43.703125 52.203125 31.203125 
z
" id="DejaVuSans-61"/>
      <path d="M 31 75.875 
Q 24.46875 64.65625 21.28125 53.65625 
Q 18.109375 42.671875 18.109375 31.390625 
Q 18.109375 20.125 21.3125 9.0625 
Q 24.515625 -2 31 -13.1875 
L 23.1875 -13.1875 
Q 15.875 -1.703125 12.234375 9.375 
Q 8.59375 20.453125 8.59375 31.390625 
Q 8.59375 42.28125 12.203125 53.3125 
Q 15.828125 64.359375 23.1875 75.875 
z
" id="DejaVuSans-28"/>
      <path d="M 9.8125 72.90625 
L 51.703125 72.90625 
L 51.703125 64.59375 
L 19.671875 64.59375 
L 19.671875 43.109375 
L 48.578125 43.109375 
L 48.578125 34.8125 
L 19.671875 34.8125 
L 19.671875 0 
L 9.8125 0 
z
" id="DejaVuSans-46"/>
      <path d="M 8.015625 75.875 
L 15.828125 75.875 
Q 23.140625 64.359375 26.78125 53.3125 
Q 30.421875 42.28125 30.421875 31.390625 
Q 30.421875 20.453125 26.78125 9.375 
Q 23.140625 -1.703125 15.828125 -13.1875 
L 8.015625 -13.1875 
Q 14.5 -2 17.703125 9.0625 
Q 20.90625 20.125 20.90625 31.390625 
Q 20.90625 42.671875 17.703125 53.65625 
Q 14.5 64.65625 8.015625 75.875 
z
" id="DejaVuSans-29"/>
     </defs>
     <g transform="translate(18.398437 262.190312)rotate(-90)scale(0.1 -0.1)">
      <use xlink:href="#DejaVuSans-54"/>
      <use x="60.818359" xlink:href="#DejaVuSans-65"/>
      <use x="122.341797" xlink:href="#DejaVuSans-6d"/>
      <use x="219.753906" xlink:href="#DejaVuSans-70"/>
      <use x="283.230469" xlink:href="#DejaVuSans-65"/>
      <use x="344.753906" xlink:href="#DejaVuSans-72"/>
      <use x="385.867188" xlink:href="#DejaVuSans-61"/>
      <use x="447.146484" xlink:href="#DejaVuSans-74"/>
      <use x="486.355469" xlink:href="#DejaVuSans-75"/>
      <use x="549.734375" xlink:href="#DejaVuSans-72"/>
      <use x="590.816406" xlink:href="#DejaVuSans-65"/>
      <use x="652.339844" xlink:href="#DejaVuSans-20"/>
      <use x="684.126953" xlink:href="#DejaVuSans-28"/>
      <use x="723.140625" xlink:href="#DejaVuSans-64"/>
      <use x="786.617188" xlink:href="#DejaVuSans-65"/>
      <use x="848.140625" xlink:href="#DejaVuSans-67"/>
      <use x="911.617188" xlink:href="#DejaVuSans-72"/>
      <use x="952.699219" xlink:href="#DejaVuSans-65"/>
      <use x="1014.222656" xlink:href="#DejaVuSans-65"/>
      <use x="1075.746094" xlink:href="#DejaVuSans-73"/>
      <use x="1127.845703" xlink:href="#DejaVuSans-20"/>
      <use x="1159.632812" xlink:href="#DejaVuSans-46"/>
      <use x="1217.152344" xlink:href="#DejaVuSans-29"/>
     </g>
    </g>
   </g>
   <g id="line2d_14">
    <path clip-path="url(#p1ab9fc6e2b)" d="M 67.407528 276.427517 
L 68.032142 299.469484 
L 68.656756 313.870714 
L 69.905984 332.592313 
L 70.530598 339.792928 
L 71.155211 341.233051 
L 71.779825 319.631206 
L 73.029053 214.502229 
L 73.653667 166.978171 
L 74.902894 94.972022 
L 75.527508 71.930054 
L 76.152122 54.648578 
L 76.776736 46.007841 
L 77.40135 48.888086 
L 78.025963 61.849193 
L 78.650577 83.451038 
L 79.275191 119.454112 
L 79.899805 174.178785 
L 80.524419 210.18186 
L 81.773646 262.026287 
L 82.39826 274.987394 
L 83.022874 299.469484 
L 83.647488 312.430591 
L 84.896715 331.15219 
L 85.521329 339.792928 
L 86.145943 339.792928 
L 86.770557 318.191083 
L 88.019784 214.502229 
L 89.269012 126.654727 
L 89.893626 94.972022 
L 90.51824 71.930054 
L 91.142854 54.648578 
L 91.767467 46.007841 
L 92.392081 48.888086 
L 93.016695 61.849193 
L 93.641309 83.451038 
L 94.265923 120.894235 
L 94.890536 174.178785 
L 95.51515 210.18186 
L 96.764378 260.586164 
L 97.388992 274.987394 
L 98.013606 298.029361 
L 98.638219 312.430591 
L 99.887447 331.15219 
L 100.512061 339.792928 
L 101.136675 341.233051 
L 101.761289 319.631206 
L 103.010516 213.062106 
L 104.259744 126.654727 
L 104.884358 93.531899 
L 105.508971 70.489931 
L 106.133585 53.208455 
L 106.758199 44.567718 
L 107.382813 47.447963 
L 108.007427 58.968947 
L 108.632041 82.010915 
L 109.256654 120.894235 
L 109.881268 175.618908 
L 110.505882 211.621983 
L 111.75511 260.586164 
L 112.379723 273.547271 
L 113.004337 296.589238 
L 113.628951 310.990468 
L 114.878179 329.712067 
L 115.502793 338.352805 
L 116.127406 339.792928 
L 116.75202 319.631206 
L 118.001248 211.621983 
L 119.250475 125.214604 
L 119.875089 90.651653 
L 120.499703 69.049808 
L 121.124317 51.768332 
L 121.748931 44.567718 
L 122.373545 46.007841 
L 122.998158 58.968947 
L 123.622772 82.010915 
L 124.247386 122.334358 
L 124.872 175.618908 
L 125.496614 211.621983 
L 126.745841 259.146041 
L 127.370455 273.547271 
L 127.995069 296.589238 
L 128.619683 310.990468 
L 129.86891 329.712067 
L 130.493524 338.352805 
L 131.118138 339.792928 
L 131.742752 318.191083 
L 133.616593 166.978171 
L 134.865821 90.651653 
L 135.490435 69.049808 
L 136.115049 53.208455 
L 136.739662 44.567718 
L 137.364276 47.447963 
L 137.98889 58.968947 
L 138.613504 83.451038 
L 139.238118 123.774481 
L 139.862732 177.059031 
L 140.487345 213.062106 
L 141.736573 260.586164 
L 142.361187 273.547271 
L 142.985801 296.589238 
L 143.610414 310.990468 
L 145.484256 339.792928 
L 146.10887 339.792928 
L 146.733484 319.631206 
L 148.607325 166.978171 
L 149.231939 125.214604 
L 149.856553 92.091776 
L 150.481166 69.049808 
L 151.10578 53.208455 
L 151.730394 43.127595 
L 152.355008 46.007841 
L 152.979622 58.968947 
L 153.604236 82.010915 
L 154.228849 123.774481 
L 154.853463 177.059031 
L 155.478077 213.062106 
L 156.727305 262.026287 
L 157.351918 273.547271 
L 157.976532 298.029361 
L 158.601146 312.430591 
L 159.850374 331.15219 
L 160.474988 339.792928 
L 161.099601 339.792928 
L 161.724215 319.631206 
L 163.598057 168.418294 
L 164.847284 92.091776 
L 165.471898 69.049808 
L 166.096512 53.208455 
L 166.721126 41.687472 
L 167.34574 46.007841 
L 167.970353 58.968947 
L 168.594967 83.451038 
L 169.219581 125.214604 
L 169.844195 178.499154 
L 170.468809 214.502229 
L 171.718036 262.026287 
L 172.34265 273.547271 
L 172.967264 298.029361 
L 173.591878 312.430591 
L 174.841105 331.15219 
L 175.465719 339.792928 
L 176.090333 339.792928 
L 176.714947 321.071329 
L 177.964175 214.502229 
L 179.213402 126.654727 
L 179.838016 93.531899 
L 180.46263 70.489931 
L 181.087244 53.208455 
L 181.711857 43.127595 
L 182.336471 47.447963 
L 182.961085 58.968947 
L 183.585699 83.451038 
L 184.210313 125.214604 
L 184.834927 179.939277 
L 185.45954 214.502229 
L 186.708768 262.026287 
L 187.333382 273.547271 
L 187.957996 298.029361 
L 188.582609 312.430591 
L 189.831837 331.15219 
L 190.456451 339.792928 
L 191.081065 339.792928 
L 191.705679 321.071329 
L 192.954906 214.502229 
L 194.204134 126.654727 
L 194.828748 93.531899 
L 195.453361 70.489931 
L 196.077975 53.208455 
L 196.702589 43.127595 
L 197.327203 47.447963 
L 197.951817 58.968947 
L 198.576431 86.331284 
L 199.201044 128.09485 
L 199.825658 181.3794 
L 200.450272 215.942352 
L 201.6995 263.46641 
L 202.324114 274.987394 
L 202.948727 299.469484 
L 203.573341 313.870714 
L 205.447183 339.792928 
L 206.071796 339.792928 
L 206.69641 321.071329 
L 208.570252 169.858416 
L 209.194866 126.654727 
L 209.819479 93.531899 
L 210.444093 71.930054 
L 211.068707 54.648578 
L 211.693321 44.567718 
L 212.317935 48.888086 
L 212.942548 58.968947 
L 213.567162 84.891161 
L 215.441004 215.942352 
L 216.690231 263.46641 
L 217.314845 274.987394 
L 217.939459 299.469484 
L 218.564073 312.430591 
L 219.188687 322.511452 
L 219.8133 329.712067 
L 220.437914 338.352805 
L 221.062528 339.792928 
L 221.687142 321.071329 
L 223.560983 169.858416 
L 224.810211 93.531899 
L 225.434825 71.930054 
L 226.059439 54.648578 
L 226.684052 46.007841 
L 227.308666 50.328209 
L 227.93328 60.40907 
L 228.557894 87.771407 
L 230.431735 217.382475 
L 231.680963 262.026287 
L 232.305577 273.547271 
L 232.930191 298.029361 
L 233.554805 312.430591 
L 234.179418 322.511452 
L 235.428646 336.912682 
L 236.05326 338.352805 
L 236.677874 321.071329 
L 238.551715 169.858416 
L 239.800943 94.972022 
L 241.05017 54.648578 
L 241.674784 47.447963 
L 242.299398 50.328209 
L 242.924012 60.40907 
L 243.548626 87.771407 
L 245.422467 215.942352 
L 246.671695 260.586164 
L 247.296309 273.547271 
L 247.920922 298.029361 
L 248.545536 310.990468 
L 249.17015 321.071329 
L 249.794764 328.271944 
L 250.419378 336.912682 
L 251.043991 338.352805 
L 251.668605 321.071329 
L 253.542447 169.858416 
L 254.167061 128.09485 
L 254.791674 94.972022 
L 255.416288 71.930054 
L 256.040902 54.648578 
L 256.665516 46.007841 
L 257.29013 48.888086 
L 257.914743 58.968947 
L 258.539357 84.891161 
L 260.413199 213.062106 
L 261.662426 259.146041 
L 262.28704 273.547271 
L 262.911654 298.029361 
L 263.536268 312.430591 
L 264.785495 328.271944 
L 265.410109 335.472559 
L 266.034723 338.352805 
L 266.659337 321.071329 
L 268.533178 171.298539 
L 269.157792 129.534973 
L 269.782406 96.412145 
L 270.40702 73.370177 
L 271.031634 56.088701 
L 271.656248 47.447963 
L 272.280861 50.328209 
L 272.905475 60.40907 
L 273.530089 87.771407 
L 275.40393 214.502229 
L 276.653158 260.586164 
L 277.277772 274.987394 
L 277.902386 299.469484 
L 278.527 313.870714 
L 279.776227 329.712067 
L 280.400841 336.912682 
L 281.025455 338.352805 
L 281.650069 322.511452 
L 282.899296 217.382475 
L 284.148524 130.975096 
L 284.773138 97.852268 
L 285.397752 74.8103 
L 286.022365 57.528824 
L 286.646979 50.328209 
L 287.271593 51.768332 
L 287.896207 61.849193 
L 288.520821 90.651653 
L 289.770048 182.819523 
L 290.394662 214.502229 
L 291.64389 262.026287 
L 292.268504 274.987394 
L 292.893117 299.469484 
L 293.517731 312.430591 
L 295.391573 336.912682 
L 296.016186 338.352805 
L 296.6408 322.511452 
L 298.514642 172.738662 
L 299.763869 97.852268 
L 300.388483 74.8103 
L 301.013097 57.528824 
L 301.637711 50.328209 
L 302.262325 51.768332 
L 302.886939 60.40907 
L 303.511552 89.21153 
L 304.76078 182.819523 
L 305.385394 213.062106 
L 306.634621 260.586164 
L 307.259235 273.547271 
L 307.883849 298.029361 
L 308.508463 310.990468 
L 309.757691 329.712067 
L 310.382304 336.912682 
L 311.006918 336.912682 
L 311.631532 321.071329 
L 313.505373 171.298539 
L 314.754601 96.412145 
L 315.379215 73.370177 
L 316.003829 56.088701 
L 316.628443 48.888086 
L 317.253056 51.768332 
L 317.87767 60.40907 
L 318.502284 89.21153 
L 319.751512 182.819523 
L 320.376125 214.502229 
L 321.625353 260.586164 
L 322.249967 273.547271 
L 322.874581 298.029361 
L 323.499195 310.990468 
L 324.123808 321.071329 
L 325.373036 335.472559 
L 325.99765 336.912682 
L 326.622264 321.071329 
L 328.496105 171.298539 
L 329.745333 96.412145 
L 330.369947 73.370177 
L 330.99456 56.088701 
L 331.619174 48.888086 
L 332.243788 51.768332 
L 332.868402 61.849193 
L 333.493016 90.651653 
L 334.742243 181.3794 
L 335.366857 213.062106 
L 336.616085 260.586164 
L 337.240699 273.547271 
L 337.865312 298.029361 
L 338.489926 310.990468 
L 339.739154 329.712067 
L 340.363768 335.472559 
L 340.988382 336.912682 
L 341.612995 322.511452 
L 343.486837 171.298539 
L 344.736064 96.412145 
L 345.360678 73.370177 
L 345.985292 56.088701 
L 346.609906 48.888086 
L 347.23452 50.328209 
L 347.859134 60.40907 
L 348.483747 87.771407 
L 349.732975 179.939277 
L 350.357589 211.621983 
L 351.606816 259.146041 
L 352.23143 273.547271 
L 352.856044 296.589238 
L 353.480658 310.990468 
L 354.729886 329.712067 
L 355.354499 336.912682 
L 355.979113 338.352805 
L 356.603727 322.511452 
L 358.477568 169.858416 
L 359.102182 129.534973 
L 359.726796 96.412145 
L 360.35141 71.930054 
L 360.976024 54.648578 
L 361.600638 48.888086 
L 362.225251 50.328209 
L 362.849865 58.968947 
L 363.474479 87.771407 
L 364.723707 179.939277 
L 365.34832 211.621983 
L 366.597548 259.146041 
L 367.222162 272.107148 
L 367.846776 296.589238 
L 368.47139 310.990468 
L 369.720617 329.712067 
L 370.345231 336.912682 
L 370.969845 338.352805 
L 371.594459 323.951575 
L 373.4683 171.298539 
L 374.092914 130.975096 
L 374.717528 97.852268 
L 375.342142 73.370177 
L 375.966755 56.088701 
L 376.591369 50.328209 
L 377.215983 51.768332 
L 377.840597 60.40907 
L 378.465211 89.21153 
L 379.714438 182.819523 
L 380.339052 213.062106 
L 381.58828 260.586164 
L 382.212894 273.547271 
L 382.837507 298.029361 
L 383.462121 312.430591 
L 384.711349 331.15219 
L 385.335963 336.912682 
L 385.960577 338.352805 
L 386.58519 325.391698 
L 387.834418 218.822598 
L 388.459032 171.298539 
L 389.708259 97.852268 
L 390.332873 74.8103 
L 390.957487 57.528824 
L 391.582101 51.768332 
L 392.206715 51.768332 
L 392.831329 63.289316 
L 393.455942 93.531899 
L 394.70517 184.259646 
L 395.329784 214.502229 
L 396.579011 262.026287 
L 397.203625 274.987394 
L 397.828239 299.469484 
L 399.077467 323.951575 
L 400.326694 339.792928 
L 400.951308 341.233051 
L 401.575922 326.831821 
L 403.449764 172.738662 
L 404.698991 99.292391 
L 405.323605 77.690546 
L 405.948219 60.40907 
L 406.572833 53.208455 
L 407.197446 53.208455 
L 407.82206 64.729439 
L 408.446674 94.972022 
L 409.695902 187.139892 
L 410.320516 217.382475 
L 411.569743 263.46641 
L 412.194357 277.86764 
L 412.818971 300.909607 
L 413.443585 313.870714 
L 414.692812 334.032436 
L 415.317426 341.233051 
L 415.94204 342.673174 
L 416.566654 328.271944 
L 418.440495 172.738662 
L 419.689723 102.172637 
L 420.314337 79.130669 
L 420.93895 61.849193 
L 421.563564 56.088701 
L 422.188178 56.088701 
L 422.812792 67.609685 
L 423.437406 96.412145 
L 424.686633 188.580015 
L 425.311247 218.822598 
L 426.560475 266.346656 
L 427.185089 277.86764 
L 427.809702 300.909607 
L 429.05893 325.391698 
L 429.683544 335.472559 
L 430.308158 341.233051 
L 430.932772 344.113297 
L 431.557385 329.712067 
L 432.806613 223.142967 
L 433.431227 175.618908 
L 434.680455 103.61276 
L 435.305068 80.570792 
L 435.929682 63.289316 
L 436.554296 58.968947 
L 437.17891 60.40907 
L 437.803524 71.930054 
L 438.428137 100.732514 
L 439.677365 191.460261 
L 440.301979 223.142967 
L 441.551207 267.786779 
L 442.17582 279.307763 
L 442.800434 302.34973 
L 443.425048 316.75096 
L 444.674276 336.912682 
L 445.298889 342.673174 
L 445.923503 345.55342 
L 446.548117 331.15219 
L 447.797345 224.58309 
L 448.421959 177.059031 
L 449.671186 105.052883 
L 450.2958 83.451038 
L 450.920414 66.169562 
L 451.545028 60.40907 
L 452.169641 61.849193 
L 452.794255 74.8103 
L 453.418869 103.61276 
L 454.668097 194.340507 
L 455.292711 224.58309 
L 456.541938 270.667025 
L 457.166552 282.188009 
L 457.791166 305.229976 
L 459.665007 338.352805 
L 460.289621 345.55342 
L 460.914235 346.993543 
L 461.538849 334.032436 
L 462.788076 224.58309 
L 464.037304 138.175711 
L 464.661918 106.493006 
L 465.286532 84.891161 
L 465.911146 70.489931 
L 466.535759 64.729439 
L 467.160373 66.169562 
L 467.784987 79.130669 
L 468.409601 107.933129 
L 469.658828 198.660876 
L 470.283442 230.343581 
L 471.53267 273.547271 
L 472.157284 285.068255 
L 472.781898 306.670099 
L 473.406511 319.631206 
L 474.655739 339.792928 
L 475.280353 346.993543 
L 475.904967 348.433666 
L 476.52958 335.472559 
L 478.403422 179.939277 
L 479.028036 141.055957 
L 479.65265 109.373251 
L 480.277263 87.771407 
L 480.901877 73.370177 
L 481.526491 67.609685 
L 482.151105 70.489931 
L 482.775719 84.891161 
L 483.400332 113.69362 
L 484.64956 202.981245 
L 485.274174 234.66395 
L 486.523402 277.86764 
L 487.148015 287.948501 
L 487.772629 309.550345 
L 489.021857 332.592313 
L 490.271084 348.433666 
L 490.895698 351.313912 
L 491.520312 338.352805 
L 493.394154 182.819523 
L 494.018767 143.936203 
L 494.643381 112.253497 
L 495.267995 90.651653 
L 495.892609 76.250423 
L 496.517223 70.489931 
L 497.141836 71.930054 
L 497.76645 86.331284 
L 498.391064 116.573866 
L 499.640292 205.861491 
L 500.264906 237.544196 
L 501.514133 280.747886 
L 502.138747 290.828746 
L 502.763361 312.430591 
L 504.012589 335.472559 
L 505.261816 352.754034 
L 505.88643 352.754034 
L 506.511044 341.233051 
L 508.384885 184.259646 
L 509.634113 112.253497 
L 510.258727 92.091776 
L 510.883341 77.690546 
L 511.507954 70.489931 
L 512.132568 73.370177 
L 512.757182 87.771407 
L 513.381796 118.013989 
L 514.631023 208.741737 
L 515.255637 240.424442 
L 516.504865 285.068255 
L 517.129479 293.708992 
L 517.754093 315.310837 
L 519.00332 338.352805 
L 520.252548 355.63428 
L 520.877162 357.074403 
L 521.501775 344.113297 
L 523.375617 187.139892 
L 524.000231 148.256572 
L 524.624845 116.573866 
L 525.249458 94.972022 
L 525.874072 80.570792 
L 526.498686 73.370177 
L 527.1233 74.8103 
L 527.747914 90.651653 
L 528.372527 120.894235 
L 529.621755 213.062106 
L 530.246369 244.744811 
L 531.495597 287.948501 
L 531.495597 287.948501 
" style="fill:none;stroke:#ff0000;stroke-linecap:square;stroke-width:1.5;"/>
   </g>
   <g id="patch_3">
    <path d="M 44.203125 372.84375 
L 44.203125 25.918125 
" style="fill:none;stroke:#000000;stroke-linecap:square;stroke-linejoin:miter;stroke-width:0.8;"/>
   </g>
   <g id="patch_4">
    <path d="M 554.7 372.84375 
L 554.7 25.918125 
" style="fill:none;stroke:#000000;stroke-linecap:square;stroke-linejoin:miter;stroke-width:0.8;"/>
   </g>
   <g id="patch_5">
    <path d="M 44.203125 372.84375 
L 554.7 372.84375 
" style="fill:none;stroke:#000000;stroke-linecap:square;stroke-linejoin:miter;stroke-width:0.8;"/>
   </g>
   <g id="patch_6">
    <path d="M 44.203125 25.918125 
L 554.7 25.918125 
" style="fill:none;stroke:#000000;stroke-linecap:square;stroke-linejoin:miter;stroke-width:0.8;"/>
   </g>
   <g id="text_16">
    <!-- Temperature in Austin -->
    <g transform="translate(232.17375 19.918125)scale(0.12 -0.12)">
     <use xlink:href="#DejaVuSans-54"/>
     <use x="60.818359" xlink:href="#DejaVuSans-65"/>
     <use x="122.341797" xlink:href="#DejaVuSans-6d"/>
     <use x="219.753906" xlink:href="#DejaVuSans-70"/>
     <use x="283.230469" xlink:href="#DejaVuSans-65"/>
     <use x="344.753906" xlink:href="#DejaVuSans-72"/>
     <use x="385.867188" xlink:href="#DejaVuSans-61"/>
     <use x="447.146484" xlink:href="#DejaVuSans-74"/>
     <use x="486.355469" xlink:href="#DejaVuSans-75"/>
     <use x="549.734375" xlink:href="#DejaVuSans-72"/>
     <use x="590.816406" xlink:href="#DejaVuSans-65"/>
     <use x="652.339844" xlink:href="#DejaVuSans-20"/>
     <use x="684.126953" xlink:href="#DejaVuSans-69"/>
     <use x="711.910156" xlink:href="#DejaVuSans-6e"/>
     <use x="775.289062" xlink:href="#DejaVuSans-20"/>
     <use x="807.076172" xlink:href="#DejaVuSans-41"/>
     <use x="875.484375" xlink:href="#DejaVuSans-75"/>
     <use x="938.863281" xlink:href="#DejaVuSans-73"/>
     <use x="990.962891" xlink:href="#DejaVuSans-74"/>
     <use x="1030.171875" xlink:href="#DejaVuSans-69"/>
     <use x="1057.955078" xlink:href="#DejaVuSans-6e"/>
    </g>
   </g>
   <g id="legend_1">
    <g id="patch_7">
     <path d="M 411.704687 48.59625 
L 547.7 48.59625 
Q 549.7 48.59625 549.7 46.59625 
L 549.7 32.918125 
Q 549.7 30.918125 547.7 30.918125 
L 411.704687 30.918125 
Q 409.704687 30.918125 409.704687 32.918125 
L 409.704687 46.59625 
Q 409.704687 48.59625 411.704687 48.59625 
z
" style="fill:#ffffff;opacity:0.8;stroke:#cccccc;stroke-linejoin:miter;"/>
    </g>
    <g id="line2d_15">
     <path d="M 413.704687 39.016562 
L 433.704687 39.016562 
" style="fill:none;stroke:#ff0000;stroke-linecap:square;stroke-width:1.5;"/>
    </g>
    <g id="line2d_16"/>
    <g id="text_17">
     <!-- Temperature (deg F) -->
     <g transform="translate(441.704687 42.516562)scale(0.1 -0.1)">
      <use xlink:href="#DejaVuSans-54"/>
      <use x="60.818359" xlink:href="#DejaVuSans-65"/>
      <use x="122.341797" xlink:href="#DejaVuSans-6d"/>
      <use x="219.753906" xlink:href="#DejaVuSans-70"/>
      <use x="283.230469" xlink:href="#DejaVuSans-65"/>
      <use x="344.753906" xlink:href="#DejaVuSans-72"/>
      <use x="385.867188" xlink:href="#DejaVuSans-61"/>
      <use x="447.146484" xlink:href="#DejaVuSans-74"/>
      <use x="486.355469" xlink:href="#DejaVuSans-75"/>
      <use x="549.734375" xlink:href="#DejaVuSans-72"/>
      <use x="590.816406" xlink:href="#DejaVuSans-65"/>
      <use x="652.339844" xlink:href="#DejaVuSans-20"/>
      <use x="684.126953" xlink:href="#DejaVuSans-28"/>
      <use x="723.140625" xlink:href="#DejaVuSans-64"/>
      <use x="786.617188" xlink:href="#DejaVuSans-65"/>
      <use x="848.140625" xlink:href="#DejaVuSans-67"/>
      <use x="911.617188" xlink:href="#DejaVuSans-20"/>
      <use x="943.404297" xlink:href="#DejaVuSans-46"/>
      <use x="1000.923828" xlink:href="#DejaVuSans-29"/>
     </g>
    </g>
   </g>
  </g>
 </g>
 <defs>
  <clipPath id="p1ab9fc6e2b">
   <rect height="346.925625" width="510.496875" x="44.203125" y="25.918125"/>
  </clipPath>
 </defs>
</svg>
