<?xml version="1.0" encoding="utf-8" standalone="no"?>
<!DOCTYPE svg PUBLIC "-//W3C//DTD SVG 1.1//EN"
  "http://www.w3.org/Graphics/SVG/1.1/DTD/svg11.dtd">
<!-- Created with matplotlib (https://matplotlib.org/) -->
<svg height="400pt" version="1.1" viewBox="0 0 550 400" width="550pt" xmlns="http://www.w3.org/2000/svg" xmlns:xlink="http://www.w3.org/1999/xlink">
 <defs>
  <style type="text/css">
*{stroke-linecap:butt;stroke-linejoin:round;}
  </style>
 </defs>
 <g id="figure_1">
  <g id="patch_1">
   <path d="M 0 400 
L 550 400 
L 550 0 
L 0 0 
z
" style="fill:#ffffff;"/>
  </g>
  <g id="axes_1">
   <g id="patch_2">
    <path d="M 25.520938 370.894688 
L 537.04 370.894688 
L 537.04 12.96 
L 25.520938 12.96 
z
" style="fill:#eaeaf2;"/>
   </g>
   <g id="matplotlib.axis_1">
    <g id="xtick_1">
     <g id="line2d_1">
      <path clip-path="url(#p896d31d417)" d="M 48.771804 370.894688 
L 48.771804 12.96 
" style="fill:none;stroke:#ffffff;stroke-linecap:round;"/>
     </g>
     <g id="line2d_2"/>
     <g id="text_1">
      <!-- 0 -->
      <defs>
       <path d="M 4.15625 35.296875 
Q 4.15625 48 6.765625 55.734375 
Q 9.375 63.484375 14.515625 67.671875 
Q 19.671875 71.875 27.484375 71.875 
Q 33.25 71.875 37.59375 69.546875 
Q 41.9375 67.234375 44.765625 62.859375 
Q 47.609375 58.5 49.21875 52.21875 
Q 50.828125 45.953125 50.828125 35.296875 
Q 50.828125 22.703125 48.234375 14.96875 
Q 45.65625 7.234375 40.5 3 
Q 35.359375 -1.21875 27.484375 -1.21875 
Q 17.140625 -1.21875 11.234375 6.203125 
Q 4.15625 15.140625 4.15625 35.296875 
z
M 13.1875 35.296875 
Q 13.1875 17.671875 17.3125 11.828125 
Q 21.4375 6 27.484375 6 
Q 33.546875 6 37.671875 11.859375 
Q 41.796875 17.71875 41.796875 35.296875 
Q 41.796875 52.984375 37.671875 58.78125 
Q 33.546875 64.59375 27.390625 64.59375 
Q 21.34375 64.59375 17.71875 59.46875 
Q 13.1875 52.9375 13.1875 35.296875 
z
" id="ArialMT-48"/>
      </defs>
      <g style="fill:#262626;" transform="translate(45.991335 385.0525)scale(0.1 -0.1)">
       <use xlink:href="#ArialMT-48"/>
      </g>
     </g>
    </g>
    <g id="xtick_2">
     <g id="line2d_3">
      <path clip-path="url(#p896d31d417)" d="M 141.77527 370.894688 
L 141.77527 12.96 
" style="fill:none;stroke:#ffffff;stroke-linecap:round;"/>
     </g>
     <g id="line2d_4"/>
     <g id="text_2">
      <!-- 20 -->
      <defs>
       <path d="M 50.34375 8.453125 
L 50.34375 0 
L 3.03125 0 
Q 2.9375 3.171875 4.046875 6.109375 
Q 5.859375 10.9375 9.828125 15.625 
Q 13.8125 20.3125 21.34375 26.46875 
Q 33.015625 36.03125 37.109375 41.625 
Q 41.21875 47.21875 41.21875 52.203125 
Q 41.21875 57.421875 37.46875 61 
Q 33.734375 64.59375 27.734375 64.59375 
Q 21.390625 64.59375 17.578125 60.78125 
Q 13.765625 56.984375 13.71875 50.25 
L 4.6875 51.171875 
Q 5.609375 61.28125 11.65625 66.578125 
Q 17.71875 71.875 27.9375 71.875 
Q 38.234375 71.875 44.234375 66.15625 
Q 50.25 60.453125 50.25 52 
Q 50.25 47.703125 48.484375 43.546875 
Q 46.734375 39.40625 42.65625 34.8125 
Q 38.578125 30.21875 29.109375 22.21875 
Q 21.1875 15.578125 18.9375 13.203125 
Q 16.703125 10.84375 15.234375 8.453125 
z
" id="ArialMT-50"/>
      </defs>
      <g style="fill:#262626;" transform="translate(136.214332 385.0525)scale(0.1 -0.1)">
       <use xlink:href="#ArialMT-50"/>
       <use x="55.615234" xlink:href="#ArialMT-48"/>
      </g>
     </g>
    </g>
    <g id="xtick_3">
     <g id="line2d_5">
      <path clip-path="url(#p896d31d417)" d="M 234.778736 370.894688 
L 234.778736 12.96 
" style="fill:none;stroke:#ffffff;stroke-linecap:round;"/>
     </g>
     <g id="line2d_6"/>
     <g id="text_3">
      <!-- 40 -->
      <defs>
       <path d="M 32.328125 0 
L 32.328125 17.140625 
L 1.265625 17.140625 
L 1.265625 25.203125 
L 33.9375 71.578125 
L 41.109375 71.578125 
L 41.109375 25.203125 
L 50.78125 25.203125 
L 50.78125 17.140625 
L 41.109375 17.140625 
L 41.109375 0 
z
M 32.328125 25.203125 
L 32.328125 57.46875 
L 9.90625 25.203125 
z
" id="ArialMT-52"/>
      </defs>
      <g style="fill:#262626;" transform="translate(229.217798 385.0525)scale(0.1 -0.1)">
       <use xlink:href="#ArialMT-52"/>
       <use x="55.615234" xlink:href="#ArialMT-48"/>
      </g>
     </g>
    </g>
    <g id="xtick_4">
     <g id="line2d_7">
      <path clip-path="url(#p896d31d417)" d="M 327.782202 370.894688 
L 327.782202 12.96 
" style="fill:none;stroke:#ffffff;stroke-linecap:round;"/>
     </g>
     <g id="line2d_8"/>
     <g id="text_4">
      <!-- 60 -->
      <defs>
       <path d="M 49.75 54.046875 
L 41.015625 53.375 
Q 39.84375 58.546875 37.703125 60.890625 
Q 34.125 64.65625 28.90625 64.65625 
Q 24.703125 64.65625 21.53125 62.3125 
Q 17.390625 59.28125 14.984375 53.46875 
Q 12.59375 47.65625 12.5 36.921875 
Q 15.671875 41.75 20.265625 44.09375 
Q 24.859375 46.4375 29.890625 46.4375 
Q 38.671875 46.4375 44.84375 39.96875 
Q 51.03125 33.5 51.03125 23.25 
Q 51.03125 16.5 48.125 10.71875 
Q 45.21875 4.9375 40.140625 1.859375 
Q 35.0625 -1.21875 28.609375 -1.21875 
Q 17.625 -1.21875 10.6875 6.859375 
Q 3.765625 14.9375 3.765625 33.5 
Q 3.765625 54.25 11.421875 63.671875 
Q 18.109375 71.875 29.4375 71.875 
Q 37.890625 71.875 43.28125 67.140625 
Q 48.6875 62.40625 49.75 54.046875 
z
M 13.875 23.1875 
Q 13.875 18.65625 15.796875 14.5 
Q 17.71875 10.359375 21.1875 8.171875 
Q 24.65625 6 28.46875 6 
Q 34.03125 6 38.03125 10.484375 
Q 42.046875 14.984375 42.046875 22.703125 
Q 42.046875 30.125 38.078125 34.390625 
Q 34.125 38.671875 28.125 38.671875 
Q 22.171875 38.671875 18.015625 34.390625 
Q 13.875 30.125 13.875 23.1875 
z
" id="ArialMT-54"/>
      </defs>
      <g style="fill:#262626;" transform="translate(322.221264 385.0525)scale(0.1 -0.1)">
       <use xlink:href="#ArialMT-54"/>
       <use x="55.615234" xlink:href="#ArialMT-48"/>
      </g>
     </g>
    </g>
    <g id="xtick_5">
     <g id="line2d_9">
      <path clip-path="url(#p896d31d417)" d="M 420.785668 370.894688 
L 420.785668 12.96 
" style="fill:none;stroke:#ffffff;stroke-linecap:round;"/>
     </g>
     <g id="line2d_10"/>
     <g id="text_5">
      <!-- 80 -->
      <defs>
       <path d="M 17.671875 38.8125 
Q 12.203125 40.828125 9.5625 44.53125 
Q 6.9375 48.25 6.9375 53.421875 
Q 6.9375 61.234375 12.546875 66.546875 
Q 18.171875 71.875 27.484375 71.875 
Q 36.859375 71.875 42.578125 66.421875 
Q 48.296875 60.984375 48.296875 53.171875 
Q 48.296875 48.1875 45.671875 44.5 
Q 43.0625 40.828125 37.75 38.8125 
Q 44.34375 36.671875 47.78125 31.875 
Q 51.21875 27.09375 51.21875 20.453125 
Q 51.21875 11.28125 44.71875 5.03125 
Q 38.234375 -1.21875 27.640625 -1.21875 
Q 17.046875 -1.21875 10.546875 5.046875 
Q 4.046875 11.328125 4.046875 20.703125 
Q 4.046875 27.6875 7.59375 32.390625 
Q 11.140625 37.109375 17.671875 38.8125 
z
M 15.921875 53.71875 
Q 15.921875 48.640625 19.1875 45.40625 
Q 22.46875 42.1875 27.6875 42.1875 
Q 32.765625 42.1875 36.015625 45.375 
Q 39.265625 48.578125 39.265625 53.21875 
Q 39.265625 58.0625 35.90625 61.359375 
Q 32.5625 64.65625 27.59375 64.65625 
Q 22.5625 64.65625 19.234375 61.421875 
Q 15.921875 58.203125 15.921875 53.71875 
z
M 13.09375 20.65625 
Q 13.09375 16.890625 14.875 13.375 
Q 16.65625 9.859375 20.171875 7.921875 
Q 23.6875 6 27.734375 6 
Q 34.03125 6 38.125 10.046875 
Q 42.234375 14.109375 42.234375 20.359375 
Q 42.234375 26.703125 38.015625 30.859375 
Q 33.796875 35.015625 27.4375 35.015625 
Q 21.234375 35.015625 17.15625 30.90625 
Q 13.09375 26.8125 13.09375 20.65625 
z
" id="ArialMT-56"/>
      </defs>
      <g style="fill:#262626;" transform="translate(415.22473 385.0525)scale(0.1 -0.1)">
       <use xlink:href="#ArialMT-56"/>
       <use x="55.615234" xlink:href="#ArialMT-48"/>
      </g>
     </g>
    </g>
    <g id="xtick_6">
     <g id="line2d_11">
      <path clip-path="url(#p896d31d417)" d="M 513.789134 370.894688 
L 513.789134 12.96 
" style="fill:none;stroke:#ffffff;stroke-linecap:round;"/>
     </g>
     <g id="line2d_12"/>
     <g id="text_6">
      <!-- 100 -->
      <defs>
       <path d="M 37.25 0 
L 28.46875 0 
L 28.46875 56 
Q 25.296875 52.984375 20.140625 49.953125 
Q 14.984375 46.921875 10.890625 45.40625 
L 10.890625 53.90625 
Q 18.265625 57.375 23.78125 62.296875 
Q 29.296875 67.234375 31.59375 71.875 
L 37.25 71.875 
z
" id="ArialMT-49"/>
      </defs>
      <g style="fill:#262626;" transform="translate(505.447727 385.0525)scale(0.1 -0.1)">
       <use xlink:href="#ArialMT-49"/>
       <use x="55.615234" xlink:href="#ArialMT-48"/>
       <use x="111.230469" xlink:href="#ArialMT-48"/>
      </g>
     </g>
    </g>
   </g>
   <g id="matplotlib.axis_2">
    <g id="ytick_1">
     <g id="line2d_13">
      <path clip-path="url(#p896d31d417)" d="M 25.520938 339.28915 
L 537.04 339.28915 
" style="fill:none;stroke:#ffffff;stroke-linecap:round;"/>
     </g>
     <g id="line2d_14"/>
     <g id="text_7">
      <!-- 2 -->
      <g style="fill:#262626;" transform="translate(12.96 342.868056)scale(0.1 -0.1)">
       <use xlink:href="#ArialMT-50"/>
      </g>
     </g>
    </g>
    <g id="ytick_2">
     <g id="line2d_15">
      <path clip-path="url(#p896d31d417)" d="M 25.520938 282.027077 
L 537.04 282.027077 
" style="fill:none;stroke:#ffffff;stroke-linecap:round;"/>
     </g>
     <g id="line2d_16"/>
     <g id="text_8">
      <!-- 3 -->
      <defs>
       <path d="M 4.203125 18.890625 
L 12.984375 20.0625 
Q 14.5 12.59375 18.140625 9.296875 
Q 21.78125 6 27 6 
Q 33.203125 6 37.46875 10.296875 
Q 41.75 14.59375 41.75 20.953125 
Q 41.75 27 37.796875 30.921875 
Q 33.84375 34.859375 27.734375 34.859375 
Q 25.25 34.859375 21.53125 33.890625 
L 22.515625 41.609375 
Q 23.390625 41.5 23.921875 41.5 
Q 29.546875 41.5 34.03125 44.421875 
Q 38.53125 47.359375 38.53125 53.46875 
Q 38.53125 58.296875 35.25 61.46875 
Q 31.984375 64.65625 26.8125 64.65625 
Q 21.6875 64.65625 18.265625 61.421875 
Q 14.84375 58.203125 13.875 51.765625 
L 5.078125 53.328125 
Q 6.6875 62.15625 12.390625 67.015625 
Q 18.109375 71.875 26.609375 71.875 
Q 32.46875 71.875 37.390625 69.359375 
Q 42.328125 66.84375 44.9375 62.5 
Q 47.5625 58.15625 47.5625 53.265625 
Q 47.5625 48.640625 45.0625 44.828125 
Q 42.578125 41.015625 37.703125 38.765625 
Q 44.046875 37.3125 47.5625 32.6875 
Q 51.078125 28.078125 51.078125 21.140625 
Q 51.078125 11.765625 44.234375 5.25 
Q 37.40625 -1.265625 26.953125 -1.265625 
Q 17.53125 -1.265625 11.296875 4.34375 
Q 5.078125 9.96875 4.203125 18.890625 
z
" id="ArialMT-51"/>
      </defs>
      <g style="fill:#262626;" transform="translate(12.96 285.605983)scale(0.1 -0.1)">
       <use xlink:href="#ArialMT-51"/>
      </g>
     </g>
    </g>
    <g id="ytick_3">
     <g id="line2d_17">
      <path clip-path="url(#p896d31d417)" d="M 25.520938 224.765004 
L 537.04 224.765004 
" style="fill:none;stroke:#ffffff;stroke-linecap:round;"/>
     </g>
     <g id="line2d_18"/>
     <g id="text_9">
      <!-- 4 -->
      <g style="fill:#262626;" transform="translate(12.96 228.34391)scale(0.1 -0.1)">
       <use xlink:href="#ArialMT-52"/>
      </g>
     </g>
    </g>
    <g id="ytick_4">
     <g id="line2d_19">
      <path clip-path="url(#p896d31d417)" d="M 25.520938 167.502931 
L 537.04 167.502931 
" style="fill:none;stroke:#ffffff;stroke-linecap:round;"/>
     </g>
     <g id="line2d_20"/>
     <g id="text_10">
      <!-- 5 -->
      <defs>
       <path d="M 4.15625 18.75 
L 13.375 19.53125 
Q 14.40625 12.796875 18.140625 9.390625 
Q 21.875 6 27.15625 6 
Q 33.5 6 37.890625 10.78125 
Q 42.28125 15.578125 42.28125 23.484375 
Q 42.28125 31 38.0625 35.34375 
Q 33.84375 39.703125 27 39.703125 
Q 22.75 39.703125 19.328125 37.765625 
Q 15.921875 35.84375 13.96875 32.765625 
L 5.71875 33.84375 
L 12.640625 70.609375 
L 48.25 70.609375 
L 48.25 62.203125 
L 19.671875 62.203125 
L 15.828125 42.96875 
Q 22.265625 47.46875 29.34375 47.46875 
Q 38.71875 47.46875 45.15625 40.96875 
Q 51.609375 34.46875 51.609375 24.265625 
Q 51.609375 14.546875 45.953125 7.46875 
Q 39.0625 -1.21875 27.15625 -1.21875 
Q 17.390625 -1.21875 11.203125 4.25 
Q 5.03125 9.71875 4.15625 18.75 
z
" id="ArialMT-53"/>
      </defs>
      <g style="fill:#262626;" transform="translate(12.96 171.081838)scale(0.1 -0.1)">
       <use xlink:href="#ArialMT-53"/>
      </g>
     </g>
    </g>
    <g id="ytick_5">
     <g id="line2d_21">
      <path clip-path="url(#p896d31d417)" d="M 25.520938 110.240859 
L 537.04 110.240859 
" style="fill:none;stroke:#ffffff;stroke-linecap:round;"/>
     </g>
     <g id="line2d_22"/>
     <g id="text_11">
      <!-- 6 -->
      <g style="fill:#262626;" transform="translate(12.96 113.819765)scale(0.1 -0.1)">
       <use xlink:href="#ArialMT-54"/>
      </g>
     </g>
    </g>
    <g id="ytick_6">
     <g id="line2d_23">
      <path clip-path="url(#p896d31d417)" d="M 25.520938 52.978786 
L 537.04 52.978786 
" style="fill:none;stroke:#ffffff;stroke-linecap:round;"/>
     </g>
     <g id="line2d_24"/>
     <g id="text_12">
      <!-- 7 -->
      <defs>
       <path d="M 4.734375 62.203125 
L 4.734375 70.65625 
L 51.078125 70.65625 
L 51.078125 63.8125 
Q 44.234375 56.546875 37.515625 44.484375 
Q 30.8125 32.421875 27.15625 19.671875 
Q 24.515625 10.6875 23.78125 0 
L 14.75 0 
Q 14.890625 8.453125 18.0625 20.40625 
Q 21.234375 32.375 27.171875 43.484375 
Q 33.109375 54.59375 39.796875 62.203125 
z
" id="ArialMT-55"/>
      </defs>
      <g style="fill:#262626;" transform="translate(12.96 56.557692)scale(0.1 -0.1)">
       <use xlink:href="#ArialMT-55"/>
      </g>
     </g>
    </g>
   </g>
   <g id="line2d_25">
    <path clip-path="url(#p896d31d417)" d="M 48.771804 351.624946 
L 513.789134 48.79203 
" style="fill:none;stroke:#ff0000;stroke-linecap:round;stroke-opacity:0.2;stroke-width:0.5;"/>
   </g>
   <g id="line2d_26">
    <path clip-path="url(#p896d31d417)" d="M 48.771804 330.180625 
L 513.789134 114.482645 
" style="fill:none;stroke:#ff0000;stroke-linecap:round;stroke-opacity:0.2;stroke-width:0.5;"/>
   </g>
   <g id="line2d_27">
    <path clip-path="url(#p896d31d417)" d="M 48.771804 345.934458 
L 513.789134 58.457316 
" style="fill:none;stroke:#ff0000;stroke-linecap:round;stroke-opacity:0.2;stroke-width:0.5;"/>
   </g>
   <g id="line2d_28">
    <path clip-path="url(#p896d31d417)" d="M 48.771804 349.151521 
L 513.789134 48.883337 
" style="fill:none;stroke:#ff0000;stroke-linecap:round;stroke-opacity:0.2;stroke-width:0.5;"/>
   </g>
   <g id="line2d_29">
    <path clip-path="url(#p896d31d417)" d="M 48.771804 344.745103 
L 513.789134 53.83126 
" style="fill:none;stroke:#ff0000;stroke-linecap:round;stroke-opacity:0.2;stroke-width:0.5;"/>
   </g>
   <g id="line2d_30">
    <path clip-path="url(#p896d31d417)" d="M 48.771804 351.229023 
L 513.789134 61.349323 
" style="fill:none;stroke:#ff0000;stroke-linecap:round;stroke-opacity:0.2;stroke-width:0.5;"/>
   </g>
   <g id="line2d_31">
    <path clip-path="url(#p896d31d417)" d="M 48.771804 343.786179 
L 513.789134 31.230406 
" style="fill:none;stroke:#ff0000;stroke-linecap:round;stroke-opacity:0.2;stroke-width:0.5;"/>
   </g>
   <g id="line2d_32">
    <path clip-path="url(#p896d31d417)" d="M 48.771804 349.534333 
L 513.789134 52.320396 
" style="fill:none;stroke:#ff0000;stroke-linecap:round;stroke-opacity:0.2;stroke-width:0.5;"/>
   </g>
   <g id="line2d_33">
    <path clip-path="url(#p896d31d417)" d="M 48.771804 345.784664 
L 513.789134 42.011144 
" style="fill:none;stroke:#ff0000;stroke-linecap:round;stroke-opacity:0.2;stroke-width:0.5;"/>
   </g>
   <g id="line2d_34">
    <path clip-path="url(#p896d31d417)" d="M 48.771804 341.292706 
L 513.789134 69.708788 
" style="fill:none;stroke:#ff0000;stroke-linecap:round;stroke-opacity:0.2;stroke-width:0.5;"/>
   </g>
   <g id="line2d_35">
    <path clip-path="url(#p896d31d417)" d="M 48.771804 342.747842 
L 513.789134 48.313019 
" style="fill:none;stroke:#ff0000;stroke-linecap:round;stroke-opacity:0.2;stroke-width:0.5;"/>
   </g>
   <g id="line2d_36">
    <path clip-path="url(#p896d31d417)" d="M 48.771804 351.336955 
L 513.789134 49.693314 
" style="fill:none;stroke:#ff0000;stroke-linecap:round;stroke-opacity:0.2;stroke-width:0.5;"/>
   </g>
   <g id="line2d_37">
    <path clip-path="url(#p896d31d417)" d="M 48.771804 346.893654 
L 513.789134 75.672792 
" style="fill:none;stroke:#ff0000;stroke-linecap:round;stroke-opacity:0.2;stroke-width:0.5;"/>
   </g>
   <g id="line2d_38">
    <path clip-path="url(#p896d31d417)" d="M 48.771804 341.240371 
L 513.789134 77.784426 
" style="fill:none;stroke:#ff0000;stroke-linecap:round;stroke-opacity:0.2;stroke-width:0.5;"/>
   </g>
   <g id="line2d_39">
    <path clip-path="url(#p896d31d417)" d="M 48.771804 350.619364 
L 513.789134 44.062973 
" style="fill:none;stroke:#ff0000;stroke-linecap:round;stroke-opacity:0.2;stroke-width:0.5;"/>
   </g>
   <g id="line2d_40">
    <path clip-path="url(#p896d31d417)" d="M 48.771804 339.624205 
L 513.789134 45.212091 
" style="fill:none;stroke:#ff0000;stroke-linecap:round;stroke-opacity:0.2;stroke-width:0.5;"/>
   </g>
   <g id="line2d_41">
    <path clip-path="url(#p896d31d417)" d="M 48.771804 347.233022 
L 513.789134 68.74031 
" style="fill:none;stroke:#ff0000;stroke-linecap:round;stroke-opacity:0.2;stroke-width:0.5;"/>
   </g>
   <g id="line2d_42">
    <path clip-path="url(#p896d31d417)" d="M 48.771804 349.755171 
L 513.789134 74.262208 
" style="fill:none;stroke:#ff0000;stroke-linecap:round;stroke-opacity:0.2;stroke-width:0.5;"/>
   </g>
   <g id="line2d_43">
    <path clip-path="url(#p896d31d417)" d="M 48.771804 343.202551 
L 513.789134 57.843313 
" style="fill:none;stroke:#ff0000;stroke-linecap:round;stroke-opacity:0.2;stroke-width:0.5;"/>
   </g>
   <g id="line2d_44">
    <path clip-path="url(#p896d31d417)" d="M 48.771804 345.243362 
L 513.789134 66.966383 
" style="fill:none;stroke:#ff0000;stroke-linecap:round;stroke-opacity:0.2;stroke-width:0.5;"/>
   </g>
   <g id="line2d_45">
    <path clip-path="url(#p896d31d417)" d="M 48.771804 344.766421 
L 513.789134 60.14334 
" style="fill:none;stroke:#ff0000;stroke-linecap:round;stroke-opacity:0.2;stroke-width:0.5;"/>
   </g>
   <g id="line2d_46">
    <path clip-path="url(#p896d31d417)" d="M 48.771804 346.931691 
L 513.789134 59.668296 
" style="fill:none;stroke:#ff0000;stroke-linecap:round;stroke-opacity:0.2;stroke-width:0.5;"/>
   </g>
   <g id="line2d_47">
    <path clip-path="url(#p896d31d417)" d="M 48.771804 343.590218 
L 513.789134 51.759717 
" style="fill:none;stroke:#ff0000;stroke-linecap:round;stroke-opacity:0.2;stroke-width:0.5;"/>
   </g>
   <g id="line2d_48">
    <path clip-path="url(#p896d31d417)" d="M 48.771804 342.624043 
L 513.789134 49.967302 
" style="fill:none;stroke:#ff0000;stroke-linecap:round;stroke-opacity:0.2;stroke-width:0.5;"/>
   </g>
   <g id="line2d_49">
    <path clip-path="url(#p896d31d417)" d="M 48.771804 346.823314 
L 513.789134 59.380897 
" style="fill:none;stroke:#ff0000;stroke-linecap:round;stroke-opacity:0.2;stroke-width:0.5;"/>
   </g>
   <g id="line2d_50">
    <path clip-path="url(#p896d31d417)" d="M 48.771804 345.691279 
L 513.789134 53.458328 
" style="fill:none;stroke:#ff0000;stroke-linecap:round;stroke-opacity:0.2;stroke-width:0.5;"/>
   </g>
   <g id="line2d_51">
    <path clip-path="url(#p896d31d417)" d="M 48.771804 347.882492 
L 513.789134 42.583558 
" style="fill:none;stroke:#ff0000;stroke-linecap:round;stroke-opacity:0.2;stroke-width:0.5;"/>
   </g>
   <g id="line2d_52">
    <path clip-path="url(#p896d31d417)" d="M 48.771804 346.538671 
L 513.789134 29.229759 
" style="fill:none;stroke:#ff0000;stroke-linecap:round;stroke-opacity:0.2;stroke-width:0.5;"/>
   </g>
   <g id="line2d_53">
    <path clip-path="url(#p896d31d417)" d="M 48.771804 354.161075 
L 513.789134 34.756271 
" style="fill:none;stroke:#ff0000;stroke-linecap:round;stroke-opacity:0.2;stroke-width:0.5;"/>
   </g>
   <g id="line2d_54">
    <path clip-path="url(#p896d31d417)" d="M 48.771804 350.349266 
L 513.789134 57.132676 
" style="fill:none;stroke:#ff0000;stroke-linecap:round;stroke-opacity:0.2;stroke-width:0.5;"/>
   </g>
   <g id="line2d_55">
    <path clip-path="url(#p896d31d417)" d="M 48.771804 348.690006 
L 513.789134 64.641321 
" style="fill:none;stroke:#ff0000;stroke-linecap:round;stroke-opacity:0.2;stroke-width:0.5;"/>
   </g>
   <g id="line2d_56">
    <path clip-path="url(#p896d31d417)" d="M 48.771804 341.719066 
L 513.789134 66.425763 
" style="fill:none;stroke:#ff0000;stroke-linecap:round;stroke-opacity:0.2;stroke-width:0.5;"/>
   </g>
   <g id="line2d_57">
    <path clip-path="url(#p896d31d417)" d="M 48.771804 344.527893 
L 513.789134 58.941343 
" style="fill:none;stroke:#ff0000;stroke-linecap:round;stroke-opacity:0.2;stroke-width:0.5;"/>
   </g>
   <g id="line2d_58">
    <path clip-path="url(#p896d31d417)" d="M 48.771804 351.559845 
L 513.789134 59.404366 
" style="fill:none;stroke:#ff0000;stroke-linecap:round;stroke-opacity:0.2;stroke-width:0.5;"/>
   </g>
   <g id="line2d_59">
    <path clip-path="url(#p896d31d417)" d="M 48.771804 350.816443 
L 513.789134 88.997073 
" style="fill:none;stroke:#ff0000;stroke-linecap:round;stroke-opacity:0.2;stroke-width:0.5;"/>
   </g>
   <g id="line2d_60">
    <path clip-path="url(#p896d31d417)" d="M 48.771804 351.014269 
L 513.789134 69.06542 
" style="fill:none;stroke:#ff0000;stroke-linecap:round;stroke-opacity:0.2;stroke-width:0.5;"/>
   </g>
   <g id="line2d_61">
    <path clip-path="url(#p896d31d417)" d="M 48.771804 346.441143 
L 513.789134 83.036592 
" style="fill:none;stroke:#ff0000;stroke-linecap:round;stroke-opacity:0.2;stroke-width:0.5;"/>
   </g>
   <g id="line2d_62">
    <path clip-path="url(#p896d31d417)" d="M 48.771804 347.78397 
L 513.789134 74.511913 
" style="fill:none;stroke:#ff0000;stroke-linecap:round;stroke-opacity:0.2;stroke-width:0.5;"/>
   </g>
   <g id="line2d_63">
    <path clip-path="url(#p896d31d417)" d="M 48.771804 350.436825 
L 513.789134 36.384015 
" style="fill:none;stroke:#ff0000;stroke-linecap:round;stroke-opacity:0.2;stroke-width:0.5;"/>
   </g>
   <g id="line2d_64">
    <path clip-path="url(#p896d31d417)" d="M 48.771804 352.799914 
L 513.789134 57.180922 
" style="fill:none;stroke:#ff0000;stroke-linecap:round;stroke-opacity:0.2;stroke-width:0.5;"/>
   </g>
   <g id="line2d_65">
    <path clip-path="url(#p896d31d417)" d="M 48.771804 352.482471 
L 513.789134 63.116686 
" style="fill:none;stroke:#ff0000;stroke-linecap:round;stroke-opacity:0.2;stroke-width:0.5;"/>
   </g>
   <g id="line2d_66">
    <path clip-path="url(#p896d31d417)" d="M 48.771804 346.334011 
L 513.789134 52.102525 
" style="fill:none;stroke:#ff0000;stroke-linecap:round;stroke-opacity:0.2;stroke-width:0.5;"/>
   </g>
   <g id="line2d_67">
    <path clip-path="url(#p896d31d417)" d="M 48.771804 344.094585 
L 513.789134 66.763156 
" style="fill:none;stroke:#ff0000;stroke-linecap:round;stroke-opacity:0.2;stroke-width:0.5;"/>
   </g>
   <g id="line2d_68">
    <path clip-path="url(#p896d31d417)" d="M 48.771804 335.788518 
L 513.789134 86.682967 
" style="fill:none;stroke:#ff0000;stroke-linecap:round;stroke-opacity:0.2;stroke-width:0.5;"/>
   </g>
   <g id="line2d_69">
    <path clip-path="url(#p896d31d417)" d="M 48.771804 344.482641 
L 513.789134 62.909167 
" style="fill:none;stroke:#ff0000;stroke-linecap:round;stroke-opacity:0.2;stroke-width:0.5;"/>
   </g>
   <g id="line2d_70">
    <path clip-path="url(#p896d31d417)" d="M 48.771804 337.371038 
L 513.789134 30.666922 
" style="fill:none;stroke:#ff0000;stroke-linecap:round;stroke-opacity:0.2;stroke-width:0.5;"/>
   </g>
   <g id="line2d_71">
    <path clip-path="url(#p896d31d417)" d="M 48.771804 344.520375 
L 513.789134 85.052902 
" style="fill:none;stroke:#ff0000;stroke-linecap:round;stroke-opacity:0.2;stroke-width:0.5;"/>
   </g>
   <g id="line2d_72">
    <path clip-path="url(#p896d31d417)" d="M 48.771804 342.689498 
L 513.789134 80.654031 
" style="fill:none;stroke:#ff0000;stroke-linecap:round;stroke-opacity:0.2;stroke-width:0.5;"/>
   </g>
   <g id="line2d_73">
    <path clip-path="url(#p896d31d417)" d="M 48.771804 346.196829 
L 513.789134 80.353328 
" style="fill:none;stroke:#ff0000;stroke-linecap:round;stroke-opacity:0.2;stroke-width:0.5;"/>
   </g>
   <g id="line2d_74">
    <path clip-path="url(#p896d31d417)" d="M 48.771804 340.524732 
L 513.789134 73.931846 
" style="fill:none;stroke:#ff0000;stroke-linecap:round;stroke-opacity:0.2;stroke-width:0.5;"/>
   </g>
   <g id="line2d_75">
    <path clip-path="url(#p896d31d417)" d="M 48.771804 340.798285 
L 513.789134 41.075572 
" style="fill:none;stroke:#ff0000;stroke-linecap:round;stroke-opacity:0.2;stroke-width:0.5;"/>
   </g>
   <g id="line2d_76">
    <path clip-path="url(#p896d31d417)" d="M 48.771804 346.973817 
L 513.789134 43.480159 
" style="fill:none;stroke:#ff0000;stroke-linecap:round;stroke-opacity:0.2;stroke-width:0.5;"/>
   </g>
   <g id="line2d_77">
    <path clip-path="url(#p896d31d417)" d="M 48.771804 339.490706 
L 513.789134 50.475044 
" style="fill:none;stroke:#ff0000;stroke-linecap:round;stroke-opacity:0.2;stroke-width:0.5;"/>
   </g>
   <g id="line2d_78">
    <path clip-path="url(#p896d31d417)" d="M 48.771804 344.677693 
L 513.789134 39.01245 
" style="fill:none;stroke:#ff0000;stroke-linecap:round;stroke-opacity:0.2;stroke-width:0.5;"/>
   </g>
   <g id="line2d_79">
    <path clip-path="url(#p896d31d417)" d="M 48.771804 350.604983 
L 513.789134 37.595934 
" style="fill:none;stroke:#ff0000;stroke-linecap:round;stroke-opacity:0.2;stroke-width:0.5;"/>
   </g>
   <g id="line2d_80">
    <path clip-path="url(#p896d31d417)" d="M 48.771804 348.108245 
L 513.789134 42.279944 
" style="fill:none;stroke:#ff0000;stroke-linecap:round;stroke-opacity:0.2;stroke-width:0.5;"/>
   </g>
   <g id="line2d_81">
    <path clip-path="url(#p896d31d417)" d="M 48.771804 354.624929 
L 513.789134 63.168266 
" style="fill:none;stroke:#ff0000;stroke-linecap:round;stroke-opacity:0.2;stroke-width:0.5;"/>
   </g>
   <g id="line2d_82">
    <path clip-path="url(#p896d31d417)" d="M 48.771804 341.479799 
L 513.789134 50.750377 
" style="fill:none;stroke:#ff0000;stroke-linecap:round;stroke-opacity:0.2;stroke-width:0.5;"/>
   </g>
   <g id="line2d_83">
    <path clip-path="url(#p896d31d417)" d="M 48.771804 345.366319 
L 513.789134 62.157991 
" style="fill:none;stroke:#ff0000;stroke-linecap:round;stroke-opacity:0.2;stroke-width:0.5;"/>
   </g>
   <g id="line2d_84">
    <path clip-path="url(#p896d31d417)" d="M 48.771804 345.229933 
L 513.789134 67.294271 
" style="fill:none;stroke:#ff0000;stroke-linecap:round;stroke-opacity:0.2;stroke-width:0.5;"/>
   </g>
   <g id="line2d_85">
    <path clip-path="url(#p896d31d417)" d="M 48.771804 351.153577 
L 513.789134 87.16957 
" style="fill:none;stroke:#ff0000;stroke-linecap:round;stroke-opacity:0.2;stroke-width:0.5;"/>
   </g>
   <g id="line2d_86">
    <path clip-path="url(#p896d31d417)" d="M 48.771804 349.812051 
L 513.789134 50.866365 
" style="fill:none;stroke:#ff0000;stroke-linecap:round;stroke-opacity:0.2;stroke-width:0.5;"/>
   </g>
   <g id="line2d_87">
    <path clip-path="url(#p896d31d417)" d="M 48.771804 339.7271 
L 513.789134 80.135218 
" style="fill:none;stroke:#ff0000;stroke-linecap:round;stroke-opacity:0.2;stroke-width:0.5;"/>
   </g>
   <g id="line2d_88">
    <path clip-path="url(#p896d31d417)" d="M 48.771804 351.536272 
L 513.789134 51.852418 
" style="fill:none;stroke:#ff0000;stroke-linecap:round;stroke-opacity:0.2;stroke-width:0.5;"/>
   </g>
   <g id="line2d_89">
    <path clip-path="url(#p896d31d417)" d="M 48.771804 348.326674 
L 513.789134 55.774758 
" style="fill:none;stroke:#ff0000;stroke-linecap:round;stroke-opacity:0.2;stroke-width:0.5;"/>
   </g>
   <g id="line2d_90">
    <path clip-path="url(#p896d31d417)" d="M 48.771804 347.410044 
L 513.789134 59.981274 
" style="fill:none;stroke:#ff0000;stroke-linecap:round;stroke-opacity:0.2;stroke-width:0.5;"/>
   </g>
   <g id="line2d_91">
    <path clip-path="url(#p896d31d417)" d="M 48.771804 343.408195 
L 513.789134 44.651976 
" style="fill:none;stroke:#ff0000;stroke-linecap:round;stroke-opacity:0.2;stroke-width:0.5;"/>
   </g>
   <g id="line2d_92">
    <path clip-path="url(#p896d31d417)" d="M 48.771804 348.984862 
L 513.789134 65.356165 
" style="fill:none;stroke:#ff0000;stroke-linecap:round;stroke-opacity:0.2;stroke-width:0.5;"/>
   </g>
   <g id="line2d_93">
    <path clip-path="url(#p896d31d417)" d="M 48.771804 351.731088 
L 513.789134 66.197724 
" style="fill:none;stroke:#ff0000;stroke-linecap:round;stroke-opacity:0.2;stroke-width:0.5;"/>
   </g>
   <g id="line2d_94">
    <path clip-path="url(#p896d31d417)" d="M 48.771804 349.128784 
L 513.789134 41.280471 
" style="fill:none;stroke:#ff0000;stroke-linecap:round;stroke-opacity:0.2;stroke-width:0.5;"/>
   </g>
   <g id="line2d_95">
    <path clip-path="url(#p896d31d417)" d="M 48.771804 346.351253 
L 513.789134 42.026265 
" style="fill:none;stroke:#ff0000;stroke-linecap:round;stroke-opacity:0.2;stroke-width:0.5;"/>
   </g>
   <g id="line2d_96">
    <path clip-path="url(#p896d31d417)" d="M 48.771804 339.735027 
L 513.789134 65.548714 
" style="fill:none;stroke:#ff0000;stroke-linecap:round;stroke-opacity:0.2;stroke-width:0.5;"/>
   </g>
   <g id="line2d_97">
    <path clip-path="url(#p896d31d417)" d="M 48.771804 346.193007 
L 513.789134 64.096182 
" style="fill:none;stroke:#ff0000;stroke-linecap:round;stroke-opacity:0.2;stroke-width:0.5;"/>
   </g>
   <g id="line2d_98">
    <path clip-path="url(#p896d31d417)" d="M 48.771804 343.745786 
L 513.789134 67.129017 
" style="fill:none;stroke:#ff0000;stroke-linecap:round;stroke-opacity:0.2;stroke-width:0.5;"/>
   </g>
   <g id="line2d_99">
    <path clip-path="url(#p896d31d417)" d="M 48.771804 342.397222 
L 513.789134 52.274054 
" style="fill:none;stroke:#ff0000;stroke-linecap:round;stroke-opacity:0.2;stroke-width:0.5;"/>
   </g>
   <g id="line2d_100">
    <path clip-path="url(#p896d31d417)" d="M 48.771804 346.204843 
L 513.789134 43.534554 
" style="fill:none;stroke:#ff0000;stroke-linecap:round;stroke-opacity:0.2;stroke-width:0.5;"/>
   </g>
   <g id="line2d_101">
    <path clip-path="url(#p896d31d417)" d="M 48.771804 350.526306 
L 513.789134 59.73509 
" style="fill:none;stroke:#ff0000;stroke-linecap:round;stroke-opacity:0.2;stroke-width:0.5;"/>
   </g>
   <g id="line2d_102">
    <path clip-path="url(#p896d31d417)" d="M 48.771804 350.061191 
L 513.789134 43.849606 
" style="fill:none;stroke:#ff0000;stroke-linecap:round;stroke-opacity:0.2;stroke-width:0.5;"/>
   </g>
   <g id="line2d_103">
    <path clip-path="url(#p896d31d417)" d="M 48.771804 339.074848 
L 513.789134 59.148359 
" style="fill:none;stroke:#ff0000;stroke-linecap:round;stroke-opacity:0.2;stroke-width:0.5;"/>
   </g>
   <g id="line2d_104">
    <path clip-path="url(#p896d31d417)" d="M 48.771804 344.894825 
L 513.789134 78.84176 
" style="fill:none;stroke:#ff0000;stroke-linecap:round;stroke-opacity:0.2;stroke-width:0.5;"/>
   </g>
   <g id="line2d_105">
    <path clip-path="url(#p896d31d417)" d="M 48.771804 345.513036 
L 513.789134 82.68223 
" style="fill:none;stroke:#ff0000;stroke-linecap:round;stroke-opacity:0.2;stroke-width:0.5;"/>
   </g>
   <g id="line2d_106">
    <path clip-path="url(#p896d31d417)" d="M 48.771804 354.622531 
L 513.789134 72.736139 
" style="fill:none;stroke:#ff0000;stroke-linecap:round;stroke-opacity:0.2;stroke-width:0.5;"/>
   </g>
   <g id="line2d_107">
    <path clip-path="url(#p896d31d417)" d="M 48.771804 352.592952 
L 513.789134 78.57511 
" style="fill:none;stroke:#ff0000;stroke-linecap:round;stroke-opacity:0.2;stroke-width:0.5;"/>
   </g>
   <g id="line2d_108">
    <path clip-path="url(#p896d31d417)" d="M 48.771804 344.319169 
L 513.789134 81.371521 
" style="fill:none;stroke:#ff0000;stroke-linecap:round;stroke-opacity:0.2;stroke-width:0.5;"/>
   </g>
   <g id="line2d_109">
    <path clip-path="url(#p896d31d417)" d="M 48.771804 340.77612 
L 513.789134 57.086012 
" style="fill:none;stroke:#ff0000;stroke-linecap:round;stroke-opacity:0.2;stroke-width:0.5;"/>
   </g>
   <g id="line2d_110">
    <path clip-path="url(#p896d31d417)" d="M 48.771804 342.354115 
L 513.789134 97.025282 
" style="fill:none;stroke:#ff0000;stroke-linecap:round;stroke-opacity:0.2;stroke-width:0.5;"/>
   </g>
   <g id="line2d_111">
    <path clip-path="url(#p896d31d417)" d="M 48.771804 344.830095 
L 513.789134 57.275269 
" style="fill:none;stroke:#ff0000;stroke-linecap:round;stroke-opacity:0.2;stroke-width:0.5;"/>
   </g>
   <g id="line2d_112">
    <path clip-path="url(#p896d31d417)" d="M 48.771804 348.238779 
L 513.789134 55.287307 
" style="fill:none;stroke:#ff0000;stroke-linecap:round;stroke-opacity:0.2;stroke-width:0.5;"/>
   </g>
   <g id="line2d_113">
    <path clip-path="url(#p896d31d417)" d="M 48.771804 335.97409 
L 513.789134 76.324764 
" style="fill:none;stroke:#ff0000;stroke-linecap:round;stroke-opacity:0.2;stroke-width:0.5;"/>
   </g>
   <g id="line2d_114">
    <path clip-path="url(#p896d31d417)" d="M 48.771804 342.146448 
L 513.789134 66.683757 
" style="fill:none;stroke:#ff0000;stroke-linecap:round;stroke-opacity:0.2;stroke-width:0.5;"/>
   </g>
   <g id="line2d_115">
    <path clip-path="url(#p896d31d417)" d="M 48.771804 350.928289 
L 513.789134 73.382074 
" style="fill:none;stroke:#ff0000;stroke-linecap:round;stroke-opacity:0.2;stroke-width:0.5;"/>
   </g>
   <g id="line2d_116">
    <path clip-path="url(#p896d31d417)" d="M 48.771804 342.73173 
L 513.789134 44.282138 
" style="fill:none;stroke:#ff0000;stroke-linecap:round;stroke-opacity:0.2;stroke-width:0.5;"/>
   </g>
   <g id="line2d_117">
    <path clip-path="url(#p896d31d417)" d="M 48.771804 345.784519 
L 513.789134 50.060615 
" style="fill:none;stroke:#ff0000;stroke-linecap:round;stroke-opacity:0.2;stroke-width:0.5;"/>
   </g>
   <g id="line2d_118">
    <path clip-path="url(#p896d31d417)" d="M 48.771804 347.026734 
L 513.789134 51.245417 
" style="fill:none;stroke:#ff0000;stroke-linecap:round;stroke-opacity:0.2;stroke-width:0.5;"/>
   </g>
   <g id="line2d_119">
    <path clip-path="url(#p896d31d417)" d="M 48.771804 345.978376 
L 513.789134 55.165746 
" style="fill:none;stroke:#ff0000;stroke-linecap:round;stroke-opacity:0.2;stroke-width:0.5;"/>
   </g>
   <g id="line2d_120">
    <path clip-path="url(#p896d31d417)" d="M 48.771804 342.291445 
L 513.789134 77.322711 
" style="fill:none;stroke:#ff0000;stroke-linecap:round;stroke-opacity:0.2;stroke-width:0.5;"/>
   </g>
   <g id="line2d_121">
    <path clip-path="url(#p896d31d417)" d="M 48.771804 350.440758 
L 513.789134 72.867986 
" style="fill:none;stroke:#ff0000;stroke-linecap:round;stroke-opacity:0.2;stroke-width:0.5;"/>
   </g>
   <g id="line2d_122">
    <path clip-path="url(#p896d31d417)" d="M 48.771804 338.57461 
L 513.789134 69.929435 
" style="fill:none;stroke:#ff0000;stroke-linecap:round;stroke-opacity:0.2;stroke-width:0.5;"/>
   </g>
   <g id="line2d_123">
    <path clip-path="url(#p896d31d417)" d="M 48.771804 347.693667 
L 513.789134 61.624179 
" style="fill:none;stroke:#ff0000;stroke-linecap:round;stroke-opacity:0.2;stroke-width:0.5;"/>
   </g>
   <g id="line2d_124">
    <path clip-path="url(#p896d31d417)" d="M 48.771804 350.406562 
L 513.789134 52.982943 
" style="fill:none;stroke:#ff0000;stroke-linecap:round;stroke-opacity:0.2;stroke-width:0.5;"/>
   </g>
   <g id="patch_3">
    <path d="M 25.520938 370.894688 
L 25.520938 12.96 
" style="fill:none;"/>
   </g>
   <g id="patch_4">
    <path d="M 537.04 370.894688 
L 537.04 12.96 
" style="fill:none;"/>
   </g>
   <g id="patch_5">
    <path d="M 25.520938 370.894688 
L 537.04 370.894688 
" style="fill:none;"/>
   </g>
   <g id="patch_6">
    <path d="M 25.520938 12.96 
L 537.04 12.96 
" style="fill:none;"/>
   </g>
  </g>
 </g>
 <defs>
  <clipPath id="p896d31d417">
   <rect height="357.934688" width="511.519062" x="25.520938" y="12.96"/>
  </clipPath>
 </defs>
</svg>
