<?xml version="1.0" encoding="utf-8" standalone="no"?>
<!DOCTYPE svg PUBLIC "-//W3C//DTD SVG 1.1//EN"
  "http://www.w3.org/Graphics/SVG/1.1/DTD/svg11.dtd">
<!-- Created with matplotlib (https://matplotlib.org/) -->
<svg height="400pt" version="1.1" viewBox="0 0 549 400" width="549pt" xmlns="http://www.w3.org/2000/svg" xmlns:xlink="http://www.w3.org/1999/xlink">
 <defs>
  <style type="text/css">
*{stroke-linecap:butt;stroke-linejoin:round;}
  </style>
 </defs>
 <g id="figure_1">
  <g id="patch_1">
   <path d="M 0 400 
L 549 400 
L 549 0 
L 0 0 
z
" style="fill:#ffffff;"/>
  </g>
  <g id="axes_1">
   <g id="patch_2">
    <path d="M 47.919844 356.700781 
L 536.04 356.700781 
L 536.04 12.96 
L 47.919844 12.96 
z
" style="fill:#eaeaf2;"/>
   </g>
   <g id="matplotlib.axis_1">
    <g id="xtick_1">
     <g id="line2d_1">
      <path clip-path="url(#p96691f3bbc)" d="M 57.30677 356.700781 
L 57.30677 12.96 
" style="fill:none;stroke:#ffffff;stroke-linecap:round;"/>
     </g>
     <g id="line2d_2"/>
     <g id="text_1">
      <!-- 0 -->
      <defs>
       <path d="M 4.15625 35.296875 
Q 4.15625 48 6.765625 55.734375 
Q 9.375 63.484375 14.515625 67.671875 
Q 19.671875 71.875 27.484375 71.875 
Q 33.25 71.875 37.59375 69.546875 
Q 41.9375 67.234375 44.765625 62.859375 
Q 47.609375 58.5 49.21875 52.21875 
Q 50.828125 45.953125 50.828125 35.296875 
Q 50.828125 22.703125 48.234375 14.96875 
Q 45.65625 7.234375 40.5 3 
Q 35.359375 -1.21875 27.484375 -1.21875 
Q 17.140625 -1.21875 11.234375 6.203125 
Q 4.15625 15.140625 4.15625 35.296875 
z
M 13.1875 35.296875 
Q 13.1875 17.671875 17.3125 11.828125 
Q 21.4375 6 27.484375 6 
Q 33.546875 6 37.671875 11.859375 
Q 41.796875 17.71875 41.796875 35.296875 
Q 41.796875 52.984375 37.671875 58.78125 
Q 33.546875 64.59375 27.390625 64.59375 
Q 21.34375 64.59375 17.71875 59.46875 
Q 13.1875 52.9375 13.1875 35.296875 
z
" id="ArialMT-48"/>
      </defs>
      <g style="fill:#262626;" transform="translate(54.526301 370.858594)scale(0.1 -0.1)">
       <use xlink:href="#ArialMT-48"/>
      </g>
     </g>
    </g>
    <g id="xtick_2">
     <g id="line2d_3">
      <path clip-path="url(#p96691f3bbc)" d="M 134.091316 356.700781 
L 134.091316 12.96 
" style="fill:none;stroke:#ffffff;stroke-linecap:round;"/>
     </g>
     <g id="line2d_4"/>
     <g id="text_2">
      <!-- 2 -->
      <defs>
       <path d="M 50.34375 8.453125 
L 50.34375 0 
L 3.03125 0 
Q 2.9375 3.171875 4.046875 6.109375 
Q 5.859375 10.9375 9.828125 15.625 
Q 13.8125 20.3125 21.34375 26.46875 
Q 33.015625 36.03125 37.109375 41.625 
Q 41.21875 47.21875 41.21875 52.203125 
Q 41.21875 57.421875 37.46875 61 
Q 33.734375 64.59375 27.734375 64.59375 
Q 21.390625 64.59375 17.578125 60.78125 
Q 13.765625 56.984375 13.71875 50.25 
L 4.6875 51.171875 
Q 5.609375 61.28125 11.65625 66.578125 
Q 17.71875 71.875 27.9375 71.875 
Q 38.234375 71.875 44.234375 66.15625 
Q 50.25 60.453125 50.25 52 
Q 50.25 47.703125 48.484375 43.546875 
Q 46.734375 39.40625 42.65625 34.8125 
Q 38.578125 30.21875 29.109375 22.21875 
Q 21.1875 15.578125 18.9375 13.203125 
Q 16.703125 10.84375 15.234375 8.453125 
z
" id="ArialMT-50"/>
      </defs>
      <g style="fill:#262626;" transform="translate(131.310847 370.858594)scale(0.1 -0.1)">
       <use xlink:href="#ArialMT-50"/>
      </g>
     </g>
    </g>
    <g id="xtick_3">
     <g id="line2d_5">
      <path clip-path="url(#p96691f3bbc)" d="M 210.875861 356.700781 
L 210.875861 12.96 
" style="fill:none;stroke:#ffffff;stroke-linecap:round;"/>
     </g>
     <g id="line2d_6"/>
     <g id="text_3">
      <!-- 4 -->
      <defs>
       <path d="M 32.328125 0 
L 32.328125 17.140625 
L 1.265625 17.140625 
L 1.265625 25.203125 
L 33.9375 71.578125 
L 41.109375 71.578125 
L 41.109375 25.203125 
L 50.78125 25.203125 
L 50.78125 17.140625 
L 41.109375 17.140625 
L 41.109375 0 
z
M 32.328125 25.203125 
L 32.328125 57.46875 
L 9.90625 25.203125 
z
" id="ArialMT-52"/>
      </defs>
      <g style="fill:#262626;" transform="translate(208.095393 370.858594)scale(0.1 -0.1)">
       <use xlink:href="#ArialMT-52"/>
      </g>
     </g>
    </g>
    <g id="xtick_4">
     <g id="line2d_7">
      <path clip-path="url(#p96691f3bbc)" d="M 287.660407 356.700781 
L 287.660407 12.96 
" style="fill:none;stroke:#ffffff;stroke-linecap:round;"/>
     </g>
     <g id="line2d_8"/>
     <g id="text_4">
      <!-- 6 -->
      <defs>
       <path d="M 49.75 54.046875 
L 41.015625 53.375 
Q 39.84375 58.546875 37.703125 60.890625 
Q 34.125 64.65625 28.90625 64.65625 
Q 24.703125 64.65625 21.53125 62.3125 
Q 17.390625 59.28125 14.984375 53.46875 
Q 12.59375 47.65625 12.5 36.921875 
Q 15.671875 41.75 20.265625 44.09375 
Q 24.859375 46.4375 29.890625 46.4375 
Q 38.671875 46.4375 44.84375 39.96875 
Q 51.03125 33.5 51.03125 23.25 
Q 51.03125 16.5 48.125 10.71875 
Q 45.21875 4.9375 40.140625 1.859375 
Q 35.0625 -1.21875 28.609375 -1.21875 
Q 17.625 -1.21875 10.6875 6.859375 
Q 3.765625 14.9375 3.765625 33.5 
Q 3.765625 54.25 11.421875 63.671875 
Q 18.109375 71.875 29.4375 71.875 
Q 37.890625 71.875 43.28125 67.140625 
Q 48.6875 62.40625 49.75 54.046875 
z
M 13.875 23.1875 
Q 13.875 18.65625 15.796875 14.5 
Q 17.71875 10.359375 21.1875 8.171875 
Q 24.65625 6 28.46875 6 
Q 34.03125 6 38.03125 10.484375 
Q 42.046875 14.984375 42.046875 22.703125 
Q 42.046875 30.125 38.078125 34.390625 
Q 34.125 38.671875 28.125 38.671875 
Q 22.171875 38.671875 18.015625 34.390625 
Q 13.875 30.125 13.875 23.1875 
z
" id="ArialMT-54"/>
      </defs>
      <g style="fill:#262626;" transform="translate(284.879939 370.858594)scale(0.1 -0.1)">
       <use xlink:href="#ArialMT-54"/>
      </g>
     </g>
    </g>
    <g id="xtick_5">
     <g id="line2d_9">
      <path clip-path="url(#p96691f3bbc)" d="M 364.444953 356.700781 
L 364.444953 12.96 
" style="fill:none;stroke:#ffffff;stroke-linecap:round;"/>
     </g>
     <g id="line2d_10"/>
     <g id="text_5">
      <!-- 8 -->
      <defs>
       <path d="M 17.671875 38.8125 
Q 12.203125 40.828125 9.5625 44.53125 
Q 6.9375 48.25 6.9375 53.421875 
Q 6.9375 61.234375 12.546875 66.546875 
Q 18.171875 71.875 27.484375 71.875 
Q 36.859375 71.875 42.578125 66.421875 
Q 48.296875 60.984375 48.296875 53.171875 
Q 48.296875 48.1875 45.671875 44.5 
Q 43.0625 40.828125 37.75 38.8125 
Q 44.34375 36.671875 47.78125 31.875 
Q 51.21875 27.09375 51.21875 20.453125 
Q 51.21875 11.28125 44.71875 5.03125 
Q 38.234375 -1.21875 27.640625 -1.21875 
Q 17.046875 -1.21875 10.546875 5.046875 
Q 4.046875 11.328125 4.046875 20.703125 
Q 4.046875 27.6875 7.59375 32.390625 
Q 11.140625 37.109375 17.671875 38.8125 
z
M 15.921875 53.71875 
Q 15.921875 48.640625 19.1875 45.40625 
Q 22.46875 42.1875 27.6875 42.1875 
Q 32.765625 42.1875 36.015625 45.375 
Q 39.265625 48.578125 39.265625 53.21875 
Q 39.265625 58.0625 35.90625 61.359375 
Q 32.5625 64.65625 27.59375 64.65625 
Q 22.5625 64.65625 19.234375 61.421875 
Q 15.921875 58.203125 15.921875 53.71875 
z
M 13.09375 20.65625 
Q 13.09375 16.890625 14.875 13.375 
Q 16.65625 9.859375 20.171875 7.921875 
Q 23.6875 6 27.734375 6 
Q 34.03125 6 38.125 10.046875 
Q 42.234375 14.109375 42.234375 20.359375 
Q 42.234375 26.703125 38.015625 30.859375 
Q 33.796875 35.015625 27.4375 35.015625 
Q 21.234375 35.015625 17.15625 30.90625 
Q 13.09375 26.8125 13.09375 20.65625 
z
" id="ArialMT-56"/>
      </defs>
      <g style="fill:#262626;" transform="translate(361.664484 370.858594)scale(0.1 -0.1)">
       <use xlink:href="#ArialMT-56"/>
      </g>
     </g>
    </g>
    <g id="xtick_6">
     <g id="line2d_11">
      <path clip-path="url(#p96691f3bbc)" d="M 441.229499 356.700781 
L 441.229499 12.96 
" style="fill:none;stroke:#ffffff;stroke-linecap:round;"/>
     </g>
     <g id="line2d_12"/>
     <g id="text_6">
      <!-- 10 -->
      <defs>
       <path d="M 37.25 0 
L 28.46875 0 
L 28.46875 56 
Q 25.296875 52.984375 20.140625 49.953125 
Q 14.984375 46.921875 10.890625 45.40625 
L 10.890625 53.90625 
Q 18.265625 57.375 23.78125 62.296875 
Q 29.296875 67.234375 31.59375 71.875 
L 37.25 71.875 
z
" id="ArialMT-49"/>
      </defs>
      <g style="fill:#262626;" transform="translate(435.668561 370.858594)scale(0.1 -0.1)">
       <use xlink:href="#ArialMT-49"/>
       <use x="55.615234" xlink:href="#ArialMT-48"/>
      </g>
     </g>
    </g>
    <g id="xtick_7">
     <g id="line2d_13">
      <path clip-path="url(#p96691f3bbc)" d="M 518.014045 356.700781 
L 518.014045 12.96 
" style="fill:none;stroke:#ffffff;stroke-linecap:round;"/>
     </g>
     <g id="line2d_14"/>
     <g id="text_7">
      <!-- 12 -->
      <g style="fill:#262626;" transform="translate(512.453107 370.858594)scale(0.1 -0.1)">
       <use xlink:href="#ArialMT-49"/>
       <use x="55.615234" xlink:href="#ArialMT-50"/>
      </g>
     </g>
    </g>
    <g id="text_8">
     <!-- millions of alive sperm per mL -->
     <defs>
      <path d="M 6.59375 0 
L 6.59375 51.859375 
L 14.453125 51.859375 
L 14.453125 44.578125 
Q 16.890625 48.390625 20.9375 50.703125 
Q 25 53.03125 30.171875 53.03125 
Q 35.9375 53.03125 39.625 50.640625 
Q 43.3125 48.25 44.828125 43.953125 
Q 50.984375 53.03125 60.84375 53.03125 
Q 68.5625 53.03125 72.703125 48.75 
Q 76.859375 44.484375 76.859375 35.59375 
L 76.859375 0 
L 68.109375 0 
L 68.109375 32.671875 
Q 68.109375 37.9375 67.25 40.25 
Q 66.40625 42.578125 64.15625 43.984375 
Q 61.921875 45.40625 58.890625 45.40625 
Q 53.421875 45.40625 49.796875 41.765625 
Q 46.1875 38.140625 46.1875 30.125 
L 46.1875 0 
L 37.40625 0 
L 37.40625 33.6875 
Q 37.40625 39.546875 35.25 42.46875 
Q 33.109375 45.40625 28.21875 45.40625 
Q 24.515625 45.40625 21.359375 43.453125 
Q 18.21875 41.5 16.796875 37.734375 
Q 15.375 33.984375 15.375 26.90625 
L 15.375 0 
z
" id="ArialMT-109"/>
      <path d="M 6.640625 61.46875 
L 6.640625 71.578125 
L 15.4375 71.578125 
L 15.4375 61.46875 
z
M 6.640625 0 
L 6.640625 51.859375 
L 15.4375 51.859375 
L 15.4375 0 
z
" id="ArialMT-105"/>
      <path d="M 6.390625 0 
L 6.390625 71.578125 
L 15.1875 71.578125 
L 15.1875 0 
z
" id="ArialMT-108"/>
      <path d="M 3.328125 25.921875 
Q 3.328125 40.328125 11.328125 47.265625 
Q 18.015625 53.03125 27.640625 53.03125 
Q 38.328125 53.03125 45.109375 46.015625 
Q 51.90625 39.015625 51.90625 26.65625 
Q 51.90625 16.65625 48.90625 10.90625 
Q 45.90625 5.171875 40.15625 2 
Q 34.421875 -1.171875 27.640625 -1.171875 
Q 16.75 -1.171875 10.03125 5.8125 
Q 3.328125 12.796875 3.328125 25.921875 
z
M 12.359375 25.921875 
Q 12.359375 15.96875 16.703125 11.015625 
Q 21.046875 6.0625 27.640625 6.0625 
Q 34.1875 6.0625 38.53125 11.03125 
Q 42.875 16.015625 42.875 26.21875 
Q 42.875 35.84375 38.5 40.796875 
Q 34.125 45.75 27.640625 45.75 
Q 21.046875 45.75 16.703125 40.8125 
Q 12.359375 35.890625 12.359375 25.921875 
z
" id="ArialMT-111"/>
      <path d="M 6.59375 0 
L 6.59375 51.859375 
L 14.5 51.859375 
L 14.5 44.484375 
Q 20.21875 53.03125 31 53.03125 
Q 35.6875 53.03125 39.625 51.34375 
Q 43.5625 49.65625 45.515625 46.921875 
Q 47.46875 44.1875 48.25 40.4375 
Q 48.734375 37.984375 48.734375 31.890625 
L 48.734375 0 
L 39.9375 0 
L 39.9375 31.546875 
Q 39.9375 36.921875 38.90625 39.578125 
Q 37.890625 42.234375 35.28125 43.8125 
Q 32.671875 45.40625 29.15625 45.40625 
Q 23.53125 45.40625 19.453125 41.84375 
Q 15.375 38.28125 15.375 28.328125 
L 15.375 0 
z
" id="ArialMT-110"/>
      <path d="M 3.078125 15.484375 
L 11.765625 16.84375 
Q 12.5 11.625 15.84375 8.84375 
Q 19.1875 6.0625 25.203125 6.0625 
Q 31.25 6.0625 34.171875 8.515625 
Q 37.109375 10.984375 37.109375 14.3125 
Q 37.109375 17.28125 34.515625 19 
Q 32.71875 20.171875 25.53125 21.96875 
Q 15.875 24.421875 12.140625 26.203125 
Q 8.40625 27.984375 6.46875 31.125 
Q 4.546875 34.28125 4.546875 38.09375 
Q 4.546875 41.546875 6.125 44.5 
Q 7.71875 47.46875 10.453125 49.421875 
Q 12.5 50.921875 16.03125 51.96875 
Q 19.578125 53.03125 23.640625 53.03125 
Q 29.734375 53.03125 34.34375 51.265625 
Q 38.96875 49.515625 41.15625 46.5 
Q 43.359375 43.5 44.1875 38.484375 
L 35.59375 37.3125 
Q 35.015625 41.3125 32.203125 43.546875 
Q 29.390625 45.796875 24.265625 45.796875 
Q 18.21875 45.796875 15.625 43.796875 
Q 13.03125 41.796875 13.03125 39.109375 
Q 13.03125 37.40625 14.109375 36.03125 
Q 15.1875 34.625 17.484375 33.6875 
Q 18.796875 33.203125 25.25 31.453125 
Q 34.578125 28.953125 38.25 27.359375 
Q 41.9375 25.78125 44.03125 22.75 
Q 46.140625 19.734375 46.140625 15.234375 
Q 46.140625 10.84375 43.578125 6.953125 
Q 41.015625 3.078125 36.171875 0.953125 
Q 31.34375 -1.171875 25.25 -1.171875 
Q 15.140625 -1.171875 9.84375 3.03125 
Q 4.546875 7.234375 3.078125 15.484375 
z
" id="ArialMT-115"/>
      <path id="ArialMT-32"/>
      <path d="M 8.6875 0 
L 8.6875 45.015625 
L 0.921875 45.015625 
L 0.921875 51.859375 
L 8.6875 51.859375 
L 8.6875 57.375 
Q 8.6875 62.59375 9.625 65.140625 
Q 10.890625 68.5625 14.078125 70.671875 
Q 17.28125 72.796875 23.046875 72.796875 
Q 26.765625 72.796875 31.25 71.921875 
L 29.9375 64.265625 
Q 27.203125 64.75 24.75 64.75 
Q 20.75 64.75 19.09375 63.03125 
Q 17.4375 61.328125 17.4375 56.640625 
L 17.4375 51.859375 
L 27.546875 51.859375 
L 27.546875 45.015625 
L 17.4375 45.015625 
L 17.4375 0 
z
" id="ArialMT-102"/>
      <path d="M 40.4375 6.390625 
Q 35.546875 2.25 31.03125 0.53125 
Q 26.515625 -1.171875 21.34375 -1.171875 
Q 12.796875 -1.171875 8.203125 3 
Q 3.609375 7.171875 3.609375 13.671875 
Q 3.609375 17.484375 5.34375 20.625 
Q 7.078125 23.78125 9.890625 25.6875 
Q 12.703125 27.59375 16.21875 28.5625 
Q 18.796875 29.25 24.03125 29.890625 
Q 34.671875 31.15625 39.703125 32.90625 
Q 39.75 34.71875 39.75 35.203125 
Q 39.75 40.578125 37.25 42.78125 
Q 33.890625 45.75 27.25 45.75 
Q 21.046875 45.75 18.09375 43.578125 
Q 15.140625 41.40625 13.71875 35.890625 
L 5.125 37.0625 
Q 6.296875 42.578125 8.984375 45.96875 
Q 11.671875 49.359375 16.75 51.1875 
Q 21.828125 53.03125 28.515625 53.03125 
Q 35.15625 53.03125 39.296875 51.46875 
Q 43.453125 49.90625 45.40625 47.53125 
Q 47.359375 45.171875 48.140625 41.546875 
Q 48.578125 39.3125 48.578125 33.453125 
L 48.578125 21.734375 
Q 48.578125 9.46875 49.140625 6.21875 
Q 49.703125 2.984375 51.375 0 
L 42.1875 0 
Q 40.828125 2.734375 40.4375 6.390625 
z
M 39.703125 26.03125 
Q 34.90625 24.078125 25.34375 22.703125 
Q 19.921875 21.921875 17.671875 20.9375 
Q 15.4375 19.96875 14.203125 18.09375 
Q 12.984375 16.21875 12.984375 13.921875 
Q 12.984375 10.40625 15.640625 8.0625 
Q 18.3125 5.71875 23.4375 5.71875 
Q 28.515625 5.71875 32.46875 7.9375 
Q 36.421875 10.15625 38.28125 14.015625 
Q 39.703125 17 39.703125 22.796875 
z
" id="ArialMT-97"/>
      <path d="M 21 0 
L 1.265625 51.859375 
L 10.546875 51.859375 
L 21.6875 20.796875 
Q 23.484375 15.765625 25 10.359375 
Q 26.171875 14.453125 28.265625 20.21875 
L 39.796875 51.859375 
L 48.828125 51.859375 
L 29.203125 0 
z
" id="ArialMT-118"/>
      <path d="M 42.09375 16.703125 
L 51.171875 15.578125 
Q 49.03125 7.625 43.21875 3.21875 
Q 37.40625 -1.171875 28.375 -1.171875 
Q 17 -1.171875 10.328125 5.828125 
Q 3.65625 12.84375 3.65625 25.484375 
Q 3.65625 38.578125 10.390625 45.796875 
Q 17.140625 53.03125 27.875 53.03125 
Q 38.28125 53.03125 44.875 45.953125 
Q 51.46875 38.875 51.46875 26.03125 
Q 51.46875 25.25 51.421875 23.6875 
L 12.75 23.6875 
Q 13.234375 15.140625 17.578125 10.59375 
Q 21.921875 6.0625 28.421875 6.0625 
Q 33.25 6.0625 36.671875 8.59375 
Q 40.09375 11.140625 42.09375 16.703125 
z
M 13.234375 30.90625 
L 42.1875 30.90625 
Q 41.609375 37.453125 38.875 40.71875 
Q 34.671875 45.796875 27.984375 45.796875 
Q 21.921875 45.796875 17.796875 41.75 
Q 13.671875 37.703125 13.234375 30.90625 
z
" id="ArialMT-101"/>
      <path d="M 6.59375 -19.875 
L 6.59375 51.859375 
L 14.59375 51.859375 
L 14.59375 45.125 
Q 17.4375 49.078125 21 51.046875 
Q 24.5625 53.03125 29.640625 53.03125 
Q 36.28125 53.03125 41.359375 49.609375 
Q 46.4375 46.1875 49.015625 39.953125 
Q 51.609375 33.734375 51.609375 26.3125 
Q 51.609375 18.359375 48.75 11.984375 
Q 45.90625 5.609375 40.453125 2.21875 
Q 35.015625 -1.171875 29 -1.171875 
Q 24.609375 -1.171875 21.109375 0.6875 
Q 17.625 2.546875 15.375 5.375 
L 15.375 -19.875 
z
M 14.546875 25.640625 
Q 14.546875 15.625 18.59375 10.84375 
Q 22.65625 6.0625 28.421875 6.0625 
Q 34.28125 6.0625 38.453125 11.015625 
Q 42.625 15.96875 42.625 26.375 
Q 42.625 36.28125 38.546875 41.203125 
Q 34.46875 46.140625 28.8125 46.140625 
Q 23.1875 46.140625 18.859375 40.890625 
Q 14.546875 35.640625 14.546875 25.640625 
z
" id="ArialMT-112"/>
      <path d="M 6.5 0 
L 6.5 51.859375 
L 14.40625 51.859375 
L 14.40625 44 
Q 17.4375 49.515625 20 51.265625 
Q 22.5625 53.03125 25.640625 53.03125 
Q 30.078125 53.03125 34.671875 50.203125 
L 31.640625 42.046875 
Q 28.421875 43.953125 25.203125 43.953125 
Q 22.3125 43.953125 20.015625 42.21875 
Q 17.71875 40.484375 16.75 37.40625 
Q 15.28125 32.71875 15.28125 27.15625 
L 15.28125 0 
z
" id="ArialMT-114"/>
      <path d="M 7.328125 0 
L 7.328125 71.578125 
L 16.796875 71.578125 
L 16.796875 8.453125 
L 52.046875 8.453125 
L 52.046875 0 
z
" id="ArialMT-76"/>
     </defs>
     <g style="fill:#262626;" transform="translate(219.238125 384.85375)scale(0.11 -0.11)">
      <use xlink:href="#ArialMT-109"/>
      <use x="83.300781" xlink:href="#ArialMT-105"/>
      <use x="105.517578" xlink:href="#ArialMT-108"/>
      <use x="127.734375" xlink:href="#ArialMT-108"/>
      <use x="149.951172" xlink:href="#ArialMT-105"/>
      <use x="172.167969" xlink:href="#ArialMT-111"/>
      <use x="227.783203" xlink:href="#ArialMT-110"/>
      <use x="283.398438" xlink:href="#ArialMT-115"/>
      <use x="333.398438" xlink:href="#ArialMT-32"/>
      <use x="361.181641" xlink:href="#ArialMT-111"/>
      <use x="416.796875" xlink:href="#ArialMT-102"/>
      <use x="444.580078" xlink:href="#ArialMT-32"/>
      <use x="472.363281" xlink:href="#ArialMT-97"/>
      <use x="527.978516" xlink:href="#ArialMT-108"/>
      <use x="550.195312" xlink:href="#ArialMT-105"/>
      <use x="572.412109" xlink:href="#ArialMT-118"/>
      <use x="622.412109" xlink:href="#ArialMT-101"/>
      <use x="678.027344" xlink:href="#ArialMT-32"/>
      <use x="705.810547" xlink:href="#ArialMT-115"/>
      <use x="755.810547" xlink:href="#ArialMT-112"/>
      <use x="811.425781" xlink:href="#ArialMT-101"/>
      <use x="867.041016" xlink:href="#ArialMT-114"/>
      <use x="900.341797" xlink:href="#ArialMT-109"/>
      <use x="983.642578" xlink:href="#ArialMT-32"/>
      <use x="1011.425781" xlink:href="#ArialMT-112"/>
      <use x="1067.041016" xlink:href="#ArialMT-101"/>
      <use x="1122.65625" xlink:href="#ArialMT-114"/>
      <use x="1155.957031" xlink:href="#ArialMT-32"/>
      <use x="1183.740234" xlink:href="#ArialMT-109"/>
      <use x="1267.041016" xlink:href="#ArialMT-76"/>
     </g>
    </g>
   </g>
   <g id="matplotlib.axis_2">
    <g id="ytick_1">
     <g id="line2d_15">
      <path clip-path="url(#p96691f3bbc)" d="M 47.919844 352.385659 
L 536.04 352.385659 
" style="fill:none;stroke:#ffffff;stroke-linecap:round;"/>
     </g>
     <g id="line2d_16"/>
     <g id="text_9">
      <!-- 0.0 -->
      <defs>
       <path d="M 9.078125 0 
L 9.078125 10.015625 
L 19.09375 10.015625 
L 19.09375 0 
z
" id="ArialMT-46"/>
      </defs>
      <g style="fill:#262626;" transform="translate(27.019844 355.964566)scale(0.1 -0.1)">
       <use xlink:href="#ArialMT-48"/>
       <use x="55.615234" xlink:href="#ArialMT-46"/>
       <use x="83.398438" xlink:href="#ArialMT-48"/>
      </g>
     </g>
    </g>
    <g id="ytick_2">
     <g id="line2d_17">
      <path clip-path="url(#p96691f3bbc)" d="M 47.919844 285.822607 
L 536.04 285.822607 
" style="fill:none;stroke:#ffffff;stroke-linecap:round;"/>
     </g>
     <g id="line2d_18"/>
     <g id="text_10">
      <!-- 0.2 -->
      <g style="fill:#262626;" transform="translate(27.019844 289.401514)scale(0.1 -0.1)">
       <use xlink:href="#ArialMT-48"/>
       <use x="55.615234" xlink:href="#ArialMT-46"/>
       <use x="83.398438" xlink:href="#ArialMT-50"/>
      </g>
     </g>
    </g>
    <g id="ytick_3">
     <g id="line2d_19">
      <path clip-path="url(#p96691f3bbc)" d="M 47.919844 219.259555 
L 536.04 219.259555 
" style="fill:none;stroke:#ffffff;stroke-linecap:round;"/>
     </g>
     <g id="line2d_20"/>
     <g id="text_11">
      <!-- 0.4 -->
      <g style="fill:#262626;" transform="translate(27.019844 222.838462)scale(0.1 -0.1)">
       <use xlink:href="#ArialMT-48"/>
       <use x="55.615234" xlink:href="#ArialMT-46"/>
       <use x="83.398438" xlink:href="#ArialMT-52"/>
      </g>
     </g>
    </g>
    <g id="ytick_4">
     <g id="line2d_21">
      <path clip-path="url(#p96691f3bbc)" d="M 47.919844 152.696503 
L 536.04 152.696503 
" style="fill:none;stroke:#ffffff;stroke-linecap:round;"/>
     </g>
     <g id="line2d_22"/>
     <g id="text_12">
      <!-- 0.6 -->
      <g style="fill:#262626;" transform="translate(27.019844 156.27541)scale(0.1 -0.1)">
       <use xlink:href="#ArialMT-48"/>
       <use x="55.615234" xlink:href="#ArialMT-46"/>
       <use x="83.398438" xlink:href="#ArialMT-54"/>
      </g>
     </g>
    </g>
    <g id="ytick_5">
     <g id="line2d_23">
      <path clip-path="url(#p96691f3bbc)" d="M 47.919844 86.133452 
L 536.04 86.133452 
" style="fill:none;stroke:#ffffff;stroke-linecap:round;"/>
     </g>
     <g id="line2d_24"/>
     <g id="text_13">
      <!-- 0.8 -->
      <g style="fill:#262626;" transform="translate(27.019844 89.712358)scale(0.1 -0.1)">
       <use xlink:href="#ArialMT-48"/>
       <use x="55.615234" xlink:href="#ArialMT-46"/>
       <use x="83.398438" xlink:href="#ArialMT-56"/>
      </g>
     </g>
    </g>
    <g id="ytick_6">
     <g id="line2d_25">
      <path clip-path="url(#p96691f3bbc)" d="M 47.919844 19.5704 
L 536.04 19.5704 
" style="fill:none;stroke:#ffffff;stroke-linecap:round;"/>
     </g>
     <g id="line2d_26"/>
     <g id="text_14">
      <!-- 1.0 -->
      <g style="fill:#262626;" transform="translate(27.019844 23.149306)scale(0.1 -0.1)">
       <use xlink:href="#ArialMT-49"/>
       <use x="55.615234" xlink:href="#ArialMT-46"/>
       <use x="83.398438" xlink:href="#ArialMT-48"/>
      </g>
     </g>
    </g>
    <g id="text_15">
     <!-- ECDF -->
     <defs>
      <path d="M 7.90625 0 
L 7.90625 71.578125 
L 59.671875 71.578125 
L 59.671875 63.140625 
L 17.390625 63.140625 
L 17.390625 41.21875 
L 56.984375 41.21875 
L 56.984375 32.8125 
L 17.390625 32.8125 
L 17.390625 8.453125 
L 61.328125 8.453125 
L 61.328125 0 
z
" id="ArialMT-69"/>
      <path d="M 58.796875 25.09375 
L 68.265625 22.703125 
Q 65.28125 11.03125 57.546875 4.90625 
Q 49.8125 -1.21875 38.625 -1.21875 
Q 27.046875 -1.21875 19.796875 3.484375 
Q 12.546875 8.203125 8.765625 17.140625 
Q 4.984375 26.078125 4.984375 36.328125 
Q 4.984375 47.515625 9.25 55.828125 
Q 13.53125 64.15625 21.40625 68.46875 
Q 29.296875 72.796875 38.765625 72.796875 
Q 49.515625 72.796875 56.828125 67.328125 
Q 64.15625 61.859375 67.046875 51.953125 
L 57.71875 49.75 
Q 55.21875 57.5625 50.484375 61.125 
Q 45.75 64.703125 38.578125 64.703125 
Q 30.328125 64.703125 24.78125 60.734375 
Q 19.234375 56.78125 16.984375 50.109375 
Q 14.75 43.453125 14.75 36.375 
Q 14.75 27.25 17.40625 20.4375 
Q 20.0625 13.625 25.671875 10.25 
Q 31.296875 6.890625 37.84375 6.890625 
Q 45.796875 6.890625 51.3125 11.46875 
Q 56.84375 16.0625 58.796875 25.09375 
z
" id="ArialMT-67"/>
      <path d="M 7.71875 0 
L 7.71875 71.578125 
L 32.375 71.578125 
Q 40.71875 71.578125 45.125 70.5625 
Q 51.265625 69.140625 55.609375 65.4375 
Q 61.28125 60.640625 64.078125 53.1875 
Q 66.890625 45.75 66.890625 36.1875 
Q 66.890625 28.03125 64.984375 21.734375 
Q 63.09375 15.4375 60.109375 11.296875 
Q 57.125 7.171875 53.578125 4.796875 
Q 50.046875 2.4375 45.046875 1.21875 
Q 40.046875 0 33.546875 0 
z
M 17.1875 8.453125 
L 32.46875 8.453125 
Q 39.546875 8.453125 43.578125 9.765625 
Q 47.609375 11.078125 50 13.484375 
Q 53.375 16.84375 55.25 22.53125 
Q 57.125 28.21875 57.125 36.328125 
Q 57.125 47.5625 53.4375 53.59375 
Q 49.75 59.625 44.484375 61.671875 
Q 40.671875 63.140625 32.234375 63.140625 
L 17.1875 63.140625 
z
" id="ArialMT-68"/>
      <path d="M 8.203125 0 
L 8.203125 71.578125 
L 56.5 71.578125 
L 56.5 63.140625 
L 17.671875 63.140625 
L 17.671875 40.96875 
L 51.265625 40.96875 
L 51.265625 32.515625 
L 17.671875 32.515625 
L 17.671875 0 
z
" id="ArialMT-70"/>
     </defs>
     <g style="fill:#262626;" transform="translate(20.833594 199.802422)rotate(-90)scale(0.11 -0.11)">
      <use xlink:href="#ArialMT-69"/>
      <use x="66.699219" xlink:href="#ArialMT-67"/>
      <use x="138.916016" xlink:href="#ArialMT-68"/>
      <use x="211.132812" xlink:href="#ArialMT-70"/>
     </g>
    </g>
   </g>
   <g id="line2d_27">
    <defs>
     <path d="M 0 1.75 
C 0.464105 1.75 0.909265 1.565609 1.237437 1.237437 
C 1.565609 0.909265 1.75 0.464105 1.75 0 
C 1.75 -0.464105 1.565609 -0.909265 1.237437 -1.237437 
C 0.909265 -1.565609 0.464105 -1.75 0 -1.75 
C -0.464105 -1.75 -0.909265 -1.565609 -1.237437 -1.237437 
C -1.565609 -0.909265 -1.75 -0.464105 -1.75 0 
C -1.75 0.464105 -1.565609 0.909265 -1.237437 1.237437 
C -0.909265 1.565609 -0.464105 1.75 0 1.75 
z
" id="m9791627ca0"/>
    </defs>
    <g clip-path="url(#p96691f3bbc)">
     <use style="fill:#4c72b0;" x="57.30677" xlink:href="#m9791627ca0" y="350.090382"/>
     <use style="fill:#4c72b0;" x="57.30677" xlink:href="#m9791627ca0" y="347.795104"/>
     <use style="fill:#4c72b0;" x="57.30677" xlink:href="#m9791627ca0" y="345.499826"/>
     <use style="fill:#4c72b0;" x="57.30677" xlink:href="#m9791627ca0" y="343.204549"/>
     <use style="fill:#4c72b0;" x="57.30677" xlink:href="#m9791627ca0" y="340.909271"/>
     <use style="fill:#4c72b0;" x="57.30677" xlink:href="#m9791627ca0" y="338.613993"/>
     <use style="fill:#4c72b0;" x="57.30677" xlink:href="#m9791627ca0" y="336.318716"/>
     <use style="fill:#4c72b0;" x="57.30677" xlink:href="#m9791627ca0" y="334.023438"/>
     <use style="fill:#4c72b0;" x="59.514095" xlink:href="#m9791627ca0" y="331.72816"/>
     <use style="fill:#4c72b0;" x="59.802268" xlink:href="#m9791627ca0" y="329.432883"/>
     <use style="fill:#4c72b0;" x="60.666094" xlink:href="#m9791627ca0" y="327.137605"/>
     <use style="fill:#4c72b0;" x="61.145997" xlink:href="#m9791627ca0" y="324.842327"/>
     <use style="fill:#4c72b0;" x="62.672935" xlink:href="#m9791627ca0" y="322.54705"/>
     <use style="fill:#4c72b0;" x="63.84912" xlink:href="#m9791627ca0" y="320.251772"/>
     <use style="fill:#4c72b0;" x="63.941415" xlink:href="#m9791627ca0" y="317.956494"/>
     <use style="fill:#4c72b0;" x="64.162478" xlink:href="#m9791627ca0" y="315.661217"/>
     <use style="fill:#4c72b0;" x="65.707306" xlink:href="#m9791627ca0" y="313.365939"/>
     <use style="fill:#4c72b0;" x="66.847634" xlink:href="#m9791627ca0" y="311.070662"/>
     <use style="fill:#4c72b0;" x="67.226335" xlink:href="#m9791627ca0" y="308.775384"/>
     <use style="fill:#4c72b0;" x="68.808788" xlink:href="#m9791627ca0" y="306.480106"/>
     <use style="fill:#4c72b0;" x="70.664056" xlink:href="#m9791627ca0" y="304.184829"/>
     <use style="fill:#4c72b0;" x="71.444801" xlink:href="#m9791627ca0" y="301.889551"/>
     <use style="fill:#4c72b0;" x="72.663679" xlink:href="#m9791627ca0" y="299.594273"/>
     <use style="fill:#4c72b0;" x="80.030465" xlink:href="#m9791627ca0" y="297.298996"/>
     <use style="fill:#4c72b0;" x="85.434945" xlink:href="#m9791627ca0" y="295.003718"/>
     <use style="fill:#4c72b0;" x="96.070987" xlink:href="#m9791627ca0" y="292.70844"/>
     <use style="fill:#4c72b0;" x="103.811637" xlink:href="#m9791627ca0" y="290.413163"/>
     <use style="fill:#4c72b0;" x="105.563016" xlink:href="#m9791627ca0" y="288.117885"/>
     <use style="fill:#4c72b0;" x="106.184894" xlink:href="#m9791627ca0" y="285.822607"/>
     <use style="fill:#4c72b0;" x="107.007103" xlink:href="#m9791627ca0" y="283.52733"/>
     <use style="fill:#4c72b0;" x="113.511368" xlink:href="#m9791627ca0" y="281.232052"/>
     <use style="fill:#4c72b0;" x="121.802487" xlink:href="#m9791627ca0" y="278.936774"/>
     <use style="fill:#4c72b0;" x="127.730714" xlink:href="#m9791627ca0" y="276.641497"/>
     <use style="fill:#4c72b0;" x="128.815833" xlink:href="#m9791627ca0" y="274.346219"/>
     <use style="fill:#4c72b0;" x="131.491468" xlink:href="#m9791627ca0" y="272.050941"/>
     <use style="fill:#4c72b0;" x="133.981821" xlink:href="#m9791627ca0" y="269.755664"/>
     <use style="fill:#4c72b0;" x="135.153016" xlink:href="#m9791627ca0" y="267.460386"/>
     <use style="fill:#4c72b0;" x="135.367321" xlink:href="#m9791627ca0" y="265.165108"/>
     <use style="fill:#4c72b0;" x="136.131788" xlink:href="#m9791627ca0" y="262.869831"/>
     <use style="fill:#4c72b0;" x="138.526852" xlink:href="#m9791627ca0" y="260.574553"/>
     <use style="fill:#4c72b0;" x="140.651403" xlink:href="#m9791627ca0" y="258.279276"/>
     <use style="fill:#4c72b0;" x="143.409811" xlink:href="#m9791627ca0" y="255.983998"/>
     <use style="fill:#4c72b0;" x="145.098303" xlink:href="#m9791627ca0" y="253.68872"/>
     <use style="fill:#4c72b0;" x="145.190138" xlink:href="#m9791627ca0" y="251.393443"/>
     <use style="fill:#4c72b0;" x="146.538321" xlink:href="#m9791627ca0" y="249.098165"/>
     <use style="fill:#4c72b0;" x="150.763928" xlink:href="#m9791627ca0" y="246.802887"/>
     <use style="fill:#4c72b0;" x="154.163948" xlink:href="#m9791627ca0" y="244.50761"/>
     <use style="fill:#4c72b0;" x="154.238813" xlink:href="#m9791627ca0" y="242.212332"/>
     <use style="fill:#4c72b0;" x="157.197091" xlink:href="#m9791627ca0" y="239.917054"/>
     <use style="fill:#4c72b0;" x="159.046293" xlink:href="#m9791627ca0" y="237.621777"/>
     <use style="fill:#4c72b0;" x="161.950285" xlink:href="#m9791627ca0" y="235.326499"/>
     <use style="fill:#4c72b0;" x="169.569001" xlink:href="#m9791627ca0" y="233.031221"/>
     <use style="fill:#4c72b0;" x="171.163816" xlink:href="#m9791627ca0" y="230.735944"/>
     <use style="fill:#4c72b0;" x="172.578725" xlink:href="#m9791627ca0" y="228.440666"/>
     <use style="fill:#4c72b0;" x="173.037973" xlink:href="#m9791627ca0" y="226.145388"/>
     <use style="fill:#4c72b0;" x="173.573161" xlink:href="#m9791627ca0" y="223.850111"/>
     <use style="fill:#4c72b0;" x="174.680702" xlink:href="#m9791627ca0" y="221.554833"/>
     <use style="fill:#4c72b0;" x="176.511399" xlink:href="#m9791627ca0" y="219.259555"/>
     <use style="fill:#4c72b0;" x="179.068708" xlink:href="#m9791627ca0" y="216.964278"/>
     <use style="fill:#4c72b0;" x="180.209342" xlink:href="#m9791627ca0" y="214.669"/>
     <use style="fill:#4c72b0;" x="182.289359" xlink:href="#m9791627ca0" y="212.373722"/>
     <use style="fill:#4c72b0;" x="183.730912" xlink:href="#m9791627ca0" y="210.078445"/>
     <use style="fill:#4c72b0;" x="186.46091" xlink:href="#m9791627ca0" y="207.783167"/>
     <use style="fill:#4c72b0;" x="188.201846" xlink:href="#m9791627ca0" y="205.487889"/>
     <use style="fill:#4c72b0;" x="190.841315" xlink:href="#m9791627ca0" y="203.192612"/>
     <use style="fill:#4c72b0;" x="191.613613" xlink:href="#m9791627ca0" y="200.897334"/>
     <use style="fill:#4c72b0;" x="193.384649" xlink:href="#m9791627ca0" y="198.602057"/>
     <use style="fill:#4c72b0;" x="193.976197" xlink:href="#m9791627ca0" y="196.306779"/>
     <use style="fill:#4c72b0;" x="195.494765" xlink:href="#m9791627ca0" y="194.011501"/>
     <use style="fill:#4c72b0;" x="195.691718" xlink:href="#m9791627ca0" y="191.716224"/>
     <use style="fill:#4c72b0;" x="195.750534" xlink:href="#m9791627ca0" y="189.420946"/>
     <use style="fill:#4c72b0;" x="199.598131" xlink:href="#m9791627ca0" y="187.125668"/>
     <use style="fill:#4c72b0;" x="200.608693" xlink:href="#m9791627ca0" y="184.830391"/>
     <use style="fill:#4c72b0;" x="206.900956" xlink:href="#m9791627ca0" y="182.535113"/>
     <use style="fill:#4c72b0;" x="207.983388" xlink:href="#m9791627ca0" y="180.239835"/>
     <use style="fill:#4c72b0;" x="209.480917" xlink:href="#m9791627ca0" y="177.944558"/>
     <use style="fill:#4c72b0;" x="212.675" xlink:href="#m9791627ca0" y="175.64928"/>
     <use style="fill:#4c72b0;" x="213.413744" xlink:href="#m9791627ca0" y="173.354002"/>
     <use style="fill:#4c72b0;" x="214.770066" xlink:href="#m9791627ca0" y="171.058725"/>
     <use style="fill:#4c72b0;" x="215.42619" xlink:href="#m9791627ca0" y="168.763447"/>
     <use style="fill:#4c72b0;" x="215.674896" xlink:href="#m9791627ca0" y="166.468169"/>
     <use style="fill:#4c72b0;" x="216.640231" xlink:href="#m9791627ca0" y="164.172892"/>
     <use style="fill:#4c72b0;" x="216.876727" xlink:href="#m9791627ca0" y="161.877614"/>
     <use style="fill:#4c72b0;" x="216.989217" xlink:href="#m9791627ca0" y="159.582336"/>
     <use style="fill:#4c72b0;" x="219.021089" xlink:href="#m9791627ca0" y="157.287059"/>
     <use style="fill:#4c72b0;" x="221.780188" xlink:href="#m9791627ca0" y="154.991781"/>
     <use style="fill:#4c72b0;" x="223.236638" xlink:href="#m9791627ca0" y="152.696503"/>
     <use style="fill:#4c72b0;" x="225.729755" xlink:href="#m9791627ca0" y="150.401226"/>
     <use style="fill:#4c72b0;" x="226.539986" xlink:href="#m9791627ca0" y="148.105948"/>
     <use style="fill:#4c72b0;" x="228.734718" xlink:href="#m9791627ca0" y="145.810671"/>
     <use style="fill:#4c72b0;" x="231.363053" xlink:href="#m9791627ca0" y="143.515393"/>
     <use style="fill:#4c72b0;" x="232.948808" xlink:href="#m9791627ca0" y="141.220115"/>
     <use style="fill:#4c72b0;" x="234.888309" xlink:href="#m9791627ca0" y="138.924838"/>
     <use style="fill:#4c72b0;" x="235.180704" xlink:href="#m9791627ca0" y="136.62956"/>
     <use style="fill:#4c72b0;" x="236.464388" xlink:href="#m9791627ca0" y="134.334282"/>
     <use style="fill:#4c72b0;" x="237.692557" xlink:href="#m9791627ca0" y="132.039005"/>
     <use style="fill:#4c72b0;" x="239.117141" xlink:href="#m9791627ca0" y="129.743727"/>
     <use style="fill:#4c72b0;" x="241.842838" xlink:href="#m9791627ca0" y="127.448449"/>
     <use style="fill:#4c72b0;" x="241.857658" xlink:href="#m9791627ca0" y="125.153172"/>
     <use style="fill:#4c72b0;" x="242.769321" xlink:href="#m9791627ca0" y="122.857894"/>
     <use style="fill:#4c72b0;" x="249.241106" xlink:href="#m9791627ca0" y="120.562616"/>
     <use style="fill:#4c72b0;" x="255.571147" xlink:href="#m9791627ca0" y="118.267339"/>
     <use style="fill:#4c72b0;" x="257.323371" xlink:href="#m9791627ca0" y="115.972061"/>
     <use style="fill:#4c72b0;" x="257.526773" xlink:href="#m9791627ca0" y="113.676783"/>
     <use style="fill:#4c72b0;" x="257.906396" xlink:href="#m9791627ca0" y="111.381506"/>
     <use style="fill:#4c72b0;" x="259.278536" xlink:href="#m9791627ca0" y="109.086228"/>
     <use style="fill:#4c72b0;" x="260.115794" xlink:href="#m9791627ca0" y="106.79095"/>
     <use style="fill:#4c72b0;" x="265.204229" xlink:href="#m9791627ca0" y="104.495673"/>
     <use style="fill:#4c72b0;" x="266.983711" xlink:href="#m9791627ca0" y="102.200395"/>
     <use style="fill:#4c72b0;" x="267.94037" xlink:href="#m9791627ca0" y="99.905117"/>
     <use style="fill:#4c72b0;" x="268.336117" xlink:href="#m9791627ca0" y="97.60984"/>
     <use style="fill:#4c72b0;" x="269.2454" xlink:href="#m9791627ca0" y="95.314562"/>
     <use style="fill:#4c72b0;" x="271.074178" xlink:href="#m9791627ca0" y="93.019285"/>
     <use style="fill:#4c72b0;" x="271.302304" xlink:href="#m9791627ca0" y="90.724007"/>
     <use style="fill:#4c72b0;" x="280.759703" xlink:href="#m9791627ca0" y="88.428729"/>
     <use style="fill:#4c72b0;" x="280.90114" xlink:href="#m9791627ca0" y="86.133452"/>
     <use style="fill:#4c72b0;" x="281.593584" xlink:href="#m9791627ca0" y="83.838174"/>
     <use style="fill:#4c72b0;" x="283.791848" xlink:href="#m9791627ca0" y="81.542896"/>
     <use style="fill:#4c72b0;" x="289.068175" xlink:href="#m9791627ca0" y="79.247619"/>
     <use style="fill:#4c72b0;" x="289.67078" xlink:href="#m9791627ca0" y="76.952341"/>
     <use style="fill:#4c72b0;" x="289.846847" xlink:href="#m9791627ca0" y="74.657063"/>
     <use style="fill:#4c72b0;" x="290.53453" xlink:href="#m9791627ca0" y="72.361786"/>
     <use style="fill:#4c72b0;" x="294.252744" xlink:href="#m9791627ca0" y="70.066508"/>
     <use style="fill:#4c72b0;" x="294.467127" xlink:href="#m9791627ca0" y="67.77123"/>
     <use style="fill:#4c72b0;" x="296.05841" xlink:href="#m9791627ca0" y="65.475953"/>
     <use style="fill:#4c72b0;" x="301.621527" xlink:href="#m9791627ca0" y="63.180675"/>
     <use style="fill:#4c72b0;" x="306.133694" xlink:href="#m9791627ca0" y="60.885397"/>
     <use style="fill:#4c72b0;" x="307.56227" xlink:href="#m9791627ca0" y="58.59012"/>
     <use style="fill:#4c72b0;" x="310.854331" xlink:href="#m9791627ca0" y="56.294842"/>
     <use style="fill:#4c72b0;" x="311.281714" xlink:href="#m9791627ca0" y="53.999564"/>
     <use style="fill:#4c72b0;" x="319.923661" xlink:href="#m9791627ca0" y="51.704287"/>
     <use style="fill:#4c72b0;" x="323.237759" xlink:href="#m9791627ca0" y="49.409009"/>
     <use style="fill:#4c72b0;" x="328.964504" xlink:href="#m9791627ca0" y="47.113731"/>
     <use style="fill:#4c72b0;" x="329.441796" xlink:href="#m9791627ca0" y="44.818454"/>
     <use style="fill:#4c72b0;" x="344.479435" xlink:href="#m9791627ca0" y="42.523176"/>
     <use style="fill:#4c72b0;" x="346.79449" xlink:href="#m9791627ca0" y="40.227899"/>
     <use style="fill:#4c72b0;" x="347.072603" xlink:href="#m9791627ca0" y="37.932621"/>
     <use style="fill:#4c72b0;" x="349.149625" xlink:href="#m9791627ca0" y="35.637343"/>
     <use style="fill:#4c72b0;" x="358.244524" xlink:href="#m9791627ca0" y="33.342066"/>
     <use style="fill:#4c72b0;" x="382.087969" xlink:href="#m9791627ca0" y="31.046788"/>
     <use style="fill:#4c72b0;" x="382.693952" xlink:href="#m9791627ca0" y="28.75151"/>
     <use style="fill:#4c72b0;" x="384.59675" xlink:href="#m9791627ca0" y="26.456233"/>
     <use style="fill:#4c72b0;" x="394.04386" xlink:href="#m9791627ca0" y="24.160955"/>
     <use style="fill:#4c72b0;" x="441.229499" xlink:href="#m9791627ca0" y="21.865677"/>
     <use style="fill:#4c72b0;" x="526.653074" xlink:href="#m9791627ca0" y="19.5704"/>
    </g>
   </g>
   <g id="line2d_28">
    <defs>
     <path d="M 0 1.75 
C 0.464105 1.75 0.909265 1.565609 1.237437 1.237437 
C 1.565609 0.909265 1.75 0.464105 1.75 0 
C 1.75 -0.464105 1.565609 -0.909265 1.237437 -1.237437 
C 0.909265 -1.565609 0.464105 -1.75 0 -1.75 
C -0.464105 -1.75 -0.909265 -1.565609 -1.237437 -1.237437 
C -1.565609 -0.909265 -1.75 -0.464105 -1.75 0 
C -1.75 0.464105 -1.565609 0.909265 -1.237437 1.237437 
C -0.909265 1.565609 -0.464105 1.75 0 1.75 
z
" id="m0e7e3316c3"/>
    </defs>
    <g clip-path="url(#p96691f3bbc)">
     <use style="fill:#55a868;" x="57.30677" xlink:href="#m0e7e3316c3" y="348.687712"/>
     <use style="fill:#55a868;" x="57.30677" xlink:href="#m0e7e3316c3" y="344.989765"/>
     <use style="fill:#55a868;" x="57.30677" xlink:href="#m0e7e3316c3" y="341.291817"/>
     <use style="fill:#55a868;" x="57.30677" xlink:href="#m0e7e3316c3" y="337.59387"/>
     <use style="fill:#55a868;" x="57.30677" xlink:href="#m0e7e3316c3" y="333.895923"/>
     <use style="fill:#55a868;" x="57.30677" xlink:href="#m0e7e3316c3" y="330.197975"/>
     <use style="fill:#55a868;" x="59.777466" xlink:href="#m0e7e3316c3" y="326.500028"/>
     <use style="fill:#55a868;" x="62.585707" xlink:href="#m0e7e3316c3" y="322.802081"/>
     <use style="fill:#55a868;" x="72.827998" xlink:href="#m0e7e3316c3" y="319.104133"/>
     <use style="fill:#55a868;" x="73.132142" xlink:href="#m0e7e3316c3" y="315.406186"/>
     <use style="fill:#55a868;" x="78.506906" xlink:href="#m0e7e3316c3" y="311.708239"/>
     <use style="fill:#55a868;" x="79.804642" xlink:href="#m0e7e3316c3" y="308.010291"/>
     <use style="fill:#55a868;" x="79.917515" xlink:href="#m0e7e3316c3" y="304.312344"/>
     <use style="fill:#55a868;" x="81.62981" xlink:href="#m0e7e3316c3" y="300.614397"/>
     <use style="fill:#55a868;" x="83.809493" xlink:href="#m0e7e3316c3" y="296.916449"/>
     <use style="fill:#55a868;" x="90.962742" xlink:href="#m0e7e3316c3" y="293.218502"/>
     <use style="fill:#55a868;" x="91.12898" xlink:href="#m0e7e3316c3" y="289.520555"/>
     <use style="fill:#55a868;" x="93.082072" xlink:href="#m0e7e3316c3" y="285.822607"/>
     <use style="fill:#55a868;" x="94.853491" xlink:href="#m0e7e3316c3" y="282.12466"/>
     <use style="fill:#55a868;" x="96.529007" xlink:href="#m0e7e3316c3" y="278.426713"/>
     <use style="fill:#55a868;" x="97.944069" xlink:href="#m0e7e3316c3" y="274.728765"/>
     <use style="fill:#55a868;" x="98.713988" xlink:href="#m0e7e3316c3" y="271.030818"/>
     <use style="fill:#55a868;" x="99.178765" xlink:href="#m0e7e3316c3" y="267.332871"/>
     <use style="fill:#55a868;" x="100.591447" xlink:href="#m0e7e3316c3" y="263.634923"/>
     <use style="fill:#55a868;" x="101.169788" xlink:href="#m0e7e3316c3" y="259.936976"/>
     <use style="fill:#55a868;" x="102.64551" xlink:href="#m0e7e3316c3" y="256.239029"/>
     <use style="fill:#55a868;" x="107.123201" xlink:href="#m0e7e3316c3" y="252.541081"/>
     <use style="fill:#55a868;" x="108.620193" xlink:href="#m0e7e3316c3" y="248.843134"/>
     <use style="fill:#55a868;" x="108.855537" xlink:href="#m0e7e3316c3" y="245.145187"/>
     <use style="fill:#55a868;" x="110.904149" xlink:href="#m0e7e3316c3" y="241.447239"/>
     <use style="fill:#55a868;" x="112.33549" xlink:href="#m0e7e3316c3" y="237.749292"/>
     <use style="fill:#55a868;" x="116.112061" xlink:href="#m0e7e3316c3" y="234.051345"/>
     <use style="fill:#55a868;" x="117.436441" xlink:href="#m0e7e3316c3" y="230.353397"/>
     <use style="fill:#55a868;" x="126.425147" xlink:href="#m0e7e3316c3" y="226.65545"/>
     <use style="fill:#55a868;" x="128.157867" xlink:href="#m0e7e3316c3" y="222.957503"/>
     <use style="fill:#55a868;" x="130.501485" xlink:href="#m0e7e3316c3" y="219.259555"/>
     <use style="fill:#55a868;" x="130.959504" xlink:href="#m0e7e3316c3" y="215.561608"/>
     <use style="fill:#55a868;" x="131.806975" xlink:href="#m0e7e3316c3" y="211.863661"/>
     <use style="fill:#55a868;" x="135.351504" xlink:href="#m0e7e3316c3" y="208.165713"/>
     <use style="fill:#55a868;" x="136.572531" xlink:href="#m0e7e3316c3" y="204.467766"/>
     <use style="fill:#55a868;" x="137.35297" xlink:href="#m0e7e3316c3" y="200.769819"/>
     <use style="fill:#55a868;" x="139.580105" xlink:href="#m0e7e3316c3" y="197.071871"/>
     <use style="fill:#55a868;" x="141.199568" xlink:href="#m0e7e3316c3" y="193.373924"/>
     <use style="fill:#55a868;" x="145.022824" xlink:href="#m0e7e3316c3" y="189.675977"/>
     <use style="fill:#55a868;" x="146.488181" xlink:href="#m0e7e3316c3" y="185.978029"/>
     <use style="fill:#55a868;" x="147.62774" xlink:href="#m0e7e3316c3" y="182.280082"/>
     <use style="fill:#55a868;" x="148.406182" xlink:href="#m0e7e3316c3" y="178.582135"/>
     <use style="fill:#55a868;" x="148.54854" xlink:href="#m0e7e3316c3" y="174.884187"/>
     <use style="fill:#55a868;" x="152.830738" xlink:href="#m0e7e3316c3" y="171.18624"/>
     <use style="fill:#55a868;" x="164.037289" xlink:href="#m0e7e3316c3" y="167.488293"/>
     <use style="fill:#55a868;" x="164.403935" xlink:href="#m0e7e3316c3" y="163.790345"/>
     <use style="fill:#55a868;" x="164.771502" xlink:href="#m0e7e3316c3" y="160.092398"/>
     <use style="fill:#55a868;" x="165.459953" xlink:href="#m0e7e3316c3" y="156.394451"/>
     <use style="fill:#55a868;" x="167.392773" xlink:href="#m0e7e3316c3" y="152.696503"/>
     <use style="fill:#55a868;" x="172.804087" xlink:href="#m0e7e3316c3" y="148.998556"/>
     <use style="fill:#55a868;" x="177.266651" xlink:href="#m0e7e3316c3" y="145.300609"/>
     <use style="fill:#55a868;" x="180.134017" xlink:href="#m0e7e3316c3" y="141.602662"/>
     <use style="fill:#55a868;" x="182.139783" xlink:href="#m0e7e3316c3" y="137.904714"/>
     <use style="fill:#55a868;" x="182.923983" xlink:href="#m0e7e3316c3" y="134.206767"/>
     <use style="fill:#55a868;" x="185.126394" xlink:href="#m0e7e3316c3" y="130.50882"/>
     <use style="fill:#55a868;" x="185.575738" xlink:href="#m0e7e3316c3" y="126.810872"/>
     <use style="fill:#55a868;" x="189.075961" xlink:href="#m0e7e3316c3" y="123.112925"/>
     <use style="fill:#55a868;" x="190.687515" xlink:href="#m0e7e3316c3" y="119.414978"/>
     <use style="fill:#55a868;" x="195.43495" xlink:href="#m0e7e3316c3" y="115.71703"/>
     <use style="fill:#55a868;" x="197.981817" xlink:href="#m0e7e3316c3" y="112.019083"/>
     <use style="fill:#55a868;" x="200.89387" xlink:href="#m0e7e3316c3" y="108.321136"/>
     <use style="fill:#55a868;" x="201.802155" xlink:href="#m0e7e3316c3" y="104.623188"/>
     <use style="fill:#55a868;" x="202.95876" xlink:href="#m0e7e3316c3" y="100.925241"/>
     <use style="fill:#55a868;" x="203.744574" xlink:href="#m0e7e3316c3" y="97.227294"/>
     <use style="fill:#55a868;" x="204.799363" xlink:href="#m0e7e3316c3" y="93.529346"/>
     <use style="fill:#55a868;" x="208.485635" xlink:href="#m0e7e3316c3" y="89.831399"/>
     <use style="fill:#55a868;" x="211.981712" xlink:href="#m0e7e3316c3" y="86.133452"/>
     <use style="fill:#55a868;" x="218.001544" xlink:href="#m0e7e3316c3" y="82.435504"/>
     <use style="fill:#55a868;" x="220.219389" xlink:href="#m0e7e3316c3" y="78.737557"/>
     <use style="fill:#55a868;" x="221.47067" xlink:href="#m0e7e3316c3" y="75.03961"/>
     <use style="fill:#55a868;" x="225.72891" xlink:href="#m0e7e3316c3" y="71.341662"/>
     <use style="fill:#55a868;" x="231.161878" xlink:href="#m0e7e3316c3" y="67.643715"/>
     <use style="fill:#55a868;" x="237.736631" xlink:href="#m0e7e3316c3" y="63.945768"/>
     <use style="fill:#55a868;" x="240.019973" xlink:href="#m0e7e3316c3" y="60.24782"/>
     <use style="fill:#55a868;" x="241.486788" xlink:href="#m0e7e3316c3" y="56.549873"/>
     <use style="fill:#55a868;" x="248.182094" xlink:href="#m0e7e3316c3" y="52.851926"/>
     <use style="fill:#55a868;" x="253.692844" xlink:href="#m0e7e3316c3" y="49.153978"/>
     <use style="fill:#55a868;" x="256.813675" xlink:href="#m0e7e3316c3" y="45.456031"/>
     <use style="fill:#55a868;" x="257.701304" xlink:href="#m0e7e3316c3" y="41.758084"/>
     <use style="fill:#55a868;" x="261.704006" xlink:href="#m0e7e3316c3" y="38.060136"/>
     <use style="fill:#55a868;" x="294.468202" xlink:href="#m0e7e3316c3" y="34.362189"/>
     <use style="fill:#55a868;" x="322.949202" xlink:href="#m0e7e3316c3" y="30.664242"/>
     <use style="fill:#55a868;" x="335.174454" xlink:href="#m0e7e3316c3" y="26.966294"/>
     <use style="fill:#55a868;" x="336.827779" xlink:href="#m0e7e3316c3" y="23.268347"/>
     <use style="fill:#55a868;" x="345.584826" xlink:href="#m0e7e3316c3" y="19.5704"/>
    </g>
   </g>
   <g id="patch_3">
    <path d="M 47.919844 356.700781 
L 47.919844 12.96 
" style="fill:none;"/>
   </g>
   <g id="patch_4">
    <path d="M 536.04 356.700781 
L 536.04 12.96 
" style="fill:none;"/>
   </g>
   <g id="patch_5">
    <path d="M 47.919844 356.700781 
L 536.04 356.700781 
" style="fill:none;"/>
   </g>
   <g id="patch_6">
    <path d="M 47.919844 12.96 
L 536.04 12.96 
" style="fill:none;"/>
   </g>
   <g id="legend_1">
    <g id="line2d_29"/>
    <g id="line2d_30">
     <g>
      <use style="fill:#4c72b0;" x="477.910312" xlink:href="#m9791627ca0" y="328.067969"/>
     </g>
    </g>
    <g id="text_16">
     <!-- control -->
     <defs>
      <path d="M 40.4375 19 
L 49.078125 17.875 
Q 47.65625 8.9375 41.8125 3.875 
Q 35.984375 -1.171875 27.484375 -1.171875 
Q 16.84375 -1.171875 10.375 5.78125 
Q 3.90625 12.75 3.90625 25.734375 
Q 3.90625 34.125 6.6875 40.421875 
Q 9.46875 46.734375 15.15625 49.875 
Q 20.84375 53.03125 27.546875 53.03125 
Q 35.984375 53.03125 41.359375 48.75 
Q 46.734375 44.484375 48.25 36.625 
L 39.703125 35.296875 
Q 38.484375 40.53125 35.375 43.15625 
Q 32.28125 45.796875 27.875 45.796875 
Q 21.234375 45.796875 17.078125 41.03125 
Q 12.9375 36.28125 12.9375 25.984375 
Q 12.9375 15.53125 16.9375 10.796875 
Q 20.953125 6.0625 27.390625 6.0625 
Q 32.5625 6.0625 36.03125 9.234375 
Q 39.5 12.40625 40.4375 19 
z
" id="ArialMT-99"/>
      <path d="M 25.78125 7.859375 
L 27.046875 0.09375 
Q 23.34375 -0.6875 20.40625 -0.6875 
Q 15.625 -0.6875 12.984375 0.828125 
Q 10.359375 2.34375 9.28125 4.8125 
Q 8.203125 7.28125 8.203125 15.1875 
L 8.203125 45.015625 
L 1.765625 45.015625 
L 1.765625 51.859375 
L 8.203125 51.859375 
L 8.203125 64.703125 
L 16.9375 69.96875 
L 16.9375 51.859375 
L 25.78125 51.859375 
L 25.78125 45.015625 
L 16.9375 45.015625 
L 16.9375 14.703125 
Q 16.9375 10.9375 17.40625 9.859375 
Q 17.875 8.796875 18.921875 8.15625 
Q 19.96875 7.515625 21.921875 7.515625 
Q 23.390625 7.515625 25.78125 7.859375 
z
" id="ArialMT-116"/>
     </defs>
     <g style="fill:#262626;" transform="translate(495.910312 331.567969)scale(0.1 -0.1)">
      <use xlink:href="#ArialMT-99"/>
      <use x="50" xlink:href="#ArialMT-111"/>
      <use x="105.615234" xlink:href="#ArialMT-110"/>
      <use x="161.230469" xlink:href="#ArialMT-116"/>
      <use x="189.013672" xlink:href="#ArialMT-114"/>
      <use x="222.314453" xlink:href="#ArialMT-111"/>
      <use x="277.929688" xlink:href="#ArialMT-108"/>
     </g>
    </g>
    <g id="line2d_31"/>
    <g id="line2d_32">
     <g>
      <use style="fill:#55a868;" x="477.910312" xlink:href="#m0e7e3316c3" y="342.213281"/>
     </g>
    </g>
    <g id="text_17">
     <!-- treated -->
     <defs>
      <path d="M 40.234375 0 
L 40.234375 6.546875 
Q 35.296875 -1.171875 25.734375 -1.171875 
Q 19.53125 -1.171875 14.328125 2.25 
Q 9.125 5.671875 6.265625 11.796875 
Q 3.421875 17.921875 3.421875 25.875 
Q 3.421875 33.640625 6 39.96875 
Q 8.59375 46.296875 13.765625 49.65625 
Q 18.953125 53.03125 25.34375 53.03125 
Q 30.03125 53.03125 33.6875 51.046875 
Q 37.359375 49.078125 39.65625 45.90625 
L 39.65625 71.578125 
L 48.390625 71.578125 
L 48.390625 0 
z
M 12.453125 25.875 
Q 12.453125 15.921875 16.640625 10.984375 
Q 20.84375 6.0625 26.5625 6.0625 
Q 32.328125 6.0625 36.34375 10.765625 
Q 40.375 15.484375 40.375 25.140625 
Q 40.375 35.796875 36.265625 40.765625 
Q 32.171875 45.75 26.171875 45.75 
Q 20.3125 45.75 16.375 40.96875 
Q 12.453125 36.1875 12.453125 25.875 
z
" id="ArialMT-100"/>
     </defs>
     <g style="fill:#262626;" transform="translate(495.910312 345.713281)scale(0.1 -0.1)">
      <use xlink:href="#ArialMT-116"/>
      <use x="27.783203" xlink:href="#ArialMT-114"/>
      <use x="61.083984" xlink:href="#ArialMT-101"/>
      <use x="116.699219" xlink:href="#ArialMT-97"/>
      <use x="172.314453" xlink:href="#ArialMT-116"/>
      <use x="200.097656" xlink:href="#ArialMT-101"/>
      <use x="255.712891" xlink:href="#ArialMT-100"/>
     </g>
    </g>
   </g>
  </g>
 </g>
 <defs>
  <clipPath id="p96691f3bbc">
   <rect height="343.740781" width="488.120156" x="47.919844" y="12.96"/>
  </clipPath>
 </defs>
</svg>
