<?xml version="1.0" encoding="utf-8" standalone="no"?>
<!DOCTYPE svg PUBLIC "-//W3C//DTD SVG 1.1//EN"
  "http://www.w3.org/Graphics/SVG/1.1/DTD/svg11.dtd">
<!-- Created with matplotlib (https://matplotlib.org/) -->
<svg height="400pt" version="1.1" viewBox="0 0 549 400" width="549pt" xmlns="http://www.w3.org/2000/svg" xmlns:xlink="http://www.w3.org/1999/xlink">
 <defs>
  <style type="text/css">
*{stroke-linecap:butt;stroke-linejoin:round;}
  </style>
 </defs>
 <g id="figure_1">
  <g id="patch_1">
   <path d="M 0 400 
L 549 400 
L 549 0 
L 0 0 
z
" style="fill:#ffffff;"/>
  </g>
  <g id="axes_1">
   <g id="patch_2">
    <path d="M 39.84375 356.705938 
L 536.04 356.705938 
L 536.04 12.96 
L 39.84375 12.96 
z
" style="fill:#eaeaf2;"/>
   </g>
   <g id="matplotlib.axis_1">
    <g id="xtick_1">
     <g id="line2d_1">
      <path clip-path="url(#p84b607d8ef)" d="M 49.385986 356.705938 
L 49.385986 12.96 
" style="fill:none;stroke:#ffffff;stroke-linecap:round;"/>
     </g>
     <g id="line2d_2"/>
     <g id="text_1">
      <!-- 0 -->
      <defs>
       <path d="M 4.15625 35.296875 
Q 4.15625 48 6.765625 55.734375 
Q 9.375 63.484375 14.515625 67.671875 
Q 19.671875 71.875 27.484375 71.875 
Q 33.25 71.875 37.59375 69.546875 
Q 41.9375 67.234375 44.765625 62.859375 
Q 47.609375 58.5 49.21875 52.21875 
Q 50.828125 45.953125 50.828125 35.296875 
Q 50.828125 22.703125 48.234375 14.96875 
Q 45.65625 7.234375 40.5 3 
Q 35.359375 -1.21875 27.484375 -1.21875 
Q 17.140625 -1.21875 11.234375 6.203125 
Q 4.15625 15.140625 4.15625 35.296875 
z
M 13.1875 35.296875 
Q 13.1875 17.671875 17.3125 11.828125 
Q 21.4375 6 27.484375 6 
Q 33.546875 6 37.671875 11.859375 
Q 41.796875 17.71875 41.796875 35.296875 
Q 41.796875 52.984375 37.671875 58.78125 
Q 33.546875 64.59375 27.390625 64.59375 
Q 21.34375 64.59375 17.71875 59.46875 
Q 13.1875 52.9375 13.1875 35.296875 
z
" id="ArialMT-48"/>
      </defs>
      <g style="fill:#262626;" transform="translate(46.605517 370.86375)scale(0.1 -0.1)">
       <use xlink:href="#ArialMT-48"/>
      </g>
     </g>
    </g>
    <g id="xtick_2">
     <g id="line2d_3">
      <path clip-path="url(#p84b607d8ef)" d="M 158.564882 356.705938 
L 158.564882 12.96 
" style="fill:none;stroke:#ffffff;stroke-linecap:round;"/>
     </g>
     <g id="line2d_4"/>
     <g id="text_2">
      <!-- 20 -->
      <defs>
       <path d="M 50.34375 8.453125 
L 50.34375 0 
L 3.03125 0 
Q 2.9375 3.171875 4.046875 6.109375 
Q 5.859375 10.9375 9.828125 15.625 
Q 13.8125 20.3125 21.34375 26.46875 
Q 33.015625 36.03125 37.109375 41.625 
Q 41.21875 47.21875 41.21875 52.203125 
Q 41.21875 57.421875 37.46875 61 
Q 33.734375 64.59375 27.734375 64.59375 
Q 21.390625 64.59375 17.578125 60.78125 
Q 13.765625 56.984375 13.71875 50.25 
L 4.6875 51.171875 
Q 5.609375 61.28125 11.65625 66.578125 
Q 17.71875 71.875 27.9375 71.875 
Q 38.234375 71.875 44.234375 66.15625 
Q 50.25 60.453125 50.25 52 
Q 50.25 47.703125 48.484375 43.546875 
Q 46.734375 39.40625 42.65625 34.8125 
Q 38.578125 30.21875 29.109375 22.21875 
Q 21.1875 15.578125 18.9375 13.203125 
Q 16.703125 10.84375 15.234375 8.453125 
z
" id="ArialMT-50"/>
      </defs>
      <g style="fill:#262626;" transform="translate(153.003945 370.86375)scale(0.1 -0.1)">
       <use xlink:href="#ArialMT-50"/>
       <use x="55.615234" xlink:href="#ArialMT-48"/>
      </g>
     </g>
    </g>
    <g id="xtick_3">
     <g id="line2d_5">
      <path clip-path="url(#p84b607d8ef)" d="M 267.743779 356.705938 
L 267.743779 12.96 
" style="fill:none;stroke:#ffffff;stroke-linecap:round;"/>
     </g>
     <g id="line2d_6"/>
     <g id="text_3">
      <!-- 40 -->
      <defs>
       <path d="M 32.328125 0 
L 32.328125 17.140625 
L 1.265625 17.140625 
L 1.265625 25.203125 
L 33.9375 71.578125 
L 41.109375 71.578125 
L 41.109375 25.203125 
L 50.78125 25.203125 
L 50.78125 17.140625 
L 41.109375 17.140625 
L 41.109375 0 
z
M 32.328125 25.203125 
L 32.328125 57.46875 
L 9.90625 25.203125 
z
" id="ArialMT-52"/>
      </defs>
      <g style="fill:#262626;" transform="translate(262.182842 370.86375)scale(0.1 -0.1)">
       <use xlink:href="#ArialMT-52"/>
       <use x="55.615234" xlink:href="#ArialMT-48"/>
      </g>
     </g>
    </g>
    <g id="xtick_4">
     <g id="line2d_7">
      <path clip-path="url(#p84b607d8ef)" d="M 376.922676 356.705938 
L 376.922676 12.96 
" style="fill:none;stroke:#ffffff;stroke-linecap:round;"/>
     </g>
     <g id="line2d_8"/>
     <g id="text_4">
      <!-- 60 -->
      <defs>
       <path d="M 49.75 54.046875 
L 41.015625 53.375 
Q 39.84375 58.546875 37.703125 60.890625 
Q 34.125 64.65625 28.90625 64.65625 
Q 24.703125 64.65625 21.53125 62.3125 
Q 17.390625 59.28125 14.984375 53.46875 
Q 12.59375 47.65625 12.5 36.921875 
Q 15.671875 41.75 20.265625 44.09375 
Q 24.859375 46.4375 29.890625 46.4375 
Q 38.671875 46.4375 44.84375 39.96875 
Q 51.03125 33.5 51.03125 23.25 
Q 51.03125 16.5 48.125 10.71875 
Q 45.21875 4.9375 40.140625 1.859375 
Q 35.0625 -1.21875 28.609375 -1.21875 
Q 17.625 -1.21875 10.6875 6.859375 
Q 3.765625 14.9375 3.765625 33.5 
Q 3.765625 54.25 11.421875 63.671875 
Q 18.109375 71.875 29.4375 71.875 
Q 37.890625 71.875 43.28125 67.140625 
Q 48.6875 62.40625 49.75 54.046875 
z
M 13.875 23.1875 
Q 13.875 18.65625 15.796875 14.5 
Q 17.71875 10.359375 21.1875 8.171875 
Q 24.65625 6 28.46875 6 
Q 34.03125 6 38.03125 10.484375 
Q 42.046875 14.984375 42.046875 22.703125 
Q 42.046875 30.125 38.078125 34.390625 
Q 34.125 38.671875 28.125 38.671875 
Q 22.171875 38.671875 18.015625 34.390625 
Q 13.875 30.125 13.875 23.1875 
z
" id="ArialMT-54"/>
      </defs>
      <g style="fill:#262626;" transform="translate(371.361738 370.86375)scale(0.1 -0.1)">
       <use xlink:href="#ArialMT-54"/>
       <use x="55.615234" xlink:href="#ArialMT-48"/>
      </g>
     </g>
    </g>
    <g id="xtick_5">
     <g id="line2d_9">
      <path clip-path="url(#p84b607d8ef)" d="M 486.101573 356.705938 
L 486.101573 12.96 
" style="fill:none;stroke:#ffffff;stroke-linecap:round;"/>
     </g>
     <g id="line2d_10"/>
     <g id="text_5">
      <!-- 80 -->
      <defs>
       <path d="M 17.671875 38.8125 
Q 12.203125 40.828125 9.5625 44.53125 
Q 6.9375 48.25 6.9375 53.421875 
Q 6.9375 61.234375 12.546875 66.546875 
Q 18.171875 71.875 27.484375 71.875 
Q 36.859375 71.875 42.578125 66.421875 
Q 48.296875 60.984375 48.296875 53.171875 
Q 48.296875 48.1875 45.671875 44.5 
Q 43.0625 40.828125 37.75 38.8125 
Q 44.34375 36.671875 47.78125 31.875 
Q 51.21875 27.09375 51.21875 20.453125 
Q 51.21875 11.28125 44.71875 5.03125 
Q 38.234375 -1.21875 27.640625 -1.21875 
Q 17.046875 -1.21875 10.546875 5.046875 
Q 4.046875 11.328125 4.046875 20.703125 
Q 4.046875 27.6875 7.59375 32.390625 
Q 11.140625 37.109375 17.671875 38.8125 
z
M 15.921875 53.71875 
Q 15.921875 48.640625 19.1875 45.40625 
Q 22.46875 42.1875 27.6875 42.1875 
Q 32.765625 42.1875 36.015625 45.375 
Q 39.265625 48.578125 39.265625 53.21875 
Q 39.265625 58.0625 35.90625 61.359375 
Q 32.5625 64.65625 27.59375 64.65625 
Q 22.5625 64.65625 19.234375 61.421875 
Q 15.921875 58.203125 15.921875 53.71875 
z
M 13.09375 20.65625 
Q 13.09375 16.890625 14.875 13.375 
Q 16.65625 9.859375 20.171875 7.921875 
Q 23.6875 6 27.734375 6 
Q 34.03125 6 38.125 10.046875 
Q 42.234375 14.109375 42.234375 20.359375 
Q 42.234375 26.703125 38.015625 30.859375 
Q 33.796875 35.015625 27.4375 35.015625 
Q 21.234375 35.015625 17.15625 30.90625 
Q 13.09375 26.8125 13.09375 20.65625 
z
" id="ArialMT-56"/>
      </defs>
      <g style="fill:#262626;" transform="translate(480.540635 370.86375)scale(0.1 -0.1)">
       <use xlink:href="#ArialMT-56"/>
       <use x="55.615234" xlink:href="#ArialMT-48"/>
      </g>
     </g>
    </g>
    <g id="text_6">
     <!-- illiteracy -->
     <defs>
      <path d="M 6.640625 61.46875 
L 6.640625 71.578125 
L 15.4375 71.578125 
L 15.4375 61.46875 
z
M 6.640625 0 
L 6.640625 51.859375 
L 15.4375 51.859375 
L 15.4375 0 
z
" id="ArialMT-105"/>
      <path d="M 6.390625 0 
L 6.390625 71.578125 
L 15.1875 71.578125 
L 15.1875 0 
z
" id="ArialMT-108"/>
      <path d="M 25.78125 7.859375 
L 27.046875 0.09375 
Q 23.34375 -0.6875 20.40625 -0.6875 
Q 15.625 -0.6875 12.984375 0.828125 
Q 10.359375 2.34375 9.28125 4.8125 
Q 8.203125 7.28125 8.203125 15.1875 
L 8.203125 45.015625 
L 1.765625 45.015625 
L 1.765625 51.859375 
L 8.203125 51.859375 
L 8.203125 64.703125 
L 16.9375 69.96875 
L 16.9375 51.859375 
L 25.78125 51.859375 
L 25.78125 45.015625 
L 16.9375 45.015625 
L 16.9375 14.703125 
Q 16.9375 10.9375 17.40625 9.859375 
Q 17.875 8.796875 18.921875 8.15625 
Q 19.96875 7.515625 21.921875 7.515625 
Q 23.390625 7.515625 25.78125 7.859375 
z
" id="ArialMT-116"/>
      <path d="M 42.09375 16.703125 
L 51.171875 15.578125 
Q 49.03125 7.625 43.21875 3.21875 
Q 37.40625 -1.171875 28.375 -1.171875 
Q 17 -1.171875 10.328125 5.828125 
Q 3.65625 12.84375 3.65625 25.484375 
Q 3.65625 38.578125 10.390625 45.796875 
Q 17.140625 53.03125 27.875 53.03125 
Q 38.28125 53.03125 44.875 45.953125 
Q 51.46875 38.875 51.46875 26.03125 
Q 51.46875 25.25 51.421875 23.6875 
L 12.75 23.6875 
Q 13.234375 15.140625 17.578125 10.59375 
Q 21.921875 6.0625 28.421875 6.0625 
Q 33.25 6.0625 36.671875 8.59375 
Q 40.09375 11.140625 42.09375 16.703125 
z
M 13.234375 30.90625 
L 42.1875 30.90625 
Q 41.609375 37.453125 38.875 40.71875 
Q 34.671875 45.796875 27.984375 45.796875 
Q 21.921875 45.796875 17.796875 41.75 
Q 13.671875 37.703125 13.234375 30.90625 
z
" id="ArialMT-101"/>
      <path d="M 6.5 0 
L 6.5 51.859375 
L 14.40625 51.859375 
L 14.40625 44 
Q 17.4375 49.515625 20 51.265625 
Q 22.5625 53.03125 25.640625 53.03125 
Q 30.078125 53.03125 34.671875 50.203125 
L 31.640625 42.046875 
Q 28.421875 43.953125 25.203125 43.953125 
Q 22.3125 43.953125 20.015625 42.21875 
Q 17.71875 40.484375 16.75 37.40625 
Q 15.28125 32.71875 15.28125 27.15625 
L 15.28125 0 
z
" id="ArialMT-114"/>
      <path d="M 40.4375 6.390625 
Q 35.546875 2.25 31.03125 0.53125 
Q 26.515625 -1.171875 21.34375 -1.171875 
Q 12.796875 -1.171875 8.203125 3 
Q 3.609375 7.171875 3.609375 13.671875 
Q 3.609375 17.484375 5.34375 20.625 
Q 7.078125 23.78125 9.890625 25.6875 
Q 12.703125 27.59375 16.21875 28.5625 
Q 18.796875 29.25 24.03125 29.890625 
Q 34.671875 31.15625 39.703125 32.90625 
Q 39.75 34.71875 39.75 35.203125 
Q 39.75 40.578125 37.25 42.78125 
Q 33.890625 45.75 27.25 45.75 
Q 21.046875 45.75 18.09375 43.578125 
Q 15.140625 41.40625 13.71875 35.890625 
L 5.125 37.0625 
Q 6.296875 42.578125 8.984375 45.96875 
Q 11.671875 49.359375 16.75 51.1875 
Q 21.828125 53.03125 28.515625 53.03125 
Q 35.15625 53.03125 39.296875 51.46875 
Q 43.453125 49.90625 45.40625 47.53125 
Q 47.359375 45.171875 48.140625 41.546875 
Q 48.578125 39.3125 48.578125 33.453125 
L 48.578125 21.734375 
Q 48.578125 9.46875 49.140625 6.21875 
Q 49.703125 2.984375 51.375 0 
L 42.1875 0 
Q 40.828125 2.734375 40.4375 6.390625 
z
M 39.703125 26.03125 
Q 34.90625 24.078125 25.34375 22.703125 
Q 19.921875 21.921875 17.671875 20.9375 
Q 15.4375 19.96875 14.203125 18.09375 
Q 12.984375 16.21875 12.984375 13.921875 
Q 12.984375 10.40625 15.640625 8.0625 
Q 18.3125 5.71875 23.4375 5.71875 
Q 28.515625 5.71875 32.46875 7.9375 
Q 36.421875 10.15625 38.28125 14.015625 
Q 39.703125 17 39.703125 22.796875 
z
" id="ArialMT-97"/>
      <path d="M 40.4375 19 
L 49.078125 17.875 
Q 47.65625 8.9375 41.8125 3.875 
Q 35.984375 -1.171875 27.484375 -1.171875 
Q 16.84375 -1.171875 10.375 5.78125 
Q 3.90625 12.75 3.90625 25.734375 
Q 3.90625 34.125 6.6875 40.421875 
Q 9.46875 46.734375 15.15625 49.875 
Q 20.84375 53.03125 27.546875 53.03125 
Q 35.984375 53.03125 41.359375 48.75 
Q 46.734375 44.484375 48.25 36.625 
L 39.703125 35.296875 
Q 38.484375 40.53125 35.375 43.15625 
Q 32.28125 45.796875 27.875 45.796875 
Q 21.234375 45.796875 17.078125 41.03125 
Q 12.9375 36.28125 12.9375 25.984375 
Q 12.9375 15.53125 16.9375 10.796875 
Q 20.953125 6.0625 27.390625 6.0625 
Q 32.5625 6.0625 36.03125 9.234375 
Q 39.5 12.40625 40.4375 19 
z
" id="ArialMT-99"/>
      <path d="M 6.203125 -19.96875 
L 5.21875 -11.71875 
Q 8.109375 -12.5 10.25 -12.5 
Q 13.1875 -12.5 14.9375 -11.515625 
Q 16.703125 -10.546875 17.828125 -8.796875 
Q 18.65625 -7.46875 20.515625 -2.25 
Q 20.75 -1.515625 21.296875 -0.09375 
L 1.609375 51.859375 
L 11.078125 51.859375 
L 21.875 21.828125 
Q 23.96875 16.109375 25.640625 9.8125 
Q 27.15625 15.875 29.25 21.625 
L 40.328125 51.859375 
L 49.125 51.859375 
L 29.390625 -0.875 
Q 26.21875 -9.421875 24.46875 -12.640625 
Q 22.125 -17 19.09375 -19.015625 
Q 16.0625 -21.046875 11.859375 -21.046875 
Q 9.328125 -21.046875 6.203125 -19.96875 
z
" id="ArialMT-121"/>
     </defs>
     <g style="fill:#262626;" transform="translate(268.077422 384.724844)scale(0.11 -0.11)">
      <use xlink:href="#ArialMT-105"/>
      <use x="22.216797" xlink:href="#ArialMT-108"/>
      <use x="44.433594" xlink:href="#ArialMT-108"/>
      <use x="66.650391" xlink:href="#ArialMT-105"/>
      <use x="88.867188" xlink:href="#ArialMT-116"/>
      <use x="116.650391" xlink:href="#ArialMT-101"/>
      <use x="172.265625" xlink:href="#ArialMT-114"/>
      <use x="205.566406" xlink:href="#ArialMT-97"/>
      <use x="261.181641" xlink:href="#ArialMT-99"/>
      <use x="311.181641" xlink:href="#ArialMT-121"/>
     </g>
    </g>
   </g>
   <g id="matplotlib.axis_2">
    <g id="ytick_1">
     <g id="line2d_11">
      <path clip-path="url(#p84b607d8ef)" d="M 39.84375 348.254074 
L 536.04 348.254074 
" style="fill:none;stroke:#ffffff;stroke-linecap:round;"/>
     </g>
     <g id="line2d_12"/>
     <g id="text_7">
      <!-- 1 -->
      <defs>
       <path d="M 37.25 0 
L 28.46875 0 
L 28.46875 56 
Q 25.296875 52.984375 20.140625 49.953125 
Q 14.984375 46.921875 10.890625 45.40625 
L 10.890625 53.90625 
Q 18.265625 57.375 23.78125 62.296875 
Q 29.296875 67.234375 31.59375 71.875 
L 37.25 71.875 
z
" id="ArialMT-49"/>
      </defs>
      <g style="fill:#262626;" transform="translate(27.282812 351.83298)scale(0.1 -0.1)">
       <use xlink:href="#ArialMT-49"/>
      </g>
     </g>
    </g>
    <g id="ytick_2">
     <g id="line2d_13">
      <path clip-path="url(#p84b607d8ef)" d="M 39.84375 294.096293 
L 536.04 294.096293 
" style="fill:none;stroke:#ffffff;stroke-linecap:round;"/>
     </g>
     <g id="line2d_14"/>
     <g id="text_8">
      <!-- 2 -->
      <g style="fill:#262626;" transform="translate(27.282812 297.675199)scale(0.1 -0.1)">
       <use xlink:href="#ArialMT-50"/>
      </g>
     </g>
    </g>
    <g id="ytick_3">
     <g id="line2d_15">
      <path clip-path="url(#p84b607d8ef)" d="M 39.84375 239.938511 
L 536.04 239.938511 
" style="fill:none;stroke:#ffffff;stroke-linecap:round;"/>
     </g>
     <g id="line2d_16"/>
     <g id="text_9">
      <!-- 3 -->
      <defs>
       <path d="M 4.203125 18.890625 
L 12.984375 20.0625 
Q 14.5 12.59375 18.140625 9.296875 
Q 21.78125 6 27 6 
Q 33.203125 6 37.46875 10.296875 
Q 41.75 14.59375 41.75 20.953125 
Q 41.75 27 37.796875 30.921875 
Q 33.84375 34.859375 27.734375 34.859375 
Q 25.25 34.859375 21.53125 33.890625 
L 22.515625 41.609375 
Q 23.390625 41.5 23.921875 41.5 
Q 29.546875 41.5 34.03125 44.421875 
Q 38.53125 47.359375 38.53125 53.46875 
Q 38.53125 58.296875 35.25 61.46875 
Q 31.984375 64.65625 26.8125 64.65625 
Q 21.6875 64.65625 18.265625 61.421875 
Q 14.84375 58.203125 13.875 51.765625 
L 5.078125 53.328125 
Q 6.6875 62.15625 12.390625 67.015625 
Q 18.109375 71.875 26.609375 71.875 
Q 32.46875 71.875 37.390625 69.359375 
Q 42.328125 66.84375 44.9375 62.5 
Q 47.5625 58.15625 47.5625 53.265625 
Q 47.5625 48.640625 45.0625 44.828125 
Q 42.578125 41.015625 37.703125 38.765625 
Q 44.046875 37.3125 47.5625 32.6875 
Q 51.078125 28.078125 51.078125 21.140625 
Q 51.078125 11.765625 44.234375 5.25 
Q 37.40625 -1.265625 26.953125 -1.265625 
Q 17.53125 -1.265625 11.296875 4.34375 
Q 5.078125 9.96875 4.203125 18.890625 
z
" id="ArialMT-51"/>
      </defs>
      <g style="fill:#262626;" transform="translate(27.282812 243.517418)scale(0.1 -0.1)">
       <use xlink:href="#ArialMT-51"/>
      </g>
     </g>
    </g>
    <g id="ytick_4">
     <g id="line2d_17">
      <path clip-path="url(#p84b607d8ef)" d="M 39.84375 185.78073 
L 536.04 185.78073 
" style="fill:none;stroke:#ffffff;stroke-linecap:round;"/>
     </g>
     <g id="line2d_18"/>
     <g id="text_10">
      <!-- 4 -->
      <g style="fill:#262626;" transform="translate(27.282812 189.359636)scale(0.1 -0.1)">
       <use xlink:href="#ArialMT-52"/>
      </g>
     </g>
    </g>
    <g id="ytick_5">
     <g id="line2d_19">
      <path clip-path="url(#p84b607d8ef)" d="M 39.84375 131.622949 
L 536.04 131.622949 
" style="fill:none;stroke:#ffffff;stroke-linecap:round;"/>
     </g>
     <g id="line2d_20"/>
     <g id="text_11">
      <!-- 5 -->
      <defs>
       <path d="M 4.15625 18.75 
L 13.375 19.53125 
Q 14.40625 12.796875 18.140625 9.390625 
Q 21.875 6 27.15625 6 
Q 33.5 6 37.890625 10.78125 
Q 42.28125 15.578125 42.28125 23.484375 
Q 42.28125 31 38.0625 35.34375 
Q 33.84375 39.703125 27 39.703125 
Q 22.75 39.703125 19.328125 37.765625 
Q 15.921875 35.84375 13.96875 32.765625 
L 5.71875 33.84375 
L 12.640625 70.609375 
L 48.25 70.609375 
L 48.25 62.203125 
L 19.671875 62.203125 
L 15.828125 42.96875 
Q 22.265625 47.46875 29.34375 47.46875 
Q 38.71875 47.46875 45.15625 40.96875 
Q 51.609375 34.46875 51.609375 24.265625 
Q 51.609375 14.546875 45.953125 7.46875 
Q 39.0625 -1.21875 27.15625 -1.21875 
Q 17.390625 -1.21875 11.203125 4.25 
Q 5.03125 9.71875 4.15625 18.75 
z
" id="ArialMT-53"/>
      </defs>
      <g style="fill:#262626;" transform="translate(27.282812 135.201855)scale(0.1 -0.1)">
       <use xlink:href="#ArialMT-53"/>
      </g>
     </g>
    </g>
    <g id="ytick_6">
     <g id="line2d_21">
      <path clip-path="url(#p84b607d8ef)" d="M 39.84375 77.465167 
L 536.04 77.465167 
" style="fill:none;stroke:#ffffff;stroke-linecap:round;"/>
     </g>
     <g id="line2d_22"/>
     <g id="text_12">
      <!-- 6 -->
      <g style="fill:#262626;" transform="translate(27.282812 81.044073)scale(0.1 -0.1)">
       <use xlink:href="#ArialMT-54"/>
      </g>
     </g>
    </g>
    <g id="ytick_7">
     <g id="line2d_23">
      <path clip-path="url(#p84b607d8ef)" d="M 39.84375 23.307386 
L 536.04 23.307386 
" style="fill:none;stroke:#ffffff;stroke-linecap:round;"/>
     </g>
     <g id="line2d_24"/>
     <g id="text_13">
      <!-- 7 -->
      <defs>
       <path d="M 4.734375 62.203125 
L 4.734375 70.65625 
L 51.078125 70.65625 
L 51.078125 63.8125 
Q 44.234375 56.546875 37.515625 44.484375 
Q 30.8125 32.421875 27.15625 19.671875 
Q 24.515625 10.6875 23.78125 0 
L 14.75 0 
Q 14.890625 8.453125 18.0625 20.40625 
Q 21.234375 32.375 27.171875 43.484375 
Q 33.109375 54.59375 39.796875 62.203125 
z
" id="ArialMT-55"/>
      </defs>
      <g style="fill:#262626;" transform="translate(27.282812 26.886292)scale(0.1 -0.1)">
       <use xlink:href="#ArialMT-55"/>
      </g>
     </g>
    </g>
    <g id="text_14">
     <!-- fertility -->
     <defs>
      <path d="M 8.6875 0 
L 8.6875 45.015625 
L 0.921875 45.015625 
L 0.921875 51.859375 
L 8.6875 51.859375 
L 8.6875 57.375 
Q 8.6875 62.59375 9.625 65.140625 
Q 10.890625 68.5625 14.078125 70.671875 
Q 17.28125 72.796875 23.046875 72.796875 
Q 26.765625 72.796875 31.25 71.921875 
L 29.9375 64.265625 
Q 27.203125 64.75 24.75 64.75 
Q 20.75 64.75 19.09375 63.03125 
Q 17.4375 61.328125 17.4375 56.640625 
L 17.4375 51.859375 
L 27.546875 51.859375 
L 27.546875 45.015625 
L 17.4375 45.015625 
L 17.4375 0 
z
" id="ArialMT-102"/>
     </defs>
     <g style="fill:#262626;" transform="translate(20.967656 200.722812)rotate(-90)scale(0.11 -0.11)">
      <use xlink:href="#ArialMT-102"/>
      <use x="27.783203" xlink:href="#ArialMT-101"/>
      <use x="83.398438" xlink:href="#ArialMT-114"/>
      <use x="116.699219" xlink:href="#ArialMT-116"/>
      <use x="144.482422" xlink:href="#ArialMT-105"/>
      <use x="166.699219" xlink:href="#ArialMT-108"/>
      <use x="188.916016" xlink:href="#ArialMT-105"/>
      <use x="211.132812" xlink:href="#ArialMT-116"/>
      <use x="238.916016" xlink:href="#ArialMT-121"/>
     </g>
    </g>
   </g>
   <g id="line2d_25">
    <defs>
     <path d="M 0 1.75 
C 0.464105 1.75 0.909265 1.565609 1.237437 1.237437 
C 1.565609 0.909265 1.75 0.464105 1.75 0 
C 1.75 -0.464105 1.565609 -0.909265 1.237437 -1.237437 
C 0.909265 -1.565609 0.464105 -1.75 0 -1.75 
C -0.464105 -1.75 -0.909265 -1.565609 -1.237437 -1.237437 
C -1.565609 -0.909265 -1.75 -0.464105 -1.75 0 
C -1.75 0.464105 -1.565609 0.909265 -1.237437 1.237437 
C -0.909265 1.565609 -0.464105 1.75 0 1.75 
z
" id="md469444916"/>
    </defs>
    <g clip-path="url(#p84b607d8ef)">
     <use style="fill:#4c72b0;" x="101.245962" xlink:href="#md469444916" y="306.60674"/>
     <use style="fill:#4c72b0;" x="317.966072" xlink:href="#md469444916" y="257.160686"/>
     <use style="fill:#4c72b0;" x="54.84493" xlink:href="#md469444916" y="289.926144"/>
     <use style="fill:#4c72b0;" x="110.526168" xlink:href="#md469444916" y="286.947466"/>
     <use style="fill:#4c72b0;" x="102.883645" xlink:href="#md469444916" y="303.465589"/>
     <use style="fill:#4c72b0;" x="376.922676" xlink:href="#md469444916" y="192.712926"/>
     <use style="fill:#4c72b0;" x="323.425016" xlink:href="#md469444916" y="278.498852"/>
     <use style="fill:#4c72b0;" x="328.883961" xlink:href="#md469444916" y="122.253652"/>
     <use style="fill:#4c72b0;" x="52.661352" xlink:href="#md469444916" y="326.970066"/>
     <use style="fill:#4c72b0;" x="54.84493" xlink:href="#md469444916" y="334.064735"/>
     <use style="fill:#4c72b0;" x="95.787017" xlink:href="#md469444916" y="285.647679"/>
     <use style="fill:#4c72b0;" x="82.685549" xlink:href="#md469444916" y="238.530409"/>
     <use style="fill:#4c72b0;" x="102.883645" xlink:href="#md469444916" y="292.309086"/>
     <use style="fill:#4c72b0;" x="54.84493" xlink:href="#md469444916" y="330.706953"/>
     <use style="fill:#4c72b0;" x="279.753458" xlink:href="#md469444916" y="249.903543"/>
     <use style="fill:#4c72b0;" x="470.816527" xlink:href="#md469444916" y="120.195657"/>
     <use style="fill:#4c72b0;" x="151.468254" xlink:href="#md469444916" y="288.680515"/>
     <use style="fill:#4c72b0;" x="173.849928" xlink:href="#md469444916" y="305.956847"/>
     <use style="fill:#4c72b0;" x="95.787017" xlink:href="#md469444916" y="303.736378"/>
     <use style="fill:#4c72b0;" x="289.033664" xlink:href="#md469444916" y="82.447683"/>
     <use style="fill:#4c72b0;" x="54.84493" xlink:href="#md469444916" y="300.541069"/>
     <use style="fill:#4c72b0;" x="54.84493" xlink:href="#md469444916" y="302.111644"/>
     <use style="fill:#4c72b0;" x="57.574403" xlink:href="#md469444916" y="327.132539"/>
     <use style="fill:#4c72b0;" x="108.34259" xlink:href="#md469444916" y="278.877956"/>
     <use style="fill:#4c72b0;" x="114.347429" xlink:href="#md469444916" y="266.746613"/>
     <use style="fill:#4c72b0;" x="67.946398" xlink:href="#md469444916" y="336.122731"/>
     <use style="fill:#4c72b0;" x="51.569564" xlink:href="#md469444916" y="328.703115"/>
     <use style="fill:#4c72b0;" x="66.308715" xlink:href="#md469444916" y="322.908232"/>
     <use style="fill:#4c72b0;" x="85.415022" xlink:href="#md469444916" y="272.216549"/>
     <use style="fill:#4c72b0;" x="233.352427" xlink:href="#md469444916" y="103.460902"/>
     <use style="fill:#4c72b0;" x="269.927357" xlink:href="#md469444916" y="182.639579"/>
     <use style="fill:#4c72b0;" x="61.941559" xlink:href="#md469444916" y="282.019107"/>
     <use style="fill:#4c72b0;" x="143.279837" xlink:href="#md469444916" y="139.259196"/>
     <use style="fill:#4c72b0;" x="53.207247" xlink:href="#md469444916" y="333.793946"/>
     <use style="fill:#4c72b0;" x="246.453894" xlink:href="#md469444916" y="275.574331"/>
     <use style="fill:#4c72b0;" x="54.84493" xlink:href="#md469444916" y="316.896719"/>
     <use style="fill:#4c72b0;" x="230.622954" xlink:href="#md469444916" y="63.709091"/>
     <use style="fill:#4c72b0;" x="354.541002" xlink:href="#md469444916" y="276.007594"/>
     <use style="fill:#4c72b0;" x="217.521487" xlink:href="#md469444916" y="187.892883"/>
     <use style="fill:#4c72b0;" x="526.497764" xlink:href="#md469444916" y="50.115488"/>
     <use style="fill:#4c72b0;" x="133.453736" xlink:href="#md469444916" y="265.392669"/>
     <use style="fill:#4c72b0;" x="347.444374" xlink:href="#md469444916" y="249.524439"/>
     <use style="fill:#4c72b0;" x="77.226604" xlink:href="#md469444916" y="267.125718"/>
     <use style="fill:#4c72b0;" x="55.390825" xlink:href="#md469444916" y="280.665163"/>
     <use style="fill:#4c72b0;" x="105.067223" xlink:href="#md469444916" y="266.58414"/>
     <use style="fill:#4c72b0;" x="157.473093" xlink:href="#md469444916" y="237.7722"/>
     <use style="fill:#4c72b0;" x="49.385986" xlink:href="#md469444916" y="302.003329"/>
     <use style="fill:#4c72b0;" x="271.56504" xlink:href="#md469444916" y="173.866018"/>
     <use style="fill:#4c72b0;" x="361.63763" xlink:href="#md469444916" y="126.20717"/>
     <use style="fill:#4c72b0;" x="376.376781" xlink:href="#md469444916" y="133.410155"/>
     <use style="fill:#4c72b0;" x="66.308715" xlink:href="#md469444916" y="330.652795"/>
     <use style="fill:#4c72b0;" x="353.449213" xlink:href="#md469444916" y="157.94363"/>
     <use style="fill:#4c72b0;" x="173.849928" xlink:href="#md469444916" y="230.569215"/>
     <use style="fill:#4c72b0;" x="108.888484" xlink:href="#md469444916" y="277.415696"/>
     <use style="fill:#4c72b0;" x="238.811371" xlink:href="#md469444916" y="152.202905"/>
     <use style="fill:#4c72b0;" x="225.164009" xlink:href="#md469444916" y="156.48137"/>
     <use style="fill:#4c72b0;" x="284.120614" xlink:href="#md469444916" y="97.124442"/>
     <use style="fill:#4c72b0;" x="56.482614" xlink:href="#md469444916" y="298.103969"/>
     <use style="fill:#4c72b0;" x="54.84493" xlink:href="#md469444916" y="307.798211"/>
     <use style="fill:#4c72b0;" x="52.115458" xlink:href="#md469444916" y="278.173905"/>
     <use style="fill:#4c72b0;" x="477.367261" xlink:href="#md469444916" y="86.076254"/>
     <use style="fill:#4c72b0;" x="236.081899" xlink:href="#md469444916" y="106.981158"/>
     <use style="fill:#4c72b0;" x="512.850402" xlink:href="#md469444916" y="19.570499"/>
     <use style="fill:#4c72b0;" x="208.24128" xlink:href="#md469444916" y="247.574759"/>
     <use style="fill:#4c72b0;" x="220.250959" xlink:href="#md469444916" y="184.80589"/>
     <use style="fill:#4c72b0;" x="149.284676" xlink:href="#md469444916" y="266.313351"/>
     <use style="fill:#4c72b0;" x="495.927673" xlink:href="#md469444916" y="109.689047"/>
     <use style="fill:#4c72b0;" x="262.284834" xlink:href="#md469444916" y="91.708664"/>
     <use style="fill:#4c72b0;" x="110.526168" xlink:href="#md469444916" y="220.279237"/>
     <use style="fill:#4c72b0;" x="415.13529" xlink:href="#md469444916" y="137.580304"/>
     <use style="fill:#4c72b0;" x="71.767659" xlink:href="#md469444916" y="327.403328"/>
     <use style="fill:#4c72b0;" x="50.477775" xlink:href="#md469444916" y="320.904395"/>
     <use style="fill:#4c72b0;" x="475.729577" xlink:href="#md469444916" y="73.078387"/>
     <use style="fill:#4c72b0;" x="54.84493" xlink:href="#md469444916" y="305.794374"/>
     <use style="fill:#4c72b0;" x="88.144494" xlink:href="#md469444916" y="327.782433"/>
     <use style="fill:#4c72b0;" x="54.84493" xlink:href="#md469444916" y="323.883073"/>
     <use style="fill:#4c72b0;" x="207.695386" xlink:href="#md469444916" y="302.70738"/>
     <use style="fill:#4c72b0;" x="55.390825" xlink:href="#md469444916" y="328.215695"/>
     <use style="fill:#4c72b0;" x="113.25564" xlink:href="#md469444916" y="260.951731"/>
     <use style="fill:#4c72b0;" x="451.164326" xlink:href="#md469444916" y="113.805038"/>
     <use style="fill:#4c72b0;" x="234.444216" xlink:href="#md469444916" y="113.750881"/>
     <use style="fill:#4c72b0;" x="125.811213" xlink:href="#md469444916" y="219.845974"/>
     <use style="fill:#4c72b0;" x="51.023669" xlink:href="#md469444916" y="333.035738"/>
     <use style="fill:#4c72b0;" x="54.84493" xlink:href="#md469444916" y="301.082647"/>
     <use style="fill:#4c72b0;" x="53.753141" xlink:href="#md469444916" y="285.810152"/>
     <use style="fill:#4c72b0;" x="441.884119" xlink:href="#md469444916" y="111.151307"/>
     <use style="fill:#4c72b0;" x="268.289674" xlink:href="#md469444916" y="161.409728"/>
     <use style="fill:#4c72b0;" x="54.84493" xlink:href="#md469444916" y="323.341495"/>
     <use style="fill:#4c72b0;" x="60.84977" xlink:href="#md469444916" y="324.641281"/>
     <use style="fill:#4c72b0;" x="70.129976" xlink:href="#md469444916" y="315.109512"/>
     <use style="fill:#4c72b0;" x="139.458575" xlink:href="#md469444916" y="229.648533"/>
     <use style="fill:#4c72b0;" x="71.767659" xlink:href="#md469444916" y="253.369641"/>
     <use style="fill:#4c72b0;" x="52.115458" xlink:href="#md469444916" y="220.983288"/>
     <use style="fill:#4c72b0;" x="291.763136" xlink:href="#md469444916" y="185.239152"/>
     <use style="fill:#4c72b0;" x="302.135132" xlink:href="#md469444916" y="176.790538"/>
     <use style="fill:#4c72b0;" x="151.468254" xlink:href="#md469444916" y="259.326997"/>
     <use style="fill:#4c72b0;" x="84.869127" xlink:href="#md469444916" y="241.18414"/>
     <use style="fill:#4c72b0;" x="250.275156" xlink:href="#md469444916" y="217.463032"/>
     <use style="fill:#4c72b0;" x="150.92236" xlink:href="#md469444916" y="278.119747"/>
     <use style="fill:#4c72b0;" x="109.980273" xlink:href="#md469444916" y="238.909513"/>
     <use style="fill:#4c72b0;" x="170.028666" xlink:href="#md469444916" y="257.106528"/>
     <use style="fill:#4c72b0;" x="437.516964" xlink:href="#md469444916" y="122.686915"/>
     <use style="fill:#4c72b0;" x="54.84493" xlink:href="#md469444916" y="302.274118"/>
     <use style="fill:#4c72b0;" x="49.385986" xlink:href="#md469444916" y="302.978169"/>
     <use style="fill:#4c72b0;" x="54.299036" xlink:href="#md469444916" y="266.042562"/>
     <use style="fill:#4c72b0;" x="53.207247" xlink:href="#md469444916" y="270.808447"/>
     <use style="fill:#4c72b0;" x="297.767976" xlink:href="#md469444916" y="157.185421"/>
     <use style="fill:#4c72b0;" x="95.241122" xlink:href="#md469444916" y="334.010578"/>
     <use style="fill:#4c72b0;" x="49.385986" xlink:href="#md469444916" y="300.324438"/>
     <use style="fill:#4c72b0;" x="70.129976" xlink:href="#md469444916" y="297.183286"/>
     <use style="fill:#4c72b0;" x="95.787017" xlink:href="#md469444916" y="299.566229"/>
     <use style="fill:#4c72b0;" x="60.303875" xlink:href="#md469444916" y="324.316335"/>
     <use style="fill:#4c72b0;" x="54.84493" xlink:href="#md469444916" y="296.641708"/>
     <use style="fill:#4c72b0;" x="370.917837" xlink:href="#md469444916" y="148.032756"/>
     <use style="fill:#4c72b0;" x="51.023669" xlink:href="#md469444916" y="316.734245"/>
     <use style="fill:#4c72b0;" x="54.84493" xlink:href="#md469444916" y="292.742348"/>
     <use style="fill:#4c72b0;" x="125.811213" xlink:href="#md469444916" y="302.70738"/>
     <use style="fill:#4c72b0;" x="305.956393" xlink:href="#md469444916" y="131.027213"/>
     <use style="fill:#4c72b0;" x="71.767659" xlink:href="#md469444916" y="336.772624"/>
     <use style="fill:#4c72b0;" x="61.395664" xlink:href="#md469444916" y="321.066868"/>
     <use style="fill:#4c72b0;" x="88.690388" xlink:href="#md469444916" y="266.150878"/>
     <use style="fill:#4c72b0;" x="51.023669" xlink:href="#md469444916" y="328.378168"/>
     <use style="fill:#4c72b0;" x="57.574403" xlink:href="#md469444916" y="289.27625"/>
     <use style="fill:#4c72b0;" x="325.0627" xlink:href="#md469444916" y="164.767511"/>
     <use style="fill:#4c72b0;" x="56.482614" xlink:href="#md469444916" y="302.003329"/>
     <use style="fill:#4c72b0;" x="52.661352" xlink:href="#md469444916" y="307.744054"/>
     <use style="fill:#4c72b0;" x="153.651832" xlink:href="#md469444916" y="241.129983"/>
     <use style="fill:#4c72b0;" x="87.052705" xlink:href="#md469444916" y="285.86431"/>
     <use style="fill:#4c72b0;" x="99.608278" xlink:href="#md469444916" y="274.491176"/>
     <use style="fill:#4c72b0;" x="61.395664" xlink:href="#md469444916" y="294.746186"/>
     <use style="fill:#4c72b0;" x="50.477775" xlink:href="#md469444916" y="325.182859"/>
     <use style="fill:#4c72b0;" x="116.531007" xlink:href="#md469444916" y="224.232755"/>
     <use style="fill:#4c72b0;" x="76.134815" xlink:href="#md469444916" y="225.640857"/>
     <use style="fill:#4c72b0;" x="74.497132" xlink:href="#md469444916" y="324.641281"/>
     <use style="fill:#4c72b0;" x="51.023669" xlink:href="#md469444916" y="326.970066"/>
     <use style="fill:#4c72b0;" x="139.458575" xlink:href="#md469444916" y="249.578596"/>
     <use style="fill:#4c72b0;" x="408.038661" xlink:href="#md469444916" y="133.30184"/>
     <use style="fill:#4c72b0;" x="396.028983" xlink:href="#md469444916" y="95.932971"/>
     <use style="fill:#4c72b0;" x="141.096259" xlink:href="#md469444916" y="226.940644"/>
     <use style="fill:#4c72b0;" x="50.477775" xlink:href="#md469444916" y="310.722732"/>
     <use style="fill:#4c72b0;" x="59.212086" xlink:href="#md469444916" y="313.21399"/>
     <use style="fill:#4c72b0;" x="101.791856" xlink:href="#md469444916" y="274.599491"/>
     <use style="fill:#4c72b0;" x="132.361947" xlink:href="#md469444916" y="305.361111"/>
     <use style="fill:#4c72b0;" x="127.994791" xlink:href="#md469444916" y="215.56751"/>
     <use style="fill:#4c72b0;" x="67.400504" xlink:href="#md469444916" y="320.308659"/>
     <use style="fill:#4c72b0;" x="107.250801" xlink:href="#md469444916" y="281.47753"/>
     <use style="fill:#4c72b0;" x="384.019304" xlink:href="#md469444916" y="263.605462"/>
     <use style="fill:#4c72b0;" x="108.888484" xlink:href="#md469444916" y="116.296296"/>
     <use style="fill:#4c72b0;" x="225.164009" xlink:href="#md469444916" y="192.008875"/>
     <use style="fill:#4c72b0;" x="100.154173" xlink:href="#md469444916" y="350.095439"/>
     <use style="fill:#4c72b0;" x="112.709746" xlink:href="#md469444916" y="273.89544"/>
     <use style="fill:#4c72b0;" x="162.386144" xlink:href="#md469444916" y="258.189684"/>
     <use style="fill:#4c72b0;" x="84.869127" xlink:href="#md469444916" y="334.660471"/>
     <use style="fill:#4c72b0;" x="85.960916" xlink:href="#md469444916" y="291.280088"/>
     <use style="fill:#4c72b0;" x="68.492293" xlink:href="#md469444916" y="219.845974"/>
     <use style="fill:#4c72b0;" x="54.84493" xlink:href="#md469444916" y="289.059619"/>
     <use style="fill:#4c72b0;" x="58.120297" xlink:href="#md469444916" y="294.096293"/>
     <use style="fill:#4c72b0;" x="161.294355" xlink:href="#md469444916" y="192.11719"/>
     <use style="fill:#4c72b0;" x="57.574403" xlink:href="#md469444916" y="193.796082"/>
     <use style="fill:#4c72b0;" x="140.550364" xlink:href="#md469444916" y="201.053224"/>
     <use style="fill:#4c72b0;" x="60.303875" xlink:href="#md469444916" y="308.610578"/>
     <use style="fill:#4c72b0;" x="54.299036" xlink:href="#md469444916" y="189.68009"/>
    </g>
   </g>
   <g id="patch_3">
    <path d="M 39.84375 356.705938 
L 39.84375 12.96 
" style="fill:none;"/>
   </g>
   <g id="patch_4">
    <path d="M 536.04 356.705938 
L 536.04 12.96 
" style="fill:none;"/>
   </g>
   <g id="patch_5">
    <path d="M 39.84375 356.705938 
L 536.04 356.705938 
" style="fill:none;"/>
   </g>
   <g id="patch_6">
    <path d="M 39.84375 12.96 
L 536.04 12.96 
" style="fill:none;"/>
   </g>
  </g>
 </g>
 <defs>
  <clipPath id="p84b607d8ef">
   <rect height="343.745938" width="496.19625" x="39.84375" y="12.96"/>
  </clipPath>
 </defs>
</svg>
