<?xml version="1.0" encoding="utf-8" standalone="no"?>
<!DOCTYPE svg PUBLIC "-//W3C//DTD SVG 1.1//EN"
  "http://www.w3.org/Graphics/SVG/1.1/DTD/svg11.dtd">
<!-- Created with matplotlib (https://matplotlib.org/) -->
<svg height="400pt" version="1.1" viewBox="0 0 550 400" width="550pt" xmlns="http://www.w3.org/2000/svg" xmlns:xlink="http://www.w3.org/1999/xlink">
 <defs>
  <style type="text/css">
*{stroke-linecap:butt;stroke-linejoin:round;}
  </style>
 </defs>
 <g id="figure_1">
  <g id="patch_1">
   <path d="M 0 400 
L 550 400 
L 550 0 
L 0 0 
z
" style="fill:#ffffff;"/>
  </g>
  <g id="axes_1">
   <g id="patch_2">
    <path d="M 33.86 370.894688 
L 528.384109 370.894688 
L 528.384109 12.96 
L 33.86 12.96 
z
" style="fill:#eaeaf2;"/>
   </g>
   <g id="matplotlib.axis_1">
    <g id="xtick_1">
     <g id="line2d_1">
      <path clip-path="url(#pb7d49e5a1b)" d="M 52.848431 370.894688 
L 52.848431 12.96 
" style="fill:none;stroke:#ffffff;stroke-linecap:round;"/>
     </g>
     <g id="line2d_2"/>
     <g id="text_1">
      <!-- 0 -->
      <defs>
       <path d="M 4.15625 35.296875 
Q 4.15625 48 6.765625 55.734375 
Q 9.375 63.484375 14.515625 67.671875 
Q 19.671875 71.875 27.484375 71.875 
Q 33.25 71.875 37.59375 69.546875 
Q 41.9375 67.234375 44.765625 62.859375 
Q 47.609375 58.5 49.21875 52.21875 
Q 50.828125 45.953125 50.828125 35.296875 
Q 50.828125 22.703125 48.234375 14.96875 
Q 45.65625 7.234375 40.5 3 
Q 35.359375 -1.21875 27.484375 -1.21875 
Q 17.140625 -1.21875 11.234375 6.203125 
Q 4.15625 15.140625 4.15625 35.296875 
z
M 13.1875 35.296875 
Q 13.1875 17.671875 17.3125 11.828125 
Q 21.4375 6 27.484375 6 
Q 33.546875 6 37.671875 11.859375 
Q 41.796875 17.71875 41.796875 35.296875 
Q 41.796875 52.984375 37.671875 58.78125 
Q 33.546875 64.59375 27.390625 64.59375 
Q 21.34375 64.59375 17.71875 59.46875 
Q 13.1875 52.9375 13.1875 35.296875 
z
" id="ArialMT-48"/>
      </defs>
      <g style="fill:#262626;" transform="translate(50.067963 385.0525)scale(0.1 -0.1)">
       <use xlink:href="#ArialMT-48"/>
      </g>
     </g>
    </g>
    <g id="xtick_2">
     <g id="line2d_3">
      <path clip-path="url(#pb7d49e5a1b)" d="M 132.165187 370.894688 
L 132.165187 12.96 
" style="fill:none;stroke:#ffffff;stroke-linecap:round;"/>
     </g>
     <g id="line2d_4"/>
     <g id="text_2">
      <!-- 50 -->
      <defs>
       <path d="M 4.15625 18.75 
L 13.375 19.53125 
Q 14.40625 12.796875 18.140625 9.390625 
Q 21.875 6 27.15625 6 
Q 33.5 6 37.890625 10.78125 
Q 42.28125 15.578125 42.28125 23.484375 
Q 42.28125 31 38.0625 35.34375 
Q 33.84375 39.703125 27 39.703125 
Q 22.75 39.703125 19.328125 37.765625 
Q 15.921875 35.84375 13.96875 32.765625 
L 5.71875 33.84375 
L 12.640625 70.609375 
L 48.25 70.609375 
L 48.25 62.203125 
L 19.671875 62.203125 
L 15.828125 42.96875 
Q 22.265625 47.46875 29.34375 47.46875 
Q 38.71875 47.46875 45.15625 40.96875 
Q 51.609375 34.46875 51.609375 24.265625 
Q 51.609375 14.546875 45.953125 7.46875 
Q 39.0625 -1.21875 27.15625 -1.21875 
Q 17.390625 -1.21875 11.203125 4.25 
Q 5.03125 9.71875 4.15625 18.75 
z
" id="ArialMT-53"/>
      </defs>
      <g style="fill:#262626;" transform="translate(126.60425 385.0525)scale(0.1 -0.1)">
       <use xlink:href="#ArialMT-53"/>
       <use x="55.615234" xlink:href="#ArialMT-48"/>
      </g>
     </g>
    </g>
    <g id="xtick_3">
     <g id="line2d_5">
      <path clip-path="url(#pb7d49e5a1b)" d="M 211.481943 370.894688 
L 211.481943 12.96 
" style="fill:none;stroke:#ffffff;stroke-linecap:round;"/>
     </g>
     <g id="line2d_6"/>
     <g id="text_3">
      <!-- 100 -->
      <defs>
       <path d="M 37.25 0 
L 28.46875 0 
L 28.46875 56 
Q 25.296875 52.984375 20.140625 49.953125 
Q 14.984375 46.921875 10.890625 45.40625 
L 10.890625 53.90625 
Q 18.265625 57.375 23.78125 62.296875 
Q 29.296875 67.234375 31.59375 71.875 
L 37.25 71.875 
z
" id="ArialMT-49"/>
      </defs>
      <g style="fill:#262626;" transform="translate(203.140537 385.0525)scale(0.1 -0.1)">
       <use xlink:href="#ArialMT-49"/>
       <use x="55.615234" xlink:href="#ArialMT-48"/>
       <use x="111.230469" xlink:href="#ArialMT-48"/>
      </g>
     </g>
    </g>
    <g id="xtick_4">
     <g id="line2d_7">
      <path clip-path="url(#pb7d49e5a1b)" d="M 290.798699 370.894688 
L 290.798699 12.96 
" style="fill:none;stroke:#ffffff;stroke-linecap:round;"/>
     </g>
     <g id="line2d_8"/>
     <g id="text_4">
      <!-- 150 -->
      <g style="fill:#262626;" transform="translate(282.457292 385.0525)scale(0.1 -0.1)">
       <use xlink:href="#ArialMT-49"/>
       <use x="55.615234" xlink:href="#ArialMT-53"/>
       <use x="111.230469" xlink:href="#ArialMT-48"/>
      </g>
     </g>
    </g>
    <g id="xtick_5">
     <g id="line2d_9">
      <path clip-path="url(#pb7d49e5a1b)" d="M 370.115454 370.894688 
L 370.115454 12.96 
" style="fill:none;stroke:#ffffff;stroke-linecap:round;"/>
     </g>
     <g id="line2d_10"/>
     <g id="text_5">
      <!-- 200 -->
      <defs>
       <path d="M 50.34375 8.453125 
L 50.34375 0 
L 3.03125 0 
Q 2.9375 3.171875 4.046875 6.109375 
Q 5.859375 10.9375 9.828125 15.625 
Q 13.8125 20.3125 21.34375 26.46875 
Q 33.015625 36.03125 37.109375 41.625 
Q 41.21875 47.21875 41.21875 52.203125 
Q 41.21875 57.421875 37.46875 61 
Q 33.734375 64.59375 27.734375 64.59375 
Q 21.390625 64.59375 17.578125 60.78125 
Q 13.765625 56.984375 13.71875 50.25 
L 4.6875 51.171875 
Q 5.609375 61.28125 11.65625 66.578125 
Q 17.71875 71.875 27.9375 71.875 
Q 38.234375 71.875 44.234375 66.15625 
Q 50.25 60.453125 50.25 52 
Q 50.25 47.703125 48.484375 43.546875 
Q 46.734375 39.40625 42.65625 34.8125 
Q 38.578125 30.21875 29.109375 22.21875 
Q 21.1875 15.578125 18.9375 13.203125 
Q 16.703125 10.84375 15.234375 8.453125 
z
" id="ArialMT-50"/>
      </defs>
      <g style="fill:#262626;" transform="translate(361.774048 385.0525)scale(0.1 -0.1)">
       <use xlink:href="#ArialMT-50"/>
       <use x="55.615234" xlink:href="#ArialMT-48"/>
       <use x="111.230469" xlink:href="#ArialMT-48"/>
      </g>
     </g>
    </g>
    <g id="xtick_6">
     <g id="line2d_11">
      <path clip-path="url(#pb7d49e5a1b)" d="M 449.43221 370.894688 
L 449.43221 12.96 
" style="fill:none;stroke:#ffffff;stroke-linecap:round;"/>
     </g>
     <g id="line2d_12"/>
     <g id="text_6">
      <!-- 250 -->
      <g style="fill:#262626;" transform="translate(441.090804 385.0525)scale(0.1 -0.1)">
       <use xlink:href="#ArialMT-50"/>
       <use x="55.615234" xlink:href="#ArialMT-53"/>
       <use x="111.230469" xlink:href="#ArialMT-48"/>
      </g>
     </g>
    </g>
    <g id="xtick_7">
     <g id="line2d_13">
      <path clip-path="url(#pb7d49e5a1b)" d="M 528.748966 370.894688 
L 528.748966 12.96 
" style="fill:none;stroke:#ffffff;stroke-linecap:round;"/>
     </g>
     <g id="line2d_14"/>
     <g id="text_7">
      <!-- 300 -->
      <defs>
       <path d="M 4.203125 18.890625 
L 12.984375 20.0625 
Q 14.5 12.59375 18.140625 9.296875 
Q 21.78125 6 27 6 
Q 33.203125 6 37.46875 10.296875 
Q 41.75 14.59375 41.75 20.953125 
Q 41.75 27 37.796875 30.921875 
Q 33.84375 34.859375 27.734375 34.859375 
Q 25.25 34.859375 21.53125 33.890625 
L 22.515625 41.609375 
Q 23.390625 41.5 23.921875 41.5 
Q 29.546875 41.5 34.03125 44.421875 
Q 38.53125 47.359375 38.53125 53.46875 
Q 38.53125 58.296875 35.25 61.46875 
Q 31.984375 64.65625 26.8125 64.65625 
Q 21.6875 64.65625 18.265625 61.421875 
Q 14.84375 58.203125 13.875 51.765625 
L 5.078125 53.328125 
Q 6.6875 62.15625 12.390625 67.015625 
Q 18.109375 71.875 26.609375 71.875 
Q 32.46875 71.875 37.390625 69.359375 
Q 42.328125 66.84375 44.9375 62.5 
Q 47.5625 58.15625 47.5625 53.265625 
Q 47.5625 48.640625 45.0625 44.828125 
Q 42.578125 41.015625 37.703125 38.765625 
Q 44.046875 37.3125 47.5625 32.6875 
Q 51.078125 28.078125 51.078125 21.140625 
Q 51.078125 11.765625 44.234375 5.25 
Q 37.40625 -1.265625 26.953125 -1.265625 
Q 17.53125 -1.265625 11.296875 4.34375 
Q 5.078125 9.96875 4.203125 18.890625 
z
" id="ArialMT-51"/>
      </defs>
      <g style="fill:#262626;" transform="translate(520.40756 385.0525)scale(0.1 -0.1)">
       <use xlink:href="#ArialMT-51"/>
       <use x="55.615234" xlink:href="#ArialMT-48"/>
       <use x="111.230469" xlink:href="#ArialMT-48"/>
      </g>
     </g>
    </g>
   </g>
   <g id="matplotlib.axis_2">
    <g id="ytick_1">
     <g id="line2d_15">
      <path clip-path="url(#pb7d49e5a1b)" d="M 33.86 357.090044 
L 528.384109 357.090044 
" style="fill:none;stroke:#ffffff;stroke-linecap:round;"/>
     </g>
     <g id="line2d_16"/>
     <g id="text_8">
      <!-- 0.0 -->
      <defs>
       <path d="M 9.078125 0 
L 9.078125 10.015625 
L 19.09375 10.015625 
L 19.09375 0 
z
" id="ArialMT-46"/>
      </defs>
      <g style="fill:#262626;" transform="translate(12.96 360.66895)scale(0.1 -0.1)">
       <use xlink:href="#ArialMT-48"/>
       <use x="55.615234" xlink:href="#ArialMT-46"/>
       <use x="83.398438" xlink:href="#ArialMT-48"/>
      </g>
     </g>
    </g>
    <g id="ytick_2">
     <g id="line2d_17">
      <path clip-path="url(#pb7d49e5a1b)" d="M 33.86 291.517987 
L 528.384109 291.517987 
" style="fill:none;stroke:#ffffff;stroke-linecap:round;"/>
     </g>
     <g id="line2d_18"/>
     <g id="text_9">
      <!-- 0.2 -->
      <g style="fill:#262626;" transform="translate(12.96 295.096893)scale(0.1 -0.1)">
       <use xlink:href="#ArialMT-48"/>
       <use x="55.615234" xlink:href="#ArialMT-46"/>
       <use x="83.398438" xlink:href="#ArialMT-50"/>
      </g>
     </g>
    </g>
    <g id="ytick_3">
     <g id="line2d_19">
      <path clip-path="url(#pb7d49e5a1b)" d="M 33.86 225.94593 
L 528.384109 225.94593 
" style="fill:none;stroke:#ffffff;stroke-linecap:round;"/>
     </g>
     <g id="line2d_20"/>
     <g id="text_10">
      <!-- 0.4 -->
      <defs>
       <path d="M 32.328125 0 
L 32.328125 17.140625 
L 1.265625 17.140625 
L 1.265625 25.203125 
L 33.9375 71.578125 
L 41.109375 71.578125 
L 41.109375 25.203125 
L 50.78125 25.203125 
L 50.78125 17.140625 
L 41.109375 17.140625 
L 41.109375 0 
z
M 32.328125 25.203125 
L 32.328125 57.46875 
L 9.90625 25.203125 
z
" id="ArialMT-52"/>
      </defs>
      <g style="fill:#262626;" transform="translate(12.96 229.524836)scale(0.1 -0.1)">
       <use xlink:href="#ArialMT-48"/>
       <use x="55.615234" xlink:href="#ArialMT-46"/>
       <use x="83.398438" xlink:href="#ArialMT-52"/>
      </g>
     </g>
    </g>
    <g id="ytick_4">
     <g id="line2d_21">
      <path clip-path="url(#pb7d49e5a1b)" d="M 33.86 160.373873 
L 528.384109 160.373873 
" style="fill:none;stroke:#ffffff;stroke-linecap:round;"/>
     </g>
     <g id="line2d_22"/>
     <g id="text_11">
      <!-- 0.6 -->
      <defs>
       <path d="M 49.75 54.046875 
L 41.015625 53.375 
Q 39.84375 58.546875 37.703125 60.890625 
Q 34.125 64.65625 28.90625 64.65625 
Q 24.703125 64.65625 21.53125 62.3125 
Q 17.390625 59.28125 14.984375 53.46875 
Q 12.59375 47.65625 12.5 36.921875 
Q 15.671875 41.75 20.265625 44.09375 
Q 24.859375 46.4375 29.890625 46.4375 
Q 38.671875 46.4375 44.84375 39.96875 
Q 51.03125 33.5 51.03125 23.25 
Q 51.03125 16.5 48.125 10.71875 
Q 45.21875 4.9375 40.140625 1.859375 
Q 35.0625 -1.21875 28.609375 -1.21875 
Q 17.625 -1.21875 10.6875 6.859375 
Q 3.765625 14.9375 3.765625 33.5 
Q 3.765625 54.25 11.421875 63.671875 
Q 18.109375 71.875 29.4375 71.875 
Q 37.890625 71.875 43.28125 67.140625 
Q 48.6875 62.40625 49.75 54.046875 
z
M 13.875 23.1875 
Q 13.875 18.65625 15.796875 14.5 
Q 17.71875 10.359375 21.1875 8.171875 
Q 24.65625 6 28.46875 6 
Q 34.03125 6 38.03125 10.484375 
Q 42.046875 14.984375 42.046875 22.703125 
Q 42.046875 30.125 38.078125 34.390625 
Q 34.125 38.671875 28.125 38.671875 
Q 22.171875 38.671875 18.015625 34.390625 
Q 13.875 30.125 13.875 23.1875 
z
" id="ArialMT-54"/>
      </defs>
      <g style="fill:#262626;" transform="translate(12.96 163.952779)scale(0.1 -0.1)">
       <use xlink:href="#ArialMT-48"/>
       <use x="55.615234" xlink:href="#ArialMT-46"/>
       <use x="83.398438" xlink:href="#ArialMT-54"/>
      </g>
     </g>
    </g>
    <g id="ytick_5">
     <g id="line2d_23">
      <path clip-path="url(#pb7d49e5a1b)" d="M 33.86 94.801816 
L 528.384109 94.801816 
" style="fill:none;stroke:#ffffff;stroke-linecap:round;"/>
     </g>
     <g id="line2d_24"/>
     <g id="text_12">
      <!-- 0.8 -->
      <defs>
       <path d="M 17.671875 38.8125 
Q 12.203125 40.828125 9.5625 44.53125 
Q 6.9375 48.25 6.9375 53.421875 
Q 6.9375 61.234375 12.546875 66.546875 
Q 18.171875 71.875 27.484375 71.875 
Q 36.859375 71.875 42.578125 66.421875 
Q 48.296875 60.984375 48.296875 53.171875 
Q 48.296875 48.1875 45.671875 44.5 
Q 43.0625 40.828125 37.75 38.8125 
Q 44.34375 36.671875 47.78125 31.875 
Q 51.21875 27.09375 51.21875 20.453125 
Q 51.21875 11.28125 44.71875 5.03125 
Q 38.234375 -1.21875 27.640625 -1.21875 
Q 17.046875 -1.21875 10.546875 5.046875 
Q 4.046875 11.328125 4.046875 20.703125 
Q 4.046875 27.6875 7.59375 32.390625 
Q 11.140625 37.109375 17.671875 38.8125 
z
M 15.921875 53.71875 
Q 15.921875 48.640625 19.1875 45.40625 
Q 22.46875 42.1875 27.6875 42.1875 
Q 32.765625 42.1875 36.015625 45.375 
Q 39.265625 48.578125 39.265625 53.21875 
Q 39.265625 58.0625 35.90625 61.359375 
Q 32.5625 64.65625 27.59375 64.65625 
Q 22.5625 64.65625 19.234375 61.421875 
Q 15.921875 58.203125 15.921875 53.71875 
z
M 13.09375 20.65625 
Q 13.09375 16.890625 14.875 13.375 
Q 16.65625 9.859375 20.171875 7.921875 
Q 23.6875 6 27.734375 6 
Q 34.03125 6 38.125 10.046875 
Q 42.234375 14.109375 42.234375 20.359375 
Q 42.234375 26.703125 38.015625 30.859375 
Q 33.796875 35.015625 27.4375 35.015625 
Q 21.234375 35.015625 17.15625 30.90625 
Q 13.09375 26.8125 13.09375 20.65625 
z
" id="ArialMT-56"/>
      </defs>
      <g style="fill:#262626;" transform="translate(12.96 98.380722)scale(0.1 -0.1)">
       <use xlink:href="#ArialMT-48"/>
       <use x="55.615234" xlink:href="#ArialMT-46"/>
       <use x="83.398438" xlink:href="#ArialMT-56"/>
      </g>
     </g>
    </g>
    <g id="ytick_6">
     <g id="line2d_25">
      <path clip-path="url(#pb7d49e5a1b)" d="M 33.86 29.229759 
L 528.384109 29.229759 
" style="fill:none;stroke:#ffffff;stroke-linecap:round;"/>
     </g>
     <g id="line2d_26"/>
     <g id="text_13">
      <!-- 1.0 -->
      <g style="fill:#262626;" transform="translate(12.96 32.808665)scale(0.1 -0.1)">
       <use xlink:href="#ArialMT-49"/>
       <use x="55.615234" xlink:href="#ArialMT-46"/>
       <use x="83.398438" xlink:href="#ArialMT-48"/>
      </g>
     </g>
    </g>
   </g>
   <g id="line2d_27">
    <defs>
     <path d="M 0 1.75 
C 0.464105 1.75 0.909265 1.565609 1.237437 1.237437 
C 1.565609 0.909265 1.75 0.464105 1.75 0 
C 1.75 -0.464105 1.565609 -0.909265 1.237437 -1.237437 
C 0.909265 -1.565609 0.464105 -1.75 0 -1.75 
C -0.464105 -1.75 -0.909265 -1.565609 -1.237437 -1.237437 
C -1.565609 -0.909265 -1.75 -0.464105 -1.75 0 
C -1.75 0.464105 -1.565609 0.909265 -1.237437 1.237437 
C -0.909265 1.565609 -0.464105 1.75 0 1.75 
z
" id="m658f9530e9"/>
    </defs>
    <g clip-path="url(#pb7d49e5a1b)">
     <use style="fill:#ff0000;fill-opacity:0.02;" x="56.338369" xlink:href="#m658f9530e9" y="354.624929"/>
     <use style="fill:#ff0000;fill-opacity:0.02;" x="62.525076" xlink:href="#m658f9530e9" y="352.159814"/>
     <use style="fill:#ff0000;fill-opacity:0.02;" x="66.173646" xlink:href="#m658f9530e9" y="349.694699"/>
     <use style="fill:#ff0000;fill-opacity:0.02;" x="70.774018" xlink:href="#m658f9530e9" y="347.229584"/>
     <use style="fill:#ff0000;fill-opacity:0.02;" x="71.725819" xlink:href="#m658f9530e9" y="344.764469"/>
     <use style="fill:#ff0000;fill-opacity:0.02;" x="73.946688" xlink:href="#m658f9530e9" y="342.299354"/>
     <use style="fill:#ff0000;fill-opacity:0.02;" x="74.263955" xlink:href="#m658f9530e9" y="339.834239"/>
     <use style="fill:#ff0000;fill-opacity:0.02;" x="74.581222" xlink:href="#m658f9530e9" y="337.369124"/>
     <use style="fill:#ff0000;fill-opacity:0.02;" x="76.008924" xlink:href="#m658f9530e9" y="334.90401"/>
     <use style="fill:#ff0000;fill-opacity:0.02;" x="76.167558" xlink:href="#m658f9530e9" y="332.438895"/>
     <use style="fill:#ff0000;fill-opacity:0.02;" x="76.326191" xlink:href="#m658f9530e9" y="329.97378"/>
     <use style="fill:#ff0000;fill-opacity:0.02;" x="79.181594" xlink:href="#m658f9530e9" y="327.508665"/>
     <use style="fill:#ff0000;fill-opacity:0.02;" x="80.926563" xlink:href="#m658f9530e9" y="325.04355"/>
     <use style="fill:#ff0000;fill-opacity:0.02;" x="81.71973" xlink:href="#m658f9530e9" y="322.578435"/>
     <use style="fill:#ff0000;fill-opacity:0.02;" x="85.844202" xlink:href="#m658f9530e9" y="320.11332"/>
     <use style="fill:#ff0000;fill-opacity:0.02;" x="89.81004" xlink:href="#m658f9530e9" y="317.648205"/>
     <use style="fill:#ff0000;fill-opacity:0.02;" x="96.472647" xlink:href="#m658f9530e9" y="315.18309"/>
     <use style="fill:#ff0000;fill-opacity:0.02;" x="97.900349" xlink:href="#m658f9530e9" y="312.717975"/>
     <use style="fill:#ff0000;fill-opacity:0.02;" x="98.534883" xlink:href="#m658f9530e9" y="310.25286"/>
     <use style="fill:#ff0000;fill-opacity:0.02;" x="100.121218" xlink:href="#m658f9530e9" y="307.787745"/>
     <use style="fill:#ff0000;fill-opacity:0.02;" x="101.548919" xlink:href="#m658f9530e9" y="305.32263"/>
     <use style="fill:#ff0000;fill-opacity:0.02;" x="101.866186" xlink:href="#m658f9530e9" y="302.857515"/>
     <use style="fill:#ff0000;fill-opacity:0.02;" x="103.293888" xlink:href="#m658f9530e9" y="300.392401"/>
     <use style="fill:#ff0000;fill-opacity:0.02;" x="104.087056" xlink:href="#m658f9530e9" y="297.927286"/>
     <use style="fill:#ff0000;fill-opacity:0.02;" x="106.625192" xlink:href="#m658f9530e9" y="295.462171"/>
     <use style="fill:#ff0000;fill-opacity:0.02;" x="106.783825" xlink:href="#m658f9530e9" y="292.997056"/>
     <use style="fill:#ff0000;fill-opacity:0.02;" x="108.211527" xlink:href="#m658f9530e9" y="290.531941"/>
     <use style="fill:#ff0000;fill-opacity:0.02;" x="110.273763" xlink:href="#m658f9530e9" y="288.066826"/>
     <use style="fill:#ff0000;fill-opacity:0.02;" x="111.542831" xlink:href="#m658f9530e9" y="285.601711"/>
     <use style="fill:#ff0000;fill-opacity:0.02;" x="112.177365" xlink:href="#m658f9530e9" y="283.136596"/>
     <use style="fill:#ff0000;fill-opacity:0.02;" x="112.494632" xlink:href="#m658f9530e9" y="280.671481"/>
     <use style="fill:#ff0000;fill-opacity:0.02;" x="113.129166" xlink:href="#m658f9530e9" y="278.206366"/>
     <use style="fill:#ff0000;fill-opacity:0.02;" x="113.287799" xlink:href="#m658f9530e9" y="275.741251"/>
     <use style="fill:#ff0000;fill-opacity:0.02;" x="115.191401" xlink:href="#m658f9530e9" y="273.276136"/>
     <use style="fill:#ff0000;fill-opacity:0.02;" x="115.667302" xlink:href="#m658f9530e9" y="270.811021"/>
     <use style="fill:#ff0000;fill-opacity:0.02;" x="116.93637" xlink:href="#m658f9530e9" y="268.345907"/>
     <use style="fill:#ff0000;fill-opacity:0.02;" x="117.729538" xlink:href="#m658f9530e9" y="265.880792"/>
     <use style="fill:#ff0000;fill-opacity:0.02;" x="117.888171" xlink:href="#m658f9530e9" y="263.415677"/>
     <use style="fill:#ff0000;fill-opacity:0.02;" x="118.205438" xlink:href="#m658f9530e9" y="260.950562"/>
     <use style="fill:#ff0000;fill-opacity:0.02;" x="118.205438" xlink:href="#m658f9530e9" y="258.485447"/>
     <use style="fill:#ff0000;fill-opacity:0.02;" x="118.522705" xlink:href="#m658f9530e9" y="256.020332"/>
     <use style="fill:#ff0000;fill-opacity:0.02;" x="120.426307" xlink:href="#m658f9530e9" y="253.555217"/>
     <use style="fill:#ff0000;fill-opacity:0.02;" x="121.378108" xlink:href="#m658f9530e9" y="251.090102"/>
     <use style="fill:#ff0000;fill-opacity:0.02;" x="121.695375" xlink:href="#m658f9530e9" y="248.624987"/>
     <use style="fill:#ff0000;fill-opacity:0.02;" x="122.488543" xlink:href="#m658f9530e9" y="246.159872"/>
     <use style="fill:#ff0000;fill-opacity:0.02;" x="122.647176" xlink:href="#m658f9530e9" y="243.694757"/>
     <use style="fill:#ff0000;fill-opacity:0.02;" x="122.964443" xlink:href="#m658f9530e9" y="241.229642"/>
     <use style="fill:#ff0000;fill-opacity:0.02;" x="126.454381" xlink:href="#m658f9530e9" y="238.764527"/>
     <use style="fill:#ff0000;fill-opacity:0.02;" x="126.771648" xlink:href="#m658f9530e9" y="236.299412"/>
     <use style="fill:#ff0000;fill-opacity:0.02;" x="128.833883" xlink:href="#m658f9530e9" y="233.834298"/>
     <use style="fill:#ff0000;fill-opacity:0.02;" x="130.737486" xlink:href="#m658f9530e9" y="231.369183"/>
     <use style="fill:#ff0000;fill-opacity:0.02;" x="132.165187" xlink:href="#m658f9530e9" y="228.904068"/>
     <use style="fill:#ff0000;fill-opacity:0.02;" x="132.958355" xlink:href="#m658f9530e9" y="226.438953"/>
     <use style="fill:#ff0000;fill-opacity:0.02;" x="133.116988" xlink:href="#m658f9530e9" y="223.973838"/>
     <use style="fill:#ff0000;fill-opacity:0.02;" x="135.655124" xlink:href="#m658f9530e9" y="221.508723"/>
     <use style="fill:#ff0000;fill-opacity:0.02;" x="137.71736" xlink:href="#m658f9530e9" y="219.043608"/>
     <use style="fill:#ff0000;fill-opacity:0.02;" x="137.71736" xlink:href="#m658f9530e9" y="216.578493"/>
     <use style="fill:#ff0000;fill-opacity:0.02;" x="139.462329" xlink:href="#m658f9530e9" y="214.113378"/>
     <use style="fill:#ff0000;fill-opacity:0.02;" x="139.938229" xlink:href="#m658f9530e9" y="211.648263"/>
     <use style="fill:#ff0000;fill-opacity:0.02;" x="140.89003" xlink:href="#m658f9530e9" y="209.183148"/>
     <use style="fill:#ff0000;fill-opacity:0.02;" x="141.683198" xlink:href="#m658f9530e9" y="206.718033"/>
     <use style="fill:#ff0000;fill-opacity:0.02;" x="142.793632" xlink:href="#m658f9530e9" y="204.252918"/>
     <use style="fill:#ff0000;fill-opacity:0.02;" x="143.428166" xlink:href="#m658f9530e9" y="201.787803"/>
     <use style="fill:#ff0000;fill-opacity:0.02;" x="143.5868" xlink:href="#m658f9530e9" y="199.322689"/>
     <use style="fill:#ff0000;fill-opacity:0.02;" x="144.855868" xlink:href="#m658f9530e9" y="196.857574"/>
     <use style="fill:#ff0000;fill-opacity:0.02;" x="146.442203" xlink:href="#m658f9530e9" y="194.392459"/>
     <use style="fill:#ff0000;fill-opacity:0.02;" x="147.711271" xlink:href="#m658f9530e9" y="191.927344"/>
     <use style="fill:#ff0000;fill-opacity:0.02;" x="148.028538" xlink:href="#m658f9530e9" y="189.462229"/>
     <use style="fill:#ff0000;fill-opacity:0.02;" x="148.504439" xlink:href="#m658f9530e9" y="186.997114"/>
     <use style="fill:#ff0000;fill-opacity:0.02;" x="149.614873" xlink:href="#m658f9530e9" y="184.531999"/>
     <use style="fill:#ff0000;fill-opacity:0.02;" x="150.883941" xlink:href="#m658f9530e9" y="182.066884"/>
     <use style="fill:#ff0000;fill-opacity:0.02;" x="151.201208" xlink:href="#m658f9530e9" y="179.601769"/>
     <use style="fill:#ff0000;fill-opacity:0.02;" x="151.994376" xlink:href="#m658f9530e9" y="177.136654"/>
     <use style="fill:#ff0000;fill-opacity:0.02;" x="152.15301" xlink:href="#m658f9530e9" y="174.671539"/>
     <use style="fill:#ff0000;fill-opacity:0.02;" x="153.739345" xlink:href="#m658f9530e9" y="172.206424"/>
     <use style="fill:#ff0000;fill-opacity:0.02;" x="154.056612" xlink:href="#m658f9530e9" y="169.741309"/>
     <use style="fill:#ff0000;fill-opacity:0.02;" x="158.815617" xlink:href="#m658f9530e9" y="167.276194"/>
     <use style="fill:#ff0000;fill-opacity:0.02;" x="159.450151" xlink:href="#m658f9530e9" y="164.81108"/>
     <use style="fill:#ff0000;fill-opacity:0.02;" x="160.243319" xlink:href="#m658f9530e9" y="162.345965"/>
     <use style="fill:#ff0000;fill-opacity:0.02;" x="161.67102" xlink:href="#m658f9530e9" y="159.88085"/>
     <use style="fill:#ff0000;fill-opacity:0.02;" x="165.954125" xlink:href="#m658f9530e9" y="157.415735"/>
     <use style="fill:#ff0000;fill-opacity:0.02;" x="166.905926" xlink:href="#m658f9530e9" y="154.95062"/>
     <use style="fill:#ff0000;fill-opacity:0.02;" x="167.857727" xlink:href="#m658f9530e9" y="152.485505"/>
     <use style="fill:#ff0000;fill-opacity:0.02;" x="168.016361" xlink:href="#m658f9530e9" y="150.02039"/>
     <use style="fill:#ff0000;fill-opacity:0.02;" x="174.044434" xlink:href="#m658f9530e9" y="147.555275"/>
     <use style="fill:#ff0000;fill-opacity:0.02;" x="174.678968" xlink:href="#m658f9530e9" y="145.09016"/>
     <use style="fill:#ff0000;fill-opacity:0.02;" x="175.313502" xlink:href="#m658f9530e9" y="142.625045"/>
     <use style="fill:#ff0000;fill-opacity:0.02;" x="175.789403" xlink:href="#m658f9530e9" y="140.15993"/>
     <use style="fill:#ff0000;fill-opacity:0.02;" x="181.97611" xlink:href="#m658f9530e9" y="137.694815"/>
     <use style="fill:#ff0000;fill-opacity:0.02;" x="183.086544" xlink:href="#m658f9530e9" y="135.2297"/>
     <use style="fill:#ff0000;fill-opacity:0.02;" x="183.721078" xlink:href="#m658f9530e9" y="132.764585"/>
     <use style="fill:#ff0000;fill-opacity:0.02;" x="185.14878" xlink:href="#m658f9530e9" y="130.299471"/>
     <use style="fill:#ff0000;fill-opacity:0.02;" x="186.417848" xlink:href="#m658f9530e9" y="127.834356"/>
     <use style="fill:#ff0000;fill-opacity:0.02;" x="187.528283" xlink:href="#m658f9530e9" y="125.369241"/>
     <use style="fill:#ff0000;fill-opacity:0.02;" x="195.618592" xlink:href="#m658f9530e9" y="122.904126"/>
     <use style="fill:#ff0000;fill-opacity:0.02;" x="198.473995" xlink:href="#m658f9530e9" y="120.439011"/>
     <use style="fill:#ff0000;fill-opacity:0.02;" x="199.108529" xlink:href="#m658f9530e9" y="117.973896"/>
     <use style="fill:#ff0000;fill-opacity:0.02;" x="200.536231" xlink:href="#m658f9530e9" y="115.508781"/>
     <use style="fill:#ff0000;fill-opacity:0.02;" x="201.805299" xlink:href="#m658f9530e9" y="113.043666"/>
     <use style="fill:#ff0000;fill-opacity:0.02;" x="203.550267" xlink:href="#m658f9530e9" y="110.578551"/>
     <use style="fill:#ff0000;fill-opacity:0.02;" x="204.819335" xlink:href="#m658f9530e9" y="108.113436"/>
     <use style="fill:#ff0000;fill-opacity:0.02;" x="209.10244" xlink:href="#m658f9530e9" y="105.648321"/>
     <use style="fill:#ff0000;fill-opacity:0.02;" x="213.702812" xlink:href="#m658f9530e9" y="103.183206"/>
     <use style="fill:#ff0000;fill-opacity:0.02;" x="216.716849" xlink:href="#m658f9530e9" y="100.718091"/>
     <use style="fill:#ff0000;fill-opacity:0.02;" x="217.827283" xlink:href="#m658f9530e9" y="98.252976"/>
     <use style="fill:#ff0000;fill-opacity:0.02;" x="218.937718" xlink:href="#m658f9530e9" y="95.787862"/>
     <use style="fill:#ff0000;fill-opacity:0.02;" x="229.090263" xlink:href="#m658f9530e9" y="93.322747"/>
     <use style="fill:#ff0000;fill-opacity:0.02;" x="229.090263" xlink:href="#m658f9530e9" y="90.857632"/>
     <use style="fill:#ff0000;fill-opacity:0.02;" x="231.945666" xlink:href="#m658f9530e9" y="88.392517"/>
     <use style="fill:#ff0000;fill-opacity:0.02;" x="235.911504" xlink:href="#m658f9530e9" y="85.927402"/>
     <use style="fill:#ff0000;fill-opacity:0.02;" x="237.180572" xlink:href="#m658f9530e9" y="83.462287"/>
     <use style="fill:#ff0000;fill-opacity:0.02;" x="239.242807" xlink:href="#m658f9530e9" y="80.997172"/>
     <use style="fill:#ff0000;fill-opacity:0.02;" x="242.098211" xlink:href="#m658f9530e9" y="78.532057"/>
     <use style="fill:#ff0000;fill-opacity:0.02;" x="244.953614" xlink:href="#m658f9530e9" y="76.066942"/>
     <use style="fill:#ff0000;fill-opacity:0.02;" x="247.015849" xlink:href="#m658f9530e9" y="73.601827"/>
     <use style="fill:#ff0000;fill-opacity:0.02;" x="250.981687" xlink:href="#m658f9530e9" y="71.136712"/>
     <use style="fill:#ff0000;fill-opacity:0.02;" x="253.678457" xlink:href="#m658f9530e9" y="68.671597"/>
     <use style="fill:#ff0000;fill-opacity:0.02;" x="260.499698" xlink:href="#m658f9530e9" y="66.206482"/>
     <use style="fill:#ff0000;fill-opacity:0.02;" x="263.037834" xlink:href="#m658f9530e9" y="63.741368"/>
     <use style="fill:#ff0000;fill-opacity:0.02;" x="263.513735" xlink:href="#m658f9530e9" y="61.276253"/>
     <use style="fill:#ff0000;fill-opacity:0.02;" x="265.893237" xlink:href="#m658f9530e9" y="58.811138"/>
     <use style="fill:#ff0000;fill-opacity:0.02;" x="274.935348" xlink:href="#m658f9530e9" y="56.346023"/>
     <use style="fill:#ff0000;fill-opacity:0.02;" x="277.156217" xlink:href="#m658f9530e9" y="53.880908"/>
     <use style="fill:#ff0000;fill-opacity:0.02;" x="278.266651" xlink:href="#m658f9530e9" y="51.415793"/>
     <use style="fill:#ff0000;fill-opacity:0.02;" x="286.832861" xlink:href="#m658f9530e9" y="48.950678"/>
     <use style="fill:#ff0000;fill-opacity:0.02;" x="286.991494" xlink:href="#m658f9530e9" y="46.485563"/>
     <use style="fill:#ff0000;fill-opacity:0.02;" x="294.605903" xlink:href="#m658f9530e9" y="44.020448"/>
     <use style="fill:#ff0000;fill-opacity:0.02;" x="309.200186" xlink:href="#m658f9530e9" y="41.555333"/>
     <use style="fill:#ff0000;fill-opacity:0.02;" x="319.669998" xlink:href="#m658f9530e9" y="39.090218"/>
     <use style="fill:#ff0000;fill-opacity:0.02;" x="323.635836" xlink:href="#m658f9530e9" y="36.625103"/>
     <use style="fill:#ff0000;fill-opacity:0.02;" x="327.284406" xlink:href="#m658f9530e9" y="34.159988"/>
     <use style="fill:#ff0000;fill-opacity:0.02;" x="368.846386" xlink:href="#m658f9530e9" y="31.694873"/>
     <use style="fill:#ff0000;fill-opacity:0.02;" x="505.90574" xlink:href="#m658f9530e9" y="29.229759"/>
    </g>
   </g>
   <g id="line2d_28">
    <defs>
     <path d="M 0 1.75 
C 0.464105 1.75 0.909265 1.565609 1.237437 1.237437 
C 1.565609 0.909265 1.75 0.464105 1.75 0 
C 1.75 -0.464105 1.565609 -0.909265 1.237437 -1.237437 
C 0.909265 -1.565609 0.464105 -1.75 0 -1.75 
C -0.464105 -1.75 -0.909265 -1.565609 -1.237437 -1.237437 
C -1.565609 -0.909265 -1.75 -0.464105 -1.75 0 
C -1.75 0.464105 -1.565609 0.909265 -1.237437 1.237437 
C -0.909265 1.565609 -0.464105 1.75 0 1.75 
z
" id="m37db18c4f8"/>
    </defs>
    <g clip-path="url(#pb7d49e5a1b)">
     <use style="fill:#0000ff;fill-opacity:0.02;" x="62.366442" xlink:href="#m37db18c4f8" y="354.624929"/>
     <use style="fill:#0000ff;fill-opacity:0.02;" x="64.904578" xlink:href="#m37db18c4f8" y="352.159814"/>
     <use style="fill:#0000ff;fill-opacity:0.02;" x="68.394515" xlink:href="#m37db18c4f8" y="349.694699"/>
     <use style="fill:#0000ff;fill-opacity:0.02;" x="68.553149" xlink:href="#m37db18c4f8" y="347.229584"/>
     <use style="fill:#0000ff;fill-opacity:0.02;" x="70.615385" xlink:href="#m37db18c4f8" y="344.764469"/>
     <use style="fill:#0000ff;fill-opacity:0.02;" x="73.788055" xlink:href="#m37db18c4f8" y="342.299354"/>
     <use style="fill:#0000ff;fill-opacity:0.02;" x="76.802092" xlink:href="#m37db18c4f8" y="339.834239"/>
     <use style="fill:#0000ff;fill-opacity:0.02;" x="77.595259" xlink:href="#m37db18c4f8" y="337.369124"/>
     <use style="fill:#0000ff;fill-opacity:0.02;" x="80.133395" xlink:href="#m37db18c4f8" y="334.90401"/>
     <use style="fill:#0000ff;fill-opacity:0.02;" x="80.292029" xlink:href="#m37db18c4f8" y="332.438895"/>
     <use style="fill:#0000ff;fill-opacity:0.02;" x="83.9406" xlink:href="#m37db18c4f8" y="329.97378"/>
     <use style="fill:#0000ff;fill-opacity:0.02;" x="86.796003" xlink:href="#m37db18c4f8" y="327.508665"/>
     <use style="fill:#0000ff;fill-opacity:0.02;" x="91.237741" xlink:href="#m37db18c4f8" y="325.04355"/>
     <use style="fill:#0000ff;fill-opacity:0.02;" x="94.886312" xlink:href="#m37db18c4f8" y="322.578435"/>
     <use style="fill:#0000ff;fill-opacity:0.02;" x="95.203579" xlink:href="#m37db18c4f8" y="320.11332"/>
     <use style="fill:#0000ff;fill-opacity:0.02;" x="95.679479" xlink:href="#m37db18c4f8" y="317.648205"/>
     <use style="fill:#0000ff;fill-opacity:0.02;" x="95.838113" xlink:href="#m37db18c4f8" y="315.18309"/>
     <use style="fill:#0000ff;fill-opacity:0.02;" x="96.789914" xlink:href="#m37db18c4f8" y="312.717975"/>
     <use style="fill:#0000ff;fill-opacity:0.02;" x="97.265815" xlink:href="#m37db18c4f8" y="310.25286"/>
     <use style="fill:#0000ff;fill-opacity:0.02;" x="98.217616" xlink:href="#m37db18c4f8" y="307.787745"/>
     <use style="fill:#0000ff;fill-opacity:0.02;" x="98.534883" xlink:href="#m37db18c4f8" y="305.32263"/>
     <use style="fill:#0000ff;fill-opacity:0.02;" x="99.169417" xlink:href="#m37db18c4f8" y="302.857515"/>
     <use style="fill:#0000ff;fill-opacity:0.02;" x="99.486684" xlink:href="#m37db18c4f8" y="300.392401"/>
     <use style="fill:#0000ff;fill-opacity:0.02;" x="100.597118" xlink:href="#m37db18c4f8" y="297.927286"/>
     <use style="fill:#0000ff;fill-opacity:0.02;" x="101.866186" xlink:href="#m37db18c4f8" y="295.462171"/>
     <use style="fill:#0000ff;fill-opacity:0.02;" x="103.769789" xlink:href="#m37db18c4f8" y="292.997056"/>
     <use style="fill:#0000ff;fill-opacity:0.02;" x="104.245689" xlink:href="#m37db18c4f8" y="290.531941"/>
     <use style="fill:#0000ff;fill-opacity:0.02;" x="105.832024" xlink:href="#m37db18c4f8" y="288.066826"/>
     <use style="fill:#0000ff;fill-opacity:0.02;" x="111.542831" xlink:href="#m37db18c4f8" y="285.601711"/>
     <use style="fill:#0000ff;fill-opacity:0.02;" x="112.018731" xlink:href="#m37db18c4f8" y="283.136596"/>
     <use style="fill:#0000ff;fill-opacity:0.02;" x="112.177365" xlink:href="#m37db18c4f8" y="280.671481"/>
     <use style="fill:#0000ff;fill-opacity:0.02;" x="112.811899" xlink:href="#m37db18c4f8" y="278.206366"/>
     <use style="fill:#0000ff;fill-opacity:0.02;" x="113.922333" xlink:href="#m37db18c4f8" y="275.741251"/>
     <use style="fill:#0000ff;fill-opacity:0.02;" x="115.667302" xlink:href="#m37db18c4f8" y="273.276136"/>
     <use style="fill:#0000ff;fill-opacity:0.02;" x="115.667302" xlink:href="#m37db18c4f8" y="270.811021"/>
     <use style="fill:#0000ff;fill-opacity:0.02;" x="115.825935" xlink:href="#m37db18c4f8" y="268.345907"/>
     <use style="fill:#0000ff;fill-opacity:0.02;" x="117.570904" xlink:href="#m37db18c4f8" y="265.880792"/>
     <use style="fill:#0000ff;fill-opacity:0.02;" x="119.791773" xlink:href="#m37db18c4f8" y="263.415677"/>
     <use style="fill:#0000ff;fill-opacity:0.02;" x="119.950407" xlink:href="#m37db18c4f8" y="260.950562"/>
     <use style="fill:#0000ff;fill-opacity:0.02;" x="120.743574" xlink:href="#m37db18c4f8" y="258.485447"/>
     <use style="fill:#0000ff;fill-opacity:0.02;" x="122.647176" xlink:href="#m37db18c4f8" y="256.020332"/>
     <use style="fill:#0000ff;fill-opacity:0.02;" x="124.074878" xlink:href="#m37db18c4f8" y="253.555217"/>
     <use style="fill:#0000ff;fill-opacity:0.02;" x="124.868046" xlink:href="#m37db18c4f8" y="251.090102"/>
     <use style="fill:#0000ff;fill-opacity:0.02;" x="126.454381" xlink:href="#m37db18c4f8" y="248.624987"/>
     <use style="fill:#0000ff;fill-opacity:0.02;" x="128.67525" xlink:href="#m37db18c4f8" y="246.159872"/>
     <use style="fill:#0000ff;fill-opacity:0.02;" x="128.992517" xlink:href="#m37db18c4f8" y="243.694757"/>
     <use style="fill:#0000ff;fill-opacity:0.02;" x="129.309784" xlink:href="#m37db18c4f8" y="241.229642"/>
     <use style="fill:#0000ff;fill-opacity:0.02;" x="129.627051" xlink:href="#m37db18c4f8" y="238.764527"/>
     <use style="fill:#0000ff;fill-opacity:0.02;" x="129.785684" xlink:href="#m37db18c4f8" y="236.299412"/>
     <use style="fill:#0000ff;fill-opacity:0.02;" x="130.261585" xlink:href="#m37db18c4f8" y="233.834298"/>
     <use style="fill:#0000ff;fill-opacity:0.02;" x="131.37202" xlink:href="#m37db18c4f8" y="231.369183"/>
     <use style="fill:#0000ff;fill-opacity:0.02;" x="131.37202" xlink:href="#m37db18c4f8" y="228.904068"/>
     <use style="fill:#0000ff;fill-opacity:0.02;" x="132.165187" xlink:href="#m37db18c4f8" y="226.438953"/>
     <use style="fill:#0000ff;fill-opacity:0.02;" x="133.275622" xlink:href="#m37db18c4f8" y="223.973838"/>
     <use style="fill:#0000ff;fill-opacity:0.02;" x="133.275622" xlink:href="#m37db18c4f8" y="221.508723"/>
     <use style="fill:#0000ff;fill-opacity:0.02;" x="138.669161" xlink:href="#m37db18c4f8" y="219.043608"/>
     <use style="fill:#0000ff;fill-opacity:0.02;" x="140.731397" xlink:href="#m37db18c4f8" y="216.578493"/>
     <use style="fill:#0000ff;fill-opacity:0.02;" x="141.048664" xlink:href="#m37db18c4f8" y="214.113378"/>
     <use style="fill:#0000ff;fill-opacity:0.02;" x="141.524564" xlink:href="#m37db18c4f8" y="211.648263"/>
     <use style="fill:#0000ff;fill-opacity:0.02;" x="142.159098" xlink:href="#m37db18c4f8" y="209.183148"/>
     <use style="fill:#0000ff;fill-opacity:0.02;" x="142.634999" xlink:href="#m37db18c4f8" y="206.718033"/>
     <use style="fill:#0000ff;fill-opacity:0.02;" x="143.110899" xlink:href="#m37db18c4f8" y="204.252918"/>
     <use style="fill:#0000ff;fill-opacity:0.02;" x="143.5868" xlink:href="#m37db18c4f8" y="201.787803"/>
     <use style="fill:#0000ff;fill-opacity:0.02;" x="143.904067" xlink:href="#m37db18c4f8" y="199.322689"/>
     <use style="fill:#0000ff;fill-opacity:0.02;" x="144.0627" xlink:href="#m37db18c4f8" y="196.857574"/>
     <use style="fill:#0000ff;fill-opacity:0.02;" x="145.331769" xlink:href="#m37db18c4f8" y="194.392459"/>
     <use style="fill:#0000ff;fill-opacity:0.02;" x="147.869905" xlink:href="#m37db18c4f8" y="191.927344"/>
     <use style="fill:#0000ff;fill-opacity:0.02;" x="148.821706" xlink:href="#m37db18c4f8" y="189.462229"/>
     <use style="fill:#0000ff;fill-opacity:0.02;" x="148.980339" xlink:href="#m37db18c4f8" y="186.997114"/>
     <use style="fill:#0000ff;fill-opacity:0.02;" x="150.090774" xlink:href="#m37db18c4f8" y="184.531999"/>
     <use style="fill:#0000ff;fill-opacity:0.02;" x="150.090774" xlink:href="#m37db18c4f8" y="182.066884"/>
     <use style="fill:#0000ff;fill-opacity:0.02;" x="151.518476" xlink:href="#m37db18c4f8" y="179.601769"/>
     <use style="fill:#0000ff;fill-opacity:0.02;" x="156.118847" xlink:href="#m37db18c4f8" y="177.136654"/>
     <use style="fill:#0000ff;fill-opacity:0.02;" x="157.705182" xlink:href="#m37db18c4f8" y="174.671539"/>
     <use style="fill:#0000ff;fill-opacity:0.02;" x="157.863816" xlink:href="#m37db18c4f8" y="172.206424"/>
     <use style="fill:#0000ff;fill-opacity:0.02;" x="158.181083" xlink:href="#m37db18c4f8" y="169.741309"/>
     <use style="fill:#0000ff;fill-opacity:0.02;" x="161.353753" xlink:href="#m37db18c4f8" y="167.276194"/>
     <use style="fill:#0000ff;fill-opacity:0.02;" x="161.512387" xlink:href="#m37db18c4f8" y="164.81108"/>
     <use style="fill:#0000ff;fill-opacity:0.02;" x="162.940088" xlink:href="#m37db18c4f8" y="162.345965"/>
     <use style="fill:#0000ff;fill-opacity:0.02;" x="164.209156" xlink:href="#m37db18c4f8" y="159.88085"/>
     <use style="fill:#0000ff;fill-opacity:0.02;" x="164.526423" xlink:href="#m37db18c4f8" y="157.415735"/>
     <use style="fill:#0000ff;fill-opacity:0.02;" x="166.112759" xlink:href="#m37db18c4f8" y="154.95062"/>
     <use style="fill:#0000ff;fill-opacity:0.02;" x="168.809528" xlink:href="#m37db18c4f8" y="152.485505"/>
     <use style="fill:#0000ff;fill-opacity:0.02;" x="174.203068" xlink:href="#m37db18c4f8" y="150.02039"/>
     <use style="fill:#0000ff;fill-opacity:0.02;" x="175.313502" xlink:href="#m37db18c4f8" y="147.555275"/>
     <use style="fill:#0000ff;fill-opacity:0.02;" x="175.789403" xlink:href="#m37db18c4f8" y="145.09016"/>
     <use style="fill:#0000ff;fill-opacity:0.02;" x="176.899837" xlink:href="#m37db18c4f8" y="142.625045"/>
     <use style="fill:#0000ff;fill-opacity:0.02;" x="176.899837" xlink:href="#m37db18c4f8" y="140.15993"/>
     <use style="fill:#0000ff;fill-opacity:0.02;" x="178.327539" xlink:href="#m37db18c4f8" y="137.694815"/>
     <use style="fill:#0000ff;fill-opacity:0.02;" x="178.80344" xlink:href="#m37db18c4f8" y="135.2297"/>
     <use style="fill:#0000ff;fill-opacity:0.02;" x="180.389775" xlink:href="#m37db18c4f8" y="132.764585"/>
     <use style="fill:#0000ff;fill-opacity:0.02;" x="182.610644" xlink:href="#m37db18c4f8" y="130.299471"/>
     <use style="fill:#0000ff;fill-opacity:0.02;" x="182.927911" xlink:href="#m37db18c4f8" y="127.834356"/>
     <use style="fill:#0000ff;fill-opacity:0.02;" x="184.672879" xlink:href="#m37db18c4f8" y="125.369241"/>
     <use style="fill:#0000ff;fill-opacity:0.02;" x="185.466047" xlink:href="#m37db18c4f8" y="122.904126"/>
     <use style="fill:#0000ff;fill-opacity:0.02;" x="186.735115" xlink:href="#m37db18c4f8" y="120.439011"/>
     <use style="fill:#0000ff;fill-opacity:0.02;" x="188.162817" xlink:href="#m37db18c4f8" y="117.973896"/>
     <use style="fill:#0000ff;fill-opacity:0.02;" x="189.114618" xlink:href="#m37db18c4f8" y="115.508781"/>
     <use style="fill:#0000ff;fill-opacity:0.02;" x="189.907785" xlink:href="#m37db18c4f8" y="113.043666"/>
     <use style="fill:#0000ff;fill-opacity:0.02;" x="191.176853" xlink:href="#m37db18c4f8" y="110.578551"/>
     <use style="fill:#0000ff;fill-opacity:0.02;" x="191.335487" xlink:href="#m37db18c4f8" y="108.113436"/>
     <use style="fill:#0000ff;fill-opacity:0.02;" x="192.604555" xlink:href="#m37db18c4f8" y="105.648321"/>
     <use style="fill:#0000ff;fill-opacity:0.02;" x="194.349524" xlink:href="#m37db18c4f8" y="103.183206"/>
     <use style="fill:#0000ff;fill-opacity:0.02;" x="197.046293" xlink:href="#m37db18c4f8" y="100.718091"/>
     <use style="fill:#0000ff;fill-opacity:0.02;" x="199.58443" xlink:href="#m37db18c4f8" y="98.252976"/>
     <use style="fill:#0000ff;fill-opacity:0.02;" x="200.377597" xlink:href="#m37db18c4f8" y="95.787862"/>
     <use style="fill:#0000ff;fill-opacity:0.02;" x="206.564304" xlink:href="#m37db18c4f8" y="93.322747"/>
     <use style="fill:#0000ff;fill-opacity:0.02;" x="210.054241" xlink:href="#m37db18c4f8" y="90.857632"/>
     <use style="fill:#0000ff;fill-opacity:0.02;" x="210.054241" xlink:href="#m37db18c4f8" y="88.392517"/>
     <use style="fill:#0000ff;fill-opacity:0.02;" x="211.640576" xlink:href="#m37db18c4f8" y="85.927402"/>
     <use style="fill:#0000ff;fill-opacity:0.02;" x="213.544179" xlink:href="#m37db18c4f8" y="83.462287"/>
     <use style="fill:#0000ff;fill-opacity:0.02;" x="214.337346" xlink:href="#m37db18c4f8" y="80.997172"/>
     <use style="fill:#0000ff;fill-opacity:0.02;" x="214.97188" xlink:href="#m37db18c4f8" y="78.532057"/>
     <use style="fill:#0000ff;fill-opacity:0.02;" x="220.048153" xlink:href="#m37db18c4f8" y="76.066942"/>
     <use style="fill:#0000ff;fill-opacity:0.02;" x="220.999954" xlink:href="#m37db18c4f8" y="73.601827"/>
     <use style="fill:#0000ff;fill-opacity:0.02;" x="224.648524" xlink:href="#m37db18c4f8" y="71.136712"/>
     <use style="fill:#0000ff;fill-opacity:0.02;" x="228.297095" xlink:href="#m37db18c4f8" y="68.671597"/>
     <use style="fill:#0000ff;fill-opacity:0.02;" x="230.200697" xlink:href="#m37db18c4f8" y="66.206482"/>
     <use style="fill:#0000ff;fill-opacity:0.02;" x="230.517964" xlink:href="#m37db18c4f8" y="63.741368"/>
     <use style="fill:#0000ff;fill-opacity:0.02;" x="230.517964" xlink:href="#m37db18c4f8" y="61.276253"/>
     <use style="fill:#0000ff;fill-opacity:0.02;" x="231.628399" xlink:href="#m37db18c4f8" y="58.811138"/>
     <use style="fill:#0000ff;fill-opacity:0.02;" x="234.483802" xlink:href="#m37db18c4f8" y="56.346023"/>
     <use style="fill:#0000ff;fill-opacity:0.02;" x="240.194608" xlink:href="#m37db18c4f8" y="53.880908"/>
     <use style="fill:#0000ff;fill-opacity:0.02;" x="253.995724" xlink:href="#m37db18c4f8" y="51.415793"/>
     <use style="fill:#0000ff;fill-opacity:0.02;" x="257.644295" xlink:href="#m37db18c4f8" y="48.950678"/>
     <use style="fill:#0000ff;fill-opacity:0.02;" x="269.541808" xlink:href="#m37db18c4f8" y="46.485563"/>
     <use style="fill:#0000ff;fill-opacity:0.02;" x="295.874971" xlink:href="#m37db18c4f8" y="44.020448"/>
     <use style="fill:#0000ff;fill-opacity:0.02;" x="303.806647" xlink:href="#m37db18c4f8" y="41.555333"/>
     <use style="fill:#0000ff;fill-opacity:0.02;" x="306.979317" xlink:href="#m37db18c4f8" y="39.090218"/>
     <use style="fill:#0000ff;fill-opacity:0.02;" x="312.53149" xlink:href="#m37db18c4f8" y="36.625103"/>
     <use style="fill:#0000ff;fill-opacity:0.02;" x="317.131862" xlink:href="#m37db18c4f8" y="34.159988"/>
     <use style="fill:#0000ff;fill-opacity:0.02;" x="319.194097" xlink:href="#m37db18c4f8" y="31.694873"/>
     <use style="fill:#0000ff;fill-opacity:0.02;" x="409.773832" xlink:href="#m37db18c4f8" y="29.229759"/>
    </g>
   </g>
   <g id="patch_3">
    <path d="M 33.86 370.894688 
L 33.86 12.96 
" style="fill:none;"/>
   </g>
   <g id="patch_4">
    <path d="M 528.384109 370.894688 
L 528.384109 12.96 
" style="fill:none;"/>
   </g>
   <g id="patch_5">
    <path d="M 33.86 370.894688 
L 528.384109 370.894688 
" style="fill:none;"/>
   </g>
   <g id="patch_6">
    <path d="M 33.86 12.96 
L 528.384109 12.96 
" style="fill:none;"/>
   </g>
  </g>
 </g>
 <defs>
  <clipPath id="pb7d49e5a1b">
   <rect height="357.934688" width="494.524109" x="33.86" y="12.96"/>
  </clipPath>
 </defs>
</svg>
