<?xml version="1.0" encoding="utf-8" standalone="no"?>
<!DOCTYPE svg PUBLIC "-//W3C//DTD SVG 1.1//EN"
  "http://www.w3.org/Graphics/SVG/1.1/DTD/svg11.dtd">
<!-- Created with matplotlib (https://matplotlib.org/) -->
<svg height="400pt" version="1.1" viewBox="0 0 549 400" width="549pt" xmlns="http://www.w3.org/2000/svg" xmlns:xlink="http://www.w3.org/1999/xlink">
 <defs>
  <style type="text/css">
*{stroke-linecap:butt;stroke-linejoin:round;}
  </style>
 </defs>
 <g id="figure_1">
  <g id="patch_1">
   <path d="M 0 400 
L 549 400 
L 549 0 
L 0 0 
z
" style="fill:#ffffff;"/>
  </g>
  <g id="axes_1">
   <g id="patch_2">
    <path d="M 33.86 370.894688 
L 527.334474 370.894688 
L 527.334474 12.96 
L 33.86 12.96 
z
" style="fill:#eaeaf2;"/>
   </g>
   <g id="matplotlib.axis_1">
    <g id="xtick_1">
     <g id="line2d_1">
      <path clip-path="url(#p7c37e3faa4)" d="M 52.808128 370.894688 
L 52.808128 12.96 
" style="fill:none;stroke:#ffffff;stroke-linecap:round;"/>
     </g>
     <g id="line2d_2"/>
     <g id="text_1">
      <!-- 0 -->
      <defs>
       <path d="M 4.15625 35.296875 
Q 4.15625 48 6.765625 55.734375 
Q 9.375 63.484375 14.515625 67.671875 
Q 19.671875 71.875 27.484375 71.875 
Q 33.25 71.875 37.59375 69.546875 
Q 41.9375 67.234375 44.765625 62.859375 
Q 47.609375 58.5 49.21875 52.21875 
Q 50.828125 45.953125 50.828125 35.296875 
Q 50.828125 22.703125 48.234375 14.96875 
Q 45.65625 7.234375 40.5 3 
Q 35.359375 -1.21875 27.484375 -1.21875 
Q 17.140625 -1.21875 11.234375 6.203125 
Q 4.15625 15.140625 4.15625 35.296875 
z
M 13.1875 35.296875 
Q 13.1875 17.671875 17.3125 11.828125 
Q 21.4375 6 27.484375 6 
Q 33.546875 6 37.671875 11.859375 
Q 41.796875 17.71875 41.796875 35.296875 
Q 41.796875 52.984375 37.671875 58.78125 
Q 33.546875 64.59375 27.390625 64.59375 
Q 21.34375 64.59375 17.71875 59.46875 
Q 13.1875 52.9375 13.1875 35.296875 
z
" id="ArialMT-48"/>
      </defs>
      <g style="fill:#262626;" transform="translate(50.027659 385.0525)scale(0.1 -0.1)">
       <use xlink:href="#ArialMT-48"/>
      </g>
     </g>
    </g>
    <g id="xtick_2">
     <g id="line2d_3">
      <path clip-path="url(#p7c37e3faa4)" d="M 131.956533 370.894688 
L 131.956533 12.96 
" style="fill:none;stroke:#ffffff;stroke-linecap:round;"/>
     </g>
     <g id="line2d_4"/>
     <g id="text_2">
      <!-- 50 -->
      <defs>
       <path d="M 4.15625 18.75 
L 13.375 19.53125 
Q 14.40625 12.796875 18.140625 9.390625 
Q 21.875 6 27.15625 6 
Q 33.5 6 37.890625 10.78125 
Q 42.28125 15.578125 42.28125 23.484375 
Q 42.28125 31 38.0625 35.34375 
Q 33.84375 39.703125 27 39.703125 
Q 22.75 39.703125 19.328125 37.765625 
Q 15.921875 35.84375 13.96875 32.765625 
L 5.71875 33.84375 
L 12.640625 70.609375 
L 48.25 70.609375 
L 48.25 62.203125 
L 19.671875 62.203125 
L 15.828125 42.96875 
Q 22.265625 47.46875 29.34375 47.46875 
Q 38.71875 47.46875 45.15625 40.96875 
Q 51.609375 34.46875 51.609375 24.265625 
Q 51.609375 14.546875 45.953125 7.46875 
Q 39.0625 -1.21875 27.15625 -1.21875 
Q 17.390625 -1.21875 11.203125 4.25 
Q 5.03125 9.71875 4.15625 18.75 
z
" id="ArialMT-53"/>
      </defs>
      <g style="fill:#262626;" transform="translate(126.395595 385.0525)scale(0.1 -0.1)">
       <use xlink:href="#ArialMT-53"/>
       <use x="55.615234" xlink:href="#ArialMT-48"/>
      </g>
     </g>
    </g>
    <g id="xtick_3">
     <g id="line2d_5">
      <path clip-path="url(#p7c37e3faa4)" d="M 211.104938 370.894688 
L 211.104938 12.96 
" style="fill:none;stroke:#ffffff;stroke-linecap:round;"/>
     </g>
     <g id="line2d_6"/>
     <g id="text_3">
      <!-- 100 -->
      <defs>
       <path d="M 37.25 0 
L 28.46875 0 
L 28.46875 56 
Q 25.296875 52.984375 20.140625 49.953125 
Q 14.984375 46.921875 10.890625 45.40625 
L 10.890625 53.90625 
Q 18.265625 57.375 23.78125 62.296875 
Q 29.296875 67.234375 31.59375 71.875 
L 37.25 71.875 
z
" id="ArialMT-49"/>
      </defs>
      <g style="fill:#262626;" transform="translate(202.763531 385.0525)scale(0.1 -0.1)">
       <use xlink:href="#ArialMT-49"/>
       <use x="55.615234" xlink:href="#ArialMT-48"/>
       <use x="111.230469" xlink:href="#ArialMT-48"/>
      </g>
     </g>
    </g>
    <g id="xtick_4">
     <g id="line2d_7">
      <path clip-path="url(#p7c37e3faa4)" d="M 290.253342 370.894688 
L 290.253342 12.96 
" style="fill:none;stroke:#ffffff;stroke-linecap:round;"/>
     </g>
     <g id="line2d_8"/>
     <g id="text_4">
      <!-- 150 -->
      <g style="fill:#262626;" transform="translate(281.911936 385.0525)scale(0.1 -0.1)">
       <use xlink:href="#ArialMT-49"/>
       <use x="55.615234" xlink:href="#ArialMT-53"/>
       <use x="111.230469" xlink:href="#ArialMT-48"/>
      </g>
     </g>
    </g>
    <g id="xtick_5">
     <g id="line2d_9">
      <path clip-path="url(#p7c37e3faa4)" d="M 369.401747 370.894688 
L 369.401747 12.96 
" style="fill:none;stroke:#ffffff;stroke-linecap:round;"/>
     </g>
     <g id="line2d_10"/>
     <g id="text_5">
      <!-- 200 -->
      <defs>
       <path d="M 50.34375 8.453125 
L 50.34375 0 
L 3.03125 0 
Q 2.9375 3.171875 4.046875 6.109375 
Q 5.859375 10.9375 9.828125 15.625 
Q 13.8125 20.3125 21.34375 26.46875 
Q 33.015625 36.03125 37.109375 41.625 
Q 41.21875 47.21875 41.21875 52.203125 
Q 41.21875 57.421875 37.46875 61 
Q 33.734375 64.59375 27.734375 64.59375 
Q 21.390625 64.59375 17.578125 60.78125 
Q 13.765625 56.984375 13.71875 50.25 
L 4.6875 51.171875 
Q 5.609375 61.28125 11.65625 66.578125 
Q 17.71875 71.875 27.9375 71.875 
Q 38.234375 71.875 44.234375 66.15625 
Q 50.25 60.453125 50.25 52 
Q 50.25 47.703125 48.484375 43.546875 
Q 46.734375 39.40625 42.65625 34.8125 
Q 38.578125 30.21875 29.109375 22.21875 
Q 21.1875 15.578125 18.9375 13.203125 
Q 16.703125 10.84375 15.234375 8.453125 
z
" id="ArialMT-50"/>
      </defs>
      <g style="fill:#262626;" transform="translate(361.060341 385.0525)scale(0.1 -0.1)">
       <use xlink:href="#ArialMT-50"/>
       <use x="55.615234" xlink:href="#ArialMT-48"/>
       <use x="111.230469" xlink:href="#ArialMT-48"/>
      </g>
     </g>
    </g>
    <g id="xtick_6">
     <g id="line2d_11">
      <path clip-path="url(#p7c37e3faa4)" d="M 448.550152 370.894688 
L 448.550152 12.96 
" style="fill:none;stroke:#ffffff;stroke-linecap:round;"/>
     </g>
     <g id="line2d_12"/>
     <g id="text_6">
      <!-- 250 -->
      <g style="fill:#262626;" transform="translate(440.208746 385.0525)scale(0.1 -0.1)">
       <use xlink:href="#ArialMT-50"/>
       <use x="55.615234" xlink:href="#ArialMT-53"/>
       <use x="111.230469" xlink:href="#ArialMT-48"/>
      </g>
     </g>
    </g>
    <g id="xtick_7">
     <g id="line2d_13">
      <path clip-path="url(#p7c37e3faa4)" d="M 527.698557 370.894688 
L 527.698557 12.96 
" style="fill:none;stroke:#ffffff;stroke-linecap:round;"/>
     </g>
     <g id="line2d_14"/>
     <g id="text_7">
      <!-- 300 -->
      <defs>
       <path d="M 4.203125 18.890625 
L 12.984375 20.0625 
Q 14.5 12.59375 18.140625 9.296875 
Q 21.78125 6 27 6 
Q 33.203125 6 37.46875 10.296875 
Q 41.75 14.59375 41.75 20.953125 
Q 41.75 27 37.796875 30.921875 
Q 33.84375 34.859375 27.734375 34.859375 
Q 25.25 34.859375 21.53125 33.890625 
L 22.515625 41.609375 
Q 23.390625 41.5 23.921875 41.5 
Q 29.546875 41.5 34.03125 44.421875 
Q 38.53125 47.359375 38.53125 53.46875 
Q 38.53125 58.296875 35.25 61.46875 
Q 31.984375 64.65625 26.8125 64.65625 
Q 21.6875 64.65625 18.265625 61.421875 
Q 14.84375 58.203125 13.875 51.765625 
L 5.078125 53.328125 
Q 6.6875 62.15625 12.390625 67.015625 
Q 18.109375 71.875 26.609375 71.875 
Q 32.46875 71.875 37.390625 69.359375 
Q 42.328125 66.84375 44.9375 62.5 
Q 47.5625 58.15625 47.5625 53.265625 
Q 47.5625 48.640625 45.0625 44.828125 
Q 42.578125 41.015625 37.703125 38.765625 
Q 44.046875 37.3125 47.5625 32.6875 
Q 51.078125 28.078125 51.078125 21.140625 
Q 51.078125 11.765625 44.234375 5.25 
Q 37.40625 -1.265625 26.953125 -1.265625 
Q 17.53125 -1.265625 11.296875 4.34375 
Q 5.078125 9.96875 4.203125 18.890625 
z
" id="ArialMT-51"/>
      </defs>
      <g style="fill:#262626;" transform="translate(519.35715 385.0525)scale(0.1 -0.1)">
       <use xlink:href="#ArialMT-51"/>
       <use x="55.615234" xlink:href="#ArialMT-48"/>
       <use x="111.230469" xlink:href="#ArialMT-48"/>
      </g>
     </g>
    </g>
   </g>
   <g id="matplotlib.axis_2">
    <g id="ytick_1">
     <g id="line2d_15">
      <path clip-path="url(#p7c37e3faa4)" d="M 33.86 357.090044 
L 527.334474 357.090044 
" style="fill:none;stroke:#ffffff;stroke-linecap:round;"/>
     </g>
     <g id="line2d_16"/>
     <g id="text_8">
      <!-- 0.0 -->
      <defs>
       <path d="M 9.078125 0 
L 9.078125 10.015625 
L 19.09375 10.015625 
L 19.09375 0 
z
" id="ArialMT-46"/>
      </defs>
      <g style="fill:#262626;" transform="translate(12.96 360.66895)scale(0.1 -0.1)">
       <use xlink:href="#ArialMT-48"/>
       <use x="55.615234" xlink:href="#ArialMT-46"/>
       <use x="83.398438" xlink:href="#ArialMT-48"/>
      </g>
     </g>
    </g>
    <g id="ytick_2">
     <g id="line2d_17">
      <path clip-path="url(#p7c37e3faa4)" d="M 33.86 291.517987 
L 527.334474 291.517987 
" style="fill:none;stroke:#ffffff;stroke-linecap:round;"/>
     </g>
     <g id="line2d_18"/>
     <g id="text_9">
      <!-- 0.2 -->
      <g style="fill:#262626;" transform="translate(12.96 295.096893)scale(0.1 -0.1)">
       <use xlink:href="#ArialMT-48"/>
       <use x="55.615234" xlink:href="#ArialMT-46"/>
       <use x="83.398438" xlink:href="#ArialMT-50"/>
      </g>
     </g>
    </g>
    <g id="ytick_3">
     <g id="line2d_19">
      <path clip-path="url(#p7c37e3faa4)" d="M 33.86 225.94593 
L 527.334474 225.94593 
" style="fill:none;stroke:#ffffff;stroke-linecap:round;"/>
     </g>
     <g id="line2d_20"/>
     <g id="text_10">
      <!-- 0.4 -->
      <defs>
       <path d="M 32.328125 0 
L 32.328125 17.140625 
L 1.265625 17.140625 
L 1.265625 25.203125 
L 33.9375 71.578125 
L 41.109375 71.578125 
L 41.109375 25.203125 
L 50.78125 25.203125 
L 50.78125 17.140625 
L 41.109375 17.140625 
L 41.109375 0 
z
M 32.328125 25.203125 
L 32.328125 57.46875 
L 9.90625 25.203125 
z
" id="ArialMT-52"/>
      </defs>
      <g style="fill:#262626;" transform="translate(12.96 229.524836)scale(0.1 -0.1)">
       <use xlink:href="#ArialMT-48"/>
       <use x="55.615234" xlink:href="#ArialMT-46"/>
       <use x="83.398438" xlink:href="#ArialMT-52"/>
      </g>
     </g>
    </g>
    <g id="ytick_4">
     <g id="line2d_21">
      <path clip-path="url(#p7c37e3faa4)" d="M 33.86 160.373873 
L 527.334474 160.373873 
" style="fill:none;stroke:#ffffff;stroke-linecap:round;"/>
     </g>
     <g id="line2d_22"/>
     <g id="text_11">
      <!-- 0.6 -->
      <defs>
       <path d="M 49.75 54.046875 
L 41.015625 53.375 
Q 39.84375 58.546875 37.703125 60.890625 
Q 34.125 64.65625 28.90625 64.65625 
Q 24.703125 64.65625 21.53125 62.3125 
Q 17.390625 59.28125 14.984375 53.46875 
Q 12.59375 47.65625 12.5 36.921875 
Q 15.671875 41.75 20.265625 44.09375 
Q 24.859375 46.4375 29.890625 46.4375 
Q 38.671875 46.4375 44.84375 39.96875 
Q 51.03125 33.5 51.03125 23.25 
Q 51.03125 16.5 48.125 10.71875 
Q 45.21875 4.9375 40.140625 1.859375 
Q 35.0625 -1.21875 28.609375 -1.21875 
Q 17.625 -1.21875 10.6875 6.859375 
Q 3.765625 14.9375 3.765625 33.5 
Q 3.765625 54.25 11.421875 63.671875 
Q 18.109375 71.875 29.4375 71.875 
Q 37.890625 71.875 43.28125 67.140625 
Q 48.6875 62.40625 49.75 54.046875 
z
M 13.875 23.1875 
Q 13.875 18.65625 15.796875 14.5 
Q 17.71875 10.359375 21.1875 8.171875 
Q 24.65625 6 28.46875 6 
Q 34.03125 6 38.03125 10.484375 
Q 42.046875 14.984375 42.046875 22.703125 
Q 42.046875 30.125 38.078125 34.390625 
Q 34.125 38.671875 28.125 38.671875 
Q 22.171875 38.671875 18.015625 34.390625 
Q 13.875 30.125 13.875 23.1875 
z
" id="ArialMT-54"/>
      </defs>
      <g style="fill:#262626;" transform="translate(12.96 163.952779)scale(0.1 -0.1)">
       <use xlink:href="#ArialMT-48"/>
       <use x="55.615234" xlink:href="#ArialMT-46"/>
       <use x="83.398438" xlink:href="#ArialMT-54"/>
      </g>
     </g>
    </g>
    <g id="ytick_5">
     <g id="line2d_23">
      <path clip-path="url(#p7c37e3faa4)" d="M 33.86 94.801816 
L 527.334474 94.801816 
" style="fill:none;stroke:#ffffff;stroke-linecap:round;"/>
     </g>
     <g id="line2d_24"/>
     <g id="text_12">
      <!-- 0.8 -->
      <defs>
       <path d="M 17.671875 38.8125 
Q 12.203125 40.828125 9.5625 44.53125 
Q 6.9375 48.25 6.9375 53.421875 
Q 6.9375 61.234375 12.546875 66.546875 
Q 18.171875 71.875 27.484375 71.875 
Q 36.859375 71.875 42.578125 66.421875 
Q 48.296875 60.984375 48.296875 53.171875 
Q 48.296875 48.1875 45.671875 44.5 
Q 43.0625 40.828125 37.75 38.8125 
Q 44.34375 36.671875 47.78125 31.875 
Q 51.21875 27.09375 51.21875 20.453125 
Q 51.21875 11.28125 44.71875 5.03125 
Q 38.234375 -1.21875 27.640625 -1.21875 
Q 17.046875 -1.21875 10.546875 5.046875 
Q 4.046875 11.328125 4.046875 20.703125 
Q 4.046875 27.6875 7.59375 32.390625 
Q 11.140625 37.109375 17.671875 38.8125 
z
M 15.921875 53.71875 
Q 15.921875 48.640625 19.1875 45.40625 
Q 22.46875 42.1875 27.6875 42.1875 
Q 32.765625 42.1875 36.015625 45.375 
Q 39.265625 48.578125 39.265625 53.21875 
Q 39.265625 58.0625 35.90625 61.359375 
Q 32.5625 64.65625 27.59375 64.65625 
Q 22.5625 64.65625 19.234375 61.421875 
Q 15.921875 58.203125 15.921875 53.71875 
z
M 13.09375 20.65625 
Q 13.09375 16.890625 14.875 13.375 
Q 16.65625 9.859375 20.171875 7.921875 
Q 23.6875 6 27.734375 6 
Q 34.03125 6 38.125 10.046875 
Q 42.234375 14.109375 42.234375 20.359375 
Q 42.234375 26.703125 38.015625 30.859375 
Q 33.796875 35.015625 27.4375 35.015625 
Q 21.234375 35.015625 17.15625 30.90625 
Q 13.09375 26.8125 13.09375 20.65625 
z
" id="ArialMT-56"/>
      </defs>
      <g style="fill:#262626;" transform="translate(12.96 98.380722)scale(0.1 -0.1)">
       <use xlink:href="#ArialMT-48"/>
       <use x="55.615234" xlink:href="#ArialMT-46"/>
       <use x="83.398438" xlink:href="#ArialMT-56"/>
      </g>
     </g>
    </g>
    <g id="ytick_6">
     <g id="line2d_25">
      <path clip-path="url(#p7c37e3faa4)" d="M 33.86 29.229759 
L 527.334474 29.229759 
" style="fill:none;stroke:#ffffff;stroke-linecap:round;"/>
     </g>
     <g id="line2d_26"/>
     <g id="text_13">
      <!-- 1.0 -->
      <g style="fill:#262626;" transform="translate(12.96 32.808665)scale(0.1 -0.1)">
       <use xlink:href="#ArialMT-49"/>
       <use x="55.615234" xlink:href="#ArialMT-46"/>
       <use x="83.398438" xlink:href="#ArialMT-48"/>
      </g>
     </g>
    </g>
   </g>
   <g id="line2d_27">
    <defs>
     <path d="M 0 1.75 
C 0.464105 1.75 0.909265 1.565609 1.237437 1.237437 
C 1.565609 0.909265 1.75 0.464105 1.75 0 
C 1.75 -0.464105 1.565609 -0.909265 1.237437 -1.237437 
C 0.909265 -1.565609 0.464105 -1.75 0 -1.75 
C -0.464105 -1.75 -0.909265 -1.565609 -1.237437 -1.237437 
C -1.565609 -0.909265 -1.75 -0.464105 -1.75 0 
C -1.75 0.464105 -1.565609 0.909265 -1.237437 1.237437 
C -0.909265 1.565609 -0.464105 1.75 0 1.75 
z
" id="mbc78d86266"/>
    </defs>
    <g clip-path="url(#p7c37e3faa4)">
     <use style="fill:#ff0000;" x="56.290658" xlink:href="#mbc78d86266" y="354.624929"/>
     <use style="fill:#ff0000;" x="62.305937" xlink:href="#mbc78d86266" y="352.159814"/>
     <use style="fill:#ff0000;" x="62.464233" xlink:href="#mbc78d86266" y="349.694699"/>
     <use style="fill:#ff0000;" x="64.838686" xlink:href="#mbc78d86266" y="347.229584"/>
     <use style="fill:#ff0000;" x="66.10506" xlink:href="#mbc78d86266" y="344.764469"/>
     <use style="fill:#ff0000;" x="68.321215" xlink:href="#mbc78d86266" y="342.299354"/>
     <use style="fill:#ff0000;" x="70.537371" xlink:href="#mbc78d86266" y="339.834239"/>
     <use style="fill:#ff0000;" x="70.695668" xlink:href="#mbc78d86266" y="337.369124"/>
     <use style="fill:#ff0000;" x="71.645448" xlink:href="#mbc78d86266" y="334.90401"/>
     <use style="fill:#ff0000;" x="73.703307" xlink:href="#mbc78d86266" y="332.438895"/>
     <use style="fill:#ff0000;" x="73.861604" xlink:href="#mbc78d86266" y="329.97378"/>
     <use style="fill:#ff0000;" x="74.178197" xlink:href="#mbc78d86266" y="327.508665"/>
     <use style="fill:#ff0000;" x="74.494791" xlink:href="#mbc78d86266" y="325.04355"/>
     <use style="fill:#ff0000;" x="75.919462" xlink:href="#mbc78d86266" y="322.578435"/>
     <use style="fill:#ff0000;" x="76.077759" xlink:href="#mbc78d86266" y="320.11332"/>
     <use style="fill:#ff0000;" x="76.236056" xlink:href="#mbc78d86266" y="317.648205"/>
     <use style="fill:#ff0000;" x="76.710946" xlink:href="#mbc78d86266" y="315.18309"/>
     <use style="fill:#ff0000;" x="79.085398" xlink:href="#mbc78d86266" y="312.717975"/>
     <use style="fill:#ff0000;" x="80.035179" xlink:href="#mbc78d86266" y="310.25286"/>
     <use style="fill:#ff0000;" x="80.193476" xlink:href="#mbc78d86266" y="307.787745"/>
     <use style="fill:#ff0000;" x="83.834303" xlink:href="#mbc78d86266" y="305.32263"/>
     <use style="fill:#ff0000;" x="85.733864" xlink:href="#mbc78d86266" y="302.857515"/>
     <use style="fill:#ff0000;" x="89.691285" xlink:href="#mbc78d86266" y="300.392401"/>
     <use style="fill:#ff0000;" x="91.115956" xlink:href="#mbc78d86266" y="297.927286"/>
     <use style="fill:#ff0000;" x="94.756783" xlink:href="#mbc78d86266" y="295.462171"/>
     <use style="fill:#ff0000;" x="95.073376" xlink:href="#mbc78d86266" y="292.997056"/>
     <use style="fill:#ff0000;" x="95.706563" xlink:href="#mbc78d86266" y="290.531941"/>
     <use style="fill:#ff0000;" x="96.339751" xlink:href="#mbc78d86266" y="288.066826"/>
     <use style="fill:#ff0000;" x="96.656344" xlink:href="#mbc78d86266" y="285.601711"/>
     <use style="fill:#ff0000;" x="97.764422" xlink:href="#mbc78d86266" y="283.136596"/>
     <use style="fill:#ff0000;" x="99.34739" xlink:href="#mbc78d86266" y="280.671481"/>
     <use style="fill:#ff0000;" x="99.980577" xlink:href="#mbc78d86266" y="278.206366"/>
     <use style="fill:#ff0000;" x="100.455468" xlink:href="#mbc78d86266" y="275.741251"/>
     <use style="fill:#ff0000;" x="101.405249" xlink:href="#mbc78d86266" y="273.276136"/>
     <use style="fill:#ff0000;" x="101.721842" xlink:href="#mbc78d86266" y="270.811021"/>
     <use style="fill:#ff0000;" x="103.146514" xlink:href="#mbc78d86266" y="268.345907"/>
     <use style="fill:#ff0000;" x="103.621404" xlink:href="#mbc78d86266" y="265.880792"/>
     <use style="fill:#ff0000;" x="103.937998" xlink:href="#mbc78d86266" y="263.415677"/>
     <use style="fill:#ff0000;" x="105.679262" xlink:href="#mbc78d86266" y="260.950562"/>
     <use style="fill:#ff0000;" x="106.470747" xlink:href="#mbc78d86266" y="258.485447"/>
     <use style="fill:#ff0000;" x="106.629043" xlink:href="#mbc78d86266" y="256.020332"/>
     <use style="fill:#ff0000;" x="108.053715" xlink:href="#mbc78d86266" y="253.555217"/>
     <use style="fill:#ff0000;" x="112.011135" xlink:href="#mbc78d86266" y="251.090102"/>
     <use style="fill:#ff0000;" x="112.644322" xlink:href="#mbc78d86266" y="248.624987"/>
     <use style="fill:#ff0000;" x="112.960916" xlink:href="#mbc78d86266" y="246.159872"/>
     <use style="fill:#ff0000;" x="115.018774" xlink:href="#mbc78d86266" y="243.694757"/>
     <use style="fill:#ff0000;" x="115.493665" xlink:href="#mbc78d86266" y="241.229642"/>
     <use style="fill:#ff0000;" x="115.493665" xlink:href="#mbc78d86266" y="238.764527"/>
     <use style="fill:#ff0000;" x="115.651961" xlink:href="#mbc78d86266" y="236.299412"/>
     <use style="fill:#ff0000;" x="116.760039" xlink:href="#mbc78d86266" y="233.834298"/>
     <use style="fill:#ff0000;" x="117.551523" xlink:href="#mbc78d86266" y="231.369183"/>
     <use style="fill:#ff0000;" x="118.026414" xlink:href="#mbc78d86266" y="228.904068"/>
     <use style="fill:#ff0000;" x="118.343007" xlink:href="#mbc78d86266" y="226.438953"/>
     <use style="fill:#ff0000;" x="119.609382" xlink:href="#mbc78d86266" y="223.973838"/>
     <use style="fill:#ff0000;" x="121.19235" xlink:href="#mbc78d86266" y="221.508723"/>
     <use style="fill:#ff0000;" x="121.508943" xlink:href="#mbc78d86266" y="219.043608"/>
     <use style="fill:#ff0000;" x="122.300427" xlink:href="#mbc78d86266" y="216.578493"/>
     <use style="fill:#ff0000;" x="122.458724" xlink:href="#mbc78d86266" y="214.113378"/>
     <use style="fill:#ff0000;" x="123.883396" xlink:href="#mbc78d86266" y="211.648263"/>
     <use style="fill:#ff0000;" x="124.67488" xlink:href="#mbc78d86266" y="209.183148"/>
     <use style="fill:#ff0000;" x="126.257848" xlink:href="#mbc78d86266" y="206.718033"/>
     <use style="fill:#ff0000;" x="126.574441" xlink:href="#mbc78d86266" y="204.252918"/>
     <use style="fill:#ff0000;" x="128.474003" xlink:href="#mbc78d86266" y="201.787803"/>
     <use style="fill:#ff0000;" x="128.790597" xlink:href="#mbc78d86266" y="199.322689"/>
     <use style="fill:#ff0000;" x="129.423784" xlink:href="#mbc78d86266" y="196.857574"/>
     <use style="fill:#ff0000;" x="129.582081" xlink:href="#mbc78d86266" y="194.392459"/>
     <use style="fill:#ff0000;" x="131.165049" xlink:href="#mbc78d86266" y="191.927344"/>
     <use style="fill:#ff0000;" x="132.906314" xlink:href="#mbc78d86266" y="189.462229"/>
     <use style="fill:#ff0000;" x="135.439063" xlink:href="#mbc78d86266" y="186.997114"/>
     <use style="fill:#ff0000;" x="137.496921" xlink:href="#mbc78d86266" y="184.531999"/>
     <use style="fill:#ff0000;" x="138.446702" xlink:href="#mbc78d86266" y="182.066884"/>
     <use style="fill:#ff0000;" x="139.713077" xlink:href="#mbc78d86266" y="179.601769"/>
     <use style="fill:#ff0000;" x="140.662857" xlink:href="#mbc78d86266" y="177.136654"/>
     <use style="fill:#ff0000;" x="141.296045" xlink:href="#mbc78d86266" y="174.671539"/>
     <use style="fill:#ff0000;" x="141.454341" xlink:href="#mbc78d86266" y="172.206424"/>
     <use style="fill:#ff0000;" x="141.929232" xlink:href="#mbc78d86266" y="169.741309"/>
     <use style="fill:#ff0000;" x="142.562419" xlink:href="#mbc78d86266" y="167.276194"/>
     <use style="fill:#ff0000;" x="143.195606" xlink:href="#mbc78d86266" y="164.81108"/>
     <use style="fill:#ff0000;" x="143.353903" xlink:href="#mbc78d86266" y="162.345965"/>
     <use style="fill:#ff0000;" x="148.261104" xlink:href="#mbc78d86266" y="159.88085"/>
     <use style="fill:#ff0000;" x="148.735995" xlink:href="#mbc78d86266" y="157.415735"/>
     <use style="fill:#ff0000;" x="149.369182" xlink:href="#mbc78d86266" y="154.95062"/>
     <use style="fill:#ff0000;" x="149.844072" xlink:href="#mbc78d86266" y="152.485505"/>
     <use style="fill:#ff0000;" x="150.635556" xlink:href="#mbc78d86266" y="150.02039"/>
     <use style="fill:#ff0000;" x="151.743634" xlink:href="#mbc78d86266" y="147.555275"/>
     <use style="fill:#ff0000;" x="153.801493" xlink:href="#mbc78d86266" y="145.09016"/>
     <use style="fill:#ff0000;" x="155.859351" xlink:href="#mbc78d86266" y="142.625045"/>
     <use style="fill:#ff0000;" x="157.442319" xlink:href="#mbc78d86266" y="140.15993"/>
     <use style="fill:#ff0000;" x="157.600616" xlink:href="#mbc78d86266" y="137.694815"/>
     <use style="fill:#ff0000;" x="157.91721" xlink:href="#mbc78d86266" y="135.2297"/>
     <use style="fill:#ff0000;" x="161.083146" xlink:href="#mbc78d86266" y="132.764585"/>
     <use style="fill:#ff0000;" x="161.241443" xlink:href="#mbc78d86266" y="130.299471"/>
     <use style="fill:#ff0000;" x="161.399739" xlink:href="#mbc78d86266" y="127.834356"/>
     <use style="fill:#ff0000;" x="162.666114" xlink:href="#mbc78d86266" y="125.369241"/>
     <use style="fill:#ff0000;" x="163.932488" xlink:href="#mbc78d86266" y="122.904126"/>
     <use style="fill:#ff0000;" x="167.573315" xlink:href="#mbc78d86266" y="120.439011"/>
     <use style="fill:#ff0000;" x="173.746891" xlink:href="#mbc78d86266" y="117.973896"/>
     <use style="fill:#ff0000;" x="173.905187" xlink:href="#mbc78d86266" y="115.508781"/>
     <use style="fill:#ff0000;" x="175.013265" xlink:href="#mbc78d86266" y="113.043666"/>
     <use style="fill:#ff0000;" x="175.013265" xlink:href="#mbc78d86266" y="110.578551"/>
     <use style="fill:#ff0000;" x="175.488155" xlink:href="#mbc78d86266" y="108.113436"/>
     <use style="fill:#ff0000;" x="175.488155" xlink:href="#mbc78d86266" y="105.648321"/>
     <use style="fill:#ff0000;" x="176.596233" xlink:href="#mbc78d86266" y="103.183206"/>
     <use style="fill:#ff0000;" x="178.020904" xlink:href="#mbc78d86266" y="100.718091"/>
     <use style="fill:#ff0000;" x="178.495795" xlink:href="#mbc78d86266" y="98.252976"/>
     <use style="fill:#ff0000;" x="180.078763" xlink:href="#mbc78d86266" y="95.787862"/>
     <use style="fill:#ff0000;" x="182.769809" xlink:href="#mbc78d86266" y="93.322747"/>
     <use style="fill:#ff0000;" x="184.352777" xlink:href="#mbc78d86266" y="90.857632"/>
     <use style="fill:#ff0000;" x="187.835307" xlink:href="#mbc78d86266" y="88.392517"/>
     <use style="fill:#ff0000;" x="188.785087" xlink:href="#mbc78d86266" y="85.927402"/>
     <use style="fill:#ff0000;" x="190.842946" xlink:href="#mbc78d86266" y="83.462287"/>
     <use style="fill:#ff0000;" x="192.267617" xlink:href="#mbc78d86266" y="80.997172"/>
     <use style="fill:#ff0000;" x="194.008882" xlink:href="#mbc78d86266" y="78.532057"/>
     <use style="fill:#ff0000;" x="195.275257" xlink:href="#mbc78d86266" y="76.066942"/>
     <use style="fill:#ff0000;" x="196.699928" xlink:href="#mbc78d86266" y="73.601827"/>
     <use style="fill:#ff0000;" x="198.124599" xlink:href="#mbc78d86266" y="71.136712"/>
     <use style="fill:#ff0000;" x="198.757786" xlink:href="#mbc78d86266" y="68.671597"/>
     <use style="fill:#ff0000;" x="208.730485" xlink:href="#mbc78d86266" y="66.206482"/>
     <use style="fill:#ff0000;" x="209.680266" xlink:href="#mbc78d86266" y="63.741368"/>
     <use style="fill:#ff0000;" x="217.43681" xlink:href="#mbc78d86266" y="61.276253"/>
     <use style="fill:#ff0000;" x="219.652965" xlink:href="#mbc78d86266" y="58.811138"/>
     <use style="fill:#ff0000;" x="224.243573" xlink:href="#mbc78d86266" y="56.346023"/>
     <use style="fill:#ff0000;" x="228.675883" xlink:href="#mbc78d86266" y="53.880908"/>
     <use style="fill:#ff0000;" x="229.783961" xlink:href="#mbc78d86266" y="51.415793"/>
     <use style="fill:#ff0000;" x="253.211889" xlink:href="#mbc78d86266" y="48.950678"/>
     <use style="fill:#ff0000;" x="260.018652" xlink:href="#mbc78d86266" y="46.485563"/>
     <use style="fill:#ff0000;" x="263.026291" xlink:href="#mbc78d86266" y="44.020448"/>
     <use style="fill:#ff0000;" x="274.423661" xlink:href="#mbc78d86266" y="41.555333"/>
     <use style="fill:#ff0000;" x="294.052466" xlink:href="#mbc78d86266" y="39.090218"/>
     <use style="fill:#ff0000;" x="316.530613" xlink:href="#mbc78d86266" y="36.625103"/>
     <use style="fill:#ff0000;" x="319.063362" xlink:href="#mbc78d86266" y="34.159988"/>
     <use style="fill:#ff0000;" x="408.97595" xlink:href="#mbc78d86266" y="31.694873"/>
     <use style="fill:#ff0000;" x="504.903816" xlink:href="#mbc78d86266" y="29.229759"/>
    </g>
   </g>
   <g id="line2d_28">
    <defs>
     <path d="M 0 1.75 
C 0.464105 1.75 0.909265 1.565609 1.237437 1.237437 
C 1.565609 0.909265 1.75 0.464105 1.75 0 
C 1.75 -0.464105 1.565609 -0.909265 1.237437 -1.237437 
C 0.909265 -1.565609 0.464105 -1.75 0 -1.75 
C -0.464105 -1.75 -0.909265 -1.565609 -1.237437 -1.237437 
C -1.565609 -0.909265 -1.75 -0.464105 -1.75 0 
C -1.75 0.464105 -1.565609 0.909265 -1.237437 1.237437 
C -0.909265 1.565609 -0.464105 1.75 0 1.75 
z
" id="mda0d20cb8d"/>
    </defs>
    <g clip-path="url(#p7c37e3faa4)">
     <use style="fill:#0000ff;" x="68.479512" xlink:href="#mda0d20cb8d" y="354.624929"/>
     <use style="fill:#0000ff;" x="77.50243" xlink:href="#mda0d20cb8d" y="352.159814"/>
     <use style="fill:#0000ff;" x="80.826663" xlink:href="#mda0d20cb8d" y="349.694699"/>
     <use style="fill:#0000ff;" x="81.618147" xlink:href="#mda0d20cb8d" y="347.229584"/>
     <use style="fill:#0000ff;" x="86.683645" xlink:href="#mda0d20cb8d" y="344.764469"/>
     <use style="fill:#0000ff;" x="95.548267" xlink:href="#mda0d20cb8d" y="342.299354"/>
     <use style="fill:#0000ff;" x="97.131235" xlink:href="#mda0d20cb8d" y="339.834239"/>
     <use style="fill:#0000ff;" x="98.081016" xlink:href="#mda0d20cb8d" y="337.369124"/>
     <use style="fill:#0000ff;" x="98.397609" xlink:href="#mda0d20cb8d" y="334.90401"/>
     <use style="fill:#0000ff;" x="98.397609" xlink:href="#mda0d20cb8d" y="332.438895"/>
     <use style="fill:#0000ff;" x="99.030796" xlink:href="#mda0d20cb8d" y="329.97378"/>
     <use style="fill:#0000ff;" x="101.721842" xlink:href="#mda0d20cb8d" y="327.508665"/>
     <use style="fill:#0000ff;" x="104.096294" xlink:href="#mda0d20cb8d" y="325.04355"/>
     <use style="fill:#0000ff;" x="110.111573" xlink:href="#mda0d20cb8d" y="322.578435"/>
     <use style="fill:#0000ff;" x="111.377948" xlink:href="#mda0d20cb8d" y="320.11332"/>
     <use style="fill:#0000ff;" x="111.377948" xlink:href="#mda0d20cb8d" y="317.648205"/>
     <use style="fill:#0000ff;" x="111.852838" xlink:href="#mda0d20cb8d" y="315.18309"/>
     <use style="fill:#0000ff;" x="112.011135" xlink:href="#mda0d20cb8d" y="312.717975"/>
     <use style="fill:#0000ff;" x="112.327728" xlink:href="#mda0d20cb8d" y="310.25286"/>
     <use style="fill:#0000ff;" x="113.119213" xlink:href="#mda0d20cb8d" y="307.787745"/>
     <use style="fill:#0000ff;" x="113.7524" xlink:href="#mda0d20cb8d" y="305.32263"/>
     <use style="fill:#0000ff;" x="115.493665" xlink:href="#mda0d20cb8d" y="302.857515"/>
     <use style="fill:#0000ff;" x="117.393226" xlink:href="#mda0d20cb8d" y="300.392401"/>
     <use style="fill:#0000ff;" x="117.70982" xlink:href="#mda0d20cb8d" y="297.927286"/>
     <use style="fill:#0000ff;" x="118.026414" xlink:href="#mda0d20cb8d" y="295.462171"/>
     <use style="fill:#0000ff;" x="119.767679" xlink:href="#mda0d20cb8d" y="292.997056"/>
     <use style="fill:#0000ff;" x="120.242569" xlink:href="#mda0d20cb8d" y="290.531941"/>
     <use style="fill:#0000ff;" x="120.559163" xlink:href="#mda0d20cb8d" y="288.066826"/>
     <use style="fill:#0000ff;" x="122.458724" xlink:href="#mda0d20cb8d" y="285.601711"/>
     <use style="fill:#0000ff;" x="122.775318" xlink:href="#mda0d20cb8d" y="283.136596"/>
     <use style="fill:#0000ff;" x="126.257848" xlink:href="#mda0d20cb8d" y="280.671481"/>
     <use style="fill:#0000ff;" x="128.6323" xlink:href="#mda0d20cb8d" y="278.206366"/>
     <use style="fill:#0000ff;" x="129.10719" xlink:href="#mda0d20cb8d" y="275.741251"/>
     <use style="fill:#0000ff;" x="130.056971" xlink:href="#mda0d20cb8d" y="273.276136"/>
     <use style="fill:#0000ff;" x="130.531862" xlink:href="#mda0d20cb8d" y="270.811021"/>
     <use style="fill:#0000ff;" x="131.165049" xlink:href="#mda0d20cb8d" y="268.345907"/>
     <use style="fill:#0000ff;" x="131.956533" xlink:href="#mda0d20cb8d" y="265.880792"/>
     <use style="fill:#0000ff;" x="131.956533" xlink:href="#mda0d20cb8d" y="263.415677"/>
     <use style="fill:#0000ff;" x="132.748017" xlink:href="#mda0d20cb8d" y="260.950562"/>
     <use style="fill:#0000ff;" x="133.064611" xlink:href="#mda0d20cb8d" y="258.485447"/>
     <use style="fill:#0000ff;" x="133.064611" xlink:href="#mda0d20cb8d" y="256.020332"/>
     <use style="fill:#0000ff;" x="137.496921" xlink:href="#mda0d20cb8d" y="253.555217"/>
     <use style="fill:#0000ff;" x="139.238186" xlink:href="#mda0d20cb8d" y="251.090102"/>
     <use style="fill:#0000ff;" x="140.504561" xlink:href="#mda0d20cb8d" y="248.624987"/>
     <use style="fill:#0000ff;" x="140.821154" xlink:href="#mda0d20cb8d" y="246.159872"/>
     <use style="fill:#0000ff;" x="142.404122" xlink:href="#mda0d20cb8d" y="243.694757"/>
     <use style="fill:#0000ff;" x="142.879013" xlink:href="#mda0d20cb8d" y="241.229642"/>
     <use style="fill:#0000ff;" x="143.353903" xlink:href="#mda0d20cb8d" y="238.764527"/>
     <use style="fill:#0000ff;" x="143.670497" xlink:href="#mda0d20cb8d" y="236.299412"/>
     <use style="fill:#0000ff;" x="143.828794" xlink:href="#mda0d20cb8d" y="233.834298"/>
     <use style="fill:#0000ff;" x="144.620278" xlink:href="#mda0d20cb8d" y="231.369183"/>
     <use style="fill:#0000ff;" x="145.095168" xlink:href="#mda0d20cb8d" y="228.904068"/>
     <use style="fill:#0000ff;" x="146.203246" xlink:href="#mda0d20cb8d" y="226.438953"/>
     <use style="fill:#0000ff;" x="147.46962" xlink:href="#mda0d20cb8d" y="223.973838"/>
     <use style="fill:#0000ff;" x="147.627917" xlink:href="#mda0d20cb8d" y="221.508723"/>
     <use style="fill:#0000ff;" x="147.786214" xlink:href="#mda0d20cb8d" y="219.043608"/>
     <use style="fill:#0000ff;" x="148.577698" xlink:href="#mda0d20cb8d" y="216.578493"/>
     <use style="fill:#0000ff;" x="149.844072" xlink:href="#mda0d20cb8d" y="214.113378"/>
     <use style="fill:#0000ff;" x="150.95215" xlink:href="#mda0d20cb8d" y="211.648263"/>
     <use style="fill:#0000ff;" x="151.268744" xlink:href="#mda0d20cb8d" y="209.183148"/>
     <use style="fill:#0000ff;" x="151.901931" xlink:href="#mda0d20cb8d" y="206.718033"/>
     <use style="fill:#0000ff;" x="153.484899" xlink:href="#mda0d20cb8d" y="204.252918"/>
     <use style="fill:#0000ff;" x="158.550397" xlink:href="#mda0d20cb8d" y="201.787803"/>
     <use style="fill:#0000ff;" x="159.183584" xlink:href="#mda0d20cb8d" y="199.322689"/>
     <use style="fill:#0000ff;" x="159.975068" xlink:href="#mda0d20cb8d" y="196.857574"/>
     <use style="fill:#0000ff;" x="164.249082" xlink:href="#mda0d20cb8d" y="194.392459"/>
     <use style="fill:#0000ff;" x="165.673753" xlink:href="#mda0d20cb8d" y="191.927344"/>
     <use style="fill:#0000ff;" x="165.83205" xlink:href="#mda0d20cb8d" y="189.462229"/>
     <use style="fill:#0000ff;" x="166.623534" xlink:href="#mda0d20cb8d" y="186.997114"/>
     <use style="fill:#0000ff;" x="167.731612" xlink:href="#mda0d20cb8d" y="184.531999"/>
     <use style="fill:#0000ff;" x="168.523096" xlink:href="#mda0d20cb8d" y="182.066884"/>
     <use style="fill:#0000ff;" x="174.380078" xlink:href="#mda0d20cb8d" y="179.601769"/>
     <use style="fill:#0000ff;" x="176.596233" xlink:href="#mda0d20cb8d" y="177.136654"/>
     <use style="fill:#0000ff;" x="181.661731" xlink:href="#mda0d20cb8d" y="174.671539"/>
     <use style="fill:#0000ff;" x="182.294918" xlink:href="#mda0d20cb8d" y="172.206424"/>
     <use style="fill:#0000ff;" x="182.611512" xlink:href="#mda0d20cb8d" y="169.741309"/>
     <use style="fill:#0000ff;" x="183.402996" xlink:href="#mda0d20cb8d" y="167.276194"/>
     <use style="fill:#0000ff;" x="184.827667" xlink:href="#mda0d20cb8d" y="164.81108"/>
     <use style="fill:#0000ff;" x="185.144261" xlink:href="#mda0d20cb8d" y="162.345965"/>
     <use style="fill:#0000ff;" x="186.094042" xlink:href="#mda0d20cb8d" y="159.88085"/>
     <use style="fill:#0000ff;" x="186.410635" xlink:href="#mda0d20cb8d" y="157.415735"/>
     <use style="fill:#0000ff;" x="187.202119" xlink:href="#mda0d20cb8d" y="154.95062"/>
     <use style="fill:#0000ff;" x="189.576572" xlink:href="#mda0d20cb8d" y="152.485505"/>
     <use style="fill:#0000ff;" x="191.001243" xlink:href="#mda0d20cb8d" y="150.02039"/>
     <use style="fill:#0000ff;" x="199.232677" xlink:href="#mda0d20cb8d" y="147.555275"/>
     <use style="fill:#0000ff;" x="200.024161" xlink:href="#mda0d20cb8d" y="145.09016"/>
     <use style="fill:#0000ff;" x="200.182458" xlink:href="#mda0d20cb8d" y="142.625045"/>
     <use style="fill:#0000ff;" x="201.448832" xlink:href="#mda0d20cb8d" y="140.15993"/>
     <use style="fill:#0000ff;" x="203.190097" xlink:href="#mda0d20cb8d" y="137.694815"/>
     <use style="fill:#0000ff;" x="204.456472" xlink:href="#mda0d20cb8d" y="135.2297"/>
     <use style="fill:#0000ff;" x="206.197737" xlink:href="#mda0d20cb8d" y="132.764585"/>
     <use style="fill:#0000ff;" x="209.680266" xlink:href="#mda0d20cb8d" y="130.299471"/>
     <use style="fill:#0000ff;" x="211.263234" xlink:href="#mda0d20cb8d" y="127.834356"/>
     <use style="fill:#0000ff;" x="213.162796" xlink:href="#mda0d20cb8d" y="125.369241"/>
     <use style="fill:#0000ff;" x="213.321093" xlink:href="#mda0d20cb8d" y="122.904126"/>
     <use style="fill:#0000ff;" x="213.95428" xlink:href="#mda0d20cb8d" y="120.439011"/>
     <use style="fill:#0000ff;" x="214.587467" xlink:href="#mda0d20cb8d" y="117.973896"/>
     <use style="fill:#0000ff;" x="216.328732" xlink:href="#mda0d20cb8d" y="115.508781"/>
     <use style="fill:#0000ff;" x="218.544888" xlink:href="#mda0d20cb8d" y="113.043666"/>
     <use style="fill:#0000ff;" x="220.602746" xlink:href="#mda0d20cb8d" y="110.578551"/>
     <use style="fill:#0000ff;" x="227.884399" xlink:href="#mda0d20cb8d" y="108.113436"/>
     <use style="fill:#0000ff;" x="228.675883" xlink:href="#mda0d20cb8d" y="105.648321"/>
     <use style="fill:#0000ff;" x="230.100555" xlink:href="#mda0d20cb8d" y="103.183206"/>
     <use style="fill:#0000ff;" x="230.100555" xlink:href="#mda0d20cb8d" y="100.718091"/>
     <use style="fill:#0000ff;" x="231.208632" xlink:href="#mda0d20cb8d" y="98.252976"/>
     <use style="fill:#0000ff;" x="231.525226" xlink:href="#mda0d20cb8d" y="95.787862"/>
     <use style="fill:#0000ff;" x="234.057975" xlink:href="#mda0d20cb8d" y="93.322747"/>
     <use style="fill:#0000ff;" x="235.482646" xlink:href="#mda0d20cb8d" y="90.857632"/>
     <use style="fill:#0000ff;" x="236.749021" xlink:href="#mda0d20cb8d" y="88.392517"/>
     <use style="fill:#0000ff;" x="238.806879" xlink:href="#mda0d20cb8d" y="85.927402"/>
     <use style="fill:#0000ff;" x="239.75666" xlink:href="#mda0d20cb8d" y="83.462287"/>
     <use style="fill:#0000ff;" x="241.656222" xlink:href="#mda0d20cb8d" y="80.997172"/>
     <use style="fill:#0000ff;" x="244.505564" xlink:href="#mda0d20cb8d" y="78.532057"/>
     <use style="fill:#0000ff;" x="246.563423" xlink:href="#mda0d20cb8d" y="76.066942"/>
     <use style="fill:#0000ff;" x="250.520843" xlink:href="#mda0d20cb8d" y="73.601827"/>
     <use style="fill:#0000ff;" x="253.528483" xlink:href="#mda0d20cb8d" y="71.136712"/>
     <use style="fill:#0000ff;" x="257.169309" xlink:href="#mda0d20cb8d" y="68.671597"/>
     <use style="fill:#0000ff;" x="262.551401" xlink:href="#mda0d20cb8d" y="66.206482"/>
     <use style="fill:#0000ff;" x="265.400743" xlink:href="#mda0d20cb8d" y="63.741368"/>
     <use style="fill:#0000ff;" x="269.04157" xlink:href="#mda0d20cb8d" y="61.276253"/>
     <use style="fill:#0000ff;" x="276.639817" xlink:href="#mda0d20cb8d" y="58.811138"/>
     <use style="fill:#0000ff;" x="277.747894" xlink:href="#mda0d20cb8d" y="56.346023"/>
     <use style="fill:#0000ff;" x="286.295922" xlink:href="#mda0d20cb8d" y="53.880908"/>
     <use style="fill:#0000ff;" x="286.454219" xlink:href="#mda0d20cb8d" y="51.415793"/>
     <use style="fill:#0000ff;" x="295.31884" xlink:href="#mda0d20cb8d" y="48.950678"/>
     <use style="fill:#0000ff;" x="303.233681" xlink:href="#mda0d20cb8d" y="46.485563"/>
     <use style="fill:#0000ff;" x="306.399617" xlink:href="#mda0d20cb8d" y="44.020448"/>
     <use style="fill:#0000ff;" x="308.615772" xlink:href="#mda0d20cb8d" y="41.555333"/>
     <use style="fill:#0000ff;" x="311.940005" xlink:href="#mda0d20cb8d" y="39.090218"/>
     <use style="fill:#0000ff;" x="318.588471" xlink:href="#mda0d20cb8d" y="36.625103"/>
     <use style="fill:#0000ff;" x="323.020782" xlink:href="#mda0d20cb8d" y="34.159988"/>
     <use style="fill:#0000ff;" x="326.661609" xlink:href="#mda0d20cb8d" y="31.694873"/>
     <use style="fill:#0000ff;" x="368.135373" xlink:href="#mda0d20cb8d" y="29.229759"/>
    </g>
   </g>
   <g id="patch_3">
    <path d="M 33.86 370.894688 
L 33.86 12.96 
" style="fill:none;"/>
   </g>
   <g id="patch_4">
    <path d="M 527.334474 370.894688 
L 527.334474 12.96 
" style="fill:none;"/>
   </g>
   <g id="patch_5">
    <path d="M 33.86 370.894688 
L 527.334474 370.894688 
" style="fill:none;"/>
   </g>
   <g id="patch_6">
    <path d="M 33.86 12.96 
L 527.334474 12.96 
" style="fill:none;"/>
   </g>
  </g>
 </g>
 <defs>
  <clipPath id="p7c37e3faa4">
   <rect height="357.934687" width="493.474474" x="33.86" y="12.96"/>
  </clipPath>
 </defs>
</svg>
