<?xml version="1.0" encoding="utf-8" standalone="no"?>
<!DOCTYPE svg PUBLIC "-//W3C//DTD SVG 1.1//EN"
  "http://www.w3.org/Graphics/SVG/1.1/DTD/svg11.dtd">
<!-- Created with matplotlib (https://matplotlib.org/) -->
<svg height="400pt" version="1.1" viewBox="0 0 550 400" width="550pt" xmlns="http://www.w3.org/2000/svg" xmlns:xlink="http://www.w3.org/1999/xlink">
 <defs>
  <style type="text/css">
*{stroke-linecap:butt;stroke-linejoin:round;}
  </style>
 </defs>
 <g id="figure_1">
  <g id="patch_1">
   <path d="M 0 400 
L 550 400 
L 550 0 
L 0 0 
z
" style="fill:#ffffff;"/>
  </g>
  <g id="axes_1">
   <g id="patch_2">
    <path d="M 47.919844 356.834844 
L 533.391914 356.834844 
L 533.391914 12.96 
L 47.919844 12.96 
z
" style="fill:#eaeaf2;"/>
   </g>
   <g id="matplotlib.axis_1">
    <g id="xtick_1">
     <g id="line2d_1">
      <path clip-path="url(#p0922852075)" d="M 57.255845 356.834844 
L 57.255845 12.96 
" style="fill:none;stroke:#ffffff;stroke-linecap:round;"/>
     </g>
     <g id="line2d_2"/>
     <g id="text_1">
      <!-- 0 -->
      <defs>
       <path d="M 4.15625 35.296875 
Q 4.15625 48 6.765625 55.734375 
Q 9.375 63.484375 14.515625 67.671875 
Q 19.671875 71.875 27.484375 71.875 
Q 33.25 71.875 37.59375 69.546875 
Q 41.9375 67.234375 44.765625 62.859375 
Q 47.609375 58.5 49.21875 52.21875 
Q 50.828125 45.953125 50.828125 35.296875 
Q 50.828125 22.703125 48.234375 14.96875 
Q 45.65625 7.234375 40.5 3 
Q 35.359375 -1.21875 27.484375 -1.21875 
Q 17.140625 -1.21875 11.234375 6.203125 
Q 4.15625 15.140625 4.15625 35.296875 
z
M 13.1875 35.296875 
Q 13.1875 17.671875 17.3125 11.828125 
Q 21.4375 6 27.484375 6 
Q 33.546875 6 37.671875 11.859375 
Q 41.796875 17.71875 41.796875 35.296875 
Q 41.796875 52.984375 37.671875 58.78125 
Q 33.546875 64.59375 27.390625 64.59375 
Q 21.34375 64.59375 17.71875 59.46875 
Q 13.1875 52.9375 13.1875 35.296875 
z
" id="ArialMT-48"/>
      </defs>
      <g style="fill:#262626;" transform="translate(54.475376 370.992656)scale(0.1 -0.1)">
       <use xlink:href="#ArialMT-48"/>
      </g>
     </g>
    </g>
    <g id="xtick_2">
     <g id="line2d_3">
      <path clip-path="url(#p0922852075)" d="M 123.606861 356.834844 
L 123.606861 12.96 
" style="fill:none;stroke:#ffffff;stroke-linecap:round;"/>
     </g>
     <g id="line2d_4"/>
     <g id="text_2">
      <!-- 2000 -->
      <defs>
       <path d="M 50.34375 8.453125 
L 50.34375 0 
L 3.03125 0 
Q 2.9375 3.171875 4.046875 6.109375 
Q 5.859375 10.9375 9.828125 15.625 
Q 13.8125 20.3125 21.34375 26.46875 
Q 33.015625 36.03125 37.109375 41.625 
Q 41.21875 47.21875 41.21875 52.203125 
Q 41.21875 57.421875 37.46875 61 
Q 33.734375 64.59375 27.734375 64.59375 
Q 21.390625 64.59375 17.578125 60.78125 
Q 13.765625 56.984375 13.71875 50.25 
L 4.6875 51.171875 
Q 5.609375 61.28125 11.65625 66.578125 
Q 17.71875 71.875 27.9375 71.875 
Q 38.234375 71.875 44.234375 66.15625 
Q 50.25 60.453125 50.25 52 
Q 50.25 47.703125 48.484375 43.546875 
Q 46.734375 39.40625 42.65625 34.8125 
Q 38.578125 30.21875 29.109375 22.21875 
Q 21.1875 15.578125 18.9375 13.203125 
Q 16.703125 10.84375 15.234375 8.453125 
z
" id="ArialMT-50"/>
      </defs>
      <g style="fill:#262626;" transform="translate(112.484986 370.992656)scale(0.1 -0.1)">
       <use xlink:href="#ArialMT-50"/>
       <use x="55.615234" xlink:href="#ArialMT-48"/>
       <use x="111.230469" xlink:href="#ArialMT-48"/>
       <use x="166.845703" xlink:href="#ArialMT-48"/>
      </g>
     </g>
    </g>
    <g id="xtick_3">
     <g id="line2d_5">
      <path clip-path="url(#p0922852075)" d="M 189.957877 356.834844 
L 189.957877 12.96 
" style="fill:none;stroke:#ffffff;stroke-linecap:round;"/>
     </g>
     <g id="line2d_6"/>
     <g id="text_3">
      <!-- 4000 -->
      <defs>
       <path d="M 32.328125 0 
L 32.328125 17.140625 
L 1.265625 17.140625 
L 1.265625 25.203125 
L 33.9375 71.578125 
L 41.109375 71.578125 
L 41.109375 25.203125 
L 50.78125 25.203125 
L 50.78125 17.140625 
L 41.109375 17.140625 
L 41.109375 0 
z
M 32.328125 25.203125 
L 32.328125 57.46875 
L 9.90625 25.203125 
z
" id="ArialMT-52"/>
      </defs>
      <g style="fill:#262626;" transform="translate(178.836002 370.992656)scale(0.1 -0.1)">
       <use xlink:href="#ArialMT-52"/>
       <use x="55.615234" xlink:href="#ArialMT-48"/>
       <use x="111.230469" xlink:href="#ArialMT-48"/>
       <use x="166.845703" xlink:href="#ArialMT-48"/>
      </g>
     </g>
    </g>
    <g id="xtick_4">
     <g id="line2d_7">
      <path clip-path="url(#p0922852075)" d="M 256.308893 356.834844 
L 256.308893 12.96 
" style="fill:none;stroke:#ffffff;stroke-linecap:round;"/>
     </g>
     <g id="line2d_8"/>
     <g id="text_4">
      <!-- 6000 -->
      <defs>
       <path d="M 49.75 54.046875 
L 41.015625 53.375 
Q 39.84375 58.546875 37.703125 60.890625 
Q 34.125 64.65625 28.90625 64.65625 
Q 24.703125 64.65625 21.53125 62.3125 
Q 17.390625 59.28125 14.984375 53.46875 
Q 12.59375 47.65625 12.5 36.921875 
Q 15.671875 41.75 20.265625 44.09375 
Q 24.859375 46.4375 29.890625 46.4375 
Q 38.671875 46.4375 44.84375 39.96875 
Q 51.03125 33.5 51.03125 23.25 
Q 51.03125 16.5 48.125 10.71875 
Q 45.21875 4.9375 40.140625 1.859375 
Q 35.0625 -1.21875 28.609375 -1.21875 
Q 17.625 -1.21875 10.6875 6.859375 
Q 3.765625 14.9375 3.765625 33.5 
Q 3.765625 54.25 11.421875 63.671875 
Q 18.109375 71.875 29.4375 71.875 
Q 37.890625 71.875 43.28125 67.140625 
Q 48.6875 62.40625 49.75 54.046875 
z
M 13.875 23.1875 
Q 13.875 18.65625 15.796875 14.5 
Q 17.71875 10.359375 21.1875 8.171875 
Q 24.65625 6 28.46875 6 
Q 34.03125 6 38.03125 10.484375 
Q 42.046875 14.984375 42.046875 22.703125 
Q 42.046875 30.125 38.078125 34.390625 
Q 34.125 38.671875 28.125 38.671875 
Q 22.171875 38.671875 18.015625 34.390625 
Q 13.875 30.125 13.875 23.1875 
z
" id="ArialMT-54"/>
      </defs>
      <g style="fill:#262626;" transform="translate(245.187018 370.992656)scale(0.1 -0.1)">
       <use xlink:href="#ArialMT-54"/>
       <use x="55.615234" xlink:href="#ArialMT-48"/>
       <use x="111.230469" xlink:href="#ArialMT-48"/>
       <use x="166.845703" xlink:href="#ArialMT-48"/>
      </g>
     </g>
    </g>
    <g id="xtick_5">
     <g id="line2d_9">
      <path clip-path="url(#p0922852075)" d="M 322.659909 356.834844 
L 322.659909 12.96 
" style="fill:none;stroke:#ffffff;stroke-linecap:round;"/>
     </g>
     <g id="line2d_10"/>
     <g id="text_5">
      <!-- 8000 -->
      <defs>
       <path d="M 17.671875 38.8125 
Q 12.203125 40.828125 9.5625 44.53125 
Q 6.9375 48.25 6.9375 53.421875 
Q 6.9375 61.234375 12.546875 66.546875 
Q 18.171875 71.875 27.484375 71.875 
Q 36.859375 71.875 42.578125 66.421875 
Q 48.296875 60.984375 48.296875 53.171875 
Q 48.296875 48.1875 45.671875 44.5 
Q 43.0625 40.828125 37.75 38.8125 
Q 44.34375 36.671875 47.78125 31.875 
Q 51.21875 27.09375 51.21875 20.453125 
Q 51.21875 11.28125 44.71875 5.03125 
Q 38.234375 -1.21875 27.640625 -1.21875 
Q 17.046875 -1.21875 10.546875 5.046875 
Q 4.046875 11.328125 4.046875 20.703125 
Q 4.046875 27.6875 7.59375 32.390625 
Q 11.140625 37.109375 17.671875 38.8125 
z
M 15.921875 53.71875 
Q 15.921875 48.640625 19.1875 45.40625 
Q 22.46875 42.1875 27.6875 42.1875 
Q 32.765625 42.1875 36.015625 45.375 
Q 39.265625 48.578125 39.265625 53.21875 
Q 39.265625 58.0625 35.90625 61.359375 
Q 32.5625 64.65625 27.59375 64.65625 
Q 22.5625 64.65625 19.234375 61.421875 
Q 15.921875 58.203125 15.921875 53.71875 
z
M 13.09375 20.65625 
Q 13.09375 16.890625 14.875 13.375 
Q 16.65625 9.859375 20.171875 7.921875 
Q 23.6875 6 27.734375 6 
Q 34.03125 6 38.125 10.046875 
Q 42.234375 14.109375 42.234375 20.359375 
Q 42.234375 26.703125 38.015625 30.859375 
Q 33.796875 35.015625 27.4375 35.015625 
Q 21.234375 35.015625 17.15625 30.90625 
Q 13.09375 26.8125 13.09375 20.65625 
z
" id="ArialMT-56"/>
      </defs>
      <g style="fill:#262626;" transform="translate(311.538034 370.992656)scale(0.1 -0.1)">
       <use xlink:href="#ArialMT-56"/>
       <use x="55.615234" xlink:href="#ArialMT-48"/>
       <use x="111.230469" xlink:href="#ArialMT-48"/>
       <use x="166.845703" xlink:href="#ArialMT-48"/>
      </g>
     </g>
    </g>
    <g id="xtick_6">
     <g id="line2d_11">
      <path clip-path="url(#p0922852075)" d="M 389.010924 356.834844 
L 389.010924 12.96 
" style="fill:none;stroke:#ffffff;stroke-linecap:round;"/>
     </g>
     <g id="line2d_12"/>
     <g id="text_6">
      <!-- 10000 -->
      <defs>
       <path d="M 37.25 0 
L 28.46875 0 
L 28.46875 56 
Q 25.296875 52.984375 20.140625 49.953125 
Q 14.984375 46.921875 10.890625 45.40625 
L 10.890625 53.90625 
Q 18.265625 57.375 23.78125 62.296875 
Q 29.296875 67.234375 31.59375 71.875 
L 37.25 71.875 
z
" id="ArialMT-49"/>
      </defs>
      <g style="fill:#262626;" transform="translate(375.108581 370.992656)scale(0.1 -0.1)">
       <use xlink:href="#ArialMT-49"/>
       <use x="55.615234" xlink:href="#ArialMT-48"/>
       <use x="111.230469" xlink:href="#ArialMT-48"/>
       <use x="166.845703" xlink:href="#ArialMT-48"/>
       <use x="222.460938" xlink:href="#ArialMT-48"/>
      </g>
     </g>
    </g>
    <g id="xtick_7">
     <g id="line2d_13">
      <path clip-path="url(#p0922852075)" d="M 455.36194 356.834844 
L 455.36194 12.96 
" style="fill:none;stroke:#ffffff;stroke-linecap:round;"/>
     </g>
     <g id="line2d_14"/>
     <g id="text_7">
      <!-- 12000 -->
      <g style="fill:#262626;" transform="translate(441.459597 370.992656)scale(0.1 -0.1)">
       <use xlink:href="#ArialMT-49"/>
       <use x="55.615234" xlink:href="#ArialMT-50"/>
       <use x="111.230469" xlink:href="#ArialMT-48"/>
       <use x="166.845703" xlink:href="#ArialMT-48"/>
       <use x="222.460938" xlink:href="#ArialMT-48"/>
      </g>
     </g>
    </g>
    <g id="xtick_8">
     <g id="line2d_15">
      <path clip-path="url(#p0922852075)" d="M 521.712956 356.834844 
L 521.712956 12.96 
" style="fill:none;stroke:#ffffff;stroke-linecap:round;"/>
     </g>
     <g id="line2d_16"/>
     <g id="text_8">
      <!-- 14000 -->
      <g style="fill:#262626;" transform="translate(507.810612 370.992656)scale(0.1 -0.1)">
       <use xlink:href="#ArialMT-49"/>
       <use x="55.615234" xlink:href="#ArialMT-52"/>
       <use x="111.230469" xlink:href="#ArialMT-48"/>
       <use x="166.845703" xlink:href="#ArialMT-48"/>
       <use x="222.460938" xlink:href="#ArialMT-48"/>
      </g>
     </g>
    </g>
    <g id="text_9">
     <!-- Games between no-hitters -->
     <defs>
      <path d="M 41.21875 28.078125 
L 41.21875 36.46875 
L 71.53125 36.53125 
L 71.53125 9.96875 
Q 64.546875 4.390625 57.125 1.578125 
Q 49.703125 -1.21875 41.890625 -1.21875 
Q 31.34375 -1.21875 22.71875 3.296875 
Q 14.109375 7.8125 9.71875 16.359375 
Q 5.328125 24.90625 5.328125 35.453125 
Q 5.328125 45.90625 9.6875 54.953125 
Q 14.0625 64.015625 22.265625 68.40625 
Q 30.46875 72.796875 41.15625 72.796875 
Q 48.921875 72.796875 55.1875 70.28125 
Q 61.46875 67.78125 65.03125 63.28125 
Q 68.609375 58.796875 70.453125 51.5625 
L 61.921875 49.21875 
Q 60.296875 54.6875 57.90625 57.8125 
Q 55.515625 60.9375 51.0625 62.8125 
Q 46.625 64.703125 41.21875 64.703125 
Q 34.71875 64.703125 29.984375 62.71875 
Q 25.25 60.75 22.34375 57.515625 
Q 19.4375 54.296875 17.828125 50.4375 
Q 15.09375 43.796875 15.09375 36.03125 
Q 15.09375 26.46875 18.390625 20.015625 
Q 21.6875 13.578125 27.984375 10.453125 
Q 34.28125 7.328125 41.359375 7.328125 
Q 47.515625 7.328125 53.375 9.6875 
Q 59.234375 12.0625 62.25 14.75 
L 62.25 28.078125 
z
" id="ArialMT-71"/>
      <path d="M 40.4375 6.390625 
Q 35.546875 2.25 31.03125 0.53125 
Q 26.515625 -1.171875 21.34375 -1.171875 
Q 12.796875 -1.171875 8.203125 3 
Q 3.609375 7.171875 3.609375 13.671875 
Q 3.609375 17.484375 5.34375 20.625 
Q 7.078125 23.78125 9.890625 25.6875 
Q 12.703125 27.59375 16.21875 28.5625 
Q 18.796875 29.25 24.03125 29.890625 
Q 34.671875 31.15625 39.703125 32.90625 
Q 39.75 34.71875 39.75 35.203125 
Q 39.75 40.578125 37.25 42.78125 
Q 33.890625 45.75 27.25 45.75 
Q 21.046875 45.75 18.09375 43.578125 
Q 15.140625 41.40625 13.71875 35.890625 
L 5.125 37.0625 
Q 6.296875 42.578125 8.984375 45.96875 
Q 11.671875 49.359375 16.75 51.1875 
Q 21.828125 53.03125 28.515625 53.03125 
Q 35.15625 53.03125 39.296875 51.46875 
Q 43.453125 49.90625 45.40625 47.53125 
Q 47.359375 45.171875 48.140625 41.546875 
Q 48.578125 39.3125 48.578125 33.453125 
L 48.578125 21.734375 
Q 48.578125 9.46875 49.140625 6.21875 
Q 49.703125 2.984375 51.375 0 
L 42.1875 0 
Q 40.828125 2.734375 40.4375 6.390625 
z
M 39.703125 26.03125 
Q 34.90625 24.078125 25.34375 22.703125 
Q 19.921875 21.921875 17.671875 20.9375 
Q 15.4375 19.96875 14.203125 18.09375 
Q 12.984375 16.21875 12.984375 13.921875 
Q 12.984375 10.40625 15.640625 8.0625 
Q 18.3125 5.71875 23.4375 5.71875 
Q 28.515625 5.71875 32.46875 7.9375 
Q 36.421875 10.15625 38.28125 14.015625 
Q 39.703125 17 39.703125 22.796875 
z
" id="ArialMT-97"/>
      <path d="M 6.59375 0 
L 6.59375 51.859375 
L 14.453125 51.859375 
L 14.453125 44.578125 
Q 16.890625 48.390625 20.9375 50.703125 
Q 25 53.03125 30.171875 53.03125 
Q 35.9375 53.03125 39.625 50.640625 
Q 43.3125 48.25 44.828125 43.953125 
Q 50.984375 53.03125 60.84375 53.03125 
Q 68.5625 53.03125 72.703125 48.75 
Q 76.859375 44.484375 76.859375 35.59375 
L 76.859375 0 
L 68.109375 0 
L 68.109375 32.671875 
Q 68.109375 37.9375 67.25 40.25 
Q 66.40625 42.578125 64.15625 43.984375 
Q 61.921875 45.40625 58.890625 45.40625 
Q 53.421875 45.40625 49.796875 41.765625 
Q 46.1875 38.140625 46.1875 30.125 
L 46.1875 0 
L 37.40625 0 
L 37.40625 33.6875 
Q 37.40625 39.546875 35.25 42.46875 
Q 33.109375 45.40625 28.21875 45.40625 
Q 24.515625 45.40625 21.359375 43.453125 
Q 18.21875 41.5 16.796875 37.734375 
Q 15.375 33.984375 15.375 26.90625 
L 15.375 0 
z
" id="ArialMT-109"/>
      <path d="M 42.09375 16.703125 
L 51.171875 15.578125 
Q 49.03125 7.625 43.21875 3.21875 
Q 37.40625 -1.171875 28.375 -1.171875 
Q 17 -1.171875 10.328125 5.828125 
Q 3.65625 12.84375 3.65625 25.484375 
Q 3.65625 38.578125 10.390625 45.796875 
Q 17.140625 53.03125 27.875 53.03125 
Q 38.28125 53.03125 44.875 45.953125 
Q 51.46875 38.875 51.46875 26.03125 
Q 51.46875 25.25 51.421875 23.6875 
L 12.75 23.6875 
Q 13.234375 15.140625 17.578125 10.59375 
Q 21.921875 6.0625 28.421875 6.0625 
Q 33.25 6.0625 36.671875 8.59375 
Q 40.09375 11.140625 42.09375 16.703125 
z
M 13.234375 30.90625 
L 42.1875 30.90625 
Q 41.609375 37.453125 38.875 40.71875 
Q 34.671875 45.796875 27.984375 45.796875 
Q 21.921875 45.796875 17.796875 41.75 
Q 13.671875 37.703125 13.234375 30.90625 
z
" id="ArialMT-101"/>
      <path d="M 3.078125 15.484375 
L 11.765625 16.84375 
Q 12.5 11.625 15.84375 8.84375 
Q 19.1875 6.0625 25.203125 6.0625 
Q 31.25 6.0625 34.171875 8.515625 
Q 37.109375 10.984375 37.109375 14.3125 
Q 37.109375 17.28125 34.515625 19 
Q 32.71875 20.171875 25.53125 21.96875 
Q 15.875 24.421875 12.140625 26.203125 
Q 8.40625 27.984375 6.46875 31.125 
Q 4.546875 34.28125 4.546875 38.09375 
Q 4.546875 41.546875 6.125 44.5 
Q 7.71875 47.46875 10.453125 49.421875 
Q 12.5 50.921875 16.03125 51.96875 
Q 19.578125 53.03125 23.640625 53.03125 
Q 29.734375 53.03125 34.34375 51.265625 
Q 38.96875 49.515625 41.15625 46.5 
Q 43.359375 43.5 44.1875 38.484375 
L 35.59375 37.3125 
Q 35.015625 41.3125 32.203125 43.546875 
Q 29.390625 45.796875 24.265625 45.796875 
Q 18.21875 45.796875 15.625 43.796875 
Q 13.03125 41.796875 13.03125 39.109375 
Q 13.03125 37.40625 14.109375 36.03125 
Q 15.1875 34.625 17.484375 33.6875 
Q 18.796875 33.203125 25.25 31.453125 
Q 34.578125 28.953125 38.25 27.359375 
Q 41.9375 25.78125 44.03125 22.75 
Q 46.140625 19.734375 46.140625 15.234375 
Q 46.140625 10.84375 43.578125 6.953125 
Q 41.015625 3.078125 36.171875 0.953125 
Q 31.34375 -1.171875 25.25 -1.171875 
Q 15.140625 -1.171875 9.84375 3.03125 
Q 4.546875 7.234375 3.078125 15.484375 
z
" id="ArialMT-115"/>
      <path id="ArialMT-32"/>
      <path d="M 14.703125 0 
L 6.546875 0 
L 6.546875 71.578125 
L 15.328125 71.578125 
L 15.328125 46.046875 
Q 20.90625 53.03125 29.546875 53.03125 
Q 34.328125 53.03125 38.59375 51.09375 
Q 42.875 49.171875 45.625 45.671875 
Q 48.390625 42.1875 49.953125 37.25 
Q 51.515625 32.328125 51.515625 26.703125 
Q 51.515625 13.375 44.921875 6.09375 
Q 38.328125 -1.171875 29.109375 -1.171875 
Q 19.921875 -1.171875 14.703125 6.5 
z
M 14.59375 26.3125 
Q 14.59375 17 17.140625 12.84375 
Q 21.296875 6.0625 28.375 6.0625 
Q 34.125 6.0625 38.328125 11.0625 
Q 42.53125 16.0625 42.53125 25.984375 
Q 42.53125 36.140625 38.5 40.96875 
Q 34.46875 45.796875 28.765625 45.796875 
Q 23 45.796875 18.796875 40.796875 
Q 14.59375 35.796875 14.59375 26.3125 
z
" id="ArialMT-98"/>
      <path d="M 25.78125 7.859375 
L 27.046875 0.09375 
Q 23.34375 -0.6875 20.40625 -0.6875 
Q 15.625 -0.6875 12.984375 0.828125 
Q 10.359375 2.34375 9.28125 4.8125 
Q 8.203125 7.28125 8.203125 15.1875 
L 8.203125 45.015625 
L 1.765625 45.015625 
L 1.765625 51.859375 
L 8.203125 51.859375 
L 8.203125 64.703125 
L 16.9375 69.96875 
L 16.9375 51.859375 
L 25.78125 51.859375 
L 25.78125 45.015625 
L 16.9375 45.015625 
L 16.9375 14.703125 
Q 16.9375 10.9375 17.40625 9.859375 
Q 17.875 8.796875 18.921875 8.15625 
Q 19.96875 7.515625 21.921875 7.515625 
Q 23.390625 7.515625 25.78125 7.859375 
z
" id="ArialMT-116"/>
      <path d="M 16.15625 0 
L 0.296875 51.859375 
L 9.375 51.859375 
L 17.625 21.921875 
L 20.703125 10.796875 
Q 20.90625 11.625 23.390625 21.484375 
L 31.640625 51.859375 
L 40.671875 51.859375 
L 48.4375 21.78125 
L 51.03125 11.859375 
L 54 21.875 
L 62.890625 51.859375 
L 71.4375 51.859375 
L 55.21875 0 
L 46.09375 0 
L 37.84375 31.0625 
L 35.84375 39.890625 
L 25.34375 0 
z
" id="ArialMT-119"/>
      <path d="M 6.59375 0 
L 6.59375 51.859375 
L 14.5 51.859375 
L 14.5 44.484375 
Q 20.21875 53.03125 31 53.03125 
Q 35.6875 53.03125 39.625 51.34375 
Q 43.5625 49.65625 45.515625 46.921875 
Q 47.46875 44.1875 48.25 40.4375 
Q 48.734375 37.984375 48.734375 31.890625 
L 48.734375 0 
L 39.9375 0 
L 39.9375 31.546875 
Q 39.9375 36.921875 38.90625 39.578125 
Q 37.890625 42.234375 35.28125 43.8125 
Q 32.671875 45.40625 29.15625 45.40625 
Q 23.53125 45.40625 19.453125 41.84375 
Q 15.375 38.28125 15.375 28.328125 
L 15.375 0 
z
" id="ArialMT-110"/>
      <path d="M 3.328125 25.921875 
Q 3.328125 40.328125 11.328125 47.265625 
Q 18.015625 53.03125 27.640625 53.03125 
Q 38.328125 53.03125 45.109375 46.015625 
Q 51.90625 39.015625 51.90625 26.65625 
Q 51.90625 16.65625 48.90625 10.90625 
Q 45.90625 5.171875 40.15625 2 
Q 34.421875 -1.171875 27.640625 -1.171875 
Q 16.75 -1.171875 10.03125 5.8125 
Q 3.328125 12.796875 3.328125 25.921875 
z
M 12.359375 25.921875 
Q 12.359375 15.96875 16.703125 11.015625 
Q 21.046875 6.0625 27.640625 6.0625 
Q 34.1875 6.0625 38.53125 11.03125 
Q 42.875 16.015625 42.875 26.21875 
Q 42.875 35.84375 38.5 40.796875 
Q 34.125 45.75 27.640625 45.75 
Q 21.046875 45.75 16.703125 40.8125 
Q 12.359375 35.890625 12.359375 25.921875 
z
" id="ArialMT-111"/>
      <path d="M 3.171875 21.484375 
L 3.171875 30.328125 
L 30.171875 30.328125 
L 30.171875 21.484375 
z
" id="ArialMT-45"/>
      <path d="M 6.59375 0 
L 6.59375 71.578125 
L 15.375 71.578125 
L 15.375 45.90625 
Q 21.53125 53.03125 30.90625 53.03125 
Q 36.671875 53.03125 40.921875 50.75 
Q 45.171875 48.484375 47 44.484375 
Q 48.828125 40.484375 48.828125 32.859375 
L 48.828125 0 
L 40.046875 0 
L 40.046875 32.859375 
Q 40.046875 39.453125 37.1875 42.453125 
Q 34.328125 45.453125 29.109375 45.453125 
Q 25.203125 45.453125 21.75 43.421875 
Q 18.3125 41.40625 16.84375 37.9375 
Q 15.375 34.46875 15.375 28.375 
L 15.375 0 
z
" id="ArialMT-104"/>
      <path d="M 6.640625 61.46875 
L 6.640625 71.578125 
L 15.4375 71.578125 
L 15.4375 61.46875 
z
M 6.640625 0 
L 6.640625 51.859375 
L 15.4375 51.859375 
L 15.4375 0 
z
" id="ArialMT-105"/>
      <path d="M 6.5 0 
L 6.5 51.859375 
L 14.40625 51.859375 
L 14.40625 44 
Q 17.4375 49.515625 20 51.265625 
Q 22.5625 53.03125 25.640625 53.03125 
Q 30.078125 53.03125 34.671875 50.203125 
L 31.640625 42.046875 
Q 28.421875 43.953125 25.203125 43.953125 
Q 22.3125 43.953125 20.015625 42.21875 
Q 17.71875 40.484375 16.75 37.40625 
Q 15.28125 32.71875 15.28125 27.15625 
L 15.28125 0 
z
" id="ArialMT-114"/>
     </defs>
     <g style="fill:#262626;" transform="translate(226.156348 384.85375)scale(0.11 -0.11)">
      <use xlink:href="#ArialMT-71"/>
      <use x="77.783203" xlink:href="#ArialMT-97"/>
      <use x="133.398438" xlink:href="#ArialMT-109"/>
      <use x="216.699219" xlink:href="#ArialMT-101"/>
      <use x="272.314453" xlink:href="#ArialMT-115"/>
      <use x="322.314453" xlink:href="#ArialMT-32"/>
      <use x="350.097656" xlink:href="#ArialMT-98"/>
      <use x="405.712891" xlink:href="#ArialMT-101"/>
      <use x="461.328125" xlink:href="#ArialMT-116"/>
      <use x="489.111328" xlink:href="#ArialMT-119"/>
      <use x="561.328125" xlink:href="#ArialMT-101"/>
      <use x="616.943359" xlink:href="#ArialMT-101"/>
      <use x="672.558594" xlink:href="#ArialMT-110"/>
      <use x="728.173828" xlink:href="#ArialMT-32"/>
      <use x="755.957031" xlink:href="#ArialMT-110"/>
      <use x="811.572266" xlink:href="#ArialMT-111"/>
      <use x="867.1875" xlink:href="#ArialMT-45"/>
      <use x="900.488281" xlink:href="#ArialMT-104"/>
      <use x="956.103516" xlink:href="#ArialMT-105"/>
      <use x="978.320312" xlink:href="#ArialMT-116"/>
      <use x="1006.103516" xlink:href="#ArialMT-116"/>
      <use x="1033.886719" xlink:href="#ArialMT-101"/>
      <use x="1089.501953" xlink:href="#ArialMT-114"/>
      <use x="1122.802734" xlink:href="#ArialMT-115"/>
     </g>
    </g>
   </g>
   <g id="matplotlib.axis_2">
    <g id="ytick_1">
     <g id="line2d_17">
      <path clip-path="url(#p0922852075)" d="M 47.919844 350.254934 
L 533.391914 350.254934 
" style="fill:none;stroke:#ffffff;stroke-linecap:round;"/>
     </g>
     <g id="line2d_18"/>
     <g id="text_10">
      <!-- 0.0 -->
      <defs>
       <path d="M 9.078125 0 
L 9.078125 10.015625 
L 19.09375 10.015625 
L 19.09375 0 
z
" id="ArialMT-46"/>
      </defs>
      <g style="fill:#262626;" transform="translate(27.019844 353.83384)scale(0.1 -0.1)">
       <use xlink:href="#ArialMT-48"/>
       <use x="55.615234" xlink:href="#ArialMT-46"/>
       <use x="83.398438" xlink:href="#ArialMT-48"/>
      </g>
     </g>
    </g>
    <g id="ytick_2">
     <g id="line2d_19">
      <path clip-path="url(#p0922852075)" d="M 47.919844 284.118543 
L 533.391914 284.118543 
" style="fill:none;stroke:#ffffff;stroke-linecap:round;"/>
     </g>
     <g id="line2d_20"/>
     <g id="text_11">
      <!-- 0.2 -->
      <g style="fill:#262626;" transform="translate(27.019844 287.697449)scale(0.1 -0.1)">
       <use xlink:href="#ArialMT-48"/>
       <use x="55.615234" xlink:href="#ArialMT-46"/>
       <use x="83.398438" xlink:href="#ArialMT-50"/>
      </g>
     </g>
    </g>
    <g id="ytick_3">
     <g id="line2d_21">
      <path clip-path="url(#p0922852075)" d="M 47.919844 217.982152 
L 533.391914 217.982152 
" style="fill:none;stroke:#ffffff;stroke-linecap:round;"/>
     </g>
     <g id="line2d_22"/>
     <g id="text_12">
      <!-- 0.4 -->
      <g style="fill:#262626;" transform="translate(27.019844 221.561058)scale(0.1 -0.1)">
       <use xlink:href="#ArialMT-48"/>
       <use x="55.615234" xlink:href="#ArialMT-46"/>
       <use x="83.398438" xlink:href="#ArialMT-52"/>
      </g>
     </g>
    </g>
    <g id="ytick_4">
     <g id="line2d_23">
      <path clip-path="url(#p0922852075)" d="M 47.919844 151.84576 
L 533.391914 151.84576 
" style="fill:none;stroke:#ffffff;stroke-linecap:round;"/>
     </g>
     <g id="line2d_24"/>
     <g id="text_13">
      <!-- 0.6 -->
      <g style="fill:#262626;" transform="translate(27.019844 155.424667)scale(0.1 -0.1)">
       <use xlink:href="#ArialMT-48"/>
       <use x="55.615234" xlink:href="#ArialMT-46"/>
       <use x="83.398438" xlink:href="#ArialMT-54"/>
      </g>
     </g>
    </g>
    <g id="ytick_5">
     <g id="line2d_25">
      <path clip-path="url(#p0922852075)" d="M 47.919844 85.709369 
L 533.391914 85.709369 
" style="fill:none;stroke:#ffffff;stroke-linecap:round;"/>
     </g>
     <g id="line2d_26"/>
     <g id="text_14">
      <!-- 0.8 -->
      <g style="fill:#262626;" transform="translate(27.019844 89.288275)scale(0.1 -0.1)">
       <use xlink:href="#ArialMT-48"/>
       <use x="55.615234" xlink:href="#ArialMT-46"/>
       <use x="83.398438" xlink:href="#ArialMT-56"/>
      </g>
     </g>
    </g>
    <g id="ytick_6">
     <g id="line2d_27">
      <path clip-path="url(#p0922852075)" d="M 47.919844 19.572978 
L 533.391914 19.572978 
" style="fill:none;stroke:#ffffff;stroke-linecap:round;"/>
     </g>
     <g id="line2d_28"/>
     <g id="text_15">
      <!-- 1.0 -->
      <g style="fill:#262626;" transform="translate(27.019844 23.151884)scale(0.1 -0.1)">
       <use xlink:href="#ArialMT-49"/>
       <use x="55.615234" xlink:href="#ArialMT-46"/>
       <use x="83.398438" xlink:href="#ArialMT-48"/>
      </g>
     </g>
    </g>
    <g id="text_16">
     <!-- CDF -->
     <defs>
      <path d="M 58.796875 25.09375 
L 68.265625 22.703125 
Q 65.28125 11.03125 57.546875 4.90625 
Q 49.8125 -1.21875 38.625 -1.21875 
Q 27.046875 -1.21875 19.796875 3.484375 
Q 12.546875 8.203125 8.765625 17.140625 
Q 4.984375 26.078125 4.984375 36.328125 
Q 4.984375 47.515625 9.25 55.828125 
Q 13.53125 64.15625 21.40625 68.46875 
Q 29.296875 72.796875 38.765625 72.796875 
Q 49.515625 72.796875 56.828125 67.328125 
Q 64.15625 61.859375 67.046875 51.953125 
L 57.71875 49.75 
Q 55.21875 57.5625 50.484375 61.125 
Q 45.75 64.703125 38.578125 64.703125 
Q 30.328125 64.703125 24.78125 60.734375 
Q 19.234375 56.78125 16.984375 50.109375 
Q 14.75 43.453125 14.75 36.375 
Q 14.75 27.25 17.40625 20.4375 
Q 20.0625 13.625 25.671875 10.25 
Q 31.296875 6.890625 37.84375 6.890625 
Q 45.796875 6.890625 51.3125 11.46875 
Q 56.84375 16.0625 58.796875 25.09375 
z
" id="ArialMT-67"/>
      <path d="M 7.71875 0 
L 7.71875 71.578125 
L 32.375 71.578125 
Q 40.71875 71.578125 45.125 70.5625 
Q 51.265625 69.140625 55.609375 65.4375 
Q 61.28125 60.640625 64.078125 53.1875 
Q 66.890625 45.75 66.890625 36.1875 
Q 66.890625 28.03125 64.984375 21.734375 
Q 63.09375 15.4375 60.109375 11.296875 
Q 57.125 7.171875 53.578125 4.796875 
Q 50.046875 2.4375 45.046875 1.21875 
Q 40.046875 0 33.546875 0 
z
M 17.1875 8.453125 
L 32.46875 8.453125 
Q 39.546875 8.453125 43.578125 9.765625 
Q 47.609375 11.078125 50 13.484375 
Q 53.375 16.84375 55.25 22.53125 
Q 57.125 28.21875 57.125 36.328125 
Q 57.125 47.5625 53.4375 53.59375 
Q 49.75 59.625 44.484375 61.671875 
Q 40.671875 63.140625 32.234375 63.140625 
L 17.1875 63.140625 
z
" id="ArialMT-68"/>
      <path d="M 8.203125 0 
L 8.203125 71.578125 
L 56.5 71.578125 
L 56.5 63.140625 
L 17.671875 63.140625 
L 17.671875 40.96875 
L 51.265625 40.96875 
L 51.265625 32.515625 
L 17.671875 32.515625 
L 17.671875 0 
z
" id="ArialMT-70"/>
     </defs>
     <g style="fill:#262626;" transform="translate(20.833594 196.200781)rotate(-90)scale(0.11 -0.11)">
      <use xlink:href="#ArialMT-67"/>
      <use x="72.216797" xlink:href="#ArialMT-68"/>
      <use x="144.433594" xlink:href="#ArialMT-70"/>
     </g>
    </g>
   </g>
   <g id="line2d_29">
    <path clip-path="url(#p0922852075)" d="M 57.25614 350.221866 
L 57.3843 348.932206 
L 57.509718 347.113456 
L 57.878989 342.219363 
L 58.210435 338.41652 
L 58.261229 337.821293 
L 58.398768 335.638792 
L 58.433241 335.208905 
L 58.677436 332.034358 
L 58.825999 330.116403 
L 59.814219 317.285943 
L 59.857561 316.822988 
L 60.020883 314.971169 
L 60.07738 314.309806 
L 60.198292 312.821737 
L 60.668953 307.497757 
L 60.776979 305.910484 
L 60.83027 305.083779 
L 60.973936 303.364233 
L 61.093029 302.173778 
L 61.313368 299.991277 
L 61.426594 298.966163 
L 62.039622 291.790364 
L 62.559366 286.36718 
L 62.831544 283.523315 
L 62.870682 283.126497 
L 63.169022 279.985018 
L 63.247408 278.992973 
L 63.410159 277.174222 
L 63.561792 275.884562 
L 65.248301 258.88751 
L 65.546192 255.977508 
L 65.595663 255.514554 
L 66.287177 249.264665 
L 66.3273 249.000119 
L 66.573158 246.685345 
L 66.629536 246.321595 
L 66.916718 243.47773 
L 67.029668 242.783298 
L 71.211881 207.499534 
L 71.279995 207.069647 
L 71.810847 203.101464 
L 71.911189 202.307827 
L 72.025515 201.481122 
L 72.18518 200.290667 
L 72.322561 199.331689 
L 72.724543 196.256347 
L 73.426134 191.395322 
L 73.669099 189.741913 
L 73.782888 189.477367 
L 73.844191 189.179753 
L 74.331431 185.542252 
L 74.393293 185.244638 
L 74.530169 184.153387 
L 74.613536 183.591228 
L 74.782932 182.433841 
L 74.83159 182.103159 
L 74.991256 180.780432 
L 75.267895 178.763272 
L 75.337439 178.366453 
L 75.74956 175.324179 
L 75.935194 173.902247 
L 76.015079 173.571565 
L 76.125764 173.075542 
L 76.296312 172.281905 
L 76.482895 171.289859 
L 76.586431 170.529291 
L 76.704295 169.900995 
L 76.777967 169.371904 
L 76.962826 168.214517 
L 77.024121 167.718494 
L 77.169105 166.594176 
L 77.404279 165.370652 
L 77.534687 164.577016 
L 77.734395 163.419629 
L 77.936703 162.163037 
L 78.331832 160.245082 
L 78.445144 159.451445 
L 78.573517 158.988491 
L 78.724744 157.996445 
L 78.919873 157.070535 
L 79.005103 156.706785 
L 79.174559 155.317921 
L 79.258013 154.821898 
L 79.449462 153.565307 
L 79.540634 153.234625 
L 79.677236 152.474056 
L 80.847433 146.124962 
L 80.999274 145.265189 
L 81.071182 145.033712 
L 81.199515 144.372348 
L 81.483335 142.950416 
L 81.604107 142.454393 
L 81.765016 141.693824 
L 82.208689 139.412119 
L 82.281207 139.180641 
L 82.487593 138.387005 
L 82.581069 137.92405 
L 82.724771 137.031209 
L 82.864355 136.469049 
L 83.01459 135.675413 
L 83.074105 135.477003 
L 83.194516 135.047117 
L 83.465399 133.757457 
L 83.515083 133.426775 
L 83.852638 131.740297 
L 83.99744 131.078933 
L 84.131833 130.78132 
L 84.304112 130.119956 
L 85.353983 125.09359 
L 85.409589 124.829044 
L 85.643877 123.506317 
L 85.758812 123.175635 
L 85.869164 122.547339 
L 85.994604 121.78677 
L 86.0706 121.555293 
L 86.188185 121.158475 
L 86.682392 119.60427 
L 87.142882 117.421769 
L 87.440313 115.966768 
L 87.578694 115.272336 
L 87.709137 115.040859 
L 87.82612 114.842449 
L 88.011632 114.048813 
L 88.07995 113.751199 
L 88.209116 113.321312 
L 88.285743 113.122903 
L 88.508408 112.130857 
L 88.62837 111.53563 
L 88.778756 111.337221 
L 88.913063 110.940402 
L 88.953661 110.708925 
L 89.126378 110.014493 
L 89.846743 107.402105 
L 89.92792 107.13756 
L 90.836228 104.029149 
L 90.961692 103.731536 
L 91.087315 103.268581 
L 91.231793 102.574149 
L 91.405462 102.144262 
L 91.576136 101.515967 
L 91.708156 101.019944 
L 91.886871 100.689262 
L 92.021011 100.391648 
L 92.150425 100.127102 
L 92.346394 99.366534 
L 92.526157 98.837443 
L 92.722611 98.275283 
L 93.030756 97.349374 
L 93.246874 96.787215 
L 93.541852 95.828237 
L 95.481579 90.570394 
L 95.566846 90.405053 
L 95.675172 89.875962 
L 95.760496 89.710621 
L 95.861813 89.446075 
L 96.024731 88.850848 
L 97.07026 86.80062 
L 97.330656 86.040051 
L 97.720972 85.114142 
L 97.843781 84.717323 
L 97.986702 84.452778 
L 98.758636 81.807322 
L 98.981414 81.179026 
L 99.627521 79.426412 
L 99.71788 79.161866 
L 99.862811 78.930389 
L 100.112661 78.401298 
L 100.242394 78.136752 
L 101.034786 75.921183 
L 101.20481 75.491297 
L 102.603663 72.349818 
L 102.856342 72.085272 
L 102.994074 71.721522 
L 103.19434 71.258568 
L 103.820025 70.167317 
L 103.937002 69.93584 
L 105.424057 67.191179 
L 105.532305 66.99277 
L 105.733723 66.62902 
L 105.850887 66.463679 
L 106.033305 66.166065 
L 106.980667 64.413451 
L 107.071074 64.24811 
L 107.228373 64.082769 
L 107.532249 63.421405 
L 107.681409 63.090723 
L 107.865145 62.793109 
L 108.727376 61.305041 
L 108.882031 61.1397 
L 109.005025 60.908222 
L 109.335159 60.147654 
L 109.565303 59.816972 
L 109.773427 59.287881 
L 112.058408 55.981061 
L 112.264922 55.848788 
L 112.361381 55.650379 
L 112.618807 55.352765 
L 112.844553 55.08822 
L 113.093405 54.823674 
L 113.753454 53.732424 
L 114.014825 53.534015 
L 114.092396 53.302537 
L 114.200917 53.203333 
L 114.324731 53.004924 
L 114.475525 52.641173 
L 115.02638 51.880605 
L 115.138528 51.715264 
L 115.774552 51.086968 
L 115.960055 50.888559 
L 116.672138 50.194127 
L 116.944151 50.061854 
L 117.13995 49.830377 
L 117.286586 49.631968 
L 117.58884 49.334354 
L 118.097278 48.342308 
L 118.194839 48.210035 
L 118.444301 47.978558 
L 118.527965 47.846285 
L 118.919623 47.515603 
L 119.307129 47.151853 
L 119.534281 46.986512 
L 119.781995 46.523557 
L 119.940148 46.424353 
L 120.186178 46.259012 
L 120.59097 46.027534 
L 122.401533 44.506397 
L 122.708646 44.341056 
L 122.722933 44.27492 
L 123.093694 44.109579 
L 123.36697 43.91117 
L 123.478305 43.845033 
L 124.918048 42.423101 
L 125.141268 42.290828 
L 125.316884 42.092419 
L 125.598135 41.662532 
L 126.379391 40.736623 
L 126.838774 40.571282 
L 126.91101 40.405941 
L 127.13147 40.141395 
L 128.572137 38.984009 
L 128.76302 38.785599 
L 128.896975 38.58719 
L 129.906123 37.85969 
L 130.025525 37.727417 
L 130.342054 37.396735 
L 130.56266 37.198326 
L 130.688504 37.032985 
L 130.733847 36.999917 
L 131.008718 36.867644 
L 131.266212 36.57003 
L 131.820345 36.107076 
L 132.123232 35.809462 
L 132.442789 35.644121 
L 133.399387 34.784348 
L 133.48438 34.652075 
L 134.156444 34.288325 
L 136.05355 33.428552 
L 136.799195 32.965597 
L 136.903219 32.899461 
L 137.486285 32.502642 
L 137.587102 32.370369 
L 139.651568 31.675937 
L 139.739711 31.510596 
L 139.879505 31.411392 
L 140.281777 31.246051 
L 141.74331 30.452414 
L 142.563978 30.187869 
L 142.731503 29.923323 
L 143.296531 29.691846 
L 143.584377 29.460368 
L 143.86147 29.295027 
L 144.43959 29.129686 
L 144.540954 29.030482 
L 145.789078 28.534459 
L 145.947103 28.369118 
L 145.959287 28.302981 
L 148.760422 27.476277 
L 148.824357 27.41014 
L 150.394742 27.079458 
L 150.539771 27.013322 
L 151.437665 26.748776 
L 151.684581 26.550367 
L 151.754078 26.418094 
L 152.528434 26.252753 
L 153.234171 26.054344 
L 153.254801 26.021276 
L 154.461489 25.789799 
L 154.484467 25.75673 
L 155.176929 25.591389 
L 155.233468 25.558321 
L 156.247668 25.426048 
L 156.351025 25.326844 
L 157.238721 25.161503 
L 157.267429 25.128435 
L 157.82169 24.963094 
L 157.982586 24.830821 
L 158.151432 24.764684 
L 159.886854 24.599344 
L 160.014316 24.533207 
L 162.066278 24.202525 
L 162.109017 24.136389 
L 163.301023 23.93798 
L 163.448253 23.871843 
L 163.550158 23.838775 
L 165.195347 23.673434 
L 166.988265 23.177411 
L 168.637337 22.945934 
L 169.479389 22.813661 
L 175.611986 22.152297 
L 178.227828 21.986956 
L 178.88594 21.854683 
L 182.206652 21.524001 
L 182.260602 21.490933 
L 183.79993 21.391729 
L 190.479254 21.193319 
L 190.915564 21.127183 
L 194.435686 20.928774 
L 195.805866 20.763433 
L 201.416452 20.531955 
L 204.229073 20.333546 
L 220.559945 19.969796 
L 252.77006 19.606046 
L 264.133968 19.572978 
L 264.133968 19.572978 
" style="fill:none;stroke:#4c72b0;stroke-linecap:round;stroke-width:1.75;"/>
   </g>
   <g id="line2d_30">
    <defs>
     <path d="M 0 1.75 
C 0.464105 1.75 0.909265 1.565609 1.237437 1.237437 
C 1.565609 0.909265 1.75 0.464105 1.75 0 
C 1.75 -0.464105 1.565609 -0.909265 1.237437 -1.237437 
C 0.909265 -1.565609 0.464105 -1.75 0 -1.75 
C -0.464105 -1.75 -0.909265 -1.565609 -1.237437 -1.237437 
C -1.565609 -0.909265 -1.75 -0.464105 -1.75 0 
C -1.75 0.464105 -1.565609 0.909265 -1.237437 1.237437 
C -0.909265 1.565609 -0.464105 1.75 0 1.75 
z
" id="mb4b9075bf8"/>
    </defs>
    <g clip-path="url(#p0922852075)">
     <use style="fill:#55a868;" x="57.255845" xlink:href="#mb4b9075bf8" y="348.937476"/>
     <use style="fill:#55a868;" x="57.322196" xlink:href="#mb4b9075bf8" y="347.620018"/>
     <use style="fill:#55a868;" x="57.521249" xlink:href="#mb4b9075bf8" y="346.30256"/>
     <use style="fill:#55a868;" x="57.620776" xlink:href="#mb4b9075bf8" y="344.985102"/>
     <use style="fill:#55a868;" x="57.653951" xlink:href="#mb4b9075bf8" y="343.667644"/>
     <use style="fill:#55a868;" x="57.653951" xlink:href="#mb4b9075bf8" y="342.350186"/>
     <use style="fill:#55a868;" x="57.919355" xlink:href="#mb4b9075bf8" y="341.032728"/>
     <use style="fill:#55a868;" x="58.018882" xlink:href="#mb4b9075bf8" y="339.71527"/>
     <use style="fill:#55a868;" x="58.118408" xlink:href="#mb4b9075bf8" y="338.397812"/>
     <use style="fill:#55a868;" x="58.118408" xlink:href="#mb4b9075bf8" y="337.080354"/>
     <use style="fill:#55a868;" x="58.217935" xlink:href="#mb4b9075bf8" y="335.762896"/>
     <use style="fill:#55a868;" x="58.284286" xlink:href="#mb4b9075bf8" y="334.445438"/>
     <use style="fill:#55a868;" x="58.284286" xlink:href="#mb4b9075bf8" y="333.12798"/>
     <use style="fill:#55a868;" x="58.483339" xlink:href="#mb4b9075bf8" y="331.810522"/>
     <use style="fill:#55a868;" x="58.54969" xlink:href="#mb4b9075bf8" y="330.493064"/>
     <use style="fill:#55a868;" x="58.616041" xlink:href="#mb4b9075bf8" y="329.175606"/>
     <use style="fill:#55a868;" x="58.649216" xlink:href="#mb4b9075bf8" y="327.858148"/>
     <use style="fill:#55a868;" x="58.715567" xlink:href="#mb4b9075bf8" y="326.54069"/>
     <use style="fill:#55a868;" x="58.748743" xlink:href="#mb4b9075bf8" y="325.223232"/>
     <use style="fill:#55a868;" x="58.980972" xlink:href="#mb4b9075bf8" y="323.905774"/>
     <use style="fill:#55a868;" x="59.047323" xlink:href="#mb4b9075bf8" y="322.588316"/>
     <use style="fill:#55a868;" x="59.080498" xlink:href="#mb4b9075bf8" y="321.270858"/>
     <use style="fill:#55a868;" x="59.2132" xlink:href="#mb4b9075bf8" y="319.9534"/>
     <use style="fill:#55a868;" x="59.312727" xlink:href="#mb4b9075bf8" y="318.635942"/>
     <use style="fill:#55a868;" x="59.312727" xlink:href="#mb4b9075bf8" y="317.318484"/>
     <use style="fill:#55a868;" x="59.379078" xlink:href="#mb4b9075bf8" y="316.001026"/>
     <use style="fill:#55a868;" x="59.611306" xlink:href="#mb4b9075bf8" y="314.683568"/>
     <use style="fill:#55a868;" x="59.677657" xlink:href="#mb4b9075bf8" y="313.36611"/>
     <use style="fill:#55a868;" x="59.810359" xlink:href="#mb4b9075bf8" y="312.048652"/>
     <use style="fill:#55a868;" x="59.87671" xlink:href="#mb4b9075bf8" y="310.731194"/>
     <use style="fill:#55a868;" x="59.976237" xlink:href="#mb4b9075bf8" y="309.413736"/>
     <use style="fill:#55a868;" x="60.142114" xlink:href="#mb4b9075bf8" y="308.096278"/>
     <use style="fill:#55a868;" x="60.274816" xlink:href="#mb4b9075bf8" y="306.77882"/>
     <use style="fill:#55a868;" x="60.341167" xlink:href="#mb4b9075bf8" y="305.461362"/>
     <use style="fill:#55a868;" x="60.440694" xlink:href="#mb4b9075bf8" y="304.143904"/>
     <use style="fill:#55a868;" x="60.573396" xlink:href="#mb4b9075bf8" y="302.826446"/>
     <use style="fill:#55a868;" x="60.606571" xlink:href="#mb4b9075bf8" y="301.508988"/>
     <use style="fill:#55a868;" x="60.706098" xlink:href="#mb4b9075bf8" y="300.19153"/>
     <use style="fill:#55a868;" x="60.805624" xlink:href="#mb4b9075bf8" y="298.874072"/>
     <use style="fill:#55a868;" x="60.905151" xlink:href="#mb4b9075bf8" y="297.556614"/>
     <use style="fill:#55a868;" x="60.905151" xlink:href="#mb4b9075bf8" y="296.239156"/>
     <use style="fill:#55a868;" x="61.203731" xlink:href="#mb4b9075bf8" y="294.921698"/>
     <use style="fill:#55a868;" x="61.336433" xlink:href="#mb4b9075bf8" y="293.60424"/>
     <use style="fill:#55a868;" x="61.369608" xlink:href="#mb4b9075bf8" y="292.286782"/>
     <use style="fill:#55a868;" x="61.469135" xlink:href="#mb4b9075bf8" y="290.969324"/>
     <use style="fill:#55a868;" x="61.535486" xlink:href="#mb4b9075bf8" y="289.651866"/>
     <use style="fill:#55a868;" x="61.767714" xlink:href="#mb4b9075bf8" y="288.334408"/>
     <use style="fill:#55a868;" x="61.834065" xlink:href="#mb4b9075bf8" y="287.01695"/>
     <use style="fill:#55a868;" x="61.867241" xlink:href="#mb4b9075bf8" y="285.699492"/>
     <use style="fill:#55a868;" x="62.198996" xlink:href="#mb4b9075bf8" y="284.382034"/>
     <use style="fill:#55a868;" x="62.265347" xlink:href="#mb4b9075bf8" y="283.064577"/>
     <use style="fill:#55a868;" x="62.431224" xlink:href="#mb4b9075bf8" y="281.747119"/>
     <use style="fill:#55a868;" x="62.431224" xlink:href="#mb4b9075bf8" y="280.429661"/>
     <use style="fill:#55a868;" x="62.4644" xlink:href="#mb4b9075bf8" y="279.112203"/>
     <use style="fill:#55a868;" x="62.597102" xlink:href="#mb4b9075bf8" y="277.794745"/>
     <use style="fill:#55a868;" x="62.630277" xlink:href="#mb4b9075bf8" y="276.477287"/>
     <use style="fill:#55a868;" x="62.762979" xlink:href="#mb4b9075bf8" y="275.159829"/>
     <use style="fill:#55a868;" x="62.928857" xlink:href="#mb4b9075bf8" y="273.842371"/>
     <use style="fill:#55a868;" x="63.094735" xlink:href="#mb4b9075bf8" y="272.524913"/>
     <use style="fill:#55a868;" x="63.194261" xlink:href="#mb4b9075bf8" y="271.207455"/>
     <use style="fill:#55a868;" x="63.194261" xlink:href="#mb4b9075bf8" y="269.889997"/>
     <use style="fill:#55a868;" x="63.227437" xlink:href="#mb4b9075bf8" y="268.572539"/>
     <use style="fill:#55a868;" x="63.492841" xlink:href="#mb4b9075bf8" y="267.255081"/>
     <use style="fill:#55a868;" x="63.625543" xlink:href="#mb4b9075bf8" y="265.937623"/>
     <use style="fill:#55a868;" x="63.625543" xlink:href="#mb4b9075bf8" y="264.620165"/>
     <use style="fill:#55a868;" x="63.625543" xlink:href="#mb4b9075bf8" y="263.302707"/>
     <use style="fill:#55a868;" x="63.79142" xlink:href="#mb4b9075bf8" y="261.985249"/>
     <use style="fill:#55a868;" x="63.990473" xlink:href="#mb4b9075bf8" y="260.667791"/>
     <use style="fill:#55a868;" x="64.09" xlink:href="#mb4b9075bf8" y="259.350333"/>
     <use style="fill:#55a868;" x="64.255877" xlink:href="#mb4b9075bf8" y="258.032875"/>
     <use style="fill:#55a868;" x="64.388579" xlink:href="#mb4b9075bf8" y="256.715417"/>
     <use style="fill:#55a868;" x="64.388579" xlink:href="#mb4b9075bf8" y="255.397959"/>
     <use style="fill:#55a868;" x="64.421755" xlink:href="#mb4b9075bf8" y="254.080501"/>
     <use style="fill:#55a868;" x="64.521281" xlink:href="#mb4b9075bf8" y="252.763043"/>
     <use style="fill:#55a868;" x="64.521281" xlink:href="#mb4b9075bf8" y="251.445585"/>
     <use style="fill:#55a868;" x="64.687159" xlink:href="#mb4b9075bf8" y="250.128127"/>
     <use style="fill:#55a868;" x="64.720334" xlink:href="#mb4b9075bf8" y="248.810669"/>
     <use style="fill:#55a868;" x="64.75351" xlink:href="#mb4b9075bf8" y="247.493211"/>
     <use style="fill:#55a868;" x="64.952563" xlink:href="#mb4b9075bf8" y="246.175753"/>
     <use style="fill:#55a868;" x="64.985738" xlink:href="#mb4b9075bf8" y="244.858295"/>
     <use style="fill:#55a868;" x="65.151616" xlink:href="#mb4b9075bf8" y="243.540837"/>
     <use style="fill:#55a868;" x="65.184792" xlink:href="#mb4b9075bf8" y="242.223379"/>
     <use style="fill:#55a868;" x="65.217967" xlink:href="#mb4b9075bf8" y="240.905921"/>
     <use style="fill:#55a868;" x="65.284318" xlink:href="#mb4b9075bf8" y="239.588463"/>
     <use style="fill:#55a868;" x="65.582898" xlink:href="#mb4b9075bf8" y="238.271005"/>
     <use style="fill:#55a868;" x="65.616073" xlink:href="#mb4b9075bf8" y="236.953547"/>
     <use style="fill:#55a868;" x="65.7156" xlink:href="#mb4b9075bf8" y="235.636089"/>
     <use style="fill:#55a868;" x="66.113706" xlink:href="#mb4b9075bf8" y="234.318631"/>
     <use style="fill:#55a868;" x="66.180057" xlink:href="#mb4b9075bf8" y="233.001173"/>
     <use style="fill:#55a868;" x="66.445461" xlink:href="#mb4b9075bf8" y="231.683715"/>
     <use style="fill:#55a868;" x="66.478636" xlink:href="#mb4b9075bf8" y="230.366257"/>
     <use style="fill:#55a868;" x="66.544987" xlink:href="#mb4b9075bf8" y="229.048799"/>
     <use style="fill:#55a868;" x="66.810391" xlink:href="#mb4b9075bf8" y="227.731341"/>
     <use style="fill:#55a868;" x="67.075795" xlink:href="#mb4b9075bf8" y="226.413883"/>
     <use style="fill:#55a868;" x="67.175322" xlink:href="#mb4b9075bf8" y="225.096425"/>
     <use style="fill:#55a868;" x="67.473902" xlink:href="#mb4b9075bf8" y="223.778967"/>
     <use style="fill:#55a868;" x="67.971534" xlink:href="#mb4b9075bf8" y="222.461509"/>
     <use style="fill:#55a868;" x="68.00471" xlink:href="#mb4b9075bf8" y="221.144051"/>
     <use style="fill:#55a868;" x="68.071061" xlink:href="#mb4b9075bf8" y="219.826593"/>
     <use style="fill:#55a868;" x="68.104236" xlink:href="#mb4b9075bf8" y="218.509135"/>
     <use style="fill:#55a868;" x="68.900448" xlink:href="#mb4b9075bf8" y="217.191677"/>
     <use style="fill:#55a868;" x="68.999975" xlink:href="#mb4b9075bf8" y="215.874219"/>
     <use style="fill:#55a868;" x="69.796187" xlink:href="#mb4b9075bf8" y="214.556761"/>
     <use style="fill:#55a868;" x="69.862538" xlink:href="#mb4b9075bf8" y="213.239303"/>
     <use style="fill:#55a868;" x="69.895714" xlink:href="#mb4b9075bf8" y="211.921845"/>
     <use style="fill:#55a868;" x="70.028416" xlink:href="#mb4b9075bf8" y="210.604387"/>
     <use style="fill:#55a868;" x="70.061591" xlink:href="#mb4b9075bf8" y="209.286929"/>
     <use style="fill:#55a868;" x="70.127942" xlink:href="#mb4b9075bf8" y="207.969471"/>
     <use style="fill:#55a868;" x="70.227469" xlink:href="#mb4b9075bf8" y="206.652013"/>
     <use style="fill:#55a868;" x="70.260644" xlink:href="#mb4b9075bf8" y="205.334555"/>
     <use style="fill:#55a868;" x="70.426522" xlink:href="#mb4b9075bf8" y="204.017097"/>
     <use style="fill:#55a868;" x="71.156383" xlink:href="#mb4b9075bf8" y="202.699639"/>
     <use style="fill:#55a868;" x="71.189558" xlink:href="#mb4b9075bf8" y="201.382181"/>
     <use style="fill:#55a868;" x="71.488138" xlink:href="#mb4b9075bf8" y="200.064723"/>
     <use style="fill:#55a868;" x="72.018946" xlink:href="#mb4b9075bf8" y="198.747265"/>
     <use style="fill:#55a868;" x="72.184824" xlink:href="#mb4b9075bf8" y="197.429807"/>
     <use style="fill:#55a868;" x="72.483403" xlink:href="#mb4b9075bf8" y="196.112349"/>
     <use style="fill:#55a868;" x="72.58293" xlink:href="#mb4b9075bf8" y="194.794891"/>
     <use style="fill:#55a868;" x="72.616105" xlink:href="#mb4b9075bf8" y="193.477433"/>
     <use style="fill:#55a868;" x="72.748807" xlink:href="#mb4b9075bf8" y="192.159975"/>
     <use style="fill:#55a868;" x="73.146913" xlink:href="#mb4b9075bf8" y="190.842517"/>
     <use style="fill:#55a868;" x="73.180089" xlink:href="#mb4b9075bf8" y="189.525059"/>
     <use style="fill:#55a868;" x="73.777248" xlink:href="#mb4b9075bf8" y="188.207601"/>
     <use style="fill:#55a868;" x="74.142179" xlink:href="#mb4b9075bf8" y="186.890143"/>
     <use style="fill:#55a868;" x="74.20853" xlink:href="#mb4b9075bf8" y="185.572685"/>
     <use style="fill:#55a868;" x="74.639811" xlink:href="#mb4b9075bf8" y="184.255227"/>
     <use style="fill:#55a868;" x="74.772513" xlink:href="#mb4b9075bf8" y="182.937769"/>
     <use style="fill:#55a868;" x="75.137444" xlink:href="#mb4b9075bf8" y="181.620311"/>
     <use style="fill:#55a868;" x="75.23697" xlink:href="#mb4b9075bf8" y="180.302853"/>
     <use style="fill:#55a868;" x="75.336497" xlink:href="#mb4b9075bf8" y="178.985395"/>
     <use style="fill:#55a868;" x="75.436023" xlink:href="#mb4b9075bf8" y="177.667937"/>
     <use style="fill:#55a868;" x="75.734603" xlink:href="#mb4b9075bf8" y="176.350479"/>
     <use style="fill:#55a868;" x="75.933656" xlink:href="#mb4b9075bf8" y="175.033021"/>
     <use style="fill:#55a868;" x="76.364938" xlink:href="#mb4b9075bf8" y="173.715563"/>
     <use style="fill:#55a868;" x="76.398113" xlink:href="#mb4b9075bf8" y="172.398105"/>
     <use style="fill:#55a868;" x="76.431289" xlink:href="#mb4b9075bf8" y="171.080647"/>
     <use style="fill:#55a868;" x="76.49764" xlink:href="#mb4b9075bf8" y="169.763189"/>
     <use style="fill:#55a868;" x="76.597166" xlink:href="#mb4b9075bf8" y="168.445731"/>
     <use style="fill:#55a868;" x="76.995272" xlink:href="#mb4b9075bf8" y="167.128273"/>
     <use style="fill:#55a868;" x="77.16115" xlink:href="#mb4b9075bf8" y="165.810815"/>
     <use style="fill:#55a868;" x="77.260676" xlink:href="#mb4b9075bf8" y="164.493357"/>
     <use style="fill:#55a868;" x="77.260676" xlink:href="#mb4b9075bf8" y="163.175899"/>
     <use style="fill:#55a868;" x="77.260676" xlink:href="#mb4b9075bf8" y="161.858441"/>
     <use style="fill:#55a868;" x="77.327027" xlink:href="#mb4b9075bf8" y="160.540983"/>
     <use style="fill:#55a868;" x="77.957362" xlink:href="#mb4b9075bf8" y="159.223525"/>
     <use style="fill:#55a868;" x="78.654048" xlink:href="#mb4b9075bf8" y="157.906067"/>
     <use style="fill:#55a868;" x="78.819925" xlink:href="#mb4b9075bf8" y="156.588609"/>
     <use style="fill:#55a868;" x="79.15168" xlink:href="#mb4b9075bf8" y="155.271151"/>
     <use style="fill:#55a868;" x="79.649313" xlink:href="#mb4b9075bf8" y="153.953693"/>
     <use style="fill:#55a868;" x="79.649313" xlink:href="#mb4b9075bf8" y="152.636235"/>
     <use style="fill:#55a868;" x="79.947893" xlink:href="#mb4b9075bf8" y="151.318777"/>
     <use style="fill:#55a868;" x="80.379174" xlink:href="#mb4b9075bf8" y="150.001319"/>
     <use style="fill:#55a868;" x="80.545052" xlink:href="#mb4b9075bf8" y="148.683861"/>
     <use style="fill:#55a868;" x="80.545052" xlink:href="#mb4b9075bf8" y="147.366403"/>
     <use style="fill:#55a868;" x="80.976333" xlink:href="#mb4b9075bf8" y="146.048945"/>
     <use style="fill:#55a868;" x="80.976333" xlink:href="#mb4b9075bf8" y="144.731487"/>
     <use style="fill:#55a868;" x="81.042684" xlink:href="#mb4b9075bf8" y="143.414029"/>
     <use style="fill:#55a868;" x="81.507141" xlink:href="#mb4b9075bf8" y="142.096571"/>
     <use style="fill:#55a868;" x="81.971599" xlink:href="#mb4b9075bf8" y="140.779113"/>
     <use style="fill:#55a868;" x="81.971599" xlink:href="#mb4b9075bf8" y="139.461655"/>
     <use style="fill:#55a868;" x="82.137476" xlink:href="#mb4b9075bf8" y="138.144197"/>
     <use style="fill:#55a868;" x="82.635109" xlink:href="#mb4b9075bf8" y="136.826739"/>
     <use style="fill:#55a868;" x="82.933688" xlink:href="#mb4b9075bf8" y="135.509281"/>
     <use style="fill:#55a868;" x="83.06639" xlink:href="#mb4b9075bf8" y="134.191823"/>
     <use style="fill:#55a868;" x="83.232268" xlink:href="#mb4b9075bf8" y="132.874365"/>
     <use style="fill:#55a868;" x="83.530847" xlink:href="#mb4b9075bf8" y="131.556907"/>
     <use style="fill:#55a868;" x="84.161182" xlink:href="#mb4b9075bf8" y="130.239449"/>
     <use style="fill:#55a868;" x="84.227533" xlink:href="#mb4b9075bf8" y="128.921991"/>
     <use style="fill:#55a868;" x="84.260709" xlink:href="#mb4b9075bf8" y="127.604533"/>
     <use style="fill:#55a868;" x="84.260709" xlink:href="#mb4b9075bf8" y="126.287075"/>
     <use style="fill:#55a868;" x="85.222798" xlink:href="#mb4b9075bf8" y="124.969617"/>
     <use style="fill:#55a868;" x="86.31759" xlink:href="#mb4b9075bf8" y="123.652159"/>
     <use style="fill:#55a868;" x="86.649345" xlink:href="#mb4b9075bf8" y="122.334701"/>
     <use style="fill:#55a868;" x="86.682521" xlink:href="#mb4b9075bf8" y="121.017243"/>
     <use style="fill:#55a868;" x="87.080627" xlink:href="#mb4b9075bf8" y="119.699785"/>
     <use style="fill:#55a868;" x="87.27968" xlink:href="#mb4b9075bf8" y="118.382327"/>
     <use style="fill:#55a868;" x="88.540349" xlink:href="#mb4b9075bf8" y="117.064869"/>
     <use style="fill:#55a868;" x="88.772578" xlink:href="#mb4b9075bf8" y="115.747411"/>
     <use style="fill:#55a868;" x="89.303386" xlink:href="#mb4b9075bf8" y="114.429953"/>
     <use style="fill:#55a868;" x="89.867369" xlink:href="#mb4b9075bf8" y="113.112495"/>
     <use style="fill:#55a868;" x="89.966896" xlink:href="#mb4b9075bf8" y="111.795037"/>
     <use style="fill:#55a868;" x="90.298651" xlink:href="#mb4b9075bf8" y="110.477579"/>
     <use style="fill:#55a868;" x="90.464529" xlink:href="#mb4b9075bf8" y="109.160121"/>
     <use style="fill:#55a868;" x="91.19439" xlink:href="#mb4b9075bf8" y="107.842663"/>
     <use style="fill:#55a868;" x="91.260741" xlink:href="#mb4b9075bf8" y="106.525205"/>
     <use style="fill:#55a868;" x="91.327092" xlink:href="#mb4b9075bf8" y="105.207747"/>
     <use style="fill:#55a868;" x="91.891075" xlink:href="#mb4b9075bf8" y="103.890289"/>
     <use style="fill:#55a868;" x="92.289181" xlink:href="#mb4b9075bf8" y="102.572831"/>
     <use style="fill:#55a868;" x="92.753639" xlink:href="#mb4b9075bf8" y="101.255373"/>
     <use style="fill:#55a868;" x="92.919516" xlink:href="#mb4b9075bf8" y="99.937915"/>
     <use style="fill:#55a868;" x="93.218096" xlink:href="#mb4b9075bf8" y="98.620457"/>
     <use style="fill:#55a868;" x="93.284447" xlink:href="#mb4b9075bf8" y="97.302999"/>
     <use style="fill:#55a868;" x="93.782079" xlink:href="#mb4b9075bf8" y="95.985541"/>
     <use style="fill:#55a868;" x="93.84843" xlink:href="#mb4b9075bf8" y="94.668083"/>
     <use style="fill:#55a868;" x="93.881606" xlink:href="#mb4b9075bf8" y="93.350625"/>
     <use style="fill:#55a868;" x="94.213361" xlink:href="#mb4b9075bf8" y="92.033167"/>
     <use style="fill:#55a868;" x="94.545116" xlink:href="#mb4b9075bf8" y="90.715709"/>
     <use style="fill:#55a868;" x="94.677818" xlink:href="#mb4b9075bf8" y="89.398251"/>
     <use style="fill:#55a868;" x="94.876871" xlink:href="#mb4b9075bf8" y="88.080793"/>
     <use style="fill:#55a868;" x="96.13754" xlink:href="#mb4b9075bf8" y="86.763335"/>
     <use style="fill:#55a868;" x="96.867402" xlink:href="#mb4b9075bf8" y="85.445877"/>
     <use style="fill:#55a868;" x="97.132806" xlink:href="#mb4b9075bf8" y="84.128419"/>
     <use style="fill:#55a868;" x="98.493001" xlink:href="#mb4b9075bf8" y="82.810961"/>
     <use style="fill:#55a868;" x="100.682585" xlink:href="#mb4b9075bf8" y="81.493503"/>
     <use style="fill:#55a868;" x="101.113867" xlink:href="#mb4b9075bf8" y="80.176045"/>
     <use style="fill:#55a868;" x="101.213393" xlink:href="#mb4b9075bf8" y="78.858587"/>
     <use style="fill:#55a868;" x="102.009605" xlink:href="#mb4b9075bf8" y="77.541129"/>
     <use style="fill:#55a868;" x="102.075956" xlink:href="#mb4b9075bf8" y="76.223671"/>
     <use style="fill:#55a868;" x="103.60203" xlink:href="#mb4b9075bf8" y="74.906213"/>
     <use style="fill:#55a868;" x="103.801083" xlink:href="#mb4b9075bf8" y="73.588756"/>
     <use style="fill:#55a868;" x="105.957491" xlink:href="#mb4b9075bf8" y="72.271298"/>
     <use style="fill:#55a868;" x="106.720527" xlink:href="#mb4b9075bf8" y="70.95384"/>
     <use style="fill:#55a868;" x="106.91958" xlink:href="#mb4b9075bf8" y="69.636382"/>
     <use style="fill:#55a868;" x="107.682617" xlink:href="#mb4b9075bf8" y="68.318924"/>
     <use style="fill:#55a868;" x="107.715793" xlink:href="#mb4b9075bf8" y="67.001466"/>
     <use style="fill:#55a868;" x="107.848495" xlink:href="#mb4b9075bf8" y="65.684008"/>
     <use style="fill:#55a868;" x="107.981197" xlink:href="#mb4b9075bf8" y="64.36655"/>
     <use style="fill:#55a868;" x="108.047548" xlink:href="#mb4b9075bf8" y="63.049092"/>
     <use style="fill:#55a868;" x="108.644707" xlink:href="#mb4b9075bf8" y="61.731634"/>
     <use style="fill:#55a868;" x="108.84376" xlink:href="#mb4b9075bf8" y="60.414176"/>
     <use style="fill:#55a868;" x="109.275042" xlink:href="#mb4b9075bf8" y="59.096718"/>
     <use style="fill:#55a868;" x="109.50727" xlink:href="#mb4b9075bf8" y="57.77926"/>
     <use style="fill:#55a868;" x="109.739499" xlink:href="#mb4b9075bf8" y="56.461802"/>
     <use style="fill:#55a868;" x="110.767939" xlink:href="#mb4b9075bf8" y="55.144344"/>
     <use style="fill:#55a868;" x="112.493066" xlink:href="#mb4b9075bf8" y="53.826886"/>
     <use style="fill:#55a868;" x="113.222927" xlink:href="#mb4b9075bf8" y="52.509428"/>
     <use style="fill:#55a868;" x="113.42198" xlink:href="#mb4b9075bf8" y="51.19197"/>
     <use style="fill:#55a868;" x="115.810617" xlink:href="#mb4b9075bf8" y="49.874512"/>
     <use style="fill:#55a868;" x="118.564184" xlink:href="#mb4b9075bf8" y="48.557054"/>
     <use style="fill:#55a868;" x="119.559449" xlink:href="#mb4b9075bf8" y="47.239596"/>
     <use style="fill:#55a868;" x="125.431514" xlink:href="#mb4b9075bf8" y="45.922138"/>
     <use style="fill:#55a868;" x="125.995498" xlink:href="#mb4b9075bf8" y="44.60468"/>
     <use style="fill:#55a868;" x="126.526306" xlink:href="#mb4b9075bf8" y="43.287222"/>
     <use style="fill:#55a868;" x="126.592657" xlink:href="#mb4b9075bf8" y="41.969764"/>
     <use style="fill:#55a868;" x="128.483661" xlink:href="#mb4b9075bf8" y="40.652306"/>
     <use style="fill:#55a868;" x="129.611628" xlink:href="#mb4b9075bf8" y="39.334848"/>
     <use style="fill:#55a868;" x="130.208787" xlink:href="#mb4b9075bf8" y="38.01739"/>
     <use style="fill:#55a868;" x="132.464722" xlink:href="#mb4b9075bf8" y="36.699932"/>
     <use style="fill:#55a868;" x="135.251464" xlink:href="#mb4b9075bf8" y="35.382474"/>
     <use style="fill:#55a868;" x="137.93868" xlink:href="#mb4b9075bf8" y="34.065016"/>
     <use style="fill:#55a868;" x="139.896035" xlink:href="#mb4b9075bf8" y="32.747558"/>
     <use style="fill:#55a868;" x="148.554843" xlink:href="#mb4b9075bf8" y="31.4301"/>
     <use style="fill:#55a868;" x="150.777602" xlink:href="#mb4b9075bf8" y="30.112642"/>
     <use style="fill:#55a868;" x="153.464818" xlink:href="#mb4b9075bf8" y="28.795184"/>
     <use style="fill:#55a868;" x="153.962451" xlink:href="#mb4b9075bf8" y="27.477726"/>
     <use style="fill:#55a868;" x="156.218385" xlink:href="#mb4b9075bf8" y="26.160268"/>
     <use style="fill:#55a868;" x="165.408001" xlink:href="#mb4b9075bf8" y="24.84281"/>
     <use style="fill:#55a868;" x="187.668767" xlink:href="#mb4b9075bf8" y="23.525352"/>
     <use style="fill:#55a868;" x="190.654563" xlink:href="#mb4b9075bf8" y="22.207894"/>
     <use style="fill:#55a868;" x="191.384424" xlink:href="#mb4b9075bf8" y="20.890436"/>
     <use style="fill:#55a868;" x="271.237871" xlink:href="#mb4b9075bf8" y="19.572978"/>
    </g>
   </g>
   <g id="line2d_31">
    <path clip-path="url(#p0922852075)" d="M 57.257842 350.221866 
L 58.417545 321.254127 
L 58.453972 320.361285 
L 58.509667 318.873217 
L 58.756449 313.020146 
L 58.920751 309.581054 
L 58.977882 308.688212 
L 59.17709 304.488551 
L 59.382666 300.156618 
L 59.427048 299.329913 
L 59.534285 297.081276 
L 59.571538 296.287639 
L 59.693389 293.344569 
L 59.919258 288.218999 
L 60.00797 286.400248 
L 60.161032 283.424111 
L 60.880523 269.204787 
L 60.931098 268.245809 
L 61.406609 259.681146 
L 61.490332 258.589896 
L 61.887605 251.54637 
L 62.027674 249.396937 
L 62.556177 239.64182 
L 62.732058 236.665682 
L 64.046117 215.402832 
L 64.112659 214.443855 
L 66.844529 176.41543 
L 66.913687 175.588725 
L 67.011583 174.332133 
L 67.130908 172.943269 
L 67.229298 171.65361 
L 67.362527 169.702586 
L 67.413047 169.07429 
L 67.585452 167.189403 
L 68.441427 158.062581 
L 68.477221 157.764967 
L 68.669907 155.582466 
L 68.725149 155.020307 
L 68.849207 153.664511 
L 68.957967 152.77167 
L 69.088326 151.548147 
L 69.260497 149.167236 
L 69.38182 147.613031 
L 70.535932 137.361891 
L 70.615075 136.898936 
L 70.817455 134.716435 
L 70.914841 134.055071 
L 71.118101 132.467798 
L 71.193816 132.037911 
L 71.327137 130.913592 
L 71.374935 130.450638 
L 71.495304 129.49166 
L 71.576661 129.061774 
L 71.633431 128.466546 
L 71.807992 126.284045 
L 72.158673 123.737794 
L 72.420259 121.753702 
L 72.961959 117.520973 
L 73.038601 117.091087 
L 73.256981 115.040859 
L 77.113921 89.54528 
L 77.165944 89.214598 
L 77.279593 88.718575 
L 79.076453 80.550731 
L 79.148108 80.220049 
L 79.233112 79.889367 
L 79.312248 79.724026 
L 79.415387 79.360275 
L 79.475849 79.062662 
L 80.585465 74.003228 
L 80.64469 73.77175 
L 80.816593 72.978114 
L 81.017031 72.415954 
L 81.111498 71.986068 
L 81.162958 71.820727 
L 81.265745 71.357772 
L 81.500267 70.101181 
L 81.611239 69.638226 
L 81.682415 69.340612 
L 82.243633 67.290384 
L 83.499916 63.123791 
L 83.646458 62.495496 
L 83.721 62.164814 
L 83.955496 61.437313 
L 84.020782 61.205836 
L 84.128908 60.709813 
L 84.293167 60.312995 
L 84.732879 58.891062 
L 85.003248 58.130494 
L 85.24211 56.675493 
L 85.438817 56.245607 
L 85.799822 55.121288 
L 85.906816 54.526061 
L 86.030389 54.294583 
L 86.128196 53.930833 
L 86.182644 53.765492 
L 86.250189 53.500946 
L 86.434894 53.302537 
L 88.198213 48.970604 
L 88.342854 48.805263 
L 88.429297 48.606854 
L 88.533972 48.143899 
L 88.813487 47.614808 
L 88.941222 47.350262 
L 89.063659 47.184921 
L 89.271718 46.920376 
L 90.78483 43.646624 
L 90.974306 43.448215 
L 91.575322 42.026283 
L 91.832076 41.563328 
L 92.276947 40.901964 
L 92.487751 40.505146 
L 92.745994 40.075259 
L 92.756292 40.009123 
L 92.939033 39.87685 
L 93.288844 39.14935 
L 93.625894 38.719463 
L 93.656047 38.653327 
L 93.849328 38.487986 
L 94.003846 38.256508 
L 94.137611 38.091167 
L 95.056426 37.032985 
L 95.255403 36.834576 
L 95.346796 36.669235 
L 95.893254 36.107076 
L 96.232696 35.379575 
L 96.943705 34.55287 
L 97.04916 34.387529 
L 97.455701 34.056847 
L 97.744657 33.494688 
L 97.992546 33.164006 
L 98.077416 33.064802 
L 98.47152 32.767188 
L 98.744024 32.568779 
L 99.053594 32.403438 
L 99.864292 31.874347 
L 99.976962 31.709006 
L 102.241764 29.757982 
L 102.354811 29.658777 
L 102.533927 29.493436 
L 102.798766 29.261959 
L 103.605343 28.666732 
L 104.192588 28.369118 
L 104.256232 28.236845 
L 104.683978 27.972299 
L 104.776469 27.906163 
L 105.135184 27.740822 
L 105.851895 27.310936 
L 106.303514 27.178663 
L 106.427621 27.013322 
L 107.117156 26.748776 
L 107.150906 26.715708 
L 107.771669 26.583435 
L 107.969796 26.31889 
L 112.533976 24.400934 
L 113.654121 24.169457 
L 115.004544 23.706502 
L 115.19805 23.607298 
L 115.446812 23.475025 
L 115.461654 23.441957 
L 116.147367 23.243547 
L 116.155256 23.210479 
L 118.642691 22.516047 
L 119.805358 22.350706 
L 119.884861 22.317638 
L 120.783524 22.152297 
L 122.381295 21.92082 
L 123.708273 21.755479 
L 124.786546 21.524001 
L 126.694925 21.35866 
L 127.354915 21.226388 
L 132.502155 20.63116 
L 135.283982 20.399683 
L 135.388465 20.333546 
L 137.742568 20.201273 
L 138.023172 20.135137 
L 141.311068 20.002864 
L 141.352126 19.969796 
L 143.985561 19.837523 
L 170.651649 19.606046 
L 177.44361 19.572978 
L 177.44361 19.572978 
" style="fill:none;stroke:#c44e52;stroke-linecap:round;stroke-width:1.75;"/>
   </g>
   <g id="line2d_32">
    <path clip-path="url(#p0922852075)" d="M 57.258282 350.221866 
L 57.492099 348.833002 
L 57.547964 348.634593 
L 58.125545 345.1955 
L 58.205988 344.864818 
L 58.378505 343.509022 
L 58.498067 342.550045 
L 58.667276 341.491862 
L 59.032821 339.276293 
L 59.096781 338.978679 
L 60.077102 332.993336 
L 60.595805 329.25663 
L 60.633607 329.025153 
L 60.74851 328.297652 
L 60.906086 327.404811 
L 61.145313 325.817538 
L 61.316982 324.660151 
L 61.395444 324.164128 
L 61.519487 323.370491 
L 61.55397 323.139014 
L 61.709708 322.510718 
L 61.88395 321.55174 
L 62.014209 320.758104 
L 62.163485 319.832194 
L 62.285771 318.873217 
L 62.709666 316.492306 
L 62.784974 316.128556 
L 63.065935 314.309806 
L 63.128303 313.946055 
L 63.257346 313.185487 
L 63.339578 312.722532 
L 63.473179 312.259577 
L 63.53842 311.895827 
L 63.762858 310.540031 
L 63.847609 310.209349 
L 64.010742 309.051962 
L 64.3197 307.26628 
L 64.535505 306.208098 
L 64.658352 305.480597 
L 64.820144 304.88537 
L 64.937428 304.290142 
L 65.017111 303.893324 
L 65.132804 303.265028 
L 65.19339 302.901278 
L 65.373294 301.644687 
L 65.593806 300.520368 
L 65.64026 300.321959 
L 65.739974 299.892072 
L 66.322412 296.717525 
L 66.432848 296.386843 
L 66.574031 295.593207 
L 66.627466 295.361729 
L 66.744537 294.79957 
L 67.014372 293.840592 
L 67.145049 293.080024 
L 67.311521 292.319455 
L 67.524027 291.095932 
L 67.62411 290.699114 
L 67.789524 289.806273 
L 67.9901 288.847295 
L 68.235495 287.491499 
L 68.629287 285.606612 
L 68.849544 284.680702 
L 69.015432 284.019338 
L 69.159894 283.126497 
L 69.705238 279.753541 
L 70.177947 276.876608 
L 70.307656 276.47979 
L 70.998301 272.544674 
L 71.120211 272.015583 
L 71.315543 270.825128 
L 71.482944 270.097628 
L 73.902899 259.218192 
L 74.522619 255.878304 
L 74.630102 255.514554 
L 74.779149 254.621712 
L 74.880018 254.059553 
L 75.141885 252.604552 
L 75.24779 252.174666 
L 76.067286 248.173414 
L 76.200995 247.545119 
L 76.971825 244.337504 
L 77.131854 243.643071 
L 78.453149 237.426251 
L 78.580477 236.963296 
L 78.866478 235.838977 
L 79.049695 234.846931 
L 79.272034 233.887954 
L 79.343133 233.623408 
L 79.551074 232.730567 
L 79.638167 232.399885 
L 79.857687 231.242498 
L 80.077616 230.48193 
L 80.233379 230.118179 
L 80.372314 229.489884 
L 80.450532 229.159202 
L 80.722153 228.299429 
L 81.142289 226.778292 
L 81.194684 226.579882 
L 81.331634 226.017723 
L 81.466836 225.488632 
L 81.649474 224.7942 
L 82.153802 222.148744 
L 82.326654 221.48738 
L 82.393462 221.322039 
L 82.594248 220.363062 
L 82.657941 220.131584 
L 83.038034 218.610447 
L 83.228927 217.882947 
L 83.313425 217.618401 
L 83.402087 217.419992 
L 83.482567 217.188515 
L 83.603826 216.427946 
L 83.803446 215.601242 
L 83.980785 214.7084 
L 84.111685 214.013968 
L 85.674559 207.664875 
L 85.776768 207.301124 
L 86.391379 205.217828 
L 86.626473 204.225782 
L 86.737661 203.862032 
L 86.838559 203.663623 
L 86.978299 203.233736 
L 87.345856 202.142486 
L 87.444022 201.844872 
L 87.582966 201.481122 
L 87.756198 200.885894 
L 87.917642 200.257599 
L 88.023053 199.794644 
L 88.278003 198.703394 
L 89.052461 196.223279 
L 89.587817 194.404528 
L 89.736342 193.941573 
L 89.868003 193.478619 
L 89.979957 192.949528 
L 90.079192 192.751118 
L 90.234638 192.155891 
L 90.396235 191.792141 
L 90.69025 190.965436 
L 91.10846 189.841117 
L 91.227671 189.444299 
L 91.69633 188.088503 
L 91.891026 187.559412 
L 92.918304 183.657365 
L 93.111182 183.095205 
L 93.242799 182.499978 
L 93.612812 181.243386 
L 93.712377 181.011909 
L 95.074521 176.514634 
L 95.150521 176.316225 
L 95.277793 175.720998 
L 95.351605 175.522588 
L 95.438736 175.390316 
L 95.549794 175.224975 
L 95.694046 174.596679 
L 95.814439 174.232929 
L 97.29908 169.768722 
L 97.38979 169.537245 
L 97.452326 169.206563 
L 97.553251 169.07429 
L 98.304717 167.25554 
L 98.49639 166.792585 
L 98.900974 165.635198 
L 99.013481 165.304516 
L 99.157366 164.808493 
L 99.355736 164.180197 
L 99.44575 163.981788 
L 99.56031 163.651106 
L 99.755067 163.287356 
L 99.860195 163.122015 
L 99.973874 162.758265 
L 100.093225 162.625992 
L 100.984173 159.980536 
L 101.13613 159.484514 
L 101.574694 158.525536 
L 101.692334 158.26099 
L 102.480655 155.747807 
L 102.716736 155.350989 
L 102.874669 154.821898 
L 103.020927 154.358943 
L 103.353645 153.466102 
L 103.665324 152.639397 
L 103.946487 151.812692 
L 104.409412 150.456896 
L 104.498829 150.159282 
L 104.631149 149.696328 
L 105.253428 147.679168 
L 105.509969 147.050872 
L 105.883615 145.926553 
L 106.323247 144.934507 
L 106.415989 144.636894 
L 106.552296 144.438485 
L 106.752613 143.876325 
L 106.853763 143.578711 
L 106.967264 143.248029 
L 107.098106 143.016552 
L 107.157562 142.851211 
L 107.679474 141.59462 
L 107.798483 141.197801 
L 108.406931 139.676664 
L 108.50347 139.412119 
L 108.779474 138.816891 
L 108.93302 138.618482 
L 109.077522 138.155527 
L 109.24258 137.692573 
L 109.395546 137.295754 
L 110.496117 134.286548 
L 110.613703 133.955866 
L 110.729015 133.426775 
L 110.823768 133.261434 
L 110.909189 133.029957 
L 111.025641 132.633139 
L 111.17234 132.269389 
L 111.283085 132.037911 
L 111.546949 131.50882 
L 111.768646 131.14507 
L 111.933097 130.748252 
L 112.85081 128.301205 
L 113.012798 128.069728 
L 113.262466 127.342227 
L 113.381047 126.846204 
L 114.081166 125.523477 
L 114.464336 124.630635 
L 115.17174 123.506317 
L 115.288937 123.208703 
L 116.79289 120.364838 
L 116.97122 120.199497 
L 117.122438 119.769611 
L 117.462238 118.909837 
L 117.577215 118.612224 
L 117.767697 118.31461 
L 117.922549 117.884723 
L 118.323042 116.925746 
L 118.494278 116.561996 
L 119.08101 115.437677 
L 119.167391 115.239268 
L 119.262478 114.974722 
L 119.354269 114.743245 
L 119.501767 114.478699 
L 119.574299 114.313358 
L 119.736328 114.048813 
L 119.969363 113.55279 
L 120.300866 112.99063 
L 120.410072 112.792221 
L 120.695065 112.130857 
L 120.961895 111.89938 
L 121.896766 110.24597 
L 122.02492 110.014493 
L 122.201825 109.650743 
L 122.49238 109.15472 
L 123.55986 106.873014 
L 123.706712 106.641537 
L 123.857274 106.343923 
L 124.0012 106.112446 
L 124.119672 105.914037 
L 124.26681 105.682559 
L 124.557406 105.219604 
L 124.828055 104.690513 
L 124.943286 104.525172 
L 125.519769 103.533126 
L 125.680717 103.235513 
L 125.840185 103.004035 
L 126.141655 102.508012 
L 126.482263 102.111194 
L 126.560901 101.945853 
L 126.632087 101.780512 
L 128.368881 98.969716 
L 128.582337 98.639034 
L 128.762583 98.374488 
L 128.863919 98.076874 
L 129.181569 97.878465 
L 129.87838 96.621874 
L 130.075096 96.390396 
L 130.212657 96.191987 
L 130.747609 95.662896 
L 130.888571 95.497555 
L 131.439748 94.836191 
L 132.616434 93.083577 
L 132.744221 92.719827 
L 133.734066 91.463235 
L 133.840829 91.231758 
L 134.021237 90.901076 
L 134.506576 90.107439 
L 134.600538 89.975166 
L 134.74701 89.743689 
L 134.88242 89.578348 
L 135.866993 88.156416 
L 136.018127 88.024143 
L 136.204011 87.759597 
L 136.402918 87.52812 
L 136.773645 86.96596 
L 136.964103 86.80062 
L 137.230169 86.337665 
L 137.262455 86.271528 
L 137.630927 86.073119 
L 137.773591 85.87471 
L 138.036558 85.444823 
L 138.160878 85.081073 
L 138.657554 84.518914 
L 139.85719 83.196186 
L 139.983975 83.030845 
L 140.117016 82.898572 
L 140.372569 82.534822 
L 140.584546 82.20414 
L 140.833411 81.972663 
L 141.154115 81.575845 
L 141.977987 80.716072 
L 142.241588 80.517662 
L 145.088455 76.516411 
L 145.23934 76.35107 
L 145.306461 76.119592 
L 145.759212 75.78891 
L 146.189268 74.929137 
L 146.320041 74.763796 
L 147.039416 74.135501 
L 147.219501 73.870955 
L 147.441532 73.705614 
L 147.610552 73.474137 
L 147.887809 73.275727 
L 148.185877 72.713568 
L 148.55407 72.548227 
L 148.635017 72.382886 
L 148.933288 72.184477 
L 150.874369 69.93584 
L 151.07819 69.704362 
L 151.269959 69.505953 
L 151.483709 69.274476 
L 151.659447 69.109135 
L 151.938908 68.811521 
L 152.142312 68.64618 
L 152.400166 68.28243 
L 152.724588 67.885612 
L 153.574152 67.191179 
L 153.709287 67.025839 
L 153.936764 66.761293 
L 154.954104 65.835383 
L 155.240313 65.570838 
L 155.607218 65.306292 
L 155.683525 65.17402 
L 155.841796 65.008679 
L 156.136499 64.61186 
L 156.613698 64.446519 
L 156.727036 64.281178 
L 157.20296 63.752087 
L 157.521641 63.586746 
L 157.650567 63.421405 
L 159.927791 61.602654 
L 160.364332 61.305041 
L 160.557336 61.1397 
L 161.34093 60.544472 
L 161.623269 60.379131 
L 161.804038 60.246858 
L 162.405381 59.816972 
L 163.068459 59.320949 
L 163.332026 59.155608 
L 163.626445 58.924131 
L 164.924773 58.130494 
L 164.992028 57.998221 
L 166.186556 57.336857 
L 166.38906 57.072312 
L 166.8406 56.708561 
L 167.119894 56.576289 
L 167.154532 56.510152 
L 167.6752 56.37788 
L 169.050891 55.45197 
L 169.198259 55.319697 
L 169.405886 55.154356 
L 169.604813 54.922879 
L 170.066569 54.757538 
L 170.248375 54.592197 
L 170.413224 54.492992 
L 171.424625 53.864697 
L 171.550636 53.633219 
L 171.700621 53.534015 
L 172.082326 53.368674 
L 173.547589 52.409696 
L 173.700682 52.277423 
L 173.910002 52.112082 
L 174.358454 51.748332 
L 174.554761 51.582991 
L 174.686193 51.351514 
L 175.22616 51.120036 
L 175.490542 50.855491 
L 176.038978 50.557877 
L 176.254745 50.425604 
L 176.721522 49.995718 
L 176.841634 49.896513 
L 177.188319 49.731172 
L 177.234401 49.665036 
L 177.689199 49.466627 
L 177.97966 49.235149 
L 178.059454 49.169013 
L 178.503022 49.03674 
L 178.523755 49.003672 
L 178.916396 48.838331 
L 179.293776 48.606854 
L 179.865423 48.408444 
L 179.963709 48.210035 
L 180.285494 47.978558 
L 180.342739 47.846285 
L 181.024505 47.449467 
L 181.256047 47.317194 
L 181.681943 47.118785 
L 182.329198 46.688898 
L 182.432545 46.622762 
L 185.053711 45.399239 
L 185.138936 45.300034 
L 185.41239 45.134693 
L 186.089646 44.63867 
L 186.721003 44.27492 
L 187.764034 44.043443 
L 187.968877 43.977306 
L 188.837932 43.778897 
L 188.89969 43.712761 
L 189.399416 43.580488 
L 189.590205 43.415147 
L 190.085763 43.117533 
L 191.092762 42.753783 
L 191.403256 42.654578 
L 191.863068 42.489237 
L 192.103901 42.323896 
L 192.897267 42.026283 
L 193.432962 41.761737 
L 193.575294 41.695601 
L 194.286225 41.497191 
L 194.901998 41.16651 
L 195.470906 40.9681 
L 195.790371 40.835828 
L 196.67105 40.472077 
L 197.198673 40.273668 
L 197.210534 40.2406 
L 197.800099 40.009123 
L 197.858391 39.909918 
L 198.387535 39.711509 
L 198.51948 39.645373 
L 198.914389 39.446963 
L 199.679676 39.182418 
L 200.332714 39.017077 
L 201.066817 38.752531 
L 201.190973 38.653327 
L 202.83344 38.256508 
L 203.010512 38.124236 
L 203.612516 37.925826 
L 203.875729 37.826622 
L 204.7418 37.661281 
L 204.832673 37.562076 
L 206.058783 37.13219 
L 206.21168 37.032985 
L 206.805284 36.702303 
L 206.835445 36.669235 
L 207.536302 36.470826 
L 208.008075 36.272417 
L 208.219799 36.074007 
L 208.848476 35.941735 
L 208.890064 35.908666 
L 210.178927 35.644121 
L 210.359034 35.577984 
L 210.821127 35.379575 
L 211.033263 35.247302 
L 211.936113 35.015825 
L 214.582096 34.354461 
L 215.952983 34.156052 
L 216.678538 33.792302 
L 217.202138 33.626961 
L 217.793218 33.494688 
L 219.888982 33.064802 
L 221.340699 32.833324 
L 221.355936 32.800256 
L 223.680836 32.205028 
L 223.695037 32.17196 
L 225.585113 31.940483 
L 225.595764 31.907415 
L 228.044342 31.212983 
L 228.054798 31.179914 
L 229.499391 30.849232 
L 230.232206 30.71696 
L 230.274297 30.683892 
L 232.699565 30.287073 
L 232.745823 30.220937 
L 238.257292 29.06355 
L 238.26166 29.030482 
L 238.877434 28.832073 
L 238.898783 28.732868 
L 239.88008 28.534459 
L 241.848169 28.302981 
L 243.997882 27.840027 
L 245.355367 27.674686 
L 245.844412 27.575481 
L 246.656311 27.443208 
L 246.748338 27.344004 
L 249.172773 27.013322 
L 249.190477 26.980254 
L 250.963609 26.748776 
L 252.761921 26.451162 
L 254.836283 26.087412 
L 255.265981 25.95514 
L 259.67067 25.359912 
L 269.214945 24.467071 
L 271.866841 24.103321 
L 274.560432 23.805707 
L 279.950505 23.607298 
L 280.048386 23.574229 
L 281.407022 23.441957 
L 281.412354 23.408888 
L 284.543214 23.177411 
L 293.351152 22.615252 
L 299.940349 22.416843 
L 300.322427 22.350706 
L 306.027706 22.152297 
L 313.374974 21.623206 
L 315.003439 21.55707 
L 320.036091 21.325592 
L 321.711806 21.226388 
L 352.641988 20.763433 
L 354.948404 20.598092 
L 360.64366 20.399683 
L 360.708361 20.366614 
L 365.80177 20.26741 
L 467.202473 19.639114 
L 473.664631 19.606046 
L 524.055913 19.572978 
L 524.055913 19.572978 
" style="fill:none;stroke:#8172b2;stroke-linecap:round;stroke-width:1.75;"/>
   </g>
   <g id="patch_3">
    <path d="M 47.919844 356.834844 
L 47.919844 12.96 
" style="fill:none;"/>
   </g>
   <g id="patch_4">
    <path d="M 533.391914 356.834844 
L 533.391914 12.96 
" style="fill:none;"/>
   </g>
   <g id="patch_5">
    <path d="M 47.919844 356.834844 
L 533.391914 356.834844 
" style="fill:none;"/>
   </g>
   <g id="patch_6">
    <path d="M 47.919844 12.96 
L 533.391914 12.96 
" style="fill:none;"/>
   </g>
  </g>
 </g>
 <defs>
  <clipPath id="p0922852075">
   <rect height="343.874844" width="485.472071" x="47.919844" y="12.96"/>
  </clipPath>
 </defs>
</svg>
