<?xml version="1.0" encoding="utf-8" standalone="no"?>
<!DOCTYPE svg PUBLIC "-//W3C//DTD SVG 1.1//EN"
  "http://www.w3.org/Graphics/SVG/1.1/DTD/svg11.dtd">
<!-- Created with matplotlib (https://matplotlib.org/) -->
<svg height="400pt" version="1.1" viewBox="0 0 550 400" width="550pt" xmlns="http://www.w3.org/2000/svg" xmlns:xlink="http://www.w3.org/1999/xlink">
 <defs>
  <style type="text/css">
*{stroke-linecap:butt;stroke-linejoin:round;}
  </style>
 </defs>
 <g id="figure_1">
  <g id="patch_1">
   <path d="M 0 400 
L 550 400 
L 550 0 
L 0 0 
z
" style="fill:#ffffff;"/>
  </g>
  <g id="axes_1">
   <g id="patch_2">
    <path d="M 39.84375 356.834844 
L 537.04 356.834844 
L 537.04 12.96 
L 39.84375 12.96 
z
" style="fill:#eaeaf2;"/>
   </g>
   <g id="matplotlib.axis_1">
    <g id="xtick_1">
     <g id="line2d_1">
      <path clip-path="url(#pf595586419)" d="M 49.405216 356.834844 
L 49.405216 12.96 
" style="fill:none;stroke:#ffffff;stroke-linecap:round;"/>
     </g>
     <g id="line2d_2"/>
     <g id="text_1">
      <!-- 0 -->
      <defs>
       <path d="M 4.15625 35.296875 
Q 4.15625 48 6.765625 55.734375 
Q 9.375 63.484375 14.515625 67.671875 
Q 19.671875 71.875 27.484375 71.875 
Q 33.25 71.875 37.59375 69.546875 
Q 41.9375 67.234375 44.765625 62.859375 
Q 47.609375 58.5 49.21875 52.21875 
Q 50.828125 45.953125 50.828125 35.296875 
Q 50.828125 22.703125 48.234375 14.96875 
Q 45.65625 7.234375 40.5 3 
Q 35.359375 -1.21875 27.484375 -1.21875 
Q 17.140625 -1.21875 11.234375 6.203125 
Q 4.15625 15.140625 4.15625 35.296875 
z
M 13.1875 35.296875 
Q 13.1875 17.671875 17.3125 11.828125 
Q 21.4375 6 27.484375 6 
Q 33.546875 6 37.671875 11.859375 
Q 41.796875 17.71875 41.796875 35.296875 
Q 41.796875 52.984375 37.671875 58.78125 
Q 33.546875 64.59375 27.390625 64.59375 
Q 21.34375 64.59375 17.71875 59.46875 
Q 13.1875 52.9375 13.1875 35.296875 
z
" id="ArialMT-48"/>
      </defs>
      <g style="fill:#262626;" transform="translate(46.624748 370.992656)scale(0.1 -0.1)">
       <use xlink:href="#ArialMT-48"/>
      </g>
     </g>
    </g>
    <g id="xtick_2">
     <g id="line2d_3">
      <path clip-path="url(#pf595586419)" d="M 158.804145 356.834844 
L 158.804145 12.96 
" style="fill:none;stroke:#ffffff;stroke-linecap:round;"/>
     </g>
     <g id="line2d_4"/>
     <g id="text_2">
      <!-- 20 -->
      <defs>
       <path d="M 50.34375 8.453125 
L 50.34375 0 
L 3.03125 0 
Q 2.9375 3.171875 4.046875 6.109375 
Q 5.859375 10.9375 9.828125 15.625 
Q 13.8125 20.3125 21.34375 26.46875 
Q 33.015625 36.03125 37.109375 41.625 
Q 41.21875 47.21875 41.21875 52.203125 
Q 41.21875 57.421875 37.46875 61 
Q 33.734375 64.59375 27.734375 64.59375 
Q 21.390625 64.59375 17.578125 60.78125 
Q 13.765625 56.984375 13.71875 50.25 
L 4.6875 51.171875 
Q 5.609375 61.28125 11.65625 66.578125 
Q 17.71875 71.875 27.9375 71.875 
Q 38.234375 71.875 44.234375 66.15625 
Q 50.25 60.453125 50.25 52 
Q 50.25 47.703125 48.484375 43.546875 
Q 46.734375 39.40625 42.65625 34.8125 
Q 38.578125 30.21875 29.109375 22.21875 
Q 21.1875 15.578125 18.9375 13.203125 
Q 16.703125 10.84375 15.234375 8.453125 
z
" id="ArialMT-50"/>
      </defs>
      <g style="fill:#262626;" transform="translate(153.243207 370.992656)scale(0.1 -0.1)">
       <use xlink:href="#ArialMT-50"/>
       <use x="55.615234" xlink:href="#ArialMT-48"/>
      </g>
     </g>
    </g>
    <g id="xtick_3">
     <g id="line2d_5">
      <path clip-path="url(#pf595586419)" d="M 268.203073 356.834844 
L 268.203073 12.96 
" style="fill:none;stroke:#ffffff;stroke-linecap:round;"/>
     </g>
     <g id="line2d_6"/>
     <g id="text_3">
      <!-- 40 -->
      <defs>
       <path d="M 32.328125 0 
L 32.328125 17.140625 
L 1.265625 17.140625 
L 1.265625 25.203125 
L 33.9375 71.578125 
L 41.109375 71.578125 
L 41.109375 25.203125 
L 50.78125 25.203125 
L 50.78125 17.140625 
L 41.109375 17.140625 
L 41.109375 0 
z
M 32.328125 25.203125 
L 32.328125 57.46875 
L 9.90625 25.203125 
z
" id="ArialMT-52"/>
      </defs>
      <g style="fill:#262626;" transform="translate(262.642136 370.992656)scale(0.1 -0.1)">
       <use xlink:href="#ArialMT-52"/>
       <use x="55.615234" xlink:href="#ArialMT-48"/>
      </g>
     </g>
    </g>
    <g id="xtick_4">
     <g id="line2d_7">
      <path clip-path="url(#pf595586419)" d="M 377.602002 356.834844 
L 377.602002 12.96 
" style="fill:none;stroke:#ffffff;stroke-linecap:round;"/>
     </g>
     <g id="line2d_8"/>
     <g id="text_4">
      <!-- 60 -->
      <defs>
       <path d="M 49.75 54.046875 
L 41.015625 53.375 
Q 39.84375 58.546875 37.703125 60.890625 
Q 34.125 64.65625 28.90625 64.65625 
Q 24.703125 64.65625 21.53125 62.3125 
Q 17.390625 59.28125 14.984375 53.46875 
Q 12.59375 47.65625 12.5 36.921875 
Q 15.671875 41.75 20.265625 44.09375 
Q 24.859375 46.4375 29.890625 46.4375 
Q 38.671875 46.4375 44.84375 39.96875 
Q 51.03125 33.5 51.03125 23.25 
Q 51.03125 16.5 48.125 10.71875 
Q 45.21875 4.9375 40.140625 1.859375 
Q 35.0625 -1.21875 28.609375 -1.21875 
Q 17.625 -1.21875 10.6875 6.859375 
Q 3.765625 14.9375 3.765625 33.5 
Q 3.765625 54.25 11.421875 63.671875 
Q 18.109375 71.875 29.4375 71.875 
Q 37.890625 71.875 43.28125 67.140625 
Q 48.6875 62.40625 49.75 54.046875 
z
M 13.875 23.1875 
Q 13.875 18.65625 15.796875 14.5 
Q 17.71875 10.359375 21.1875 8.171875 
Q 24.65625 6 28.46875 6 
Q 34.03125 6 38.03125 10.484375 
Q 42.046875 14.984375 42.046875 22.703125 
Q 42.046875 30.125 38.078125 34.390625 
Q 34.125 38.671875 28.125 38.671875 
Q 22.171875 38.671875 18.015625 34.390625 
Q 13.875 30.125 13.875 23.1875 
z
" id="ArialMT-54"/>
      </defs>
      <g style="fill:#262626;" transform="translate(372.041064 370.992656)scale(0.1 -0.1)">
       <use xlink:href="#ArialMT-54"/>
       <use x="55.615234" xlink:href="#ArialMT-48"/>
      </g>
     </g>
    </g>
    <g id="xtick_5">
     <g id="line2d_9">
      <path clip-path="url(#pf595586419)" d="M 487.00093 356.834844 
L 487.00093 12.96 
" style="fill:none;stroke:#ffffff;stroke-linecap:round;"/>
     </g>
     <g id="line2d_10"/>
     <g id="text_5">
      <!-- 80 -->
      <defs>
       <path d="M 17.671875 38.8125 
Q 12.203125 40.828125 9.5625 44.53125 
Q 6.9375 48.25 6.9375 53.421875 
Q 6.9375 61.234375 12.546875 66.546875 
Q 18.171875 71.875 27.484375 71.875 
Q 36.859375 71.875 42.578125 66.421875 
Q 48.296875 60.984375 48.296875 53.171875 
Q 48.296875 48.1875 45.671875 44.5 
Q 43.0625 40.828125 37.75 38.8125 
Q 44.34375 36.671875 47.78125 31.875 
Q 51.21875 27.09375 51.21875 20.453125 
Q 51.21875 11.28125 44.71875 5.03125 
Q 38.234375 -1.21875 27.640625 -1.21875 
Q 17.046875 -1.21875 10.546875 5.046875 
Q 4.046875 11.328125 4.046875 20.703125 
Q 4.046875 27.6875 7.59375 32.390625 
Q 11.140625 37.109375 17.671875 38.8125 
z
M 15.921875 53.71875 
Q 15.921875 48.640625 19.1875 45.40625 
Q 22.46875 42.1875 27.6875 42.1875 
Q 32.765625 42.1875 36.015625 45.375 
Q 39.265625 48.578125 39.265625 53.21875 
Q 39.265625 58.0625 35.90625 61.359375 
Q 32.5625 64.65625 27.59375 64.65625 
Q 22.5625 64.65625 19.234375 61.421875 
Q 15.921875 58.203125 15.921875 53.71875 
z
M 13.09375 20.65625 
Q 13.09375 16.890625 14.875 13.375 
Q 16.65625 9.859375 20.171875 7.921875 
Q 23.6875 6 27.734375 6 
Q 34.03125 6 38.125 10.046875 
Q 42.234375 14.109375 42.234375 20.359375 
Q 42.234375 26.703125 38.015625 30.859375 
Q 33.796875 35.015625 27.4375 35.015625 
Q 21.234375 35.015625 17.15625 30.90625 
Q 13.09375 26.8125 13.09375 20.65625 
z
" id="ArialMT-56"/>
      </defs>
      <g style="fill:#262626;" transform="translate(481.439993 370.992656)scale(0.1 -0.1)">
       <use xlink:href="#ArialMT-56"/>
       <use x="55.615234" xlink:href="#ArialMT-48"/>
      </g>
     </g>
    </g>
    <g id="text_6">
     <!-- percent illiterate -->
     <defs>
      <path d="M 6.59375 -19.875 
L 6.59375 51.859375 
L 14.59375 51.859375 
L 14.59375 45.125 
Q 17.4375 49.078125 21 51.046875 
Q 24.5625 53.03125 29.640625 53.03125 
Q 36.28125 53.03125 41.359375 49.609375 
Q 46.4375 46.1875 49.015625 39.953125 
Q 51.609375 33.734375 51.609375 26.3125 
Q 51.609375 18.359375 48.75 11.984375 
Q 45.90625 5.609375 40.453125 2.21875 
Q 35.015625 -1.171875 29 -1.171875 
Q 24.609375 -1.171875 21.109375 0.6875 
Q 17.625 2.546875 15.375 5.375 
L 15.375 -19.875 
z
M 14.546875 25.640625 
Q 14.546875 15.625 18.59375 10.84375 
Q 22.65625 6.0625 28.421875 6.0625 
Q 34.28125 6.0625 38.453125 11.015625 
Q 42.625 15.96875 42.625 26.375 
Q 42.625 36.28125 38.546875 41.203125 
Q 34.46875 46.140625 28.8125 46.140625 
Q 23.1875 46.140625 18.859375 40.890625 
Q 14.546875 35.640625 14.546875 25.640625 
z
" id="ArialMT-112"/>
      <path d="M 42.09375 16.703125 
L 51.171875 15.578125 
Q 49.03125 7.625 43.21875 3.21875 
Q 37.40625 -1.171875 28.375 -1.171875 
Q 17 -1.171875 10.328125 5.828125 
Q 3.65625 12.84375 3.65625 25.484375 
Q 3.65625 38.578125 10.390625 45.796875 
Q 17.140625 53.03125 27.875 53.03125 
Q 38.28125 53.03125 44.875 45.953125 
Q 51.46875 38.875 51.46875 26.03125 
Q 51.46875 25.25 51.421875 23.6875 
L 12.75 23.6875 
Q 13.234375 15.140625 17.578125 10.59375 
Q 21.921875 6.0625 28.421875 6.0625 
Q 33.25 6.0625 36.671875 8.59375 
Q 40.09375 11.140625 42.09375 16.703125 
z
M 13.234375 30.90625 
L 42.1875 30.90625 
Q 41.609375 37.453125 38.875 40.71875 
Q 34.671875 45.796875 27.984375 45.796875 
Q 21.921875 45.796875 17.796875 41.75 
Q 13.671875 37.703125 13.234375 30.90625 
z
" id="ArialMT-101"/>
      <path d="M 6.5 0 
L 6.5 51.859375 
L 14.40625 51.859375 
L 14.40625 44 
Q 17.4375 49.515625 20 51.265625 
Q 22.5625 53.03125 25.640625 53.03125 
Q 30.078125 53.03125 34.671875 50.203125 
L 31.640625 42.046875 
Q 28.421875 43.953125 25.203125 43.953125 
Q 22.3125 43.953125 20.015625 42.21875 
Q 17.71875 40.484375 16.75 37.40625 
Q 15.28125 32.71875 15.28125 27.15625 
L 15.28125 0 
z
" id="ArialMT-114"/>
      <path d="M 40.4375 19 
L 49.078125 17.875 
Q 47.65625 8.9375 41.8125 3.875 
Q 35.984375 -1.171875 27.484375 -1.171875 
Q 16.84375 -1.171875 10.375 5.78125 
Q 3.90625 12.75 3.90625 25.734375 
Q 3.90625 34.125 6.6875 40.421875 
Q 9.46875 46.734375 15.15625 49.875 
Q 20.84375 53.03125 27.546875 53.03125 
Q 35.984375 53.03125 41.359375 48.75 
Q 46.734375 44.484375 48.25 36.625 
L 39.703125 35.296875 
Q 38.484375 40.53125 35.375 43.15625 
Q 32.28125 45.796875 27.875 45.796875 
Q 21.234375 45.796875 17.078125 41.03125 
Q 12.9375 36.28125 12.9375 25.984375 
Q 12.9375 15.53125 16.9375 10.796875 
Q 20.953125 6.0625 27.390625 6.0625 
Q 32.5625 6.0625 36.03125 9.234375 
Q 39.5 12.40625 40.4375 19 
z
" id="ArialMT-99"/>
      <path d="M 6.59375 0 
L 6.59375 51.859375 
L 14.5 51.859375 
L 14.5 44.484375 
Q 20.21875 53.03125 31 53.03125 
Q 35.6875 53.03125 39.625 51.34375 
Q 43.5625 49.65625 45.515625 46.921875 
Q 47.46875 44.1875 48.25 40.4375 
Q 48.734375 37.984375 48.734375 31.890625 
L 48.734375 0 
L 39.9375 0 
L 39.9375 31.546875 
Q 39.9375 36.921875 38.90625 39.578125 
Q 37.890625 42.234375 35.28125 43.8125 
Q 32.671875 45.40625 29.15625 45.40625 
Q 23.53125 45.40625 19.453125 41.84375 
Q 15.375 38.28125 15.375 28.328125 
L 15.375 0 
z
" id="ArialMT-110"/>
      <path d="M 25.78125 7.859375 
L 27.046875 0.09375 
Q 23.34375 -0.6875 20.40625 -0.6875 
Q 15.625 -0.6875 12.984375 0.828125 
Q 10.359375 2.34375 9.28125 4.8125 
Q 8.203125 7.28125 8.203125 15.1875 
L 8.203125 45.015625 
L 1.765625 45.015625 
L 1.765625 51.859375 
L 8.203125 51.859375 
L 8.203125 64.703125 
L 16.9375 69.96875 
L 16.9375 51.859375 
L 25.78125 51.859375 
L 25.78125 45.015625 
L 16.9375 45.015625 
L 16.9375 14.703125 
Q 16.9375 10.9375 17.40625 9.859375 
Q 17.875 8.796875 18.921875 8.15625 
Q 19.96875 7.515625 21.921875 7.515625 
Q 23.390625 7.515625 25.78125 7.859375 
z
" id="ArialMT-116"/>
      <path id="ArialMT-32"/>
      <path d="M 6.640625 61.46875 
L 6.640625 71.578125 
L 15.4375 71.578125 
L 15.4375 61.46875 
z
M 6.640625 0 
L 6.640625 51.859375 
L 15.4375 51.859375 
L 15.4375 0 
z
" id="ArialMT-105"/>
      <path d="M 6.390625 0 
L 6.390625 71.578125 
L 15.1875 71.578125 
L 15.1875 0 
z
" id="ArialMT-108"/>
      <path d="M 40.4375 6.390625 
Q 35.546875 2.25 31.03125 0.53125 
Q 26.515625 -1.171875 21.34375 -1.171875 
Q 12.796875 -1.171875 8.203125 3 
Q 3.609375 7.171875 3.609375 13.671875 
Q 3.609375 17.484375 5.34375 20.625 
Q 7.078125 23.78125 9.890625 25.6875 
Q 12.703125 27.59375 16.21875 28.5625 
Q 18.796875 29.25 24.03125 29.890625 
Q 34.671875 31.15625 39.703125 32.90625 
Q 39.75 34.71875 39.75 35.203125 
Q 39.75 40.578125 37.25 42.78125 
Q 33.890625 45.75 27.25 45.75 
Q 21.046875 45.75 18.09375 43.578125 
Q 15.140625 41.40625 13.71875 35.890625 
L 5.125 37.0625 
Q 6.296875 42.578125 8.984375 45.96875 
Q 11.671875 49.359375 16.75 51.1875 
Q 21.828125 53.03125 28.515625 53.03125 
Q 35.15625 53.03125 39.296875 51.46875 
Q 43.453125 49.90625 45.40625 47.53125 
Q 47.359375 45.171875 48.140625 41.546875 
Q 48.578125 39.3125 48.578125 33.453125 
L 48.578125 21.734375 
Q 48.578125 9.46875 49.140625 6.21875 
Q 49.703125 2.984375 51.375 0 
L 42.1875 0 
Q 40.828125 2.734375 40.4375 6.390625 
z
M 39.703125 26.03125 
Q 34.90625 24.078125 25.34375 22.703125 
Q 19.921875 21.921875 17.671875 20.9375 
Q 15.4375 19.96875 14.203125 18.09375 
Q 12.984375 16.21875 12.984375 13.921875 
Q 12.984375 10.40625 15.640625 8.0625 
Q 18.3125 5.71875 23.4375 5.71875 
Q 28.515625 5.71875 32.46875 7.9375 
Q 36.421875 10.15625 38.28125 14.015625 
Q 39.703125 17 39.703125 22.796875 
z
" id="ArialMT-97"/>
     </defs>
     <g style="fill:#262626;" transform="translate(249.619609 384.85375)scale(0.11 -0.11)">
      <use xlink:href="#ArialMT-112"/>
      <use x="55.615234" xlink:href="#ArialMT-101"/>
      <use x="111.230469" xlink:href="#ArialMT-114"/>
      <use x="144.53125" xlink:href="#ArialMT-99"/>
      <use x="194.53125" xlink:href="#ArialMT-101"/>
      <use x="250.146484" xlink:href="#ArialMT-110"/>
      <use x="305.761719" xlink:href="#ArialMT-116"/>
      <use x="333.544922" xlink:href="#ArialMT-32"/>
      <use x="361.328125" xlink:href="#ArialMT-105"/>
      <use x="383.544922" xlink:href="#ArialMT-108"/>
      <use x="405.761719" xlink:href="#ArialMT-108"/>
      <use x="427.978516" xlink:href="#ArialMT-105"/>
      <use x="450.195312" xlink:href="#ArialMT-116"/>
      <use x="477.978516" xlink:href="#ArialMT-101"/>
      <use x="533.59375" xlink:href="#ArialMT-114"/>
      <use x="566.894531" xlink:href="#ArialMT-97"/>
      <use x="622.509766" xlink:href="#ArialMT-116"/>
      <use x="650.292969" xlink:href="#ArialMT-101"/>
     </g>
    </g>
   </g>
   <g id="matplotlib.axis_2">
    <g id="ytick_1">
     <g id="line2d_11">
      <path clip-path="url(#pf595586419)" d="M 39.84375 348.379811 
L 537.04 348.379811 
" style="fill:none;stroke:#ffffff;stroke-linecap:round;"/>
     </g>
     <g id="line2d_12"/>
     <g id="text_7">
      <!-- 1 -->
      <defs>
       <path d="M 37.25 0 
L 28.46875 0 
L 28.46875 56 
Q 25.296875 52.984375 20.140625 49.953125 
Q 14.984375 46.921875 10.890625 45.40625 
L 10.890625 53.90625 
Q 18.265625 57.375 23.78125 62.296875 
Q 29.296875 67.234375 31.59375 71.875 
L 37.25 71.875 
z
" id="ArialMT-49"/>
      </defs>
      <g style="fill:#262626;" transform="translate(27.282812 351.958717)scale(0.1 -0.1)">
       <use xlink:href="#ArialMT-49"/>
      </g>
     </g>
    </g>
    <g id="ytick_2">
     <g id="line2d_13">
      <path clip-path="url(#pf595586419)" d="M 39.84375 294.20172 
L 537.04 294.20172 
" style="fill:none;stroke:#ffffff;stroke-linecap:round;"/>
     </g>
     <g id="line2d_14"/>
     <g id="text_8">
      <!-- 2 -->
      <g style="fill:#262626;" transform="translate(27.282812 297.780626)scale(0.1 -0.1)">
       <use xlink:href="#ArialMT-50"/>
      </g>
     </g>
    </g>
    <g id="ytick_3">
     <g id="line2d_15">
      <path clip-path="url(#pf595586419)" d="M 39.84375 240.023629 
L 537.04 240.023629 
" style="fill:none;stroke:#ffffff;stroke-linecap:round;"/>
     </g>
     <g id="line2d_16"/>
     <g id="text_9">
      <!-- 3 -->
      <defs>
       <path d="M 4.203125 18.890625 
L 12.984375 20.0625 
Q 14.5 12.59375 18.140625 9.296875 
Q 21.78125 6 27 6 
Q 33.203125 6 37.46875 10.296875 
Q 41.75 14.59375 41.75 20.953125 
Q 41.75 27 37.796875 30.921875 
Q 33.84375 34.859375 27.734375 34.859375 
Q 25.25 34.859375 21.53125 33.890625 
L 22.515625 41.609375 
Q 23.390625 41.5 23.921875 41.5 
Q 29.546875 41.5 34.03125 44.421875 
Q 38.53125 47.359375 38.53125 53.46875 
Q 38.53125 58.296875 35.25 61.46875 
Q 31.984375 64.65625 26.8125 64.65625 
Q 21.6875 64.65625 18.265625 61.421875 
Q 14.84375 58.203125 13.875 51.765625 
L 5.078125 53.328125 
Q 6.6875 62.15625 12.390625 67.015625 
Q 18.109375 71.875 26.609375 71.875 
Q 32.46875 71.875 37.390625 69.359375 
Q 42.328125 66.84375 44.9375 62.5 
Q 47.5625 58.15625 47.5625 53.265625 
Q 47.5625 48.640625 45.0625 44.828125 
Q 42.578125 41.015625 37.703125 38.765625 
Q 44.046875 37.3125 47.5625 32.6875 
Q 51.078125 28.078125 51.078125 21.140625 
Q 51.078125 11.765625 44.234375 5.25 
Q 37.40625 -1.265625 26.953125 -1.265625 
Q 17.53125 -1.265625 11.296875 4.34375 
Q 5.078125 9.96875 4.203125 18.890625 
z
" id="ArialMT-51"/>
      </defs>
      <g style="fill:#262626;" transform="translate(27.282812 243.602536)scale(0.1 -0.1)">
       <use xlink:href="#ArialMT-51"/>
      </g>
     </g>
    </g>
    <g id="ytick_4">
     <g id="line2d_17">
      <path clip-path="url(#pf595586419)" d="M 39.84375 185.845538 
L 537.04 185.845538 
" style="fill:none;stroke:#ffffff;stroke-linecap:round;"/>
     </g>
     <g id="line2d_18"/>
     <g id="text_10">
      <!-- 4 -->
      <g style="fill:#262626;" transform="translate(27.282812 189.424445)scale(0.1 -0.1)">
       <use xlink:href="#ArialMT-52"/>
      </g>
     </g>
    </g>
    <g id="ytick_5">
     <g id="line2d_19">
      <path clip-path="url(#pf595586419)" d="M 39.84375 131.667448 
L 537.04 131.667448 
" style="fill:none;stroke:#ffffff;stroke-linecap:round;"/>
     </g>
     <g id="line2d_20"/>
     <g id="text_11">
      <!-- 5 -->
      <defs>
       <path d="M 4.15625 18.75 
L 13.375 19.53125 
Q 14.40625 12.796875 18.140625 9.390625 
Q 21.875 6 27.15625 6 
Q 33.5 6 37.890625 10.78125 
Q 42.28125 15.578125 42.28125 23.484375 
Q 42.28125 31 38.0625 35.34375 
Q 33.84375 39.703125 27 39.703125 
Q 22.75 39.703125 19.328125 37.765625 
Q 15.921875 35.84375 13.96875 32.765625 
L 5.71875 33.84375 
L 12.640625 70.609375 
L 48.25 70.609375 
L 48.25 62.203125 
L 19.671875 62.203125 
L 15.828125 42.96875 
Q 22.265625 47.46875 29.34375 47.46875 
Q 38.71875 47.46875 45.15625 40.96875 
Q 51.609375 34.46875 51.609375 24.265625 
Q 51.609375 14.546875 45.953125 7.46875 
Q 39.0625 -1.21875 27.15625 -1.21875 
Q 17.390625 -1.21875 11.203125 4.25 
Q 5.03125 9.71875 4.15625 18.75 
z
" id="ArialMT-53"/>
      </defs>
      <g style="fill:#262626;" transform="translate(27.282812 135.246354)scale(0.1 -0.1)">
       <use xlink:href="#ArialMT-53"/>
      </g>
     </g>
    </g>
    <g id="ytick_6">
     <g id="line2d_21">
      <path clip-path="url(#pf595586419)" d="M 39.84375 77.489357 
L 537.04 77.489357 
" style="fill:none;stroke:#ffffff;stroke-linecap:round;"/>
     </g>
     <g id="line2d_22"/>
     <g id="text_12">
      <!-- 6 -->
      <g style="fill:#262626;" transform="translate(27.282812 81.068263)scale(0.1 -0.1)">
       <use xlink:href="#ArialMT-54"/>
      </g>
     </g>
    </g>
    <g id="ytick_7">
     <g id="line2d_23">
      <path clip-path="url(#pf595586419)" d="M 39.84375 23.311266 
L 537.04 23.311266 
" style="fill:none;stroke:#ffffff;stroke-linecap:round;"/>
     </g>
     <g id="line2d_24"/>
     <g id="text_13">
      <!-- 7 -->
      <defs>
       <path d="M 4.734375 62.203125 
L 4.734375 70.65625 
L 51.078125 70.65625 
L 51.078125 63.8125 
Q 44.234375 56.546875 37.515625 44.484375 
Q 30.8125 32.421875 27.15625 19.671875 
Q 24.515625 10.6875 23.78125 0 
L 14.75 0 
Q 14.890625 8.453125 18.0625 20.40625 
Q 21.234375 32.375 27.171875 43.484375 
Q 33.109375 54.59375 39.796875 62.203125 
z
" id="ArialMT-55"/>
      </defs>
      <g style="fill:#262626;" transform="translate(27.282812 26.890172)scale(0.1 -0.1)">
       <use xlink:href="#ArialMT-55"/>
      </g>
     </g>
    </g>
    <g id="text_14">
     <!-- fertility -->
     <defs>
      <path d="M 8.6875 0 
L 8.6875 45.015625 
L 0.921875 45.015625 
L 0.921875 51.859375 
L 8.6875 51.859375 
L 8.6875 57.375 
Q 8.6875 62.59375 9.625 65.140625 
Q 10.890625 68.5625 14.078125 70.671875 
Q 17.28125 72.796875 23.046875 72.796875 
Q 26.765625 72.796875 31.25 71.921875 
L 29.9375 64.265625 
Q 27.203125 64.75 24.75 64.75 
Q 20.75 64.75 19.09375 63.03125 
Q 17.4375 61.328125 17.4375 56.640625 
L 17.4375 51.859375 
L 27.546875 51.859375 
L 27.546875 45.015625 
L 17.4375 45.015625 
L 17.4375 0 
z
" id="ArialMT-102"/>
      <path d="M 6.203125 -19.96875 
L 5.21875 -11.71875 
Q 8.109375 -12.5 10.25 -12.5 
Q 13.1875 -12.5 14.9375 -11.515625 
Q 16.703125 -10.546875 17.828125 -8.796875 
Q 18.65625 -7.46875 20.515625 -2.25 
Q 20.75 -1.515625 21.296875 -0.09375 
L 1.609375 51.859375 
L 11.078125 51.859375 
L 21.875 21.828125 
Q 23.96875 16.109375 25.640625 9.8125 
Q 27.15625 15.875 29.25 21.625 
L 40.328125 51.859375 
L 49.125 51.859375 
L 29.390625 -0.875 
Q 26.21875 -9.421875 24.46875 -12.640625 
Q 22.125 -17 19.09375 -19.015625 
Q 16.0625 -21.046875 11.859375 -21.046875 
Q 9.328125 -21.046875 6.203125 -19.96875 
z
" id="ArialMT-121"/>
     </defs>
     <g style="fill:#262626;" transform="translate(20.967656 200.787266)rotate(-90)scale(0.11 -0.11)">
      <use xlink:href="#ArialMT-102"/>
      <use x="27.783203" xlink:href="#ArialMT-101"/>
      <use x="83.398438" xlink:href="#ArialMT-114"/>
      <use x="116.699219" xlink:href="#ArialMT-116"/>
      <use x="144.482422" xlink:href="#ArialMT-105"/>
      <use x="166.699219" xlink:href="#ArialMT-108"/>
      <use x="188.916016" xlink:href="#ArialMT-105"/>
      <use x="211.132812" xlink:href="#ArialMT-116"/>
      <use x="238.916016" xlink:href="#ArialMT-121"/>
     </g>
    </g>
   </g>
   <g id="line2d_25">
    <defs>
     <path d="M 0 1.75 
C 0.464105 1.75 0.909265 1.565609 1.237437 1.237437 
C 1.565609 0.909265 1.75 0.464105 1.75 0 
C 1.75 -0.464105 1.565609 -0.909265 1.237437 -1.237437 
C 0.909265 -1.565609 0.464105 -1.75 0 -1.75 
C -0.464105 -1.75 -0.909265 -1.565609 -1.237437 -1.237437 
C -1.565609 -0.909265 -1.75 -0.464105 -1.75 0 
C -1.75 0.464105 -1.565609 0.909265 -1.237437 1.237437 
C -0.909265 1.565609 -0.464105 1.75 0 1.75 
z
" id="m47ea857da6"/>
    </defs>
    <g clip-path="url(#pf595586419)">
     <use style="fill:#4c72b0;" x="101.369707" xlink:href="#m47ea857da6" y="306.716859"/>
     <use style="fill:#4c72b0;" x="318.52658" xlink:href="#m47ea857da6" y="257.252262"/>
     <use style="fill:#4c72b0;" x="54.875163" xlink:href="#m47ea857da6" y="290.030007"/>
     <use style="fill:#4c72b0;" x="110.668616" xlink:href="#m47ea857da6" y="287.050212"/>
     <use style="fill:#4c72b0;" x="103.010691" xlink:href="#m47ea857da6" y="303.57453"/>
     <use style="fill:#4c72b0;" x="377.602002" xlink:href="#m47ea857da6" y="192.780334"/>
     <use style="fill:#4c72b0;" x="323.996527" xlink:href="#m47ea857da6" y="278.59843"/>
     <use style="fill:#4c72b0;" x="329.466473" xlink:href="#m47ea857da6" y="122.294638"/>
     <use style="fill:#4c72b0;" x="52.687184" xlink:href="#m47ea857da6" y="327.087821"/>
     <use style="fill:#4c72b0;" x="54.875163" xlink:href="#m47ea857da6" y="334.185151"/>
     <use style="fill:#4c72b0;" x="95.899761" xlink:href="#m47ea857da6" y="285.749938"/>
     <use style="fill:#4c72b0;" x="82.77189" xlink:href="#m47ea857da6" y="238.614999"/>
     <use style="fill:#4c72b0;" x="103.010691" xlink:href="#m47ea857da6" y="292.413843"/>
     <use style="fill:#4c72b0;" x="54.875163" xlink:href="#m47ea857da6" y="330.826109"/>
     <use style="fill:#4c72b0;" x="280.236955" xlink:href="#m47ea857da6" y="249.992398"/>
     <use style="fill:#4c72b0;" x="471.68508" xlink:href="#m47ea857da6" y="120.23587"/>
     <use style="fill:#4c72b0;" x="151.693214" xlink:href="#m47ea857da6" y="288.783911"/>
     <use style="fill:#4c72b0;" x="174.119995" xlink:href="#m47ea857da6" y="306.066722"/>
     <use style="fill:#4c72b0;" x="95.899761" xlink:href="#m47ea857da6" y="303.84542"/>
     <use style="fill:#4c72b0;" x="289.535864" xlink:href="#m47ea857da6" y="82.473741"/>
     <use style="fill:#4c72b0;" x="54.875163" xlink:href="#m47ea857da6" y="300.648913"/>
     <use style="fill:#4c72b0;" x="54.875163" xlink:href="#m47ea857da6" y="302.220078"/>
     <use style="fill:#4c72b0;" x="57.610136" xlink:href="#m47ea857da6" y="327.250355"/>
     <use style="fill:#4c72b0;" x="108.480638" xlink:href="#m47ea857da6" y="278.977677"/>
     <use style="fill:#4c72b0;" x="114.497579" xlink:href="#m47ea857da6" y="266.841784"/>
     <use style="fill:#4c72b0;" x="68.003034" xlink:href="#m47ea857da6" y="336.243919"/>
     <use style="fill:#4c72b0;" x="51.593195" xlink:href="#m47ea857da6" y="328.82152"/>
     <use style="fill:#4c72b0;" x="66.36205" xlink:href="#m47ea857da6" y="323.024464"/>
     <use style="fill:#4c72b0;" x="85.506863" xlink:href="#m47ea857da6" y="272.313771"/>
     <use style="fill:#4c72b0;" x="233.742411" xlink:href="#m47ea857da6" y="103.49484"/>
     <use style="fill:#4c72b0;" x="270.391052" xlink:href="#m47ea857da6" y="182.703209"/>
     <use style="fill:#4c72b0;" x="61.986093" xlink:href="#m47ea857da6" y="282.120006"/>
     <use style="fill:#4c72b0;" x="143.488295" xlink:href="#m47ea857da6" y="139.306558"/>
     <use style="fill:#4c72b0;" x="53.234179" xlink:href="#m47ea857da6" y="333.914261"/>
     <use style="fill:#4c72b0;" x="246.870282" xlink:href="#m47ea857da6" y="275.672813"/>
     <use style="fill:#4c72b0;" x="54.875163" xlink:href="#m47ea857da6" y="317.010696"/>
     <use style="fill:#4c72b0;" x="231.007438" xlink:href="#m47ea857da6" y="63.728122"/>
     <use style="fill:#4c72b0;" x="355.175221" xlink:href="#m47ea857da6" y="276.106238"/>
     <use style="fill:#4c72b0;" x="217.879566" xlink:href="#m47ea857da6" y="187.958484"/>
     <use style="fill:#4c72b0;" x="527.478534" xlink:href="#m47ea857da6" y="50.129421"/>
     <use style="fill:#4c72b0;" x="133.642391" xlink:href="#m47ea857da6" y="265.487332"/>
     <use style="fill:#4c72b0;" x="348.064291" xlink:href="#m47ea857da6" y="249.613151"/>
     <use style="fill:#4c72b0;" x="77.301943" xlink:href="#m47ea857da6" y="267.221031"/>
     <use style="fill:#4c72b0;" x="55.422157" xlink:href="#m47ea857da6" y="280.765554"/>
     <use style="fill:#4c72b0;" x="105.19867" xlink:href="#m47ea857da6" y="266.67925"/>
     <use style="fill:#4c72b0;" x="157.710156" xlink:href="#m47ea857da6" y="237.856506"/>
     <use style="fill:#4c72b0;" x="49.405216" xlink:href="#m47ea857da6" y="302.111721"/>
     <use style="fill:#4c72b0;" x="272.032036" xlink:href="#m47ea857da6" y="173.926358"/>
     <use style="fill:#4c72b0;" x="362.286152" xlink:href="#m47ea857da6" y="126.249639"/>
     <use style="fill:#4c72b0;" x="377.055007" xlink:href="#m47ea857da6" y="133.455325"/>
     <use style="fill:#4c72b0;" x="66.36205" xlink:href="#m47ea857da6" y="330.771931"/>
     <use style="fill:#4c72b0;" x="354.081232" xlink:href="#m47ea857da6" y="157.998"/>
     <use style="fill:#4c72b0;" x="174.119995" xlink:href="#m47ea857da6" y="230.65082"/>
     <use style="fill:#4c72b0;" x="109.027632" xlink:href="#m47ea857da6" y="277.514868"/>
     <use style="fill:#4c72b0;" x="239.212357" xlink:href="#m47ea857da6" y="152.255122"/>
     <use style="fill:#4c72b0;" x="225.537491" xlink:href="#m47ea857da6" y="156.535191"/>
     <use style="fill:#4c72b0;" x="284.612913" xlink:href="#m47ea857da6" y="97.156004"/>
     <use style="fill:#4c72b0;" x="56.516147" xlink:href="#m47ea857da6" y="298.210899"/>
     <use style="fill:#4c72b0;" x="54.875163" xlink:href="#m47ea857da6" y="307.908777"/>
     <use style="fill:#4c72b0;" x="52.14019" xlink:href="#m47ea857da6" y="278.273361"/>
     <use style="fill:#4c72b0;" x="478.249016" xlink:href="#m47ea857da6" y="86.103673"/>
     <use style="fill:#4c72b0;" x="236.477384" xlink:href="#m47ea857da6" y="107.016416"/>
     <use style="fill:#4c72b0;" x="513.803668" xlink:href="#m47ea857da6" y="19.572978"/>
     <use style="fill:#4c72b0;" x="208.580657" xlink:href="#m47ea857da6" y="247.66274"/>
     <use style="fill:#4c72b0;" x="220.614539" xlink:href="#m47ea857da6" y="184.870333"/>
     <use style="fill:#4c72b0;" x="149.505236" xlink:href="#m47ea857da6" y="266.40836"/>
     <use style="fill:#4c72b0;" x="496.846834" xlink:href="#m47ea857da6" y="109.725321"/>
     <use style="fill:#4c72b0;" x="262.733127" xlink:href="#m47ea857da6" y="91.738195"/>
     <use style="fill:#4c72b0;" x="110.668616" xlink:href="#m47ea857da6" y="220.356982"/>
     <use style="fill:#4c72b0;" x="415.891627" xlink:href="#m47ea857da6" y="137.627038"/>
     <use style="fill:#4c72b0;" x="71.831997" xlink:href="#m47ea857da6" y="327.521246"/>
     <use style="fill:#4c72b0;" x="50.499206" xlink:href="#m47ea857da6" y="321.019875"/>
     <use style="fill:#4c72b0;" x="476.608032" xlink:href="#m47ea857da6" y="73.100931"/>
     <use style="fill:#4c72b0;" x="54.875163" xlink:href="#m47ea857da6" y="305.904188"/>
     <use style="fill:#4c72b0;" x="88.241836" xlink:href="#m47ea857da6" y="327.900493"/>
     <use style="fill:#4c72b0;" x="54.875163" xlink:href="#m47ea857da6" y="323.99967"/>
     <use style="fill:#4c72b0;" x="208.033663" xlink:href="#m47ea857da6" y="302.816037"/>
     <use style="fill:#4c72b0;" x="55.422157" xlink:href="#m47ea857da6" y="328.333917"/>
     <use style="fill:#4c72b0;" x="113.403589" xlink:href="#m47ea857da6" y="261.044729"/>
     <use style="fill:#4c72b0;" x="451.993273" xlink:href="#m47ea857da6" y="113.842856"/>
     <use style="fill:#4c72b0;" x="234.8364" xlink:href="#m47ea857da6" y="113.788678"/>
     <use style="fill:#4c72b0;" x="125.984466" xlink:href="#m47ea857da6" y="219.923558"/>
     <use style="fill:#4c72b0;" x="51.0462" xlink:href="#m47ea857da6" y="333.155767"/>
     <use style="fill:#4c72b0;" x="54.875163" xlink:href="#m47ea857da6" y="301.190694"/>
     <use style="fill:#4c72b0;" x="53.781173" xlink:href="#m47ea857da6" y="285.912472"/>
     <use style="fill:#4c72b0;" x="442.694364" xlink:href="#m47ea857da6" y="111.188129"/>
     <use style="fill:#4c72b0;" x="268.750068" xlink:href="#m47ea857da6" y="161.465398"/>
     <use style="fill:#4c72b0;" x="54.875163" xlink:href="#m47ea857da6" y="323.457889"/>
     <use style="fill:#4c72b0;" x="60.892104" xlink:href="#m47ea857da6" y="324.758163"/>
     <use style="fill:#4c72b0;" x="70.191013" xlink:href="#m47ea857da6" y="315.222819"/>
     <use style="fill:#4c72b0;" x="139.659332" xlink:href="#m47ea857da6" y="229.729792"/>
     <use style="fill:#4c72b0;" x="71.831997" xlink:href="#m47ea857da6" y="253.459796"/>
     <use style="fill:#4c72b0;" x="52.14019" xlink:href="#m47ea857da6" y="221.061297"/>
     <use style="fill:#4c72b0;" x="292.270837" xlink:href="#m47ea857da6" y="185.303758"/>
     <use style="fill:#4c72b0;" x="302.663736" xlink:href="#m47ea857da6" y="176.851975"/>
     <use style="fill:#4c72b0;" x="151.693214" xlink:href="#m47ea857da6" y="259.419386"/>
     <use style="fill:#4c72b0;" x="84.959868" xlink:href="#m47ea857da6" y="241.269725"/>
     <use style="fill:#4c72b0;" x="250.699245" xlink:href="#m47ea857da6" y="217.539722"/>
     <use style="fill:#4c72b0;" x="151.14622" xlink:href="#m47ea857da6" y="278.219183"/>
     <use style="fill:#4c72b0;" x="110.121622" xlink:href="#m47ea857da6" y="238.994246"/>
     <use style="fill:#4c72b0;" x="170.291032" xlink:href="#m47ea857da6" y="257.198084"/>
     <use style="fill:#4c72b0;" x="438.318407" xlink:href="#m47ea857da6" y="122.728063"/>
     <use style="fill:#4c72b0;" x="54.875163" xlink:href="#m47ea857da6" y="302.382612"/>
     <use style="fill:#4c72b0;" x="49.405216" xlink:href="#m47ea857da6" y="303.086927"/>
     <use style="fill:#4c72b0;" x="54.328168" xlink:href="#m47ea857da6" y="266.137469"/>
     <use style="fill:#4c72b0;" x="53.234179" xlink:href="#m47ea857da6" y="270.905141"/>
     <use style="fill:#4c72b0;" x="298.287779" xlink:href="#m47ea857da6" y="157.239507"/>
     <use style="fill:#4c72b0;" x="95.352766" xlink:href="#m47ea857da6" y="334.130973"/>
     <use style="fill:#4c72b0;" x="49.405216" xlink:href="#m47ea857da6" y="300.432201"/>
     <use style="fill:#4c72b0;" x="70.191013" xlink:href="#m47ea857da6" y="297.289871"/>
     <use style="fill:#4c72b0;" x="95.899761" xlink:href="#m47ea857da6" y="299.673707"/>
     <use style="fill:#4c72b0;" x="60.345109" xlink:href="#m47ea857da6" y="324.433095"/>
     <use style="fill:#4c72b0;" x="54.875163" xlink:href="#m47ea857da6" y="296.74809"/>
     <use style="fill:#4c72b0;" x="371.585061" xlink:href="#m47ea857da6" y="148.083409"/>
     <use style="fill:#4c72b0;" x="51.0462" xlink:href="#m47ea857da6" y="316.848162"/>
     <use style="fill:#4c72b0;" x="54.875163" xlink:href="#m47ea857da6" y="292.847268"/>
     <use style="fill:#4c72b0;" x="125.984466" xlink:href="#m47ea857da6" y="302.816037"/>
     <use style="fill:#4c72b0;" x="306.492698" xlink:href="#m47ea857da6" y="131.071489"/>
     <use style="fill:#4c72b0;" x="71.831997" xlink:href="#m47ea857da6" y="336.894056"/>
     <use style="fill:#4c72b0;" x="61.439098" xlink:href="#m47ea857da6" y="321.182409"/>
     <use style="fill:#4c72b0;" x="88.788831" xlink:href="#m47ea857da6" y="266.245825"/>
     <use style="fill:#4c72b0;" x="51.0462" xlink:href="#m47ea857da6" y="328.496452"/>
     <use style="fill:#4c72b0;" x="57.610136" xlink:href="#m47ea857da6" y="289.37987"/>
     <use style="fill:#4c72b0;" x="325.637511" xlink:href="#m47ea857da6" y="164.824439"/>
     <use style="fill:#4c72b0;" x="56.516147" xlink:href="#m47ea857da6" y="302.111721"/>
     <use style="fill:#4c72b0;" x="52.687184" xlink:href="#m47ea857da6" y="307.854599"/>
     <use style="fill:#4c72b0;" x="153.881193" xlink:href="#m47ea857da6" y="241.215547"/>
     <use style="fill:#4c72b0;" x="87.147847" xlink:href="#m47ea857da6" y="285.96665"/>
     <use style="fill:#4c72b0;" x="99.728723" xlink:href="#m47ea857da6" y="274.589251"/>
     <use style="fill:#4c72b0;" x="61.439098" xlink:href="#m47ea857da6" y="294.851857"/>
     <use style="fill:#4c72b0;" x="50.499206" xlink:href="#m47ea857da6" y="325.299944"/>
     <use style="fill:#4c72b0;" x="116.685557" xlink:href="#m47ea857da6" y="224.311983"/>
     <use style="fill:#4c72b0;" x="76.207954" xlink:href="#m47ea857da6" y="225.720613"/>
     <use style="fill:#4c72b0;" x="74.56697" xlink:href="#m47ea857da6" y="324.758163"/>
     <use style="fill:#4c72b0;" x="51.0462" xlink:href="#m47ea857da6" y="327.087821"/>
     <use style="fill:#4c72b0;" x="139.659332" xlink:href="#m47ea857da6" y="249.667329"/>
     <use style="fill:#4c72b0;" x="408.780696" xlink:href="#m47ea857da6" y="133.346968"/>
     <use style="fill:#4c72b0;" x="396.746814" xlink:href="#m47ea857da6" y="95.964086"/>
     <use style="fill:#4c72b0;" x="141.300316" xlink:href="#m47ea857da6" y="227.020887"/>
     <use style="fill:#4c72b0;" x="50.499206" xlink:href="#m47ea857da6" y="310.834394"/>
     <use style="fill:#4c72b0;" x="59.25112" xlink:href="#m47ea857da6" y="313.326586"/>
     <use style="fill:#4c72b0;" x="101.916702" xlink:href="#m47ea857da6" y="274.697607"/>
     <use style="fill:#4c72b0;" x="132.548402" xlink:href="#m47ea857da6" y="305.470763"/>
     <use style="fill:#4c72b0;" x="128.172445" xlink:href="#m47ea857da6" y="215.643488"/>
     <use style="fill:#4c72b0;" x="67.45604" xlink:href="#m47ea857da6" y="320.423916"/>
     <use style="fill:#4c72b0;" x="107.386648" xlink:href="#m47ea857da6" y="281.578225"/>
     <use style="fill:#4c72b0;" x="384.712932" xlink:href="#m47ea857da6" y="263.699455"/>
     <use style="fill:#4c72b0;" x="109.027632" xlink:href="#m47ea857da6" y="116.335048"/>
     <use style="fill:#4c72b0;" x="225.537491" xlink:href="#m47ea857da6" y="192.076019"/>
     <use style="fill:#4c72b0;" x="100.275718" xlink:href="#m47ea857da6" y="350.221866"/>
     <use style="fill:#4c72b0;" x="112.856595" xlink:href="#m47ea857da6" y="273.993292"/>
     <use style="fill:#4c72b0;" x="162.633107" xlink:href="#m47ea857da6" y="258.281646"/>
     <use style="fill:#4c72b0;" x="84.959868" xlink:href="#m47ea857da6" y="334.78111"/>
     <use style="fill:#4c72b0;" x="86.053857" xlink:href="#m47ea857da6" y="291.384459"/>
     <use style="fill:#4c72b0;" x="68.550029" xlink:href="#m47ea857da6" y="219.923558"/>
     <use style="fill:#4c72b0;" x="54.875163" xlink:href="#m47ea857da6" y="289.163158"/>
     <use style="fill:#4c72b0;" x="58.157131" xlink:href="#m47ea857da6" y="294.20172"/>
     <use style="fill:#4c72b0;" x="161.539118" xlink:href="#m47ea857da6" y="192.184375"/>
     <use style="fill:#4c72b0;" x="57.610136" xlink:href="#m47ea857da6" y="193.863896"/>
     <use style="fill:#4c72b0;" x="140.753322" xlink:href="#m47ea857da6" y="201.12376"/>
     <use style="fill:#4c72b0;" x="60.345109" xlink:href="#m47ea857da6" y="308.721448"/>
     <use style="fill:#4c72b0;" x="54.328168" xlink:href="#m47ea857da6" y="189.746361"/>
    </g>
   </g>
   <g id="patch_3">
    <path d="M 39.84375 356.834844 
L 39.84375 12.96 
" style="fill:none;"/>
   </g>
   <g id="patch_4">
    <path d="M 537.04 356.834844 
L 537.04 12.96 
" style="fill:none;"/>
   </g>
   <g id="patch_5">
    <path d="M 39.84375 356.834844 
L 537.04 356.834844 
" style="fill:none;"/>
   </g>
   <g id="patch_6">
    <path d="M 39.84375 12.96 
L 537.04 12.96 
" style="fill:none;"/>
   </g>
  </g>
 </g>
 <defs>
  <clipPath id="pf595586419">
   <rect height="343.874844" width="497.19625" x="39.84375" y="12.96"/>
  </clipPath>
 </defs>
</svg>
