<?xml version="1.0" encoding="utf-8" standalone="no"?>
<!DOCTYPE svg PUBLIC "-//W3C//DTD SVG 1.1//EN"
  "http://www.w3.org/Graphics/SVG/1.1/DTD/svg11.dtd">
<!-- Created with matplotlib (https://matplotlib.org/) -->
<svg height="400pt" version="1.1" viewBox="0 0 549 400" width="549pt" xmlns="http://www.w3.org/2000/svg" xmlns:xlink="http://www.w3.org/1999/xlink">
 <defs>
  <style type="text/css">
*{stroke-linecap:butt;stroke-linejoin:round;}
  </style>
 </defs>
 <g id="figure_1">
  <g id="patch_1">
   <path d="M 0 400 
L 549 400 
L 549 0 
L 0 0 
z
" style="fill:#ffffff;"/>
  </g>
  <g id="axes_1">
   <g id="patch_2">
    <path d="M 47.919844 356.834844 
L 536.04 356.834844 
L 536.04 12.96 
L 47.919844 12.96 
z
" style="fill:#eaeaf2;"/>
   </g>
   <g id="matplotlib.axis_1">
    <g id="xtick_1">
     <g id="line2d_1">
      <path clip-path="url(#pcf32866a87)" d="M 57.30677 356.834844 
L 57.30677 12.96 
" style="fill:none;stroke:#ffffff;stroke-linecap:round;"/>
     </g>
     <g id="line2d_2"/>
     <g id="text_1">
      <!-- 0 -->
      <defs>
       <path d="M 4.15625 35.296875 
Q 4.15625 48 6.765625 55.734375 
Q 9.375 63.484375 14.515625 67.671875 
Q 19.671875 71.875 27.484375 71.875 
Q 33.25 71.875 37.59375 69.546875 
Q 41.9375 67.234375 44.765625 62.859375 
Q 47.609375 58.5 49.21875 52.21875 
Q 50.828125 45.953125 50.828125 35.296875 
Q 50.828125 22.703125 48.234375 14.96875 
Q 45.65625 7.234375 40.5 3 
Q 35.359375 -1.21875 27.484375 -1.21875 
Q 17.140625 -1.21875 11.234375 6.203125 
Q 4.15625 15.140625 4.15625 35.296875 
z
M 13.1875 35.296875 
Q 13.1875 17.671875 17.3125 11.828125 
Q 21.4375 6 27.484375 6 
Q 33.546875 6 37.671875 11.859375 
Q 41.796875 17.71875 41.796875 35.296875 
Q 41.796875 52.984375 37.671875 58.78125 
Q 33.546875 64.59375 27.390625 64.59375 
Q 21.34375 64.59375 17.71875 59.46875 
Q 13.1875 52.9375 13.1875 35.296875 
z
" id="ArialMT-48"/>
      </defs>
      <g style="fill:#262626;" transform="translate(54.526301 370.992656)scale(0.1 -0.1)">
       <use xlink:href="#ArialMT-48"/>
      </g>
     </g>
    </g>
    <g id="xtick_2">
     <g id="line2d_3">
      <path clip-path="url(#pcf32866a87)" d="M 130.073639 356.834844 
L 130.073639 12.96 
" style="fill:none;stroke:#ffffff;stroke-linecap:round;"/>
     </g>
     <g id="line2d_4"/>
     <g id="text_2">
      <!-- 1000 -->
      <defs>
       <path d="M 37.25 0 
L 28.46875 0 
L 28.46875 56 
Q 25.296875 52.984375 20.140625 49.953125 
Q 14.984375 46.921875 10.890625 45.40625 
L 10.890625 53.90625 
Q 18.265625 57.375 23.78125 62.296875 
Q 29.296875 67.234375 31.59375 71.875 
L 37.25 71.875 
z
" id="ArialMT-49"/>
      </defs>
      <g style="fill:#262626;" transform="translate(118.951764 370.992656)scale(0.1 -0.1)">
       <use xlink:href="#ArialMT-49"/>
       <use x="55.615234" xlink:href="#ArialMT-48"/>
       <use x="111.230469" xlink:href="#ArialMT-48"/>
       <use x="166.845703" xlink:href="#ArialMT-48"/>
      </g>
     </g>
    </g>
    <g id="xtick_3">
     <g id="line2d_5">
      <path clip-path="url(#pcf32866a87)" d="M 202.840508 356.834844 
L 202.840508 12.96 
" style="fill:none;stroke:#ffffff;stroke-linecap:round;"/>
     </g>
     <g id="line2d_6"/>
     <g id="text_3">
      <!-- 2000 -->
      <defs>
       <path d="M 50.34375 8.453125 
L 50.34375 0 
L 3.03125 0 
Q 2.9375 3.171875 4.046875 6.109375 
Q 5.859375 10.9375 9.828125 15.625 
Q 13.8125 20.3125 21.34375 26.46875 
Q 33.015625 36.03125 37.109375 41.625 
Q 41.21875 47.21875 41.21875 52.203125 
Q 41.21875 57.421875 37.46875 61 
Q 33.734375 64.59375 27.734375 64.59375 
Q 21.390625 64.59375 17.578125 60.78125 
Q 13.765625 56.984375 13.71875 50.25 
L 4.6875 51.171875 
Q 5.609375 61.28125 11.65625 66.578125 
Q 17.71875 71.875 27.9375 71.875 
Q 38.234375 71.875 44.234375 66.15625 
Q 50.25 60.453125 50.25 52 
Q 50.25 47.703125 48.484375 43.546875 
Q 46.734375 39.40625 42.65625 34.8125 
Q 38.578125 30.21875 29.109375 22.21875 
Q 21.1875 15.578125 18.9375 13.203125 
Q 16.703125 10.84375 15.234375 8.453125 
z
" id="ArialMT-50"/>
      </defs>
      <g style="fill:#262626;" transform="translate(191.718633 370.992656)scale(0.1 -0.1)">
       <use xlink:href="#ArialMT-50"/>
       <use x="55.615234" xlink:href="#ArialMT-48"/>
       <use x="111.230469" xlink:href="#ArialMT-48"/>
       <use x="166.845703" xlink:href="#ArialMT-48"/>
      </g>
     </g>
    </g>
    <g id="xtick_4">
     <g id="line2d_7">
      <path clip-path="url(#pcf32866a87)" d="M 275.607376 356.834844 
L 275.607376 12.96 
" style="fill:none;stroke:#ffffff;stroke-linecap:round;"/>
     </g>
     <g id="line2d_8"/>
     <g id="text_4">
      <!-- 3000 -->
      <defs>
       <path d="M 4.203125 18.890625 
L 12.984375 20.0625 
Q 14.5 12.59375 18.140625 9.296875 
Q 21.78125 6 27 6 
Q 33.203125 6 37.46875 10.296875 
Q 41.75 14.59375 41.75 20.953125 
Q 41.75 27 37.796875 30.921875 
Q 33.84375 34.859375 27.734375 34.859375 
Q 25.25 34.859375 21.53125 33.890625 
L 22.515625 41.609375 
Q 23.390625 41.5 23.921875 41.5 
Q 29.546875 41.5 34.03125 44.421875 
Q 38.53125 47.359375 38.53125 53.46875 
Q 38.53125 58.296875 35.25 61.46875 
Q 31.984375 64.65625 26.8125 64.65625 
Q 21.6875 64.65625 18.265625 61.421875 
Q 14.84375 58.203125 13.875 51.765625 
L 5.078125 53.328125 
Q 6.6875 62.15625 12.390625 67.015625 
Q 18.109375 71.875 26.609375 71.875 
Q 32.46875 71.875 37.390625 69.359375 
Q 42.328125 66.84375 44.9375 62.5 
Q 47.5625 58.15625 47.5625 53.265625 
Q 47.5625 48.640625 45.0625 44.828125 
Q 42.578125 41.015625 37.703125 38.765625 
Q 44.046875 37.3125 47.5625 32.6875 
Q 51.078125 28.078125 51.078125 21.140625 
Q 51.078125 11.765625 44.234375 5.25 
Q 37.40625 -1.265625 26.953125 -1.265625 
Q 17.53125 -1.265625 11.296875 4.34375 
Q 5.078125 9.96875 4.203125 18.890625 
z
" id="ArialMT-51"/>
      </defs>
      <g style="fill:#262626;" transform="translate(264.485501 370.992656)scale(0.1 -0.1)">
       <use xlink:href="#ArialMT-51"/>
       <use x="55.615234" xlink:href="#ArialMT-48"/>
       <use x="111.230469" xlink:href="#ArialMT-48"/>
       <use x="166.845703" xlink:href="#ArialMT-48"/>
      </g>
     </g>
    </g>
    <g id="xtick_5">
     <g id="line2d_9">
      <path clip-path="url(#pcf32866a87)" d="M 348.374245 356.834844 
L 348.374245 12.96 
" style="fill:none;stroke:#ffffff;stroke-linecap:round;"/>
     </g>
     <g id="line2d_10"/>
     <g id="text_5">
      <!-- 4000 -->
      <defs>
       <path d="M 32.328125 0 
L 32.328125 17.140625 
L 1.265625 17.140625 
L 1.265625 25.203125 
L 33.9375 71.578125 
L 41.109375 71.578125 
L 41.109375 25.203125 
L 50.78125 25.203125 
L 50.78125 17.140625 
L 41.109375 17.140625 
L 41.109375 0 
z
M 32.328125 25.203125 
L 32.328125 57.46875 
L 9.90625 25.203125 
z
" id="ArialMT-52"/>
      </defs>
      <g style="fill:#262626;" transform="translate(337.25237 370.992656)scale(0.1 -0.1)">
       <use xlink:href="#ArialMT-52"/>
       <use x="55.615234" xlink:href="#ArialMT-48"/>
       <use x="111.230469" xlink:href="#ArialMT-48"/>
       <use x="166.845703" xlink:href="#ArialMT-48"/>
      </g>
     </g>
    </g>
    <g id="xtick_6">
     <g id="line2d_11">
      <path clip-path="url(#pcf32866a87)" d="M 421.141114 356.834844 
L 421.141114 12.96 
" style="fill:none;stroke:#ffffff;stroke-linecap:round;"/>
     </g>
     <g id="line2d_12"/>
     <g id="text_6">
      <!-- 5000 -->
      <defs>
       <path d="M 4.15625 18.75 
L 13.375 19.53125 
Q 14.40625 12.796875 18.140625 9.390625 
Q 21.875 6 27.15625 6 
Q 33.5 6 37.890625 10.78125 
Q 42.28125 15.578125 42.28125 23.484375 
Q 42.28125 31 38.0625 35.34375 
Q 33.84375 39.703125 27 39.703125 
Q 22.75 39.703125 19.328125 37.765625 
Q 15.921875 35.84375 13.96875 32.765625 
L 5.71875 33.84375 
L 12.640625 70.609375 
L 48.25 70.609375 
L 48.25 62.203125 
L 19.671875 62.203125 
L 15.828125 42.96875 
Q 22.265625 47.46875 29.34375 47.46875 
Q 38.71875 47.46875 45.15625 40.96875 
Q 51.609375 34.46875 51.609375 24.265625 
Q 51.609375 14.546875 45.953125 7.46875 
Q 39.0625 -1.21875 27.15625 -1.21875 
Q 17.390625 -1.21875 11.203125 4.25 
Q 5.03125 9.71875 4.15625 18.75 
z
" id="ArialMT-53"/>
      </defs>
      <g style="fill:#262626;" transform="translate(410.019239 370.992656)scale(0.1 -0.1)">
       <use xlink:href="#ArialMT-53"/>
       <use x="55.615234" xlink:href="#ArialMT-48"/>
       <use x="111.230469" xlink:href="#ArialMT-48"/>
       <use x="166.845703" xlink:href="#ArialMT-48"/>
      </g>
     </g>
    </g>
    <g id="xtick_7">
     <g id="line2d_13">
      <path clip-path="url(#pcf32866a87)" d="M 493.907983 356.834844 
L 493.907983 12.96 
" style="fill:none;stroke:#ffffff;stroke-linecap:round;"/>
     </g>
     <g id="line2d_14"/>
     <g id="text_7">
      <!-- 6000 -->
      <defs>
       <path d="M 49.75 54.046875 
L 41.015625 53.375 
Q 39.84375 58.546875 37.703125 60.890625 
Q 34.125 64.65625 28.90625 64.65625 
Q 24.703125 64.65625 21.53125 62.3125 
Q 17.390625 59.28125 14.984375 53.46875 
Q 12.59375 47.65625 12.5 36.921875 
Q 15.671875 41.75 20.265625 44.09375 
Q 24.859375 46.4375 29.890625 46.4375 
Q 38.671875 46.4375 44.84375 39.96875 
Q 51.03125 33.5 51.03125 23.25 
Q 51.03125 16.5 48.125 10.71875 
Q 45.21875 4.9375 40.140625 1.859375 
Q 35.0625 -1.21875 28.609375 -1.21875 
Q 17.625 -1.21875 10.6875 6.859375 
Q 3.765625 14.9375 3.765625 33.5 
Q 3.765625 54.25 11.421875 63.671875 
Q 18.109375 71.875 29.4375 71.875 
Q 37.890625 71.875 43.28125 67.140625 
Q 48.6875 62.40625 49.75 54.046875 
z
M 13.875 23.1875 
Q 13.875 18.65625 15.796875 14.5 
Q 17.71875 10.359375 21.1875 8.171875 
Q 24.65625 6 28.46875 6 
Q 34.03125 6 38.03125 10.484375 
Q 42.046875 14.984375 42.046875 22.703125 
Q 42.046875 30.125 38.078125 34.390625 
Q 34.125 38.671875 28.125 38.671875 
Q 22.171875 38.671875 18.015625 34.390625 
Q 13.875 30.125 13.875 23.1875 
z
" id="ArialMT-54"/>
      </defs>
      <g style="fill:#262626;" transform="translate(482.786108 370.992656)scale(0.1 -0.1)">
       <use xlink:href="#ArialMT-54"/>
       <use x="55.615234" xlink:href="#ArialMT-48"/>
       <use x="111.230469" xlink:href="#ArialMT-48"/>
       <use x="166.845703" xlink:href="#ArialMT-48"/>
      </g>
     </g>
    </g>
    <g id="text_8">
     <!-- Games between no-hitters -->
     <defs>
      <path d="M 41.21875 28.078125 
L 41.21875 36.46875 
L 71.53125 36.53125 
L 71.53125 9.96875 
Q 64.546875 4.390625 57.125 1.578125 
Q 49.703125 -1.21875 41.890625 -1.21875 
Q 31.34375 -1.21875 22.71875 3.296875 
Q 14.109375 7.8125 9.71875 16.359375 
Q 5.328125 24.90625 5.328125 35.453125 
Q 5.328125 45.90625 9.6875 54.953125 
Q 14.0625 64.015625 22.265625 68.40625 
Q 30.46875 72.796875 41.15625 72.796875 
Q 48.921875 72.796875 55.1875 70.28125 
Q 61.46875 67.78125 65.03125 63.28125 
Q 68.609375 58.796875 70.453125 51.5625 
L 61.921875 49.21875 
Q 60.296875 54.6875 57.90625 57.8125 
Q 55.515625 60.9375 51.0625 62.8125 
Q 46.625 64.703125 41.21875 64.703125 
Q 34.71875 64.703125 29.984375 62.71875 
Q 25.25 60.75 22.34375 57.515625 
Q 19.4375 54.296875 17.828125 50.4375 
Q 15.09375 43.796875 15.09375 36.03125 
Q 15.09375 26.46875 18.390625 20.015625 
Q 21.6875 13.578125 27.984375 10.453125 
Q 34.28125 7.328125 41.359375 7.328125 
Q 47.515625 7.328125 53.375 9.6875 
Q 59.234375 12.0625 62.25 14.75 
L 62.25 28.078125 
z
" id="ArialMT-71"/>
      <path d="M 40.4375 6.390625 
Q 35.546875 2.25 31.03125 0.53125 
Q 26.515625 -1.171875 21.34375 -1.171875 
Q 12.796875 -1.171875 8.203125 3 
Q 3.609375 7.171875 3.609375 13.671875 
Q 3.609375 17.484375 5.34375 20.625 
Q 7.078125 23.78125 9.890625 25.6875 
Q 12.703125 27.59375 16.21875 28.5625 
Q 18.796875 29.25 24.03125 29.890625 
Q 34.671875 31.15625 39.703125 32.90625 
Q 39.75 34.71875 39.75 35.203125 
Q 39.75 40.578125 37.25 42.78125 
Q 33.890625 45.75 27.25 45.75 
Q 21.046875 45.75 18.09375 43.578125 
Q 15.140625 41.40625 13.71875 35.890625 
L 5.125 37.0625 
Q 6.296875 42.578125 8.984375 45.96875 
Q 11.671875 49.359375 16.75 51.1875 
Q 21.828125 53.03125 28.515625 53.03125 
Q 35.15625 53.03125 39.296875 51.46875 
Q 43.453125 49.90625 45.40625 47.53125 
Q 47.359375 45.171875 48.140625 41.546875 
Q 48.578125 39.3125 48.578125 33.453125 
L 48.578125 21.734375 
Q 48.578125 9.46875 49.140625 6.21875 
Q 49.703125 2.984375 51.375 0 
L 42.1875 0 
Q 40.828125 2.734375 40.4375 6.390625 
z
M 39.703125 26.03125 
Q 34.90625 24.078125 25.34375 22.703125 
Q 19.921875 21.921875 17.671875 20.9375 
Q 15.4375 19.96875 14.203125 18.09375 
Q 12.984375 16.21875 12.984375 13.921875 
Q 12.984375 10.40625 15.640625 8.0625 
Q 18.3125 5.71875 23.4375 5.71875 
Q 28.515625 5.71875 32.46875 7.9375 
Q 36.421875 10.15625 38.28125 14.015625 
Q 39.703125 17 39.703125 22.796875 
z
" id="ArialMT-97"/>
      <path d="M 6.59375 0 
L 6.59375 51.859375 
L 14.453125 51.859375 
L 14.453125 44.578125 
Q 16.890625 48.390625 20.9375 50.703125 
Q 25 53.03125 30.171875 53.03125 
Q 35.9375 53.03125 39.625 50.640625 
Q 43.3125 48.25 44.828125 43.953125 
Q 50.984375 53.03125 60.84375 53.03125 
Q 68.5625 53.03125 72.703125 48.75 
Q 76.859375 44.484375 76.859375 35.59375 
L 76.859375 0 
L 68.109375 0 
L 68.109375 32.671875 
Q 68.109375 37.9375 67.25 40.25 
Q 66.40625 42.578125 64.15625 43.984375 
Q 61.921875 45.40625 58.890625 45.40625 
Q 53.421875 45.40625 49.796875 41.765625 
Q 46.1875 38.140625 46.1875 30.125 
L 46.1875 0 
L 37.40625 0 
L 37.40625 33.6875 
Q 37.40625 39.546875 35.25 42.46875 
Q 33.109375 45.40625 28.21875 45.40625 
Q 24.515625 45.40625 21.359375 43.453125 
Q 18.21875 41.5 16.796875 37.734375 
Q 15.375 33.984375 15.375 26.90625 
L 15.375 0 
z
" id="ArialMT-109"/>
      <path d="M 42.09375 16.703125 
L 51.171875 15.578125 
Q 49.03125 7.625 43.21875 3.21875 
Q 37.40625 -1.171875 28.375 -1.171875 
Q 17 -1.171875 10.328125 5.828125 
Q 3.65625 12.84375 3.65625 25.484375 
Q 3.65625 38.578125 10.390625 45.796875 
Q 17.140625 53.03125 27.875 53.03125 
Q 38.28125 53.03125 44.875 45.953125 
Q 51.46875 38.875 51.46875 26.03125 
Q 51.46875 25.25 51.421875 23.6875 
L 12.75 23.6875 
Q 13.234375 15.140625 17.578125 10.59375 
Q 21.921875 6.0625 28.421875 6.0625 
Q 33.25 6.0625 36.671875 8.59375 
Q 40.09375 11.140625 42.09375 16.703125 
z
M 13.234375 30.90625 
L 42.1875 30.90625 
Q 41.609375 37.453125 38.875 40.71875 
Q 34.671875 45.796875 27.984375 45.796875 
Q 21.921875 45.796875 17.796875 41.75 
Q 13.671875 37.703125 13.234375 30.90625 
z
" id="ArialMT-101"/>
      <path d="M 3.078125 15.484375 
L 11.765625 16.84375 
Q 12.5 11.625 15.84375 8.84375 
Q 19.1875 6.0625 25.203125 6.0625 
Q 31.25 6.0625 34.171875 8.515625 
Q 37.109375 10.984375 37.109375 14.3125 
Q 37.109375 17.28125 34.515625 19 
Q 32.71875 20.171875 25.53125 21.96875 
Q 15.875 24.421875 12.140625 26.203125 
Q 8.40625 27.984375 6.46875 31.125 
Q 4.546875 34.28125 4.546875 38.09375 
Q 4.546875 41.546875 6.125 44.5 
Q 7.71875 47.46875 10.453125 49.421875 
Q 12.5 50.921875 16.03125 51.96875 
Q 19.578125 53.03125 23.640625 53.03125 
Q 29.734375 53.03125 34.34375 51.265625 
Q 38.96875 49.515625 41.15625 46.5 
Q 43.359375 43.5 44.1875 38.484375 
L 35.59375 37.3125 
Q 35.015625 41.3125 32.203125 43.546875 
Q 29.390625 45.796875 24.265625 45.796875 
Q 18.21875 45.796875 15.625 43.796875 
Q 13.03125 41.796875 13.03125 39.109375 
Q 13.03125 37.40625 14.109375 36.03125 
Q 15.1875 34.625 17.484375 33.6875 
Q 18.796875 33.203125 25.25 31.453125 
Q 34.578125 28.953125 38.25 27.359375 
Q 41.9375 25.78125 44.03125 22.75 
Q 46.140625 19.734375 46.140625 15.234375 
Q 46.140625 10.84375 43.578125 6.953125 
Q 41.015625 3.078125 36.171875 0.953125 
Q 31.34375 -1.171875 25.25 -1.171875 
Q 15.140625 -1.171875 9.84375 3.03125 
Q 4.546875 7.234375 3.078125 15.484375 
z
" id="ArialMT-115"/>
      <path id="ArialMT-32"/>
      <path d="M 14.703125 0 
L 6.546875 0 
L 6.546875 71.578125 
L 15.328125 71.578125 
L 15.328125 46.046875 
Q 20.90625 53.03125 29.546875 53.03125 
Q 34.328125 53.03125 38.59375 51.09375 
Q 42.875 49.171875 45.625 45.671875 
Q 48.390625 42.1875 49.953125 37.25 
Q 51.515625 32.328125 51.515625 26.703125 
Q 51.515625 13.375 44.921875 6.09375 
Q 38.328125 -1.171875 29.109375 -1.171875 
Q 19.921875 -1.171875 14.703125 6.5 
z
M 14.59375 26.3125 
Q 14.59375 17 17.140625 12.84375 
Q 21.296875 6.0625 28.375 6.0625 
Q 34.125 6.0625 38.328125 11.0625 
Q 42.53125 16.0625 42.53125 25.984375 
Q 42.53125 36.140625 38.5 40.96875 
Q 34.46875 45.796875 28.765625 45.796875 
Q 23 45.796875 18.796875 40.796875 
Q 14.59375 35.796875 14.59375 26.3125 
z
" id="ArialMT-98"/>
      <path d="M 25.78125 7.859375 
L 27.046875 0.09375 
Q 23.34375 -0.6875 20.40625 -0.6875 
Q 15.625 -0.6875 12.984375 0.828125 
Q 10.359375 2.34375 9.28125 4.8125 
Q 8.203125 7.28125 8.203125 15.1875 
L 8.203125 45.015625 
L 1.765625 45.015625 
L 1.765625 51.859375 
L 8.203125 51.859375 
L 8.203125 64.703125 
L 16.9375 69.96875 
L 16.9375 51.859375 
L 25.78125 51.859375 
L 25.78125 45.015625 
L 16.9375 45.015625 
L 16.9375 14.703125 
Q 16.9375 10.9375 17.40625 9.859375 
Q 17.875 8.796875 18.921875 8.15625 
Q 19.96875 7.515625 21.921875 7.515625 
Q 23.390625 7.515625 25.78125 7.859375 
z
" id="ArialMT-116"/>
      <path d="M 16.15625 0 
L 0.296875 51.859375 
L 9.375 51.859375 
L 17.625 21.921875 
L 20.703125 10.796875 
Q 20.90625 11.625 23.390625 21.484375 
L 31.640625 51.859375 
L 40.671875 51.859375 
L 48.4375 21.78125 
L 51.03125 11.859375 
L 54 21.875 
L 62.890625 51.859375 
L 71.4375 51.859375 
L 55.21875 0 
L 46.09375 0 
L 37.84375 31.0625 
L 35.84375 39.890625 
L 25.34375 0 
z
" id="ArialMT-119"/>
      <path d="M 6.59375 0 
L 6.59375 51.859375 
L 14.5 51.859375 
L 14.5 44.484375 
Q 20.21875 53.03125 31 53.03125 
Q 35.6875 53.03125 39.625 51.34375 
Q 43.5625 49.65625 45.515625 46.921875 
Q 47.46875 44.1875 48.25 40.4375 
Q 48.734375 37.984375 48.734375 31.890625 
L 48.734375 0 
L 39.9375 0 
L 39.9375 31.546875 
Q 39.9375 36.921875 38.90625 39.578125 
Q 37.890625 42.234375 35.28125 43.8125 
Q 32.671875 45.40625 29.15625 45.40625 
Q 23.53125 45.40625 19.453125 41.84375 
Q 15.375 38.28125 15.375 28.328125 
L 15.375 0 
z
" id="ArialMT-110"/>
      <path d="M 3.328125 25.921875 
Q 3.328125 40.328125 11.328125 47.265625 
Q 18.015625 53.03125 27.640625 53.03125 
Q 38.328125 53.03125 45.109375 46.015625 
Q 51.90625 39.015625 51.90625 26.65625 
Q 51.90625 16.65625 48.90625 10.90625 
Q 45.90625 5.171875 40.15625 2 
Q 34.421875 -1.171875 27.640625 -1.171875 
Q 16.75 -1.171875 10.03125 5.8125 
Q 3.328125 12.796875 3.328125 25.921875 
z
M 12.359375 25.921875 
Q 12.359375 15.96875 16.703125 11.015625 
Q 21.046875 6.0625 27.640625 6.0625 
Q 34.1875 6.0625 38.53125 11.03125 
Q 42.875 16.015625 42.875 26.21875 
Q 42.875 35.84375 38.5 40.796875 
Q 34.125 45.75 27.640625 45.75 
Q 21.046875 45.75 16.703125 40.8125 
Q 12.359375 35.890625 12.359375 25.921875 
z
" id="ArialMT-111"/>
      <path d="M 3.171875 21.484375 
L 3.171875 30.328125 
L 30.171875 30.328125 
L 30.171875 21.484375 
z
" id="ArialMT-45"/>
      <path d="M 6.59375 0 
L 6.59375 71.578125 
L 15.375 71.578125 
L 15.375 45.90625 
Q 21.53125 53.03125 30.90625 53.03125 
Q 36.671875 53.03125 40.921875 50.75 
Q 45.171875 48.484375 47 44.484375 
Q 48.828125 40.484375 48.828125 32.859375 
L 48.828125 0 
L 40.046875 0 
L 40.046875 32.859375 
Q 40.046875 39.453125 37.1875 42.453125 
Q 34.328125 45.453125 29.109375 45.453125 
Q 25.203125 45.453125 21.75 43.421875 
Q 18.3125 41.40625 16.84375 37.9375 
Q 15.375 34.46875 15.375 28.375 
L 15.375 0 
z
" id="ArialMT-104"/>
      <path d="M 6.640625 61.46875 
L 6.640625 71.578125 
L 15.4375 71.578125 
L 15.4375 61.46875 
z
M 6.640625 0 
L 6.640625 51.859375 
L 15.4375 51.859375 
L 15.4375 0 
z
" id="ArialMT-105"/>
      <path d="M 6.5 0 
L 6.5 51.859375 
L 14.40625 51.859375 
L 14.40625 44 
Q 17.4375 49.515625 20 51.265625 
Q 22.5625 53.03125 25.640625 53.03125 
Q 30.078125 53.03125 34.671875 50.203125 
L 31.640625 42.046875 
Q 28.421875 43.953125 25.203125 43.953125 
Q 22.3125 43.953125 20.015625 42.21875 
Q 17.71875 40.484375 16.75 37.40625 
Q 15.28125 32.71875 15.28125 27.15625 
L 15.28125 0 
z
" id="ArialMT-114"/>
     </defs>
     <g style="fill:#262626;" transform="translate(227.480391 384.85375)scale(0.11 -0.11)">
      <use xlink:href="#ArialMT-71"/>
      <use x="77.783203" xlink:href="#ArialMT-97"/>
      <use x="133.398438" xlink:href="#ArialMT-109"/>
      <use x="216.699219" xlink:href="#ArialMT-101"/>
      <use x="272.314453" xlink:href="#ArialMT-115"/>
      <use x="322.314453" xlink:href="#ArialMT-32"/>
      <use x="350.097656" xlink:href="#ArialMT-98"/>
      <use x="405.712891" xlink:href="#ArialMT-101"/>
      <use x="461.328125" xlink:href="#ArialMT-116"/>
      <use x="489.111328" xlink:href="#ArialMT-119"/>
      <use x="561.328125" xlink:href="#ArialMT-101"/>
      <use x="616.943359" xlink:href="#ArialMT-101"/>
      <use x="672.558594" xlink:href="#ArialMT-110"/>
      <use x="728.173828" xlink:href="#ArialMT-32"/>
      <use x="755.957031" xlink:href="#ArialMT-110"/>
      <use x="811.572266" xlink:href="#ArialMT-111"/>
      <use x="867.1875" xlink:href="#ArialMT-45"/>
      <use x="900.488281" xlink:href="#ArialMT-104"/>
      <use x="956.103516" xlink:href="#ArialMT-105"/>
      <use x="978.320312" xlink:href="#ArialMT-116"/>
      <use x="1006.103516" xlink:href="#ArialMT-116"/>
      <use x="1033.886719" xlink:href="#ArialMT-101"/>
      <use x="1089.501953" xlink:href="#ArialMT-114"/>
      <use x="1122.802734" xlink:href="#ArialMT-115"/>
     </g>
    </g>
   </g>
   <g id="matplotlib.axis_2">
    <g id="ytick_1">
     <g id="line2d_15">
      <path clip-path="url(#pcf32866a87)" d="M 47.919844 350.254934 
L 536.04 350.254934 
" style="fill:none;stroke:#ffffff;stroke-linecap:round;"/>
     </g>
     <g id="line2d_16"/>
     <g id="text_9">
      <!-- 0.0 -->
      <defs>
       <path d="M 9.078125 0 
L 9.078125 10.015625 
L 19.09375 10.015625 
L 19.09375 0 
z
" id="ArialMT-46"/>
      </defs>
      <g style="fill:#262626;" transform="translate(27.019844 353.83384)scale(0.1 -0.1)">
       <use xlink:href="#ArialMT-48"/>
       <use x="55.615234" xlink:href="#ArialMT-46"/>
       <use x="83.398438" xlink:href="#ArialMT-48"/>
      </g>
     </g>
    </g>
    <g id="ytick_2">
     <g id="line2d_17">
      <path clip-path="url(#pcf32866a87)" d="M 47.919844 284.118543 
L 536.04 284.118543 
" style="fill:none;stroke:#ffffff;stroke-linecap:round;"/>
     </g>
     <g id="line2d_18"/>
     <g id="text_10">
      <!-- 0.2 -->
      <g style="fill:#262626;" transform="translate(27.019844 287.697449)scale(0.1 -0.1)">
       <use xlink:href="#ArialMT-48"/>
       <use x="55.615234" xlink:href="#ArialMT-46"/>
       <use x="83.398438" xlink:href="#ArialMT-50"/>
      </g>
     </g>
    </g>
    <g id="ytick_3">
     <g id="line2d_19">
      <path clip-path="url(#pcf32866a87)" d="M 47.919844 217.982152 
L 536.04 217.982152 
" style="fill:none;stroke:#ffffff;stroke-linecap:round;"/>
     </g>
     <g id="line2d_20"/>
     <g id="text_11">
      <!-- 0.4 -->
      <g style="fill:#262626;" transform="translate(27.019844 221.561058)scale(0.1 -0.1)">
       <use xlink:href="#ArialMT-48"/>
       <use x="55.615234" xlink:href="#ArialMT-46"/>
       <use x="83.398438" xlink:href="#ArialMT-52"/>
      </g>
     </g>
    </g>
    <g id="ytick_4">
     <g id="line2d_21">
      <path clip-path="url(#pcf32866a87)" d="M 47.919844 151.84576 
L 536.04 151.84576 
" style="fill:none;stroke:#ffffff;stroke-linecap:round;"/>
     </g>
     <g id="line2d_22"/>
     <g id="text_12">
      <!-- 0.6 -->
      <g style="fill:#262626;" transform="translate(27.019844 155.424667)scale(0.1 -0.1)">
       <use xlink:href="#ArialMT-48"/>
       <use x="55.615234" xlink:href="#ArialMT-46"/>
       <use x="83.398438" xlink:href="#ArialMT-54"/>
      </g>
     </g>
    </g>
    <g id="ytick_5">
     <g id="line2d_23">
      <path clip-path="url(#pcf32866a87)" d="M 47.919844 85.709369 
L 536.04 85.709369 
" style="fill:none;stroke:#ffffff;stroke-linecap:round;"/>
     </g>
     <g id="line2d_24"/>
     <g id="text_13">
      <!-- 0.8 -->
      <defs>
       <path d="M 17.671875 38.8125 
Q 12.203125 40.828125 9.5625 44.53125 
Q 6.9375 48.25 6.9375 53.421875 
Q 6.9375 61.234375 12.546875 66.546875 
Q 18.171875 71.875 27.484375 71.875 
Q 36.859375 71.875 42.578125 66.421875 
Q 48.296875 60.984375 48.296875 53.171875 
Q 48.296875 48.1875 45.671875 44.5 
Q 43.0625 40.828125 37.75 38.8125 
Q 44.34375 36.671875 47.78125 31.875 
Q 51.21875 27.09375 51.21875 20.453125 
Q 51.21875 11.28125 44.71875 5.03125 
Q 38.234375 -1.21875 27.640625 -1.21875 
Q 17.046875 -1.21875 10.546875 5.046875 
Q 4.046875 11.328125 4.046875 20.703125 
Q 4.046875 27.6875 7.59375 32.390625 
Q 11.140625 37.109375 17.671875 38.8125 
z
M 15.921875 53.71875 
Q 15.921875 48.640625 19.1875 45.40625 
Q 22.46875 42.1875 27.6875 42.1875 
Q 32.765625 42.1875 36.015625 45.375 
Q 39.265625 48.578125 39.265625 53.21875 
Q 39.265625 58.0625 35.90625 61.359375 
Q 32.5625 64.65625 27.59375 64.65625 
Q 22.5625 64.65625 19.234375 61.421875 
Q 15.921875 58.203125 15.921875 53.71875 
z
M 13.09375 20.65625 
Q 13.09375 16.890625 14.875 13.375 
Q 16.65625 9.859375 20.171875 7.921875 
Q 23.6875 6 27.734375 6 
Q 34.03125 6 38.125 10.046875 
Q 42.234375 14.109375 42.234375 20.359375 
Q 42.234375 26.703125 38.015625 30.859375 
Q 33.796875 35.015625 27.4375 35.015625 
Q 21.234375 35.015625 17.15625 30.90625 
Q 13.09375 26.8125 13.09375 20.65625 
z
" id="ArialMT-56"/>
      </defs>
      <g style="fill:#262626;" transform="translate(27.019844 89.288275)scale(0.1 -0.1)">
       <use xlink:href="#ArialMT-48"/>
       <use x="55.615234" xlink:href="#ArialMT-46"/>
       <use x="83.398438" xlink:href="#ArialMT-56"/>
      </g>
     </g>
    </g>
    <g id="ytick_6">
     <g id="line2d_25">
      <path clip-path="url(#pcf32866a87)" d="M 47.919844 19.572978 
L 536.04 19.572978 
" style="fill:none;stroke:#ffffff;stroke-linecap:round;"/>
     </g>
     <g id="line2d_26"/>
     <g id="text_14">
      <!-- 1.0 -->
      <g style="fill:#262626;" transform="translate(27.019844 23.151884)scale(0.1 -0.1)">
       <use xlink:href="#ArialMT-49"/>
       <use x="55.615234" xlink:href="#ArialMT-46"/>
       <use x="83.398438" xlink:href="#ArialMT-48"/>
      </g>
     </g>
    </g>
    <g id="text_15">
     <!-- CDF -->
     <defs>
      <path d="M 58.796875 25.09375 
L 68.265625 22.703125 
Q 65.28125 11.03125 57.546875 4.90625 
Q 49.8125 -1.21875 38.625 -1.21875 
Q 27.046875 -1.21875 19.796875 3.484375 
Q 12.546875 8.203125 8.765625 17.140625 
Q 4.984375 26.078125 4.984375 36.328125 
Q 4.984375 47.515625 9.25 55.828125 
Q 13.53125 64.15625 21.40625 68.46875 
Q 29.296875 72.796875 38.765625 72.796875 
Q 49.515625 72.796875 56.828125 67.328125 
Q 64.15625 61.859375 67.046875 51.953125 
L 57.71875 49.75 
Q 55.21875 57.5625 50.484375 61.125 
Q 45.75 64.703125 38.578125 64.703125 
Q 30.328125 64.703125 24.78125 60.734375 
Q 19.234375 56.78125 16.984375 50.109375 
Q 14.75 43.453125 14.75 36.375 
Q 14.75 27.25 17.40625 20.4375 
Q 20.0625 13.625 25.671875 10.25 
Q 31.296875 6.890625 37.84375 6.890625 
Q 45.796875 6.890625 51.3125 11.46875 
Q 56.84375 16.0625 58.796875 25.09375 
z
" id="ArialMT-67"/>
      <path d="M 7.71875 0 
L 7.71875 71.578125 
L 32.375 71.578125 
Q 40.71875 71.578125 45.125 70.5625 
Q 51.265625 69.140625 55.609375 65.4375 
Q 61.28125 60.640625 64.078125 53.1875 
Q 66.890625 45.75 66.890625 36.1875 
Q 66.890625 28.03125 64.984375 21.734375 
Q 63.09375 15.4375 60.109375 11.296875 
Q 57.125 7.171875 53.578125 4.796875 
Q 50.046875 2.4375 45.046875 1.21875 
Q 40.046875 0 33.546875 0 
z
M 17.1875 8.453125 
L 32.46875 8.453125 
Q 39.546875 8.453125 43.578125 9.765625 
Q 47.609375 11.078125 50 13.484375 
Q 53.375 16.84375 55.25 22.53125 
Q 57.125 28.21875 57.125 36.328125 
Q 57.125 47.5625 53.4375 53.59375 
Q 49.75 59.625 44.484375 61.671875 
Q 40.671875 63.140625 32.234375 63.140625 
L 17.1875 63.140625 
z
" id="ArialMT-68"/>
      <path d="M 8.203125 0 
L 8.203125 71.578125 
L 56.5 71.578125 
L 56.5 63.140625 
L 17.671875 63.140625 
L 17.671875 40.96875 
L 51.265625 40.96875 
L 51.265625 32.515625 
L 17.671875 32.515625 
L 17.671875 0 
z
" id="ArialMT-70"/>
     </defs>
     <g style="fill:#262626;" transform="translate(20.833594 196.200781)rotate(-90)scale(0.11 -0.11)">
      <use xlink:href="#ArialMT-67"/>
      <use x="72.216797" xlink:href="#ArialMT-68"/>
      <use x="144.433594" xlink:href="#ArialMT-70"/>
     </g>
    </g>
   </g>
   <g id="line2d_27">
    <path clip-path="url(#pcf32866a87)" d="M 57.307416 350.221866 
L 57.437264 349.461297 
L 57.60258 348.86607 
L 57.722705 348.13857 
L 63.876632 312.325714 
L 63.939007 312.0281 
L 64.075474 311.3006 
L 64.469266 309.085031 
L 64.836796 307.167075 
L 65.134237 305.182984 
L 65.521196 303.132755 
L 65.575985 302.967414 
L 65.688327 302.306051 
L 65.822033 301.710823 
L 66.07603 300.586504 
L 66.139589 300.255822 
L 66.553812 298.503208 
L 66.637297 298.139458 
L 67.7039 292.286387 
L 67.891961 291.393546 
L 68.002902 290.798318 
L 68.354211 289.343318 
L 68.449216 288.681954 
L 68.640068 287.921385 
L 68.744529 287.392294 
L 69.201778 285.143657 
L 69.267134 284.945248 
L 69.836605 281.902974 
L 69.979339 281.373883 
L 70.132162 280.51411 
L 70.841834 277.041949 
L 70.944524 276.777403 
L 72.661636 269.072514 
L 72.907603 267.948195 
L 72.973379 267.68365 
L 73.444778 265.30274 
L 73.587834 264.509103 
L 73.7655 263.980012 
L 73.9529 262.822625 
L 74.010512 262.525011 
L 74.125357 262.128193 
L 74.206828 261.863647 
L 75.878227 254.423303 
L 75.964949 254.026485 
L 76.161785 252.935234 
L 76.283855 252.306939 
L 76.544239 251.513302 
L 76.63707 251.215688 
L 76.799485 250.620461 
L 77.488833 247.611255 
L 77.608957 247.181368 
L 77.799689 246.586141 
L 77.884807 246.222391 
L 78.280005 244.602049 
L 78.356655 244.271367 
L 79.567162 239.410342 
L 79.654951 239.211933 
L 79.792109 238.748978 
L 79.912162 238.120683 
L 80.349194 236.235796 
L 80.458724 235.805909 
L 81.371691 232.069203 
L 81.433641 231.903862 
L 81.665545 230.878748 
L 81.802736 230.250452 
L 81.953347 229.688293 
L 83.606417 223.702949 
L 83.755676 223.273063 
L 84.307512 221.255903 
L 84.398326 221.024426 
L 84.685211 219.933175 
L 84.786221 219.635561 
L 84.884475 219.437152 
L 85.057971 218.544311 
L 85.169697 218.147493 
L 85.277332 217.783742 
L 85.382603 217.353856 
L 85.58735 216.229537 
L 85.843615 215.568173 
L 85.967622 214.906809 
L 86.051346 214.642264 
L 86.201058 214.047036 
L 86.282974 213.815559 
L 86.504459 212.922718 
L 86.550979 212.658172 
L 86.706109 211.831467 
L 86.817864 211.269308 
L 86.904351 211.037831 
L 87.18509 210.111921 
L 87.284027 209.880444 
L 87.358017 209.516694 
L 87.499236 208.65692 
L 88.053403 207.135783 
L 88.177792 206.672829 
L 89.626949 201.679531 
L 89.709761 201.414986 
L 89.955778 200.489076 
L 90.385074 199.199416 
L 90.747733 197.678279 
L 90.88116 197.446802 
L 91.075344 196.520893 
L 91.235677 196.256347 
L 92.212222 192.949528 
L 92.319299 192.784187 
L 92.498406 192.188959 
L 92.643175 191.792141 
L 93.095337 190.535549 
L 93.387956 189.60964 
L 93.629617 189.378162 
L 93.882047 188.485321 
L 94.180438 187.327934 
L 94.311764 186.798843 
L 94.460231 186.368957 
L 94.589867 185.972138 
L 94.968151 184.947024 
L 95.080836 184.451001 
L 95.221274 184.120319 
L 95.33058 183.789637 
L 95.685959 182.466909 
L 95.814871 182.301569 
L 96.999361 178.267249 
L 97.07762 178.068839 
L 97.280688 177.209066 
L 97.378952 176.911453 
L 97.506106 176.514634 
L 97.631205 176.316225 
L 97.766554 175.787134 
L 97.853762 175.423384 
L 98.079132 174.497474 
L 98.1704 174.199861 
L 98.244808 174.001451 
L 98.45311 173.571565 
L 98.553833 173.505428 
L 99.478681 171.322928 
L 99.590557 170.893041 
L 99.654143 170.694632 
L 99.769675 170.397018 
L 99.90074 170.099404 
L 100.058542 169.669518 
L 100.225316 169.07429 
L 100.343208 168.809745 
L 100.522464 168.247585 
L 101.399311 165.569062 
L 102.160811 163.651106 
L 102.273879 163.287356 
L 102.460573 162.857469 
L 102.611663 162.328378 
L 102.744594 162.030765 
L 102.90531 161.667014 
L 103.092249 161.170992 
L 103.231008 160.906446 
L 103.620404 159.980536 
L 103.730512 159.55065 
L 104.067826 158.955422 
L 104.575279 157.53349 
L 104.668571 157.302013 
L 104.920172 156.80599 
L 105.018756 156.640649 
L 105.081127 156.343035 
L 105.309487 155.450194 
L 105.503857 154.954171 
L 105.575337 154.722693 
L 105.703697 154.392011 
L 105.845944 154.094398 
L 106.242464 153.036215 
L 106.356294 152.672465 
L 106.92906 151.48201 
L 107.04463 151.217465 
L 108.526455 147.546895 
L 108.630453 147.348486 
L 108.741382 146.918599 
L 108.893655 146.521781 
L 109.007275 146.290303 
L 111.127234 141.59462 
L 111.432638 141.03246 
L 111.566362 140.569506 
L 112.484458 138.65155 
L 112.724703 138.221664 
L 112.919819 137.725641 
L 113.006297 137.5603 
L 113.476251 136.469049 
L 113.618114 136.171436 
L 116.100834 130.979729 
L 116.238724 130.814388 
L 117.112153 128.962569 
L 117.203701 128.76416 
L 117.446263 128.40041 
L 117.899665 127.011545 
L 118.034974 126.846204 
L 118.159056 126.680863 
L 118.39679 126.217909 
L 118.542602 125.82109 
L 120.106577 122.34893 
L 120.247596 121.952111 
L 120.410692 121.753702 
L 120.580403 121.42302 
L 120.795319 121.125407 
L 121.307581 120.430974 
L 121.399454 120.265633 
L 121.601492 120.067224 
L 121.869685 119.571201 
L 122.09067 119.04211 
L 122.239471 118.810633 
L 122.524646 118.248474 
L 122.681503 117.95086 
L 123.633825 115.603018 
L 123.826527 115.239268 
L 124.305654 114.941654 
L 124.601568 114.379495 
L 124.920706 113.718131 
L 125.096725 113.519722 
L 125.199403 113.321312 
L 125.347859 113.155971 
L 125.907041 111.998585 
L 126.025359 111.734039 
L 126.456983 111.304152 
L 126.542337 111.204948 
L 126.677824 111.039607 
L 126.839086 110.675857 
L 127.028188 110.345175 
L 127.879588 108.857106 
L 127.993818 108.691765 
L 128.287169 108.129606 
L 128.435061 107.997333 
L 128.552458 107.666651 
L 128.674516 107.534378 
L 129.132489 106.873014 
L 129.419001 106.542332 
L 129.520823 106.41006 
L 129.692287 106.21165 
L 129.849821 105.814832 
L 130.18511 105.252673 
L 130.35763 105.021195 
L 130.817948 104.19449 
L 131.178513 103.83074 
L 131.312515 103.566195 
L 131.651483 102.970967 
L 131.771132 102.706422 
L 132.21024 102.144262 
L 132.452971 101.747444 
L 132.682338 101.317557 
L 133.339492 100.623125 
L 133.50518 100.424716 
L 133.852707 100.094034 
L 134.750583 98.738238 
L 134.885658 98.539829 
L 134.946215 98.473693 
L 135.056334 98.308352 
L 135.371853 97.944601 
L 135.525777 97.646988 
L 135.685607 97.514715 
L 135.963127 97.05176 
L 136.173164 96.853351 
L 136.284353 96.721078 
L 137.050975 95.530623 
L 137.117341 95.299146 
L 137.388352 95.067668 
L 137.632148 94.836191 
L 137.966705 94.406305 
L 138.153126 94.042554 
L 138.52373 93.778009 
L 138.664753 93.546531 
L 139.302806 92.554486 
L 139.458783 92.323008 
L 139.672362 92.025394 
L 140.038713 91.760849 
L 140.161799 91.56244 
L 141.003484 90.603462 
L 141.331602 90.438121 
L 141.495823 90.140507 
L 141.762535 89.710621 
L 141.884324 89.54528 
L 141.992418 89.413007 
L 142.180462 89.18153 
L 142.388367 88.784711 
L 142.984333 88.321757 
L 143.165862 88.189484 
L 143.464619 87.991075 
L 143.594755 87.825734 
L 143.741062 87.660393 
L 146.092697 85.048005 
L 146.241082 84.849596 
L 147.545455 83.163118 
L 147.778743 82.700163 
L 147.907916 82.468686 
L 147.930797 82.402549 
L 148.079543 82.270277 
L 149.052814 80.848344 
L 149.23217 80.683003 
L 149.330385 80.616867 
L 149.557715 80.319253 
L 149.693505 80.120844 
L 150.454556 79.128798 
L 150.735693 78.963457 
L 151.136142 78.599707 
L 151.285085 78.434366 
L 152.021427 77.475388 
L 152.242559 77.310047 
L 152.342568 77.177775 
L 152.609217 76.946297 
L 152.733933 76.747888 
L 152.97447 76.417206 
L 153.331115 75.921183 
L 153.45309 75.722774 
L 153.704044 75.491297 
L 156.142849 72.945046 
L 156.645636 72.482091 
L 156.772278 72.349818 
L 157.167968 72.151409 
L 160.776687 68.877657 
L 161.152396 68.580044 
L 161.366465 68.381635 
L 161.501521 68.216294 
L 161.741525 68.017884 
L 162.059324 67.852543 
L 162.079125 67.786407 
L 162.494146 67.55493 
L 162.632832 67.455725 
L 163.194166 67.025839 
L 163.230424 66.926634 
L 163.589727 66.728225 
L 163.637722 66.62902 
L 163.894708 66.463679 
L 164.060947 66.364475 
L 164.351245 66.099929 
L 164.377999 66.033793 
L 164.79148 65.835383 
L 164.879699 65.736179 
L 165.365109 65.438565 
L 165.593508 65.273224 
L 165.984755 64.777201 
L 166.27592 64.512656 
L 167.136937 63.88436 
L 167.288769 63.719019 
L 168.521207 62.660837 
L 168.919559 62.429359 
L 169.080401 62.264018 
L 169.333835 62.032541 
L 169.468934 61.8672 
L 169.739562 61.701859 
L 170.121712 61.338109 
L 170.598087 61.040495 
L 171.649414 60.081517 
L 171.995088 59.883108 
L 172.180596 59.519358 
L 172.27428 59.420154 
L 172.652887 59.155608 
L 172.768985 59.089472 
L 173.829349 58.328903 
L 175.227268 57.270721 
L 175.616888 57.039243 
L 175.793586 56.940039 
L 175.930922 56.774698 
L 176.359908 56.609357 
L 176.658447 56.444016 
L 177.188511 56.17947 
L 177.238078 56.113334 
L 178.411386 55.551175 
L 179.971538 54.625265 
L 180.070001 54.426856 
L 182.490929 52.971855 
L 182.629184 52.839583 
L 183.15678 52.442764 
L 183.630098 52.211287 
L 184.404262 51.582991 
L 184.919171 51.450718 
L 185.104681 51.351514 
L 186.786019 50.557877 
L 187.629947 50.194127 
L 188.226578 50.061854 
L 188.656042 49.830377 
L 188.870004 49.665036 
L 189.687167 49.301286 
L 190.057131 48.970604 
L 190.394774 48.838331 
L 190.587202 48.606854 
L 190.731297 48.441513 
L 190.775141 48.30924 
L 191.515721 48.011626 
L 191.579867 47.912421 
L 192.138313 47.680944 
L 192.559561 47.515603 
L 193.409513 47.151853 
L 193.884498 47.01958 
L 194.269295 46.589694 
L 198.132047 45.200829 
L 198.239216 45.101625 
L 198.565714 45.00242 
L 199.307008 44.770943 
L 199.492018 44.63867 
L 200.652122 44.440261 
L 200.901707 44.27492 
L 201.714932 44.109579 
L 202.314333 43.91117 
L 202.316028 43.878102 
L 202.723026 43.712761 
L 202.90819 43.646624 
L 203.318076 43.514351 
L 203.535259 43.415147 
L 204.280438 43.084465 
L 204.375688 42.98526 
L 206.981325 41.927078 
L 208.253612 41.034237 
L 208.591353 40.901964 
L 208.685296 40.835828 
L 210.076036 40.439009 
L 210.178398 40.339805 
L 211.295974 39.843782 
L 211.980685 39.579236 
L 212.224133 39.347759 
L 214.248607 38.686395 
L 215.986936 38.157304 
L 216.657255 37.85969 
L 216.784416 37.760485 
L 217.389511 37.529008 
L 217.442628 37.429803 
L 218.097295 37.198326 
L 218.113025 37.165258 
L 219.05833 36.900712 
L 219.138501 36.768439 
L 220.10054 36.470826 
L 220.304062 36.371621 
L 220.66672 36.20628 
L 221.000908 36.040939 
L 221.520241 35.809462 
L 222.221154 35.644121 
L 223.709856 35.214234 
L 224.153253 35.015825 
L 224.319348 34.784348 
L 224.43994 34.718211 
L 224.696313 34.55287 
L 225.26908 34.420598 
L 225.564412 34.354461 
L 226.858451 34.122984 
L 228.175147 33.891506 
L 228.184515 33.858438 
L 231.776457 32.965597 
L 231.80346 32.932529 
L 233.044562 32.634915 
L 233.756649 32.337301 
L 235.467492 32.17196 
L 238.032828 31.675937 
L 238.141878 31.609801 
L 238.22616 31.510596 
L 238.532783 31.411392 
L 239.415122 31.246051 
L 242.620837 30.452414 
L 244.420883 30.187869 
L 244.78833 29.923323 
L 246.027657 29.691846 
L 246.48621 29.493436 
L 251.841398 28.369118 
L 251.868124 28.302981 
L 258.012108 27.476277 
L 258.014923 27.443208 
L 258.868703 27.344004 
L 262.672891 26.947185 
L 264.09575 26.649572 
L 264.102405 26.616503 
L 264.557247 26.484231 
L 264.578366 26.418094 
L 266.276833 26.252753 
L 267.824791 26.054344 
L 267.870039 26.021276 
L 270.516778 25.789799 
L 270.567178 25.75673 
L 272.086018 25.591389 
L 272.21003 25.558321 
L 274.434569 25.426048 
L 274.66127 25.326844 
L 276.608335 25.161503 
L 276.671304 25.128435 
L 277.887014 24.963094 
L 277.930373 24.896957 
L 278.610268 24.764684 
L 282.416727 24.599344 
L 282.696302 24.533207 
L 287.197057 24.202525 
L 287.2908 24.136389 
L 289.905336 23.93798 
L 290.228268 23.871843 
L 290.451786 23.838775 
L 294.060329 23.673434 
L 297.9929 23.177411 
L 301.60996 22.945934 
L 303.456909 22.813661 
L 316.908093 22.152297 
L 322.645658 21.986956 
L 324.089156 21.854683 
L 331.372776 21.524001 
L 331.49111 21.490933 
L 334.867458 21.391729 
L 349.51783 21.193319 
L 350.474828 21.127183 
L 358.195834 20.928774 
L 361.201174 20.763433 
L 373.507384 20.531955 
L 379.676562 20.333546 
L 415.496555 19.969796 
L 486.145938 19.606046 
L 511.071433 19.572978 
L 511.071433 19.572978 
" style="fill:none;stroke:#4c72b0;stroke-linecap:round;stroke-width:1.75;"/>
   </g>
   <g id="line2d_28">
    <defs>
     <path d="M 0 1.75 
C 0.464105 1.75 0.909265 1.565609 1.237437 1.237437 
C 1.565609 0.909265 1.75 0.464105 1.75 0 
C 1.75 -0.464105 1.565609 -0.909265 1.237437 -1.237437 
C 0.909265 -1.565609 0.464105 -1.75 0 -1.75 
C -0.464105 -1.75 -0.909265 -1.565609 -1.237437 -1.237437 
C -1.565609 -0.909265 -1.75 -0.464105 -1.75 0 
C -1.75 0.464105 -1.565609 0.909265 -1.237437 1.237437 
C -0.909265 1.565609 -0.464105 1.75 0 1.75 
z
" id="mfebea620f9"/>
    </defs>
    <g clip-path="url(#pcf32866a87)">
     <use style="fill:#55a868;" x="57.30677" xlink:href="#mfebea620f9" y="348.937476"/>
     <use style="fill:#55a868;" x="57.452304" xlink:href="#mfebea620f9" y="347.620018"/>
     <use style="fill:#55a868;" x="57.888905" xlink:href="#mfebea620f9" y="346.30256"/>
     <use style="fill:#55a868;" x="58.107205" xlink:href="#mfebea620f9" y="344.985102"/>
     <use style="fill:#55a868;" x="58.179972" xlink:href="#mfebea620f9" y="343.667644"/>
     <use style="fill:#55a868;" x="58.179972" xlink:href="#mfebea620f9" y="342.350186"/>
     <use style="fill:#55a868;" x="58.762107" xlink:href="#mfebea620f9" y="341.032728"/>
     <use style="fill:#55a868;" x="58.980408" xlink:href="#mfebea620f9" y="339.71527"/>
     <use style="fill:#55a868;" x="59.198708" xlink:href="#mfebea620f9" y="338.397812"/>
     <use style="fill:#55a868;" x="59.198708" xlink:href="#mfebea620f9" y="337.080354"/>
     <use style="fill:#55a868;" x="59.417009" xlink:href="#mfebea620f9" y="335.762896"/>
     <use style="fill:#55a868;" x="59.562543" xlink:href="#mfebea620f9" y="334.445438"/>
     <use style="fill:#55a868;" x="59.562543" xlink:href="#mfebea620f9" y="333.12798"/>
     <use style="fill:#55a868;" x="59.999144" xlink:href="#mfebea620f9" y="331.810522"/>
     <use style="fill:#55a868;" x="60.144678" xlink:href="#mfebea620f9" y="330.493064"/>
     <use style="fill:#55a868;" x="60.290211" xlink:href="#mfebea620f9" y="329.175606"/>
     <use style="fill:#55a868;" x="60.362978" xlink:href="#mfebea620f9" y="327.858148"/>
     <use style="fill:#55a868;" x="60.508512" xlink:href="#mfebea620f9" y="326.54069"/>
     <use style="fill:#55a868;" x="60.581279" xlink:href="#mfebea620f9" y="325.223232"/>
     <use style="fill:#55a868;" x="61.090647" xlink:href="#mfebea620f9" y="323.905774"/>
     <use style="fill:#55a868;" x="61.236181" xlink:href="#mfebea620f9" y="322.588316"/>
     <use style="fill:#55a868;" x="61.308948" xlink:href="#mfebea620f9" y="321.270858"/>
     <use style="fill:#55a868;" x="61.600015" xlink:href="#mfebea620f9" y="319.9534"/>
     <use style="fill:#55a868;" x="61.818316" xlink:href="#mfebea620f9" y="318.635942"/>
     <use style="fill:#55a868;" x="61.818316" xlink:href="#mfebea620f9" y="317.318484"/>
     <use style="fill:#55a868;" x="61.963849" xlink:href="#mfebea620f9" y="316.001026"/>
     <use style="fill:#55a868;" x="62.473218" xlink:href="#mfebea620f9" y="314.683568"/>
     <use style="fill:#55a868;" x="62.618751" xlink:href="#mfebea620f9" y="313.36611"/>
     <use style="fill:#55a868;" x="62.909819" xlink:href="#mfebea620f9" y="312.048652"/>
     <use style="fill:#55a868;" x="63.055352" xlink:href="#mfebea620f9" y="310.731194"/>
     <use style="fill:#55a868;" x="63.273653" xlink:href="#mfebea620f9" y="309.413736"/>
     <use style="fill:#55a868;" x="63.637487" xlink:href="#mfebea620f9" y="308.096278"/>
     <use style="fill:#55a868;" x="63.928555" xlink:href="#mfebea620f9" y="306.77882"/>
     <use style="fill:#55a868;" x="64.074089" xlink:href="#mfebea620f9" y="305.461362"/>
     <use style="fill:#55a868;" x="64.292389" xlink:href="#mfebea620f9" y="304.143904"/>
     <use style="fill:#55a868;" x="64.583457" xlink:href="#mfebea620f9" y="302.826446"/>
     <use style="fill:#55a868;" x="64.656224" xlink:href="#mfebea620f9" y="301.508988"/>
     <use style="fill:#55a868;" x="64.874524" xlink:href="#mfebea620f9" y="300.19153"/>
     <use style="fill:#55a868;" x="65.092825" xlink:href="#mfebea620f9" y="298.874072"/>
     <use style="fill:#55a868;" x="65.311125" xlink:href="#mfebea620f9" y="297.556614"/>
     <use style="fill:#55a868;" x="65.311125" xlink:href="#mfebea620f9" y="296.239156"/>
     <use style="fill:#55a868;" x="65.966027" xlink:href="#mfebea620f9" y="294.921698"/>
     <use style="fill:#55a868;" x="66.257095" xlink:href="#mfebea620f9" y="293.60424"/>
     <use style="fill:#55a868;" x="66.329862" xlink:href="#mfebea620f9" y="292.286782"/>
     <use style="fill:#55a868;" x="66.548162" xlink:href="#mfebea620f9" y="290.969324"/>
     <use style="fill:#55a868;" x="66.693696" xlink:href="#mfebea620f9" y="289.651866"/>
     <use style="fill:#55a868;" x="67.203064" xlink:href="#mfebea620f9" y="288.334408"/>
     <use style="fill:#55a868;" x="67.348598" xlink:href="#mfebea620f9" y="287.01695"/>
     <use style="fill:#55a868;" x="67.421365" xlink:href="#mfebea620f9" y="285.699492"/>
     <use style="fill:#55a868;" x="68.149033" xlink:href="#mfebea620f9" y="284.382034"/>
     <use style="fill:#55a868;" x="68.294567" xlink:href="#mfebea620f9" y="283.064577"/>
     <use style="fill:#55a868;" x="68.658401" xlink:href="#mfebea620f9" y="281.747119"/>
     <use style="fill:#55a868;" x="68.658401" xlink:href="#mfebea620f9" y="280.429661"/>
     <use style="fill:#55a868;" x="68.731168" xlink:href="#mfebea620f9" y="279.112203"/>
     <use style="fill:#55a868;" x="69.022236" xlink:href="#mfebea620f9" y="277.794745"/>
     <use style="fill:#55a868;" x="69.095003" xlink:href="#mfebea620f9" y="276.477287"/>
     <use style="fill:#55a868;" x="69.38607" xlink:href="#mfebea620f9" y="275.159829"/>
     <use style="fill:#55a868;" x="69.749904" xlink:href="#mfebea620f9" y="273.842371"/>
     <use style="fill:#55a868;" x="70.113739" xlink:href="#mfebea620f9" y="272.524913"/>
     <use style="fill:#55a868;" x="70.332039" xlink:href="#mfebea620f9" y="271.207455"/>
     <use style="fill:#55a868;" x="70.332039" xlink:href="#mfebea620f9" y="269.889997"/>
     <use style="fill:#55a868;" x="70.404806" xlink:href="#mfebea620f9" y="268.572539"/>
     <use style="fill:#55a868;" x="70.986941" xlink:href="#mfebea620f9" y="267.255081"/>
     <use style="fill:#55a868;" x="71.278009" xlink:href="#mfebea620f9" y="265.937623"/>
     <use style="fill:#55a868;" x="71.278009" xlink:href="#mfebea620f9" y="264.620165"/>
     <use style="fill:#55a868;" x="71.278009" xlink:href="#mfebea620f9" y="263.302707"/>
     <use style="fill:#55a868;" x="71.641843" xlink:href="#mfebea620f9" y="261.985249"/>
     <use style="fill:#55a868;" x="72.078444" xlink:href="#mfebea620f9" y="260.667791"/>
     <use style="fill:#55a868;" x="72.296745" xlink:href="#mfebea620f9" y="259.350333"/>
     <use style="fill:#55a868;" x="72.660579" xlink:href="#mfebea620f9" y="258.032875"/>
     <use style="fill:#55a868;" x="72.951647" xlink:href="#mfebea620f9" y="256.715417"/>
     <use style="fill:#55a868;" x="72.951647" xlink:href="#mfebea620f9" y="255.397959"/>
     <use style="fill:#55a868;" x="73.024414" xlink:href="#mfebea620f9" y="254.080501"/>
     <use style="fill:#55a868;" x="73.242714" xlink:href="#mfebea620f9" y="252.763043"/>
     <use style="fill:#55a868;" x="73.242714" xlink:href="#mfebea620f9" y="251.445585"/>
     <use style="fill:#55a868;" x="73.606548" xlink:href="#mfebea620f9" y="250.128127"/>
     <use style="fill:#55a868;" x="73.679315" xlink:href="#mfebea620f9" y="248.810669"/>
     <use style="fill:#55a868;" x="73.752082" xlink:href="#mfebea620f9" y="247.493211"/>
     <use style="fill:#55a868;" x="74.188683" xlink:href="#mfebea620f9" y="246.175753"/>
     <use style="fill:#55a868;" x="74.26145" xlink:href="#mfebea620f9" y="244.858295"/>
     <use style="fill:#55a868;" x="74.625285" xlink:href="#mfebea620f9" y="243.540837"/>
     <use style="fill:#55a868;" x="74.698051" xlink:href="#mfebea620f9" y="242.223379"/>
     <use style="fill:#55a868;" x="74.770818" xlink:href="#mfebea620f9" y="240.905921"/>
     <use style="fill:#55a868;" x="74.916352" xlink:href="#mfebea620f9" y="239.588463"/>
     <use style="fill:#55a868;" x="75.571254" xlink:href="#mfebea620f9" y="238.271005"/>
     <use style="fill:#55a868;" x="75.644021" xlink:href="#mfebea620f9" y="236.953547"/>
     <use style="fill:#55a868;" x="75.862321" xlink:href="#mfebea620f9" y="235.636089"/>
     <use style="fill:#55a868;" x="76.735524" xlink:href="#mfebea620f9" y="234.318631"/>
     <use style="fill:#55a868;" x="76.881058" xlink:href="#mfebea620f9" y="233.001173"/>
     <use style="fill:#55a868;" x="77.463193" xlink:href="#mfebea620f9" y="231.683715"/>
     <use style="fill:#55a868;" x="77.535959" xlink:href="#mfebea620f9" y="230.366257"/>
     <use style="fill:#55a868;" x="77.681493" xlink:href="#mfebea620f9" y="229.048799"/>
     <use style="fill:#55a868;" x="78.263628" xlink:href="#mfebea620f9" y="227.731341"/>
     <use style="fill:#55a868;" x="78.845763" xlink:href="#mfebea620f9" y="226.413883"/>
     <use style="fill:#55a868;" x="79.064064" xlink:href="#mfebea620f9" y="225.096425"/>
     <use style="fill:#55a868;" x="79.718965" xlink:href="#mfebea620f9" y="223.778967"/>
     <use style="fill:#55a868;" x="80.810468" xlink:href="#mfebea620f9" y="222.461509"/>
     <use style="fill:#55a868;" x="80.883235" xlink:href="#mfebea620f9" y="221.144051"/>
     <use style="fill:#55a868;" x="81.028769" xlink:href="#mfebea620f9" y="219.826593"/>
     <use style="fill:#55a868;" x="81.101536" xlink:href="#mfebea620f9" y="218.509135"/>
     <use style="fill:#55a868;" x="82.847941" xlink:href="#mfebea620f9" y="217.191677"/>
     <use style="fill:#55a868;" x="83.066241" xlink:href="#mfebea620f9" y="215.874219"/>
     <use style="fill:#55a868;" x="84.812646" xlink:href="#mfebea620f9" y="214.556761"/>
     <use style="fill:#55a868;" x="84.95818" xlink:href="#mfebea620f9" y="213.239303"/>
     <use style="fill:#55a868;" x="85.030947" xlink:href="#mfebea620f9" y="211.921845"/>
     <use style="fill:#55a868;" x="85.322014" xlink:href="#mfebea620f9" y="210.604387"/>
     <use style="fill:#55a868;" x="85.394781" xlink:href="#mfebea620f9" y="209.286929"/>
     <use style="fill:#55a868;" x="85.540315" xlink:href="#mfebea620f9" y="207.969471"/>
     <use style="fill:#55a868;" x="85.758616" xlink:href="#mfebea620f9" y="206.652013"/>
     <use style="fill:#55a868;" x="85.831382" xlink:href="#mfebea620f9" y="205.334555"/>
     <use style="fill:#55a868;" x="86.195217" xlink:href="#mfebea620f9" y="204.017097"/>
     <use style="fill:#55a868;" x="87.796088" xlink:href="#mfebea620f9" y="202.699639"/>
     <use style="fill:#55a868;" x="87.868855" xlink:href="#mfebea620f9" y="201.382181"/>
     <use style="fill:#55a868;" x="88.523757" xlink:href="#mfebea620f9" y="200.064723"/>
     <use style="fill:#55a868;" x="89.688026" xlink:href="#mfebea620f9" y="198.747265"/>
     <use style="fill:#55a868;" x="90.051861" xlink:href="#mfebea620f9" y="197.429807"/>
     <use style="fill:#55a868;" x="90.706763" xlink:href="#mfebea620f9" y="196.112349"/>
     <use style="fill:#55a868;" x="90.925063" xlink:href="#mfebea620f9" y="194.794891"/>
     <use style="fill:#55a868;" x="90.99783" xlink:href="#mfebea620f9" y="193.477433"/>
     <use style="fill:#55a868;" x="91.288898" xlink:href="#mfebea620f9" y="192.159975"/>
     <use style="fill:#55a868;" x="92.1621" xlink:href="#mfebea620f9" y="190.842517"/>
     <use style="fill:#55a868;" x="92.234867" xlink:href="#mfebea620f9" y="189.525059"/>
     <use style="fill:#55a868;" x="93.544671" xlink:href="#mfebea620f9" y="188.207601"/>
     <use style="fill:#55a868;" x="94.345106" xlink:href="#mfebea620f9" y="186.890143"/>
     <use style="fill:#55a868;" x="94.49064" xlink:href="#mfebea620f9" y="185.572685"/>
     <use style="fill:#55a868;" x="95.436609" xlink:href="#mfebea620f9" y="184.255227"/>
     <use style="fill:#55a868;" x="95.727677" xlink:href="#mfebea620f9" y="182.937769"/>
     <use style="fill:#55a868;" x="96.528112" xlink:href="#mfebea620f9" y="181.620311"/>
     <use style="fill:#55a868;" x="96.746413" xlink:href="#mfebea620f9" y="180.302853"/>
     <use style="fill:#55a868;" x="96.964713" xlink:href="#mfebea620f9" y="178.985395"/>
     <use style="fill:#55a868;" x="97.183014" xlink:href="#mfebea620f9" y="177.667937"/>
     <use style="fill:#55a868;" x="97.837916" xlink:href="#mfebea620f9" y="176.350479"/>
     <use style="fill:#55a868;" x="98.274517" xlink:href="#mfebea620f9" y="175.033021"/>
     <use style="fill:#55a868;" x="99.220486" xlink:href="#mfebea620f9" y="173.715563"/>
     <use style="fill:#55a868;" x="99.293253" xlink:href="#mfebea620f9" y="172.398105"/>
     <use style="fill:#55a868;" x="99.36602" xlink:href="#mfebea620f9" y="171.080647"/>
     <use style="fill:#55a868;" x="99.511554" xlink:href="#mfebea620f9" y="169.763189"/>
     <use style="fill:#55a868;" x="99.729854" xlink:href="#mfebea620f9" y="168.445731"/>
     <use style="fill:#55a868;" x="100.603057" xlink:href="#mfebea620f9" y="167.128273"/>
     <use style="fill:#55a868;" x="100.966891" xlink:href="#mfebea620f9" y="165.810815"/>
     <use style="fill:#55a868;" x="101.185192" xlink:href="#mfebea620f9" y="164.493357"/>
     <use style="fill:#55a868;" x="101.185192" xlink:href="#mfebea620f9" y="163.175899"/>
     <use style="fill:#55a868;" x="101.185192" xlink:href="#mfebea620f9" y="161.858441"/>
     <use style="fill:#55a868;" x="101.330725" xlink:href="#mfebea620f9" y="160.540983"/>
     <use style="fill:#55a868;" x="102.713296" xlink:href="#mfebea620f9" y="159.223525"/>
     <use style="fill:#55a868;" x="104.2414" xlink:href="#mfebea620f9" y="157.906067"/>
     <use style="fill:#55a868;" x="104.605235" xlink:href="#mfebea620f9" y="156.588609"/>
     <use style="fill:#55a868;" x="105.332903" xlink:href="#mfebea620f9" y="155.271151"/>
     <use style="fill:#55a868;" x="106.424406" xlink:href="#mfebea620f9" y="153.953693"/>
     <use style="fill:#55a868;" x="106.424406" xlink:href="#mfebea620f9" y="152.636235"/>
     <use style="fill:#55a868;" x="107.079308" xlink:href="#mfebea620f9" y="151.318777"/>
     <use style="fill:#55a868;" x="108.025277" xlink:href="#mfebea620f9" y="150.001319"/>
     <use style="fill:#55a868;" x="108.389112" xlink:href="#mfebea620f9" y="148.683861"/>
     <use style="fill:#55a868;" x="108.389112" xlink:href="#mfebea620f9" y="147.366403"/>
     <use style="fill:#55a868;" x="109.335081" xlink:href="#mfebea620f9" y="146.048945"/>
     <use style="fill:#55a868;" x="109.335081" xlink:href="#mfebea620f9" y="144.731487"/>
     <use style="fill:#55a868;" x="109.480615" xlink:href="#mfebea620f9" y="143.414029"/>
     <use style="fill:#55a868;" x="110.499351" xlink:href="#mfebea620f9" y="142.096571"/>
     <use style="fill:#55a868;" x="111.518087" xlink:href="#mfebea620f9" y="140.779113"/>
     <use style="fill:#55a868;" x="111.518087" xlink:href="#mfebea620f9" y="139.461655"/>
     <use style="fill:#55a868;" x="111.881921" xlink:href="#mfebea620f9" y="138.144197"/>
     <use style="fill:#55a868;" x="112.973425" xlink:href="#mfebea620f9" y="136.826739"/>
     <use style="fill:#55a868;" x="113.628326" xlink:href="#mfebea620f9" y="135.509281"/>
     <use style="fill:#55a868;" x="113.919394" xlink:href="#mfebea620f9" y="134.191823"/>
     <use style="fill:#55a868;" x="114.283228" xlink:href="#mfebea620f9" y="132.874365"/>
     <use style="fill:#55a868;" x="114.93813" xlink:href="#mfebea620f9" y="131.556907"/>
     <use style="fill:#55a868;" x="116.3207" xlink:href="#mfebea620f9" y="130.239449"/>
     <use style="fill:#55a868;" x="116.466234" xlink:href="#mfebea620f9" y="128.921991"/>
     <use style="fill:#55a868;" x="116.539001" xlink:href="#mfebea620f9" y="127.604533"/>
     <use style="fill:#55a868;" x="116.539001" xlink:href="#mfebea620f9" y="126.287075"/>
     <use style="fill:#55a868;" x="118.64924" xlink:href="#mfebea620f9" y="124.969617"/>
     <use style="fill:#55a868;" x="121.050547" xlink:href="#mfebea620f9" y="123.652159"/>
     <use style="fill:#55a868;" x="121.778216" xlink:href="#mfebea620f9" y="122.334701"/>
     <use style="fill:#55a868;" x="121.850983" xlink:href="#mfebea620f9" y="121.017243"/>
     <use style="fill:#55a868;" x="122.724185" xlink:href="#mfebea620f9" y="119.699785"/>
     <use style="fill:#55a868;" x="123.160786" xlink:href="#mfebea620f9" y="118.382327"/>
     <use style="fill:#55a868;" x="125.925927" xlink:href="#mfebea620f9" y="117.064869"/>
     <use style="fill:#55a868;" x="126.435295" xlink:href="#mfebea620f9" y="115.747411"/>
     <use style="fill:#55a868;" x="127.599565" xlink:href="#mfebea620f9" y="114.429953"/>
     <use style="fill:#55a868;" x="128.836602" xlink:href="#mfebea620f9" y="113.112495"/>
     <use style="fill:#55a868;" x="129.054903" xlink:href="#mfebea620f9" y="111.795037"/>
     <use style="fill:#55a868;" x="129.782571" xlink:href="#mfebea620f9" y="110.477579"/>
     <use style="fill:#55a868;" x="130.146406" xlink:href="#mfebea620f9" y="109.160121"/>
     <use style="fill:#55a868;" x="131.747277" xlink:href="#mfebea620f9" y="107.842663"/>
     <use style="fill:#55a868;" x="131.89281" xlink:href="#mfebea620f9" y="106.525205"/>
     <use style="fill:#55a868;" x="132.038344" xlink:href="#mfebea620f9" y="105.207747"/>
     <use style="fill:#55a868;" x="133.275381" xlink:href="#mfebea620f9" y="103.890289"/>
     <use style="fill:#55a868;" x="134.148583" xlink:href="#mfebea620f9" y="102.572831"/>
     <use style="fill:#55a868;" x="135.16732" xlink:href="#mfebea620f9" y="101.255373"/>
     <use style="fill:#55a868;" x="135.531154" xlink:href="#mfebea620f9" y="99.937915"/>
     <use style="fill:#55a868;" x="136.186056" xlink:href="#mfebea620f9" y="98.620457"/>
     <use style="fill:#55a868;" x="136.331589" xlink:href="#mfebea620f9" y="97.302999"/>
     <use style="fill:#55a868;" x="137.423092" xlink:href="#mfebea620f9" y="95.985541"/>
     <use style="fill:#55a868;" x="137.568626" xlink:href="#mfebea620f9" y="94.668083"/>
     <use style="fill:#55a868;" x="137.641393" xlink:href="#mfebea620f9" y="93.350625"/>
     <use style="fill:#55a868;" x="138.369062" xlink:href="#mfebea620f9" y="92.033167"/>
     <use style="fill:#55a868;" x="139.09673" xlink:href="#mfebea620f9" y="90.715709"/>
     <use style="fill:#55a868;" x="139.387798" xlink:href="#mfebea620f9" y="89.398251"/>
     <use style="fill:#55a868;" x="139.824399" xlink:href="#mfebea620f9" y="88.080793"/>
     <use style="fill:#55a868;" x="142.58954" xlink:href="#mfebea620f9" y="86.763335"/>
     <use style="fill:#55a868;" x="144.190411" xlink:href="#mfebea620f9" y="85.445877"/>
     <use style="fill:#55a868;" x="144.772546" xlink:href="#mfebea620f9" y="84.128419"/>
     <use style="fill:#55a868;" x="147.755988" xlink:href="#mfebea620f9" y="82.810961"/>
     <use style="fill:#55a868;" x="152.558601" xlink:href="#mfebea620f9" y="81.493503"/>
     <use style="fill:#55a868;" x="153.50457" xlink:href="#mfebea620f9" y="80.176045"/>
     <use style="fill:#55a868;" x="153.722871" xlink:href="#mfebea620f9" y="78.858587"/>
     <use style="fill:#55a868;" x="155.469276" xlink:href="#mfebea620f9" y="77.541129"/>
     <use style="fill:#55a868;" x="155.61481" xlink:href="#mfebea620f9" y="76.223671"/>
     <use style="fill:#55a868;" x="158.962086" xlink:href="#mfebea620f9" y="74.906213"/>
     <use style="fill:#55a868;" x="159.398687" xlink:href="#mfebea620f9" y="73.588756"/>
     <use style="fill:#55a868;" x="164.128533" xlink:href="#mfebea620f9" y="72.271298"/>
     <use style="fill:#55a868;" x="165.802171" xlink:href="#mfebea620f9" y="70.95384"/>
     <use style="fill:#55a868;" x="166.238773" xlink:href="#mfebea620f9" y="69.636382"/>
     <use style="fill:#55a868;" x="167.91241" xlink:href="#mfebea620f9" y="68.318924"/>
     <use style="fill:#55a868;" x="167.985177" xlink:href="#mfebea620f9" y="67.001466"/>
     <use style="fill:#55a868;" x="168.276245" xlink:href="#mfebea620f9" y="65.684008"/>
     <use style="fill:#55a868;" x="168.567312" xlink:href="#mfebea620f9" y="64.36655"/>
     <use style="fill:#55a868;" x="168.712846" xlink:href="#mfebea620f9" y="63.049092"/>
     <use style="fill:#55a868;" x="170.02265" xlink:href="#mfebea620f9" y="61.731634"/>
     <use style="fill:#55a868;" x="170.459251" xlink:href="#mfebea620f9" y="60.414176"/>
     <use style="fill:#55a868;" x="171.40522" xlink:href="#mfebea620f9" y="59.096718"/>
     <use style="fill:#55a868;" x="171.914588" xlink:href="#mfebea620f9" y="57.77926"/>
     <use style="fill:#55a868;" x="172.423956" xlink:href="#mfebea620f9" y="56.461802"/>
     <use style="fill:#55a868;" x="174.679729" xlink:href="#mfebea620f9" y="55.144344"/>
     <use style="fill:#55a868;" x="178.463606" xlink:href="#mfebea620f9" y="53.826886"/>
     <use style="fill:#55a868;" x="180.064478" xlink:href="#mfebea620f9" y="52.509428"/>
     <use style="fill:#55a868;" x="180.501079" xlink:href="#mfebea620f9" y="51.19197"/>
     <use style="fill:#55a868;" x="185.740293" xlink:href="#mfebea620f9" y="49.874512"/>
     <use style="fill:#55a868;" x="191.779943" xlink:href="#mfebea620f9" y="48.557054"/>
     <use style="fill:#55a868;" x="193.96295" xlink:href="#mfebea620f9" y="47.239596"/>
     <use style="fill:#55a868;" x="206.842685" xlink:href="#mfebea620f9" y="45.922138"/>
     <use style="fill:#55a868;" x="208.079722" xlink:href="#mfebea620f9" y="44.60468"/>
     <use style="fill:#55a868;" x="209.243992" xlink:href="#mfebea620f9" y="43.287222"/>
     <use style="fill:#55a868;" x="209.389526" xlink:href="#mfebea620f9" y="41.969764"/>
     <use style="fill:#55a868;" x="213.537237" xlink:href="#mfebea620f9" y="40.652306"/>
     <use style="fill:#55a868;" x="216.011311" xlink:href="#mfebea620f9" y="39.334848"/>
     <use style="fill:#55a868;" x="217.321114" xlink:href="#mfebea620f9" y="38.01739"/>
     <use style="fill:#55a868;" x="222.269262" xlink:href="#mfebea620f9" y="36.699932"/>
     <use style="fill:#55a868;" x="228.381678" xlink:href="#mfebea620f9" y="35.382474"/>
     <use style="fill:#55a868;" x="234.275795" xlink:href="#mfebea620f9" y="34.065016"/>
     <use style="fill:#55a868;" x="238.56904" xlink:href="#mfebea620f9" y="32.747558"/>
     <use style="fill:#55a868;" x="257.561193" xlink:href="#mfebea620f9" y="31.4301"/>
     <use style="fill:#55a868;" x="262.436573" xlink:href="#mfebea620f9" y="30.112642"/>
     <use style="fill:#55a868;" x="268.330689" xlink:href="#mfebea620f9" y="28.795184"/>
     <use style="fill:#55a868;" x="269.422193" xlink:href="#mfebea620f9" y="27.477726"/>
     <use style="fill:#55a868;" x="274.37034" xlink:href="#mfebea620f9" y="26.160268"/>
     <use style="fill:#55a868;" x="294.526762" xlink:href="#mfebea620f9" y="24.84281"/>
     <use style="fill:#55a868;" x="343.353331" xlink:href="#mfebea620f9" y="23.525352"/>
     <use style="fill:#55a868;" x="349.902349" xlink:href="#mfebea620f9" y="22.207894"/>
     <use style="fill:#55a868;" x="351.503221" xlink:href="#mfebea620f9" y="20.890436"/>
     <use style="fill:#55a868;" x="526.653074" xlink:href="#mfebea620f9" y="19.572978"/>
    </g>
   </g>
   <g id="patch_3">
    <path d="M 47.919844 356.834844 
L 47.919844 12.96 
" style="fill:none;"/>
   </g>
   <g id="patch_4">
    <path d="M 536.04 356.834844 
L 536.04 12.96 
" style="fill:none;"/>
   </g>
   <g id="patch_5">
    <path d="M 47.919844 356.834844 
L 536.04 356.834844 
" style="fill:none;"/>
   </g>
   <g id="patch_6">
    <path d="M 47.919844 12.96 
L 536.04 12.96 
" style="fill:none;"/>
   </g>
  </g>
 </g>
 <defs>
  <clipPath id="pcf32866a87">
   <rect height="343.874844" width="488.120156" x="47.919844" y="12.96"/>
  </clipPath>
 </defs>
</svg>
