<?xml version="1.0" encoding="utf-8" standalone="no"?>
<!DOCTYPE svg PUBLIC "-//W3C//DTD SVG 1.1//EN"
  "http://www.w3.org/Graphics/SVG/1.1/DTD/svg11.dtd">
<!-- Created with matplotlib (https://matplotlib.org/) -->
<svg height="400pt" version="1.1" viewBox="0 0 550 400" width="550pt" xmlns="http://www.w3.org/2000/svg" xmlns:xlink="http://www.w3.org/1999/xlink">
 <defs>
  <style type="text/css">
*{stroke-linecap:butt;stroke-linejoin:round;}
  </style>
 </defs>
 <g id="figure_1">
  <g id="patch_1">
   <path d="M 0 400 
L 550 400 
L 550 0 
L 0 0 
z
" style="fill:#ffffff;"/>
  </g>
  <g id="axes_1">
   <g id="patch_2">
    <path d="M 47.919844 356.571875 
L 535.146884 356.571875 
L 535.146884 12.96 
L 47.919844 12.96 
z
" style="fill:#eaeaf2;"/>
   </g>
   <g id="matplotlib.axis_1">
    <g id="xtick_1">
     <g id="line2d_1">
      <path clip-path="url(#paf989a68f4)" d="M 109.393284 356.571875 
L 109.393284 12.96 
" style="fill:none;stroke:#ffffff;stroke-linecap:round;"/>
     </g>
     <g id="line2d_2"/>
     <g id="text_1">
      <!-- 144 -->
      <defs>
       <path d="M 37.25 0 
L 28.46875 0 
L 28.46875 56 
Q 25.296875 52.984375 20.140625 49.953125 
Q 14.984375 46.921875 10.890625 45.40625 
L 10.890625 53.90625 
Q 18.265625 57.375 23.78125 62.296875 
Q 29.296875 67.234375 31.59375 71.875 
L 37.25 71.875 
z
" id="ArialMT-49"/>
       <path d="M 32.328125 0 
L 32.328125 17.140625 
L 1.265625 17.140625 
L 1.265625 25.203125 
L 33.9375 71.578125 
L 41.109375 71.578125 
L 41.109375 25.203125 
L 50.78125 25.203125 
L 50.78125 17.140625 
L 41.109375 17.140625 
L 41.109375 0 
z
M 32.328125 25.203125 
L 32.328125 57.46875 
L 9.90625 25.203125 
z
" id="ArialMT-52"/>
      </defs>
      <g style="fill:#262626;" transform="translate(101.051878 370.729687)scale(0.1 -0.1)">
       <use xlink:href="#ArialMT-49"/>
       <use x="55.615234" xlink:href="#ArialMT-52"/>
       <use x="111.230469" xlink:href="#ArialMT-52"/>
      </g>
     </g>
    </g>
    <g id="xtick_2">
     <g id="line2d_3">
      <path clip-path="url(#paf989a68f4)" d="M 179.123759 356.571875 
L 179.123759 12.96 
" style="fill:none;stroke:#ffffff;stroke-linecap:round;"/>
     </g>
     <g id="line2d_4"/>
     <g id="text_2">
      <!-- 146 -->
      <defs>
       <path d="M 49.75 54.046875 
L 41.015625 53.375 
Q 39.84375 58.546875 37.703125 60.890625 
Q 34.125 64.65625 28.90625 64.65625 
Q 24.703125 64.65625 21.53125 62.3125 
Q 17.390625 59.28125 14.984375 53.46875 
Q 12.59375 47.65625 12.5 36.921875 
Q 15.671875 41.75 20.265625 44.09375 
Q 24.859375 46.4375 29.890625 46.4375 
Q 38.671875 46.4375 44.84375 39.96875 
Q 51.03125 33.5 51.03125 23.25 
Q 51.03125 16.5 48.125 10.71875 
Q 45.21875 4.9375 40.140625 1.859375 
Q 35.0625 -1.21875 28.609375 -1.21875 
Q 17.625 -1.21875 10.6875 6.859375 
Q 3.765625 14.9375 3.765625 33.5 
Q 3.765625 54.25 11.421875 63.671875 
Q 18.109375 71.875 29.4375 71.875 
Q 37.890625 71.875 43.28125 67.140625 
Q 48.6875 62.40625 49.75 54.046875 
z
M 13.875 23.1875 
Q 13.875 18.65625 15.796875 14.5 
Q 17.71875 10.359375 21.1875 8.171875 
Q 24.65625 6 28.46875 6 
Q 34.03125 6 38.03125 10.484375 
Q 42.046875 14.984375 42.046875 22.703125 
Q 42.046875 30.125 38.078125 34.390625 
Q 34.125 38.671875 28.125 38.671875 
Q 22.171875 38.671875 18.015625 34.390625 
Q 13.875 30.125 13.875 23.1875 
z
" id="ArialMT-54"/>
      </defs>
      <g style="fill:#262626;" transform="translate(170.782353 370.729687)scale(0.1 -0.1)">
       <use xlink:href="#ArialMT-49"/>
       <use x="55.615234" xlink:href="#ArialMT-52"/>
       <use x="111.230469" xlink:href="#ArialMT-54"/>
      </g>
     </g>
    </g>
    <g id="xtick_3">
     <g id="line2d_5">
      <path clip-path="url(#paf989a68f4)" d="M 248.854235 356.571875 
L 248.854235 12.96 
" style="fill:none;stroke:#ffffff;stroke-linecap:round;"/>
     </g>
     <g id="line2d_6"/>
     <g id="text_3">
      <!-- 148 -->
      <defs>
       <path d="M 17.671875 38.8125 
Q 12.203125 40.828125 9.5625 44.53125 
Q 6.9375 48.25 6.9375 53.421875 
Q 6.9375 61.234375 12.546875 66.546875 
Q 18.171875 71.875 27.484375 71.875 
Q 36.859375 71.875 42.578125 66.421875 
Q 48.296875 60.984375 48.296875 53.171875 
Q 48.296875 48.1875 45.671875 44.5 
Q 43.0625 40.828125 37.75 38.8125 
Q 44.34375 36.671875 47.78125 31.875 
Q 51.21875 27.09375 51.21875 20.453125 
Q 51.21875 11.28125 44.71875 5.03125 
Q 38.234375 -1.21875 27.640625 -1.21875 
Q 17.046875 -1.21875 10.546875 5.046875 
Q 4.046875 11.328125 4.046875 20.703125 
Q 4.046875 27.6875 7.59375 32.390625 
Q 11.140625 37.109375 17.671875 38.8125 
z
M 15.921875 53.71875 
Q 15.921875 48.640625 19.1875 45.40625 
Q 22.46875 42.1875 27.6875 42.1875 
Q 32.765625 42.1875 36.015625 45.375 
Q 39.265625 48.578125 39.265625 53.21875 
Q 39.265625 58.0625 35.90625 61.359375 
Q 32.5625 64.65625 27.59375 64.65625 
Q 22.5625 64.65625 19.234375 61.421875 
Q 15.921875 58.203125 15.921875 53.71875 
z
M 13.09375 20.65625 
Q 13.09375 16.890625 14.875 13.375 
Q 16.65625 9.859375 20.171875 7.921875 
Q 23.6875 6 27.734375 6 
Q 34.03125 6 38.125 10.046875 
Q 42.234375 14.109375 42.234375 20.359375 
Q 42.234375 26.703125 38.015625 30.859375 
Q 33.796875 35.015625 27.4375 35.015625 
Q 21.234375 35.015625 17.15625 30.90625 
Q 13.09375 26.8125 13.09375 20.65625 
z
" id="ArialMT-56"/>
      </defs>
      <g style="fill:#262626;" transform="translate(240.512828 370.729687)scale(0.1 -0.1)">
       <use xlink:href="#ArialMT-49"/>
       <use x="55.615234" xlink:href="#ArialMT-52"/>
       <use x="111.230469" xlink:href="#ArialMT-56"/>
      </g>
     </g>
    </g>
    <g id="xtick_4">
     <g id="line2d_7">
      <path clip-path="url(#paf989a68f4)" d="M 318.58471 356.571875 
L 318.58471 12.96 
" style="fill:none;stroke:#ffffff;stroke-linecap:round;"/>
     </g>
     <g id="line2d_8"/>
     <g id="text_4">
      <!-- 150 -->
      <defs>
       <path d="M 4.15625 18.75 
L 13.375 19.53125 
Q 14.40625 12.796875 18.140625 9.390625 
Q 21.875 6 27.15625 6 
Q 33.5 6 37.890625 10.78125 
Q 42.28125 15.578125 42.28125 23.484375 
Q 42.28125 31 38.0625 35.34375 
Q 33.84375 39.703125 27 39.703125 
Q 22.75 39.703125 19.328125 37.765625 
Q 15.921875 35.84375 13.96875 32.765625 
L 5.71875 33.84375 
L 12.640625 70.609375 
L 48.25 70.609375 
L 48.25 62.203125 
L 19.671875 62.203125 
L 15.828125 42.96875 
Q 22.265625 47.46875 29.34375 47.46875 
Q 38.71875 47.46875 45.15625 40.96875 
Q 51.609375 34.46875 51.609375 24.265625 
Q 51.609375 14.546875 45.953125 7.46875 
Q 39.0625 -1.21875 27.15625 -1.21875 
Q 17.390625 -1.21875 11.203125 4.25 
Q 5.03125 9.71875 4.15625 18.75 
z
" id="ArialMT-53"/>
       <path d="M 4.15625 35.296875 
Q 4.15625 48 6.765625 55.734375 
Q 9.375 63.484375 14.515625 67.671875 
Q 19.671875 71.875 27.484375 71.875 
Q 33.25 71.875 37.59375 69.546875 
Q 41.9375 67.234375 44.765625 62.859375 
Q 47.609375 58.5 49.21875 52.21875 
Q 50.828125 45.953125 50.828125 35.296875 
Q 50.828125 22.703125 48.234375 14.96875 
Q 45.65625 7.234375 40.5 3 
Q 35.359375 -1.21875 27.484375 -1.21875 
Q 17.140625 -1.21875 11.234375 6.203125 
Q 4.15625 15.140625 4.15625 35.296875 
z
M 13.1875 35.296875 
Q 13.1875 17.671875 17.3125 11.828125 
Q 21.4375 6 27.484375 6 
Q 33.546875 6 37.671875 11.859375 
Q 41.796875 17.71875 41.796875 35.296875 
Q 41.796875 52.984375 37.671875 58.78125 
Q 33.546875 64.59375 27.390625 64.59375 
Q 21.34375 64.59375 17.71875 59.46875 
Q 13.1875 52.9375 13.1875 35.296875 
z
" id="ArialMT-48"/>
      </defs>
      <g style="fill:#262626;" transform="translate(310.243304 370.729687)scale(0.1 -0.1)">
       <use xlink:href="#ArialMT-49"/>
       <use x="55.615234" xlink:href="#ArialMT-53"/>
       <use x="111.230469" xlink:href="#ArialMT-48"/>
      </g>
     </g>
    </g>
    <g id="xtick_5">
     <g id="line2d_9">
      <path clip-path="url(#paf989a68f4)" d="M 388.315185 356.571875 
L 388.315185 12.96 
" style="fill:none;stroke:#ffffff;stroke-linecap:round;"/>
     </g>
     <g id="line2d_10"/>
     <g id="text_5">
      <!-- 152 -->
      <defs>
       <path d="M 50.34375 8.453125 
L 50.34375 0 
L 3.03125 0 
Q 2.9375 3.171875 4.046875 6.109375 
Q 5.859375 10.9375 9.828125 15.625 
Q 13.8125 20.3125 21.34375 26.46875 
Q 33.015625 36.03125 37.109375 41.625 
Q 41.21875 47.21875 41.21875 52.203125 
Q 41.21875 57.421875 37.46875 61 
Q 33.734375 64.59375 27.734375 64.59375 
Q 21.390625 64.59375 17.578125 60.78125 
Q 13.765625 56.984375 13.71875 50.25 
L 4.6875 51.171875 
Q 5.609375 61.28125 11.65625 66.578125 
Q 17.71875 71.875 27.9375 71.875 
Q 38.234375 71.875 44.234375 66.15625 
Q 50.25 60.453125 50.25 52 
Q 50.25 47.703125 48.484375 43.546875 
Q 46.734375 39.40625 42.65625 34.8125 
Q 38.578125 30.21875 29.109375 22.21875 
Q 21.1875 15.578125 18.9375 13.203125 
Q 16.703125 10.84375 15.234375 8.453125 
z
" id="ArialMT-50"/>
      </defs>
      <g style="fill:#262626;" transform="translate(379.973779 370.729687)scale(0.1 -0.1)">
       <use xlink:href="#ArialMT-49"/>
       <use x="55.615234" xlink:href="#ArialMT-53"/>
       <use x="111.230469" xlink:href="#ArialMT-50"/>
      </g>
     </g>
    </g>
    <g id="xtick_6">
     <g id="line2d_11">
      <path clip-path="url(#paf989a68f4)" d="M 458.045661 356.571875 
L 458.045661 12.96 
" style="fill:none;stroke:#ffffff;stroke-linecap:round;"/>
     </g>
     <g id="line2d_12"/>
     <g id="text_6">
      <!-- 154 -->
      <g style="fill:#262626;" transform="translate(449.704254 370.729687)scale(0.1 -0.1)">
       <use xlink:href="#ArialMT-49"/>
       <use x="55.615234" xlink:href="#ArialMT-53"/>
       <use x="111.230469" xlink:href="#ArialMT-52"/>
      </g>
     </g>
    </g>
    <g id="xtick_7">
     <g id="line2d_13">
      <path clip-path="url(#paf989a68f4)" d="M 527.776136 356.571875 
L 527.776136 12.96 
" style="fill:none;stroke:#ffffff;stroke-linecap:round;"/>
     </g>
     <g id="line2d_14"/>
     <g id="text_7">
      <!-- 156 -->
      <g style="fill:#262626;" transform="translate(519.43473 370.729687)scale(0.1 -0.1)">
       <use xlink:href="#ArialMT-49"/>
       <use x="55.615234" xlink:href="#ArialMT-53"/>
       <use x="111.230469" xlink:href="#ArialMT-54"/>
      </g>
     </g>
    </g>
    <g id="text_8">
     <!-- Belmont winning time (sec.) -->
     <defs>
      <path d="M 7.328125 0 
L 7.328125 71.578125 
L 34.1875 71.578125 
Q 42.390625 71.578125 47.34375 69.40625 
Q 52.296875 67.234375 55.09375 62.71875 
Q 57.90625 58.203125 57.90625 53.265625 
Q 57.90625 48.6875 55.421875 44.625 
Q 52.9375 40.578125 47.90625 38.09375 
Q 54.390625 36.1875 57.875 31.59375 
Q 61.375 27 61.375 20.75 
Q 61.375 15.71875 59.25 11.390625 
Q 57.125 7.078125 54 4.734375 
Q 50.875 2.390625 46.15625 1.1875 
Q 41.453125 0 34.625 0 
z
M 16.796875 41.5 
L 32.28125 41.5 
Q 38.578125 41.5 41.3125 42.328125 
Q 44.921875 43.40625 46.75 45.890625 
Q 48.578125 48.390625 48.578125 52.15625 
Q 48.578125 55.71875 46.875 58.421875 
Q 45.171875 61.140625 41.984375 62.140625 
Q 38.8125 63.140625 31.109375 63.140625 
L 16.796875 63.140625 
z
M 16.796875 8.453125 
L 34.625 8.453125 
Q 39.203125 8.453125 41.0625 8.796875 
Q 44.34375 9.375 46.53125 10.734375 
Q 48.734375 12.109375 50.140625 14.71875 
Q 51.5625 17.328125 51.5625 20.75 
Q 51.5625 24.75 49.515625 27.703125 
Q 47.46875 30.671875 43.828125 31.859375 
Q 40.1875 33.0625 33.34375 33.0625 
L 16.796875 33.0625 
z
" id="ArialMT-66"/>
      <path d="M 42.09375 16.703125 
L 51.171875 15.578125 
Q 49.03125 7.625 43.21875 3.21875 
Q 37.40625 -1.171875 28.375 -1.171875 
Q 17 -1.171875 10.328125 5.828125 
Q 3.65625 12.84375 3.65625 25.484375 
Q 3.65625 38.578125 10.390625 45.796875 
Q 17.140625 53.03125 27.875 53.03125 
Q 38.28125 53.03125 44.875 45.953125 
Q 51.46875 38.875 51.46875 26.03125 
Q 51.46875 25.25 51.421875 23.6875 
L 12.75 23.6875 
Q 13.234375 15.140625 17.578125 10.59375 
Q 21.921875 6.0625 28.421875 6.0625 
Q 33.25 6.0625 36.671875 8.59375 
Q 40.09375 11.140625 42.09375 16.703125 
z
M 13.234375 30.90625 
L 42.1875 30.90625 
Q 41.609375 37.453125 38.875 40.71875 
Q 34.671875 45.796875 27.984375 45.796875 
Q 21.921875 45.796875 17.796875 41.75 
Q 13.671875 37.703125 13.234375 30.90625 
z
" id="ArialMT-101"/>
      <path d="M 6.390625 0 
L 6.390625 71.578125 
L 15.1875 71.578125 
L 15.1875 0 
z
" id="ArialMT-108"/>
      <path d="M 6.59375 0 
L 6.59375 51.859375 
L 14.453125 51.859375 
L 14.453125 44.578125 
Q 16.890625 48.390625 20.9375 50.703125 
Q 25 53.03125 30.171875 53.03125 
Q 35.9375 53.03125 39.625 50.640625 
Q 43.3125 48.25 44.828125 43.953125 
Q 50.984375 53.03125 60.84375 53.03125 
Q 68.5625 53.03125 72.703125 48.75 
Q 76.859375 44.484375 76.859375 35.59375 
L 76.859375 0 
L 68.109375 0 
L 68.109375 32.671875 
Q 68.109375 37.9375 67.25 40.25 
Q 66.40625 42.578125 64.15625 43.984375 
Q 61.921875 45.40625 58.890625 45.40625 
Q 53.421875 45.40625 49.796875 41.765625 
Q 46.1875 38.140625 46.1875 30.125 
L 46.1875 0 
L 37.40625 0 
L 37.40625 33.6875 
Q 37.40625 39.546875 35.25 42.46875 
Q 33.109375 45.40625 28.21875 45.40625 
Q 24.515625 45.40625 21.359375 43.453125 
Q 18.21875 41.5 16.796875 37.734375 
Q 15.375 33.984375 15.375 26.90625 
L 15.375 0 
z
" id="ArialMT-109"/>
      <path d="M 3.328125 25.921875 
Q 3.328125 40.328125 11.328125 47.265625 
Q 18.015625 53.03125 27.640625 53.03125 
Q 38.328125 53.03125 45.109375 46.015625 
Q 51.90625 39.015625 51.90625 26.65625 
Q 51.90625 16.65625 48.90625 10.90625 
Q 45.90625 5.171875 40.15625 2 
Q 34.421875 -1.171875 27.640625 -1.171875 
Q 16.75 -1.171875 10.03125 5.8125 
Q 3.328125 12.796875 3.328125 25.921875 
z
M 12.359375 25.921875 
Q 12.359375 15.96875 16.703125 11.015625 
Q 21.046875 6.0625 27.640625 6.0625 
Q 34.1875 6.0625 38.53125 11.03125 
Q 42.875 16.015625 42.875 26.21875 
Q 42.875 35.84375 38.5 40.796875 
Q 34.125 45.75 27.640625 45.75 
Q 21.046875 45.75 16.703125 40.8125 
Q 12.359375 35.890625 12.359375 25.921875 
z
" id="ArialMT-111"/>
      <path d="M 6.59375 0 
L 6.59375 51.859375 
L 14.5 51.859375 
L 14.5 44.484375 
Q 20.21875 53.03125 31 53.03125 
Q 35.6875 53.03125 39.625 51.34375 
Q 43.5625 49.65625 45.515625 46.921875 
Q 47.46875 44.1875 48.25 40.4375 
Q 48.734375 37.984375 48.734375 31.890625 
L 48.734375 0 
L 39.9375 0 
L 39.9375 31.546875 
Q 39.9375 36.921875 38.90625 39.578125 
Q 37.890625 42.234375 35.28125 43.8125 
Q 32.671875 45.40625 29.15625 45.40625 
Q 23.53125 45.40625 19.453125 41.84375 
Q 15.375 38.28125 15.375 28.328125 
L 15.375 0 
z
" id="ArialMT-110"/>
      <path d="M 25.78125 7.859375 
L 27.046875 0.09375 
Q 23.34375 -0.6875 20.40625 -0.6875 
Q 15.625 -0.6875 12.984375 0.828125 
Q 10.359375 2.34375 9.28125 4.8125 
Q 8.203125 7.28125 8.203125 15.1875 
L 8.203125 45.015625 
L 1.765625 45.015625 
L 1.765625 51.859375 
L 8.203125 51.859375 
L 8.203125 64.703125 
L 16.9375 69.96875 
L 16.9375 51.859375 
L 25.78125 51.859375 
L 25.78125 45.015625 
L 16.9375 45.015625 
L 16.9375 14.703125 
Q 16.9375 10.9375 17.40625 9.859375 
Q 17.875 8.796875 18.921875 8.15625 
Q 19.96875 7.515625 21.921875 7.515625 
Q 23.390625 7.515625 25.78125 7.859375 
z
" id="ArialMT-116"/>
      <path id="ArialMT-32"/>
      <path d="M 16.15625 0 
L 0.296875 51.859375 
L 9.375 51.859375 
L 17.625 21.921875 
L 20.703125 10.796875 
Q 20.90625 11.625 23.390625 21.484375 
L 31.640625 51.859375 
L 40.671875 51.859375 
L 48.4375 21.78125 
L 51.03125 11.859375 
L 54 21.875 
L 62.890625 51.859375 
L 71.4375 51.859375 
L 55.21875 0 
L 46.09375 0 
L 37.84375 31.0625 
L 35.84375 39.890625 
L 25.34375 0 
z
" id="ArialMT-119"/>
      <path d="M 6.640625 61.46875 
L 6.640625 71.578125 
L 15.4375 71.578125 
L 15.4375 61.46875 
z
M 6.640625 0 
L 6.640625 51.859375 
L 15.4375 51.859375 
L 15.4375 0 
z
" id="ArialMT-105"/>
      <path d="M 4.984375 -4.296875 
L 13.53125 -5.5625 
Q 14.0625 -9.515625 16.5 -11.328125 
Q 19.78125 -13.765625 25.4375 -13.765625 
Q 31.546875 -13.765625 34.859375 -11.328125 
Q 38.1875 -8.890625 39.359375 -4.5 
Q 40.046875 -1.8125 39.984375 6.78125 
Q 34.234375 0 25.640625 0 
Q 14.9375 0 9.078125 7.71875 
Q 3.21875 15.4375 3.21875 26.21875 
Q 3.21875 33.640625 5.90625 39.90625 
Q 8.59375 46.1875 13.6875 49.609375 
Q 18.796875 53.03125 25.6875 53.03125 
Q 34.859375 53.03125 40.828125 45.609375 
L 40.828125 51.859375 
L 48.921875 51.859375 
L 48.921875 7.03125 
Q 48.921875 -5.078125 46.453125 -10.125 
Q 44 -15.1875 38.640625 -18.109375 
Q 33.296875 -21.046875 25.484375 -21.046875 
Q 16.21875 -21.046875 10.5 -16.875 
Q 4.78125 -12.703125 4.984375 -4.296875 
z
M 12.25 26.859375 
Q 12.25 16.65625 16.296875 11.96875 
Q 20.359375 7.28125 26.46875 7.28125 
Q 32.515625 7.28125 36.609375 11.9375 
Q 40.71875 16.609375 40.71875 26.5625 
Q 40.71875 36.078125 36.5 40.90625 
Q 32.28125 45.75 26.3125 45.75 
Q 20.453125 45.75 16.34375 40.984375 
Q 12.25 36.234375 12.25 26.859375 
z
" id="ArialMT-103"/>
      <path d="M 23.390625 -21.046875 
Q 16.109375 -11.859375 11.078125 0.4375 
Q 6.0625 12.75 6.0625 25.921875 
Q 6.0625 37.546875 9.8125 48.1875 
Q 14.203125 60.546875 23.390625 72.796875 
L 29.6875 72.796875 
Q 23.78125 62.640625 21.875 58.296875 
Q 18.890625 51.5625 17.1875 44.234375 
Q 15.09375 35.109375 15.09375 25.875 
Q 15.09375 2.390625 29.6875 -21.046875 
z
" id="ArialMT-40"/>
      <path d="M 3.078125 15.484375 
L 11.765625 16.84375 
Q 12.5 11.625 15.84375 8.84375 
Q 19.1875 6.0625 25.203125 6.0625 
Q 31.25 6.0625 34.171875 8.515625 
Q 37.109375 10.984375 37.109375 14.3125 
Q 37.109375 17.28125 34.515625 19 
Q 32.71875 20.171875 25.53125 21.96875 
Q 15.875 24.421875 12.140625 26.203125 
Q 8.40625 27.984375 6.46875 31.125 
Q 4.546875 34.28125 4.546875 38.09375 
Q 4.546875 41.546875 6.125 44.5 
Q 7.71875 47.46875 10.453125 49.421875 
Q 12.5 50.921875 16.03125 51.96875 
Q 19.578125 53.03125 23.640625 53.03125 
Q 29.734375 53.03125 34.34375 51.265625 
Q 38.96875 49.515625 41.15625 46.5 
Q 43.359375 43.5 44.1875 38.484375 
L 35.59375 37.3125 
Q 35.015625 41.3125 32.203125 43.546875 
Q 29.390625 45.796875 24.265625 45.796875 
Q 18.21875 45.796875 15.625 43.796875 
Q 13.03125 41.796875 13.03125 39.109375 
Q 13.03125 37.40625 14.109375 36.03125 
Q 15.1875 34.625 17.484375 33.6875 
Q 18.796875 33.203125 25.25 31.453125 
Q 34.578125 28.953125 38.25 27.359375 
Q 41.9375 25.78125 44.03125 22.75 
Q 46.140625 19.734375 46.140625 15.234375 
Q 46.140625 10.84375 43.578125 6.953125 
Q 41.015625 3.078125 36.171875 0.953125 
Q 31.34375 -1.171875 25.25 -1.171875 
Q 15.140625 -1.171875 9.84375 3.03125 
Q 4.546875 7.234375 3.078125 15.484375 
z
" id="ArialMT-115"/>
      <path d="M 40.4375 19 
L 49.078125 17.875 
Q 47.65625 8.9375 41.8125 3.875 
Q 35.984375 -1.171875 27.484375 -1.171875 
Q 16.84375 -1.171875 10.375 5.78125 
Q 3.90625 12.75 3.90625 25.734375 
Q 3.90625 34.125 6.6875 40.421875 
Q 9.46875 46.734375 15.15625 49.875 
Q 20.84375 53.03125 27.546875 53.03125 
Q 35.984375 53.03125 41.359375 48.75 
Q 46.734375 44.484375 48.25 36.625 
L 39.703125 35.296875 
Q 38.484375 40.53125 35.375 43.15625 
Q 32.28125 45.796875 27.875 45.796875 
Q 21.234375 45.796875 17.078125 41.03125 
Q 12.9375 36.28125 12.9375 25.984375 
Q 12.9375 15.53125 16.9375 10.796875 
Q 20.953125 6.0625 27.390625 6.0625 
Q 32.5625 6.0625 36.03125 9.234375 
Q 39.5 12.40625 40.4375 19 
z
" id="ArialMT-99"/>
      <path d="M 9.078125 0 
L 9.078125 10.015625 
L 19.09375 10.015625 
L 19.09375 0 
z
" id="ArialMT-46"/>
      <path d="M 12.359375 -21.046875 
L 6.0625 -21.046875 
Q 20.65625 2.390625 20.65625 25.875 
Q 20.65625 35.0625 18.5625 44.09375 
Q 16.890625 51.421875 13.921875 58.15625 
Q 12.015625 62.546875 6.0625 72.796875 
L 12.359375 72.796875 
Q 21.53125 60.546875 25.921875 48.1875 
Q 29.6875 37.546875 29.6875 25.921875 
Q 29.6875 12.75 24.625 0.4375 
Q 19.578125 -11.859375 12.359375 -21.046875 
z
" id="ArialMT-41"/>
     </defs>
     <g style="fill:#262626;" transform="translate(223.98477 384.724844)scale(0.11 -0.11)">
      <use xlink:href="#ArialMT-66"/>
      <use x="66.699219" xlink:href="#ArialMT-101"/>
      <use x="122.314453" xlink:href="#ArialMT-108"/>
      <use x="144.53125" xlink:href="#ArialMT-109"/>
      <use x="227.832031" xlink:href="#ArialMT-111"/>
      <use x="283.447266" xlink:href="#ArialMT-110"/>
      <use x="339.0625" xlink:href="#ArialMT-116"/>
      <use x="366.845703" xlink:href="#ArialMT-32"/>
      <use x="394.628906" xlink:href="#ArialMT-119"/>
      <use x="466.845703" xlink:href="#ArialMT-105"/>
      <use x="489.0625" xlink:href="#ArialMT-110"/>
      <use x="544.677734" xlink:href="#ArialMT-110"/>
      <use x="600.292969" xlink:href="#ArialMT-105"/>
      <use x="622.509766" xlink:href="#ArialMT-110"/>
      <use x="678.125" xlink:href="#ArialMT-103"/>
      <use x="733.740234" xlink:href="#ArialMT-32"/>
      <use x="761.523438" xlink:href="#ArialMT-116"/>
      <use x="789.306641" xlink:href="#ArialMT-105"/>
      <use x="811.523438" xlink:href="#ArialMT-109"/>
      <use x="894.824219" xlink:href="#ArialMT-101"/>
      <use x="950.439453" xlink:href="#ArialMT-32"/>
      <use x="978.222656" xlink:href="#ArialMT-40"/>
      <use x="1011.523438" xlink:href="#ArialMT-115"/>
      <use x="1061.523438" xlink:href="#ArialMT-101"/>
      <use x="1117.138672" xlink:href="#ArialMT-99"/>
      <use x="1167.138672" xlink:href="#ArialMT-46"/>
      <use x="1194.921875" xlink:href="#ArialMT-41"/>
     </g>
    </g>
   </g>
   <g id="matplotlib.axis_2">
    <g id="ytick_1">
     <g id="line2d_15">
      <path clip-path="url(#paf989a68f4)" d="M 47.919844 340.984394 
L 535.146884 340.984394 
" style="fill:none;stroke:#ffffff;stroke-linecap:round;"/>
     </g>
     <g id="line2d_16"/>
     <g id="text_9">
      <!-- 0.0 -->
      <g style="fill:#262626;" transform="translate(27.019844 344.5633)scale(0.1 -0.1)">
       <use xlink:href="#ArialMT-48"/>
       <use x="55.615234" xlink:href="#ArialMT-46"/>
       <use x="83.398438" xlink:href="#ArialMT-48"/>
      </g>
     </g>
    </g>
    <g id="ytick_2">
     <g id="line2d_17">
      <path clip-path="url(#paf989a68f4)" d="M 47.919844 278.503259 
L 535.146884 278.503259 
" style="fill:none;stroke:#ffffff;stroke-linecap:round;"/>
     </g>
     <g id="line2d_18"/>
     <g id="text_10">
      <!-- 0.2 -->
      <g style="fill:#262626;" transform="translate(27.019844 282.082166)scale(0.1 -0.1)">
       <use xlink:href="#ArialMT-48"/>
       <use x="55.615234" xlink:href="#ArialMT-46"/>
       <use x="83.398438" xlink:href="#ArialMT-50"/>
      </g>
     </g>
    </g>
    <g id="ytick_3">
     <g id="line2d_19">
      <path clip-path="url(#paf989a68f4)" d="M 47.919844 216.022125 
L 535.146884 216.022125 
" style="fill:none;stroke:#ffffff;stroke-linecap:round;"/>
     </g>
     <g id="line2d_20"/>
     <g id="text_11">
      <!-- 0.4 -->
      <g style="fill:#262626;" transform="translate(27.019844 219.601031)scale(0.1 -0.1)">
       <use xlink:href="#ArialMT-48"/>
       <use x="55.615234" xlink:href="#ArialMT-46"/>
       <use x="83.398438" xlink:href="#ArialMT-52"/>
      </g>
     </g>
    </g>
    <g id="ytick_4">
     <g id="line2d_21">
      <path clip-path="url(#paf989a68f4)" d="M 47.919844 153.540991 
L 535.146884 153.540991 
" style="fill:none;stroke:#ffffff;stroke-linecap:round;"/>
     </g>
     <g id="line2d_22"/>
     <g id="text_12">
      <!-- 0.6 -->
      <g style="fill:#262626;" transform="translate(27.019844 157.119897)scale(0.1 -0.1)">
       <use xlink:href="#ArialMT-48"/>
       <use x="55.615234" xlink:href="#ArialMT-46"/>
       <use x="83.398438" xlink:href="#ArialMT-54"/>
      </g>
     </g>
    </g>
    <g id="ytick_5">
     <g id="line2d_23">
      <path clip-path="url(#paf989a68f4)" d="M 47.919844 91.059856 
L 535.146884 91.059856 
" style="fill:none;stroke:#ffffff;stroke-linecap:round;"/>
     </g>
     <g id="line2d_24"/>
     <g id="text_13">
      <!-- 0.8 -->
      <g style="fill:#262626;" transform="translate(27.019844 94.638762)scale(0.1 -0.1)">
       <use xlink:href="#ArialMT-48"/>
       <use x="55.615234" xlink:href="#ArialMT-46"/>
       <use x="83.398438" xlink:href="#ArialMT-56"/>
      </g>
     </g>
    </g>
    <g id="ytick_6">
     <g id="line2d_25">
      <path clip-path="url(#paf989a68f4)" d="M 47.919844 28.578722 
L 535.146884 28.578722 
" style="fill:none;stroke:#ffffff;stroke-linecap:round;"/>
     </g>
     <g id="line2d_26"/>
     <g id="text_14">
      <!-- 1.0 -->
      <g style="fill:#262626;" transform="translate(27.019844 32.157628)scale(0.1 -0.1)">
       <use xlink:href="#ArialMT-49"/>
       <use x="55.615234" xlink:href="#ArialMT-46"/>
       <use x="83.398438" xlink:href="#ArialMT-48"/>
      </g>
     </g>
    </g>
    <g id="text_15">
     <!-- CDF -->
     <defs>
      <path d="M 58.796875 25.09375 
L 68.265625 22.703125 
Q 65.28125 11.03125 57.546875 4.90625 
Q 49.8125 -1.21875 38.625 -1.21875 
Q 27.046875 -1.21875 19.796875 3.484375 
Q 12.546875 8.203125 8.765625 17.140625 
Q 4.984375 26.078125 4.984375 36.328125 
Q 4.984375 47.515625 9.25 55.828125 
Q 13.53125 64.15625 21.40625 68.46875 
Q 29.296875 72.796875 38.765625 72.796875 
Q 49.515625 72.796875 56.828125 67.328125 
Q 64.15625 61.859375 67.046875 51.953125 
L 57.71875 49.75 
Q 55.21875 57.5625 50.484375 61.125 
Q 45.75 64.703125 38.578125 64.703125 
Q 30.328125 64.703125 24.78125 60.734375 
Q 19.234375 56.78125 16.984375 50.109375 
Q 14.75 43.453125 14.75 36.375 
Q 14.75 27.25 17.40625 20.4375 
Q 20.0625 13.625 25.671875 10.25 
Q 31.296875 6.890625 37.84375 6.890625 
Q 45.796875 6.890625 51.3125 11.46875 
Q 56.84375 16.0625 58.796875 25.09375 
z
" id="ArialMT-67"/>
      <path d="M 7.71875 0 
L 7.71875 71.578125 
L 32.375 71.578125 
Q 40.71875 71.578125 45.125 70.5625 
Q 51.265625 69.140625 55.609375 65.4375 
Q 61.28125 60.640625 64.078125 53.1875 
Q 66.890625 45.75 66.890625 36.1875 
Q 66.890625 28.03125 64.984375 21.734375 
Q 63.09375 15.4375 60.109375 11.296875 
Q 57.125 7.171875 53.578125 4.796875 
Q 50.046875 2.4375 45.046875 1.21875 
Q 40.046875 0 33.546875 0 
z
M 17.1875 8.453125 
L 32.46875 8.453125 
Q 39.546875 8.453125 43.578125 9.765625 
Q 47.609375 11.078125 50 13.484375 
Q 53.375 16.84375 55.25 22.53125 
Q 57.125 28.21875 57.125 36.328125 
Q 57.125 47.5625 53.4375 53.59375 
Q 49.75 59.625 44.484375 61.671875 
Q 40.671875 63.140625 32.234375 63.140625 
L 17.1875 63.140625 
z
" id="ArialMT-68"/>
      <path d="M 8.203125 0 
L 8.203125 71.578125 
L 56.5 71.578125 
L 56.5 63.140625 
L 17.671875 63.140625 
L 17.671875 40.96875 
L 51.265625 40.96875 
L 51.265625 32.515625 
L 17.671875 32.515625 
L 17.671875 0 
z
" id="ArialMT-70"/>
     </defs>
     <g style="fill:#262626;" transform="translate(20.833594 196.069297)rotate(-90)scale(0.11 -0.11)">
      <use xlink:href="#ArialMT-67"/>
      <use x="72.216797" xlink:href="#ArialMT-68"/>
      <use x="144.433594" xlink:href="#ArialMT-70"/>
     </g>
    </g>
   </g>
   <g id="line2d_27">
    <path clip-path="url(#paf989a68f4)" d="M 70.066527 340.953153 
L 88.199775 340.859432 
L 112.149506 340.734469 
L 112.503806 340.703229 
L 126.960608 340.359583 
L 133.300705 339.953455 
L 138.804191 339.734771 
L 138.869617 339.67229 
L 140.48732 339.609809 
L 143.294939 339.453606 
L 145.201 339.297403 
L 148.546038 339.141201 
L 149.162433 338.984998 
L 150.71868 338.828795 
L 150.744658 338.797554 
L 151.93915 338.641351 
L 154.614383 338.485149 
L 154.634752 338.453908 
L 156.529537 338.297705 
L 159.196927 337.860337 
L 161.517395 337.704134 
L 161.54276 337.672894 
L 163.541647 337.547932 
L 164.696646 337.391729 
L 166.3201 337.048083 
L 166.640846 336.954361 
L 167.721942 336.641955 
L 167.838025 336.579474 
L 168.873614 336.423271 
L 169.453056 336.329549 
L 169.926562 336.173347 
L 169.988534 336.079625 
L 171.187705 335.923422 
L 172.949037 335.392332 
L 173.714504 335.23613 
L 174.472829 334.892483 
L 174.528022 334.830002 
L 175.737745 334.517597 
L 175.879062 334.423875 
L 177.715211 333.955266 
L 177.979583 333.892785 
L 179.724358 333.455417 
L 179.785001 333.392936 
L 180.30996 333.174252 
L 180.557544 332.986809 
L 181.853744 332.48696 
L 182.637914 332.299516 
L 183.748004 331.830908 
L 183.84764 331.768427 
L 184.218208 331.674705 
L 184.789864 331.518502 
L 185.312014 331.331059 
L 185.332557 331.268578 
L 185.698427 331.112375 
L 185.847943 331.018653 
L 186.088089 330.83121 
L 186.850977 330.675007 
L 188.395052 329.987714 
L 188.959906 329.831511 
L 189.320029 329.706549 
L 190.088922 329.394144 
L 190.232081 329.237941 
L 190.233777 329.2067 
L 190.936427 329.050497 
L 191.641555 328.394445 
L 191.645749 328.363205 
L 192.171562 328.144521 
L 192.422957 327.988318 
L 192.83996 327.769634 
L 193.103735 327.519709 
L 194.032114 327.207304 
L 194.489175 327.01986 
L 195.268003 326.644974 
L 195.451095 326.45753 
L 195.922685 326.301327 
L 196.42115 326.020162 
L 196.566059 325.957681 
L 197.113512 325.801478 
L 197.21309 325.738997 
L 197.689642 325.489073 
L 198.034133 325.33287 
L 199.588617 324.895502 
L 199.712235 324.77054 
L 200.275984 324.489374 
L 200.477142 324.364412 
L 201.078924 323.989525 
L 201.525335 323.645879 
L 202.025219 323.458436 
L 202.224546 323.239752 
L 202.936505 322.802384 
L 203.068575 322.708662 
L 204.357906 321.646483 
L 204.795909 321.49028 
L 205.054313 321.209115 
L 205.09452 321.115393 
L 205.441656 320.92795 
L 205.999422 320.334379 
L 206.601438 319.959492 
L 206.611385 319.897011 
L 206.82892 319.740808 
L 207.219105 319.334681 
L 207.642207 319.147237 
L 207.812865 318.959794 
L 208.233225 318.522426 
L 208.783871 318.241261 
L 209.309855 318.022577 
L 209.674602 317.866374 
L 210.156582 317.460247 
L 210.545928 317.179082 
L 210.785617 316.991638 
L 211.020182 316.835436 
L 211.162314 316.55427 
L 211.380372 316.398068 
L 211.555237 316.241865 
L 211.939324 315.99194 
L 212.023063 315.835737 
L 212.144991 315.554572 
L 213.207596 314.679836 
L 213.511734 314.461152 
L 214.62709 313.367733 
L 215.143486 312.961605 
L 215.996555 311.930666 
L 216.349546 311.524539 
L 216.469614 311.430817 
L 216.84379 311.087171 
L 216.927234 310.899728 
L 216.989802 310.806006 
L 217.370695 310.587322 
L 217.408801 310.46236 
L 217.808045 310.274916 
L 218.239066 310.024992 
L 218.652837 309.587624 
L 218.759768 309.493902 
L 219.020104 309.212737 
L 219.243668 309.056534 
L 221.189993 307.338303 
L 221.228327 307.275822 
L 221.496738 307.088379 
L 221.618432 306.932176 
L 222.615417 305.901237 
L 223.073243 305.651312 
L 223.265828 305.307666 
L 224.031643 304.620374 
L 224.100269 304.495411 
L 224.311385 304.276727 
L 224.474822 304.058044 
L 224.720562 303.901841 
L 224.893167 303.558194 
L 225.04837 303.33951 
L 225.860434 302.589737 
L 226.130607 302.433534 
L 226.217779 302.277331 
L 226.328355 302.089888 
L 226.469376 301.808723 
L 226.920212 301.496317 
L 227.032878 301.371355 
L 227.427261 301.183911 
L 227.619412 300.965227 
L 228.148293 300.090491 
L 228.301809 299.778086 
L 229.166109 298.840869 
L 229.274569 298.715907 
L 229.425027 298.528463 
L 229.657879 298.122336 
L 229.791807 297.997373 
L 230.001177 297.684968 
L 230.603133 297.060156 
L 230.721324 296.841472 
L 231.366396 295.966737 
L 231.672263 295.654331 
L 232.421186 294.685873 
L 232.961126 294.123543 
L 233.187241 293.9361 
L 233.444113 293.654935 
L 233.704332 293.092604 
L 233.925702 292.905161 
L 234.049115 292.748958 
L 234.15783 292.530274 
L 234.392513 292.28035 
L 234.584573 292.030425 
L 234.97192 291.405614 
L 235.081735 291.249411 
L 235.16378 290.999486 
L 235.309187 290.812043 
L 235.409474 290.593359 
L 235.557345 290.374675 
L 236.230877 289.031331 
L 236.352198 288.843887 
L 236.590155 288.43776 
L 236.698115 288.281557 
L 236.895489 288.094114 
L 237.056326 287.750467 
L 237.871438 286.938213 
L 237.931265 286.81325 
L 238.375787 286.532085 
L 238.499429 286.188439 
L 238.756605 285.938515 
L 238.884499 285.813552 
L 239.038897 285.657349 
L 239.172982 285.376184 
L 239.26648 285.095019 
L 239.467361 284.782614 
L 239.60627 284.626411 
L 239.760627 284.345246 
L 240.042253 284.157802 
L 240.283305 283.720434 
L 240.789012 282.876939 
L 240.896692 282.627014 
L 241.262761 282.095925 
L 241.425798 281.908481 
L 241.720197 281.533595 
L 241.876605 281.28367 
L 242.159991 280.940024 
L 242.423447 280.75258 
L 242.542969 280.565137 
L 242.67231 280.408934 
L 243.425579 279.159311 
L 243.506305 279.034349 
L 243.653432 278.784425 
L 243.802641 278.440778 
L 244.104749 278.00341 
L 244.38141 277.347359 
L 244.843481 276.722547 
L 245.046403 276.285179 
L 245.237499 276.066495 
L 245.577591 275.347962 
L 245.69892 275.191759 
L 246.098108 274.379505 
L 246.244195 274.067099 
L 246.679729 273.379806 
L 249.058582 269.412254 
L 249.206681 269.16233 
L 249.773226 268.537519 
L 251.953997 264.913613 
L 252.219319 264.663688 
L 252.377621 264.382523 
L 252.548196 264.19508 
L 252.768198 263.913915 
L 252.971754 263.632749 
L 253.915853 262.226924 
L 254.077517 262.039481 
L 254.486831 261.383429 
L 254.594597 261.102264 
L 254.799198 260.477452 
L 255.223412 259.883881 
L 255.91535 258.478056 
L 256.022984 258.16565 
L 256.38788 257.540839 
L 256.568228 257.353395 
L 256.657433 257.103471 
L 256.772167 256.947268 
L 256.900221 256.634862 
L 257.01231 256.353697 
L 257.574447 254.979112 
L 257.661508 254.791669 
L 257.739645 254.572985 
L 258.537409 253.167159 
L 258.75225 252.854754 
L 258.890026 252.542348 
L 259.054173 252.198702 
L 259.221295 252.042499 
L 260.757196 248.887202 
L 260.867343 248.762239 
L 261.064552 248.356112 
L 261.574255 247.293933 
L 261.662163 247.13773 
L 261.754379 246.950287 
L 261.925488 246.637881 
L 262.232185 246.200513 
L 262.423375 245.794386 
L 262.54398 245.575702 
L 262.687899 245.294537 
L 262.858573 245.013371 
L 263.492023 243.670027 
L 263.679857 243.420102 
L 263.819815 243.170178 
L 264.172324 242.20172 
L 264.304122 241.983036 
L 264.621798 241.295744 
L 264.695154 241.170782 
L 264.837415 241.014579 
L 264.985755 240.702173 
L 265.124562 240.483489 
L 266.489574 237.421914 
L 266.737357 237.23447 
L 266.810883 237.047027 
L 267.519523 235.54748 
L 267.679615 235.422517 
L 267.781104 235.266314 
L 267.923602 235.078871 
L 268.749995 233.454362 
L 268.871828 233.204437 
L 269.064072 232.892031 
L 269.227217 232.579626 
L 269.722896 231.205041 
L 269.841586 230.892635 
L 269.977906 230.673951 
L 270.239164 230.142861 
L 270.750786 229.049442 
L 270.81789 228.861998 
L 271.167458 228.174706 
L 271.231254 227.956022 
L 272.074897 226.550196 
L 272.312475 226.112828 
L 272.448726 225.894144 
L 272.530655 225.64422 
L 272.656143 225.331814 
L 272.757978 225.11313 
L 272.970035 224.800724 
L 273.249713 224.113432 
L 273.375857 223.676064 
L 273.495001 223.45738 
L 273.950166 222.582644 
L 274.158707 222.020314 
L 274.405587 221.395503 
L 274.56133 220.801932 
L 274.771841 220.489526 
L 274.835215 220.333323 
L 275.033471 220.14588 
L 275.141882 219.927196 
L 275.519319 219.177422 
L 275.651228 218.833776 
L 275.902687 218.427649 
L 276.3767 217.459191 
L 276.489315 217.240507 
L 276.652893 216.896861 
L 276.777704 216.740658 
L 276.886408 216.459493 
L 277.269455 215.803441 
L 277.370866 215.615998 
L 277.542467 214.991186 
L 278.955087 211.648446 
L 279.085501 211.304799 
L 279.205711 211.054875 
L 279.455915 210.305101 
L 279.892376 209.555328 
L 280.311905 208.805554 
L 280.395821 208.555629 
L 280.534282 208.118262 
L 280.688942 207.837096 
L 281.448927 206.025144 
L 281.517224 205.8377 
L 281.897718 205.025445 
L 282.388223 204.18195 
L 282.522715 203.807063 
L 282.734306 203.525898 
L 282.888055 203.213492 
L 283.117631 202.744884 
L 283.222365 202.494959 
L 283.427826 202.088832 
L 283.558275 201.745186 
L 283.651739 201.557742 
L 285.016239 198.746091 
L 285.148098 198.496167 
L 285.535668 197.808874 
L 285.599817 197.55895 
L 285.754788 197.371506 
L 286.055448 196.652973 
L 286.183759 196.371808 
L 286.285264 196.184365 
L 286.532149 195.778237 
L 287.032381 194.84102 
L 287.149365 194.559855 
L 287.315021 194.216209 
L 287.446521 193.997525 
L 287.840106 192.966586 
L 288.127609 192.185572 
L 288.185886 191.966888 
L 288.290277 191.560761 
L 288.493042 191.248355 
L 288.608424 190.93595 
L 288.732517 190.592303 
L 289.206796 189.623846 
L 289.687662 188.18678 
L 289.879662 187.843133 
L 290.012699 187.530728 
L 290.063368 187.343284 
L 290.167779 187.1246 
L 291.721007 183.8131 
L 291.808827 183.656897 
L 292.531175 181.907426 
L 292.627793 181.532539 
L 292.734134 181.282614 
L 292.966498 180.876487 
L 293.072432 180.689043 
L 293.362668 179.751826 
L 293.432234 179.533142 
L 293.552467 179.37694 
L 293.789455 179.002053 
L 293.897558 178.84585 
L 293.996904 178.564685 
L 294.10535 178.221039 
L 295.338087 175.971718 
L 295.446249 175.784274 
L 295.797653 174.940779 
L 296.000931 174.44093 
L 296.764969 172.535255 
L 296.923723 172.285331 
L 297.734407 170.535859 
L 297.831372 170.379656 
L 297.953118 170.067251 
L 298.067837 169.817326 
L 298.279672 169.661123 
L 298.43287 169.254996 
L 298.582365 168.817628 
L 298.725896 168.630185 
L 298.996691 168.255298 
L 299.217462 167.786689 
L 299.306249 167.568005 
L 299.415964 167.318081 
L 299.655285 166.693269 
L 299.763607 166.474585 
L 299.924252 165.943496 
L 300.023147 165.756052 
L 300.201296 165.506128 
L 300.29352 165.349925 
L 300.644236 164.662632 
L 300.820589 164.443949 
L 300.932086 164.194024 
L 301.146165 163.819137 
L 301.331375 163.600453 
L 301.456313 163.288048 
L 301.578453 163.069364 
L 302.070375 161.632297 
L 302.175829 161.413613 
L 302.658909 159.882826 
L 302.901564 159.320495 
L 303.021598 159.070571 
L 303.141065 158.883128 
L 303.355133 158.195835 
L 303.542305 157.820948 
L 305.177439 154.228283 
L 305.359093 153.884637 
L 305.939967 152.822457 
L 306.082382 152.478811 
L 306.367534 151.854 
L 306.595363 151.354151 
L 306.688167 151.104226 
L 306.811008 150.916783 
L 307.296174 150.010806 
L 307.44745 149.698401 
L 307.62878 149.448476 
L 307.879321 148.917387 
L 307.976431 148.698703 
L 308.136471 148.136372 
L 308.251495 147.823967 
L 309.657887 144.949835 
L 309.830224 144.418745 
L 309.924924 144.200061 
L 310.02073 143.981377 
L 310.131464 143.731452 
L 310.84158 141.857018 
L 310.978973 141.700816 
L 311.09786 141.41965 
L 311.242916 141.232207 
L 311.497068 140.951042 
L 311.723477 140.607396 
L 311.879746 140.138787 
L 312.122218 139.7639 
L 312.264285 139.389014 
L 313.048973 138.045669 
L 313.734034 136.389919 
L 313.894309 135.952551 
L 313.95531 135.765108 
L 314.095467 135.452702 
L 314.340641 135.077815 
L 314.464607 134.79665 
L 314.892034 133.953155 
L 314.996671 133.734471 
L 315.10117 133.484546 
L 315.264973 132.984697 
L 315.357067 132.828494 
L 315.461139 132.547329 
L 315.596363 132.391127 
L 315.694251 132.109961 
L 315.816999 131.922518 
L 315.932518 131.766315 
L 316.976143 129.610716 
L 317.173277 129.329551 
L 317.338663 128.892183 
L 317.431486 128.70474 
L 317.978052 127.736282 
L 318.085076 127.548839 
L 318.671083 126.049291 
L 318.862659 125.830607 
L 319.042672 125.486961 
L 319.159545 125.330758 
L 319.307314 124.89339 
L 319.456036 124.643466 
L 319.568379 124.424782 
L 320.291286 122.67531 
L 320.410638 122.519107 
L 320.76548 121.675612 
L 320.891916 121.456928 
L 320.994512 121.238244 
L 321.193179 121.082041 
L 322.085814 119.520013 
L 322.226262 119.238848 
L 322.57047 118.707758 
L 322.693035 118.395352 
L 322.799339 118.23915 
L 322.956362 117.833022 
L 323.190961 117.614338 
L 323.339315 117.364414 
L 323.579121 117.114489 
L 323.661813 116.708362 
L 323.738484 116.520918 
L 324.117087 115.989829 
L 324.213479 115.833626 
L 324.373614 115.583701 
L 324.505034 115.271296 
L 324.922137 114.39656 
L 325.084917 114.209116 
L 325.25476 113.959192 
L 325.405306 113.771748 
L 325.667378 113.178178 
L 325.843335 112.709569 
L 327.460931 109.835437 
L 327.590705 109.585512 
L 327.786399 109.304347 
L 327.949237 108.866979 
L 328.496808 108.085965 
L 328.594623 107.929762 
L 328.974821 107.27371 
L 329.097799 106.992545 
L 329.263296 106.742621 
L 329.760664 105.930366 
L 329.932505 105.461758 
L 330.035465 105.274314 
L 330.263579 104.618262 
L 330.391537 104.399578 
L 330.580636 103.993451 
L 330.773337 103.524842 
L 331.123348 102.775069 
L 331.18353 102.681347 
L 331.350078 102.525144 
L 331.584685 102.025295 
L 331.760583 101.775371 
L 331.865417 101.494206 
L 332.114158 101.244281 
L 332.345473 100.744432 
L 332.609426 100.400786 
L 332.743643 100.08838 
L 334.830847 96.870602 
L 334.975484 96.651918 
L 335.106642 96.464474 
L 335.424805 96.027106 
L 335.703804 95.464776 
L 336.267928 94.777484 
L 336.692771 94.246394 
L 337.056353 93.933988 
L 337.844962 92.496922 
L 337.932886 92.309479 
L 338.063782 92.122035 
L 338.469031 91.403502 
L 338.811061 90.997375 
L 338.94198 90.809932 
L 340.283512 88.654332 
L 340.475438 88.466889 
L 340.654029 88.092002 
L 340.777984 87.873318 
L 340.895864 87.717115 
L 341.031774 87.529672 
L 341.928879 86.123846 
L 342.037727 85.905162 
L 342.246183 85.623997 
L 342.538769 85.374073 
L 343.249787 84.780502 
L 343.402681 84.561818 
L 343.693415 84.155691 
L 343.810129 83.968247 
L 344.376625 83.374677 
L 344.720955 83.03103 
L 344.844647 82.843587 
L 344.93302 82.687384 
L 345.177675 82.343738 
L 345.365297 81.90637 
L 345.561016 81.500242 
L 345.792697 81.250318 
L 346.043824 80.81295 
L 346.194077 80.500544 
L 346.370931 80.28186 
L 346.533707 79.906974 
L 346.643823 79.750771 
L 346.974788 79.438365 
L 347.403911 79.094719 
L 347.552442 78.844794 
L 347.640479 78.62611 
L 347.764222 78.344945 
L 347.985742 78.188742 
L 348.262111 77.970058 
L 348.283576 77.845096 
L 348.47128 77.688893 
L 348.990295 77.345247 
L 349.080517 77.189044 
L 350.214254 75.439572 
L 350.495752 75.28337 
L 350.825024 74.658558 
L 351.122257 74.252431 
L 351.348134 73.815063 
L 351.622295 73.533898 
L 351.830565 73.346454 
L 352.196429 72.690403 
L 352.474007 72.471719 
L 352.734394 72.034351 
L 352.933283 71.846907 
L 353.209448 71.534502 
L 353.346115 71.378299 
L 353.445618 71.253336 
L 353.684573 71.065893 
L 353.814845 70.87845 
L 354.118756 70.503563 
L 354.554497 70.191157 
L 355.010082 69.472624 
L 356.247814 68.285483 
L 356.339805 68.12928 
L 356.544851 67.941836 
L 357.034303 67.473228 
L 357.464618 66.817176 
L 358.611983 65.286388 
L 358.723603 65.005223 
L 358.991069 64.442893 
L 359.176442 64.28669 
L 360.497273 63.099548 
L 360.497973 63.068308 
L 360.707923 62.943346 
L 361.107644 62.505978 
L 361.244716 62.318534 
L 361.38034 62.131091 
L 361.597289 62.006129 
L 361.688303 61.881166 
L 362.128584 61.53752 
L 362.398138 61.193874 
L 362.889751 60.912709 
L 363.250055 60.4441 
L 363.371971 60.287897 
L 364.620273 59.100756 
L 364.936072 58.913312 
L 365.816826 58.069817 
L 365.822766 58.038576 
L 366.225132 57.819893 
L 366.558487 57.445006 
L 367.130555 57.070119 
L 367.769654 56.445308 
L 368.041617 56.132902 
L 368.296293 55.945458 
L 368.770554 55.47685 
L 368.993404 55.289407 
L 369.154245 55.070723 
L 369.97739 54.38343 
L 370.06394 54.195987 
L 370.396955 54.008543 
L 370.523546 53.85234 
L 370.623513 53.758619 
L 371.036746 53.602416 
L 371.29139 53.29001 
L 371.785153 52.946364 
L 372.0619 52.758921 
L 372.342669 52.602718 
L 372.587389 52.352793 
L 372.895679 52.16535 
L 372.939709 52.071628 
L 373.130696 51.915425 
L 373.446055 51.540539 
L 373.583633 51.353095 
L 374.11345 51.196892 
L 374.371568 51.009449 
L 374.808699 50.697043 
L 375.058743 50.478359 
L 375.504726 50.228435 
L 375.721791 50.009751 
L 375.891131 49.822307 
L 375.969418 49.697345 
L 376.186991 49.541142 
L 376.36245 49.353699 
L 376.946647 49.166255 
L 377.001967 49.103774 
L 377.279737 48.916331 
L 377.658712 48.697647 
L 377.980182 48.29152 
L 379.191877 47.479265 
L 379.724907 47.260581 
L 380.845172 46.66701 
L 381.124348 46.448326 
L 381.234908 46.260883 
L 381.780851 45.823515 
L 382.134767 45.667312 
L 382.301102 45.479868 
L 382.554256 45.292425 
L 382.780494 45.073741 
L 383.211828 44.917538 
L 383.393061 44.761335 
L 383.606914 44.636373 
L 383.91894 44.417689 
L 384.058226 44.261486 
L 384.257952 44.105284 
L 384.847094 43.8866 
L 384.892306 43.855359 
L 385.331255 43.699156 
L 385.515827 43.417991 
L 385.798511 43.230548 
L 386.160186 42.730699 
L 387.777324 41.980925 
L 388.261408 41.793482 
L 388.813685 41.574798 
L 389.122711 41.387354 
L 390.313524 40.793783 
L 390.36569 40.731302 
L 392.293018 40.07525 
L 392.801741 39.950288 
L 392.935163 39.825326 
L 393.321706 39.606642 
L 393.532315 39.450439 
L 394.766581 39.138033 
L 394.920049 39.013071 
L 395.708464 38.825628 
L 395.792842 38.669425 
L 396.878702 38.357019 
L 397.018166 38.232057 
L 398.376777 37.794689 
L 399.442414 37.263599 
L 401.03467 36.888712 
L 401.378754 36.794991 
L 401.656213 36.670029 
L 401.94337 36.607547 
L 402.426985 36.482585 
L 403.370383 36.295142 
L 403.468959 36.232661 
L 405.156051 35.701571 
L 406.299207 35.514128 
L 406.393971 35.451646 
L 406.870499 35.264203 
L 407.538735 34.858076 
L 407.671329 34.795594 
L 408.144309 34.608151 
L 408.62524 34.451948 
L 408.683345 34.389467 
L 409.285229 34.233264 
L 409.921754 33.952099 
L 412.364535 33.608453 
L 412.663063 33.483491 
L 413.507201 33.296047 
L 414.371069 33.077363 
L 415.04009 32.92116 
L 415.04227 32.88992 
L 417.89057 32.421311 
L 419.860069 32.233868 
L 420.188879 32.171387 
L 421.54246 31.983943 
L 421.671097 31.921462 
L 422.616773 31.734019 
L 422.618218 31.702778 
L 424.9156 31.515335 
L 425.134539 31.452854 
L 426.957167 31.26541 
L 427.579739 31.140448 
L 445.034734 29.60966 
L 450.268595 29.422217 
L 453.301869 29.297255 
L 457.514436 29.141052 
L 457.855644 29.109811 
L 467.369744 28.859887 
L 474.447294 28.703684 
L 513.0002 28.578722 
L 513.0002 28.578722 
" style="fill:none;stroke:#4c72b0;stroke-linecap:round;stroke-width:1.75;"/>
   </g>
   <g id="line2d_28">
    <defs>
     <path d="M 0 1.75 
C 0.464105 1.75 0.909265 1.565609 1.237437 1.237437 
C 1.565609 0.909265 1.75 0.464105 1.75 0 
C 1.75 -0.464105 1.565609 -0.909265 1.237437 -1.237437 
C 0.909265 -1.565609 0.464105 -1.75 0 -1.75 
C -0.464105 -1.75 -0.909265 -1.565609 -1.237437 -1.237437 
C -1.565609 -0.909265 -1.75 -0.464105 -1.75 0 
C -1.75 0.464105 -1.565609 0.909265 -1.237437 1.237437 
C -0.909265 1.565609 -0.464105 1.75 0 1.75 
z
" id="m8e4d403f43"/>
    </defs>
    <g clip-path="url(#paf989a68f4)">
     <use style="fill:#55a868;" x="179.123759" xlink:href="#m8e4d403f43" y="337.474218"/>
     <use style="fill:#55a868;" x="183.65624" xlink:href="#m8e4d403f43" y="333.964042"/>
     <use style="fill:#55a868;" x="193.069854" xlink:href="#m8e4d403f43" y="330.453866"/>
     <use style="fill:#55a868;" x="198.648292" xlink:href="#m8e4d403f43" y="326.94369"/>
     <use style="fill:#55a868;" x="200.042902" xlink:href="#m8e4d403f43" y="323.433514"/>
     <use style="fill:#55a868;" x="201.786164" xlink:href="#m8e4d403f43" y="319.923337"/>
     <use style="fill:#55a868;" x="207.015949" xlink:href="#m8e4d403f43" y="316.413161"/>
     <use style="fill:#55a868;" x="207.713254" xlink:href="#m8e4d403f43" y="312.902985"/>
     <use style="fill:#55a868;" x="213.988997" xlink:href="#m8e4d403f43" y="309.392809"/>
     <use style="fill:#55a868;" x="220.962045" xlink:href="#m8e4d403f43" y="305.882633"/>
     <use style="fill:#55a868;" x="220.962045" xlink:href="#m8e4d403f43" y="302.372457"/>
     <use style="fill:#55a868;" x="220.962045" xlink:href="#m8e4d403f43" y="298.862281"/>
     <use style="fill:#55a868;" x="231.421616" xlink:href="#m8e4d403f43" y="295.352105"/>
     <use style="fill:#55a868;" x="232.816225" xlink:href="#m8e4d403f43" y="291.841929"/>
     <use style="fill:#55a868;" x="241.881187" xlink:href="#m8e4d403f43" y="288.331753"/>
     <use style="fill:#55a868;" x="243.973101" xlink:href="#m8e4d403f43" y="284.821576"/>
     <use style="fill:#55a868;" x="244.670406" xlink:href="#m8e4d403f43" y="281.3114"/>
     <use style="fill:#55a868;" x="248.854235" xlink:href="#m8e4d403f43" y="277.801224"/>
     <use style="fill:#55a868;" x="252.340758" xlink:href="#m8e4d403f43" y="274.291048"/>
     <use style="fill:#55a868;" x="255.827282" xlink:href="#m8e4d403f43" y="270.780872"/>
     <use style="fill:#55a868;" x="255.827282" xlink:href="#m8e4d403f43" y="267.270696"/>
     <use style="fill:#55a868;" x="255.827282" xlink:href="#m8e4d403f43" y="263.76052"/>
     <use style="fill:#55a868;" x="255.827282" xlink:href="#m8e4d403f43" y="260.250344"/>
     <use style="fill:#55a868;" x="255.827282" xlink:href="#m8e4d403f43" y="256.740168"/>
     <use style="fill:#55a868;" x="257.919196" xlink:href="#m8e4d403f43" y="253.229992"/>
     <use style="fill:#55a868;" x="262.80033" xlink:href="#m8e4d403f43" y="249.719816"/>
     <use style="fill:#55a868;" x="262.80033" xlink:href="#m8e4d403f43" y="246.209639"/>
     <use style="fill:#55a868;" x="262.80033" xlink:href="#m8e4d403f43" y="242.699463"/>
     <use style="fill:#55a868;" x="266.635506" xlink:href="#m8e4d403f43" y="239.189287"/>
     <use style="fill:#55a868;" x="266.984158" xlink:href="#m8e4d403f43" y="235.679111"/>
     <use style="fill:#55a868;" x="269.773377" xlink:href="#m8e4d403f43" y="232.168935"/>
     <use style="fill:#55a868;" x="269.773377" xlink:href="#m8e4d403f43" y="228.658759"/>
     <use style="fill:#55a868;" x="269.773377" xlink:href="#m8e4d403f43" y="225.148583"/>
     <use style="fill:#55a868;" x="269.773377" xlink:href="#m8e4d403f43" y="221.638407"/>
     <use style="fill:#55a868;" x="274.654511" xlink:href="#m8e4d403f43" y="218.128231"/>
     <use style="fill:#55a868;" x="275.003163" xlink:href="#m8e4d403f43" y="214.618055"/>
     <use style="fill:#55a868;" x="276.746425" xlink:href="#m8e4d403f43" y="211.107878"/>
     <use style="fill:#55a868;" x="276.746425" xlink:href="#m8e4d403f43" y="207.597702"/>
     <use style="fill:#55a868;" x="276.746425" xlink:href="#m8e4d403f43" y="204.087526"/>
     <use style="fill:#55a868;" x="277.44373" xlink:href="#m8e4d403f43" y="200.57735"/>
     <use style="fill:#55a868;" x="282.324863" xlink:href="#m8e4d403f43" y="197.067174"/>
     <use style="fill:#55a868;" x="283.719472" xlink:href="#m8e4d403f43" y="193.556998"/>
     <use style="fill:#55a868;" x="283.719472" xlink:href="#m8e4d403f43" y="190.046822"/>
     <use style="fill:#55a868;" x="283.719472" xlink:href="#m8e4d403f43" y="186.536646"/>
     <use style="fill:#55a868;" x="283.719472" xlink:href="#m8e4d403f43" y="183.02647"/>
     <use style="fill:#55a868;" x="289.29791" xlink:href="#m8e4d403f43" y="179.516294"/>
     <use style="fill:#55a868;" x="290.69252" xlink:href="#m8e4d403f43" y="176.006118"/>
     <use style="fill:#55a868;" x="290.69252" xlink:href="#m8e4d403f43" y="172.495941"/>
     <use style="fill:#55a868;" x="290.69252" xlink:href="#m8e4d403f43" y="168.985765"/>
     <use style="fill:#55a868;" x="290.69252" xlink:href="#m8e4d403f43" y="165.475589"/>
     <use style="fill:#55a868;" x="290.69252" xlink:href="#m8e4d403f43" y="161.965413"/>
     <use style="fill:#55a868;" x="297.665567" xlink:href="#m8e4d403f43" y="158.455237"/>
     <use style="fill:#55a868;" x="297.665567" xlink:href="#m8e4d403f43" y="154.945061"/>
     <use style="fill:#55a868;" x="304.638615" xlink:href="#m8e4d403f43" y="151.434885"/>
     <use style="fill:#55a868;" x="304.638615" xlink:href="#m8e4d403f43" y="147.924709"/>
     <use style="fill:#55a868;" x="304.638615" xlink:href="#m8e4d403f43" y="144.414533"/>
     <use style="fill:#55a868;" x="304.638615" xlink:href="#m8e4d403f43" y="140.904357"/>
     <use style="fill:#55a868;" x="304.638615" xlink:href="#m8e4d403f43" y="137.394181"/>
     <use style="fill:#55a868;" x="306.381877" xlink:href="#m8e4d403f43" y="133.884004"/>
     <use style="fill:#55a868;" x="308.473791" xlink:href="#m8e4d403f43" y="130.373828"/>
     <use style="fill:#55a868;" x="311.611662" xlink:href="#m8e4d403f43" y="126.863652"/>
     <use style="fill:#55a868;" x="311.611662" xlink:href="#m8e4d403f43" y="123.353476"/>
     <use style="fill:#55a868;" x="311.611662" xlink:href="#m8e4d403f43" y="119.8433"/>
     <use style="fill:#55a868;" x="317.538753" xlink:href="#m8e4d403f43" y="116.333124"/>
     <use style="fill:#55a868;" x="318.58471" xlink:href="#m8e4d403f43" y="112.822948"/>
     <use style="fill:#55a868;" x="325.557757" xlink:href="#m8e4d403f43" y="109.312772"/>
     <use style="fill:#55a868;" x="325.557757" xlink:href="#m8e4d403f43" y="105.802596"/>
     <use style="fill:#55a868;" x="325.557757" xlink:href="#m8e4d403f43" y="102.29242"/>
     <use style="fill:#55a868;" x="325.557757" xlink:href="#m8e4d403f43" y="98.782243"/>
     <use style="fill:#55a868;" x="325.557757" xlink:href="#m8e4d403f43" y="95.272067"/>
     <use style="fill:#55a868;" x="332.530805" xlink:href="#m8e4d403f43" y="91.761891"/>
     <use style="fill:#55a868;" x="333.22811" xlink:href="#m8e4d403f43" y="88.251715"/>
     <use style="fill:#55a868;" x="339.503853" xlink:href="#m8e4d403f43" y="84.741539"/>
     <use style="fill:#55a868;" x="342.990376" xlink:href="#m8e4d403f43" y="81.231363"/>
     <use style="fill:#55a868;" x="346.4769" xlink:href="#m8e4d403f43" y="77.721187"/>
     <use style="fill:#55a868;" x="346.4769" xlink:href="#m8e4d403f43" y="74.211011"/>
     <use style="fill:#55a868;" x="349.266119" xlink:href="#m8e4d403f43" y="70.700835"/>
     <use style="fill:#55a868;" x="353.449948" xlink:href="#m8e4d403f43" y="67.190659"/>
     <use style="fill:#55a868;" x="360.074343" xlink:href="#m8e4d403f43" y="63.680483"/>
     <use style="fill:#55a868;" x="373.323133" xlink:href="#m8e4d403f43" y="60.170306"/>
     <use style="fill:#55a868;" x="374.36909" xlink:href="#m8e4d403f43" y="56.66013"/>
     <use style="fill:#55a868;" x="389.01249" xlink:href="#m8e4d403f43" y="53.149954"/>
     <use style="fill:#55a868;" x="395.288233" xlink:href="#m8e4d403f43" y="49.639778"/>
     <use style="fill:#55a868;" x="395.288233" xlink:href="#m8e4d403f43" y="46.129602"/>
     <use style="fill:#55a868;" x="402.26128" xlink:href="#m8e4d403f43" y="42.619426"/>
     <use style="fill:#55a868;" x="409.234328" xlink:href="#m8e4d403f43" y="39.10925"/>
     <use style="fill:#55a868;" x="416.207375" xlink:href="#m8e4d403f43" y="35.599074"/>
     <use style="fill:#55a868;" x="416.207375" xlink:href="#m8e4d403f43" y="32.088898"/>
     <use style="fill:#55a868;" x="430.15347" xlink:href="#m8e4d403f43" y="28.578722"/>
    </g>
   </g>
   <g id="patch_3">
    <path d="M 47.919844 356.571875 
L 47.919844 12.96 
" style="fill:none;"/>
   </g>
   <g id="patch_4">
    <path d="M 535.146884 356.571875 
L 535.146884 12.96 
" style="fill:none;"/>
   </g>
   <g id="patch_5">
    <path d="M 47.919844 356.571875 
L 535.146884 356.571875 
" style="fill:none;"/>
   </g>
   <g id="patch_6">
    <path d="M 47.919844 12.96 
L 535.146884 12.96 
" style="fill:none;"/>
   </g>
  </g>
 </g>
 <defs>
  <clipPath id="paf989a68f4">
   <rect height="343.611875" width="487.22704" x="47.919844" y="12.96"/>
  </clipPath>
 </defs>
</svg>
