<?xml version="1.0" encoding="utf-8" standalone="no"?>
<!DOCTYPE svg PUBLIC "-//W3C//DTD SVG 1.1//EN"
  "http://www.w3.org/Graphics/SVG/1.1/DTD/svg11.dtd">
<!-- Created with matplotlib (https://matplotlib.org/) -->
<svg height="400pt" version="1.1" viewBox="0 0 549 400" width="549pt" xmlns="http://www.w3.org/2000/svg" xmlns:xlink="http://www.w3.org/1999/xlink">
 <defs>
  <style type="text/css">
*{stroke-linecap:butt;stroke-linejoin:round;}
  </style>
 </defs>
 <g id="figure_1">
  <g id="patch_1">
   <path d="M 0 400 
L 549 400 
L 549 0 
L 0 0 
z
" style="fill:#ffffff;"/>
  </g>
  <g id="axes_1">
   <g id="patch_2">
    <path d="M 39.420938 370.894688 
L 536.04 370.894688 
L 536.04 12.96 
L 39.420938 12.96 
z
" style="fill:#eaeaf2;"/>
   </g>
   <g id="matplotlib.axis_1">
    <g id="xtick_1">
     <g id="line2d_1">
      <path clip-path="url(#p4739261fb5)" d="M 83.638503 370.894688 
L 83.638503 12.96 
" style="fill:none;stroke:#ffffff;stroke-linecap:round;"/>
     </g>
     <g id="line2d_2"/>
     <g id="text_1">
      <!-- −20 -->
      <defs>
       <path d="M 52.828125 31.203125 
L 5.5625 31.203125 
L 5.5625 39.40625 
L 52.828125 39.40625 
z
" id="ArialMT-8722"/>
       <path d="M 50.34375 8.453125 
L 50.34375 0 
L 3.03125 0 
Q 2.9375 3.171875 4.046875 6.109375 
Q 5.859375 10.9375 9.828125 15.625 
Q 13.8125 20.3125 21.34375 26.46875 
Q 33.015625 36.03125 37.109375 41.625 
Q 41.21875 47.21875 41.21875 52.203125 
Q 41.21875 57.421875 37.46875 61 
Q 33.734375 64.59375 27.734375 64.59375 
Q 21.390625 64.59375 17.578125 60.78125 
Q 13.765625 56.984375 13.71875 50.25 
L 4.6875 51.171875 
Q 5.609375 61.28125 11.65625 66.578125 
Q 17.71875 71.875 27.9375 71.875 
Q 38.234375 71.875 44.234375 66.15625 
Q 50.25 60.453125 50.25 52 
Q 50.25 47.703125 48.484375 43.546875 
Q 46.734375 39.40625 42.65625 34.8125 
Q 38.578125 30.21875 29.109375 22.21875 
Q 21.1875 15.578125 18.9375 13.203125 
Q 16.703125 10.84375 15.234375 8.453125 
z
" id="ArialMT-50"/>
       <path d="M 4.15625 35.296875 
Q 4.15625 48 6.765625 55.734375 
Q 9.375 63.484375 14.515625 67.671875 
Q 19.671875 71.875 27.484375 71.875 
Q 33.25 71.875 37.59375 69.546875 
Q 41.9375 67.234375 44.765625 62.859375 
Q 47.609375 58.5 49.21875 52.21875 
Q 50.828125 45.953125 50.828125 35.296875 
Q 50.828125 22.703125 48.234375 14.96875 
Q 45.65625 7.234375 40.5 3 
Q 35.359375 -1.21875 27.484375 -1.21875 
Q 17.140625 -1.21875 11.234375 6.203125 
Q 4.15625 15.140625 4.15625 35.296875 
z
M 13.1875 35.296875 
Q 13.1875 17.671875 17.3125 11.828125 
Q 21.4375 6 27.484375 6 
Q 33.546875 6 37.671875 11.859375 
Q 41.796875 17.71875 41.796875 35.296875 
Q 41.796875 52.984375 37.671875 58.78125 
Q 33.546875 64.59375 27.390625 64.59375 
Q 21.34375 64.59375 17.71875 59.46875 
Q 13.1875 52.9375 13.1875 35.296875 
z
" id="ArialMT-48"/>
      </defs>
      <g style="fill:#262626;" transform="translate(75.157253 385.0525)scale(0.1 -0.1)">
       <use xlink:href="#ArialMT-8722"/>
       <use x="58.398438" xlink:href="#ArialMT-50"/>
       <use x="114.013672" xlink:href="#ArialMT-48"/>
      </g>
     </g>
    </g>
    <g id="xtick_2">
     <g id="line2d_3">
      <path clip-path="url(#p4739261fb5)" d="M 188.227564 370.894688 
L 188.227564 12.96 
" style="fill:none;stroke:#ffffff;stroke-linecap:round;"/>
     </g>
     <g id="line2d_4"/>
     <g id="text_2">
      <!-- 0 -->
      <g style="fill:#262626;" transform="translate(185.447095 385.0525)scale(0.1 -0.1)">
       <use xlink:href="#ArialMT-48"/>
      </g>
     </g>
    </g>
    <g id="xtick_3">
     <g id="line2d_5">
      <path clip-path="url(#p4739261fb5)" d="M 292.816625 370.894688 
L 292.816625 12.96 
" style="fill:none;stroke:#ffffff;stroke-linecap:round;"/>
     </g>
     <g id="line2d_6"/>
     <g id="text_3">
      <!-- 20 -->
      <g style="fill:#262626;" transform="translate(287.255687 385.0525)scale(0.1 -0.1)">
       <use xlink:href="#ArialMT-50"/>
       <use x="55.615234" xlink:href="#ArialMT-48"/>
      </g>
     </g>
    </g>
    <g id="xtick_4">
     <g id="line2d_7">
      <path clip-path="url(#p4739261fb5)" d="M 397.405686 370.894688 
L 397.405686 12.96 
" style="fill:none;stroke:#ffffff;stroke-linecap:round;"/>
     </g>
     <g id="line2d_8"/>
     <g id="text_4">
      <!-- 40 -->
      <defs>
       <path d="M 32.328125 0 
L 32.328125 17.140625 
L 1.265625 17.140625 
L 1.265625 25.203125 
L 33.9375 71.578125 
L 41.109375 71.578125 
L 41.109375 25.203125 
L 50.78125 25.203125 
L 50.78125 17.140625 
L 41.109375 17.140625 
L 41.109375 0 
z
M 32.328125 25.203125 
L 32.328125 57.46875 
L 9.90625 25.203125 
z
" id="ArialMT-52"/>
      </defs>
      <g style="fill:#262626;" transform="translate(391.844748 385.0525)scale(0.1 -0.1)">
       <use xlink:href="#ArialMT-52"/>
       <use x="55.615234" xlink:href="#ArialMT-48"/>
      </g>
     </g>
    </g>
    <g id="xtick_5">
     <g id="line2d_9">
      <path clip-path="url(#p4739261fb5)" d="M 501.994746 370.894688 
L 501.994746 12.96 
" style="fill:none;stroke:#ffffff;stroke-linecap:round;"/>
     </g>
     <g id="line2d_10"/>
     <g id="text_5">
      <!-- 60 -->
      <defs>
       <path d="M 49.75 54.046875 
L 41.015625 53.375 
Q 39.84375 58.546875 37.703125 60.890625 
Q 34.125 64.65625 28.90625 64.65625 
Q 24.703125 64.65625 21.53125 62.3125 
Q 17.390625 59.28125 14.984375 53.46875 
Q 12.59375 47.65625 12.5 36.921875 
Q 15.671875 41.75 20.265625 44.09375 
Q 24.859375 46.4375 29.890625 46.4375 
Q 38.671875 46.4375 44.84375 39.96875 
Q 51.03125 33.5 51.03125 23.25 
Q 51.03125 16.5 48.125 10.71875 
Q 45.21875 4.9375 40.140625 1.859375 
Q 35.0625 -1.21875 28.609375 -1.21875 
Q 17.625 -1.21875 10.6875 6.859375 
Q 3.765625 14.9375 3.765625 33.5 
Q 3.765625 54.25 11.421875 63.671875 
Q 18.109375 71.875 29.4375 71.875 
Q 37.890625 71.875 43.28125 67.140625 
Q 48.6875 62.40625 49.75 54.046875 
z
M 13.875 23.1875 
Q 13.875 18.65625 15.796875 14.5 
Q 17.71875 10.359375 21.1875 8.171875 
Q 24.65625 6 28.46875 6 
Q 34.03125 6 38.03125 10.484375 
Q 42.046875 14.984375 42.046875 22.703125 
Q 42.046875 30.125 38.078125 34.390625 
Q 34.125 38.671875 28.125 38.671875 
Q 22.171875 38.671875 18.015625 34.390625 
Q 13.875 30.125 13.875 23.1875 
z
" id="ArialMT-54"/>
      </defs>
      <g style="fill:#262626;" transform="translate(496.433809 385.0525)scale(0.1 -0.1)">
       <use xlink:href="#ArialMT-54"/>
       <use x="55.615234" xlink:href="#ArialMT-48"/>
      </g>
     </g>
    </g>
   </g>
   <g id="matplotlib.axis_2">
    <g id="ytick_1">
     <g id="line2d_11">
      <path clip-path="url(#p4739261fb5)" d="M 39.420938 362.570625 
L 536.04 362.570625 
" style="fill:none;stroke:#ffffff;stroke-linecap:round;"/>
     </g>
     <g id="line2d_12"/>
     <g id="text_6">
      <!-- 0.00 -->
      <defs>
       <path d="M 9.078125 0 
L 9.078125 10.015625 
L 19.09375 10.015625 
L 19.09375 0 
z
" id="ArialMT-46"/>
      </defs>
      <g style="fill:#262626;" transform="translate(12.96 366.149531)scale(0.1 -0.1)">
       <use xlink:href="#ArialMT-48"/>
       <use x="55.615234" xlink:href="#ArialMT-46"/>
       <use x="83.398438" xlink:href="#ArialMT-48"/>
       <use x="139.013672" xlink:href="#ArialMT-48"/>
      </g>
     </g>
    </g>
    <g id="ytick_2">
     <g id="line2d_13">
      <path clip-path="url(#p4739261fb5)" d="M 39.420938 320.950312 
L 536.04 320.950312 
" style="fill:none;stroke:#ffffff;stroke-linecap:round;"/>
     </g>
     <g id="line2d_14"/>
     <g id="text_7">
      <!-- 0.05 -->
      <defs>
       <path d="M 4.15625 18.75 
L 13.375 19.53125 
Q 14.40625 12.796875 18.140625 9.390625 
Q 21.875 6 27.15625 6 
Q 33.5 6 37.890625 10.78125 
Q 42.28125 15.578125 42.28125 23.484375 
Q 42.28125 31 38.0625 35.34375 
Q 33.84375 39.703125 27 39.703125 
Q 22.75 39.703125 19.328125 37.765625 
Q 15.921875 35.84375 13.96875 32.765625 
L 5.71875 33.84375 
L 12.640625 70.609375 
L 48.25 70.609375 
L 48.25 62.203125 
L 19.671875 62.203125 
L 15.828125 42.96875 
Q 22.265625 47.46875 29.34375 47.46875 
Q 38.71875 47.46875 45.15625 40.96875 
Q 51.609375 34.46875 51.609375 24.265625 
Q 51.609375 14.546875 45.953125 7.46875 
Q 39.0625 -1.21875 27.15625 -1.21875 
Q 17.390625 -1.21875 11.203125 4.25 
Q 5.03125 9.71875 4.15625 18.75 
z
" id="ArialMT-53"/>
      </defs>
      <g style="fill:#262626;" transform="translate(12.96 324.529219)scale(0.1 -0.1)">
       <use xlink:href="#ArialMT-48"/>
       <use x="55.615234" xlink:href="#ArialMT-46"/>
       <use x="83.398438" xlink:href="#ArialMT-48"/>
       <use x="139.013672" xlink:href="#ArialMT-53"/>
      </g>
     </g>
    </g>
    <g id="ytick_3">
     <g id="line2d_15">
      <path clip-path="url(#p4739261fb5)" d="M 39.420938 279.33 
L 536.04 279.33 
" style="fill:none;stroke:#ffffff;stroke-linecap:round;"/>
     </g>
     <g id="line2d_16"/>
     <g id="text_8">
      <!-- 0.10 -->
      <defs>
       <path d="M 37.25 0 
L 28.46875 0 
L 28.46875 56 
Q 25.296875 52.984375 20.140625 49.953125 
Q 14.984375 46.921875 10.890625 45.40625 
L 10.890625 53.90625 
Q 18.265625 57.375 23.78125 62.296875 
Q 29.296875 67.234375 31.59375 71.875 
L 37.25 71.875 
z
" id="ArialMT-49"/>
      </defs>
      <g style="fill:#262626;" transform="translate(12.96 282.908906)scale(0.1 -0.1)">
       <use xlink:href="#ArialMT-48"/>
       <use x="55.615234" xlink:href="#ArialMT-46"/>
       <use x="83.398438" xlink:href="#ArialMT-49"/>
       <use x="139.013672" xlink:href="#ArialMT-48"/>
      </g>
     </g>
    </g>
    <g id="ytick_4">
     <g id="line2d_17">
      <path clip-path="url(#p4739261fb5)" d="M 39.420938 237.709687 
L 536.04 237.709687 
" style="fill:none;stroke:#ffffff;stroke-linecap:round;"/>
     </g>
     <g id="line2d_18"/>
     <g id="text_9">
      <!-- 0.15 -->
      <g style="fill:#262626;" transform="translate(12.96 241.288594)scale(0.1 -0.1)">
       <use xlink:href="#ArialMT-48"/>
       <use x="55.615234" xlink:href="#ArialMT-46"/>
       <use x="83.398438" xlink:href="#ArialMT-49"/>
       <use x="139.013672" xlink:href="#ArialMT-53"/>
      </g>
     </g>
    </g>
    <g id="ytick_5">
     <g id="line2d_19">
      <path clip-path="url(#p4739261fb5)" d="M 39.420938 196.089375 
L 536.04 196.089375 
" style="fill:none;stroke:#ffffff;stroke-linecap:round;"/>
     </g>
     <g id="line2d_20"/>
     <g id="text_10">
      <!-- 0.20 -->
      <g style="fill:#262626;" transform="translate(12.96 199.668281)scale(0.1 -0.1)">
       <use xlink:href="#ArialMT-48"/>
       <use x="55.615234" xlink:href="#ArialMT-46"/>
       <use x="83.398438" xlink:href="#ArialMT-50"/>
       <use x="139.013672" xlink:href="#ArialMT-48"/>
      </g>
     </g>
    </g>
    <g id="ytick_6">
     <g id="line2d_21">
      <path clip-path="url(#p4739261fb5)" d="M 39.420938 154.469062 
L 536.04 154.469062 
" style="fill:none;stroke:#ffffff;stroke-linecap:round;"/>
     </g>
     <g id="line2d_22"/>
     <g id="text_11">
      <!-- 0.25 -->
      <g style="fill:#262626;" transform="translate(12.96 158.047969)scale(0.1 -0.1)">
       <use xlink:href="#ArialMT-48"/>
       <use x="55.615234" xlink:href="#ArialMT-46"/>
       <use x="83.398438" xlink:href="#ArialMT-50"/>
       <use x="139.013672" xlink:href="#ArialMT-53"/>
      </g>
     </g>
    </g>
    <g id="ytick_7">
     <g id="line2d_23">
      <path clip-path="url(#p4739261fb5)" d="M 39.420938 112.84875 
L 536.04 112.84875 
" style="fill:none;stroke:#ffffff;stroke-linecap:round;"/>
     </g>
     <g id="line2d_24"/>
     <g id="text_12">
      <!-- 0.30 -->
      <defs>
       <path d="M 4.203125 18.890625 
L 12.984375 20.0625 
Q 14.5 12.59375 18.140625 9.296875 
Q 21.78125 6 27 6 
Q 33.203125 6 37.46875 10.296875 
Q 41.75 14.59375 41.75 20.953125 
Q 41.75 27 37.796875 30.921875 
Q 33.84375 34.859375 27.734375 34.859375 
Q 25.25 34.859375 21.53125 33.890625 
L 22.515625 41.609375 
Q 23.390625 41.5 23.921875 41.5 
Q 29.546875 41.5 34.03125 44.421875 
Q 38.53125 47.359375 38.53125 53.46875 
Q 38.53125 58.296875 35.25 61.46875 
Q 31.984375 64.65625 26.8125 64.65625 
Q 21.6875 64.65625 18.265625 61.421875 
Q 14.84375 58.203125 13.875 51.765625 
L 5.078125 53.328125 
Q 6.6875 62.15625 12.390625 67.015625 
Q 18.109375 71.875 26.609375 71.875 
Q 32.46875 71.875 37.390625 69.359375 
Q 42.328125 66.84375 44.9375 62.5 
Q 47.5625 58.15625 47.5625 53.265625 
Q 47.5625 48.640625 45.0625 44.828125 
Q 42.578125 41.015625 37.703125 38.765625 
Q 44.046875 37.3125 47.5625 32.6875 
Q 51.078125 28.078125 51.078125 21.140625 
Q 51.078125 11.765625 44.234375 5.25 
Q 37.40625 -1.265625 26.953125 -1.265625 
Q 17.53125 -1.265625 11.296875 4.34375 
Q 5.078125 9.96875 4.203125 18.890625 
z
" id="ArialMT-51"/>
      </defs>
      <g style="fill:#262626;" transform="translate(12.96 116.427656)scale(0.1 -0.1)">
       <use xlink:href="#ArialMT-48"/>
       <use x="55.615234" xlink:href="#ArialMT-46"/>
       <use x="83.398438" xlink:href="#ArialMT-51"/>
       <use x="139.013672" xlink:href="#ArialMT-48"/>
      </g>
     </g>
    </g>
    <g id="ytick_8">
     <g id="line2d_25">
      <path clip-path="url(#p4739261fb5)" d="M 39.420938 71.228437 
L 536.04 71.228437 
" style="fill:none;stroke:#ffffff;stroke-linecap:round;"/>
     </g>
     <g id="line2d_26"/>
     <g id="text_13">
      <!-- 0.35 -->
      <g style="fill:#262626;" transform="translate(12.96 74.807344)scale(0.1 -0.1)">
       <use xlink:href="#ArialMT-48"/>
       <use x="55.615234" xlink:href="#ArialMT-46"/>
       <use x="83.398438" xlink:href="#ArialMT-51"/>
       <use x="139.013672" xlink:href="#ArialMT-53"/>
      </g>
     </g>
    </g>
    <g id="ytick_9">
     <g id="line2d_27">
      <path clip-path="url(#p4739261fb5)" d="M 39.420938 29.608125 
L 536.04 29.608125 
" style="fill:none;stroke:#ffffff;stroke-linecap:round;"/>
     </g>
     <g id="line2d_28"/>
     <g id="text_14">
      <!-- 0.40 -->
      <g style="fill:#262626;" transform="translate(12.96 33.187031)scale(0.1 -0.1)">
       <use xlink:href="#ArialMT-48"/>
       <use x="55.615234" xlink:href="#ArialMT-46"/>
       <use x="83.398438" xlink:href="#ArialMT-52"/>
       <use x="139.013672" xlink:href="#ArialMT-48"/>
      </g>
     </g>
    </g>
   </g>
   <g id="patch_3">
    <path clip-path="url(#p4739261fb5)" d="M 269.463959 362.570625 
L 269.463959 362.384502 
L 270.399476 362.477563 
L 270.399476 362.570625 
L 272.270509 362.477563 
L 272.270509 362.384502 
L 273.206025 362.384502 
L 273.206025 362.198379 
L 274.141542 362.105317 
L 274.141542 362.384502 
L 274.6093 362.384502 
L 274.6093 361.360825 
L 275.544817 361.267764 
L 275.544817 361.081641 
L 276.012575 361.081641 
L 276.012575 360.43021 
L 276.480333 360.43021 
L 276.480333 359.778779 
L 276.948091 359.778779 
L 276.948091 358.289795 
L 277.41585 358.289795 
L 277.41585 357.173057 
L 277.883608 357.173057 
L 277.883608 356.428565 
L 278.351366 356.428565 
L 278.351366 355.311827 
L 278.819125 355.311827 
L 278.819125 350.286505 
L 279.286883 350.286505 
L 279.286883 349.076705 
L 279.754641 349.076705 
L 279.754641 345.633429 
L 280.222399 345.633429 
L 280.222399 342.934645 
L 280.690158 342.934645 
L 280.690158 338.560753 
L 281.157916 338.560753 
L 281.157916 332.790939 
L 281.625674 332.790939 
L 281.625674 326.835002 
L 282.093432 326.835002 
L 282.093432 314.550882 
L 282.561191 314.550882 
L 282.561191 310.73536 
L 283.028949 310.73536 
L 283.028949 299.474916 
L 283.496707 299.474916 
L 283.496707 286.167119 
L 283.964465 286.167119 
L 283.964465 284.585073 
L 284.432224 284.585073 
L 284.432224 266.345016 
L 284.899982 266.345016 
L 284.899982 248.942512 
L 285.36774 248.942512 
L 285.36774 229.864901 
L 285.835498 229.864901 
L 285.835498 218.976703 
L 286.303257 218.976703 
L 286.303257 198.130923 
L 286.771015 198.130923 
L 286.771015 180.635358 
L 287.238773 180.635358 
L 287.238773 170.770837 
L 287.706532 170.770837 
L 287.706532 147.412396 
L 288.17429 147.412396 
L 288.17429 121.727418 
L 288.642048 121.727418 
L 288.642048 116.32985 
L 289.109806 116.32985 
L 289.109806 103.301237 
L 289.577565 103.301237 
L 289.577565 73.242367 
L 290.045323 73.242367 
L 290.045323 70.171337 
L 290.513081 70.171337 
L 290.513081 52.954956 
L 290.980839 52.954956 
L 290.980839 48.674126 
L 291.448598 48.674126 
L 291.448598 45.137789 
L 291.916356 45.137789 
L 291.916356 36.296944 
L 292.384114 36.296944 
L 292.384114 32.574484 
L 292.851872 32.574484 
L 292.851872 25.501808 
L 293.319631 25.501808 
L 293.319631 28.293654 
L 293.787389 28.293654 
L 293.787389 37.599806 
L 294.255147 37.599806 
L 294.255147 50.72148 
L 294.722905 50.72148 
L 294.722905 57.701093 
L 295.190664 57.701093 
L 295.190664 64.122338 
L 295.658422 64.122338 
L 295.658422 87.201595 
L 296.12618 87.201595 
L 296.12618 109.815543 
L 296.593939 109.815543 
L 296.593939 117.167403 
L 297.061697 117.167403 
L 297.061697 130.289077 
L 297.529455 130.289077 
L 297.529455 151.227919 
L 297.997213 151.227919 
L 297.997213 169.281853 
L 298.464972 169.281853 
L 298.464972 179.797805 
L 298.93273 179.797805 
L 298.93273 205.482783 
L 299.400488 205.482783 
L 299.400488 215.06812 
L 299.868246 215.06812 
L 299.868246 237.030638 
L 300.336005 237.030638 
L 300.336005 251.175988 
L 300.803763 251.175988 
L 300.803763 266.717262 
L 301.271521 266.717262 
L 301.271521 278.629136 
L 301.739279 278.629136 
L 301.739279 291.471626 
L 302.207038 291.471626 
L 302.207038 299.288793 
L 302.674796 299.288793 
L 302.674796 309.339437 
L 303.142554 309.339437 
L 303.142554 319.390081 
L 303.610313 319.390081 
L 303.610313 328.230925 
L 304.078071 328.230925 
L 304.078071 329.719909 
L 304.545829 329.719909 
L 304.545829 339.212184 
L 305.013587 339.212184 
L 305.013587 343.213829 
L 305.481346 343.213829 
L 305.481346 345.912613 
L 305.949104 345.912613 
L 305.949104 350.472628 
L 306.416862 350.472628 
L 306.416862 352.147735 
L 306.88462 352.147735 
L 306.88462 355.125704 
L 307.352379 355.125704 
L 307.352379 356.521626 
L 307.820137 356.521626 
L 307.820137 357.452242 
L 308.287895 357.452242 
L 308.287895 358.941226 
L 308.755653 358.941226 
L 308.755653 359.871841 
L 309.223412 359.871841 
L 309.223412 360.523272 
L 309.69117 360.523272 
L 309.69117 361.174702 
L 310.158928 361.174702 
L 310.158928 361.546948 
L 310.626686 361.546948 
L 310.626686 361.733071 
L 311.094445 361.733071 
L 311.094445 362.105317 
L 312.029961 362.105317 
L 312.029961 361.919194 
L 312.49772 361.919194 
L 312.49772 362.29144 
L 313.433236 362.384502 
L 313.433236 362.570625 
L 316.239786 362.477563 
L 316.239786 362.570625 
" style="fill:none;stroke:#4c72b0;stroke-linejoin:miter;stroke-width:0.3;"/>
   </g>
   <g id="patch_4">
    <path clip-path="url(#p4739261fb5)" d="M 224.195071 362.570625 
L 224.195071 362.539575 
L 236.812499 362.446425 
L 236.812499 362.384324 
L 238.214436 362.384324 
L 238.214436 362.166973 
L 241.018309 362.073823 
L 241.018309 362.042773 
L 243.822181 361.980673 
L 243.822181 361.26652 
L 246.626054 361.32862 
L 246.626054 361.018119 
L 248.027991 361.018119 
L 248.027991 360.241866 
L 249.429927 360.241866 
L 249.429927 359.900315 
L 252.2338 359.962415 
L 252.2338 358.037308 
L 253.635737 358.037308 
L 253.635737 357.602606 
L 255.037673 357.602606 
L 255.037673 355.491198 
L 256.43961 355.491198 
L 256.43961 353.193489 
L 257.841546 353.193489 
L 257.841546 352.572487 
L 259.243483 352.572487 
L 259.243483 348.07022 
L 260.645419 348.07022 
L 260.645419 348.28757 
L 262.047356 348.28757 
L 262.047356 346.331413 
L 263.449292 346.331413 
L 263.449292 342.108597 
L 264.851229 342.108597 
L 264.851229 338.475733 
L 266.253165 338.475733 
L 266.253165 333.942416 
L 267.655102 333.942416 
L 267.655102 329.595399 
L 269.057038 329.595399 
L 269.057038 323.757977 
L 270.458975 323.757977 
L 270.458975 321.89497 
L 271.860911 321.89497 
L 271.860911 314.846593 
L 273.262848 314.846593 
L 273.262848 308.450268 
L 274.664784 308.450268 
L 274.664784 302.147094 
L 276.066721 302.147094 
L 276.066721 296.464923 
L 277.468657 296.464923 
L 277.468657 292.707858 
L 278.870594 292.707858 
L 278.870594 284.603777 
L 280.27253 284.603777 
L 280.27253 278.517954 
L 281.674467 278.517954 
L 281.674467 274.574589 
L 283.076403 274.574589 
L 283.076403 269.265019 
L 284.478339 269.265019 
L 284.478339 265.880556 
L 285.880276 265.880556 
L 285.880276 264.669601 
L 287.282212 264.669601 
L 287.282212 255.075115 
L 288.684149 255.075115 
L 288.684149 252.094303 
L 290.086085 252.094303 
L 290.086085 252.373754 
L 291.488022 252.373754 
L 291.488022 250.759148 
L 292.889958 250.759148 
L 292.889958 252.466905 
L 294.291895 252.466905 
L 294.291895 251.1628 
L 295.693831 251.1628 
L 295.693831 257.248623 
L 297.095768 257.248623 
L 297.095768 255.540867 
L 298.497704 255.540867 
L 298.497704 262.092442 
L 299.899641 262.092442 
L 299.899641 264.855902 
L 301.301577 264.855902 
L 301.301577 267.184661 
L 302.703514 267.184661 
L 302.703514 273.860436 
L 304.10545 273.860436 
L 304.10545 281.188264 
L 305.507387 281.188264 
L 305.507387 285.007429 
L 306.909323 285.007429 
L 306.909323 291.559004 
L 308.31126 291.559004 
L 308.31126 297.489577 
L 309.713196 297.489577 
L 309.713196 305.748908 
L 311.115133 305.748908 
L 311.115133 306.928813 
L 312.517069 306.928813 
L 312.517069 315.063944 
L 313.919006 315.063944 
L 313.919006 320.684015 
L 315.320942 320.684015 
L 315.320942 324.285829 
L 316.722879 324.285829 
L 316.722879 330.806354 
L 318.124815 330.806354 
L 318.124815 335.650172 
L 319.526752 335.650172 
L 319.526752 339.034635 
L 320.928688 339.034635 
L 320.928688 342.7917 
L 322.330625 342.7917 
L 322.330625 344.530506 
L 323.732561 344.530506 
L 323.732561 347.107666 
L 325.134497 347.107666 
L 325.134497 350.274778 
L 326.536434 350.274778 
L 326.536434 352.976138 
L 327.93837 352.976138 
L 327.93837 354.218143 
L 329.340307 354.218143 
L 329.340307 355.708549 
L 330.742243 355.708549 
L 330.742243 356.981604 
L 332.14418 356.981604 
L 332.14418 358.378859 
L 333.546116 358.378859 
L 333.546116 358.59621 
L 334.948053 358.59621 
L 334.948053 359.838215 
L 336.349989 359.838215 
L 336.349989 360.210816 
L 337.751926 360.210816 
L 337.751926 361.23547 
L 339.153862 361.23547 
L 339.153862 361.670172 
L 340.555799 361.670172 
L 340.555799 361.825422 
L 341.957735 361.825422 
L 341.957735 362.073823 
L 343.359672 362.073823 
L 343.359672 361.887522 
L 344.761608 361.887522 
L 344.761608 362.384324 
L 350.369354 362.353274 
L 350.369354 362.508525 
L 364.388719 362.539575 
L 364.388719 362.570625 
" style="fill:none;stroke:#55a868;stroke-linejoin:miter;stroke-width:0.3;"/>
   </g>
   <g id="patch_5">
    <path clip-path="url(#p4739261fb5)" d="M 61.994531 362.570625 
L 61.994531 362.551341 
L 116.171156 362.454923 
L 116.171156 362.416355 
L 129.715312 362.348862 
L 129.715312 362.281369 
L 138.74475 362.223518 
L 138.74475 362.021039 
L 143.259469 362.021039 
L 143.259469 361.837844 
L 147.774187 361.837844 
L 147.774187 361.616081 
L 152.288906 361.616081 
L 152.288906 361.413602 
L 161.318344 361.432885 
L 161.318344 361.037569 
L 165.833063 361.037569 
L 165.833063 360.729029 
L 170.347781 360.729029 
L 170.347781 360.304787 
L 174.8625 360.304787 
L 174.8625 359.813053 
L 179.377219 359.813053 
L 179.377219 358.945285 
L 183.891937 358.945285 
L 183.891937 358.530685 
L 188.406656 358.530685 
L 188.406656 357.711127 
L 192.921375 357.711127 
L 192.921375 356.689089 
L 197.436094 356.689089 
L 197.436094 355.65741 
L 201.950812 355.65741 
L 201.950812 354.943912 
L 206.465531 354.943912 
L 206.465531 354.114712 
L 210.98025 354.114712 
L 210.98025 352.18634 
L 215.494969 352.18634 
L 215.494969 350.412237 
L 220.009687 350.412237 
L 220.009687 348.830972 
L 224.524406 348.830972 
L 224.524406 347.606456 
L 229.039125 347.606456 
L 229.039125 346.295162 
L 233.553844 346.295162 
L 233.553844 344.742823 
L 238.068562 344.742823 
L 238.068562 342.640897 
L 242.583281 342.640897 
L 242.583281 340.182222 
L 247.098 340.182222 
L 247.098 338.996273 
L 251.612719 338.996273 
L 251.612719 337.231812 
L 256.127437 337.231812 
L 256.127437 334.956333 
L 260.642156 334.956333 
L 260.642156 333.442561 
L 269.671594 333.38471 
L 269.671594 331.022453 
L 274.186312 331.022453 
L 274.186312 330.578928 
L 278.701031 330.578928 
L 278.701031 330.270388 
L 283.21575 330.270388 
L 283.21575 329.855788 
L 287.730469 329.855788 
L 287.730469 330.675346 
L 292.245187 330.675346 
L 292.245187 330.328239 
L 296.759906 330.328239 
L 296.759906 329.460472 
L 301.274625 329.460472 
L 301.274625 329.846146 
L 305.789344 329.846146 
L 305.789344 331.196007 
L 310.304062 331.196007 
L 310.304062 331.514188 
L 314.818781 331.514188 
L 314.818781 332.680854 
L 319.3335 332.680854 
L 319.3335 333.895728 
L 323.848219 333.895728 
L 323.848219 334.975617 
L 328.362937 334.975617 
L 328.362937 337.395724 
L 332.877656 337.395724 
L 332.877656 338.504538 
L 337.392375 338.504538 
L 337.392375 340.915004 
L 341.907094 340.915004 
L 341.907094 341.98525 
L 346.421812 341.98525 
L 346.421812 343.826846 
L 350.936531 343.826846 
L 350.936531 344.839241 
L 355.45125 344.839241 
L 355.45125 347.664307 
L 359.965969 347.664307 
L 359.965969 349.033451 
L 364.480687 349.033451 
L 364.480687 350.344744 
L 368.995406 350.344744 
L 368.995406 351.627112 
L 373.510125 351.627112 
L 373.510125 353.333721 
L 378.024844 353.333721 
L 378.024844 354.047219 
L 382.539562 354.047219 
L 382.539562 355.618843 
L 387.054281 355.618843 
L 387.054281 356.48661 
L 391.569 356.48661 
L 391.569 357.238675 
L 396.083719 357.238675 
L 396.083719 358.337848 
L 400.598437 358.337848 
L 400.598437 358.983852 
L 405.113156 358.983852 
L 405.113156 359.658783 
L 409.627875 359.658783 
L 409.627875 360.218011 
L 414.142594 360.218011 
L 414.142594 360.42049 
L 418.657312 360.42049 
L 418.657312 361.076136 
L 427.68675 361.143629 
L 427.68675 361.51002 
L 432.201469 361.51002 
L 432.201469 361.712499 
L 436.716187 361.712499 
L 436.716187 361.876411 
L 441.230906 361.876411 
L 441.230906 362.069248 
L 450.260344 362.127099 
L 450.260344 362.213876 
L 454.775062 362.213876 
L 454.775062 362.348862 
L 468.319219 362.416355 
L 468.319219 362.474206 
L 513.466406 362.560983 
L 513.466406 362.570625 
" style="fill:none;stroke:#c44e52;stroke-linejoin:miter;stroke-width:0.3;"/>
   </g>
   <g id="patch_6">
    <path d="M 39.420938 370.894688 
L 39.420938 12.96 
" style="fill:none;"/>
   </g>
   <g id="patch_7">
    <path d="M 536.04 370.894688 
L 536.04 12.96 
" style="fill:none;"/>
   </g>
   <g id="patch_8">
    <path d="M 39.420938 370.894688 
L 536.04 370.894688 
" style="fill:none;"/>
   </g>
   <g id="patch_9">
    <path d="M 39.420938 12.96 
L 536.04 12.96 
" style="fill:none;"/>
   </g>
   <g id="legend_1">
    <g id="patch_10">
     <path d="M 463.182187 29.117813 
L 483.182187 29.117813 
L 483.182187 22.117813 
L 463.182187 22.117813 
z
" style="fill:none;stroke:#4c72b0;stroke-linejoin:miter;stroke-width:0.3;"/>
    </g>
    <g id="text_15">
     <!-- std = 1 -->
     <defs>
      <path d="M 3.078125 15.484375 
L 11.765625 16.84375 
Q 12.5 11.625 15.84375 8.84375 
Q 19.1875 6.0625 25.203125 6.0625 
Q 31.25 6.0625 34.171875 8.515625 
Q 37.109375 10.984375 37.109375 14.3125 
Q 37.109375 17.28125 34.515625 19 
Q 32.71875 20.171875 25.53125 21.96875 
Q 15.875 24.421875 12.140625 26.203125 
Q 8.40625 27.984375 6.46875 31.125 
Q 4.546875 34.28125 4.546875 38.09375 
Q 4.546875 41.546875 6.125 44.5 
Q 7.71875 47.46875 10.453125 49.421875 
Q 12.5 50.921875 16.03125 51.96875 
Q 19.578125 53.03125 23.640625 53.03125 
Q 29.734375 53.03125 34.34375 51.265625 
Q 38.96875 49.515625 41.15625 46.5 
Q 43.359375 43.5 44.1875 38.484375 
L 35.59375 37.3125 
Q 35.015625 41.3125 32.203125 43.546875 
Q 29.390625 45.796875 24.265625 45.796875 
Q 18.21875 45.796875 15.625 43.796875 
Q 13.03125 41.796875 13.03125 39.109375 
Q 13.03125 37.40625 14.109375 36.03125 
Q 15.1875 34.625 17.484375 33.6875 
Q 18.796875 33.203125 25.25 31.453125 
Q 34.578125 28.953125 38.25 27.359375 
Q 41.9375 25.78125 44.03125 22.75 
Q 46.140625 19.734375 46.140625 15.234375 
Q 46.140625 10.84375 43.578125 6.953125 
Q 41.015625 3.078125 36.171875 0.953125 
Q 31.34375 -1.171875 25.25 -1.171875 
Q 15.140625 -1.171875 9.84375 3.03125 
Q 4.546875 7.234375 3.078125 15.484375 
z
" id="ArialMT-115"/>
      <path d="M 25.78125 7.859375 
L 27.046875 0.09375 
Q 23.34375 -0.6875 20.40625 -0.6875 
Q 15.625 -0.6875 12.984375 0.828125 
Q 10.359375 2.34375 9.28125 4.8125 
Q 8.203125 7.28125 8.203125 15.1875 
L 8.203125 45.015625 
L 1.765625 45.015625 
L 1.765625 51.859375 
L 8.203125 51.859375 
L 8.203125 64.703125 
L 16.9375 69.96875 
L 16.9375 51.859375 
L 25.78125 51.859375 
L 25.78125 45.015625 
L 16.9375 45.015625 
L 16.9375 14.703125 
Q 16.9375 10.9375 17.40625 9.859375 
Q 17.875 8.796875 18.921875 8.15625 
Q 19.96875 7.515625 21.921875 7.515625 
Q 23.390625 7.515625 25.78125 7.859375 
z
" id="ArialMT-116"/>
      <path d="M 40.234375 0 
L 40.234375 6.546875 
Q 35.296875 -1.171875 25.734375 -1.171875 
Q 19.53125 -1.171875 14.328125 2.25 
Q 9.125 5.671875 6.265625 11.796875 
Q 3.421875 17.921875 3.421875 25.875 
Q 3.421875 33.640625 6 39.96875 
Q 8.59375 46.296875 13.765625 49.65625 
Q 18.953125 53.03125 25.34375 53.03125 
Q 30.03125 53.03125 33.6875 51.046875 
Q 37.359375 49.078125 39.65625 45.90625 
L 39.65625 71.578125 
L 48.390625 71.578125 
L 48.390625 0 
z
M 12.453125 25.875 
Q 12.453125 15.921875 16.640625 10.984375 
Q 20.84375 6.0625 26.5625 6.0625 
Q 32.328125 6.0625 36.34375 10.765625 
Q 40.375 15.484375 40.375 25.140625 
Q 40.375 35.796875 36.265625 40.765625 
Q 32.171875 45.75 26.171875 45.75 
Q 20.3125 45.75 16.375 40.96875 
Q 12.453125 36.1875 12.453125 25.875 
z
" id="ArialMT-100"/>
      <path id="ArialMT-32"/>
      <path d="M 52.828125 42.09375 
L 5.5625 42.09375 
L 5.5625 50.296875 
L 52.828125 50.296875 
z
M 52.828125 20.359375 
L 5.5625 20.359375 
L 5.5625 28.5625 
L 52.828125 28.5625 
z
" id="ArialMT-61"/>
     </defs>
     <g style="fill:#262626;" transform="translate(491.182187 29.117813)scale(0.1 -0.1)">
      <use xlink:href="#ArialMT-115"/>
      <use x="50" xlink:href="#ArialMT-116"/>
      <use x="77.783203" xlink:href="#ArialMT-100"/>
      <use x="133.398438" xlink:href="#ArialMT-32"/>
      <use x="161.181641" xlink:href="#ArialMT-61"/>
      <use x="219.580078" xlink:href="#ArialMT-32"/>
      <use x="247.363281" xlink:href="#ArialMT-49"/>
     </g>
    </g>
    <g id="patch_11">
     <path d="M 463.182187 43.263125 
L 483.182187 43.263125 
L 483.182187 36.263125 
L 463.182187 36.263125 
z
" style="fill:none;stroke:#55a868;stroke-linejoin:miter;stroke-width:0.3;"/>
    </g>
    <g id="text_16">
     <!-- std = 3 -->
     <g style="fill:#262626;" transform="translate(491.182187 43.263125)scale(0.1 -0.1)">
      <use xlink:href="#ArialMT-115"/>
      <use x="50" xlink:href="#ArialMT-116"/>
      <use x="77.783203" xlink:href="#ArialMT-100"/>
      <use x="133.398438" xlink:href="#ArialMT-32"/>
      <use x="161.181641" xlink:href="#ArialMT-61"/>
      <use x="219.580078" xlink:href="#ArialMT-32"/>
      <use x="247.363281" xlink:href="#ArialMT-51"/>
     </g>
    </g>
    <g id="patch_12">
     <path d="M 463.182187 57.408437 
L 483.182187 57.408437 
L 483.182187 50.408437 
L 463.182187 50.408437 
z
" style="fill:none;stroke:#c44e52;stroke-linejoin:miter;stroke-width:0.3;"/>
    </g>
    <g id="text_17">
     <!-- std = 10 -->
     <g style="fill:#262626;" transform="translate(491.182187 57.408437)scale(0.1 -0.1)">
      <use xlink:href="#ArialMT-115"/>
      <use x="50" xlink:href="#ArialMT-116"/>
      <use x="77.783203" xlink:href="#ArialMT-100"/>
      <use x="133.398438" xlink:href="#ArialMT-32"/>
      <use x="161.181641" xlink:href="#ArialMT-61"/>
      <use x="219.580078" xlink:href="#ArialMT-32"/>
      <use x="247.363281" xlink:href="#ArialMT-49"/>
      <use x="302.978516" xlink:href="#ArialMT-48"/>
     </g>
    </g>
   </g>
  </g>
 </g>
 <defs>
  <clipPath id="p4739261fb5">
   <rect height="357.934688" width="496.619062" x="39.420938" y="12.96"/>
  </clipPath>
 </defs>
</svg>
