<?xml version="1.0" encoding="utf-8" standalone="no"?>
<!DOCTYPE svg PUBLIC "-//W3C//DTD SVG 1.1//EN"
  "http://www.w3.org/Graphics/SVG/1.1/DTD/svg11.dtd">
<!-- Created with matplotlib (https://matplotlib.org/) -->
<svg height="320pt" version="1.1" viewBox="0 0 320 320" width="320pt" xmlns="http://www.w3.org/2000/svg" xmlns:xlink="http://www.w3.org/1999/xlink">
 <defs>
  <style type="text/css">
*{stroke-linecap:butt;stroke-linejoin:round;}
  </style>
 </defs>
 <g id="figure_1">
  <g id="patch_1">
   <path d="M 0 320 
L 320 320 
L 320 0 
L 0 0 
z
" style="fill:#ffffff;"/>
  </g>
  <g id="axes_1">
   <g id="patch_2">
    <path d="M 47.521676 133.837386 
L 164.395121 133.837386 
L 164.395121 16.963942 
L 47.521676 16.963942 
z
" style="fill:#eaeaf2;"/>
   </g>
   <g id="matplotlib.axis_1">
    <g id="xtick_1">
     <g id="line2d_1">
      <path clip-path="url(#pfacc386ed8)" d="M 47.521676 133.837386 
L 47.521676 16.963942 
" style="fill:none;stroke:#ffffff;stroke-linecap:round;"/>
     </g>
     <g id="line2d_2"/>
    </g>
    <g id="xtick_2">
     <g id="line2d_3">
      <path clip-path="url(#pfacc386ed8)" d="M 105.958398 133.837386 
L 105.958398 16.963942 
" style="fill:none;stroke:#ffffff;stroke-linecap:round;"/>
     </g>
     <g id="line2d_4"/>
    </g>
    <g id="xtick_3">
     <g id="line2d_5">
      <path clip-path="url(#pfacc386ed8)" d="M 164.395121 133.837386 
L 164.395121 16.963942 
" style="fill:none;stroke:#ffffff;stroke-linecap:round;"/>
     </g>
     <g id="line2d_6"/>
    </g>
   </g>
   <g id="matplotlib.axis_2">
    <g id="ytick_1">
     <g id="line2d_7">
      <path clip-path="url(#pfacc386ed8)" d="M 47.521676 133.837386 
L 164.395121 133.837386 
" style="fill:none;stroke:#ffffff;stroke-linecap:round;"/>
     </g>
     <g id="line2d_8"/>
     <g id="text_1">
      <!-- 0 -->
      <defs>
       <path d="M 4.15625 35.296875 
Q 4.15625 48 6.765625 55.734375 
Q 9.375 63.484375 14.515625 67.671875 
Q 19.671875 71.875 27.484375 71.875 
Q 33.25 71.875 37.59375 69.546875 
Q 41.9375 67.234375 44.765625 62.859375 
Q 47.609375 58.5 49.21875 52.21875 
Q 50.828125 45.953125 50.828125 35.296875 
Q 50.828125 22.703125 48.234375 14.96875 
Q 45.65625 7.234375 40.5 3 
Q 35.359375 -1.21875 27.484375 -1.21875 
Q 17.140625 -1.21875 11.234375 6.203125 
Q 4.15625 15.140625 4.15625 35.296875 
z
M 13.1875 35.296875 
Q 13.1875 17.671875 17.3125 11.828125 
Q 21.4375 6 27.484375 6 
Q 33.546875 6 37.671875 11.859375 
Q 41.796875 17.71875 41.796875 35.296875 
Q 41.796875 52.984375 37.671875 58.78125 
Q 33.546875 64.59375 27.390625 64.59375 
Q 21.34375 64.59375 17.71875 59.46875 
Q 13.1875 52.9375 13.1875 35.296875 
z
" id="ArialMT-48"/>
      </defs>
      <g style="fill:#262626;" transform="translate(34.960739 137.416293)scale(0.1 -0.1)">
       <use xlink:href="#ArialMT-48"/>
      </g>
     </g>
    </g>
    <g id="ytick_2">
     <g id="line2d_9">
      <path clip-path="url(#pfacc386ed8)" d="M 47.521676 110.462697 
L 164.395121 110.462697 
" style="fill:none;stroke:#ffffff;stroke-linecap:round;"/>
     </g>
     <g id="line2d_10"/>
     <g id="text_2">
      <!-- 2 -->
      <defs>
       <path d="M 50.34375 8.453125 
L 50.34375 0 
L 3.03125 0 
Q 2.9375 3.171875 4.046875 6.109375 
Q 5.859375 10.9375 9.828125 15.625 
Q 13.8125 20.3125 21.34375 26.46875 
Q 33.015625 36.03125 37.109375 41.625 
Q 41.21875 47.21875 41.21875 52.203125 
Q 41.21875 57.421875 37.46875 61 
Q 33.734375 64.59375 27.734375 64.59375 
Q 21.390625 64.59375 17.578125 60.78125 
Q 13.765625 56.984375 13.71875 50.25 
L 4.6875 51.171875 
Q 5.609375 61.28125 11.65625 66.578125 
Q 17.71875 71.875 27.9375 71.875 
Q 38.234375 71.875 44.234375 66.15625 
Q 50.25 60.453125 50.25 52 
Q 50.25 47.703125 48.484375 43.546875 
Q 46.734375 39.40625 42.65625 34.8125 
Q 38.578125 30.21875 29.109375 22.21875 
Q 21.1875 15.578125 18.9375 13.203125 
Q 16.703125 10.84375 15.234375 8.453125 
z
" id="ArialMT-50"/>
      </defs>
      <g style="fill:#262626;" transform="translate(34.960739 114.041604)scale(0.1 -0.1)">
       <use xlink:href="#ArialMT-50"/>
      </g>
     </g>
    </g>
    <g id="ytick_3">
     <g id="line2d_11">
      <path clip-path="url(#pfacc386ed8)" d="M 47.521676 87.088009 
L 164.395121 87.088009 
" style="fill:none;stroke:#ffffff;stroke-linecap:round;"/>
     </g>
     <g id="line2d_12"/>
     <g id="text_3">
      <!-- 4 -->
      <defs>
       <path d="M 32.328125 0 
L 32.328125 17.140625 
L 1.265625 17.140625 
L 1.265625 25.203125 
L 33.9375 71.578125 
L 41.109375 71.578125 
L 41.109375 25.203125 
L 50.78125 25.203125 
L 50.78125 17.140625 
L 41.109375 17.140625 
L 41.109375 0 
z
M 32.328125 25.203125 
L 32.328125 57.46875 
L 9.90625 25.203125 
z
" id="ArialMT-52"/>
      </defs>
      <g style="fill:#262626;" transform="translate(34.960739 90.666915)scale(0.1 -0.1)">
       <use xlink:href="#ArialMT-52"/>
      </g>
     </g>
    </g>
    <g id="ytick_4">
     <g id="line2d_13">
      <path clip-path="url(#pfacc386ed8)" d="M 47.521676 63.71332 
L 164.395121 63.71332 
" style="fill:none;stroke:#ffffff;stroke-linecap:round;"/>
     </g>
     <g id="line2d_14"/>
     <g id="text_4">
      <!-- 6 -->
      <defs>
       <path d="M 49.75 54.046875 
L 41.015625 53.375 
Q 39.84375 58.546875 37.703125 60.890625 
Q 34.125 64.65625 28.90625 64.65625 
Q 24.703125 64.65625 21.53125 62.3125 
Q 17.390625 59.28125 14.984375 53.46875 
Q 12.59375 47.65625 12.5 36.921875 
Q 15.671875 41.75 20.265625 44.09375 
Q 24.859375 46.4375 29.890625 46.4375 
Q 38.671875 46.4375 44.84375 39.96875 
Q 51.03125 33.5 51.03125 23.25 
Q 51.03125 16.5 48.125 10.71875 
Q 45.21875 4.9375 40.140625 1.859375 
Q 35.0625 -1.21875 28.609375 -1.21875 
Q 17.625 -1.21875 10.6875 6.859375 
Q 3.765625 14.9375 3.765625 33.5 
Q 3.765625 54.25 11.421875 63.671875 
Q 18.109375 71.875 29.4375 71.875 
Q 37.890625 71.875 43.28125 67.140625 
Q 48.6875 62.40625 49.75 54.046875 
z
M 13.875 23.1875 
Q 13.875 18.65625 15.796875 14.5 
Q 17.71875 10.359375 21.1875 8.171875 
Q 24.65625 6 28.46875 6 
Q 34.03125 6 38.03125 10.484375 
Q 42.046875 14.984375 42.046875 22.703125 
Q 42.046875 30.125 38.078125 34.390625 
Q 34.125 38.671875 28.125 38.671875 
Q 22.171875 38.671875 18.015625 34.390625 
Q 13.875 30.125 13.875 23.1875 
z
" id="ArialMT-54"/>
      </defs>
      <g style="fill:#262626;" transform="translate(34.960739 67.292226)scale(0.1 -0.1)">
       <use xlink:href="#ArialMT-54"/>
      </g>
     </g>
    </g>
    <g id="ytick_5">
     <g id="line2d_15">
      <path clip-path="url(#pfacc386ed8)" d="M 47.521676 40.338631 
L 164.395121 40.338631 
" style="fill:none;stroke:#ffffff;stroke-linecap:round;"/>
     </g>
     <g id="line2d_16"/>
     <g id="text_5">
      <!-- 8 -->
      <defs>
       <path d="M 17.671875 38.8125 
Q 12.203125 40.828125 9.5625 44.53125 
Q 6.9375 48.25 6.9375 53.421875 
Q 6.9375 61.234375 12.546875 66.546875 
Q 18.171875 71.875 27.484375 71.875 
Q 36.859375 71.875 42.578125 66.421875 
Q 48.296875 60.984375 48.296875 53.171875 
Q 48.296875 48.1875 45.671875 44.5 
Q 43.0625 40.828125 37.75 38.8125 
Q 44.34375 36.671875 47.78125 31.875 
Q 51.21875 27.09375 51.21875 20.453125 
Q 51.21875 11.28125 44.71875 5.03125 
Q 38.234375 -1.21875 27.640625 -1.21875 
Q 17.046875 -1.21875 10.546875 5.046875 
Q 4.046875 11.328125 4.046875 20.703125 
Q 4.046875 27.6875 7.59375 32.390625 
Q 11.140625 37.109375 17.671875 38.8125 
z
M 15.921875 53.71875 
Q 15.921875 48.640625 19.1875 45.40625 
Q 22.46875 42.1875 27.6875 42.1875 
Q 32.765625 42.1875 36.015625 45.375 
Q 39.265625 48.578125 39.265625 53.21875 
Q 39.265625 58.0625 35.90625 61.359375 
Q 32.5625 64.65625 27.59375 64.65625 
Q 22.5625 64.65625 19.234375 61.421875 
Q 15.921875 58.203125 15.921875 53.71875 
z
M 13.09375 20.65625 
Q 13.09375 16.890625 14.875 13.375 
Q 16.65625 9.859375 20.171875 7.921875 
Q 23.6875 6 27.734375 6 
Q 34.03125 6 38.125 10.046875 
Q 42.234375 14.109375 42.234375 20.359375 
Q 42.234375 26.703125 38.015625 30.859375 
Q 33.796875 35.015625 27.4375 35.015625 
Q 21.234375 35.015625 17.15625 30.90625 
Q 13.09375 26.8125 13.09375 20.65625 
z
" id="ArialMT-56"/>
      </defs>
      <g style="fill:#262626;" transform="translate(34.960739 43.917537)scale(0.1 -0.1)">
       <use xlink:href="#ArialMT-56"/>
      </g>
     </g>
    </g>
    <g id="ytick_6">
     <g id="line2d_17">
      <path clip-path="url(#pfacc386ed8)" d="M 47.521676 16.963942 
L 164.395121 16.963942 
" style="fill:none;stroke:#ffffff;stroke-linecap:round;"/>
     </g>
     <g id="line2d_18"/>
     <g id="text_6">
      <!-- 10 -->
      <defs>
       <path d="M 37.25 0 
L 28.46875 0 
L 28.46875 56 
Q 25.296875 52.984375 20.140625 49.953125 
Q 14.984375 46.921875 10.890625 45.40625 
L 10.890625 53.90625 
Q 18.265625 57.375 23.78125 62.296875 
Q 29.296875 67.234375 31.59375 71.875 
L 37.25 71.875 
z
" id="ArialMT-49"/>
      </defs>
      <g style="fill:#262626;" transform="translate(29.399801 20.542848)scale(0.1 -0.1)">
       <use xlink:href="#ArialMT-49"/>
       <use x="55.615234" xlink:href="#ArialMT-48"/>
      </g>
     </g>
    </g>
    <g id="text_7">
     <!-- y -->
     <defs>
      <path d="M 6.203125 -19.96875 
L 5.21875 -11.71875 
Q 8.109375 -12.5 10.25 -12.5 
Q 13.1875 -12.5 14.9375 -11.515625 
Q 16.703125 -10.546875 17.828125 -8.796875 
Q 18.65625 -7.46875 20.515625 -2.25 
Q 20.75 -1.515625 21.296875 -0.09375 
L 1.609375 51.859375 
L 11.078125 51.859375 
L 21.875 21.828125 
Q 23.96875 16.109375 25.640625 9.8125 
Q 27.15625 15.875 29.25 21.625 
L 40.328125 51.859375 
L 49.125 51.859375 
L 29.390625 -0.875 
Q 26.21875 -9.421875 24.46875 -12.640625 
Q 22.125 -17 19.09375 -19.015625 
Q 16.0625 -21.046875 11.859375 -21.046875 
Q 9.328125 -21.046875 6.203125 -19.96875 
z
" id="ArialMT-121"/>
     </defs>
     <g style="fill:#262626;" transform="translate(22.453239 78.900664)rotate(-90)scale(0.14 -0.14)">
      <use xlink:href="#ArialMT-121"/>
     </g>
    </g>
   </g>
   <g id="line2d_19">
    <defs>
     <path d="M 0 1.75 
C 0.464105 1.75 0.909265 1.565609 1.237437 1.237437 
C 1.565609 0.909265 1.75 0.464105 1.75 0 
C 1.75 -0.464105 1.565609 -0.909265 1.237437 -1.237437 
C 0.909265 -1.565609 0.464105 -1.75 0 -1.75 
C -0.464105 -1.75 -0.909265 -1.565609 -1.237437 -1.237437 
C -1.565609 -0.909265 -1.75 -0.464105 -1.75 0 
C -1.75 0.464105 -1.565609 0.909265 -1.237437 1.237437 
C -0.909265 1.565609 -0.464105 1.75 0 1.75 
z
" id="m99ffe57e29"/>
    </defs>
    <g clip-path="url(#pfacc386ed8)">
     <use style="fill:#4c72b0;" x="111.147045" xlink:href="#m99ffe57e29" y="71.892864"/>
     <use style="fill:#4c72b0;" x="104.67028" xlink:href="#m99ffe57e29" y="64.31308"/>
     <use style="fill:#4c72b0;" x="122.27034" xlink:href="#m99ffe57e29" y="65.311821"/>
     <use style="fill:#4c72b0;" x="86.294178" xlink:href="#m99ffe57e29" y="88.551186"/>
     <use style="fill:#4c72b0;" x="93.842185" xlink:href="#m99ffe57e29" y="73.451223"/>
     <use style="fill:#4c72b0;" x="103.852702" xlink:href="#m99ffe57e29" y="74.068971"/>
     <use style="fill:#4c72b0;" x="95.849847" xlink:href="#m99ffe57e29" y="73.712785"/>
     <use style="fill:#4c72b0;" x="114.127897" xlink:href="#m99ffe57e29" y="69.012709"/>
     <use style="fill:#4c72b0;" x="105.806774" xlink:href="#m99ffe57e29" y="68.976846"/>
     <use style="fill:#4c72b0;" x="115.877684" xlink:href="#m99ffe57e29" y="82.47133"/>
     <use style="fill:#4c72b0;" x="103.131943" xlink:href="#m99ffe57e29" y="76.775289"/>
     <use style="fill:#4c72b0;" x="97.25197" xlink:href="#m99ffe57e29" y="67.148373"/>
     <use style="fill:#4c72b0;" x="95.519521" xlink:href="#m99ffe57e29" y="80.298508"/>
     <use style="fill:#4c72b0;" x="96.934834" xlink:href="#m99ffe57e29" y="88.573546"/>
     <use style="fill:#4c72b0;" x="106.692191" xlink:href="#m99ffe57e29" y="56.391995"/>
     <use style="fill:#4c72b0;" x="107.894828" xlink:href="#m99ffe57e29" y="77.733759"/>
     <use style="fill:#4c72b0;" x="114.902302" xlink:href="#m99ffe57e29" y="72.232471"/>
     <use style="fill:#4c72b0;" x="114.13389" xlink:href="#m99ffe57e29" y="64.437823"/>
     <use style="fill:#4c72b0;" x="119.839989" xlink:href="#m99ffe57e29" y="68.894498"/>
     <use style="fill:#4c72b0;" x="108.791914" xlink:href="#m99ffe57e29" y="79.304848"/>
     <use style="fill:#4c72b0;" x="91.95405" xlink:href="#m99ffe57e29" y="76.460497"/>
     <use style="fill:#4c72b0;" x="108.306843" xlink:href="#m99ffe57e29" y="78.848876"/>
     <use style="fill:#4c72b0;" x="100.223533" xlink:href="#m99ffe57e29" y="77.581369"/>
     <use style="fill:#4c72b0;" x="101.622514" xlink:href="#m99ffe57e29" y="71.193455"/>
     <use style="fill:#4c72b0;" x="102.591083" xlink:href="#m99ffe57e29" y="69.489646"/>
     <use style="fill:#4c72b0;" x="116.676147" xlink:href="#m99ffe57e29" y="69.102983"/>
     <use style="fill:#4c72b0;" x="113.124973" xlink:href="#m99ffe57e29" y="82.997749"/>
     <use style="fill:#4c72b0;" x="123.439108" xlink:href="#m99ffe57e29" y="85.009741"/>
     <use style="fill:#4c72b0;" x="91.663639" xlink:href="#m99ffe57e29" y="81.258861"/>
     <use style="fill:#4c72b0;" x="93.630404" xlink:href="#m99ffe57e29" y="94.745962"/>
     <use style="fill:#4c72b0;" x="102.635862" xlink:href="#m99ffe57e29" y="79.848945"/>
     <use style="fill:#4c72b0;" x="97.888826" xlink:href="#m99ffe57e29" y="85.825015"/>
     <use style="fill:#4c72b0;" x="100.852282" xlink:href="#m99ffe57e29" y="94.453558"/>
     <use style="fill:#4c72b0;" x="102.515151" xlink:href="#m99ffe57e29" y="81.148735"/>
     <use style="fill:#4c72b0;" x="114.055395" xlink:href="#m99ffe57e29" y="67.579545"/>
     <use style="fill:#4c72b0;" x="117.58176" xlink:href="#m99ffe57e29" y="61.065247"/>
     <use style="fill:#4c72b0;" x="108.928007" xlink:href="#m99ffe57e29" y="85.983526"/>
     <use style="fill:#4c72b0;" x="118.035248" xlink:href="#m99ffe57e29" y="61.02449"/>
     <use style="fill:#4c72b0;" x="100.807739" xlink:href="#m99ffe57e29" y="81.503706"/>
     <use style="fill:#4c72b0;" x="101.293406" xlink:href="#m99ffe57e29" y="82.70718"/>
     <use style="fill:#4c72b0;" x="100.817312" xlink:href="#m99ffe57e29" y="68.938786"/>
     <use style="fill:#4c72b0;" x="106.47931" xlink:href="#m99ffe57e29" y="63.909362"/>
     <use style="fill:#4c72b0;" x="96.949188" xlink:href="#m99ffe57e29" y="76.436348"/>
     <use style="fill:#4c72b0;" x="108.68706" xlink:href="#m99ffe57e29" y="70.857878"/>
     <use style="fill:#4c72b0;" x="112.562062" xlink:href="#m99ffe57e29" y="60.646176"/>
     <use style="fill:#4c72b0;" x="107.501658" xlink:href="#m99ffe57e29" y="96.547362"/>
     <use style="fill:#4c72b0;" x="117.897913" xlink:href="#m99ffe57e29" y="79.91434"/>
     <use style="fill:#4c72b0;" x="126.68246" xlink:href="#m99ffe57e29" y="54.886125"/>
     <use style="fill:#4c72b0;" x="122.201464" xlink:href="#m99ffe57e29" y="67.414616"/>
     <use style="fill:#4c72b0;" x="88.244016" xlink:href="#m99ffe57e29" y="70.201385"/>
    </g>
   </g>
   <g id="patch_3">
    <path d="M 47.521676 133.837386 
L 47.521676 16.963942 
" style="fill:none;"/>
   </g>
   <g id="patch_4">
    <path d="M 164.395121 133.837386 
L 164.395121 16.963942 
" style="fill:none;"/>
   </g>
   <g id="patch_5">
    <path d="M 47.521676 133.837386 
L 164.395121 133.837386 
" style="fill:none;"/>
   </g>
   <g id="patch_6">
    <path d="M 47.521676 16.963942 
L 164.395121 16.963942 
" style="fill:none;"/>
   </g>
   <g id="text_8">
    <!-- (a) -->
    <defs>
     <path d="M 23.390625 -21.046875 
Q 16.109375 -11.859375 11.078125 0.4375 
Q 6.0625 12.75 6.0625 25.921875 
Q 6.0625 37.546875 9.8125 48.1875 
Q 14.203125 60.546875 23.390625 72.796875 
L 29.6875 72.796875 
Q 23.78125 62.640625 21.875 58.296875 
Q 18.890625 51.5625 17.1875 44.234375 
Q 15.09375 35.109375 15.09375 25.875 
Q 15.09375 2.390625 29.6875 -21.046875 
z
" id="ArialMT-40"/>
     <path d="M 40.4375 6.390625 
Q 35.546875 2.25 31.03125 0.53125 
Q 26.515625 -1.171875 21.34375 -1.171875 
Q 12.796875 -1.171875 8.203125 3 
Q 3.609375 7.171875 3.609375 13.671875 
Q 3.609375 17.484375 5.34375 20.625 
Q 7.078125 23.78125 9.890625 25.6875 
Q 12.703125 27.59375 16.21875 28.5625 
Q 18.796875 29.25 24.03125 29.890625 
Q 34.671875 31.15625 39.703125 32.90625 
Q 39.75 34.71875 39.75 35.203125 
Q 39.75 40.578125 37.25 42.78125 
Q 33.890625 45.75 27.25 45.75 
Q 21.046875 45.75 18.09375 43.578125 
Q 15.140625 41.40625 13.71875 35.890625 
L 5.125 37.0625 
Q 6.296875 42.578125 8.984375 45.96875 
Q 11.671875 49.359375 16.75 51.1875 
Q 21.828125 53.03125 28.515625 53.03125 
Q 35.15625 53.03125 39.296875 51.46875 
Q 43.453125 49.90625 45.40625 47.53125 
Q 47.359375 45.171875 48.140625 41.546875 
Q 48.578125 39.3125 48.578125 33.453125 
L 48.578125 21.734375 
Q 48.578125 9.46875 49.140625 6.21875 
Q 49.703125 2.984375 51.375 0 
L 42.1875 0 
Q 40.828125 2.734375 40.4375 6.390625 
z
M 39.703125 26.03125 
Q 34.90625 24.078125 25.34375 22.703125 
Q 19.921875 21.921875 17.671875 20.9375 
Q 15.4375 19.96875 14.203125 18.09375 
Q 12.984375 16.21875 12.984375 13.921875 
Q 12.984375 10.40625 15.640625 8.0625 
Q 18.3125 5.71875 23.4375 5.71875 
Q 28.515625 5.71875 32.46875 7.9375 
Q 36.421875 10.15625 38.28125 14.015625 
Q 39.703125 17 39.703125 22.796875 
z
" id="ArialMT-97"/>
     <path d="M 12.359375 -21.046875 
L 6.0625 -21.046875 
Q 20.65625 2.390625 20.65625 25.875 
Q 20.65625 35.0625 18.5625 44.09375 
Q 16.890625 51.421875 13.921875 58.15625 
Q 12.015625 62.546875 6.0625 72.796875 
L 12.359375 72.796875 
Q 21.53125 60.546875 25.921875 48.1875 
Q 29.6875 37.546875 29.6875 25.921875 
Q 29.6875 12.75 24.625 0.4375 
Q 19.578125 -11.859375 12.359375 -21.046875 
z
" id="ArialMT-41"/>
    </defs>
    <g style="fill:#262626;" transform="translate(50.443512 34.494958)scale(0.16 -0.16)">
     <use xlink:href="#ArialMT-40"/>
     <use x="33.300781" xlink:href="#ArialMT-97"/>
     <use x="88.916016" xlink:href="#ArialMT-41"/>
    </g>
   </g>
  </g>
  <g id="axes_2">
   <g id="patch_7">
    <path d="M 184.969254 133.837386 
L 301.842699 133.837386 
L 301.842699 16.963942 
L 184.969254 16.963942 
z
" style="fill:#eaeaf2;"/>
   </g>
   <g id="matplotlib.axis_3">
    <g id="xtick_4">
     <g id="line2d_20">
      <path clip-path="url(#p93cd60d165)" d="M 184.969254 133.837386 
L 184.969254 16.963942 
" style="fill:none;stroke:#ffffff;stroke-linecap:round;"/>
     </g>
     <g id="line2d_21"/>
    </g>
    <g id="xtick_5">
     <g id="line2d_22">
      <path clip-path="url(#p93cd60d165)" d="M 243.405977 133.837386 
L 243.405977 16.963942 
" style="fill:none;stroke:#ffffff;stroke-linecap:round;"/>
     </g>
     <g id="line2d_23"/>
    </g>
    <g id="xtick_6">
     <g id="line2d_24">
      <path clip-path="url(#p93cd60d165)" d="M 301.842699 133.837386 
L 301.842699 16.963942 
" style="fill:none;stroke:#ffffff;stroke-linecap:round;"/>
     </g>
     <g id="line2d_25"/>
    </g>
   </g>
   <g id="matplotlib.axis_4">
    <g id="ytick_7">
     <g id="line2d_26">
      <path clip-path="url(#p93cd60d165)" d="M 184.969254 133.837386 
L 301.842699 133.837386 
" style="fill:none;stroke:#ffffff;stroke-linecap:round;"/>
     </g>
     <g id="line2d_27"/>
    </g>
    <g id="ytick_8">
     <g id="line2d_28">
      <path clip-path="url(#p93cd60d165)" d="M 184.969254 110.462697 
L 301.842699 110.462697 
" style="fill:none;stroke:#ffffff;stroke-linecap:round;"/>
     </g>
     <g id="line2d_29"/>
    </g>
    <g id="ytick_9">
     <g id="line2d_30">
      <path clip-path="url(#p93cd60d165)" d="M 184.969254 87.088009 
L 301.842699 87.088009 
" style="fill:none;stroke:#ffffff;stroke-linecap:round;"/>
     </g>
     <g id="line2d_31"/>
    </g>
    <g id="ytick_10">
     <g id="line2d_32">
      <path clip-path="url(#p93cd60d165)" d="M 184.969254 63.71332 
L 301.842699 63.71332 
" style="fill:none;stroke:#ffffff;stroke-linecap:round;"/>
     </g>
     <g id="line2d_33"/>
    </g>
    <g id="ytick_11">
     <g id="line2d_34">
      <path clip-path="url(#p93cd60d165)" d="M 184.969254 40.338631 
L 301.842699 40.338631 
" style="fill:none;stroke:#ffffff;stroke-linecap:round;"/>
     </g>
     <g id="line2d_35"/>
    </g>
    <g id="ytick_12">
     <g id="line2d_36">
      <path clip-path="url(#p93cd60d165)" d="M 184.969254 16.963942 
L 301.842699 16.963942 
" style="fill:none;stroke:#ffffff;stroke-linecap:round;"/>
     </g>
     <g id="line2d_37"/>
    </g>
   </g>
   <g id="line2d_38">
    <g clip-path="url(#p93cd60d165)">
     <use style="fill:#4c72b0;" x="239.59627" xlink:href="#m99ffe57e29" y="78.602588"/>
     <use style="fill:#4c72b0;" x="233.827949" xlink:href="#m99ffe57e29" y="80.213727"/>
     <use style="fill:#4c72b0;" x="241.645324" xlink:href="#m99ffe57e29" y="74.919261"/>
     <use style="fill:#4c72b0;" x="232.571585" xlink:href="#m99ffe57e29" y="71.932242"/>
     <use style="fill:#4c72b0;" x="243.415049" xlink:href="#m99ffe57e29" y="76.535844"/>
     <use style="fill:#4c72b0;" x="250.408208" xlink:href="#m99ffe57e29" y="71.480655"/>
     <use style="fill:#4c72b0;" x="254.916159" xlink:href="#m99ffe57e29" y="91.692836"/>
     <use style="fill:#4c72b0;" x="236.430835" xlink:href="#m99ffe57e29" y="74.647712"/>
     <use style="fill:#4c72b0;" x="241.525562" xlink:href="#m99ffe57e29" y="93.660546"/>
     <use style="fill:#4c72b0;" x="253.645586" xlink:href="#m99ffe57e29" y="93.309539"/>
     <use style="fill:#4c72b0;" x="247.43006" xlink:href="#m99ffe57e29" y="81.18131"/>
     <use style="fill:#4c72b0;" x="251.438322" xlink:href="#m99ffe57e29" y="80.369232"/>
     <use style="fill:#4c72b0;" x="235.52587" xlink:href="#m99ffe57e29" y="65.008295"/>
     <use style="fill:#4c72b0;" x="233.291655" xlink:href="#m99ffe57e29" y="75.356996"/>
     <use style="fill:#4c72b0;" x="248.786432" xlink:href="#m99ffe57e29" y="83.694326"/>
     <use style="fill:#4c72b0;" x="214.420094" xlink:href="#m99ffe57e29" y="43.458673"/>
     <use style="fill:#4c72b0;" x="242.726385" xlink:href="#m99ffe57e29" y="72.09868"/>
     <use style="fill:#4c72b0;" x="243.99131" xlink:href="#m99ffe57e29" y="78.577437"/>
     <use style="fill:#4c72b0;" x="229.679268" xlink:href="#m99ffe57e29" y="60.240738"/>
     <use style="fill:#4c72b0;" x="242.755212" xlink:href="#m99ffe57e29" y="74.022126"/>
     <use style="fill:#4c72b0;" x="239.144106" xlink:href="#m99ffe57e29" y="74.275038"/>
     <use style="fill:#4c72b0;" x="254.968255" xlink:href="#m99ffe57e29" y="79.62004"/>
     <use style="fill:#4c72b0;" x="238.978357" xlink:href="#m99ffe57e29" y="64.622761"/>
     <use style="fill:#4c72b0;" x="239.125513" xlink:href="#m99ffe57e29" y="68.982543"/>
     <use style="fill:#4c72b0;" x="258.044299" xlink:href="#m99ffe57e29" y="95.326798"/>
     <use style="fill:#4c72b0;" x="248.025648" xlink:href="#m99ffe57e29" y="78.106674"/>
     <use style="fill:#4c72b0;" x="256.561077" xlink:href="#m99ffe57e29" y="75.184585"/>
     <use style="fill:#4c72b0;" x="258.734677" xlink:href="#m99ffe57e29" y="86.960866"/>
     <use style="fill:#4c72b0;" x="246.653787" xlink:href="#m99ffe57e29" y="87.40073"/>
     <use style="fill:#4c72b0;" x="249.214986" xlink:href="#m99ffe57e29" y="82.750068"/>
     <use style="fill:#4c72b0;" x="249.625019" xlink:href="#m99ffe57e29" y="74.972597"/>
     <use style="fill:#4c72b0;" x="241.405228" xlink:href="#m99ffe57e29" y="73.715088"/>
     <use style="fill:#4c72b0;" x="233.002824" xlink:href="#m99ffe57e29" y="69.492165"/>
     <use style="fill:#4c72b0;" x="234.159928" xlink:href="#m99ffe57e29" y="51.532352"/>
     <use style="fill:#4c72b0;" x="241.857569" xlink:href="#m99ffe57e29" y="84.924142"/>
     <use style="fill:#4c72b0;" x="241.313718" xlink:href="#m99ffe57e29" y="60.682067"/>
     <use style="fill:#4c72b0;" x="239.919225" xlink:href="#m99ffe57e29" y="83.441525"/>
     <use style="fill:#4c72b0;" x="241.597701" xlink:href="#m99ffe57e29" y="75.742674"/>
     <use style="fill:#4c72b0;" x="243.130334" xlink:href="#m99ffe57e29" y="67.792214"/>
     <use style="fill:#4c72b0;" x="254.260913" xlink:href="#m99ffe57e29" y="87.634282"/>
     <use style="fill:#4c72b0;" x="257.613009" xlink:href="#m99ffe57e29" y="91.428868"/>
     <use style="fill:#4c72b0;" x="241.953034" xlink:href="#m99ffe57e29" y="67.171005"/>
     <use style="fill:#4c72b0;" x="253.293943" xlink:href="#m99ffe57e29" y="70.894451"/>
     <use style="fill:#4c72b0;" x="238.927725" xlink:href="#m99ffe57e29" y="64.351403"/>
     <use style="fill:#4c72b0;" x="242.222738" xlink:href="#m99ffe57e29" y="83.524153"/>
     <use style="fill:#4c72b0;" x="231.933598" xlink:href="#m99ffe57e29" y="55.659474"/>
     <use style="fill:#4c72b0;" x="270.078417" xlink:href="#m99ffe57e29" y="86.303697"/>
     <use style="fill:#4c72b0;" x="253.069459" xlink:href="#m99ffe57e29" y="84.392076"/>
     <use style="fill:#4c72b0;" x="232.807211" xlink:href="#m99ffe57e29" y="69.21264"/>
     <use style="fill:#4c72b0;" x="237.341948" xlink:href="#m99ffe57e29" y="81.223699"/>
    </g>
   </g>
   <g id="patch_8">
    <path d="M 184.969254 133.837386 
L 184.969254 16.963942 
" style="fill:none;"/>
   </g>
   <g id="patch_9">
    <path d="M 301.842699 133.837386 
L 301.842699 16.963942 
" style="fill:none;"/>
   </g>
   <g id="patch_10">
    <path d="M 184.969254 133.837386 
L 301.842699 133.837386 
" style="fill:none;"/>
   </g>
   <g id="patch_11">
    <path d="M 184.969254 16.963942 
L 301.842699 16.963942 
" style="fill:none;"/>
   </g>
   <g id="text_9">
    <!-- (b) -->
    <defs>
     <path d="M 14.703125 0 
L 6.546875 0 
L 6.546875 71.578125 
L 15.328125 71.578125 
L 15.328125 46.046875 
Q 20.90625 53.03125 29.546875 53.03125 
Q 34.328125 53.03125 38.59375 51.09375 
Q 42.875 49.171875 45.625 45.671875 
Q 48.390625 42.1875 49.953125 37.25 
Q 51.515625 32.328125 51.515625 26.703125 
Q 51.515625 13.375 44.921875 6.09375 
Q 38.328125 -1.171875 29.109375 -1.171875 
Q 19.921875 -1.171875 14.703125 6.5 
z
M 14.59375 26.3125 
Q 14.59375 17 17.140625 12.84375 
Q 21.296875 6.0625 28.375 6.0625 
Q 34.125 6.0625 38.328125 11.0625 
Q 42.53125 16.0625 42.53125 25.984375 
Q 42.53125 36.140625 38.5 40.96875 
Q 34.46875 45.796875 28.765625 45.796875 
Q 23 45.796875 18.796875 40.796875 
Q 14.59375 35.796875 14.59375 26.3125 
z
" id="ArialMT-98"/>
    </defs>
    <g style="fill:#262626;" transform="translate(187.89109 34.494958)scale(0.16 -0.16)">
     <use xlink:href="#ArialMT-40"/>
     <use x="33.300781" xlink:href="#ArialMT-98"/>
     <use x="88.916016" xlink:href="#ArialMT-41"/>
    </g>
   </g>
  </g>
  <g id="axes_3">
   <g id="patch_12">
    <path d="M 47.521676 273.666214 
L 164.395121 273.666214 
L 164.395121 156.79277 
L 47.521676 156.79277 
z
" style="fill:#eaeaf2;"/>
   </g>
   <g id="matplotlib.axis_5">
    <g id="xtick_7">
     <g id="line2d_39">
      <path clip-path="url(#p233e0fc4bc)" d="M 47.521676 273.666214 
L 47.521676 156.79277 
" style="fill:none;stroke:#ffffff;stroke-linecap:round;"/>
     </g>
     <g id="line2d_40"/>
     <g id="text_10">
      <!-- 0 -->
      <g style="fill:#262626;" transform="translate(44.741207 287.824027)scale(0.1 -0.1)">
       <use xlink:href="#ArialMT-48"/>
      </g>
     </g>
    </g>
    <g id="xtick_8">
     <g id="line2d_41">
      <path clip-path="url(#p233e0fc4bc)" d="M 105.958398 273.666214 
L 105.958398 156.79277 
" style="fill:none;stroke:#ffffff;stroke-linecap:round;"/>
     </g>
     <g id="line2d_42"/>
     <g id="text_11">
      <!-- 5 -->
      <defs>
       <path d="M 4.15625 18.75 
L 13.375 19.53125 
Q 14.40625 12.796875 18.140625 9.390625 
Q 21.875 6 27.15625 6 
Q 33.5 6 37.890625 10.78125 
Q 42.28125 15.578125 42.28125 23.484375 
Q 42.28125 31 38.0625 35.34375 
Q 33.84375 39.703125 27 39.703125 
Q 22.75 39.703125 19.328125 37.765625 
Q 15.921875 35.84375 13.96875 32.765625 
L 5.71875 33.84375 
L 12.640625 70.609375 
L 48.25 70.609375 
L 48.25 62.203125 
L 19.671875 62.203125 
L 15.828125 42.96875 
Q 22.265625 47.46875 29.34375 47.46875 
Q 38.71875 47.46875 45.15625 40.96875 
Q 51.609375 34.46875 51.609375 24.265625 
Q 51.609375 14.546875 45.953125 7.46875 
Q 39.0625 -1.21875 27.15625 -1.21875 
Q 17.390625 -1.21875 11.203125 4.25 
Q 5.03125 9.71875 4.15625 18.75 
z
" id="ArialMT-53"/>
      </defs>
      <g style="fill:#262626;" transform="translate(103.17793 287.824027)scale(0.1 -0.1)">
       <use xlink:href="#ArialMT-53"/>
      </g>
     </g>
    </g>
    <g id="xtick_9">
     <g id="line2d_43">
      <path clip-path="url(#p233e0fc4bc)" d="M 164.395121 273.666214 
L 164.395121 156.79277 
" style="fill:none;stroke:#ffffff;stroke-linecap:round;"/>
     </g>
     <g id="line2d_44"/>
     <g id="text_12">
      <!-- 10 -->
      <g style="fill:#262626;" transform="translate(158.834183 287.824027)scale(0.1 -0.1)">
       <use xlink:href="#ArialMT-49"/>
       <use x="55.615234" xlink:href="#ArialMT-48"/>
      </g>
     </g>
    </g>
    <g id="text_13">
     <!-- x -->
     <defs>
      <path d="M 0.734375 0 
L 19.671875 26.953125 
L 2.15625 51.859375 
L 13.140625 51.859375 
L 21.09375 39.703125 
Q 23.34375 36.234375 24.703125 33.890625 
Q 26.859375 37.109375 28.65625 39.59375 
L 37.40625 51.859375 
L 47.90625 51.859375 
L 29.984375 27.4375 
L 49.265625 0 
L 38.484375 0 
L 27.828125 16.109375 
L 25 20.453125 
L 11.375 0 
z
" id="ArialMT-120"/>
     </defs>
     <g style="fill:#262626;" transform="translate(102.458398 303.832464)scale(0.14 -0.14)">
      <use xlink:href="#ArialMT-120"/>
     </g>
    </g>
   </g>
   <g id="matplotlib.axis_6">
    <g id="ytick_13">
     <g id="line2d_45">
      <path clip-path="url(#p233e0fc4bc)" d="M 47.521676 273.666214 
L 164.395121 273.666214 
" style="fill:none;stroke:#ffffff;stroke-linecap:round;"/>
     </g>
     <g id="line2d_46"/>
     <g id="text_14">
      <!-- 0 -->
      <g style="fill:#262626;" transform="translate(34.960739 277.245121)scale(0.1 -0.1)">
       <use xlink:href="#ArialMT-48"/>
      </g>
     </g>
    </g>
    <g id="ytick_14">
     <g id="line2d_47">
      <path clip-path="url(#p233e0fc4bc)" d="M 47.521676 250.291526 
L 164.395121 250.291526 
" style="fill:none;stroke:#ffffff;stroke-linecap:round;"/>
     </g>
     <g id="line2d_48"/>
     <g id="text_15">
      <!-- 2 -->
      <g style="fill:#262626;" transform="translate(34.960739 253.870432)scale(0.1 -0.1)">
       <use xlink:href="#ArialMT-50"/>
      </g>
     </g>
    </g>
    <g id="ytick_15">
     <g id="line2d_49">
      <path clip-path="url(#p233e0fc4bc)" d="M 47.521676 226.916837 
L 164.395121 226.916837 
" style="fill:none;stroke:#ffffff;stroke-linecap:round;"/>
     </g>
     <g id="line2d_50"/>
     <g id="text_16">
      <!-- 4 -->
      <g style="fill:#262626;" transform="translate(34.960739 230.495743)scale(0.1 -0.1)">
       <use xlink:href="#ArialMT-52"/>
      </g>
     </g>
    </g>
    <g id="ytick_16">
     <g id="line2d_51">
      <path clip-path="url(#p233e0fc4bc)" d="M 47.521676 203.542148 
L 164.395121 203.542148 
" style="fill:none;stroke:#ffffff;stroke-linecap:round;"/>
     </g>
     <g id="line2d_52"/>
     <g id="text_17">
      <!-- 6 -->
      <g style="fill:#262626;" transform="translate(34.960739 207.121054)scale(0.1 -0.1)">
       <use xlink:href="#ArialMT-54"/>
      </g>
     </g>
    </g>
    <g id="ytick_17">
     <g id="line2d_53">
      <path clip-path="url(#p233e0fc4bc)" d="M 47.521676 180.167459 
L 164.395121 180.167459 
" style="fill:none;stroke:#ffffff;stroke-linecap:round;"/>
     </g>
     <g id="line2d_54"/>
     <g id="text_18">
      <!-- 8 -->
      <g style="fill:#262626;" transform="translate(34.960739 183.746365)scale(0.1 -0.1)">
       <use xlink:href="#ArialMT-56"/>
      </g>
     </g>
    </g>
    <g id="ytick_18">
     <g id="line2d_55">
      <path clip-path="url(#p233e0fc4bc)" d="M 47.521676 156.79277 
L 164.395121 156.79277 
" style="fill:none;stroke:#ffffff;stroke-linecap:round;"/>
     </g>
     <g id="line2d_56"/>
     <g id="text_19">
      <!-- 10 -->
      <g style="fill:#262626;" transform="translate(29.399801 160.371676)scale(0.1 -0.1)">
       <use xlink:href="#ArialMT-49"/>
       <use x="55.615234" xlink:href="#ArialMT-48"/>
      </g>
     </g>
    </g>
    <g id="text_20">
     <!-- y -->
     <g style="fill:#262626;" transform="translate(22.453239 218.729492)rotate(-90)scale(0.14 -0.14)">
      <use xlink:href="#ArialMT-121"/>
     </g>
    </g>
   </g>
   <g id="line2d_57">
    <g clip-path="url(#p233e0fc4bc)">
     <use style="fill:#4c72b0;" x="96.932216" xlink:href="#m99ffe57e29" y="225.662412"/>
     <use style="fill:#4c72b0;" x="100.824638" xlink:href="#m99ffe57e29" y="215.965256"/>
     <use style="fill:#4c72b0;" x="99.79155" xlink:href="#m99ffe57e29" y="218.309397"/>
     <use style="fill:#4c72b0;" x="91.003681" xlink:href="#m99ffe57e29" y="223.821069"/>
     <use style="fill:#4c72b0;" x="110.235128" xlink:href="#m99ffe57e29" y="215.446869"/>
     <use style="fill:#4c72b0;" x="102.120973" xlink:href="#m99ffe57e29" y="223.677543"/>
     <use style="fill:#4c72b0;" x="104.63009" xlink:href="#m99ffe57e29" y="214.503755"/>
     <use style="fill:#4c72b0;" x="88.641694" xlink:href="#m99ffe57e29" y="227.800404"/>
     <use style="fill:#4c72b0;" x="106.470211" xlink:href="#m99ffe57e29" y="205.654117"/>
     <use style="fill:#4c72b0;" x="121.511098" xlink:href="#m99ffe57e29" y="198.013432"/>
     <use style="fill:#4c72b0;" x="118.694091" xlink:href="#m99ffe57e29" y="207.951644"/>
     <use style="fill:#4c72b0;" x="110.971474" xlink:href="#m99ffe57e29" y="210.281288"/>
     <use style="fill:#4c72b0;" x="86.544213" xlink:href="#m99ffe57e29" y="233.283239"/>
     <use style="fill:#4c72b0;" x="114.678216" xlink:href="#m99ffe57e29" y="205.200199"/>
     <use style="fill:#4c72b0;" x="112.549608" xlink:href="#m99ffe57e29" y="209.55012"/>
     <use style="fill:#4c72b0;" x="111.477149" xlink:href="#m99ffe57e29" y="210.930923"/>
     <use style="fill:#4c72b0;" x="119.927512" xlink:href="#m99ffe57e29" y="201.349016"/>
     <use style="fill:#4c72b0;" x="134.652363" xlink:href="#m99ffe57e29" y="187.996083"/>
     <use style="fill:#4c72b0;" x="103.607" xlink:href="#m99ffe57e29" y="224.338231"/>
     <use style="fill:#4c72b0;" x="132.178736" xlink:href="#m99ffe57e29" y="186.449876"/>
     <use style="fill:#4c72b0;" x="93.116904" xlink:href="#m99ffe57e29" y="225.611775"/>
     <use style="fill:#4c72b0;" x="112.089606" xlink:href="#m99ffe57e29" y="209.548783"/>
     <use style="fill:#4c72b0;" x="104.100047" xlink:href="#m99ffe57e29" y="221.320577"/>
     <use style="fill:#4c72b0;" x="105.710122" xlink:href="#m99ffe57e29" y="214.176978"/>
     <use style="fill:#4c72b0;" x="130.280871" xlink:href="#m99ffe57e29" y="191.349055"/>
     <use style="fill:#4c72b0;" x="102.590322" xlink:href="#m99ffe57e29" y="220.18549"/>
     <use style="fill:#4c72b0;" x="109.896706" xlink:href="#m99ffe57e29" y="214.288801"/>
     <use style="fill:#4c72b0;" x="123.247516" xlink:href="#m99ffe57e29" y="201.176229"/>
     <use style="fill:#4c72b0;" x="100.591511" xlink:href="#m99ffe57e29" y="216.620773"/>
     <use style="fill:#4c72b0;" x="100.047209" xlink:href="#m99ffe57e29" y="218.099634"/>
     <use style="fill:#4c72b0;" x="112.431623" xlink:href="#m99ffe57e29" y="212.37717"/>
     <use style="fill:#4c72b0;" x="103.787727" xlink:href="#m99ffe57e29" y="210.172705"/>
     <use style="fill:#4c72b0;" x="110.72202" xlink:href="#m99ffe57e29" y="208.83356"/>
     <use style="fill:#4c72b0;" x="123.476111" xlink:href="#m99ffe57e29" y="203.894742"/>
     <use style="fill:#4c72b0;" x="98.216585" xlink:href="#m99ffe57e29" y="224.69522"/>
     <use style="fill:#4c72b0;" x="99.331235" xlink:href="#m99ffe57e29" y="224.669563"/>
     <use style="fill:#4c72b0;" x="103.472928" xlink:href="#m99ffe57e29" y="219.405685"/>
     <use style="fill:#4c72b0;" x="98.968134" xlink:href="#m99ffe57e29" y="227.592755"/>
     <use style="fill:#4c72b0;" x="123.087595" xlink:href="#m99ffe57e29" y="199.222079"/>
     <use style="fill:#4c72b0;" x="119.024086" xlink:href="#m99ffe57e29" y="198.888654"/>
     <use style="fill:#4c72b0;" x="107.856442" xlink:href="#m99ffe57e29" y="217.097116"/>
     <use style="fill:#4c72b0;" x="100.31594" xlink:href="#m99ffe57e29" y="221.959574"/>
     <use style="fill:#4c72b0;" x="91.769667" xlink:href="#m99ffe57e29" y="228.85068"/>
     <use style="fill:#4c72b0;" x="103.345597" xlink:href="#m99ffe57e29" y="212.331846"/>
     <use style="fill:#4c72b0;" x="103.526567" xlink:href="#m99ffe57e29" y="220.698731"/>
     <use style="fill:#4c72b0;" x="107.845358" xlink:href="#m99ffe57e29" y="219.492931"/>
     <use style="fill:#4c72b0;" x="86.477015" xlink:href="#m99ffe57e29" y="226.320457"/>
     <use style="fill:#4c72b0;" x="108.435752" xlink:href="#m99ffe57e29" y="213.221027"/>
     <use style="fill:#4c72b0;" x="97.368649" xlink:href="#m99ffe57e29" y="223.43672"/>
     <use style="fill:#4c72b0;" x="96.541189" xlink:href="#m99ffe57e29" y="223.9255"/>
    </g>
   </g>
   <g id="patch_13">
    <path d="M 47.521676 273.666214 
L 47.521676 156.79277 
" style="fill:none;"/>
   </g>
   <g id="patch_14">
    <path d="M 164.395121 273.666214 
L 164.395121 156.79277 
" style="fill:none;"/>
   </g>
   <g id="patch_15">
    <path d="M 47.521676 273.666214 
L 164.395121 273.666214 
" style="fill:none;"/>
   </g>
   <g id="patch_16">
    <path d="M 47.521676 156.79277 
L 164.395121 156.79277 
" style="fill:none;"/>
   </g>
   <g id="text_21">
    <!-- (c) -->
    <defs>
     <path d="M 40.4375 19 
L 49.078125 17.875 
Q 47.65625 8.9375 41.8125 3.875 
Q 35.984375 -1.171875 27.484375 -1.171875 
Q 16.84375 -1.171875 10.375 5.78125 
Q 3.90625 12.75 3.90625 25.734375 
Q 3.90625 34.125 6.6875 40.421875 
Q 9.46875 46.734375 15.15625 49.875 
Q 20.84375 53.03125 27.546875 53.03125 
Q 35.984375 53.03125 41.359375 48.75 
Q 46.734375 44.484375 48.25 36.625 
L 39.703125 35.296875 
Q 38.484375 40.53125 35.375 43.15625 
Q 32.28125 45.796875 27.875 45.796875 
Q 21.234375 45.796875 17.078125 41.03125 
Q 12.9375 36.28125 12.9375 25.984375 
Q 12.9375 15.53125 16.9375 10.796875 
Q 20.953125 6.0625 27.390625 6.0625 
Q 32.5625 6.0625 36.03125 9.234375 
Q 39.5 12.40625 40.4375 19 
z
" id="ArialMT-99"/>
    </defs>
    <g style="fill:#262626;" transform="translate(50.443512 174.323787)scale(0.16 -0.16)">
     <use xlink:href="#ArialMT-40"/>
     <use x="33.300781" xlink:href="#ArialMT-99"/>
     <use x="83.300781" xlink:href="#ArialMT-41"/>
    </g>
   </g>
  </g>
  <g id="axes_4">
   <g id="patch_17">
    <path d="M 184.969254 273.666214 
L 301.842699 273.666214 
L 301.842699 156.79277 
L 184.969254 156.79277 
z
" style="fill:#eaeaf2;"/>
   </g>
   <g id="matplotlib.axis_7">
    <g id="xtick_10">
     <g id="line2d_58">
      <path clip-path="url(#p17ff0cd7f9)" d="M 184.969254 273.666214 
L 184.969254 156.79277 
" style="fill:none;stroke:#ffffff;stroke-linecap:round;"/>
     </g>
     <g id="line2d_59"/>
     <g id="text_22">
      <!-- 0 -->
      <g style="fill:#262626;" transform="translate(182.188786 287.824027)scale(0.1 -0.1)">
       <use xlink:href="#ArialMT-48"/>
      </g>
     </g>
    </g>
    <g id="xtick_11">
     <g id="line2d_60">
      <path clip-path="url(#p17ff0cd7f9)" d="M 243.405977 273.666214 
L 243.405977 156.79277 
" style="fill:none;stroke:#ffffff;stroke-linecap:round;"/>
     </g>
     <g id="line2d_61"/>
     <g id="text_23">
      <!-- 5 -->
      <g style="fill:#262626;" transform="translate(240.625508 287.824027)scale(0.1 -0.1)">
       <use xlink:href="#ArialMT-53"/>
      </g>
     </g>
    </g>
    <g id="xtick_12">
     <g id="line2d_62">
      <path clip-path="url(#p17ff0cd7f9)" d="M 301.842699 273.666214 
L 301.842699 156.79277 
" style="fill:none;stroke:#ffffff;stroke-linecap:round;"/>
     </g>
     <g id="line2d_63"/>
     <g id="text_24">
      <!-- 10 -->
      <g style="fill:#262626;" transform="translate(296.281761 287.824027)scale(0.1 -0.1)">
       <use xlink:href="#ArialMT-49"/>
       <use x="55.615234" xlink:href="#ArialMT-48"/>
      </g>
     </g>
    </g>
    <g id="text_25">
     <!-- x -->
     <g style="fill:#262626;" transform="translate(239.905977 303.832464)scale(0.14 -0.14)">
      <use xlink:href="#ArialMT-120"/>
     </g>
    </g>
   </g>
   <g id="matplotlib.axis_8">
    <g id="ytick_19">
     <g id="line2d_64">
      <path clip-path="url(#p17ff0cd7f9)" d="M 184.969254 273.666214 
L 301.842699 273.666214 
" style="fill:none;stroke:#ffffff;stroke-linecap:round;"/>
     </g>
     <g id="line2d_65"/>
    </g>
    <g id="ytick_20">
     <g id="line2d_66">
      <path clip-path="url(#p17ff0cd7f9)" d="M 184.969254 250.291526 
L 301.842699 250.291526 
" style="fill:none;stroke:#ffffff;stroke-linecap:round;"/>
     </g>
     <g id="line2d_67"/>
    </g>
    <g id="ytick_21">
     <g id="line2d_68">
      <path clip-path="url(#p17ff0cd7f9)" d="M 184.969254 226.916837 
L 301.842699 226.916837 
" style="fill:none;stroke:#ffffff;stroke-linecap:round;"/>
     </g>
     <g id="line2d_69"/>
    </g>
    <g id="ytick_22">
     <g id="line2d_70">
      <path clip-path="url(#p17ff0cd7f9)" d="M 184.969254 203.542148 
L 301.842699 203.542148 
" style="fill:none;stroke:#ffffff;stroke-linecap:round;"/>
     </g>
     <g id="line2d_71"/>
    </g>
    <g id="ytick_23">
     <g id="line2d_72">
      <path clip-path="url(#p17ff0cd7f9)" d="M 184.969254 180.167459 
L 301.842699 180.167459 
" style="fill:none;stroke:#ffffff;stroke-linecap:round;"/>
     </g>
     <g id="line2d_73"/>
    </g>
    <g id="ytick_24">
     <g id="line2d_74">
      <path clip-path="url(#p17ff0cd7f9)" d="M 184.969254 156.79277 
L 301.842699 156.79277 
" style="fill:none;stroke:#ffffff;stroke-linecap:round;"/>
     </g>
     <g id="line2d_75"/>
    </g>
   </g>
   <g id="line2d_76">
    <g clip-path="url(#p17ff0cd7f9)">
     <use style="fill:#4c72b0;" x="244.798635" xlink:href="#m99ffe57e29" y="224.460294"/>
     <use style="fill:#4c72b0;" x="237.483409" xlink:href="#m99ffe57e29" y="202.612608"/>
     <use style="fill:#4c72b0;" x="238.61868" xlink:href="#m99ffe57e29" y="213.230282"/>
     <use style="fill:#4c72b0;" x="205.76464" xlink:href="#m99ffe57e29" y="225.389256"/>
     <use style="fill:#4c72b0;" x="239.716203" xlink:href="#m99ffe57e29" y="223.354023"/>
     <use style="fill:#4c72b0;" x="254.657566" xlink:href="#m99ffe57e29" y="215.331738"/>
     <use style="fill:#4c72b0;" x="242.151365" xlink:href="#m99ffe57e29" y="216.208522"/>
     <use style="fill:#4c72b0;" x="227.489907" xlink:href="#m99ffe57e29" y="215.58406"/>
     <use style="fill:#4c72b0;" x="265.114616" xlink:href="#m99ffe57e29" y="207.692886"/>
     <use style="fill:#4c72b0;" x="237.767173" xlink:href="#m99ffe57e29" y="223.093095"/>
     <use style="fill:#4c72b0;" x="259.015584" xlink:href="#m99ffe57e29" y="222.890193"/>
     <use style="fill:#4c72b0;" x="240.511753" xlink:href="#m99ffe57e29" y="224.982203"/>
     <use style="fill:#4c72b0;" x="260.480623" xlink:href="#m99ffe57e29" y="207.924746"/>
     <use style="fill:#4c72b0;" x="241.160329" xlink:href="#m99ffe57e29" y="199.47363"/>
     <use style="fill:#4c72b0;" x="256.440827" xlink:href="#m99ffe57e29" y="211.822704"/>
     <use style="fill:#4c72b0;" x="210.296189" xlink:href="#m99ffe57e29" y="209.885873"/>
     <use style="fill:#4c72b0;" x="237.419368" xlink:href="#m99ffe57e29" y="205.880361"/>
     <use style="fill:#4c72b0;" x="219.719671" xlink:href="#m99ffe57e29" y="217.109253"/>
     <use style="fill:#4c72b0;" x="231.725224" xlink:href="#m99ffe57e29" y="216.372129"/>
     <use style="fill:#4c72b0;" x="249.096006" xlink:href="#m99ffe57e29" y="229.264231"/>
     <use style="fill:#4c72b0;" x="247.311022" xlink:href="#m99ffe57e29" y="217.447918"/>
     <use style="fill:#4c72b0;" x="253.076264" xlink:href="#m99ffe57e29" y="211.694894"/>
     <use style="fill:#4c72b0;" x="229.595974" xlink:href="#m99ffe57e29" y="208.930695"/>
     <use style="fill:#4c72b0;" x="241.455276" xlink:href="#m99ffe57e29" y="223.361551"/>
     <use style="fill:#4c72b0;" x="233.507795" xlink:href="#m99ffe57e29" y="216.634649"/>
     <use style="fill:#4c72b0;" x="231.382501" xlink:href="#m99ffe57e29" y="217.434097"/>
     <use style="fill:#4c72b0;" x="251.246107" xlink:href="#m99ffe57e29" y="222.657239"/>
     <use style="fill:#4c72b0;" x="238.1638" xlink:href="#m99ffe57e29" y="221.336201"/>
     <use style="fill:#4c72b0;" x="262.722262" xlink:href="#m99ffe57e29" y="219.556222"/>
     <use style="fill:#4c72b0;" x="216.86211" xlink:href="#m99ffe57e29" y="222.476884"/>
     <use style="fill:#4c72b0;" x="262.01425" xlink:href="#m99ffe57e29" y="225.135745"/>
     <use style="fill:#4c72b0;" x="218.209604" xlink:href="#m99ffe57e29" y="209.14099"/>
     <use style="fill:#4c72b0;" x="242.573517" xlink:href="#m99ffe57e29" y="218.82124"/>
     <use style="fill:#4c72b0;" x="238.401031" xlink:href="#m99ffe57e29" y="211.7705"/>
     <use style="fill:#4c72b0;" x="268.608956" xlink:href="#m99ffe57e29" y="239.883826"/>
     <use style="fill:#4c72b0;" x="219.704691" xlink:href="#m99ffe57e29" y="214.800955"/>
     <use style="fill:#4c72b0;" x="229.430231" xlink:href="#m99ffe57e29" y="224.471523"/>
     <use style="fill:#4c72b0;" x="267.715857" xlink:href="#m99ffe57e29" y="187.478968"/>
     <use style="fill:#4c72b0;" x="229.472866" xlink:href="#m99ffe57e29" y="228.922766"/>
     <use style="fill:#4c72b0;" x="278.277645" xlink:href="#m99ffe57e29" y="219.805709"/>
     <use style="fill:#4c72b0;" x="223.010515" xlink:href="#m99ffe57e29" y="214.709374"/>
     <use style="fill:#4c72b0;" x="236.532589" xlink:href="#m99ffe57e29" y="217.378083"/>
     <use style="fill:#4c72b0;" x="207.394339" xlink:href="#m99ffe57e29" y="224.28141"/>
     <use style="fill:#4c72b0;" x="255.218416" xlink:href="#m99ffe57e29" y="211.354204"/>
     <use style="fill:#4c72b0;" x="274.410023" xlink:href="#m99ffe57e29" y="214.171595"/>
     <use style="fill:#4c72b0;" x="238.462954" xlink:href="#m99ffe57e29" y="203.730806"/>
     <use style="fill:#4c72b0;" x="254.14042" xlink:href="#m99ffe57e29" y="201.928545"/>
     <use style="fill:#4c72b0;" x="232.083063" xlink:href="#m99ffe57e29" y="213.56676"/>
     <use style="fill:#4c72b0;" x="238.90964" xlink:href="#m99ffe57e29" y="203.569855"/>
     <use style="fill:#4c72b0;" x="234.450512" xlink:href="#m99ffe57e29" y="222.429998"/>
    </g>
   </g>
   <g id="patch_18">
    <path d="M 184.969254 273.666214 
L 184.969254 156.79277 
" style="fill:none;"/>
   </g>
   <g id="patch_19">
    <path d="M 301.842699 273.666214 
L 301.842699 156.79277 
" style="fill:none;"/>
   </g>
   <g id="patch_20">
    <path d="M 184.969254 273.666214 
L 301.842699 273.666214 
" style="fill:none;"/>
   </g>
   <g id="patch_21">
    <path d="M 184.969254 156.79277 
L 301.842699 156.79277 
" style="fill:none;"/>
   </g>
   <g id="text_26">
    <!-- (d) -->
    <defs>
     <path d="M 40.234375 0 
L 40.234375 6.546875 
Q 35.296875 -1.171875 25.734375 -1.171875 
Q 19.53125 -1.171875 14.328125 2.25 
Q 9.125 5.671875 6.265625 11.796875 
Q 3.421875 17.921875 3.421875 25.875 
Q 3.421875 33.640625 6 39.96875 
Q 8.59375 46.296875 13.765625 49.65625 
Q 18.953125 53.03125 25.34375 53.03125 
Q 30.03125 53.03125 33.6875 51.046875 
Q 37.359375 49.078125 39.65625 45.90625 
L 39.65625 71.578125 
L 48.390625 71.578125 
L 48.390625 0 
z
M 12.453125 25.875 
Q 12.453125 15.921875 16.640625 10.984375 
Q 20.84375 6.0625 26.5625 6.0625 
Q 32.328125 6.0625 36.34375 10.765625 
Q 40.375 15.484375 40.375 25.140625 
Q 40.375 35.796875 36.265625 40.765625 
Q 32.171875 45.75 26.171875 45.75 
Q 20.3125 45.75 16.375 40.96875 
Q 12.453125 36.1875 12.453125 25.875 
z
" id="ArialMT-100"/>
    </defs>
    <g style="fill:#262626;" transform="translate(187.89109 174.323787)scale(0.16 -0.16)">
     <use xlink:href="#ArialMT-40"/>
     <use x="33.300781" xlink:href="#ArialMT-100"/>
     <use x="88.916016" xlink:href="#ArialMT-41"/>
    </g>
   </g>
  </g>
 </g>
 <defs>
  <clipPath id="pfacc386ed8">
   <rect height="116.873445" width="116.873445" x="47.521676" y="16.963942"/>
  </clipPath>
  <clipPath id="p93cd60d165">
   <rect height="116.873445" width="116.873445" x="184.969254" y="16.963942"/>
  </clipPath>
  <clipPath id="p233e0fc4bc">
   <rect height="116.873445" width="116.873445" x="47.521676" y="156.79277"/>
  </clipPath>
  <clipPath id="p17ff0cd7f9">
   <rect height="116.873445" width="116.873445" x="184.969254" y="156.79277"/>
  </clipPath>
 </defs>
</svg>
